<?xml version="1.0" encoding="utf-8" standalone="no"?>
<!DOCTYPE svg PUBLIC "-//W3C//DTD SVG 1.1//EN"
  "http://www.w3.org/Graphics/SVG/1.1/DTD/svg11.dtd">
<!-- Created with matplotlib (http://matplotlib.org/) -->
<svg height="407.52pt" version="1.1" viewBox="0 0 576 407.52" width="576pt" xmlns="http://www.w3.org/2000/svg" xmlns:xlink="http://www.w3.org/1999/xlink">
 <defs>
  <style type="text/css">
*{stroke-linecap:butt;stroke-linejoin:round;}
  </style>
 </defs>
 <g id="figure_1">
  <g id="patch_1">
   <path d="M 0 407.52 
L 576 407.52 
L 576 0 
L 0 0 
z
" style="fill:#ffffff;"/>
  </g>
  <g id="axes_1">
   <g id="patch_2">
    <path d="M 72 362.6928 
L 518.4 362.6928 
L 518.4 48.9024 
L 72 48.9024 
z
" style="fill:#ffffff;"/>
   </g>
   <g id="matplotlib.axis_1">
    <g id="xtick_1">
     <g id="line2d_1">
      <path clip-path="url(#p044c328f7c)" d="M 92.087898 362.6928 
L 92.087898 48.9024 
" style="fill:none;stroke:#b0b0b0;stroke-linecap:square;stroke-width:0.8;"/>
     </g>
     <g id="line2d_2">
      <defs>
       <path d="M 0 0 
L 0 3.5 
" id="m6b9832b028" style="stroke:#000000;stroke-width:0.8;"/>
      </defs>
      <g>
       <use style="stroke:#000000;stroke-width:0.8;" x="92.087898" xlink:href="#m6b9832b028" y="362.6928"/>
      </g>
     </g>
     <g id="text_1">
      <!-- 0 -->
      <defs>
       <path d="M 31.78125 66.40625 
Q 24.171875 66.40625 20.328125 58.90625 
Q 16.5 51.421875 16.5 36.375 
Q 16.5 21.390625 20.328125 13.890625 
Q 24.171875 6.390625 31.78125 6.390625 
Q 39.453125 6.390625 43.28125 13.890625 
Q 47.125 21.390625 47.125 36.375 
Q 47.125 51.421875 43.28125 58.90625 
Q 39.453125 66.40625 31.78125 66.40625 
z
M 31.78125 74.21875 
Q 44.046875 74.21875 50.515625 64.515625 
Q 56.984375 54.828125 56.984375 36.375 
Q 56.984375 17.96875 50.515625 8.265625 
Q 44.046875 -1.421875 31.78125 -1.421875 
Q 19.53125 -1.421875 13.0625 8.265625 
Q 6.59375 17.96875 6.59375 36.375 
Q 6.59375 54.828125 13.0625 64.515625 
Q 19.53125 74.21875 31.78125 74.21875 
z
" id="DejaVuSans-30"/>
      </defs>
      <g transform="translate(88.906648 377.291237)scale(0.1 -0.1)">
       <use xlink:href="#DejaVuSans-30"/>
      </g>
     </g>
    </g>
    <g id="xtick_2">
     <g id="line2d_3">
      <path clip-path="url(#p044c328f7c)" d="M 142.840548 362.6928 
L 142.840548 48.9024 
" style="fill:none;stroke:#b0b0b0;stroke-linecap:square;stroke-width:0.8;"/>
     </g>
     <g id="line2d_4">
      <g>
       <use style="stroke:#000000;stroke-width:0.8;" x="142.840548" xlink:href="#m6b9832b028" y="362.6928"/>
      </g>
     </g>
     <g id="text_2">
      <!-- 250 -->
      <defs>
       <path d="M 19.1875 8.296875 
L 53.609375 8.296875 
L 53.609375 0 
L 7.328125 0 
L 7.328125 8.296875 
Q 12.9375 14.109375 22.625 23.890625 
Q 32.328125 33.6875 34.8125 36.53125 
Q 39.546875 41.84375 41.421875 45.53125 
Q 43.3125 49.21875 43.3125 52.78125 
Q 43.3125 58.59375 39.234375 62.25 
Q 35.15625 65.921875 28.609375 65.921875 
Q 23.96875 65.921875 18.8125 64.3125 
Q 13.671875 62.703125 7.8125 59.421875 
L 7.8125 69.390625 
Q 13.765625 71.78125 18.9375 73 
Q 24.125 74.21875 28.421875 74.21875 
Q 39.75 74.21875 46.484375 68.546875 
Q 53.21875 62.890625 53.21875 53.421875 
Q 53.21875 48.921875 51.53125 44.890625 
Q 49.859375 40.875 45.40625 35.40625 
Q 44.1875 33.984375 37.640625 27.21875 
Q 31.109375 20.453125 19.1875 8.296875 
z
" id="DejaVuSans-32"/>
       <path d="M 10.796875 72.90625 
L 49.515625 72.90625 
L 49.515625 64.59375 
L 19.828125 64.59375 
L 19.828125 46.734375 
Q 21.96875 47.46875 24.109375 47.828125 
Q 26.265625 48.1875 28.421875 48.1875 
Q 40.625 48.1875 47.75 41.5 
Q 54.890625 34.8125 54.890625 23.390625 
Q 54.890625 11.625 47.5625 5.09375 
Q 40.234375 -1.421875 26.90625 -1.421875 
Q 22.3125 -1.421875 17.546875 -0.640625 
Q 12.796875 0.140625 7.71875 1.703125 
L 7.71875 11.625 
Q 12.109375 9.234375 16.796875 8.0625 
Q 21.484375 6.890625 26.703125 6.890625 
Q 35.15625 6.890625 40.078125 11.328125 
Q 45.015625 15.765625 45.015625 23.390625 
Q 45.015625 31 40.078125 35.4375 
Q 35.15625 39.890625 26.703125 39.890625 
Q 22.75 39.890625 18.8125 39.015625 
Q 14.890625 38.140625 10.796875 36.28125 
z
" id="DejaVuSans-35"/>
      </defs>
      <g transform="translate(133.296798 377.291237)scale(0.1 -0.1)">
       <use xlink:href="#DejaVuSans-32"/>
       <use x="63.623047" xlink:href="#DejaVuSans-35"/>
       <use x="127.246094" xlink:href="#DejaVuSans-30"/>
      </g>
     </g>
    </g>
    <g id="xtick_3">
     <g id="line2d_5">
      <path clip-path="url(#p044c328f7c)" d="M 193.593197 362.6928 
L 193.593197 48.9024 
" style="fill:none;stroke:#b0b0b0;stroke-linecap:square;stroke-width:0.8;"/>
     </g>
     <g id="line2d_6">
      <g>
       <use style="stroke:#000000;stroke-width:0.8;" x="193.593197" xlink:href="#m6b9832b028" y="362.6928"/>
      </g>
     </g>
     <g id="text_3">
      <!-- 500 -->
      <g transform="translate(184.049447 377.291237)scale(0.1 -0.1)">
       <use xlink:href="#DejaVuSans-35"/>
       <use x="63.623047" xlink:href="#DejaVuSans-30"/>
       <use x="127.246094" xlink:href="#DejaVuSans-30"/>
      </g>
     </g>
    </g>
    <g id="xtick_4">
     <g id="line2d_7">
      <path clip-path="url(#p044c328f7c)" d="M 244.345846 362.6928 
L 244.345846 48.9024 
" style="fill:none;stroke:#b0b0b0;stroke-linecap:square;stroke-width:0.8;"/>
     </g>
     <g id="line2d_8">
      <g>
       <use style="stroke:#000000;stroke-width:0.8;" x="244.345846" xlink:href="#m6b9832b028" y="362.6928"/>
      </g>
     </g>
     <g id="text_4">
      <!-- 750 -->
      <defs>
       <path d="M 8.203125 72.90625 
L 55.078125 72.90625 
L 55.078125 68.703125 
L 28.609375 0 
L 18.3125 0 
L 43.21875 64.59375 
L 8.203125 64.59375 
z
" id="DejaVuSans-37"/>
      </defs>
      <g transform="translate(234.802096 377.291237)scale(0.1 -0.1)">
       <use xlink:href="#DejaVuSans-37"/>
       <use x="63.623047" xlink:href="#DejaVuSans-35"/>
       <use x="127.246094" xlink:href="#DejaVuSans-30"/>
      </g>
     </g>
    </g>
    <g id="xtick_5">
     <g id="line2d_9">
      <path clip-path="url(#p044c328f7c)" d="M 295.098495 362.6928 
L 295.098495 48.9024 
" style="fill:none;stroke:#b0b0b0;stroke-linecap:square;stroke-width:0.8;"/>
     </g>
     <g id="line2d_10">
      <g>
       <use style="stroke:#000000;stroke-width:0.8;" x="295.098495" xlink:href="#m6b9832b028" y="362.6928"/>
      </g>
     </g>
     <g id="text_5">
      <!-- 1000 -->
      <defs>
       <path d="M 12.40625 8.296875 
L 28.515625 8.296875 
L 28.515625 63.921875 
L 10.984375 60.40625 
L 10.984375 69.390625 
L 28.421875 72.90625 
L 38.28125 72.90625 
L 38.28125 8.296875 
L 54.390625 8.296875 
L 54.390625 0 
L 12.40625 0 
z
" id="DejaVuSans-31"/>
      </defs>
      <g transform="translate(282.373495 377.291237)scale(0.1 -0.1)">
       <use xlink:href="#DejaVuSans-31"/>
       <use x="63.623047" xlink:href="#DejaVuSans-30"/>
       <use x="127.246094" xlink:href="#DejaVuSans-30"/>
       <use x="190.869141" xlink:href="#DejaVuSans-30"/>
      </g>
     </g>
    </g>
    <g id="xtick_6">
     <g id="line2d_11">
      <path clip-path="url(#p044c328f7c)" d="M 345.851144 362.6928 
L 345.851144 48.9024 
" style="fill:none;stroke:#b0b0b0;stroke-linecap:square;stroke-width:0.8;"/>
     </g>
     <g id="line2d_12">
      <g>
       <use style="stroke:#000000;stroke-width:0.8;" x="345.851144" xlink:href="#m6b9832b028" y="362.6928"/>
      </g>
     </g>
     <g id="text_6">
      <!-- 1250 -->
      <g transform="translate(333.126144 377.291237)scale(0.1 -0.1)">
       <use xlink:href="#DejaVuSans-31"/>
       <use x="63.623047" xlink:href="#DejaVuSans-32"/>
       <use x="127.246094" xlink:href="#DejaVuSans-35"/>
       <use x="190.869141" xlink:href="#DejaVuSans-30"/>
      </g>
     </g>
    </g>
    <g id="xtick_7">
     <g id="line2d_13">
      <path clip-path="url(#p044c328f7c)" d="M 396.603793 362.6928 
L 396.603793 48.9024 
" style="fill:none;stroke:#b0b0b0;stroke-linecap:square;stroke-width:0.8;"/>
     </g>
     <g id="line2d_14">
      <g>
       <use style="stroke:#000000;stroke-width:0.8;" x="396.603793" xlink:href="#m6b9832b028" y="362.6928"/>
      </g>
     </g>
     <g id="text_7">
      <!-- 1500 -->
      <g transform="translate(383.878793 377.291237)scale(0.1 -0.1)">
       <use xlink:href="#DejaVuSans-31"/>
       <use x="63.623047" xlink:href="#DejaVuSans-35"/>
       <use x="127.246094" xlink:href="#DejaVuSans-30"/>
       <use x="190.869141" xlink:href="#DejaVuSans-30"/>
      </g>
     </g>
    </g>
    <g id="xtick_8">
     <g id="line2d_15">
      <path clip-path="url(#p044c328f7c)" d="M 447.356442 362.6928 
L 447.356442 48.9024 
" style="fill:none;stroke:#b0b0b0;stroke-linecap:square;stroke-width:0.8;"/>
     </g>
     <g id="line2d_16">
      <g>
       <use style="stroke:#000000;stroke-width:0.8;" x="447.356442" xlink:href="#m6b9832b028" y="362.6928"/>
      </g>
     </g>
     <g id="text_8">
      <!-- 1750 -->
      <g transform="translate(434.631442 377.291237)scale(0.1 -0.1)">
       <use xlink:href="#DejaVuSans-31"/>
       <use x="63.623047" xlink:href="#DejaVuSans-37"/>
       <use x="127.246094" xlink:href="#DejaVuSans-35"/>
       <use x="190.869141" xlink:href="#DejaVuSans-30"/>
      </g>
     </g>
    </g>
    <g id="xtick_9">
     <g id="line2d_17">
      <path clip-path="url(#p044c328f7c)" d="M 498.109091 362.6928 
L 498.109091 48.9024 
" style="fill:none;stroke:#b0b0b0;stroke-linecap:square;stroke-width:0.8;"/>
     </g>
     <g id="line2d_18">
      <g>
       <use style="stroke:#000000;stroke-width:0.8;" x="498.109091" xlink:href="#m6b9832b028" y="362.6928"/>
      </g>
     </g>
     <g id="text_9">
      <!-- 2000 -->
      <g transform="translate(485.384091 377.291237)scale(0.1 -0.1)">
       <use xlink:href="#DejaVuSans-32"/>
       <use x="63.623047" xlink:href="#DejaVuSans-30"/>
       <use x="127.246094" xlink:href="#DejaVuSans-30"/>
       <use x="190.869141" xlink:href="#DejaVuSans-30"/>
      </g>
     </g>
    </g>
    <g id="text_10">
     <!-- # balls -->
     <defs>
      <path d="M 51.125 44 
L 36.921875 44 
L 32.8125 27.6875 
L 47.125 27.6875 
z
M 43.796875 71.78125 
L 38.71875 51.515625 
L 52.984375 51.515625 
L 58.109375 71.78125 
L 65.921875 71.78125 
L 60.890625 51.515625 
L 76.125 51.515625 
L 76.125 44 
L 58.984375 44 
L 54.984375 27.6875 
L 70.515625 27.6875 
L 70.515625 20.21875 
L 53.078125 20.21875 
L 48 0 
L 40.1875 0 
L 45.21875 20.21875 
L 30.90625 20.21875 
L 25.875 0 
L 18.015625 0 
L 23.09375 20.21875 
L 7.71875 20.21875 
L 7.71875 27.6875 
L 24.90625 27.6875 
L 29 44 
L 13.28125 44 
L 13.28125 51.515625 
L 30.90625 51.515625 
L 35.890625 71.78125 
z
" id="DejaVuSans-23"/>
      <path id="DejaVuSans-20"/>
      <path d="M 48.6875 27.296875 
Q 48.6875 37.203125 44.609375 42.84375 
Q 40.53125 48.484375 33.40625 48.484375 
Q 26.265625 48.484375 22.1875 42.84375 
Q 18.109375 37.203125 18.109375 27.296875 
Q 18.109375 17.390625 22.1875 11.75 
Q 26.265625 6.109375 33.40625 6.109375 
Q 40.53125 6.109375 44.609375 11.75 
Q 48.6875 17.390625 48.6875 27.296875 
z
M 18.109375 46.390625 
Q 20.953125 51.265625 25.265625 53.625 
Q 29.59375 56 35.59375 56 
Q 45.5625 56 51.78125 48.09375 
Q 58.015625 40.1875 58.015625 27.296875 
Q 58.015625 14.40625 51.78125 6.484375 
Q 45.5625 -1.421875 35.59375 -1.421875 
Q 29.59375 -1.421875 25.265625 0.953125 
Q 20.953125 3.328125 18.109375 8.203125 
L 18.109375 0 
L 9.078125 0 
L 9.078125 75.984375 
L 18.109375 75.984375 
z
" id="DejaVuSans-62"/>
      <path d="M 34.28125 27.484375 
Q 23.390625 27.484375 19.1875 25 
Q 14.984375 22.515625 14.984375 16.5 
Q 14.984375 11.71875 18.140625 8.90625 
Q 21.296875 6.109375 26.703125 6.109375 
Q 34.1875 6.109375 38.703125 11.40625 
Q 43.21875 16.703125 43.21875 25.484375 
L 43.21875 27.484375 
z
M 52.203125 31.203125 
L 52.203125 0 
L 43.21875 0 
L 43.21875 8.296875 
Q 40.140625 3.328125 35.546875 0.953125 
Q 30.953125 -1.421875 24.3125 -1.421875 
Q 15.921875 -1.421875 10.953125 3.296875 
Q 6 8.015625 6 15.921875 
Q 6 25.140625 12.171875 29.828125 
Q 18.359375 34.515625 30.609375 34.515625 
L 43.21875 34.515625 
L 43.21875 35.40625 
Q 43.21875 41.609375 39.140625 45 
Q 35.0625 48.390625 27.6875 48.390625 
Q 23 48.390625 18.546875 47.265625 
Q 14.109375 46.140625 10.015625 43.890625 
L 10.015625 52.203125 
Q 14.9375 54.109375 19.578125 55.046875 
Q 24.21875 56 28.609375 56 
Q 40.484375 56 46.34375 49.84375 
Q 52.203125 43.703125 52.203125 31.203125 
z
" id="DejaVuSans-61"/>
      <path d="M 9.421875 75.984375 
L 18.40625 75.984375 
L 18.40625 0 
L 9.421875 0 
z
" id="DejaVuSans-6c"/>
      <path d="M 44.28125 53.078125 
L 44.28125 44.578125 
Q 40.484375 46.53125 36.375 47.5 
Q 32.28125 48.484375 27.875 48.484375 
Q 21.1875 48.484375 17.84375 46.4375 
Q 14.5 44.390625 14.5 40.28125 
Q 14.5 37.15625 16.890625 35.375 
Q 19.28125 33.59375 26.515625 31.984375 
L 29.59375 31.296875 
Q 39.15625 29.25 43.1875 25.515625 
Q 47.21875 21.78125 47.21875 15.09375 
Q 47.21875 7.46875 41.1875 3.015625 
Q 35.15625 -1.421875 24.609375 -1.421875 
Q 20.21875 -1.421875 15.453125 -0.5625 
Q 10.6875 0.296875 5.421875 2 
L 5.421875 11.28125 
Q 10.40625 8.6875 15.234375 7.390625 
Q 20.0625 6.109375 24.8125 6.109375 
Q 31.15625 6.109375 34.5625 8.28125 
Q 37.984375 10.453125 37.984375 14.40625 
Q 37.984375 18.0625 35.515625 20.015625 
Q 33.0625 21.96875 24.703125 23.78125 
L 21.578125 24.515625 
Q 13.234375 26.265625 9.515625 29.90625 
Q 5.8125 33.546875 5.8125 39.890625 
Q 5.8125 47.609375 11.28125 51.796875 
Q 16.75 56 26.8125 56 
Q 31.78125 56 36.171875 55.265625 
Q 40.578125 54.546875 44.28125 53.078125 
z
" id="DejaVuSans-73"/>
     </defs>
     <g transform="translate(277.8 390.969362)scale(0.1 -0.1)">
      <use xlink:href="#DejaVuSans-23"/>
      <use x="83.789062" xlink:href="#DejaVuSans-20"/>
      <use x="115.576172" xlink:href="#DejaVuSans-62"/>
      <use x="179.052734" xlink:href="#DejaVuSans-61"/>
      <use x="240.332031" xlink:href="#DejaVuSans-6c"/>
      <use x="268.115234" xlink:href="#DejaVuSans-6c"/>
      <use x="295.898438" xlink:href="#DejaVuSans-73"/>
     </g>
    </g>
   </g>
   <g id="matplotlib.axis_2">
    <g id="ytick_1">
     <g id="line2d_19">
      <path clip-path="url(#p044c328f7c)" d="M 72 348.835959 
L 518.4 348.835959 
" style="fill:none;stroke:#b0b0b0;stroke-linecap:square;stroke-width:0.8;"/>
     </g>
     <g id="line2d_20">
      <defs>
       <path d="M 0 0 
L -3.5 0 
" id="m1ebed3ecfc" style="stroke:#000000;stroke-width:0.8;"/>
      </defs>
      <g>
       <use style="stroke:#000000;stroke-width:0.8;" x="72" xlink:href="#m1ebed3ecfc" y="348.835959"/>
      </g>
     </g>
     <g id="text_11">
      <!-- 0 -->
      <g transform="translate(58.6375 352.635178)scale(0.1 -0.1)">
       <use xlink:href="#DejaVuSans-30"/>
      </g>
     </g>
    </g>
    <g id="ytick_2">
     <g id="line2d_21">
      <path clip-path="url(#p044c328f7c)" d="M 72 304.136472 
L 518.4 304.136472 
" style="fill:none;stroke:#b0b0b0;stroke-linecap:square;stroke-width:0.8;"/>
     </g>
     <g id="line2d_22">
      <g>
       <use style="stroke:#000000;stroke-width:0.8;" x="72" xlink:href="#m1ebed3ecfc" y="304.136472"/>
      </g>
     </g>
     <g id="text_12">
      <!-- 10 -->
      <g transform="translate(52.275 307.935691)scale(0.1 -0.1)">
       <use xlink:href="#DejaVuSans-31"/>
       <use x="63.623047" xlink:href="#DejaVuSans-30"/>
      </g>
     </g>
    </g>
    <g id="ytick_3">
     <g id="line2d_23">
      <path clip-path="url(#p044c328f7c)" d="M 72 259.436985 
L 518.4 259.436985 
" style="fill:none;stroke:#b0b0b0;stroke-linecap:square;stroke-width:0.8;"/>
     </g>
     <g id="line2d_24">
      <g>
       <use style="stroke:#000000;stroke-width:0.8;" x="72" xlink:href="#m1ebed3ecfc" y="259.436985"/>
      </g>
     </g>
     <g id="text_13">
      <!-- 20 -->
      <g transform="translate(52.275 263.236203)scale(0.1 -0.1)">
       <use xlink:href="#DejaVuSans-32"/>
       <use x="63.623047" xlink:href="#DejaVuSans-30"/>
      </g>
     </g>
    </g>
    <g id="ytick_4">
     <g id="line2d_25">
      <path clip-path="url(#p044c328f7c)" d="M 72 214.737497 
L 518.4 214.737497 
" style="fill:none;stroke:#b0b0b0;stroke-linecap:square;stroke-width:0.8;"/>
     </g>
     <g id="line2d_26">
      <g>
       <use style="stroke:#000000;stroke-width:0.8;" x="72" xlink:href="#m1ebed3ecfc" y="214.737497"/>
      </g>
     </g>
     <g id="text_14">
      <!-- 30 -->
      <defs>
       <path d="M 40.578125 39.3125 
Q 47.65625 37.796875 51.625 33 
Q 55.609375 28.21875 55.609375 21.1875 
Q 55.609375 10.40625 48.1875 4.484375 
Q 40.765625 -1.421875 27.09375 -1.421875 
Q 22.515625 -1.421875 17.65625 -0.515625 
Q 12.796875 0.390625 7.625 2.203125 
L 7.625 11.71875 
Q 11.71875 9.328125 16.59375 8.109375 
Q 21.484375 6.890625 26.8125 6.890625 
Q 36.078125 6.890625 40.9375 10.546875 
Q 45.796875 14.203125 45.796875 21.1875 
Q 45.796875 27.640625 41.28125 31.265625 
Q 36.765625 34.90625 28.71875 34.90625 
L 20.21875 34.90625 
L 20.21875 43.015625 
L 29.109375 43.015625 
Q 36.375 43.015625 40.234375 45.921875 
Q 44.09375 48.828125 44.09375 54.296875 
Q 44.09375 59.90625 40.109375 62.90625 
Q 36.140625 65.921875 28.71875 65.921875 
Q 24.65625 65.921875 20.015625 65.03125 
Q 15.375 64.15625 9.8125 62.3125 
L 9.8125 71.09375 
Q 15.4375 72.65625 20.34375 73.4375 
Q 25.25 74.21875 29.59375 74.21875 
Q 40.828125 74.21875 47.359375 69.109375 
Q 53.90625 64.015625 53.90625 55.328125 
Q 53.90625 49.265625 50.4375 45.09375 
Q 46.96875 40.921875 40.578125 39.3125 
z
" id="DejaVuSans-33"/>
      </defs>
      <g transform="translate(52.275 218.536716)scale(0.1 -0.1)">
       <use xlink:href="#DejaVuSans-33"/>
       <use x="63.623047" xlink:href="#DejaVuSans-30"/>
      </g>
     </g>
    </g>
    <g id="ytick_5">
     <g id="line2d_27">
      <path clip-path="url(#p044c328f7c)" d="M 72 170.03801 
L 518.4 170.03801 
" style="fill:none;stroke:#b0b0b0;stroke-linecap:square;stroke-width:0.8;"/>
     </g>
     <g id="line2d_28">
      <g>
       <use style="stroke:#000000;stroke-width:0.8;" x="72" xlink:href="#m1ebed3ecfc" y="170.03801"/>
      </g>
     </g>
     <g id="text_15">
      <!-- 40 -->
      <defs>
       <path d="M 37.796875 64.3125 
L 12.890625 25.390625 
L 37.796875 25.390625 
z
M 35.203125 72.90625 
L 47.609375 72.90625 
L 47.609375 25.390625 
L 58.015625 25.390625 
L 58.015625 17.1875 
L 47.609375 17.1875 
L 47.609375 0 
L 37.796875 0 
L 37.796875 17.1875 
L 4.890625 17.1875 
L 4.890625 26.703125 
z
" id="DejaVuSans-34"/>
      </defs>
      <g transform="translate(52.275 173.837229)scale(0.1 -0.1)">
       <use xlink:href="#DejaVuSans-34"/>
       <use x="63.623047" xlink:href="#DejaVuSans-30"/>
      </g>
     </g>
    </g>
    <g id="ytick_6">
     <g id="line2d_29">
      <path clip-path="url(#p044c328f7c)" d="M 72 125.338523 
L 518.4 125.338523 
" style="fill:none;stroke:#b0b0b0;stroke-linecap:square;stroke-width:0.8;"/>
     </g>
     <g id="line2d_30">
      <g>
       <use style="stroke:#000000;stroke-width:0.8;" x="72" xlink:href="#m1ebed3ecfc" y="125.338523"/>
      </g>
     </g>
     <g id="text_16">
      <!-- 50 -->
      <g transform="translate(52.275 129.137742)scale(0.1 -0.1)">
       <use xlink:href="#DejaVuSans-35"/>
       <use x="63.623047" xlink:href="#DejaVuSans-30"/>
      </g>
     </g>
    </g>
    <g id="ytick_7">
     <g id="line2d_31">
      <path clip-path="url(#p044c328f7c)" d="M 72 80.639036 
L 518.4 80.639036 
" style="fill:none;stroke:#b0b0b0;stroke-linecap:square;stroke-width:0.8;"/>
     </g>
     <g id="line2d_32">
      <g>
       <use style="stroke:#000000;stroke-width:0.8;" x="72" xlink:href="#m1ebed3ecfc" y="80.639036"/>
      </g>
     </g>
     <g id="text_17">
      <!-- 60 -->
      <defs>
       <path d="M 33.015625 40.375 
Q 26.375 40.375 22.484375 35.828125 
Q 18.609375 31.296875 18.609375 23.390625 
Q 18.609375 15.53125 22.484375 10.953125 
Q 26.375 6.390625 33.015625 6.390625 
Q 39.65625 6.390625 43.53125 10.953125 
Q 47.40625 15.53125 47.40625 23.390625 
Q 47.40625 31.296875 43.53125 35.828125 
Q 39.65625 40.375 33.015625 40.375 
z
M 52.59375 71.296875 
L 52.59375 62.3125 
Q 48.875 64.0625 45.09375 64.984375 
Q 41.3125 65.921875 37.59375 65.921875 
Q 27.828125 65.921875 22.671875 59.328125 
Q 17.53125 52.734375 16.796875 39.40625 
Q 19.671875 43.65625 24.015625 45.921875 
Q 28.375 48.1875 33.59375 48.1875 
Q 44.578125 48.1875 50.953125 41.515625 
Q 57.328125 34.859375 57.328125 23.390625 
Q 57.328125 12.15625 50.6875 5.359375 
Q 44.046875 -1.421875 33.015625 -1.421875 
Q 20.359375 -1.421875 13.671875 8.265625 
Q 6.984375 17.96875 6.984375 36.375 
Q 6.984375 53.65625 15.1875 63.9375 
Q 23.390625 74.21875 37.203125 74.21875 
Q 40.921875 74.21875 44.703125 73.484375 
Q 48.484375 72.75 52.59375 71.296875 
z
" id="DejaVuSans-36"/>
      </defs>
      <g transform="translate(52.275 84.438255)scale(0.1 -0.1)">
       <use xlink:href="#DejaVuSans-36"/>
       <use x="63.623047" xlink:href="#DejaVuSans-30"/>
      </g>
     </g>
    </g>
    <g id="text_18">
     <!-- FPS -->
     <defs>
      <path d="M 9.8125 72.90625 
L 51.703125 72.90625 
L 51.703125 64.59375 
L 19.671875 64.59375 
L 19.671875 43.109375 
L 48.578125 43.109375 
L 48.578125 34.8125 
L 19.671875 34.8125 
L 19.671875 0 
L 9.8125 0 
z
" id="DejaVuSans-46"/>
      <path d="M 19.671875 64.796875 
L 19.671875 37.40625 
L 32.078125 37.40625 
Q 38.96875 37.40625 42.71875 40.96875 
Q 46.484375 44.53125 46.484375 51.125 
Q 46.484375 57.671875 42.71875 61.234375 
Q 38.96875 64.796875 32.078125 64.796875 
z
M 9.8125 72.90625 
L 32.078125 72.90625 
Q 44.34375 72.90625 50.609375 67.359375 
Q 56.890625 61.8125 56.890625 51.125 
Q 56.890625 40.328125 50.609375 34.8125 
Q 44.34375 29.296875 32.078125 29.296875 
L 19.671875 29.296875 
L 19.671875 0 
L 9.8125 0 
z
" id="DejaVuSans-50"/>
      <path d="M 53.515625 70.515625 
L 53.515625 60.890625 
Q 47.90625 63.578125 42.921875 64.890625 
Q 37.9375 66.21875 33.296875 66.21875 
Q 25.25 66.21875 20.875 63.09375 
Q 16.5 59.96875 16.5 54.203125 
Q 16.5 49.359375 19.40625 46.890625 
Q 22.3125 44.4375 30.421875 42.921875 
L 36.375 41.703125 
Q 47.40625 39.59375 52.65625 34.296875 
Q 57.90625 29 57.90625 20.125 
Q 57.90625 9.515625 50.796875 4.046875 
Q 43.703125 -1.421875 29.984375 -1.421875 
Q 24.8125 -1.421875 18.96875 -0.25 
Q 13.140625 0.921875 6.890625 3.21875 
L 6.890625 13.375 
Q 12.890625 10.015625 18.65625 8.296875 
Q 24.421875 6.59375 29.984375 6.59375 
Q 38.421875 6.59375 43.015625 9.90625 
Q 47.609375 13.234375 47.609375 19.390625 
Q 47.609375 24.75 44.3125 27.78125 
Q 41.015625 30.8125 33.5 32.328125 
L 27.484375 33.5 
Q 16.453125 35.6875 11.515625 40.375 
Q 6.59375 45.0625 6.59375 53.421875 
Q 6.59375 63.09375 13.40625 68.65625 
Q 20.21875 74.21875 32.171875 74.21875 
Q 37.3125 74.21875 42.625 73.28125 
Q 47.953125 72.359375 53.515625 70.515625 
z
" id="DejaVuSans-53"/>
     </defs>
     <g transform="translate(46.195312 214.862444)rotate(-90)scale(0.1 -0.1)">
      <use xlink:href="#DejaVuSans-46"/>
      <use x="57.519531" xlink:href="#DejaVuSans-50"/>
      <use x="117.822266" xlink:href="#DejaVuSans-53"/>
     </g>
    </g>
   </g>
   <g id="line2d_33">
    <path clip-path="url(#p044c328f7c)" d="M 92.290909 71.699138 
L 94.118004 71.699138 
L 96.14811 71.699138 
L 98.178216 71.699138 
L 100.208322 71.699138 
L 102.238428 71.699138 
L 107.313693 71.699138 
L 112.388958 71.699138 
L 132.690018 71.699138 
L 152.991077 71.699138 
L 173.292137 71.699138 
L 193.593197 71.699138 
L 244.345846 71.699138 
L 295.098495 82.87401 
L 345.851144 125.338523 
L 396.603793 161.098113 
L 447.356442 183.447856 
L 498.109091 203.562626 
" style="fill:none;stroke:#edc240;stroke-linecap:square;stroke-width:1.5;"/>
    <defs>
     <path d="M 0 3 
C 0.795609 3 1.55874 2.683901 2.12132 2.12132 
C 2.683901 1.55874 3 0.795609 3 0 
C 3 -0.795609 2.683901 -1.55874 2.12132 -2.12132 
C 1.55874 -2.683901 0.795609 -3 0 -3 
C -0.795609 -3 -1.55874 -2.683901 -2.12132 -2.12132 
C -2.683901 -1.55874 -3 -0.795609 -3 0 
C -3 0.795609 -2.683901 1.55874 -2.12132 2.12132 
C -1.55874 2.683901 -0.795609 3 0 3 
z
" id="m02a8a19273" style="stroke:#edc240;"/>
    </defs>
    <g clip-path="url(#p044c328f7c)">
     <use style="fill:#edc240;stroke:#edc240;" x="92.290909" xlink:href="#m02a8a19273" y="71.699138"/>
     <use style="fill:#edc240;stroke:#edc240;" x="94.118004" xlink:href="#m02a8a19273" y="71.699138"/>
     <use style="fill:#edc240;stroke:#edc240;" x="96.14811" xlink:href="#m02a8a19273" y="71.699138"/>
     <use style="fill:#edc240;stroke:#edc240;" x="98.178216" xlink:href="#m02a8a19273" y="71.699138"/>
     <use style="fill:#edc240;stroke:#edc240;" x="100.208322" xlink:href="#m02a8a19273" y="71.699138"/>
     <use style="fill:#edc240;stroke:#edc240;" x="102.238428" xlink:href="#m02a8a19273" y="71.699138"/>
     <use style="fill:#edc240;stroke:#edc240;" x="107.313693" xlink:href="#m02a8a19273" y="71.699138"/>
     <use style="fill:#edc240;stroke:#edc240;" x="112.388958" xlink:href="#m02a8a19273" y="71.699138"/>
     <use style="fill:#edc240;stroke:#edc240;" x="132.690018" xlink:href="#m02a8a19273" y="71.699138"/>
     <use style="fill:#edc240;stroke:#edc240;" x="152.991077" xlink:href="#m02a8a19273" y="71.699138"/>
     <use style="fill:#edc240;stroke:#edc240;" x="173.292137" xlink:href="#m02a8a19273" y="71.699138"/>
     <use style="fill:#edc240;stroke:#edc240;" x="193.593197" xlink:href="#m02a8a19273" y="71.699138"/>
     <use style="fill:#edc240;stroke:#edc240;" x="244.345846" xlink:href="#m02a8a19273" y="71.699138"/>
     <use style="fill:#edc240;stroke:#edc240;" x="295.098495" xlink:href="#m02a8a19273" y="82.87401"/>
     <use style="fill:#edc240;stroke:#edc240;" x="345.851144" xlink:href="#m02a8a19273" y="125.338523"/>
     <use style="fill:#edc240;stroke:#edc240;" x="396.603793" xlink:href="#m02a8a19273" y="161.098113"/>
     <use style="fill:#edc240;stroke:#edc240;" x="447.356442" xlink:href="#m02a8a19273" y="183.447856"/>
     <use style="fill:#edc240;stroke:#edc240;" x="498.109091" xlink:href="#m02a8a19273" y="203.562626"/>
    </g>
   </g>
   <g id="line2d_34">
    <path clip-path="url(#p044c328f7c)" d="M 92.290909 71.699138 
L 94.118004 71.699138 
L 96.14811 71.699138 
L 98.178216 71.699138 
L 100.208322 71.699138 
L 102.238428 71.699138 
L 107.313693 71.699138 
L 112.388958 71.699138 
L 132.690018 71.699138 
L 152.991077 71.699138 
L 173.292137 71.699138 
L 193.593197 71.699138 
L 244.345846 71.699138 
L 295.098495 80.639036 
L 345.851144 125.338523 
L 396.603793 156.628164 
L 447.356442 178.977908 
L 498.109091 201.327651 
" style="fill:none;stroke:#afd8f8;stroke-linecap:square;stroke-width:1.5;"/>
    <defs>
     <path d="M 0 3 
C 0.795609 3 1.55874 2.683901 2.12132 2.12132 
C 2.683901 1.55874 3 0.795609 3 0 
C 3 -0.795609 2.683901 -1.55874 2.12132 -2.12132 
C 1.55874 -2.683901 0.795609 -3 0 -3 
C -0.795609 -3 -1.55874 -2.683901 -2.12132 -2.12132 
C -2.683901 -1.55874 -3 -0.795609 -3 0 
C -3 0.795609 -2.683901 1.55874 -2.12132 2.12132 
C -1.55874 2.683901 -0.795609 3 0 3 
z
" id="m3948df18f0" style="stroke:#afd8f8;"/>
    </defs>
    <g clip-path="url(#p044c328f7c)">
     <use style="fill:#afd8f8;stroke:#afd8f8;" x="92.290909" xlink:href="#m3948df18f0" y="71.699138"/>
     <use style="fill:#afd8f8;stroke:#afd8f8;" x="94.118004" xlink:href="#m3948df18f0" y="71.699138"/>
     <use style="fill:#afd8f8;stroke:#afd8f8;" x="96.14811" xlink:href="#m3948df18f0" y="71.699138"/>
     <use style="fill:#afd8f8;stroke:#afd8f8;" x="98.178216" xlink:href="#m3948df18f0" y="71.699138"/>
     <use style="fill:#afd8f8;stroke:#afd8f8;" x="100.208322" xlink:href="#m3948df18f0" y="71.699138"/>
     <use style="fill:#afd8f8;stroke:#afd8f8;" x="102.238428" xlink:href="#m3948df18f0" y="71.699138"/>
     <use style="fill:#afd8f8;stroke:#afd8f8;" x="107.313693" xlink:href="#m3948df18f0" y="71.699138"/>
     <use style="fill:#afd8f8;stroke:#afd8f8;" x="112.388958" xlink:href="#m3948df18f0" y="71.699138"/>
     <use style="fill:#afd8f8;stroke:#afd8f8;" x="132.690018" xlink:href="#m3948df18f0" y="71.699138"/>
     <use style="fill:#afd8f8;stroke:#afd8f8;" x="152.991077" xlink:href="#m3948df18f0" y="71.699138"/>
     <use style="fill:#afd8f8;stroke:#afd8f8;" x="173.292137" xlink:href="#m3948df18f0" y="71.699138"/>
     <use style="fill:#afd8f8;stroke:#afd8f8;" x="193.593197" xlink:href="#m3948df18f0" y="71.699138"/>
     <use style="fill:#afd8f8;stroke:#afd8f8;" x="244.345846" xlink:href="#m3948df18f0" y="71.699138"/>
     <use style="fill:#afd8f8;stroke:#afd8f8;" x="295.098495" xlink:href="#m3948df18f0" y="80.639036"/>
     <use style="fill:#afd8f8;stroke:#afd8f8;" x="345.851144" xlink:href="#m3948df18f0" y="125.338523"/>
     <use style="fill:#afd8f8;stroke:#afd8f8;" x="396.603793" xlink:href="#m3948df18f0" y="156.628164"/>
     <use style="fill:#afd8f8;stroke:#afd8f8;" x="447.356442" xlink:href="#m3948df18f0" y="178.977908"/>
     <use style="fill:#afd8f8;stroke:#afd8f8;" x="498.109091" xlink:href="#m3948df18f0" y="201.327651"/>
    </g>
   </g>
   <g id="line2d_35">
    <path clip-path="url(#p044c328f7c)" d="M 92.290909 181.212882 
L 94.118004 181.212882 
L 96.14811 183.447856 
L 98.178216 185.682831 
L 100.208322 199.092677 
L 102.238428 194.622728 
L 107.313693 203.562626 
L 112.388958 214.737497 
L 132.690018 259.436985 
L 152.991077 279.551754 
L 173.292137 290.726626 
L 193.593197 295.196574 
L 244.345846 313.076369 
L 295.098495 322.016267 
L 396.603793 328.72119 
L 498.109091 330.956164 
" style="fill:none;stroke:#cb4b4b;stroke-linecap:square;stroke-width:1.5;"/>
    <defs>
     <path d="M 0 3 
C 0.795609 3 1.55874 2.683901 2.12132 2.12132 
C 2.683901 1.55874 3 0.795609 3 0 
C 3 -0.795609 2.683901 -1.55874 2.12132 -2.12132 
C 1.55874 -2.683901 0.795609 -3 0 -3 
C -0.795609 -3 -1.55874 -2.683901 -2.12132 -2.12132 
C -2.683901 -1.55874 -3 -0.795609 -3 0 
C -3 0.795609 -2.683901 1.55874 -2.12132 2.12132 
C -1.55874 2.683901 -0.795609 3 0 3 
z
" id="m3c656794d0" style="stroke:#cb4b4b;"/>
    </defs>
    <g clip-path="url(#p044c328f7c)">
     <use style="fill:#cb4b4b;stroke:#cb4b4b;" x="92.290909" xlink:href="#m3c656794d0" y="181.212882"/>
     <use style="fill:#cb4b4b;stroke:#cb4b4b;" x="94.118004" xlink:href="#m3c656794d0" y="181.212882"/>
     <use style="fill:#cb4b4b;stroke:#cb4b4b;" x="96.14811" xlink:href="#m3c656794d0" y="183.447856"/>
     <use style="fill:#cb4b4b;stroke:#cb4b4b;" x="98.178216" xlink:href="#m3c656794d0" y="185.682831"/>
     <use style="fill:#cb4b4b;stroke:#cb4b4b;" x="100.208322" xlink:href="#m3c656794d0" y="199.092677"/>
     <use style="fill:#cb4b4b;stroke:#cb4b4b;" x="102.238428" xlink:href="#m3c656794d0" y="194.622728"/>
     <use style="fill:#cb4b4b;stroke:#cb4b4b;" x="107.313693" xlink:href="#m3c656794d0" y="203.562626"/>
     <use style="fill:#cb4b4b;stroke:#cb4b4b;" x="112.388958" xlink:href="#m3c656794d0" y="214.737497"/>
     <use style="fill:#cb4b4b;stroke:#cb4b4b;" x="132.690018" xlink:href="#m3c656794d0" y="259.436985"/>
     <use style="fill:#cb4b4b;stroke:#cb4b4b;" x="152.991077" xlink:href="#m3c656794d0" y="279.551754"/>
     <use style="fill:#cb4b4b;stroke:#cb4b4b;" x="173.292137" xlink:href="#m3c656794d0" y="290.726626"/>
     <use style="fill:#cb4b4b;stroke:#cb4b4b;" x="193.593197" xlink:href="#m3c656794d0" y="295.196574"/>
     <use style="fill:#cb4b4b;stroke:#cb4b4b;" x="244.345846" xlink:href="#m3c656794d0" y="313.076369"/>
     <use style="fill:#cb4b4b;stroke:#cb4b4b;" x="295.098495" xlink:href="#m3c656794d0" y="322.016267"/>
     <use style="fill:#cb4b4b;stroke:#cb4b4b;" x="396.603793" xlink:href="#m3c656794d0" y="328.72119"/>
     <use style="fill:#cb4b4b;stroke:#cb4b4b;" x="498.109091" xlink:href="#m3c656794d0" y="330.956164"/>
    </g>
   </g>
   <g id="line2d_36">
    <path clip-path="url(#p044c328f7c)" d="M 92.290909 80.639036 
L 94.118004 80.639036 
L 96.14811 82.87401 
L 98.178216 89.578933 
L 100.208322 114.163651 
L 102.238428 152.158215 
L 107.313693 216.972472 
L 112.388958 248.262113 
L 132.690018 295.196574 
L 152.991077 313.076369 
L 173.292137 322.016267 
L 193.593197 326.486215 
L 244.345846 335.426113 
L 295.098495 337.661087 
L 396.603793 339.896062 
L 498.109091 344.36601 
" style="fill:none;stroke:#4da74d;stroke-linecap:square;stroke-width:1.5;"/>
    <defs>
     <path d="M 0 3 
C 0.795609 3 1.55874 2.683901 2.12132 2.12132 
C 2.683901 1.55874 3 0.795609 3 0 
C 3 -0.795609 2.683901 -1.55874 2.12132 -2.12132 
C 1.55874 -2.683901 0.795609 -3 0 -3 
C -0.795609 -3 -1.55874 -2.683901 -2.12132 -2.12132 
C -2.683901 -1.55874 -3 -0.795609 -3 0 
C -3 0.795609 -2.683901 1.55874 -2.12132 2.12132 
C -1.55874 2.683901 -0.795609 3 0 3 
z
" id="m6c6b52ee48" style="stroke:#4da74d;"/>
    </defs>
    <g clip-path="url(#p044c328f7c)">
     <use style="fill:#4da74d;stroke:#4da74d;" x="92.290909" xlink:href="#m6c6b52ee48" y="80.639036"/>
     <use style="fill:#4da74d;stroke:#4da74d;" x="94.118004" xlink:href="#m6c6b52ee48" y="80.639036"/>
     <use style="fill:#4da74d;stroke:#4da74d;" x="96.14811" xlink:href="#m6c6b52ee48" y="82.87401"/>
     <use style="fill:#4da74d;stroke:#4da74d;" x="98.178216" xlink:href="#m6c6b52ee48" y="89.578933"/>
     <use style="fill:#4da74d;stroke:#4da74d;" x="100.208322" xlink:href="#m6c6b52ee48" y="114.163651"/>
     <use style="fill:#4da74d;stroke:#4da74d;" x="102.238428" xlink:href="#m6c6b52ee48" y="152.158215"/>
     <use style="fill:#4da74d;stroke:#4da74d;" x="107.313693" xlink:href="#m6c6b52ee48" y="216.972472"/>
     <use style="fill:#4da74d;stroke:#4da74d;" x="112.388958" xlink:href="#m6c6b52ee48" y="248.262113"/>
     <use style="fill:#4da74d;stroke:#4da74d;" x="132.690018" xlink:href="#m6c6b52ee48" y="295.196574"/>
     <use style="fill:#4da74d;stroke:#4da74d;" x="152.991077" xlink:href="#m6c6b52ee48" y="313.076369"/>
     <use style="fill:#4da74d;stroke:#4da74d;" x="173.292137" xlink:href="#m6c6b52ee48" y="322.016267"/>
     <use style="fill:#4da74d;stroke:#4da74d;" x="193.593197" xlink:href="#m6c6b52ee48" y="326.486215"/>
     <use style="fill:#4da74d;stroke:#4da74d;" x="244.345846" xlink:href="#m6c6b52ee48" y="335.426113"/>
     <use style="fill:#4da74d;stroke:#4da74d;" x="295.098495" xlink:href="#m6c6b52ee48" y="337.661087"/>
     <use style="fill:#4da74d;stroke:#4da74d;" x="396.603793" xlink:href="#m6c6b52ee48" y="339.896062"/>
     <use style="fill:#4da74d;stroke:#4da74d;" x="498.109091" xlink:href="#m6c6b52ee48" y="344.36601"/>
    </g>
   </g>
   <g id="line2d_37">
    <path clip-path="url(#p044c328f7c)" d="M 92.290909 69.464164 
L 94.118004 67.22919 
L 96.14811 69.464164 
L 98.178216 94.048882 
L 100.208322 156.628164 
L 102.238428 190.152779 
L 107.313693 246.027138 
L 112.388958 266.141908 
L 132.690018 297.431549 
L 152.991077 313.076369 
L 173.292137 317.546318 
L 193.593197 322.016267 
L 244.345846 328.72119 
L 295.098495 330.956164 
L 396.603793 335.426113 
L 498.109091 335.426113 
" style="fill:none;stroke:#9440ed;stroke-linecap:square;stroke-width:1.5;"/>
    <defs>
     <path d="M 0 3 
C 0.795609 3 1.55874 2.683901 2.12132 2.12132 
C 2.683901 1.55874 3 0.795609 3 0 
C 3 -0.795609 2.683901 -1.55874 2.12132 -2.12132 
C 1.55874 -2.683901 0.795609 -3 0 -3 
C -0.795609 -3 -1.55874 -2.683901 -2.12132 -2.12132 
C -2.683901 -1.55874 -3 -0.795609 -3 0 
C -3 0.795609 -2.683901 1.55874 -2.12132 2.12132 
C -1.55874 2.683901 -0.795609 3 0 3 
z
" id="me167662f0d" style="stroke:#9440ed;"/>
    </defs>
    <g clip-path="url(#p044c328f7c)">
     <use style="fill:#9440ed;stroke:#9440ed;" x="92.290909" xlink:href="#me167662f0d" y="69.464164"/>
     <use style="fill:#9440ed;stroke:#9440ed;" x="94.118004" xlink:href="#me167662f0d" y="67.22919"/>
     <use style="fill:#9440ed;stroke:#9440ed;" x="96.14811" xlink:href="#me167662f0d" y="69.464164"/>
     <use style="fill:#9440ed;stroke:#9440ed;" x="98.178216" xlink:href="#me167662f0d" y="94.048882"/>
     <use style="fill:#9440ed;stroke:#9440ed;" x="100.208322" xlink:href="#me167662f0d" y="156.628164"/>
     <use style="fill:#9440ed;stroke:#9440ed;" x="102.238428" xlink:href="#me167662f0d" y="190.152779"/>
     <use style="fill:#9440ed;stroke:#9440ed;" x="107.313693" xlink:href="#me167662f0d" y="246.027138"/>
     <use style="fill:#9440ed;stroke:#9440ed;" x="112.388958" xlink:href="#me167662f0d" y="266.141908"/>
     <use style="fill:#9440ed;stroke:#9440ed;" x="132.690018" xlink:href="#me167662f0d" y="297.431549"/>
     <use style="fill:#9440ed;stroke:#9440ed;" x="152.991077" xlink:href="#me167662f0d" y="313.076369"/>
     <use style="fill:#9440ed;stroke:#9440ed;" x="173.292137" xlink:href="#me167662f0d" y="317.546318"/>
     <use style="fill:#9440ed;stroke:#9440ed;" x="193.593197" xlink:href="#me167662f0d" y="322.016267"/>
     <use style="fill:#9440ed;stroke:#9440ed;" x="244.345846" xlink:href="#me167662f0d" y="328.72119"/>
     <use style="fill:#9440ed;stroke:#9440ed;" x="295.098495" xlink:href="#me167662f0d" y="330.956164"/>
     <use style="fill:#9440ed;stroke:#9440ed;" x="396.603793" xlink:href="#me167662f0d" y="335.426113"/>
     <use style="fill:#9440ed;stroke:#9440ed;" x="498.109091" xlink:href="#me167662f0d" y="335.426113"/>
    </g>
   </g>
   <g id="line2d_38">
    <path clip-path="url(#p044c328f7c)" d="M 92.290909 71.699138 
L 94.118004 71.699138 
L 96.14811 71.699138 
L 98.178216 71.699138 
L 100.208322 71.699138 
L 102.238428 71.699138 
L 107.313693 71.699138 
L 112.388958 71.699138 
L 132.690018 71.699138 
L 152.991077 71.699138 
L 173.292137 71.699138 
L 193.593197 85.108985 
L 244.345846 143.218318 
L 295.098495 183.447856 
L 396.603793 230.382318 
L 498.109091 254.967036 
" style="fill:none;stroke:#bd9b33;stroke-linecap:square;stroke-width:1.5;"/>
    <defs>
     <path d="M 0 3 
C 0.795609 3 1.55874 2.683901 2.12132 2.12132 
C 2.683901 1.55874 3 0.795609 3 0 
C 3 -0.795609 2.683901 -1.55874 2.12132 -2.12132 
C 1.55874 -2.683901 0.795609 -3 0 -3 
C -0.795609 -3 -1.55874 -2.683901 -2.12132 -2.12132 
C -2.683901 -1.55874 -3 -0.795609 -3 0 
C -3 0.795609 -2.683901 1.55874 -2.12132 2.12132 
C -1.55874 2.683901 -0.795609 3 0 3 
z
" id="m9ac049aeb2" style="stroke:#bd9b33;"/>
    </defs>
    <g clip-path="url(#p044c328f7c)">
     <use style="fill:#bd9b33;stroke:#bd9b33;" x="92.290909" xlink:href="#m9ac049aeb2" y="71.699138"/>
     <use style="fill:#bd9b33;stroke:#bd9b33;" x="94.118004" xlink:href="#m9ac049aeb2" y="71.699138"/>
     <use style="fill:#bd9b33;stroke:#bd9b33;" x="96.14811" xlink:href="#m9ac049aeb2" y="71.699138"/>
     <use style="fill:#bd9b33;stroke:#bd9b33;" x="98.178216" xlink:href="#m9ac049aeb2" y="71.699138"/>
     <use style="fill:#bd9b33;stroke:#bd9b33;" x="100.208322" xlink:href="#m9ac049aeb2" y="71.699138"/>
     <use style="fill:#bd9b33;stroke:#bd9b33;" x="102.238428" xlink:href="#m9ac049aeb2" y="71.699138"/>
     <use style="fill:#bd9b33;stroke:#bd9b33;" x="107.313693" xlink:href="#m9ac049aeb2" y="71.699138"/>
     <use style="fill:#bd9b33;stroke:#bd9b33;" x="112.388958" xlink:href="#m9ac049aeb2" y="71.699138"/>
     <use style="fill:#bd9b33;stroke:#bd9b33;" x="132.690018" xlink:href="#m9ac049aeb2" y="71.699138"/>
     <use style="fill:#bd9b33;stroke:#bd9b33;" x="152.991077" xlink:href="#m9ac049aeb2" y="71.699138"/>
     <use style="fill:#bd9b33;stroke:#bd9b33;" x="173.292137" xlink:href="#m9ac049aeb2" y="71.699138"/>
     <use style="fill:#bd9b33;stroke:#bd9b33;" x="193.593197" xlink:href="#m9ac049aeb2" y="85.108985"/>
     <use style="fill:#bd9b33;stroke:#bd9b33;" x="244.345846" xlink:href="#m9ac049aeb2" y="143.218318"/>
     <use style="fill:#bd9b33;stroke:#bd9b33;" x="295.098495" xlink:href="#m9ac049aeb2" y="183.447856"/>
     <use style="fill:#bd9b33;stroke:#bd9b33;" x="396.603793" xlink:href="#m9ac049aeb2" y="230.382318"/>
     <use style="fill:#bd9b33;stroke:#bd9b33;" x="498.109091" xlink:href="#m9ac049aeb2" y="254.967036"/>
    </g>
   </g>
   <g id="line2d_39">
    <path clip-path="url(#p044c328f7c)" d="M 92.290909 71.699138 
L 94.118004 71.699138 
L 96.14811 71.699138 
L 98.178216 71.699138 
L 100.208322 71.699138 
L 102.238428 71.699138 
L 107.313693 71.699138 
L 112.388958 71.699138 
L 132.690018 71.699138 
L 152.991077 73.934113 
L 173.292137 96.283856 
L 193.593197 129.808472 
L 244.345846 187.917805 
L 295.098495 219.207446 
L 396.603793 257.20201 
L 498.109091 279.551754 
" style="fill:none;stroke:#8cacc6;stroke-linecap:square;stroke-width:1.5;"/>
    <defs>
     <path d="M 0 3 
C 0.795609 3 1.55874 2.683901 2.12132 2.12132 
C 2.683901 1.55874 3 0.795609 3 0 
C 3 -0.795609 2.683901 -1.55874 2.12132 -2.12132 
C 1.55874 -2.683901 0.795609 -3 0 -3 
C -0.795609 -3 -1.55874 -2.683901 -2.12132 -2.12132 
C -2.683901 -1.55874 -3 -0.795609 -3 0 
C -3 0.795609 -2.683901 1.55874 -2.12132 2.12132 
C -1.55874 2.683901 -0.795609 3 0 3 
z
" id="m62801b6c12" style="stroke:#8cacc6;"/>
    </defs>
    <g clip-path="url(#p044c328f7c)">
     <use style="fill:#8cacc6;stroke:#8cacc6;" x="92.290909" xlink:href="#m62801b6c12" y="71.699138"/>
     <use style="fill:#8cacc6;stroke:#8cacc6;" x="94.118004" xlink:href="#m62801b6c12" y="71.699138"/>
     <use style="fill:#8cacc6;stroke:#8cacc6;" x="96.14811" xlink:href="#m62801b6c12" y="71.699138"/>
     <use style="fill:#8cacc6;stroke:#8cacc6;" x="98.178216" xlink:href="#m62801b6c12" y="71.699138"/>
     <use style="fill:#8cacc6;stroke:#8cacc6;" x="100.208322" xlink:href="#m62801b6c12" y="71.699138"/>
     <use style="fill:#8cacc6;stroke:#8cacc6;" x="102.238428" xlink:href="#m62801b6c12" y="71.699138"/>
     <use style="fill:#8cacc6;stroke:#8cacc6;" x="107.313693" xlink:href="#m62801b6c12" y="71.699138"/>
     <use style="fill:#8cacc6;stroke:#8cacc6;" x="112.388958" xlink:href="#m62801b6c12" y="71.699138"/>
     <use style="fill:#8cacc6;stroke:#8cacc6;" x="132.690018" xlink:href="#m62801b6c12" y="71.699138"/>
     <use style="fill:#8cacc6;stroke:#8cacc6;" x="152.991077" xlink:href="#m62801b6c12" y="73.934113"/>
     <use style="fill:#8cacc6;stroke:#8cacc6;" x="173.292137" xlink:href="#m62801b6c12" y="96.283856"/>
     <use style="fill:#8cacc6;stroke:#8cacc6;" x="193.593197" xlink:href="#m62801b6c12" y="129.808472"/>
     <use style="fill:#8cacc6;stroke:#8cacc6;" x="244.345846" xlink:href="#m62801b6c12" y="187.917805"/>
     <use style="fill:#8cacc6;stroke:#8cacc6;" x="295.098495" xlink:href="#m62801b6c12" y="219.207446"/>
     <use style="fill:#8cacc6;stroke:#8cacc6;" x="396.603793" xlink:href="#m62801b6c12" y="257.20201"/>
     <use style="fill:#8cacc6;stroke:#8cacc6;" x="498.109091" xlink:href="#m62801b6c12" y="279.551754"/>
    </g>
   </g>
   <g id="line2d_40">
    <path clip-path="url(#p044c328f7c)" d="M 92.290909 149.923241 
L 94.118004 178.977908 
L 96.14811 187.917805 
L 98.178216 192.387754 
L 100.208322 192.387754 
L 102.238428 194.622728 
L 107.313693 201.327651 
L 112.388958 212.502523 
L 132.690018 241.55719 
L 152.991077 259.436985 
L 173.292137 272.846831 
L 193.593197 284.021703 
L 244.345846 299.666523 
L 295.098495 308.606421 
L 396.603793 322.016267 
L 498.109091 326.486215 
" style="fill:none;stroke:#a23c3c;stroke-linecap:square;stroke-width:1.5;"/>
    <defs>
     <path d="M 0 3 
C 0.795609 3 1.55874 2.683901 2.12132 2.12132 
C 2.683901 1.55874 3 0.795609 3 0 
C 3 -0.795609 2.683901 -1.55874 2.12132 -2.12132 
C 1.55874 -2.683901 0.795609 -3 0 -3 
C -0.795609 -3 -1.55874 -2.683901 -2.12132 -2.12132 
C -2.683901 -1.55874 -3 -0.795609 -3 0 
C -3 0.795609 -2.683901 1.55874 -2.12132 2.12132 
C -1.55874 2.683901 -0.795609 3 0 3 
z
" id="mbd0484a37f" style="stroke:#a23c3c;"/>
    </defs>
    <g clip-path="url(#p044c328f7c)">
     <use style="fill:#a23c3c;stroke:#a23c3c;" x="92.290909" xlink:href="#mbd0484a37f" y="149.923241"/>
     <use style="fill:#a23c3c;stroke:#a23c3c;" x="94.118004" xlink:href="#mbd0484a37f" y="178.977908"/>
     <use style="fill:#a23c3c;stroke:#a23c3c;" x="96.14811" xlink:href="#mbd0484a37f" y="187.917805"/>
     <use style="fill:#a23c3c;stroke:#a23c3c;" x="98.178216" xlink:href="#mbd0484a37f" y="192.387754"/>
     <use style="fill:#a23c3c;stroke:#a23c3c;" x="100.208322" xlink:href="#mbd0484a37f" y="192.387754"/>
     <use style="fill:#a23c3c;stroke:#a23c3c;" x="102.238428" xlink:href="#mbd0484a37f" y="194.622728"/>
     <use style="fill:#a23c3c;stroke:#a23c3c;" x="107.313693" xlink:href="#mbd0484a37f" y="201.327651"/>
     <use style="fill:#a23c3c;stroke:#a23c3c;" x="112.388958" xlink:href="#mbd0484a37f" y="212.502523"/>
     <use style="fill:#a23c3c;stroke:#a23c3c;" x="132.690018" xlink:href="#mbd0484a37f" y="241.55719"/>
     <use style="fill:#a23c3c;stroke:#a23c3c;" x="152.991077" xlink:href="#mbd0484a37f" y="259.436985"/>
     <use style="fill:#a23c3c;stroke:#a23c3c;" x="173.292137" xlink:href="#mbd0484a37f" y="272.846831"/>
     <use style="fill:#a23c3c;stroke:#a23c3c;" x="193.593197" xlink:href="#mbd0484a37f" y="284.021703"/>
     <use style="fill:#a23c3c;stroke:#a23c3c;" x="244.345846" xlink:href="#mbd0484a37f" y="299.666523"/>
     <use style="fill:#a23c3c;stroke:#a23c3c;" x="295.098495" xlink:href="#mbd0484a37f" y="308.606421"/>
     <use style="fill:#a23c3c;stroke:#a23c3c;" x="396.603793" xlink:href="#mbd0484a37f" y="322.016267"/>
     <use style="fill:#a23c3c;stroke:#a23c3c;" x="498.109091" xlink:href="#mbd0484a37f" y="326.486215"/>
    </g>
   </g>
   <g id="line2d_41">
    <path clip-path="url(#p044c328f7c)" d="M 92.290909 147.688267 
L 94.118004 176.742933 
L 96.14811 187.917805 
L 98.178216 185.682831 
L 100.208322 192.387754 
L 102.238428 190.152779 
L 107.313693 201.327651 
L 112.388958 210.267549 
L 132.690018 241.55719 
L 152.991077 259.436985 
L 173.292137 272.846831 
L 193.593197 281.786728 
L 244.345846 299.666523 
L 295.098495 308.606421 
L 396.603793 322.016267 
L 498.109091 326.486215 
" style="fill:none;stroke:#3d853d;stroke-linecap:square;stroke-width:1.5;"/>
    <defs>
     <path d="M 0 3 
C 0.795609 3 1.55874 2.683901 2.12132 2.12132 
C 2.683901 1.55874 3 0.795609 3 0 
C 3 -0.795609 2.683901 -1.55874 2.12132 -2.12132 
C 1.55874 -2.683901 0.795609 -3 0 -3 
C -0.795609 -3 -1.55874 -2.683901 -2.12132 -2.12132 
C -2.683901 -1.55874 -3 -0.795609 -3 0 
C -3 0.795609 -2.683901 1.55874 -2.12132 2.12132 
C -1.55874 2.683901 -0.795609 3 0 3 
z
" id="m14f7cc7f69" style="stroke:#3d853d;"/>
    </defs>
    <g clip-path="url(#p044c328f7c)">
     <use style="fill:#3d853d;stroke:#3d853d;" x="92.290909" xlink:href="#m14f7cc7f69" y="147.688267"/>
     <use style="fill:#3d853d;stroke:#3d853d;" x="94.118004" xlink:href="#m14f7cc7f69" y="176.742933"/>
     <use style="fill:#3d853d;stroke:#3d853d;" x="96.14811" xlink:href="#m14f7cc7f69" y="187.917805"/>
     <use style="fill:#3d853d;stroke:#3d853d;" x="98.178216" xlink:href="#m14f7cc7f69" y="185.682831"/>
     <use style="fill:#3d853d;stroke:#3d853d;" x="100.208322" xlink:href="#m14f7cc7f69" y="192.387754"/>
     <use style="fill:#3d853d;stroke:#3d853d;" x="102.238428" xlink:href="#m14f7cc7f69" y="190.152779"/>
     <use style="fill:#3d853d;stroke:#3d853d;" x="107.313693" xlink:href="#m14f7cc7f69" y="201.327651"/>
     <use style="fill:#3d853d;stroke:#3d853d;" x="112.388958" xlink:href="#m14f7cc7f69" y="210.267549"/>
     <use style="fill:#3d853d;stroke:#3d853d;" x="132.690018" xlink:href="#m14f7cc7f69" y="241.55719"/>
     <use style="fill:#3d853d;stroke:#3d853d;" x="152.991077" xlink:href="#m14f7cc7f69" y="259.436985"/>
     <use style="fill:#3d853d;stroke:#3d853d;" x="173.292137" xlink:href="#m14f7cc7f69" y="272.846831"/>
     <use style="fill:#3d853d;stroke:#3d853d;" x="193.593197" xlink:href="#m14f7cc7f69" y="281.786728"/>
     <use style="fill:#3d853d;stroke:#3d853d;" x="244.345846" xlink:href="#m14f7cc7f69" y="299.666523"/>
     <use style="fill:#3d853d;stroke:#3d853d;" x="295.098495" xlink:href="#m14f7cc7f69" y="308.606421"/>
     <use style="fill:#3d853d;stroke:#3d853d;" x="396.603793" xlink:href="#m14f7cc7f69" y="322.016267"/>
     <use style="fill:#3d853d;stroke:#3d853d;" x="498.109091" xlink:href="#m14f7cc7f69" y="326.486215"/>
    </g>
   </g>
   <g id="patch_3">
    <path d="M 72 362.6928 
L 72 48.9024 
" style="fill:none;stroke:#000000;stroke-linecap:square;stroke-linejoin:miter;stroke-width:0.8;"/>
   </g>
   <g id="patch_4">
    <path d="M 518.4 362.6928 
L 518.4 48.9024 
" style="fill:none;stroke:#000000;stroke-linecap:square;stroke-linejoin:miter;stroke-width:0.8;"/>
   </g>
   <g id="patch_5">
    <path d="M 72 362.6928 
L 518.4 362.6928 
" style="fill:none;stroke:#000000;stroke-linecap:square;stroke-linejoin:miter;stroke-width:0.8;"/>
   </g>
   <g id="patch_6">
    <path d="M 72 48.9024 
L 518.4 48.9024 
" style="fill:none;stroke:#000000;stroke-linecap:square;stroke-linejoin:miter;stroke-width:0.8;"/>
   </g>
   <g id="text_19">
    <!-- Stress Balls results (with old results) -->
    <defs>
     <path d="M 18.3125 70.21875 
L 18.3125 54.6875 
L 36.8125 54.6875 
L 36.8125 47.703125 
L 18.3125 47.703125 
L 18.3125 18.015625 
Q 18.3125 11.328125 20.140625 9.421875 
Q 21.96875 7.515625 27.59375 7.515625 
L 36.8125 7.515625 
L 36.8125 0 
L 27.59375 0 
Q 17.1875 0 13.234375 3.875 
Q 9.28125 7.765625 9.28125 18.015625 
L 9.28125 47.703125 
L 2.6875 47.703125 
L 2.6875 54.6875 
L 9.28125 54.6875 
L 9.28125 70.21875 
z
" id="DejaVuSans-74"/>
     <path d="M 41.109375 46.296875 
Q 39.59375 47.171875 37.8125 47.578125 
Q 36.03125 48 33.890625 48 
Q 26.265625 48 22.1875 43.046875 
Q 18.109375 38.09375 18.109375 28.8125 
L 18.109375 0 
L 9.078125 0 
L 9.078125 54.6875 
L 18.109375 54.6875 
L 18.109375 46.1875 
Q 20.953125 51.171875 25.484375 53.578125 
Q 30.03125 56 36.53125 56 
Q 37.453125 56 38.578125 55.875 
Q 39.703125 55.765625 41.0625 55.515625 
z
" id="DejaVuSans-72"/>
     <path d="M 56.203125 29.59375 
L 56.203125 25.203125 
L 14.890625 25.203125 
Q 15.484375 15.921875 20.484375 11.0625 
Q 25.484375 6.203125 34.421875 6.203125 
Q 39.59375 6.203125 44.453125 7.46875 
Q 49.3125 8.734375 54.109375 11.28125 
L 54.109375 2.78125 
Q 49.265625 0.734375 44.1875 -0.34375 
Q 39.109375 -1.421875 33.890625 -1.421875 
Q 20.796875 -1.421875 13.15625 6.1875 
Q 5.515625 13.8125 5.515625 26.8125 
Q 5.515625 40.234375 12.765625 48.109375 
Q 20.015625 56 32.328125 56 
Q 43.359375 56 49.78125 48.890625 
Q 56.203125 41.796875 56.203125 29.59375 
z
M 47.21875 32.234375 
Q 47.125 39.59375 43.09375 43.984375 
Q 39.0625 48.390625 32.421875 48.390625 
Q 24.90625 48.390625 20.390625 44.140625 
Q 15.875 39.890625 15.1875 32.171875 
z
" id="DejaVuSans-65"/>
     <path d="M 19.671875 34.8125 
L 19.671875 8.109375 
L 35.5 8.109375 
Q 43.453125 8.109375 47.28125 11.40625 
Q 51.125 14.703125 51.125 21.484375 
Q 51.125 28.328125 47.28125 31.5625 
Q 43.453125 34.8125 35.5 34.8125 
z
M 19.671875 64.796875 
L 19.671875 42.828125 
L 34.28125 42.828125 
Q 41.5 42.828125 45.03125 45.53125 
Q 48.578125 48.25 48.578125 53.8125 
Q 48.578125 59.328125 45.03125 62.0625 
Q 41.5 64.796875 34.28125 64.796875 
z
M 9.8125 72.90625 
L 35.015625 72.90625 
Q 46.296875 72.90625 52.390625 68.21875 
Q 58.5 63.53125 58.5 54.890625 
Q 58.5 48.1875 55.375 44.234375 
Q 52.25 40.28125 46.1875 39.3125 
Q 53.46875 37.75 57.5 32.78125 
Q 61.53125 27.828125 61.53125 20.40625 
Q 61.53125 10.640625 54.890625 5.3125 
Q 48.25 0 35.984375 0 
L 9.8125 0 
z
" id="DejaVuSans-42"/>
     <path d="M 8.5 21.578125 
L 8.5 54.6875 
L 17.484375 54.6875 
L 17.484375 21.921875 
Q 17.484375 14.15625 20.5 10.265625 
Q 23.53125 6.390625 29.59375 6.390625 
Q 36.859375 6.390625 41.078125 11.03125 
Q 45.3125 15.671875 45.3125 23.6875 
L 45.3125 54.6875 
L 54.296875 54.6875 
L 54.296875 0 
L 45.3125 0 
L 45.3125 8.40625 
Q 42.046875 3.421875 37.71875 1 
Q 33.40625 -1.421875 27.6875 -1.421875 
Q 18.265625 -1.421875 13.375 4.4375 
Q 8.5 10.296875 8.5 21.578125 
z
M 31.109375 56 
z
" id="DejaVuSans-75"/>
     <path d="M 31 75.875 
Q 24.46875 64.65625 21.28125 53.65625 
Q 18.109375 42.671875 18.109375 31.390625 
Q 18.109375 20.125 21.3125 9.0625 
Q 24.515625 -2 31 -13.1875 
L 23.1875 -13.1875 
Q 15.875 -1.703125 12.234375 9.375 
Q 8.59375 20.453125 8.59375 31.390625 
Q 8.59375 42.28125 12.203125 53.3125 
Q 15.828125 64.359375 23.1875 75.875 
z
" id="DejaVuSans-28"/>
     <path d="M 4.203125 54.6875 
L 13.1875 54.6875 
L 24.421875 12.015625 
L 35.59375 54.6875 
L 46.1875 54.6875 
L 57.421875 12.015625 
L 68.609375 54.6875 
L 77.59375 54.6875 
L 63.28125 0 
L 52.6875 0 
L 40.921875 44.828125 
L 29.109375 0 
L 18.5 0 
z
" id="DejaVuSans-77"/>
     <path d="M 9.421875 54.6875 
L 18.40625 54.6875 
L 18.40625 0 
L 9.421875 0 
z
M 9.421875 75.984375 
L 18.40625 75.984375 
L 18.40625 64.59375 
L 9.421875 64.59375 
z
" id="DejaVuSans-69"/>
     <path d="M 54.890625 33.015625 
L 54.890625 0 
L 45.90625 0 
L 45.90625 32.71875 
Q 45.90625 40.484375 42.875 44.328125 
Q 39.84375 48.1875 33.796875 48.1875 
Q 26.515625 48.1875 22.3125 43.546875 
Q 18.109375 38.921875 18.109375 30.90625 
L 18.109375 0 
L 9.078125 0 
L 9.078125 75.984375 
L 18.109375 75.984375 
L 18.109375 46.1875 
Q 21.34375 51.125 25.703125 53.5625 
Q 30.078125 56 35.796875 56 
Q 45.21875 56 50.046875 50.171875 
Q 54.890625 44.34375 54.890625 33.015625 
z
" id="DejaVuSans-68"/>
     <path d="M 30.609375 48.390625 
Q 23.390625 48.390625 19.1875 42.75 
Q 14.984375 37.109375 14.984375 27.296875 
Q 14.984375 17.484375 19.15625 11.84375 
Q 23.34375 6.203125 30.609375 6.203125 
Q 37.796875 6.203125 41.984375 11.859375 
Q 46.1875 17.53125 46.1875 27.296875 
Q 46.1875 37.015625 41.984375 42.703125 
Q 37.796875 48.390625 30.609375 48.390625 
z
M 30.609375 56 
Q 42.328125 56 49.015625 48.375 
Q 55.71875 40.765625 55.71875 27.296875 
Q 55.71875 13.875 49.015625 6.21875 
Q 42.328125 -1.421875 30.609375 -1.421875 
Q 18.84375 -1.421875 12.171875 6.21875 
Q 5.515625 13.875 5.515625 27.296875 
Q 5.515625 40.765625 12.171875 48.375 
Q 18.84375 56 30.609375 56 
z
" id="DejaVuSans-6f"/>
     <path d="M 45.40625 46.390625 
L 45.40625 75.984375 
L 54.390625 75.984375 
L 54.390625 0 
L 45.40625 0 
L 45.40625 8.203125 
Q 42.578125 3.328125 38.25 0.953125 
Q 33.9375 -1.421875 27.875 -1.421875 
Q 17.96875 -1.421875 11.734375 6.484375 
Q 5.515625 14.40625 5.515625 27.296875 
Q 5.515625 40.1875 11.734375 48.09375 
Q 17.96875 56 27.875 56 
Q 33.9375 56 38.25 53.625 
Q 42.578125 51.265625 45.40625 46.390625 
z
M 14.796875 27.296875 
Q 14.796875 17.390625 18.875 11.75 
Q 22.953125 6.109375 30.078125 6.109375 
Q 37.203125 6.109375 41.296875 11.75 
Q 45.40625 17.390625 45.40625 27.296875 
Q 45.40625 37.203125 41.296875 42.84375 
Q 37.203125 48.484375 30.078125 48.484375 
Q 22.953125 48.484375 18.875 42.84375 
Q 14.796875 37.203125 14.796875 27.296875 
z
" id="DejaVuSans-64"/>
     <path d="M 8.015625 75.875 
L 15.828125 75.875 
Q 23.140625 64.359375 26.78125 53.3125 
Q 30.421875 42.28125 30.421875 31.390625 
Q 30.421875 20.453125 26.78125 9.375 
Q 23.140625 -1.703125 15.828125 -13.1875 
L 8.015625 -13.1875 
Q 14.5 -2 17.703125 9.0625 
Q 20.90625 20.125 20.90625 31.390625 
Q 20.90625 42.671875 17.703125 53.65625 
Q 14.5 64.65625 8.015625 75.875 
z
" id="DejaVuSans-29"/>
    </defs>
    <g transform="translate(185.8275 42.9024)scale(0.12 -0.12)">
     <use xlink:href="#DejaVuSans-53"/>
     <use x="63.476562" xlink:href="#DejaVuSans-74"/>
     <use x="102.685547" xlink:href="#DejaVuSans-72"/>
     <use x="143.767578" xlink:href="#DejaVuSans-65"/>
     <use x="205.291016" xlink:href="#DejaVuSans-73"/>
     <use x="257.390625" xlink:href="#DejaVuSans-73"/>
     <use x="309.490234" xlink:href="#DejaVuSans-20"/>
     <use x="341.277344" xlink:href="#DejaVuSans-42"/>
     <use x="409.880859" xlink:href="#DejaVuSans-61"/>
     <use x="471.160156" xlink:href="#DejaVuSans-6c"/>
     <use x="498.943359" xlink:href="#DejaVuSans-6c"/>
     <use x="526.726562" xlink:href="#DejaVuSans-73"/>
     <use x="578.826172" xlink:href="#DejaVuSans-20"/>
     <use x="610.613281" xlink:href="#DejaVuSans-72"/>
     <use x="651.695312" xlink:href="#DejaVuSans-65"/>
     <use x="713.21875" xlink:href="#DejaVuSans-73"/>
     <use x="765.318359" xlink:href="#DejaVuSans-75"/>
     <use x="828.697266" xlink:href="#DejaVuSans-6c"/>
     <use x="856.480469" xlink:href="#DejaVuSans-74"/>
     <use x="895.689453" xlink:href="#DejaVuSans-73"/>
     <use x="947.789062" xlink:href="#DejaVuSans-20"/>
     <use x="979.576172" xlink:href="#DejaVuSans-28"/>
     <use x="1018.589844" xlink:href="#DejaVuSans-77"/>
     <use x="1100.376953" xlink:href="#DejaVuSans-69"/>
     <use x="1128.160156" xlink:href="#DejaVuSans-74"/>
     <use x="1167.369141" xlink:href="#DejaVuSans-68"/>
     <use x="1230.748047" xlink:href="#DejaVuSans-20"/>
     <use x="1262.535156" xlink:href="#DejaVuSans-6f"/>
     <use x="1323.716797" xlink:href="#DejaVuSans-6c"/>
     <use x="1351.5" xlink:href="#DejaVuSans-64"/>
     <use x="1414.976562" xlink:href="#DejaVuSans-20"/>
     <use x="1446.763672" xlink:href="#DejaVuSans-72"/>
     <use x="1487.845703" xlink:href="#DejaVuSans-65"/>
     <use x="1549.369141" xlink:href="#DejaVuSans-73"/>
     <use x="1601.46875" xlink:href="#DejaVuSans-75"/>
     <use x="1664.847656" xlink:href="#DejaVuSans-6c"/>
     <use x="1692.630859" xlink:href="#DejaVuSans-74"/>
     <use x="1731.839844" xlink:href="#DejaVuSans-73"/>
     <use x="1783.939453" xlink:href="#DejaVuSans-29"/>
    </g>
   </g>
   <g id="legend_1">
    <g id="patch_7">
     <path d="M 131.239062 189.005525 
L 511.4 189.005525 
Q 513.4 189.005525 513.4 187.005525 
L 513.4 55.9024 
Q 513.4 53.9024 511.4 53.9024 
L 131.239062 53.9024 
Q 129.239062 53.9024 129.239062 55.9024 
L 129.239062 187.005525 
Q 129.239062 189.005525 131.239062 189.005525 
z
" style="fill:#ffffff;opacity:0.8;stroke:#cccccc;stroke-linejoin:miter;"/>
    </g>
    <g id="line2d_42">
     <path d="M 133.239062 62.000837 
L 153.239062 62.000837 
" style="fill:none;stroke:#edc240;stroke-linecap:square;stroke-width:1.5;"/>
    </g>
    <g id="line2d_43">
     <g>
      <use style="fill:#edc240;stroke:#edc240;" x="143.239062" xlink:href="#m02a8a19273" y="62.000837"/>
     </g>
    </g>
    <g id="text_20">
     <!-- SimpleGUICS2Pygame 02.00.00 Python 2.7.13 -O pygame 1.9.6 -->
     <defs>
      <path d="M 52 44.1875 
Q 55.375 50.25 60.0625 53.125 
Q 64.75 56 71.09375 56 
Q 79.640625 56 84.28125 50.015625 
Q 88.921875 44.046875 88.921875 33.015625 
L 88.921875 0 
L 79.890625 0 
L 79.890625 32.71875 
Q 79.890625 40.578125 77.09375 44.375 
Q 74.3125 48.1875 68.609375 48.1875 
Q 61.625 48.1875 57.5625 43.546875 
Q 53.515625 38.921875 53.515625 30.90625 
L 53.515625 0 
L 44.484375 0 
L 44.484375 32.71875 
Q 44.484375 40.625 41.703125 44.40625 
Q 38.921875 48.1875 33.109375 48.1875 
Q 26.21875 48.1875 22.15625 43.53125 
Q 18.109375 38.875 18.109375 30.90625 
L 18.109375 0 
L 9.078125 0 
L 9.078125 54.6875 
L 18.109375 54.6875 
L 18.109375 46.1875 
Q 21.1875 51.21875 25.484375 53.609375 
Q 29.78125 56 35.6875 56 
Q 41.65625 56 45.828125 52.96875 
Q 50 49.953125 52 44.1875 
z
" id="DejaVuSans-6d"/>
      <path d="M 18.109375 8.203125 
L 18.109375 -20.796875 
L 9.078125 -20.796875 
L 9.078125 54.6875 
L 18.109375 54.6875 
L 18.109375 46.390625 
Q 20.953125 51.265625 25.265625 53.625 
Q 29.59375 56 35.59375 56 
Q 45.5625 56 51.78125 48.09375 
Q 58.015625 40.1875 58.015625 27.296875 
Q 58.015625 14.40625 51.78125 6.484375 
Q 45.5625 -1.421875 35.59375 -1.421875 
Q 29.59375 -1.421875 25.265625 0.953125 
Q 20.953125 3.328125 18.109375 8.203125 
z
M 48.6875 27.296875 
Q 48.6875 37.203125 44.609375 42.84375 
Q 40.53125 48.484375 33.40625 48.484375 
Q 26.265625 48.484375 22.1875 42.84375 
Q 18.109375 37.203125 18.109375 27.296875 
Q 18.109375 17.390625 22.1875 11.75 
Q 26.265625 6.109375 33.40625 6.109375 
Q 40.53125 6.109375 44.609375 11.75 
Q 48.6875 17.390625 48.6875 27.296875 
z
" id="DejaVuSans-70"/>
      <path d="M 59.515625 10.40625 
L 59.515625 29.984375 
L 43.40625 29.984375 
L 43.40625 38.09375 
L 69.28125 38.09375 
L 69.28125 6.78125 
Q 63.578125 2.734375 56.6875 0.65625 
Q 49.8125 -1.421875 42 -1.421875 
Q 24.90625 -1.421875 15.25 8.5625 
Q 5.609375 18.5625 5.609375 36.375 
Q 5.609375 54.25 15.25 64.234375 
Q 24.90625 74.21875 42 74.21875 
Q 49.125 74.21875 55.546875 72.453125 
Q 61.96875 70.703125 67.390625 67.28125 
L 67.390625 56.78125 
Q 61.921875 61.421875 55.765625 63.765625 
Q 49.609375 66.109375 42.828125 66.109375 
Q 29.4375 66.109375 22.71875 58.640625 
Q 16.015625 51.171875 16.015625 36.375 
Q 16.015625 21.625 22.71875 14.15625 
Q 29.4375 6.6875 42.828125 6.6875 
Q 48.046875 6.6875 52.140625 7.59375 
Q 56.25 8.5 59.515625 10.40625 
z
" id="DejaVuSans-47"/>
      <path d="M 8.6875 72.90625 
L 18.609375 72.90625 
L 18.609375 28.609375 
Q 18.609375 16.890625 22.84375 11.734375 
Q 27.09375 6.59375 36.625 6.59375 
Q 46.09375 6.59375 50.34375 11.734375 
Q 54.59375 16.890625 54.59375 28.609375 
L 54.59375 72.90625 
L 64.5 72.90625 
L 64.5 27.390625 
Q 64.5 13.140625 57.4375 5.859375 
Q 50.390625 -1.421875 36.625 -1.421875 
Q 22.796875 -1.421875 15.734375 5.859375 
Q 8.6875 13.140625 8.6875 27.390625 
z
" id="DejaVuSans-55"/>
      <path d="M 9.8125 72.90625 
L 19.671875 72.90625 
L 19.671875 0 
L 9.8125 0 
z
" id="DejaVuSans-49"/>
      <path d="M 64.40625 67.28125 
L 64.40625 56.890625 
Q 59.421875 61.53125 53.78125 63.8125 
Q 48.140625 66.109375 41.796875 66.109375 
Q 29.296875 66.109375 22.65625 58.46875 
Q 16.015625 50.828125 16.015625 36.375 
Q 16.015625 21.96875 22.65625 14.328125 
Q 29.296875 6.6875 41.796875 6.6875 
Q 48.140625 6.6875 53.78125 8.984375 
Q 59.421875 11.28125 64.40625 15.921875 
L 64.40625 5.609375 
Q 59.234375 2.09375 53.4375 0.328125 
Q 47.65625 -1.421875 41.21875 -1.421875 
Q 24.65625 -1.421875 15.125 8.703125 
Q 5.609375 18.84375 5.609375 36.375 
Q 5.609375 53.953125 15.125 64.078125 
Q 24.65625 74.21875 41.21875 74.21875 
Q 47.75 74.21875 53.53125 72.484375 
Q 59.328125 70.75 64.40625 67.28125 
z
" id="DejaVuSans-43"/>
      <path d="M 32.171875 -5.078125 
Q 28.375 -14.84375 24.75 -17.8125 
Q 21.140625 -20.796875 15.09375 -20.796875 
L 7.90625 -20.796875 
L 7.90625 -13.28125 
L 13.1875 -13.28125 
Q 16.890625 -13.28125 18.9375 -11.515625 
Q 21 -9.765625 23.484375 -3.21875 
L 25.09375 0.875 
L 2.984375 54.6875 
L 12.5 54.6875 
L 29.59375 11.921875 
L 46.6875 54.6875 
L 56.203125 54.6875 
z
" id="DejaVuSans-79"/>
      <path d="M 45.40625 27.984375 
Q 45.40625 37.75 41.375 43.109375 
Q 37.359375 48.484375 30.078125 48.484375 
Q 22.859375 48.484375 18.828125 43.109375 
Q 14.796875 37.75 14.796875 27.984375 
Q 14.796875 18.265625 18.828125 12.890625 
Q 22.859375 7.515625 30.078125 7.515625 
Q 37.359375 7.515625 41.375 12.890625 
Q 45.40625 18.265625 45.40625 27.984375 
z
M 54.390625 6.78125 
Q 54.390625 -7.171875 48.1875 -13.984375 
Q 42 -20.796875 29.203125 -20.796875 
Q 24.46875 -20.796875 20.265625 -20.09375 
Q 16.0625 -19.390625 12.109375 -17.921875 
L 12.109375 -9.1875 
Q 16.0625 -11.328125 19.921875 -12.34375 
Q 23.78125 -13.375 27.78125 -13.375 
Q 36.625 -13.375 41.015625 -8.765625 
Q 45.40625 -4.15625 45.40625 5.171875 
L 45.40625 9.625 
Q 42.625 4.78125 38.28125 2.390625 
Q 33.9375 0 27.875 0 
Q 17.828125 0 11.671875 7.65625 
Q 5.515625 15.328125 5.515625 27.984375 
Q 5.515625 40.671875 11.671875 48.328125 
Q 17.828125 56 27.875 56 
Q 33.9375 56 38.28125 53.609375 
Q 42.625 51.21875 45.40625 46.390625 
L 45.40625 54.6875 
L 54.390625 54.6875 
z
" id="DejaVuSans-67"/>
      <path d="M 10.6875 12.40625 
L 21 12.40625 
L 21 0 
L 10.6875 0 
z
" id="DejaVuSans-2e"/>
      <path d="M 54.890625 33.015625 
L 54.890625 0 
L 45.90625 0 
L 45.90625 32.71875 
Q 45.90625 40.484375 42.875 44.328125 
Q 39.84375 48.1875 33.796875 48.1875 
Q 26.515625 48.1875 22.3125 43.546875 
Q 18.109375 38.921875 18.109375 30.90625 
L 18.109375 0 
L 9.078125 0 
L 9.078125 54.6875 
L 18.109375 54.6875 
L 18.109375 46.1875 
Q 21.34375 51.125 25.703125 53.5625 
Q 30.078125 56 35.796875 56 
Q 45.21875 56 50.046875 50.171875 
Q 54.890625 44.34375 54.890625 33.015625 
z
" id="DejaVuSans-6e"/>
      <path d="M 4.890625 31.390625 
L 31.203125 31.390625 
L 31.203125 23.390625 
L 4.890625 23.390625 
z
" id="DejaVuSans-2d"/>
      <path d="M 39.40625 66.21875 
Q 28.65625 66.21875 22.328125 58.203125 
Q 16.015625 50.203125 16.015625 36.375 
Q 16.015625 22.609375 22.328125 14.59375 
Q 28.65625 6.59375 39.40625 6.59375 
Q 50.140625 6.59375 56.421875 14.59375 
Q 62.703125 22.609375 62.703125 36.375 
Q 62.703125 50.203125 56.421875 58.203125 
Q 50.140625 66.21875 39.40625 66.21875 
z
M 39.40625 74.21875 
Q 54.734375 74.21875 63.90625 63.9375 
Q 73.09375 53.65625 73.09375 36.375 
Q 73.09375 19.140625 63.90625 8.859375 
Q 54.734375 -1.421875 39.40625 -1.421875 
Q 24.03125 -1.421875 14.8125 8.828125 
Q 5.609375 19.09375 5.609375 36.375 
Q 5.609375 53.65625 14.8125 63.9375 
Q 24.03125 74.21875 39.40625 74.21875 
z
" id="DejaVuSans-4f"/>
      <path d="M 10.984375 1.515625 
L 10.984375 10.5 
Q 14.703125 8.734375 18.5 7.8125 
Q 22.3125 6.890625 25.984375 6.890625 
Q 35.75 6.890625 40.890625 13.453125 
Q 46.046875 20.015625 46.78125 33.40625 
Q 43.953125 29.203125 39.59375 26.953125 
Q 35.25 24.703125 29.984375 24.703125 
Q 19.046875 24.703125 12.671875 31.3125 
Q 6.296875 37.9375 6.296875 49.421875 
Q 6.296875 60.640625 12.9375 67.421875 
Q 19.578125 74.21875 30.609375 74.21875 
Q 43.265625 74.21875 49.921875 64.515625 
Q 56.59375 54.828125 56.59375 36.375 
Q 56.59375 19.140625 48.40625 8.859375 
Q 40.234375 -1.421875 26.421875 -1.421875 
Q 22.703125 -1.421875 18.890625 -0.6875 
Q 15.09375 0.046875 10.984375 1.515625 
z
M 30.609375 32.421875 
Q 37.25 32.421875 41.125 36.953125 
Q 45.015625 41.5 45.015625 49.421875 
Q 45.015625 57.28125 41.125 61.84375 
Q 37.25 66.40625 30.609375 66.40625 
Q 23.96875 66.40625 20.09375 61.84375 
Q 16.21875 57.28125 16.21875 49.421875 
Q 16.21875 41.5 20.09375 36.953125 
Q 23.96875 32.421875 30.609375 32.421875 
z
" id="DejaVuSans-39"/>
     </defs>
     <g transform="translate(161.239062 65.500837)scale(0.1 -0.1)">
      <use xlink:href="#DejaVuSans-53"/>
      <use x="63.476562" xlink:href="#DejaVuSans-69"/>
      <use x="91.259766" xlink:href="#DejaVuSans-6d"/>
      <use x="188.671875" xlink:href="#DejaVuSans-70"/>
      <use x="252.148438" xlink:href="#DejaVuSans-6c"/>
      <use x="279.931641" xlink:href="#DejaVuSans-65"/>
      <use x="341.455078" xlink:href="#DejaVuSans-47"/>
      <use x="418.945312" xlink:href="#DejaVuSans-55"/>
      <use x="492.138672" xlink:href="#DejaVuSans-49"/>
      <use x="521.630859" xlink:href="#DejaVuSans-43"/>
      <use x="591.455078" xlink:href="#DejaVuSans-53"/>
      <use x="654.931641" xlink:href="#DejaVuSans-32"/>
      <use x="718.554688" xlink:href="#DejaVuSans-50"/>
      <use x="778.857422" xlink:href="#DejaVuSans-79"/>
      <use x="838.037109" xlink:href="#DejaVuSans-67"/>
      <use x="901.513672" xlink:href="#DejaVuSans-61"/>
      <use x="962.792969" xlink:href="#DejaVuSans-6d"/>
      <use x="1060.205078" xlink:href="#DejaVuSans-65"/>
      <use x="1121.728516" xlink:href="#DejaVuSans-20"/>
      <use x="1153.515625" xlink:href="#DejaVuSans-30"/>
      <use x="1217.138672" xlink:href="#DejaVuSans-32"/>
      <use x="1280.761719" xlink:href="#DejaVuSans-2e"/>
      <use x="1312.548828" xlink:href="#DejaVuSans-30"/>
      <use x="1376.171875" xlink:href="#DejaVuSans-30"/>
      <use x="1439.794922" xlink:href="#DejaVuSans-2e"/>
      <use x="1471.582031" xlink:href="#DejaVuSans-30"/>
      <use x="1535.205078" xlink:href="#DejaVuSans-30"/>
      <use x="1598.828125" xlink:href="#DejaVuSans-20"/>
      <use x="1630.615234" xlink:href="#DejaVuSans-50"/>
      <use x="1690.917969" xlink:href="#DejaVuSans-79"/>
      <use x="1750.097656" xlink:href="#DejaVuSans-74"/>
      <use x="1789.306641" xlink:href="#DejaVuSans-68"/>
      <use x="1852.685547" xlink:href="#DejaVuSans-6f"/>
      <use x="1913.867188" xlink:href="#DejaVuSans-6e"/>
      <use x="1977.246094" xlink:href="#DejaVuSans-20"/>
      <use x="2009.033203" xlink:href="#DejaVuSans-32"/>
      <use x="2072.65625" xlink:href="#DejaVuSans-2e"/>
      <use x="2104.443359" xlink:href="#DejaVuSans-37"/>
      <use x="2168.066406" xlink:href="#DejaVuSans-2e"/>
      <use x="2199.853516" xlink:href="#DejaVuSans-31"/>
      <use x="2263.476562" xlink:href="#DejaVuSans-33"/>
      <use x="2327.099609" xlink:href="#DejaVuSans-20"/>
      <use x="2358.886719" xlink:href="#DejaVuSans-2d"/>
      <use x="2395.001953" xlink:href="#DejaVuSans-4f"/>
      <use x="2473.712891" xlink:href="#DejaVuSans-20"/>
      <use x="2505.5" xlink:href="#DejaVuSans-70"/>
      <use x="2568.976562" xlink:href="#DejaVuSans-79"/>
      <use x="2628.15625" xlink:href="#DejaVuSans-67"/>
      <use x="2691.632812" xlink:href="#DejaVuSans-61"/>
      <use x="2752.912109" xlink:href="#DejaVuSans-6d"/>
      <use x="2850.324219" xlink:href="#DejaVuSans-65"/>
      <use x="2911.847656" xlink:href="#DejaVuSans-20"/>
      <use x="2943.634766" xlink:href="#DejaVuSans-31"/>
      <use x="3007.257812" xlink:href="#DejaVuSans-2e"/>
      <use x="3039.044922" xlink:href="#DejaVuSans-39"/>
      <use x="3102.667969" xlink:href="#DejaVuSans-2e"/>
      <use x="3134.455078" xlink:href="#DejaVuSans-36"/>
     </g>
    </g>
    <g id="line2d_44">
     <path d="M 133.239062 76.678963 
L 153.239062 76.678963 
" style="fill:none;stroke:#afd8f8;stroke-linecap:square;stroke-width:1.5;"/>
    </g>
    <g id="line2d_45">
     <g>
      <use style="fill:#afd8f8;stroke:#afd8f8;" x="143.239062" xlink:href="#m3948df18f0" y="76.678963"/>
     </g>
    </g>
    <g id="text_21">
     <!-- SimpleGUICS2Pygame 02.00.00 Python 3.5.3 -O pygame 1.9.6 -->
     <g transform="translate(161.239062 80.178963)scale(0.1 -0.1)">
      <use xlink:href="#DejaVuSans-53"/>
      <use x="63.476562" xlink:href="#DejaVuSans-69"/>
      <use x="91.259766" xlink:href="#DejaVuSans-6d"/>
      <use x="188.671875" xlink:href="#DejaVuSans-70"/>
      <use x="252.148438" xlink:href="#DejaVuSans-6c"/>
      <use x="279.931641" xlink:href="#DejaVuSans-65"/>
      <use x="341.455078" xlink:href="#DejaVuSans-47"/>
      <use x="418.945312" xlink:href="#DejaVuSans-55"/>
      <use x="492.138672" xlink:href="#DejaVuSans-49"/>
      <use x="521.630859" xlink:href="#DejaVuSans-43"/>
      <use x="591.455078" xlink:href="#DejaVuSans-53"/>
      <use x="654.931641" xlink:href="#DejaVuSans-32"/>
      <use x="718.554688" xlink:href="#DejaVuSans-50"/>
      <use x="778.857422" xlink:href="#DejaVuSans-79"/>
      <use x="838.037109" xlink:href="#DejaVuSans-67"/>
      <use x="901.513672" xlink:href="#DejaVuSans-61"/>
      <use x="962.792969" xlink:href="#DejaVuSans-6d"/>
      <use x="1060.205078" xlink:href="#DejaVuSans-65"/>
      <use x="1121.728516" xlink:href="#DejaVuSans-20"/>
      <use x="1153.515625" xlink:href="#DejaVuSans-30"/>
      <use x="1217.138672" xlink:href="#DejaVuSans-32"/>
      <use x="1280.761719" xlink:href="#DejaVuSans-2e"/>
      <use x="1312.548828" xlink:href="#DejaVuSans-30"/>
      <use x="1376.171875" xlink:href="#DejaVuSans-30"/>
      <use x="1439.794922" xlink:href="#DejaVuSans-2e"/>
      <use x="1471.582031" xlink:href="#DejaVuSans-30"/>
      <use x="1535.205078" xlink:href="#DejaVuSans-30"/>
      <use x="1598.828125" xlink:href="#DejaVuSans-20"/>
      <use x="1630.615234" xlink:href="#DejaVuSans-50"/>
      <use x="1690.917969" xlink:href="#DejaVuSans-79"/>
      <use x="1750.097656" xlink:href="#DejaVuSans-74"/>
      <use x="1789.306641" xlink:href="#DejaVuSans-68"/>
      <use x="1852.685547" xlink:href="#DejaVuSans-6f"/>
      <use x="1913.867188" xlink:href="#DejaVuSans-6e"/>
      <use x="1977.246094" xlink:href="#DejaVuSans-20"/>
      <use x="2009.033203" xlink:href="#DejaVuSans-33"/>
      <use x="2072.65625" xlink:href="#DejaVuSans-2e"/>
      <use x="2104.443359" xlink:href="#DejaVuSans-35"/>
      <use x="2168.066406" xlink:href="#DejaVuSans-2e"/>
      <use x="2199.853516" xlink:href="#DejaVuSans-33"/>
      <use x="2263.476562" xlink:href="#DejaVuSans-20"/>
      <use x="2295.263672" xlink:href="#DejaVuSans-2d"/>
      <use x="2331.378906" xlink:href="#DejaVuSans-4f"/>
      <use x="2410.089844" xlink:href="#DejaVuSans-20"/>
      <use x="2441.876953" xlink:href="#DejaVuSans-70"/>
      <use x="2505.353516" xlink:href="#DejaVuSans-79"/>
      <use x="2564.533203" xlink:href="#DejaVuSans-67"/>
      <use x="2628.009766" xlink:href="#DejaVuSans-61"/>
      <use x="2689.289062" xlink:href="#DejaVuSans-6d"/>
      <use x="2786.701172" xlink:href="#DejaVuSans-65"/>
      <use x="2848.224609" xlink:href="#DejaVuSans-20"/>
      <use x="2880.011719" xlink:href="#DejaVuSans-31"/>
      <use x="2943.634766" xlink:href="#DejaVuSans-2e"/>
      <use x="2975.421875" xlink:href="#DejaVuSans-39"/>
      <use x="3039.044922" xlink:href="#DejaVuSans-2e"/>
      <use x="3070.832031" xlink:href="#DejaVuSans-36"/>
     </g>
    </g>
    <g id="line2d_46">
     <path d="M 133.239062 91.357087 
L 153.239062 91.357087 
" style="fill:none;stroke:#cb4b4b;stroke-linecap:square;stroke-width:1.5;"/>
    </g>
    <g id="line2d_47">
     <g>
      <use style="fill:#cb4b4b;stroke:#cb4b4b;" x="143.239062" xlink:href="#m3c656794d0" y="91.357087"/>
     </g>
    </g>
    <g id="text_22">
     <!-- old Chrome 27.0 -->
     <g transform="translate(161.239062 94.857087)scale(0.1 -0.1)">
      <use xlink:href="#DejaVuSans-6f"/>
      <use x="61.181641" xlink:href="#DejaVuSans-6c"/>
      <use x="88.964844" xlink:href="#DejaVuSans-64"/>
      <use x="152.441406" xlink:href="#DejaVuSans-20"/>
      <use x="184.228516" xlink:href="#DejaVuSans-43"/>
      <use x="254.052734" xlink:href="#DejaVuSans-68"/>
      <use x="317.431641" xlink:href="#DejaVuSans-72"/>
      <use x="358.513672" xlink:href="#DejaVuSans-6f"/>
      <use x="419.695312" xlink:href="#DejaVuSans-6d"/>
      <use x="517.107422" xlink:href="#DejaVuSans-65"/>
      <use x="578.630859" xlink:href="#DejaVuSans-20"/>
      <use x="610.417969" xlink:href="#DejaVuSans-32"/>
      <use x="674.041016" xlink:href="#DejaVuSans-37"/>
      <use x="737.664062" xlink:href="#DejaVuSans-2e"/>
      <use x="769.451172" xlink:href="#DejaVuSans-30"/>
     </g>
    </g>
    <g id="line2d_48">
     <path d="M 133.239062 106.035213 
L 153.239062 106.035213 
" style="fill:none;stroke:#4da74d;stroke-linecap:square;stroke-width:1.5;"/>
    </g>
    <g id="line2d_49">
     <g>
      <use style="fill:#4da74d;stroke:#4da74d;" x="143.239062" xlink:href="#m6c6b52ee48" y="106.035213"/>
     </g>
    </g>
    <g id="text_23">
     <!-- old Firefox 21.0 -->
     <defs>
      <path d="M 37.109375 75.984375 
L 37.109375 68.5 
L 28.515625 68.5 
Q 23.6875 68.5 21.796875 66.546875 
Q 19.921875 64.59375 19.921875 59.515625 
L 19.921875 54.6875 
L 34.71875 54.6875 
L 34.71875 47.703125 
L 19.921875 47.703125 
L 19.921875 0 
L 10.890625 0 
L 10.890625 47.703125 
L 2.296875 47.703125 
L 2.296875 54.6875 
L 10.890625 54.6875 
L 10.890625 58.5 
Q 10.890625 67.625 15.140625 71.796875 
Q 19.390625 75.984375 28.609375 75.984375 
z
" id="DejaVuSans-66"/>
      <path d="M 54.890625 54.6875 
L 35.109375 28.078125 
L 55.90625 0 
L 45.3125 0 
L 29.390625 21.484375 
L 13.484375 0 
L 2.875 0 
L 24.125 28.609375 
L 4.6875 54.6875 
L 15.28125 54.6875 
L 29.78125 35.203125 
L 44.28125 54.6875 
z
" id="DejaVuSans-78"/>
     </defs>
     <g transform="translate(161.239062 109.535213)scale(0.1 -0.1)">
      <use xlink:href="#DejaVuSans-6f"/>
      <use x="61.181641" xlink:href="#DejaVuSans-6c"/>
      <use x="88.964844" xlink:href="#DejaVuSans-64"/>
      <use x="152.441406" xlink:href="#DejaVuSans-20"/>
      <use x="184.228516" xlink:href="#DejaVuSans-46"/>
      <use x="241.638672" xlink:href="#DejaVuSans-69"/>
      <use x="269.421875" xlink:href="#DejaVuSans-72"/>
      <use x="310.503906" xlink:href="#DejaVuSans-65"/>
      <use x="372.027344" xlink:href="#DejaVuSans-66"/>
      <use x="407.232422" xlink:href="#DejaVuSans-6f"/>
      <use x="468.367188" xlink:href="#DejaVuSans-78"/>
      <use x="527.546875" xlink:href="#DejaVuSans-20"/>
      <use x="559.333984" xlink:href="#DejaVuSans-32"/>
      <use x="622.957031" xlink:href="#DejaVuSans-31"/>
      <use x="686.580078" xlink:href="#DejaVuSans-2e"/>
      <use x="718.367188" xlink:href="#DejaVuSans-30"/>
     </g>
    </g>
    <g id="line2d_50">
     <path d="M 133.239062 120.713337 
L 153.239062 120.713337 
" style="fill:none;stroke:#9440ed;stroke-linecap:square;stroke-width:1.5;"/>
    </g>
    <g id="line2d_51">
     <g>
      <use style="fill:#9440ed;stroke:#9440ed;" x="143.239062" xlink:href="#me167662f0d" y="120.713337"/>
     </g>
    </g>
    <g id="text_24">
     <!-- old Safari 5.1.7 -->
     <g transform="translate(161.239062 124.213337)scale(0.1 -0.1)">
      <use xlink:href="#DejaVuSans-6f"/>
      <use x="61.181641" xlink:href="#DejaVuSans-6c"/>
      <use x="88.964844" xlink:href="#DejaVuSans-64"/>
      <use x="152.441406" xlink:href="#DejaVuSans-20"/>
      <use x="184.228516" xlink:href="#DejaVuSans-53"/>
      <use x="247.705078" xlink:href="#DejaVuSans-61"/>
      <use x="308.984375" xlink:href="#DejaVuSans-66"/>
      <use x="344.189453" xlink:href="#DejaVuSans-61"/>
      <use x="405.46875" xlink:href="#DejaVuSans-72"/>
      <use x="446.582031" xlink:href="#DejaVuSans-69"/>
      <use x="474.365234" xlink:href="#DejaVuSans-20"/>
      <use x="506.152344" xlink:href="#DejaVuSans-35"/>
      <use x="569.775391" xlink:href="#DejaVuSans-2e"/>
      <use x="601.5625" xlink:href="#DejaVuSans-31"/>
      <use x="665.185547" xlink:href="#DejaVuSans-2e"/>
      <use x="696.972656" xlink:href="#DejaVuSans-37"/>
     </g>
    </g>
    <g id="line2d_52">
     <path d="M 133.239062 135.391462 
L 153.239062 135.391462 
" style="fill:none;stroke:#bd9b33;stroke-linecap:square;stroke-width:1.5;"/>
    </g>
    <g id="line2d_53">
     <g>
      <use style="fill:#bd9b33;stroke:#bd9b33;" x="143.239062" xlink:href="#m9ac049aeb2" y="135.391462"/>
     </g>
    </g>
    <g id="text_25">
     <!-- old SimpleGUICS2Pygame 00.70.00 Python 2.7.5 -O Pygame 1.9.2pre -->
     <g transform="translate(161.239062 138.891462)scale(0.1 -0.1)">
      <use xlink:href="#DejaVuSans-6f"/>
      <use x="61.181641" xlink:href="#DejaVuSans-6c"/>
      <use x="88.964844" xlink:href="#DejaVuSans-64"/>
      <use x="152.441406" xlink:href="#DejaVuSans-20"/>
      <use x="184.228516" xlink:href="#DejaVuSans-53"/>
      <use x="247.705078" xlink:href="#DejaVuSans-69"/>
      <use x="275.488281" xlink:href="#DejaVuSans-6d"/>
      <use x="372.900391" xlink:href="#DejaVuSans-70"/>
      <use x="436.376953" xlink:href="#DejaVuSans-6c"/>
      <use x="464.160156" xlink:href="#DejaVuSans-65"/>
      <use x="525.683594" xlink:href="#DejaVuSans-47"/>
      <use x="603.173828" xlink:href="#DejaVuSans-55"/>
      <use x="676.367188" xlink:href="#DejaVuSans-49"/>
      <use x="705.859375" xlink:href="#DejaVuSans-43"/>
      <use x="775.683594" xlink:href="#DejaVuSans-53"/>
      <use x="839.160156" xlink:href="#DejaVuSans-32"/>
      <use x="902.783203" xlink:href="#DejaVuSans-50"/>
      <use x="963.085938" xlink:href="#DejaVuSans-79"/>
      <use x="1022.265625" xlink:href="#DejaVuSans-67"/>
      <use x="1085.742188" xlink:href="#DejaVuSans-61"/>
      <use x="1147.021484" xlink:href="#DejaVuSans-6d"/>
      <use x="1244.433594" xlink:href="#DejaVuSans-65"/>
      <use x="1305.957031" xlink:href="#DejaVuSans-20"/>
      <use x="1337.744141" xlink:href="#DejaVuSans-30"/>
      <use x="1401.367188" xlink:href="#DejaVuSans-30"/>
      <use x="1464.990234" xlink:href="#DejaVuSans-2e"/>
      <use x="1496.777344" xlink:href="#DejaVuSans-37"/>
      <use x="1560.400391" xlink:href="#DejaVuSans-30"/>
      <use x="1624.023438" xlink:href="#DejaVuSans-2e"/>
      <use x="1655.810547" xlink:href="#DejaVuSans-30"/>
      <use x="1719.433594" xlink:href="#DejaVuSans-30"/>
      <use x="1783.056641" xlink:href="#DejaVuSans-20"/>
      <use x="1814.84375" xlink:href="#DejaVuSans-50"/>
      <use x="1875.146484" xlink:href="#DejaVuSans-79"/>
      <use x="1934.326172" xlink:href="#DejaVuSans-74"/>
      <use x="1973.535156" xlink:href="#DejaVuSans-68"/>
      <use x="2036.914062" xlink:href="#DejaVuSans-6f"/>
      <use x="2098.095703" xlink:href="#DejaVuSans-6e"/>
      <use x="2161.474609" xlink:href="#DejaVuSans-20"/>
      <use x="2193.261719" xlink:href="#DejaVuSans-32"/>
      <use x="2256.884766" xlink:href="#DejaVuSans-2e"/>
      <use x="2288.671875" xlink:href="#DejaVuSans-37"/>
      <use x="2352.294922" xlink:href="#DejaVuSans-2e"/>
      <use x="2384.082031" xlink:href="#DejaVuSans-35"/>
      <use x="2447.705078" xlink:href="#DejaVuSans-20"/>
      <use x="2479.492188" xlink:href="#DejaVuSans-2d"/>
      <use x="2515.607422" xlink:href="#DejaVuSans-4f"/>
      <use x="2594.318359" xlink:href="#DejaVuSans-20"/>
      <use x="2626.105469" xlink:href="#DejaVuSans-50"/>
      <use x="2686.408203" xlink:href="#DejaVuSans-79"/>
      <use x="2745.587891" xlink:href="#DejaVuSans-67"/>
      <use x="2809.064453" xlink:href="#DejaVuSans-61"/>
      <use x="2870.34375" xlink:href="#DejaVuSans-6d"/>
      <use x="2967.755859" xlink:href="#DejaVuSans-65"/>
      <use x="3029.279297" xlink:href="#DejaVuSans-20"/>
      <use x="3061.066406" xlink:href="#DejaVuSans-31"/>
      <use x="3124.689453" xlink:href="#DejaVuSans-2e"/>
      <use x="3156.476562" xlink:href="#DejaVuSans-39"/>
      <use x="3220.099609" xlink:href="#DejaVuSans-2e"/>
      <use x="3251.886719" xlink:href="#DejaVuSans-32"/>
      <use x="3315.509766" xlink:href="#DejaVuSans-70"/>
      <use x="3378.986328" xlink:href="#DejaVuSans-72"/>
      <use x="3420.068359" xlink:href="#DejaVuSans-65"/>
     </g>
    </g>
    <g id="line2d_54">
     <path d="M 133.239062 150.069587 
L 153.239062 150.069587 
" style="fill:none;stroke:#8cacc6;stroke-linecap:square;stroke-width:1.5;"/>
    </g>
    <g id="line2d_55">
     <g>
      <use style="fill:#8cacc6;stroke:#8cacc6;" x="143.239062" xlink:href="#m62801b6c12" y="150.069587"/>
     </g>
    </g>
    <g id="text_26">
     <!-- old SimpleGUICS2Pygame 00.70.00 Python 3.3.2 -O Pygame 1.9.2pre -->
     <g transform="translate(161.239062 153.569587)scale(0.1 -0.1)">
      <use xlink:href="#DejaVuSans-6f"/>
      <use x="61.181641" xlink:href="#DejaVuSans-6c"/>
      <use x="88.964844" xlink:href="#DejaVuSans-64"/>
      <use x="152.441406" xlink:href="#DejaVuSans-20"/>
      <use x="184.228516" xlink:href="#DejaVuSans-53"/>
      <use x="247.705078" xlink:href="#DejaVuSans-69"/>
      <use x="275.488281" xlink:href="#DejaVuSans-6d"/>
      <use x="372.900391" xlink:href="#DejaVuSans-70"/>
      <use x="436.376953" xlink:href="#DejaVuSans-6c"/>
      <use x="464.160156" xlink:href="#DejaVuSans-65"/>
      <use x="525.683594" xlink:href="#DejaVuSans-47"/>
      <use x="603.173828" xlink:href="#DejaVuSans-55"/>
      <use x="676.367188" xlink:href="#DejaVuSans-49"/>
      <use x="705.859375" xlink:href="#DejaVuSans-43"/>
      <use x="775.683594" xlink:href="#DejaVuSans-53"/>
      <use x="839.160156" xlink:href="#DejaVuSans-32"/>
      <use x="902.783203" xlink:href="#DejaVuSans-50"/>
      <use x="963.085938" xlink:href="#DejaVuSans-79"/>
      <use x="1022.265625" xlink:href="#DejaVuSans-67"/>
      <use x="1085.742188" xlink:href="#DejaVuSans-61"/>
      <use x="1147.021484" xlink:href="#DejaVuSans-6d"/>
      <use x="1244.433594" xlink:href="#DejaVuSans-65"/>
      <use x="1305.957031" xlink:href="#DejaVuSans-20"/>
      <use x="1337.744141" xlink:href="#DejaVuSans-30"/>
      <use x="1401.367188" xlink:href="#DejaVuSans-30"/>
      <use x="1464.990234" xlink:href="#DejaVuSans-2e"/>
      <use x="1496.777344" xlink:href="#DejaVuSans-37"/>
      <use x="1560.400391" xlink:href="#DejaVuSans-30"/>
      <use x="1624.023438" xlink:href="#DejaVuSans-2e"/>
      <use x="1655.810547" xlink:href="#DejaVuSans-30"/>
      <use x="1719.433594" xlink:href="#DejaVuSans-30"/>
      <use x="1783.056641" xlink:href="#DejaVuSans-20"/>
      <use x="1814.84375" xlink:href="#DejaVuSans-50"/>
      <use x="1875.146484" xlink:href="#DejaVuSans-79"/>
      <use x="1934.326172" xlink:href="#DejaVuSans-74"/>
      <use x="1973.535156" xlink:href="#DejaVuSans-68"/>
      <use x="2036.914062" xlink:href="#DejaVuSans-6f"/>
      <use x="2098.095703" xlink:href="#DejaVuSans-6e"/>
      <use x="2161.474609" xlink:href="#DejaVuSans-20"/>
      <use x="2193.261719" xlink:href="#DejaVuSans-33"/>
      <use x="2256.884766" xlink:href="#DejaVuSans-2e"/>
      <use x="2288.671875" xlink:href="#DejaVuSans-33"/>
      <use x="2352.294922" xlink:href="#DejaVuSans-2e"/>
      <use x="2384.082031" xlink:href="#DejaVuSans-32"/>
      <use x="2447.705078" xlink:href="#DejaVuSans-20"/>
      <use x="2479.492188" xlink:href="#DejaVuSans-2d"/>
      <use x="2515.607422" xlink:href="#DejaVuSans-4f"/>
      <use x="2594.318359" xlink:href="#DejaVuSans-20"/>
      <use x="2626.105469" xlink:href="#DejaVuSans-50"/>
      <use x="2686.408203" xlink:href="#DejaVuSans-79"/>
      <use x="2745.587891" xlink:href="#DejaVuSans-67"/>
      <use x="2809.064453" xlink:href="#DejaVuSans-61"/>
      <use x="2870.34375" xlink:href="#DejaVuSans-6d"/>
      <use x="2967.755859" xlink:href="#DejaVuSans-65"/>
      <use x="3029.279297" xlink:href="#DejaVuSans-20"/>
      <use x="3061.066406" xlink:href="#DejaVuSans-31"/>
      <use x="3124.689453" xlink:href="#DejaVuSans-2e"/>
      <use x="3156.476562" xlink:href="#DejaVuSans-39"/>
      <use x="3220.099609" xlink:href="#DejaVuSans-2e"/>
      <use x="3251.886719" xlink:href="#DejaVuSans-32"/>
      <use x="3315.509766" xlink:href="#DejaVuSans-70"/>
      <use x="3378.986328" xlink:href="#DejaVuSans-72"/>
      <use x="3420.068359" xlink:href="#DejaVuSans-65"/>
     </g>
    </g>
    <g id="line2d_56">
     <path d="M 133.239062 164.747712 
L 153.239062 164.747712 
" style="fill:none;stroke:#a23c3c;stroke-linecap:square;stroke-width:1.5;"/>
    </g>
    <g id="line2d_57">
     <g>
      <use style="fill:#a23c3c;stroke:#a23c3c;" x="143.239062" xlink:href="#mbd0484a37f" y="164.747712"/>
     </g>
    </g>
    <g id="text_27">
     <!-- old SimpleGUITk 1.1.1 Python 2 -->
     <defs>
      <path d="M -0.296875 72.90625 
L 61.375 72.90625 
L 61.375 64.59375 
L 35.5 64.59375 
L 35.5 0 
L 25.59375 0 
L 25.59375 64.59375 
L -0.296875 64.59375 
z
" id="DejaVuSans-54"/>
      <path d="M 9.078125 75.984375 
L 18.109375 75.984375 
L 18.109375 31.109375 
L 44.921875 54.6875 
L 56.390625 54.6875 
L 27.390625 29.109375 
L 57.625 0 
L 45.90625 0 
L 18.109375 26.703125 
L 18.109375 0 
L 9.078125 0 
z
" id="DejaVuSans-6b"/>
     </defs>
     <g transform="translate(161.239062 168.247712)scale(0.1 -0.1)">
      <use xlink:href="#DejaVuSans-6f"/>
      <use x="61.181641" xlink:href="#DejaVuSans-6c"/>
      <use x="88.964844" xlink:href="#DejaVuSans-64"/>
      <use x="152.441406" xlink:href="#DejaVuSans-20"/>
      <use x="184.228516" xlink:href="#DejaVuSans-53"/>
      <use x="247.705078" xlink:href="#DejaVuSans-69"/>
      <use x="275.488281" xlink:href="#DejaVuSans-6d"/>
      <use x="372.900391" xlink:href="#DejaVuSans-70"/>
      <use x="436.376953" xlink:href="#DejaVuSans-6c"/>
      <use x="464.160156" xlink:href="#DejaVuSans-65"/>
      <use x="525.683594" xlink:href="#DejaVuSans-47"/>
      <use x="603.173828" xlink:href="#DejaVuSans-55"/>
      <use x="676.367188" xlink:href="#DejaVuSans-49"/>
      <use x="705.859375" xlink:href="#DejaVuSans-54"/>
      <use x="766.943359" xlink:href="#DejaVuSans-6b"/>
      <use x="824.853516" xlink:href="#DejaVuSans-20"/>
      <use x="856.640625" xlink:href="#DejaVuSans-31"/>
      <use x="920.263672" xlink:href="#DejaVuSans-2e"/>
      <use x="952.050781" xlink:href="#DejaVuSans-31"/>
      <use x="1015.673828" xlink:href="#DejaVuSans-2e"/>
      <use x="1047.460938" xlink:href="#DejaVuSans-31"/>
      <use x="1111.083984" xlink:href="#DejaVuSans-20"/>
      <use x="1142.871094" xlink:href="#DejaVuSans-50"/>
      <use x="1203.173828" xlink:href="#DejaVuSans-79"/>
      <use x="1262.353516" xlink:href="#DejaVuSans-74"/>
      <use x="1301.5625" xlink:href="#DejaVuSans-68"/>
      <use x="1364.941406" xlink:href="#DejaVuSans-6f"/>
      <use x="1426.123047" xlink:href="#DejaVuSans-6e"/>
      <use x="1489.501953" xlink:href="#DejaVuSans-20"/>
      <use x="1521.289062" xlink:href="#DejaVuSans-32"/>
     </g>
    </g>
    <g id="line2d_58">
     <path d="M 133.239062 179.425837 
L 153.239062 179.425837 
" style="fill:none;stroke:#3d853d;stroke-linecap:square;stroke-width:1.5;"/>
    </g>
    <g id="line2d_59">
     <g>
      <use style="fill:#3d853d;stroke:#3d853d;" x="143.239062" xlink:href="#m14f7cc7f69" y="179.425837"/>
     </g>
    </g>
    <g id="text_28">
     <!-- old SimpleGUITk 1.1.1 Python 3 -->
     <g transform="translate(161.239062 182.925837)scale(0.1 -0.1)">
      <use xlink:href="#DejaVuSans-6f"/>
      <use x="61.181641" xlink:href="#DejaVuSans-6c"/>
      <use x="88.964844" xlink:href="#DejaVuSans-64"/>
      <use x="152.441406" xlink:href="#DejaVuSans-20"/>
      <use x="184.228516" xlink:href="#DejaVuSans-53"/>
      <use x="247.705078" xlink:href="#DejaVuSans-69"/>
      <use x="275.488281" xlink:href="#DejaVuSans-6d"/>
      <use x="372.900391" xlink:href="#DejaVuSans-70"/>
      <use x="436.376953" xlink:href="#DejaVuSans-6c"/>
      <use x="464.160156" xlink:href="#DejaVuSans-65"/>
      <use x="525.683594" xlink:href="#DejaVuSans-47"/>
      <use x="603.173828" xlink:href="#DejaVuSans-55"/>
      <use x="676.367188" xlink:href="#DejaVuSans-49"/>
      <use x="705.859375" xlink:href="#DejaVuSans-54"/>
      <use x="766.943359" xlink:href="#DejaVuSans-6b"/>
      <use x="824.853516" xlink:href="#DejaVuSans-20"/>
      <use x="856.640625" xlink:href="#DejaVuSans-31"/>
      <use x="920.263672" xlink:href="#DejaVuSans-2e"/>
      <use x="952.050781" xlink:href="#DejaVuSans-31"/>
      <use x="1015.673828" xlink:href="#DejaVuSans-2e"/>
      <use x="1047.460938" xlink:href="#DejaVuSans-31"/>
      <use x="1111.083984" xlink:href="#DejaVuSans-20"/>
      <use x="1142.871094" xlink:href="#DejaVuSans-50"/>
      <use x="1203.173828" xlink:href="#DejaVuSans-79"/>
      <use x="1262.353516" xlink:href="#DejaVuSans-74"/>
      <use x="1301.5625" xlink:href="#DejaVuSans-68"/>
      <use x="1364.941406" xlink:href="#DejaVuSans-6f"/>
      <use x="1426.123047" xlink:href="#DejaVuSans-6e"/>
      <use x="1489.501953" xlink:href="#DejaVuSans-20"/>
      <use x="1521.289062" xlink:href="#DejaVuSans-33"/>
     </g>
    </g>
   </g>
  </g>
 </g>
 <defs>
  <clipPath id="p044c328f7c">
   <rect height="313.7904" width="446.4" x="72" y="48.9024"/>
  </clipPath>
 </defs>
</svg>
