<?xml version="1.0" encoding="UTF-8" standalone="no"?>
<!DOCTYPE svg PUBLIC "-//W3C//DTD SVG 1.1//EN"
 "http://www.w3.org/Graphics/SVG/1.1/DTD/svg11.dtd">
<!-- Generated by graphviz version 2.38.0 (20140413.2041)
 -->
<!-- Title: G Pages: 1 -->
<svg width="1260pt" height="900pt"
 viewBox="0.00 0.00 1259.76 899.62" xmlns="http://www.w3.org/2000/svg" xmlns:xlink="http://www.w3.org/1999/xlink">
<g id="graph0" class="graph" transform="scale(1 1) rotate(0) translate(4 895.619)">
<title>G</title><style>.edge>path:hover{stroke-width:8}</style>
<polygon fill="white" stroke="none" points="-4,4 -4,-895.619 1255.76,-895.619 1255.76,4 -4,4"/>
<!-- SimpleGUICS2Pygame_simplegui_lib -->
<g id="node1" class="node"><title>SimpleGUICS2Pygame_simplegui_lib</title><style>.edge>path:hover{stroke-width:8}</style>
<ellipse fill="#964040" stroke="black" cx="434.624" cy="-21.2132" rx="88.2768" ry="21.4286"/>
<text text-anchor="middle" x="434.624" y="-24.2132" font-family="Helvetica,sans-Serif" font-size="10.00" fill="#ffffff">SimpleGUICS2Pygame.</text>
<text text-anchor="middle" x="434.624" y="-13.2132" font-family="Helvetica,sans-Serif" font-size="10.00" fill="#ffffff">simplegui_lib</text>
</g>
<!-- SimpleGUICS2Pygame_simplegui_lib_draw -->
<g id="node2" class="node"><title>SimpleGUICS2Pygame_simplegui_lib_draw</title><style>.edge>path:hover{stroke-width:8}</style>
<ellipse fill="#b83d3d" stroke="black" cx="142.624" cy="-99.6396" rx="88.2768" ry="21.4286"/>
<text text-anchor="middle" x="142.624" y="-102.64" font-family="Helvetica,sans-Serif" font-size="10.00" fill="#ffffff">SimpleGUICS2Pygame.</text>
<text text-anchor="middle" x="142.624" y="-91.6396" font-family="Helvetica,sans-Serif" font-size="10.00" fill="#ffffff">simplegui_lib_draw</text>
</g>
<!-- SimpleGUICS2Pygame_simplegui_lib_draw&#45;&gt;SimpleGUICS2Pygame_simplegui_lib -->
<g id="edge1" class="edge"><title>SimpleGUICS2Pygame_simplegui_lib_draw&#45;&gt;SimpleGUICS2Pygame_simplegui_lib</title><style>.edge>path:hover{stroke-width:8}</style>
<path fill="none" stroke="black" d="M200.314,-83.5402C248.228,-70.9994 316.468,-53.1386 366.955,-39.9244"/>
<polygon fill="#b83d3d" stroke="black" points="368.017,-43.2646 376.805,-37.3465 366.244,-36.4927 368.017,-43.2646"/>
</g>
<!-- SimpleGUICS2Pygame_simplegui_lib_fps -->
<g id="node3" class="node"><title>SimpleGUICS2Pygame_simplegui_lib_fps</title><style>.edge>path:hover{stroke-width:8}</style>
<ellipse fill="#b83d3d" stroke="black" cx="337.624" cy="-99.6396" rx="88.2768" ry="21.4286"/>
<text text-anchor="middle" x="337.624" y="-102.64" font-family="Helvetica,sans-Serif" font-size="10.00" fill="#ffffff">SimpleGUICS2Pygame.</text>
<text text-anchor="middle" x="337.624" y="-91.6396" font-family="Helvetica,sans-Serif" font-size="10.00" fill="#ffffff">simplegui_lib_fps</text>
</g>
<!-- SimpleGUICS2Pygame_simplegui_lib_fps&#45;&gt;SimpleGUICS2Pygame_simplegui_lib -->
<g id="edge2" class="edge"><title>SimpleGUICS2Pygame_simplegui_lib_fps&#45;&gt;SimpleGUICS2Pygame_simplegui_lib</title><style>.edge>path:hover{stroke-width:8}</style>
<path fill="none" stroke="black" d="M362.352,-79.1563C374.323,-69.7239 388.862,-58.2688 401.752,-48.1129"/>
<polygon fill="#b83d3d" stroke="black" points="404.252,-50.599 409.941,-41.661 399.92,-45.1007 404.252,-50.599"/>
</g>
<!-- SimpleGUICS2Pygame_simplegui_lib_keys -->
<g id="node4" class="node"><title>SimpleGUICS2Pygame_simplegui_lib_keys</title><style>.edge>path:hover{stroke-width:8}</style>
<ellipse fill="#b83d3d" stroke="black" cx="532.624" cy="-99.6396" rx="88.2768" ry="21.4286"/>
<text text-anchor="middle" x="532.624" y="-102.64" font-family="Helvetica,sans-Serif" font-size="10.00" fill="#ffffff">SimpleGUICS2Pygame.</text>
<text text-anchor="middle" x="532.624" y="-91.6396" font-family="Helvetica,sans-Serif" font-size="10.00" fill="#ffffff">simplegui_lib_keys</text>
</g>
<!-- SimpleGUICS2Pygame_simplegui_lib_keys&#45;&gt;SimpleGUICS2Pygame_simplegui_lib -->
<g id="edge3" class="edge"><title>SimpleGUICS2Pygame_simplegui_lib_keys&#45;&gt;SimpleGUICS2Pygame_simplegui_lib</title><style>.edge>path:hover{stroke-width:8}</style>
<path fill="none" stroke="black" d="M507.641,-79.1563C495.431,-69.634 480.577,-58.0504 467.463,-47.8231"/>
<polygon fill="#b83d3d" stroke="black" points="469.599,-45.0507 459.561,-41.661 465.294,-50.5706 469.599,-45.0507"/>
</g>
<!-- SimpleGUICS2Pygame_simplegui_lib_loader -->
<g id="node5" class="node"><title>SimpleGUICS2Pygame_simplegui_lib_loader</title><style>.edge>path:hover{stroke-width:8}</style>
<ellipse fill="#b83d3d" stroke="black" cx="727.624" cy="-99.6396" rx="88.2768" ry="21.4286"/>
<text text-anchor="middle" x="727.624" y="-102.64" font-family="Helvetica,sans-Serif" font-size="10.00" fill="#ffffff">SimpleGUICS2Pygame.</text>
<text text-anchor="middle" x="727.624" y="-91.6396" font-family="Helvetica,sans-Serif" font-size="10.00" fill="#ffffff">simplegui_lib_loader</text>
</g>
<!-- SimpleGUICS2Pygame_simplegui_lib_loader&#45;&gt;SimpleGUICS2Pygame_simplegui_lib -->
<g id="edge4" class="edge"><title>SimpleGUICS2Pygame_simplegui_lib_loader&#45;&gt;SimpleGUICS2Pygame_simplegui_lib</title><style>.edge>path:hover{stroke-width:8}</style>
<path fill="none" stroke="black" d="M669.736,-83.5402C621.58,-70.979 552.962,-53.0805 502.277,-39.86"/>
<polygon fill="#b83d3d" stroke="black" points="502.951,-36.4186 492.391,-37.2812 501.184,-43.192 502.951,-36.4186"/>
</g>
<!-- SimpleGUICS2Pygame_simpleguics2pygame -->
<g id="node6" class="node"><title>SimpleGUICS2Pygame_simpleguics2pygame</title><style>.edge>path:hover{stroke-width:8}</style>
<ellipse fill="#950303" stroke="black" cx="434.624" cy="-178.066" rx="88.2768" ry="21.4286"/>
<text text-anchor="middle" x="434.624" y="-181.066" font-family="Helvetica,sans-Serif" font-size="10.00" fill="#ffffff">SimpleGUICS2Pygame.</text>
<text text-anchor="middle" x="434.624" y="-170.066" font-family="Helvetica,sans-Serif" font-size="10.00" fill="#ffffff">simpleguics2pygame</text>
</g>
<!-- SimpleGUICS2Pygame_simpleguics2pygame&#45;&gt;SimpleGUICS2Pygame_simplegui_lib_draw -->
<g id="edge5" class="edge"><title>SimpleGUICS2Pygame_simpleguics2pygame&#45;&gt;SimpleGUICS2Pygame_simplegui_lib_draw</title><style>.edge>path:hover{stroke-width:8}</style>
<path fill="none" stroke="black" d="M376.934,-161.967C329.02,-149.426 260.78,-131.565 210.293,-118.351"/>
<polygon fill="#950303" stroke="black" points="211.003,-114.919 200.443,-115.773 209.231,-121.691 211.003,-114.919"/>
</g>
<!-- SimpleGUICS2Pygame_simpleguics2pygame&#45;&gt;SimpleGUICS2Pygame_simplegui_lib_fps -->
<g id="edge6" class="edge"><title>SimpleGUICS2Pygame_simpleguics2pygame&#45;&gt;SimpleGUICS2Pygame_simplegui_lib_fps</title><style>.edge>path:hover{stroke-width:8}</style>
<path fill="none" stroke="black" d="M409.896,-157.583C397.924,-148.15 383.385,-136.695 370.496,-126.539"/>
<polygon fill="#950303" stroke="black" points="372.328,-123.527 362.307,-120.087 367.996,-129.025 372.328,-123.527"/>
</g>
<!-- SimpleGUICS2Pygame_simpleguics2pygame&#45;&gt;SimpleGUICS2Pygame_simplegui_lib_keys -->
<g id="edge7" class="edge"><title>SimpleGUICS2Pygame_simpleguics2pygame&#45;&gt;SimpleGUICS2Pygame_simplegui_lib_keys</title><style>.edge>path:hover{stroke-width:8}</style>
<path fill="none" stroke="black" d="M459.607,-157.583C471.817,-148.06 486.671,-136.477 499.785,-126.25"/>
<polygon fill="#950303" stroke="black" points="501.953,-128.997 507.686,-120.087 497.648,-123.477 501.953,-128.997"/>
</g>
<!-- SimpleGUICS2Pygame_simpleguics2pygame&#45;&gt;SimpleGUICS2Pygame_simplegui_lib_loader -->
<g id="edge8" class="edge"><title>SimpleGUICS2Pygame_simpleguics2pygame&#45;&gt;SimpleGUICS2Pygame_simplegui_lib_loader</title><style>.edge>path:hover{stroke-width:8}</style>
<path fill="none" stroke="black" d="M492.511,-161.967C540.668,-149.405 609.286,-131.507 659.97,-118.286"/>
<polygon fill="#950303" stroke="black" points="661.064,-121.618 669.857,-115.708 659.297,-114.845 661.064,-121.618"/>
</g>
<!-- SimpleGUICS2Pygame_simpleguics2pygame__arguments -->
<g id="node7" class="node"><title>SimpleGUICS2Pygame_simpleguics2pygame__arguments</title><style>.edge>path:hover{stroke-width:8}</style>
<ellipse fill="#f90606" stroke="black" cx="242.624" cy="-640.202" rx="88.2768" ry="28.9828"/>
<text text-anchor="middle" x="242.624" y="-648.702" font-family="Helvetica,sans-Serif" font-size="10.00" fill="#ffffff">SimpleGUICS2Pygame.</text>
<text text-anchor="middle" x="242.624" y="-637.702" font-family="Helvetica,sans-Serif" font-size="10.00" fill="#ffffff">simpleguics2pygame.</text>
<text text-anchor="middle" x="242.624" y="-626.702" font-family="Helvetica,sans-Serif" font-size="10.00" fill="#ffffff">_arguments</text>
</g>
<!-- SimpleGUICS2Pygame_simpleguics2pygame__arguments&#45;&gt;SimpleGUICS2Pygame_simpleguics2pygame -->
<g id="edge9" class="edge"><title>SimpleGUICS2Pygame_simpleguics2pygame__arguments&#45;&gt;SimpleGUICS2Pygame_simpleguics2pygame</title><style>.edge>path:hover{stroke-width:8}</style>
<path fill="none" stroke="black" d="M189.202,-616.976C137.667,-592.285 62.7434,-547.026 29.6238,-481.227 4.95629,-432.221 17.0771,-404.141 48.6238,-359.253"/>
<path fill="none" stroke="black" d="M48.6238,-357.253C55.5737,-343.92 55.3173,-337.901 67.6238,-329.262 161.85,-263.119 235.317,-344.728 318.624,-265.271"/>
<path fill="none" stroke="black" d="M318.624,-263.271C329.504,-252.893 326.621,-245.526 337.624,-235.279 351.685,-222.184 369.326,-210.83 385.694,-201.82"/>
<polygon fill="#f90606" stroke="black" points="387.447,-204.852 394.626,-197.06 384.155,-198.675 387.447,-204.852"/>
</g>
<!-- SimpleGUICS2Pygame_simpleguics2pygame__fonts -->
<g id="node9" class="node"><title>SimpleGUICS2Pygame_simpleguics2pygame__fonts</title><style>.edge>path:hover{stroke-width:8}</style>
<ellipse fill="#b62020" stroke="black" cx="628.624" cy="-452.236" rx="88.2768" ry="28.9828"/>
<text text-anchor="middle" x="628.624" y="-460.736" font-family="Helvetica,sans-Serif" font-size="10.00" fill="#ffffff">SimpleGUICS2Pygame.</text>
<text text-anchor="middle" x="628.624" y="-449.736" font-family="Helvetica,sans-Serif" font-size="10.00" fill="#ffffff">simpleguics2pygame.</text>
<text text-anchor="middle" x="628.624" y="-438.736" font-family="Helvetica,sans-Serif" font-size="10.00" fill="#ffffff">_fonts</text>
</g>
<!-- SimpleGUICS2Pygame_simpleguics2pygame__arguments&#45;&gt;SimpleGUICS2Pygame_simpleguics2pygame__fonts -->
<g id="edge10" class="edge"><title>SimpleGUICS2Pygame_simpleguics2pygame__arguments&#45;&gt;SimpleGUICS2Pygame_simpleguics2pygame__fonts</title><style>.edge>path:hover{stroke-width:8}</style>
<path fill="none" stroke="black" d="M326.615,-630.989C409.68,-621.416 529.589,-603.234 566.624,-575.21 593.87,-554.593 610.072,-518.638 619.039,-491.09"/>
<polygon fill="#f90606" stroke="black" points="622.435,-491.951 622.022,-481.365 615.743,-489.898 622.435,-491.951"/>
</g>
<!-- SimpleGUICS2Pygame_simpleguics2pygame__media -->
<g id="node11" class="node"><title>SimpleGUICS2Pygame_simpleguics2pygame__media</title><style>.edge>path:hover{stroke-width:8}</style>
<ellipse fill="#ae1e1e" stroke="black" cx="358.624" cy="-546.219" rx="88.2768" ry="28.9828"/>
<text text-anchor="middle" x="358.624" y="-554.719" font-family="Helvetica,sans-Serif" font-size="10.00" fill="#ffffff">SimpleGUICS2Pygame.</text>
<text text-anchor="middle" x="358.624" y="-543.719" font-family="Helvetica,sans-Serif" font-size="10.00" fill="#ffffff">simpleguics2pygame.</text>
<text text-anchor="middle" x="358.624" y="-532.719" font-family="Helvetica,sans-Serif" font-size="10.00" fill="#ffffff">_media</text>
</g>
<!-- SimpleGUICS2Pygame_simpleguics2pygame__arguments&#45;&gt;SimpleGUICS2Pygame_simpleguics2pygame__media -->
<g id="edge11" class="edge"><title>SimpleGUICS2Pygame_simpleguics2pygame__arguments&#45;&gt;SimpleGUICS2Pygame_simpleguics2pygame__media</title><style>.edge>path:hover{stroke-width:8}</style>
<path fill="none" stroke="black" d="M275.554,-613.089C288.657,-602.7 303.873,-590.634 317.674,-579.69"/>
<polygon fill="#f90606" stroke="black" points="319.95,-582.352 325.611,-573.397 315.601,-576.868 319.95,-582.352"/>
</g>
<!-- SimpleGUICS2Pygame_simpleguics2pygame_frame -->
<g id="node15" class="node"><title>SimpleGUICS2Pygame_simpleguics2pygame_frame</title><style>.edge>path:hover{stroke-width:8}</style>
<ellipse fill="#732626" stroke="black" cx="434.624" cy="-264.271" rx="88.2768" ry="28.9828"/>
<text text-anchor="middle" x="434.624" y="-272.771" font-family="Helvetica,sans-Serif" font-size="10.00" fill="#ffffff">SimpleGUICS2Pygame.</text>
<text text-anchor="middle" x="434.624" y="-261.771" font-family="Helvetica,sans-Serif" font-size="10.00" fill="#ffffff">simpleguics2pygame.</text>
<text text-anchor="middle" x="434.624" y="-250.771" font-family="Helvetica,sans-Serif" font-size="10.00" fill="#ffffff">frame</text>
</g>
<!-- SimpleGUICS2Pygame_simpleguics2pygame__arguments&#45;&gt;SimpleGUICS2Pygame_simpleguics2pygame_frame -->
<g id="edge12" class="edge"><title>SimpleGUICS2Pygame_simpleguics2pygame__arguments&#45;&gt;SimpleGUICS2Pygame_simpleguics2pygame_frame</title><style>.edge>path:hover{stroke-width:8}</style>
<path fill="none" stroke="black" d="M242.624,-451.236C240.309,-429.241 268.167,-377.528 280.624,-359.253"/>
<path fill="none" stroke="black" d="M280.624,-357.253C289.854,-343.713 291.675,-339.306 304.624,-329.262 324.103,-314.153 347.72,-301.234 369.451,-291.042"/>
<polygon fill="#f90606" stroke="black" points="370.994,-294.186 378.632,-286.843 368.082,-287.82 370.994,-294.186"/>
</g>
<!-- SimpleGUICS2Pygame_simpleguics2pygame_sound -->
<g id="node18" class="node"><title>SimpleGUICS2Pygame_simpleguics2pygame_sound</title><style>.edge>path:hover{stroke-width:8}</style>
<ellipse fill="#a83838" stroke="black" cx="126.624" cy="-452.236" rx="88.2768" ry="28.9828"/>
<text text-anchor="middle" x="126.624" y="-460.736" font-family="Helvetica,sans-Serif" font-size="10.00" fill="#ffffff">SimpleGUICS2Pygame.</text>
<text text-anchor="middle" x="126.624" y="-449.736" font-family="Helvetica,sans-Serif" font-size="10.00" fill="#ffffff">simpleguics2pygame.</text>
<text text-anchor="middle" x="126.624" y="-438.736" font-family="Helvetica,sans-Serif" font-size="10.00" fill="#ffffff">sound</text>
</g>
<!-- SimpleGUICS2Pygame_simpleguics2pygame__arguments&#45;&gt;SimpleGUICS2Pygame_simpleguics2pygame_sound -->
<g id="edge13" class="edge"><title>SimpleGUICS2Pygame_simpleguics2pygame__arguments&#45;&gt;SimpleGUICS2Pygame_simpleguics2pygame_sound</title><style>.edge>path:hover{stroke-width:8}</style>
<path fill="none" stroke="black" d="M246.568,-610.879C248.186,-592.404 248.508,-567.959 242.624,-547.219"/>
<path fill="none" stroke="black" d="M242.624,-545.219C234.689,-517.251 211.12,-496.041 187.283,-481.077"/>
<polygon fill="#f90606" stroke="black" points="188.897,-477.965 178.516,-475.846 185.31,-483.976 188.897,-477.965"/>
</g>
<!-- SimpleGUICS2Pygame_simpleguics2pygame_timer -->
<g id="node19" class="node"><title>SimpleGUICS2Pygame_simpleguics2pygame_timer</title><style>.edge>path:hover{stroke-width:8}</style>
<ellipse fill="#bc2f2f" stroke="black" cx="164.624" cy="-358.253" rx="88.2768" ry="28.9828"/>
<text text-anchor="middle" x="164.624" y="-366.753" font-family="Helvetica,sans-Serif" font-size="10.00" fill="#ffffff">SimpleGUICS2Pygame.</text>
<text text-anchor="middle" x="164.624" y="-355.753" font-family="Helvetica,sans-Serif" font-size="10.00" fill="#ffffff">simpleguics2pygame.</text>
<text text-anchor="middle" x="164.624" y="-344.753" font-family="Helvetica,sans-Serif" font-size="10.00" fill="#ffffff">timer</text>
</g>
<!-- SimpleGUICS2Pygame_simpleguics2pygame__arguments&#45;&gt;SimpleGUICS2Pygame_simpleguics2pygame_timer -->
<g id="edge14" class="edge"><title>SimpleGUICS2Pygame_simpleguics2pygame__arguments&#45;&gt;SimpleGUICS2Pygame_simpleguics2pygame_timer</title><style>.edge>path:hover{stroke-width:8}</style>
<path fill="none" stroke="black" d="M242.624,-545.219C231.465,-505.89 246.902,-493.893 242.624,-453.236"/>
<path fill="none" stroke="black" d="M242.624,-451.236C240.173,-427.942 224.969,-407.442 208.627,-391.742"/>
<polygon fill="#f90606" stroke="black" points="210.831,-389.016 201.08,-384.873 206.12,-394.193 210.831,-389.016"/>
</g>
<!-- SimpleGUICS2Pygame_simpleguics2pygame__colors -->
<g id="node8" class="node"><title>SimpleGUICS2Pygame_simpleguics2pygame__colors</title><style>.edge>path:hover{stroke-width:8}</style>
<ellipse fill="#bf2121" stroke="black" cx="860.624" cy="-452.236" rx="88.2768" ry="28.9828"/>
<text text-anchor="middle" x="860.624" y="-460.736" font-family="Helvetica,sans-Serif" font-size="10.00" fill="#ffffff">SimpleGUICS2Pygame.</text>
<text text-anchor="middle" x="860.624" y="-449.736" font-family="Helvetica,sans-Serif" font-size="10.00" fill="#ffffff">simpleguics2pygame.</text>
<text text-anchor="middle" x="860.624" y="-438.736" font-family="Helvetica,sans-Serif" font-size="10.00" fill="#ffffff">_colors</text>
</g>
<!-- SimpleGUICS2Pygame_simpleguics2pygame_canvas -->
<g id="node13" class="node"><title>SimpleGUICS2Pygame_simpleguics2pygame_canvas</title><style>.edge>path:hover{stroke-width:8}</style>
<ellipse fill="#9b2626" stroke="black" cx="434.624" cy="-358.253" rx="88.2768" ry="28.9828"/>
<text text-anchor="middle" x="434.624" y="-366.753" font-family="Helvetica,sans-Serif" font-size="10.00" fill="#ffffff">SimpleGUICS2Pygame.</text>
<text text-anchor="middle" x="434.624" y="-355.753" font-family="Helvetica,sans-Serif" font-size="10.00" fill="#ffffff">simpleguics2pygame.</text>
<text text-anchor="middle" x="434.624" y="-344.753" font-family="Helvetica,sans-Serif" font-size="10.00" fill="#ffffff">canvas</text>
</g>
<!-- SimpleGUICS2Pygame_simpleguics2pygame__colors&#45;&gt;SimpleGUICS2Pygame_simpleguics2pygame_canvas -->
<g id="edge15" class="edge"><title>SimpleGUICS2Pygame_simpleguics2pygame__colors&#45;&gt;SimpleGUICS2Pygame_simpleguics2pygame_canvas</title><style>.edge>path:hover{stroke-width:8}</style>
<path fill="none" stroke="black" d="M787.876,-435.528C712.672,-419.29 595.477,-393.985 516.931,-377.025"/>
<polygon fill="#bf2121" stroke="black" points="517.585,-373.586 507.072,-374.896 516.108,-380.428 517.585,-373.586"/>
</g>
<!-- SimpleGUICS2Pygame_simpleguics2pygame_control -->
<g id="node14" class="node"><title>SimpleGUICS2Pygame_simpleguics2pygame_control</title><style>.edge>path:hover{stroke-width:8}</style>
<ellipse fill="#a32828" stroke="black" cx="860.624" cy="-358.253" rx="88.2768" ry="28.9828"/>
<text text-anchor="middle" x="860.624" y="-366.753" font-family="Helvetica,sans-Serif" font-size="10.00" fill="#ffffff">SimpleGUICS2Pygame.</text>
<text text-anchor="middle" x="860.624" y="-355.753" font-family="Helvetica,sans-Serif" font-size="10.00" fill="#ffffff">simpleguics2pygame.</text>
<text text-anchor="middle" x="860.624" y="-344.753" font-family="Helvetica,sans-Serif" font-size="10.00" fill="#ffffff">control</text>
</g>
<!-- SimpleGUICS2Pygame_simpleguics2pygame__colors&#45;&gt;SimpleGUICS2Pygame_simpleguics2pygame_control -->
<g id="edge16" class="edge"><title>SimpleGUICS2Pygame_simpleguics2pygame__colors&#45;&gt;SimpleGUICS2Pygame_simpleguics2pygame_control</title><style>.edge>path:hover{stroke-width:8}</style>
<path fill="none" stroke="black" d="M860.624,-423.138C860.624,-415.1 860.624,-406.198 860.624,-397.656"/>
<polygon fill="#bf2121" stroke="black" points="864.124,-397.496 860.624,-387.496 857.124,-397.496 864.124,-397.496"/>
</g>
<!-- SimpleGUICS2Pygame_simpleguics2pygame__colors&#45;&gt;SimpleGUICS2Pygame_simpleguics2pygame_frame -->
<g id="edge17" class="edge"><title>SimpleGUICS2Pygame_simpleguics2pygame__colors&#45;&gt;SimpleGUICS2Pygame_simpleguics2pygame_frame</title><style>.edge>path:hover{stroke-width:8}</style>
<path fill="none" stroke="black" d="M815.91,-426.847C798.455,-416.075 778.988,-402.408 763.624,-387.245 752.922,-376.683 753.582,-371.33 744.624,-359.253"/>
</g>
<!-- SimpleGUICS2Pygame_simpleguics2pygame__fonts&#45;&gt;SimpleGUICS2Pygame_simpleguics2pygame_canvas -->
<g id="edge18" class="edge"><title>SimpleGUICS2Pygame_simpleguics2pygame__fonts&#45;&gt;SimpleGUICS2Pygame_simpleguics2pygame_canvas</title><style>.edge>path:hover{stroke-width:8}</style>
<path fill="none" stroke="black" d="M579.669,-428.025C553.247,-415.497 520.462,-399.953 492.75,-386.813"/>
<polygon fill="#b62020" stroke="black" points="494.098,-383.579 483.563,-382.457 491.099,-389.904 494.098,-383.579"/>
</g>
<!-- SimpleGUICS2Pygame_simpleguics2pygame__fonts&#45;&gt;SimpleGUICS2Pygame_simpleguics2pygame_control -->
<g id="edge19" class="edge"><title>SimpleGUICS2Pygame_simpleguics2pygame__fonts&#45;&gt;SimpleGUICS2Pygame_simpleguics2pygame_control</title><style>.edge>path:hover{stroke-width:8}</style>
<path fill="none" stroke="black" d="M683.605,-429.437C717.287,-416.083 760.564,-398.925 795.896,-384.917"/>
<polygon fill="#b62020" stroke="black" points="797.63,-387.994 805.636,-381.055 795.05,-381.487 797.63,-387.994"/>
</g>
<!-- SimpleGUICS2Pygame_simpleguics2pygame__fonts&#45;&gt;SimpleGUICS2Pygame_simpleguics2pygame_frame -->
<g id="edge20" class="edge"><title>SimpleGUICS2Pygame_simpleguics2pygame__fonts&#45;&gt;SimpleGUICS2Pygame_simpleguics2pygame_frame</title><style>.edge>path:hover{stroke-width:8}</style>
<path fill="none" stroke="black" d="M688.467,-430.892C727.214,-414.367 766.674,-388.979 744.624,-359.253"/>
<path fill="none" stroke="black" d="M744.624,-357.253C718.056,-321.437 605.069,-294.649 523.159,-279.478"/>
<polygon fill="#b62020" stroke="black" points="523.547,-275.991 513.081,-277.641 522.291,-282.878 523.547,-275.991"/>
</g>
<!-- SimpleGUICS2Pygame_simpleguics2pygame__joypads -->
<g id="node10" class="node"><title>SimpleGUICS2Pygame_simpleguics2pygame__joypads</title><style>.edge>path:hover{stroke-width:8}</style>
<ellipse fill="#a13535" stroke="black" cx="1050.62" cy="-546.219" rx="88.2768" ry="28.9828"/>
<text text-anchor="middle" x="1050.62" y="-554.719" font-family="Helvetica,sans-Serif" font-size="10.00" fill="#ffffff">SimpleGUICS2Pygame.</text>
<text text-anchor="middle" x="1050.62" y="-543.719" font-family="Helvetica,sans-Serif" font-size="10.00" fill="#ffffff">simpleguics2pygame.</text>
<text text-anchor="middle" x="1050.62" y="-532.719" font-family="Helvetica,sans-Serif" font-size="10.00" fill="#ffffff">_joypads</text>
</g>
<!-- SimpleGUICS2Pygame_simpleguics2pygame__joypads&#45;&gt;SimpleGUICS2Pygame_simpleguics2pygame_frame -->
<g id="edge21" class="edge"><title>SimpleGUICS2Pygame_simpleguics2pygame__joypads&#45;&gt;SimpleGUICS2Pygame_simpleguics2pygame_frame</title><style>.edge>path:hover{stroke-width:8}</style>
<path fill="none" stroke="black" d="M1049.47,-516.908C1046.87,-469.79 1038.78,-378.536 1014.62,-359.253"/>
<path fill="none" stroke="black" d="M1014.62,-357.253C991.507,-341.062 984.676,-337.309 957.624,-329.262 813.864,-286.501 639.716,-272.265 533.075,-267.555"/>
<polygon fill="#a13535" stroke="black" points="533.108,-264.054 522.969,-267.129 532.813,-271.048 533.108,-264.054"/>
</g>
<!-- SimpleGUICS2Pygame_simpleguics2pygame__media&#45;&gt;SimpleGUICS2Pygame_simpleguics2pygame_frame -->
<g id="edge22" class="edge"><title>SimpleGUICS2Pygame_simpleguics2pygame__media&#45;&gt;SimpleGUICS2Pygame_simpleguics2pygame_frame</title><style>.edge>path:hover{stroke-width:8}</style>
<path fill="none" stroke="black" d="M327.841,-518.989C317.262,-508.341 306.389,-495.245 299.624,-481.227 275.775,-431.817 249.141,-404.186 280.624,-359.253"/>
</g>
<!-- SimpleGUICS2Pygame_simpleguics2pygame_image -->
<g id="node16" class="node"><title>SimpleGUICS2Pygame_simpleguics2pygame_image</title><style>.edge>path:hover{stroke-width:8}</style>
<ellipse fill="#b62020" stroke="black" cx="396.624" cy="-452.236" rx="88.2768" ry="28.9828"/>
<text text-anchor="middle" x="396.624" y="-460.736" font-family="Helvetica,sans-Serif" font-size="10.00" fill="#ffffff">SimpleGUICS2Pygame.</text>
<text text-anchor="middle" x="396.624" y="-449.736" font-family="Helvetica,sans-Serif" font-size="10.00" fill="#ffffff">simpleguics2pygame.</text>
<text text-anchor="middle" x="396.624" y="-438.736" font-family="Helvetica,sans-Serif" font-size="10.00" fill="#ffffff">image</text>
</g>
<!-- SimpleGUICS2Pygame_simpleguics2pygame__media&#45;&gt;SimpleGUICS2Pygame_simpleguics2pygame_image -->
<g id="edge23" class="edge"><title>SimpleGUICS2Pygame_simpleguics2pygame__media&#45;&gt;SimpleGUICS2Pygame_simpleguics2pygame_image</title><style>.edge>path:hover{stroke-width:8}</style>
<path fill="none" stroke="black" d="M370.232,-517.121C373.694,-508.741 377.544,-499.421 381.209,-490.548"/>
<polygon fill="#ae1e1e" stroke="black" points="384.504,-491.74 385.087,-481.162 378.034,-489.068 384.504,-491.74"/>
</g>
<!-- SimpleGUICS2Pygame_simpleguics2pygame__media&#45;&gt;SimpleGUICS2Pygame_simpleguics2pygame_sound -->
<g id="edge24" class="edge"><title>SimpleGUICS2Pygame_simpleguics2pygame__media&#45;&gt;SimpleGUICS2Pygame_simpleguics2pygame_sound</title><style>.edge>path:hover{stroke-width:8}</style>
<path fill="none" stroke="black" d="M303.643,-523.42C269.961,-510.066 226.684,-492.908 191.352,-478.899"/>
<polygon fill="#ae1e1e" stroke="black" points="192.197,-475.47 181.611,-475.037 189.617,-481.977 192.197,-475.47"/>
</g>
<!-- SimpleGUICS2Pygame_simpleguics2pygame__pygame_init -->
<g id="node12" class="node"><title>SimpleGUICS2Pygame_simpleguics2pygame__pygame_init</title><style>.edge>path:hover{stroke-width:8}</style>
<ellipse fill="#d10505" stroke="black" cx="858.624" cy="-640.202" rx="88.2768" ry="28.9828"/>
<text text-anchor="middle" x="858.624" y="-648.702" font-family="Helvetica,sans-Serif" font-size="10.00" fill="#ffffff">SimpleGUICS2Pygame.</text>
<text text-anchor="middle" x="858.624" y="-637.702" font-family="Helvetica,sans-Serif" font-size="10.00" fill="#ffffff">simpleguics2pygame.</text>
<text text-anchor="middle" x="858.624" y="-626.702" font-family="Helvetica,sans-Serif" font-size="10.00" fill="#ffffff">_pygame_init</text>
</g>
<!-- SimpleGUICS2Pygame_simpleguics2pygame__pygame_init&#45;&gt;SimpleGUICS2Pygame_simpleguics2pygame -->
<g id="edge25" class="edge"><title>SimpleGUICS2Pygame_simpleguics2pygame__pygame_init&#45;&gt;SimpleGUICS2Pygame_simpleguics2pygame</title><style>.edge>path:hover{stroke-width:8}</style>
<path fill="none" stroke="black" d="M896.624,-545.219C901.348,-517.394 927.066,-526.779 953.624,-517.227 1018.54,-493.878 1042.3,-510.817 1104.62,-481.227 1208.39,-431.962 1269.78,-377.783 1246.62,-265.271"/>
</g>
<!-- SimpleGUICS2Pygame_simpleguics2pygame__pygame_init&#45;&gt;SimpleGUICS2Pygame_simpleguics2pygame__colors -->
<g id="edge26" class="edge"><title>SimpleGUICS2Pygame_simpleguics2pygame__pygame_init&#45;&gt;SimpleGUICS2Pygame_simpleguics2pygame__colors</title><style>.edge>path:hover{stroke-width:8}</style>
<path fill="none" stroke="black" d="M896.624,-545.219C900.528,-526.227 893.962,-506.069 885.412,-489.48"/>
<polygon fill="#d10505" stroke="black" points="888.428,-487.702 880.512,-480.66 882.309,-491.101 888.428,-487.702"/>
</g>
<!-- SimpleGUICS2Pygame_simpleguics2pygame__pygame_init&#45;&gt;SimpleGUICS2Pygame_simpleguics2pygame__fonts -->
<g id="edge27" class="edge"><title>SimpleGUICS2Pygame_simpleguics2pygame__pygame_init&#45;&gt;SimpleGUICS2Pygame_simpleguics2pygame__fonts</title><style>.edge>path:hover{stroke-width:8}</style>
<path fill="none" stroke="black" d="M873.306,-611.493C881.92,-593.676 891.996,-569.728 896.624,-547.219"/>
<path fill="none" stroke="black" d="M896.624,-545.219C898.696,-535.14 783.542,-498.933 703.534,-475.064"/>
<polygon fill="#d10505" stroke="black" points="704.056,-471.568 693.473,-472.073 702.061,-478.278 704.056,-471.568"/>
</g>
<!-- SimpleGUICS2Pygame_simpleguics2pygame__pygame_init&#45;&gt;SimpleGUICS2Pygame_simpleguics2pygame__joypads -->
<g id="edge28" class="edge"><title>SimpleGUICS2Pygame_simpleguics2pygame__pygame_init&#45;&gt;SimpleGUICS2Pygame_simpleguics2pygame__joypads</title><style>.edge>path:hover{stroke-width:8}</style>
<path fill="none" stroke="black" d="M907.57,-615.752C933.623,-603.271 965.818,-587.847 993.065,-574.794"/>
<polygon fill="#d10505" stroke="black" points="994.593,-577.943 1002.1,-570.466 991.569,-571.63 994.593,-577.943"/>
</g>
<!-- SimpleGUICS2Pygame_simpleguics2pygame__pygame_init&#45;&gt;SimpleGUICS2Pygame_simpleguics2pygame__media -->
<g id="edge29" class="edge"><title>SimpleGUICS2Pygame_simpleguics2pygame__pygame_init&#45;&gt;SimpleGUICS2Pygame_simpleguics2pygame__media</title><style>.edge>path:hover{stroke-width:8}</style>
<path fill="none" stroke="black" d="M782.685,-625.231C691.655,-608.485 539.504,-580.495 444.341,-562.988"/>
<polygon fill="#d10505" stroke="black" points="444.925,-559.537 434.457,-561.17 443.659,-566.421 444.925,-559.537"/>
</g>
<!-- SimpleGUICS2Pygame_simpleguics2pygame__pygame_init&#45;&gt;SimpleGUICS2Pygame_simpleguics2pygame_canvas -->
<g id="edge30" class="edge"><title>SimpleGUICS2Pygame_simpleguics2pygame__pygame_init&#45;&gt;SimpleGUICS2Pygame_simpleguics2pygame_canvas</title><style>.edge>path:hover{stroke-width:8}</style>
<path fill="none" stroke="black" d="M794.96,-619.954C724.426,-596.194 610.284,-550.266 531.624,-481.227 508.467,-460.903 512.575,-447.538 493.624,-423.245 485.854,-413.285 476.868,-403.006 468.288,-393.679"/>
<polygon fill="#d10505" stroke="black" points="470.593,-391.02 461.211,-386.096 465.475,-395.795 470.593,-391.02"/>
</g>
<!-- SimpleGUICS2Pygame_simpleguics2pygame__pygame_init&#45;&gt;SimpleGUICS2Pygame_simpleguics2pygame_control -->
<g id="edge31" class="edge"><title>SimpleGUICS2Pygame_simpleguics2pygame__pygame_init&#45;&gt;SimpleGUICS2Pygame_simpleguics2pygame_control</title><style>.edge>path:hover{stroke-width:8}</style>
<path fill="none" stroke="black" d="M896.624,-545.219C904.536,-506.732 943.023,-517.706 957.624,-481.227 967.2,-457.303 969.839,-445.936 957.624,-423.245 949.626,-408.386 936.499,-396.406 922.45,-387.01"/>
<polygon fill="#d10505" stroke="black" points="923.955,-383.823 913.62,-381.49 920.244,-389.759 923.955,-383.823"/>
</g>
<!-- SimpleGUICS2Pygame_simpleguics2pygame__pygame_init&#45;&gt;SimpleGUICS2Pygame_simpleguics2pygame_frame -->
<g id="edge32" class="edge"><title>SimpleGUICS2Pygame_simpleguics2pygame__pygame_init&#45;&gt;SimpleGUICS2Pygame_simpleguics2pygame_frame</title><style>.edge>path:hover{stroke-width:8}</style>
<path fill="none" stroke="black" d="M896.624,-545.219C906.861,-480.425 802.716,-533.904 763.624,-481.227 730.928,-437.17 777.31,-403.318 744.624,-359.253"/>
</g>
<!-- SimpleGUICS2Pygame_simpleguics2pygame__pygame_init&#45;&gt;SimpleGUICS2Pygame_simpleguics2pygame_image -->
<g id="edge33" class="edge"><title>SimpleGUICS2Pygame_simpleguics2pygame__pygame_init&#45;&gt;SimpleGUICS2Pygame_simpleguics2pygame_image</title><style>.edge>path:hover{stroke-width:8}</style>
<path fill="none" stroke="black" d="M786.132,-623.555C737.084,-612.153 671.181,-595.234 614.624,-575.21 586.124,-565.12 579.42,-561.221 552.624,-547.219"/>
</g>
<!-- SimpleGUICS2Pygame_simpleguics2pygame_keys -->
<g id="node17" class="node"><title>SimpleGUICS2Pygame_simpleguics2pygame_keys</title><style>.edge>path:hover{stroke-width:8}</style>
<ellipse fill="#ac2b2b" stroke="black" cx="1130.62" cy="-358.253" rx="88.2768" ry="28.9828"/>
<text text-anchor="middle" x="1130.62" y="-366.753" font-family="Helvetica,sans-Serif" font-size="10.00" fill="#ffffff">SimpleGUICS2Pygame.</text>
<text text-anchor="middle" x="1130.62" y="-355.753" font-family="Helvetica,sans-Serif" font-size="10.00" fill="#ffffff">simpleguics2pygame.</text>
<text text-anchor="middle" x="1130.62" y="-344.753" font-family="Helvetica,sans-Serif" font-size="10.00" fill="#ffffff">keys</text>
</g>
<!-- SimpleGUICS2Pygame_simpleguics2pygame__pygame_init&#45;&gt;SimpleGUICS2Pygame_simpleguics2pygame_keys -->
<g id="edge34" class="edge"><title>SimpleGUICS2Pygame_simpleguics2pygame__pygame_init&#45;&gt;SimpleGUICS2Pygame_simpleguics2pygame_keys</title><style>.edge>path:hover{stroke-width:8}</style>
<path fill="none" stroke="black" d="M896.624,-545.219C896.768,-544.471 1022.71,-444.674 1089.75,-391.603"/>
<polygon fill="#d10505" stroke="black" points="1091.95,-394.324 1097.62,-385.373 1087.61,-388.836 1091.95,-394.324"/>
</g>
<!-- SimpleGUICS2Pygame_simpleguics2pygame_canvas&#45;&gt;SimpleGUICS2Pygame_simpleguics2pygame -->
<g id="edge35" class="edge"><title>SimpleGUICS2Pygame_simpleguics2pygame_canvas&#45;&gt;SimpleGUICS2Pygame_simpleguics2pygame</title><style>.edge>path:hover{stroke-width:8}</style>
<path fill="none" stroke="black" d="M376.245,-336.331C334.754,-318.526 290.912,-291.702 318.624,-265.271"/>
</g>
<!-- SimpleGUICS2Pygame_simpleguics2pygame_canvas&#45;&gt;SimpleGUICS2Pygame_simpleguics2pygame_frame -->
<g id="edge36" class="edge"><title>SimpleGUICS2Pygame_simpleguics2pygame_canvas&#45;&gt;SimpleGUICS2Pygame_simpleguics2pygame_frame</title><style>.edge>path:hover{stroke-width:8}</style>
<path fill="none" stroke="black" d="M434.624,-329.156C434.624,-321.118 434.624,-312.216 434.624,-303.673"/>
<polygon fill="#9b2626" stroke="black" points="438.124,-303.513 434.624,-293.513 431.124,-303.513 438.124,-303.513"/>
</g>
<!-- SimpleGUICS2Pygame_simpleguics2pygame_control&#45;&gt;SimpleGUICS2Pygame_simpleguics2pygame -->
<g id="edge37" class="edge"><title>SimpleGUICS2Pygame_simpleguics2pygame_control&#45;&gt;SimpleGUICS2Pygame_simpleguics2pygame</title><style>.edge>path:hover{stroke-width:8}</style>
<path fill="none" stroke="black" d="M936.268,-343.113C1049.56,-321.408 1249.81,-280.769 1246.62,-265.271"/>
<path fill="none" stroke="black" d="M1246.62,-263.271C1232.37,-193.998 746.687,-181.559 533.4,-179.44"/>
<polygon fill="#a32828" stroke="black" points="533.176,-175.937 523.143,-179.344 533.11,-182.937 533.176,-175.937"/>
</g>
<!-- SimpleGUICS2Pygame_simpleguics2pygame_control&#45;&gt;SimpleGUICS2Pygame_simpleguics2pygame_frame -->
<g id="edge38" class="edge"><title>SimpleGUICS2Pygame_simpleguics2pygame_control&#45;&gt;SimpleGUICS2Pygame_simpleguics2pygame_frame</title><style>.edge>path:hover{stroke-width:8}</style>
<path fill="none" stroke="black" d="M795.508,-338.624C783.293,-335.346 770.599,-332.084 758.624,-329.262 678.601,-310.406 586.574,-292.597 521.096,-280.578"/>
<polygon fill="#a32828" stroke="black" points="521.694,-277.129 511.227,-278.773 520.434,-284.015 521.694,-277.129"/>
</g>
<!-- SimpleGUICS2Pygame_simpleguics2pygame_frame&#45;&gt;SimpleGUICS2Pygame_simpleguics2pygame -->
<g id="edge39" class="edge"><title>SimpleGUICS2Pygame_simpleguics2pygame_frame&#45;&gt;SimpleGUICS2Pygame_simpleguics2pygame</title><style>.edge>path:hover{stroke-width:8}</style>
<path fill="none" stroke="black" d="M434.624,-235.232C434.624,-227.024 434.624,-218.01 434.624,-209.653"/>
<polygon fill="#732626" stroke="black" points="438.124,-209.527 434.624,-199.527 431.124,-209.527 438.124,-209.527"/>
</g>
<!-- SimpleGUICS2Pygame_simpleguics2pygame_image&#45;&gt;SimpleGUICS2Pygame_simpleguics2pygame -->
<g id="edge40" class="edge"><title>SimpleGUICS2Pygame_simpleguics2pygame_image&#45;&gt;SimpleGUICS2Pygame_simpleguics2pygame</title><style>.edge>path:hover{stroke-width:8}</style>
<path fill="none" stroke="black" d="M359.474,-425.677C340.302,-409.343 320.51,-386.197 318.624,-359.253"/>
<path fill="none" stroke="black" d="M318.624,-357.253C315.768,-316.472 289.041,-293.486 318.624,-265.271"/>
</g>
<!-- SimpleGUICS2Pygame_simpleguics2pygame_image&#45;&gt;SimpleGUICS2Pygame_simpleguics2pygame_canvas -->
<g id="edge41" class="edge"><title>SimpleGUICS2Pygame_simpleguics2pygame_image&#45;&gt;SimpleGUICS2Pygame_simpleguics2pygame_canvas</title><style>.edge>path:hover{stroke-width:8}</style>
<path fill="none" stroke="black" d="M408.232,-423.138C411.694,-414.758 415.544,-405.438 419.209,-396.566"/>
<polygon fill="#b62020" stroke="black" points="422.504,-397.758 423.087,-387.179 416.034,-395.085 422.504,-397.758"/>
</g>
<!-- SimpleGUICS2Pygame_simpleguics2pygame_image&#45;&gt;SimpleGUICS2Pygame_simpleguics2pygame_frame -->
<g id="edge42" class="edge"><title>SimpleGUICS2Pygame_simpleguics2pygame_image&#45;&gt;SimpleGUICS2Pygame_simpleguics2pygame_frame</title><style>.edge>path:hover{stroke-width:8}</style>
<path fill="none" stroke="black" d="M318.624,-357.253C316.535,-327.423 340.305,-305.708 366.861,-290.893"/>
<polygon fill="#b62020" stroke="black" points="368.71,-293.876 375.94,-286.132 365.459,-287.676 368.71,-293.876"/>
</g>
<!-- SimpleGUICS2Pygame_simpleguics2pygame_keys&#45;&gt;SimpleGUICS2Pygame_simpleguics2pygame -->
<g id="edge43" class="edge"><title>SimpleGUICS2Pygame_simpleguics2pygame_keys&#45;&gt;SimpleGUICS2Pygame_simpleguics2pygame</title><style>.edge>path:hover{stroke-width:8}</style>
<path fill="none" stroke="black" d="M1190.72,-336.806C1222.41,-321.918 1253.46,-298.501 1246.62,-265.271"/>
</g>
<!-- SimpleGUICS2Pygame_simpleguics2pygame_keys&#45;&gt;SimpleGUICS2Pygame_simpleguics2pygame_frame -->
<g id="edge44" class="edge"><title>SimpleGUICS2Pygame_simpleguics2pygame_keys&#45;&gt;SimpleGUICS2Pygame_simpleguics2pygame_frame</title><style>.edge>path:hover{stroke-width:8}</style>
<path fill="none" stroke="black" d="M1066.79,-338.048C1054.22,-334.747 1041.07,-331.625 1028.62,-329.262 855.097,-296.326 649.598,-278.893 531.442,-270.911"/>
<polygon fill="#ac2b2b" stroke="black" points="531.547,-267.41 521.336,-270.237 531.081,-274.395 531.547,-267.41"/>
</g>
<!-- SimpleGUICS2Pygame_simpleguics2pygame_sound&#45;&gt;SimpleGUICS2Pygame_simpleguics2pygame -->
<g id="edge45" class="edge"><title>SimpleGUICS2Pygame_simpleguics2pygame_sound&#45;&gt;SimpleGUICS2Pygame_simpleguics2pygame</title><style>.edge>path:hover{stroke-width:8}</style>
<path fill="none" stroke="black" d="M83.2682,-426.85C57.0348,-408.858 31.6487,-383.407 48.6238,-359.253"/>
</g>
<!-- SimpleGUICS2Pygame_simpleguics2pygame_timer&#45;&gt;SimpleGUICS2Pygame_simpleguics2pygame -->
<g id="edge46" class="edge"><title>SimpleGUICS2Pygame_simpleguics2pygame_timer&#45;&gt;SimpleGUICS2Pygame_simpleguics2pygame</title><style>.edge>path:hover{stroke-width:8}</style>
<path fill="none" stroke="black" d="M215.281,-334.298C247.343,-318.102 288.314,-294.18 318.624,-265.271"/>
</g>
<!-- SimpleGUICS2Pygame_simpleguics2pygame_timer&#45;&gt;SimpleGUICS2Pygame_simpleguics2pygame_frame -->
<g id="edge47" class="edge"><title>SimpleGUICS2Pygame_simpleguics2pygame_timer&#45;&gt;SimpleGUICS2Pygame_simpleguics2pygame_frame</title><style>.edge>path:hover{stroke-width:8}</style>
<path fill="none" stroke="black" d="M224.546,-336.839C265.999,-322.717 321.3,-303.878 364.757,-289.072"/>
<polygon fill="#bc2f2f" stroke="black" points="366.066,-292.324 374.403,-285.786 363.809,-285.698 366.066,-292.324"/>
</g>
<!-- SimpleGUICS2Pygame_simpleplot -->
<g id="node20" class="node"><title>SimpleGUICS2Pygame_simpleplot</title><style>.edge>path:hover{stroke-width:8}</style>
<ellipse fill="#ac4949" stroke="black" cx="974.624" cy="-726.406" rx="88.2768" ry="21.4286"/>
<text text-anchor="middle" x="974.624" y="-729.406" font-family="Helvetica,sans-Serif" font-size="10.00" fill="#ffffff">SimpleGUICS2Pygame.</text>
<text text-anchor="middle" x="974.624" y="-718.406" font-family="Helvetica,sans-Serif" font-size="10.00" fill="#ffffff">simpleplot</text>
</g>
<!-- audioread -->
<g id="node21" class="node"><title>audioread</title><style>.edge>path:hover{stroke-width:8}</style>
<polygon fill="#80c040" stroke="black" points="450.124,-819.619 447.124,-823.619 426.124,-823.619 423.124,-819.619 387.124,-819.619 387.124,-783.619 450.124,-783.619 450.124,-819.619"/>
<text text-anchor="middle" x="418.624" y="-799.119" font-family="Helvetica,sans-Serif" font-size="10.00" fill="#000000">audioread</text>
</g>
<!-- audioread&#45;&gt;SimpleGUICS2Pygame_simpleguics2pygame__media -->
<g id="edge48" class="edge"><title>audioread&#45;&gt;SimpleGUICS2Pygame_simpleguics2pygame__media</title><style>.edge>path:hover{stroke-width:8}</style>
<path fill="none" stroke="black" d="M408.705,-783.184C393.243,-754.622 364.546,-695.588 358.624,-641.202"/>
</g>
<!-- matplotlib -->
<g id="node22" class="node"><title>matplotlib</title><style>.edge>path:hover{stroke-width:8}</style>
<polygon fill="#31c4c4" stroke="black" points="1004.12,-891.619 1001.12,-895.619 980.124,-895.619 977.124,-891.619 945.124,-891.619 945.124,-855.619 1004.12,-855.619 1004.12,-891.619"/>
<text text-anchor="middle" x="974.624" y="-871.119" font-family="Helvetica,sans-Serif" font-size="10.00" fill="#000000">matplotlib</text>
</g>
<!-- matplotlib&#45;&gt;SimpleGUICS2Pygame_simpleplot -->
<g id="edge49" class="edge"><title>matplotlib&#45;&gt;SimpleGUICS2Pygame_simpleplot</title><style>.edge>path:hover{stroke-width:8}</style>
<path fill="none" stroke="black" d="M974.624,-855.391C974.624,-831.437 974.624,-787.684 974.624,-758.081"/>
<polygon fill="#31c4c4" stroke="black" points="978.124,-757.877 974.624,-747.877 971.124,-757.877 978.124,-757.877"/>
</g>
<!-- pygame -->
<g id="node23" class="node"><title>pygame</title><style>.edge>path:hover{stroke-width:8}</style>
<polygon fill="#6605c7" stroke="black" points="578.624,-891.619 575.624,-895.619 554.624,-895.619 551.624,-891.619 524.624,-891.619 524.624,-855.619 578.624,-855.619 578.624,-891.619"/>
<text text-anchor="middle" x="551.624" y="-871.119" font-family="Helvetica,sans-Serif" font-size="10.00" fill="#ffffff">pygame</text>
</g>
<!-- pygame&#45;&gt;SimpleGUICS2Pygame_simpleguics2pygame__colors -->
<g id="edge50" class="edge"><title>pygame&#45;&gt;SimpleGUICS2Pygame_simpleguics2pygame__colors</title><style>.edge>path:hover{stroke-width:8}</style>
<path fill="none" stroke="black" d="M858.624,-725.406C861.353,-713.383 867.347,-712.004 877.624,-705.193 945.958,-659.903 1006.08,-710.026 1050.62,-641.202"/>
<path fill="none" stroke="black" d="M1050.62,-639.202C1078.69,-595.843 991.133,-610.714 953.624,-575.21 930.323,-553.156 930.058,-542.755 910.624,-517.227 903.49,-507.857 895.688,-497.789 888.414,-488.475"/>
<polygon fill="#6605c7" stroke="black" points="891.108,-486.238 882.187,-480.522 885.596,-490.553 891.108,-486.238"/>
</g>
<!-- pygame&#45;&gt;SimpleGUICS2Pygame_simpleguics2pygame__fonts -->
<g id="edge51" class="edge"><title>pygame&#45;&gt;SimpleGUICS2Pygame_simpleguics2pygame__fonts</title><style>.edge>path:hover{stroke-width:8}</style>
<path fill="none" stroke="black" d="M666.624,-639.202C625.223,-602.61 621.754,-534.173 624.288,-491.305"/>
<polygon fill="#6605c7" stroke="black" points="627.784,-491.482 625.019,-481.254 620.803,-490.974 627.784,-491.482"/>
</g>
<!-- pygame&#45;&gt;SimpleGUICS2Pygame_simpleguics2pygame__joypads -->
<g id="edge52" class="edge"><title>pygame&#45;&gt;SimpleGUICS2Pygame_simpleguics2pygame__joypads</title><style>.edge>path:hover{stroke-width:8}</style>
<path fill="none" stroke="black" d="M1050.62,-639.202C1060.78,-623.512 1061.65,-602.944 1059.6,-585.237"/>
<polygon fill="#6605c7" stroke="black" points="1063.04,-584.576 1058.11,-575.201 1056.12,-585.607 1063.04,-584.576"/>
</g>
<!-- pygame&#45;&gt;SimpleGUICS2Pygame_simpleguics2pygame__media -->
<g id="edge53" class="edge"><title>pygame&#45;&gt;SimpleGUICS2Pygame_simpleguics2pygame__media</title><style>.edge>path:hover{stroke-width:8}</style>
<path fill="none" stroke="black" d="M358.624,-725.406C340.119,-692.877 361.21,-678.536 358.624,-641.202"/>
<path fill="none" stroke="black" d="M358.624,-639.202C357.411,-621.69 357.239,-602.258 357.439,-585.783"/>
<polygon fill="#6605c7" stroke="black" points="360.944,-585.493 357.616,-575.434 353.945,-585.372 360.944,-585.493"/>
</g>
<!-- pygame&#45;&gt;SimpleGUICS2Pygame_simpleguics2pygame__pygame_init -->
<g id="edge54" class="edge"><title>pygame&#45;&gt;SimpleGUICS2Pygame_simpleguics2pygame__pygame_init</title><style>.edge>path:hover{stroke-width:8}</style>
<path fill="none" stroke="black" d="M858.624,-725.406C858.624,-710.349 858.624,-693.777 858.624,-679.347"/>
<polygon fill="#6605c7" stroke="black" points="862.124,-679.27 858.624,-669.27 855.124,-679.27 862.124,-679.27"/>
</g>
<!-- pygame&#45;&gt;SimpleGUICS2Pygame_simpleguics2pygame_canvas -->
<g id="edge55" class="edge"><title>pygame&#45;&gt;SimpleGUICS2Pygame_simpleguics2pygame_canvas</title><style>.edge>path:hover{stroke-width:8}</style>
<path fill="none" stroke="black" d="M524.526,-872.472C485.992,-870.713 415.81,-861.51 377.624,-819.619 349.434,-788.695 379.314,-763.778 358.624,-727.406"/>
<path fill="none" stroke="black" d="M358.624,-725.406C303.116,-644.754 224.275,-727.502 145.624,-669.193 48.5362,-597.216 -50.6364,-513.605 29.6238,-423.245 74.6534,-372.548 266.076,-400.253 332.624,-387.245 341.853,-385.441 351.471,-383.238 360.954,-380.869"/>
<polygon fill="#6605c7" stroke="black" points="361.95,-384.227 370.765,-378.349 360.209,-377.447 361.95,-384.227"/>
</g>
<!-- pygame&#45;&gt;SimpleGUICS2Pygame_simpleguics2pygame_control -->
<g id="edge56" class="edge"><title>pygame&#45;&gt;SimpleGUICS2Pygame_simpleguics2pygame_control</title><style>.edge>path:hover{stroke-width:8}</style>
<path fill="none" stroke="black" d="M1050.62,-639.202C1086.18,-583.837 1150.17,-610.924 1166.62,-547.219"/>
<path fill="none" stroke="black" d="M1166.62,-545.219C1170.73,-529.327 1133.38,-490.797 1090.62,-453.236"/>
<path fill="none" stroke="black" d="M1090.62,-451.236C1048.84,-414.525 990.564,-391.43 943.131,-377.563"/>
<polygon fill="#6605c7" stroke="black" points="944.066,-374.19 933.49,-374.827 942.155,-380.924 944.066,-374.19"/>
</g>
<!-- pygame&#45;&gt;SimpleGUICS2Pygame_simpleguics2pygame_frame -->
<g id="edge57" class="edge"><title>pygame&#45;&gt;SimpleGUICS2Pygame_simpleguics2pygame_frame</title><style>.edge>path:hover{stroke-width:8}</style>
<path fill="none" stroke="black" d="M1090.62,-451.236C1062.01,-426.098 1057.04,-417.286 1033.62,-387.245 1024.38,-375.385 1026.94,-367.879 1014.62,-359.253"/>
</g>
<!-- pygame&#45;&gt;SimpleGUICS2Pygame_simpleguics2pygame_image -->
<g id="edge58" class="edge"><title>pygame&#45;&gt;SimpleGUICS2Pygame_simpleguics2pygame_image</title><style>.edge>path:hover{stroke-width:8}</style>
<path fill="none" stroke="black" d="M578.868,-872.193C654.002,-869.441 858.624,-850.633 858.624,-727.406"/>
<path fill="none" stroke="black" d="M858.624,-725.406C868.937,-679.972 703.577,-669.575 666.624,-641.202"/>
<path fill="none" stroke="black" d="M666.624,-639.202C628.267,-609.751 614.804,-607.297 578.624,-575.21 565.92,-563.944 567.673,-555.082 552.624,-547.219"/>
<path fill="none" stroke="black" d="M552.624,-545.219C515.849,-526.002 475.531,-502.154 445.098,-483.556"/>
<polygon fill="#6605c7" stroke="black" points="446.741,-480.457 436.387,-478.211 443.08,-486.424 446.741,-480.457"/>
</g>
<!-- pygame&#45;&gt;SimpleGUICS2Pygame_simpleguics2pygame_keys -->
<g id="edge59" class="edge"><title>pygame&#45;&gt;SimpleGUICS2Pygame_simpleguics2pygame_keys</title><style>.edge>path:hover{stroke-width:8}</style>
<path fill="none" stroke="black" d="M1166.62,-545.219C1179.76,-494.362 1162.49,-434.573 1147.64,-396.796"/>
<polygon fill="#6605c7" stroke="black" points="1150.76,-395.16 1143.74,-387.218 1144.27,-397.8 1150.76,-395.16"/>
</g>
</g>
</svg>
