<?xml version="1.0" encoding="UTF-8" standalone="no"?>
<!DOCTYPE svg PUBLIC "-//W3C//DTD SVG 1.1//EN"
 "http://www.w3.org/Graphics/SVG/1.1/DTD/svg11.dtd">
<!-- Generated by graphviz version 2.38.0 (20140413.2041)
 -->
<!-- Title: G Pages: 1 -->
<svg width="1098pt" height="865pt"
 viewBox="0.00 0.00 1098.26 864.62" xmlns="http://www.w3.org/2000/svg" xmlns:xlink="http://www.w3.org/1999/xlink">
<g id="graph0" class="graph" transform="scale(1 1) rotate(0) translate(4 860.619)">
<title>G</title><style>.edge>path:hover{stroke-width:8}</style>
<polygon fill="white" stroke="none" points="-4,4 -4,-860.619 1094.26,-860.619 1094.26,4 -4,4"/>
<!-- SimpleGUICS2Pygame_simplegui_lib_loader -->
<g id="node1" class="node"><title>SimpleGUICS2Pygame_simplegui_lib_loader</title><style>.edge>path:hover{stroke-width:8}</style>
<ellipse fill="#b83d3d" stroke="black" cx="862.161" cy="-99.6396" rx="88.2768" ry="21.4286"/>
<text text-anchor="middle" x="862.161" y="-102.64" font-family="Helvetica,sans-Serif" font-size="10.00" fill="#ffffff">SimpleGUICS2Pygame.</text>
<text text-anchor="middle" x="862.161" y="-91.6396" font-family="Helvetica,sans-Serif" font-size="10.00" fill="#ffffff">simplegui_lib_loader</text>
</g>
<!-- SimpleGUICS2Pygame_simplegui_lib -->
<g id="node20" class="node"><title>SimpleGUICS2Pygame_simplegui_lib</title><style>.edge>path:hover{stroke-width:8}</style>
<ellipse fill="#964040" stroke="black" cx="569.161" cy="-21.2132" rx="88.2768" ry="21.4286"/>
<text text-anchor="middle" x="569.161" y="-24.2132" font-family="Helvetica,sans-Serif" font-size="10.00" fill="#ffffff">SimpleGUICS2Pygame.</text>
<text text-anchor="middle" x="569.161" y="-13.2132" font-family="Helvetica,sans-Serif" font-size="10.00" fill="#ffffff">simplegui_lib</text>
</g>
<!-- SimpleGUICS2Pygame_simplegui_lib_loader&#45;&gt;SimpleGUICS2Pygame_simplegui_lib -->
<g id="edge4" class="edge"><title>SimpleGUICS2Pygame_simplegui_lib_loader&#45;&gt;SimpleGUICS2Pygame_simplegui_lib</title><style>.edge>path:hover{stroke-width:8}</style>
<path fill="none" stroke="black" d="M804.274,-83.5402C756.117,-70.979 687.499,-53.0805 636.815,-39.86"/>
<polygon fill="#b83d3d" stroke="black" points="637.488,-36.4186 626.928,-37.2812 635.721,-43.192 637.488,-36.4186"/>
</g>
<!-- SimpleGUICS2Pygame_simpleguics2pygame__joypads -->
<g id="node2" class="node"><title>SimpleGUICS2Pygame_simpleguics2pygame__joypads</title><style>.edge>path:hover{stroke-width:8}</style>
<ellipse fill="#a13535" stroke="black" cx="687.161" cy="-546.219" rx="88.2768" ry="28.9828"/>
<text text-anchor="middle" x="687.161" y="-554.719" font-family="Helvetica,sans-Serif" font-size="10.00" fill="#ffffff">SimpleGUICS2Pygame.</text>
<text text-anchor="middle" x="687.161" y="-543.719" font-family="Helvetica,sans-Serif" font-size="10.00" fill="#ffffff">simpleguics2pygame.</text>
<text text-anchor="middle" x="687.161" y="-532.719" font-family="Helvetica,sans-Serif" font-size="10.00" fill="#ffffff">_joypads</text>
</g>
<!-- SimpleGUICS2Pygame_simpleguics2pygame_frame -->
<g id="node16" class="node"><title>SimpleGUICS2Pygame_simpleguics2pygame_frame</title><style>.edge>path:hover{stroke-width:8}</style>
<ellipse fill="#732626" stroke="black" cx="667.161" cy="-264.271" rx="88.2768" ry="28.9828"/>
<text text-anchor="middle" x="667.161" y="-272.771" font-family="Helvetica,sans-Serif" font-size="10.00" fill="#ffffff">SimpleGUICS2Pygame.</text>
<text text-anchor="middle" x="667.161" y="-261.771" font-family="Helvetica,sans-Serif" font-size="10.00" fill="#ffffff">simpleguics2pygame.</text>
<text text-anchor="middle" x="667.161" y="-250.771" font-family="Helvetica,sans-Serif" font-size="10.00" fill="#ffffff">frame</text>
</g>
<!-- SimpleGUICS2Pygame_simpleguics2pygame__joypads&#45;&gt;SimpleGUICS2Pygame_simpleguics2pygame_frame -->
<g id="edge20" class="edge"><title>SimpleGUICS2Pygame_simpleguics2pygame__joypads&#45;&gt;SimpleGUICS2Pygame_simpleguics2pygame_frame</title><style>.edge>path:hover{stroke-width:8}</style>
<path fill="none" stroke="black" d="M750.992,-526.091C762.328,-522.951 774.057,-519.865 785.161,-517.227 881.332,-494.383 1000.34,-552.059 998.161,-453.236"/>
<path fill="none" stroke="black" d="M998.161,-451.236C997.036,-400.327 904.775,-421.039 860.161,-387.245 835.6,-368.641 845.903,-348.9 822.161,-329.262 799.584,-310.587 770.804,-296.706 744.186,-286.735"/>
<polygon fill="#a13535" stroke="black" points="745.087,-283.339 734.493,-283.237 742.711,-289.924 745.087,-283.339"/>
</g>
<!-- SimpleGUICS2Pygame_simpleguics2pygame_control -->
<g id="node3" class="node"><title>SimpleGUICS2Pygame_simpleguics2pygame_control</title><style>.edge>path:hover{stroke-width:8}</style>
<ellipse fill="#a32828" stroke="black" cx="414.161" cy="-452.236" rx="88.2768" ry="28.9828"/>
<text text-anchor="middle" x="414.161" y="-460.736" font-family="Helvetica,sans-Serif" font-size="10.00" fill="#ffffff">SimpleGUICS2Pygame.</text>
<text text-anchor="middle" x="414.161" y="-449.736" font-family="Helvetica,sans-Serif" font-size="10.00" fill="#ffffff">simpleguics2pygame.</text>
<text text-anchor="middle" x="414.161" y="-438.736" font-family="Helvetica,sans-Serif" font-size="10.00" fill="#ffffff">control</text>
</g>
<!-- SimpleGUICS2Pygame_simpleguics2pygame -->
<g id="node9" class="node"><title>SimpleGUICS2Pygame_simpleguics2pygame</title><style>.edge>path:hover{stroke-width:8}</style>
<ellipse fill="#950303" stroke="black" cx="667.161" cy="-178.066" rx="88.2768" ry="21.4286"/>
<text text-anchor="middle" x="667.161" y="-181.066" font-family="Helvetica,sans-Serif" font-size="10.00" fill="#ffffff">SimpleGUICS2Pygame.</text>
<text text-anchor="middle" x="667.161" y="-170.066" font-family="Helvetica,sans-Serif" font-size="10.00" fill="#ffffff">simpleguics2pygame</text>
</g>
<!-- SimpleGUICS2Pygame_simpleguics2pygame_control&#45;&gt;SimpleGUICS2Pygame_simpleguics2pygame -->
<g id="edge35" class="edge"><title>SimpleGUICS2Pygame_simpleguics2pygame_control&#45;&gt;SimpleGUICS2Pygame_simpleguics2pygame</title><style>.edge>path:hover{stroke-width:8}</style>
<path fill="none" stroke="black" d="M347.549,-433.017C291.409,-415.624 220.427,-387.892 222.161,-359.253"/>
</g>
<!-- SimpleGUICS2Pygame_simpleguics2pygame_control&#45;&gt;SimpleGUICS2Pygame_simpleguics2pygame_frame -->
<g id="edge36" class="edge"><title>SimpleGUICS2Pygame_simpleguics2pygame_control&#45;&gt;SimpleGUICS2Pygame_simpleguics2pygame_frame</title><style>.edge>path:hover{stroke-width:8}</style>
<path fill="none" stroke="black" d="M472.28,-430.315C522.875,-410.983 590.899,-381.913 609.161,-359.253"/>
</g>
<!-- SimpleGUICS2Pygame_simpleguics2pygame__media -->
<g id="node4" class="node"><title>SimpleGUICS2Pygame_simpleguics2pygame__media</title><style>.edge>path:hover{stroke-width:8}</style>
<ellipse fill="#b62020" stroke="black" cx="222.161" cy="-546.219" rx="88.2768" ry="28.9828"/>
<text text-anchor="middle" x="222.161" y="-554.719" font-family="Helvetica,sans-Serif" font-size="10.00" fill="#ffffff">SimpleGUICS2Pygame.</text>
<text text-anchor="middle" x="222.161" y="-543.719" font-family="Helvetica,sans-Serif" font-size="10.00" fill="#ffffff">simpleguics2pygame.</text>
<text text-anchor="middle" x="222.161" y="-532.719" font-family="Helvetica,sans-Serif" font-size="10.00" fill="#ffffff">_media</text>
</g>
<!-- SimpleGUICS2Pygame_simpleguics2pygame_image -->
<g id="node6" class="node"><title>SimpleGUICS2Pygame_simpleguics2pygame_image</title><style>.edge>path:hover{stroke-width:8}</style>
<ellipse fill="#bf2121" stroke="black" cx="609.161" cy="-452.236" rx="88.2768" ry="28.9828"/>
<text text-anchor="middle" x="609.161" y="-460.736" font-family="Helvetica,sans-Serif" font-size="10.00" fill="#ffffff">SimpleGUICS2Pygame.</text>
<text text-anchor="middle" x="609.161" y="-449.736" font-family="Helvetica,sans-Serif" font-size="10.00" fill="#ffffff">simpleguics2pygame.</text>
<text text-anchor="middle" x="609.161" y="-438.736" font-family="Helvetica,sans-Serif" font-size="10.00" fill="#ffffff">image</text>
</g>
<!-- SimpleGUICS2Pygame_simpleguics2pygame__media&#45;&gt;SimpleGUICS2Pygame_simpleguics2pygame_image -->
<g id="edge22" class="edge"><title>SimpleGUICS2Pygame_simpleguics2pygame__media&#45;&gt;SimpleGUICS2Pygame_simpleguics2pygame_image</title><style>.edge>path:hover{stroke-width:8}</style>
<path fill="none" stroke="black" d="M285.988,-526.073C297.324,-522.935 309.055,-519.854 320.161,-517.227 404.225,-497.344 427.097,-501.111 511.161,-481.227 519.057,-479.36 527.269,-477.263 535.429,-475.08"/>
<polygon fill="#b62020" stroke="black" points="536.605,-478.387 545.334,-472.382 534.766,-471.633 536.605,-478.387"/>
</g>
<!-- SimpleGUICS2Pygame_simpleguics2pygame_sound -->
<g id="node10" class="node"><title>SimpleGUICS2Pygame_simpleguics2pygame_sound</title><style>.edge>path:hover{stroke-width:8}</style>
<ellipse fill="#a83838" stroke="black" cx="106.161" cy="-452.236" rx="88.2768" ry="28.9828"/>
<text text-anchor="middle" x="106.161" y="-460.736" font-family="Helvetica,sans-Serif" font-size="10.00" fill="#ffffff">SimpleGUICS2Pygame.</text>
<text text-anchor="middle" x="106.161" y="-449.736" font-family="Helvetica,sans-Serif" font-size="10.00" fill="#ffffff">simpleguics2pygame.</text>
<text text-anchor="middle" x="106.161" y="-438.736" font-family="Helvetica,sans-Serif" font-size="10.00" fill="#ffffff">sound</text>
</g>
<!-- SimpleGUICS2Pygame_simpleguics2pygame__media&#45;&gt;SimpleGUICS2Pygame_simpleguics2pygame_sound -->
<g id="edge23" class="edge"><title>SimpleGUICS2Pygame_simpleguics2pygame__media&#45;&gt;SimpleGUICS2Pygame_simpleguics2pygame_sound</title><style>.edge>path:hover{stroke-width:8}</style>
<path fill="none" stroke="black" d="M189.23,-519.106C176.128,-508.717 160.912,-496.651 147.11,-485.707"/>
<polygon fill="#b62020" stroke="black" points="149.184,-482.885 139.174,-479.414 144.835,-488.37 149.184,-482.885"/>
</g>
<!-- SimpleGUICS2Pygame_simpleguics2pygame__media&#45;&gt;SimpleGUICS2Pygame_simpleguics2pygame_frame -->
<g id="edge21" class="edge"><title>SimpleGUICS2Pygame_simpleguics2pygame__media&#45;&gt;SimpleGUICS2Pygame_simpleguics2pygame_frame</title><style>.edge>path:hover{stroke-width:8}</style>
<path fill="none" stroke="black" d="M228.422,-517.212C230.887,-506.03 233.709,-493.03 236.161,-481.227 247.399,-427.132 221.633,-398.854 260.161,-359.253"/>
</g>
<!-- SimpleGUICS2Pygame_simpleguics2pygame__arguments -->
<g id="node5" class="node"><title>SimpleGUICS2Pygame_simpleguics2pygame__arguments</title><style>.edge>path:hover{stroke-width:8}</style>
<ellipse fill="#f90606" stroke="black" cx="222.161" cy="-640.202" rx="88.2768" ry="28.9828"/>
<text text-anchor="middle" x="222.161" y="-648.702" font-family="Helvetica,sans-Serif" font-size="10.00" fill="#ffffff">SimpleGUICS2Pygame.</text>
<text text-anchor="middle" x="222.161" y="-637.702" font-family="Helvetica,sans-Serif" font-size="10.00" fill="#ffffff">simpleguics2pygame.</text>
<text text-anchor="middle" x="222.161" y="-626.702" font-family="Helvetica,sans-Serif" font-size="10.00" fill="#ffffff">_arguments</text>
</g>
<!-- SimpleGUICS2Pygame_simpleguics2pygame__arguments&#45;&gt;SimpleGUICS2Pygame_simpleguics2pygame__media -->
<g id="edge10" class="edge"><title>SimpleGUICS2Pygame_simpleguics2pygame__arguments&#45;&gt;SimpleGUICS2Pygame_simpleguics2pygame__media</title><style>.edge>path:hover{stroke-width:8}</style>
<path fill="none" stroke="black" d="M222.161,-611.104C222.161,-603.066 222.161,-594.164 222.161,-585.621"/>
<polygon fill="#f90606" stroke="black" points="225.661,-585.461 222.161,-575.461 218.661,-585.461 225.661,-585.461"/>
</g>
<!-- SimpleGUICS2Pygame_simpleguics2pygame_timer -->
<g id="node8" class="node"><title>SimpleGUICS2Pygame_simpleguics2pygame_timer</title><style>.edge>path:hover{stroke-width:8}</style>
<ellipse fill="#bc2f2f" stroke="black" cx="106.161" cy="-358.253" rx="88.2768" ry="28.9828"/>
<text text-anchor="middle" x="106.161" y="-366.753" font-family="Helvetica,sans-Serif" font-size="10.00" fill="#ffffff">SimpleGUICS2Pygame.</text>
<text text-anchor="middle" x="106.161" y="-355.753" font-family="Helvetica,sans-Serif" font-size="10.00" fill="#ffffff">simpleguics2pygame.</text>
<text text-anchor="middle" x="106.161" y="-344.753" font-family="Helvetica,sans-Serif" font-size="10.00" fill="#ffffff">timer</text>
</g>
<!-- SimpleGUICS2Pygame_simpleguics2pygame__arguments&#45;&gt;SimpleGUICS2Pygame_simpleguics2pygame_timer -->
<g id="edge13" class="edge"><title>SimpleGUICS2Pygame_simpleguics2pygame__arguments&#45;&gt;SimpleGUICS2Pygame_simpleguics2pygame_timer</title><style>.edge>path:hover{stroke-width:8}</style>
<path fill="none" stroke="black" d="M175.079,-615.664C149.547,-600.09 120.376,-577.03 106.161,-547.219"/>
<path fill="none" stroke="black" d="M106.161,-545.219C83.9321,-498.6 33.6412,-526.704 9.16104,-481.227 -3.05368,-458.536 -3.05368,-445.936 9.16104,-423.245 17.1592,-408.386 30.2855,-396.406 44.3352,-387.01"/>
<polygon fill="#f90606" stroke="black" points="46.5405,-389.759 53.1648,-381.49 42.83,-383.823 46.5405,-389.759"/>
</g>
<!-- SimpleGUICS2Pygame_simpleguics2pygame__arguments&#45;&gt;SimpleGUICS2Pygame_simpleguics2pygame -->
<g id="edge8" class="edge"><title>SimpleGUICS2Pygame_simpleguics2pygame__arguments&#45;&gt;SimpleGUICS2Pygame_simpleguics2pygame</title><style>.edge>path:hover{stroke-width:8}</style>
<path fill="none" stroke="black" d="M106.161,-545.219C100.053,-531.48 113.694,-526.953 125.161,-517.227 154.279,-492.531 174.043,-505.924 203.161,-481.227 214.628,-471.502 214.37,-466.096 222.161,-453.236"/>
<path fill="none" stroke="black" d="M222.161,-451.236C243.343,-416.271 219.691,-400.06 222.161,-359.253"/>
</g>
<!-- SimpleGUICS2Pygame_simpleguics2pygame__arguments&#45;&gt;SimpleGUICS2Pygame_simpleguics2pygame_sound -->
<g id="edge12" class="edge"><title>SimpleGUICS2Pygame_simpleguics2pygame__arguments&#45;&gt;SimpleGUICS2Pygame_simpleguics2pygame_sound</title><style>.edge>path:hover{stroke-width:8}</style>
<path fill="none" stroke="black" d="M106.161,-545.219C98.3063,-528.746 97.4645,-508.65 98.9396,-491.448"/>
<polygon fill="#f90606" stroke="black" points="102.456,-491.503 100.115,-481.17 95.5014,-490.707 102.456,-491.503"/>
</g>
<!-- SimpleGUICS2Pygame_simpleguics2pygame__fonts -->
<g id="node13" class="node"><title>SimpleGUICS2Pygame_simpleguics2pygame__fonts</title><style>.edge>path:hover{stroke-width:8}</style>
<ellipse fill="#b62020" stroke="black" cx="417.161" cy="-546.219" rx="88.2768" ry="28.9828"/>
<text text-anchor="middle" x="417.161" y="-554.719" font-family="Helvetica,sans-Serif" font-size="10.00" fill="#ffffff">SimpleGUICS2Pygame.</text>
<text text-anchor="middle" x="417.161" y="-543.719" font-family="Helvetica,sans-Serif" font-size="10.00" fill="#ffffff">simpleguics2pygame.</text>
<text text-anchor="middle" x="417.161" y="-532.719" font-family="Helvetica,sans-Serif" font-size="10.00" fill="#ffffff">_fonts</text>
</g>
<!-- SimpleGUICS2Pygame_simpleguics2pygame__arguments&#45;&gt;SimpleGUICS2Pygame_simpleguics2pygame__fonts -->
<g id="edge9" class="edge"><title>SimpleGUICS2Pygame_simpleguics2pygame__arguments&#45;&gt;SimpleGUICS2Pygame_simpleguics2pygame__fonts</title><style>.edge>path:hover{stroke-width:8}</style>
<path fill="none" stroke="black" d="M271.368,-615.99C297.926,-603.463 330.88,-587.918 358.736,-574.779"/>
<polygon fill="#f90606" stroke="black" points="360.419,-577.854 367.97,-570.423 357.433,-571.523 360.419,-577.854"/>
</g>
<!-- SimpleGUICS2Pygame_simpleguics2pygame__arguments&#45;&gt;SimpleGUICS2Pygame_simpleguics2pygame_frame -->
<g id="edge11" class="edge"><title>SimpleGUICS2Pygame_simpleguics2pygame__arguments&#45;&gt;SimpleGUICS2Pygame_simpleguics2pygame_frame</title><style>.edge>path:hover{stroke-width:8}</style>
<path fill="none" stroke="black" d="M222.161,-451.236C245.08,-413.404 227.628,-389.221 260.161,-359.253"/>
<path fill="none" stroke="black" d="M260.161,-357.253C305.197,-315.769 468.226,-288.963 573.78,-275.54"/>
<polygon fill="#f90606" stroke="black" points="574.323,-278.999 583.81,-274.282 573.452,-272.053 574.323,-278.999"/>
</g>
<!-- SimpleGUICS2Pygame_simpleguics2pygame_image&#45;&gt;SimpleGUICS2Pygame_simpleguics2pygame -->
<g id="edge38" class="edge"><title>SimpleGUICS2Pygame_simpleguics2pygame_image&#45;&gt;SimpleGUICS2Pygame_simpleguics2pygame</title><style>.edge>path:hover{stroke-width:8}</style>
<path fill="none" stroke="black" d="M548.703,-430.945C435.295,-391.548 206.668,-305.082 260.161,-265.271"/>
</g>
<!-- SimpleGUICS2Pygame_simpleguics2pygame_image&#45;&gt;SimpleGUICS2Pygame_simpleguics2pygame_frame -->
<g id="edge40" class="edge"><title>SimpleGUICS2Pygame_simpleguics2pygame_image&#45;&gt;SimpleGUICS2Pygame_simpleguics2pygame_frame</title><style>.edge>path:hover{stroke-width:8}</style>
<path fill="none" stroke="black" d="M600.696,-423.264C596.488,-403.279 594.932,-376.909 609.161,-359.253"/>
</g>
<!-- SimpleGUICS2Pygame_simpleguics2pygame_canvas -->
<g id="node18" class="node"><title>SimpleGUICS2Pygame_simpleguics2pygame_canvas</title><style>.edge>path:hover{stroke-width:8}</style>
<ellipse fill="#9b2626" stroke="black" cx="725.161" cy="-358.253" rx="88.2768" ry="28.9828"/>
<text text-anchor="middle" x="725.161" y="-366.753" font-family="Helvetica,sans-Serif" font-size="10.00" fill="#ffffff">SimpleGUICS2Pygame.</text>
<text text-anchor="middle" x="725.161" y="-355.753" font-family="Helvetica,sans-Serif" font-size="10.00" fill="#ffffff">simpleguics2pygame.</text>
<text text-anchor="middle" x="725.161" y="-344.753" font-family="Helvetica,sans-Serif" font-size="10.00" fill="#ffffff">canvas</text>
</g>
<!-- SimpleGUICS2Pygame_simpleguics2pygame_image&#45;&gt;SimpleGUICS2Pygame_simpleguics2pygame_canvas -->
<g id="edge39" class="edge"><title>SimpleGUICS2Pygame_simpleguics2pygame_image&#45;&gt;SimpleGUICS2Pygame_simpleguics2pygame_canvas</title><style>.edge>path:hover{stroke-width:8}</style>
<path fill="none" stroke="black" d="M642.092,-425.124C655.194,-414.734 670.41,-402.669 684.212,-391.724"/>
<polygon fill="#bf2121" stroke="black" points="686.487,-394.387 692.148,-385.431 682.138,-388.902 686.487,-394.387"/>
</g>
<!-- SimpleGUICS2Pygame_simplegui_lib_draw -->
<g id="node7" class="node"><title>SimpleGUICS2Pygame_simplegui_lib_draw</title><style>.edge>path:hover{stroke-width:8}</style>
<ellipse fill="#c04040" stroke="black" cx="277.161" cy="-99.6396" rx="88.2768" ry="21.4286"/>
<text text-anchor="middle" x="277.161" y="-102.64" font-family="Helvetica,sans-Serif" font-size="10.00" fill="#ffffff">SimpleGUICS2Pygame.</text>
<text text-anchor="middle" x="277.161" y="-91.6396" font-family="Helvetica,sans-Serif" font-size="10.00" fill="#ffffff">simplegui_lib_draw</text>
</g>
<!-- SimpleGUICS2Pygame_simplegui_lib_draw&#45;&gt;SimpleGUICS2Pygame_simplegui_lib -->
<g id="edge1" class="edge"><title>SimpleGUICS2Pygame_simplegui_lib_draw&#45;&gt;SimpleGUICS2Pygame_simplegui_lib</title><style>.edge>path:hover{stroke-width:8}</style>
<path fill="none" stroke="black" d="M334.851,-83.5402C382.765,-70.9994 451.005,-53.1386 501.492,-39.9244"/>
<polygon fill="#c04040" stroke="black" points="502.554,-43.2646 511.342,-37.3465 500.781,-36.4927 502.554,-43.2646"/>
</g>
<!-- SimpleGUICS2Pygame_simpleguics2pygame_timer&#45;&gt;SimpleGUICS2Pygame_simpleguics2pygame -->
<g id="edge44" class="edge"><title>SimpleGUICS2Pygame_simpleguics2pygame_timer&#45;&gt;SimpleGUICS2Pygame_simpleguics2pygame</title><style>.edge>path:hover{stroke-width:8}</style>
<path fill="none" stroke="black" d="M151.84,-333.183C183.323,-315.833 225.56,-291.022 260.161,-265.271"/>
<path fill="none" stroke="black" d="M260.161,-263.271C309.458,-226.582 473.328,-201.439 577.487,-188.719"/>
<polygon fill="#bc2f2f" stroke="black" points="578.178,-192.161 587.688,-187.489 577.341,-185.211 578.178,-192.161"/>
</g>
<!-- SimpleGUICS2Pygame_simpleguics2pygame_timer&#45;&gt;SimpleGUICS2Pygame_simpleguics2pygame_frame -->
<g id="edge45" class="edge"><title>SimpleGUICS2Pygame_simpleguics2pygame_timer&#45;&gt;SimpleGUICS2Pygame_simpleguics2pygame_frame</title><style>.edge>path:hover{stroke-width:8}</style>
<path fill="none" stroke="black" d="M179.426,-341.937C200.893,-337.63 224.434,-333.083 246.161,-329.262 359.8,-309.276 491.353,-289.875 576.742,-277.774"/>
<polygon fill="#bc2f2f" stroke="black" points="577.251,-281.237 586.663,-276.372 576.272,-274.306 577.251,-281.237"/>
</g>
<!-- SimpleGUICS2Pygame_simpleguics2pygame&#45;&gt;SimpleGUICS2Pygame_simplegui_lib_loader -->
<g id="edge7" class="edge"><title>SimpleGUICS2Pygame_simpleguics2pygame&#45;&gt;SimpleGUICS2Pygame_simplegui_lib_loader</title><style>.edge>path:hover{stroke-width:8}</style>
<path fill="none" stroke="black" d="M711.898,-159.532C740.51,-148.318 777.798,-133.704 808.07,-121.84"/>
<polygon fill="#950303" stroke="black" points="809.599,-125 817.632,-118.092 807.045,-118.482 809.599,-125"/>
</g>
<!-- SimpleGUICS2Pygame_simplegui_lib_keys -->
<g id="node11" class="node"><title>SimpleGUICS2Pygame_simplegui_lib_keys</title><style>.edge>path:hover{stroke-width:8}</style>
<ellipse fill="#b83d3d" stroke="black" cx="472.161" cy="-99.6396" rx="88.2768" ry="21.4286"/>
<text text-anchor="middle" x="472.161" y="-102.64" font-family="Helvetica,sans-Serif" font-size="10.00" fill="#ffffff">SimpleGUICS2Pygame.</text>
<text text-anchor="middle" x="472.161" y="-91.6396" font-family="Helvetica,sans-Serif" font-size="10.00" fill="#ffffff">simplegui_lib_keys</text>
</g>
<!-- SimpleGUICS2Pygame_simpleguics2pygame&#45;&gt;SimpleGUICS2Pygame_simplegui_lib_keys -->
<g id="edge6" class="edge"><title>SimpleGUICS2Pygame_simpleguics2pygame&#45;&gt;SimpleGUICS2Pygame_simplegui_lib_keys</title><style>.edge>path:hover{stroke-width:8}</style>
<path fill="none" stroke="black" d="M622.424,-159.532C593.812,-148.318 556.524,-133.704 526.252,-121.84"/>
<polygon fill="#950303" stroke="black" points="527.277,-118.482 516.69,-118.092 524.723,-125 527.277,-118.482"/>
</g>
<!-- SimpleGUICS2Pygame_simplegui_lib_fps -->
<g id="node12" class="node"><title>SimpleGUICS2Pygame_simplegui_lib_fps</title><style>.edge>path:hover{stroke-width:8}</style>
<ellipse fill="#b83d3d" stroke="black" cx="667.161" cy="-99.6396" rx="88.2768" ry="21.4286"/>
<text text-anchor="middle" x="667.161" y="-102.64" font-family="Helvetica,sans-Serif" font-size="10.00" fill="#ffffff">SimpleGUICS2Pygame.</text>
<text text-anchor="middle" x="667.161" y="-91.6396" font-family="Helvetica,sans-Serif" font-size="10.00" fill="#ffffff">simplegui_lib_fps</text>
</g>
<!-- SimpleGUICS2Pygame_simpleguics2pygame&#45;&gt;SimpleGUICS2Pygame_simplegui_lib_fps -->
<g id="edge5" class="edge"><title>SimpleGUICS2Pygame_simpleguics2pygame&#45;&gt;SimpleGUICS2Pygame_simplegui_lib_fps</title><style>.edge>path:hover{stroke-width:8}</style>
<path fill="none" stroke="black" d="M667.161,-156.585C667.161,-148.726 667.161,-139.582 667.161,-130.992"/>
<polygon fill="#950303" stroke="black" points="670.661,-130.912 667.161,-120.912 663.661,-130.912 670.661,-130.912"/>
</g>
<!-- SimpleGUICS2Pygame_simpleguics2pygame_sound&#45;&gt;SimpleGUICS2Pygame_simpleguics2pygame -->
<g id="edge43" class="edge"><title>SimpleGUICS2Pygame_simpleguics2pygame_sound&#45;&gt;SimpleGUICS2Pygame_simpleguics2pygame</title><style>.edge>path:hover{stroke-width:8}</style>
<path fill="none" stroke="black" d="M162.67,-429.874C191.173,-415.087 220.173,-392.092 222.161,-359.253"/>
<path fill="none" stroke="black" d="M222.161,-357.253C224.834,-313.102 227.597,-295.205 260.161,-265.271"/>
</g>
<!-- SimpleGUICS2Pygame_simplegui_lib_keys&#45;&gt;SimpleGUICS2Pygame_simplegui_lib -->
<g id="edge3" class="edge"><title>SimpleGUICS2Pygame_simplegui_lib_keys&#45;&gt;SimpleGUICS2Pygame_simplegui_lib</title><style>.edge>path:hover{stroke-width:8}</style>
<path fill="none" stroke="black" d="M496.889,-79.1563C508.861,-69.7239 523.4,-58.2688 536.289,-48.1129"/>
<polygon fill="#b83d3d" stroke="black" points="538.789,-50.599 544.478,-41.661 534.457,-45.1007 538.789,-50.599"/>
</g>
<!-- SimpleGUICS2Pygame_simplegui_lib_fps&#45;&gt;SimpleGUICS2Pygame_simplegui_lib -->
<g id="edge2" class="edge"><title>SimpleGUICS2Pygame_simplegui_lib_fps&#45;&gt;SimpleGUICS2Pygame_simplegui_lib</title><style>.edge>path:hover{stroke-width:8}</style>
<path fill="none" stroke="black" d="M642.178,-79.1563C629.968,-69.634 615.114,-58.0504 602,-47.8231"/>
<polygon fill="#b83d3d" stroke="black" points="604.136,-45.0507 594.099,-41.661 599.832,-50.5706 604.136,-45.0507"/>
</g>
<!-- SimpleGUICS2Pygame_simpleguics2pygame__fonts&#45;&gt;SimpleGUICS2Pygame_simpleguics2pygame_control -->
<g id="edge18" class="edge"><title>SimpleGUICS2Pygame_simpleguics2pygame__fonts&#45;&gt;SimpleGUICS2Pygame_simpleguics2pygame_control</title><style>.edge>path:hover{stroke-width:8}</style>
<path fill="none" stroke="black" d="M416.245,-517.121C415.982,-509.083 415.692,-500.181 415.414,-491.639"/>
<polygon fill="#b62020" stroke="black" points="418.906,-491.359 415.082,-481.479 411.91,-491.587 418.906,-491.359"/>
</g>
<!-- SimpleGUICS2Pygame_simpleguics2pygame__fonts&#45;&gt;SimpleGUICS2Pygame_simpleguics2pygame_frame -->
<g id="edge19" class="edge"><title>SimpleGUICS2Pygame_simpleguics2pygame__fonts&#45;&gt;SimpleGUICS2Pygame_simpleguics2pygame_frame</title><style>.edge>path:hover{stroke-width:8}</style>
<path fill="none" stroke="black" d="M355.773,-525.28C323.096,-510.529 290.964,-487.078 298.161,-453.236"/>
<path fill="none" stroke="black" d="M298.161,-451.236C301.289,-436.529 304.71,-431.674 317.161,-423.245 427.18,-348.766 525.792,-462.698 609.161,-359.253"/>
<path fill="none" stroke="black" d="M609.161,-357.253C613.31,-352.105 630.289,-325.042 644.813,-301.593"/>
<polygon fill="#b62020" stroke="black" points="647.945,-303.183 650.227,-292.837 641.991,-299.502 647.945,-303.183"/>
</g>
<!-- SimpleGUICS2Pygame_simpleguics2pygame__fonts&#45;&gt;SimpleGUICS2Pygame_simpleguics2pygame_canvas -->
<g id="edge17" class="edge"><title>SimpleGUICS2Pygame_simpleguics2pygame__fonts&#45;&gt;SimpleGUICS2Pygame_simpleguics2pygame_canvas</title><style>.edge>path:hover{stroke-width:8}</style>
<path fill="none" stroke="black" d="M298.161,-451.236C301.289,-436.529 304.31,-431.05 317.161,-423.245 434.205,-352.162 488.752,-413.439 623.161,-387.245 632.391,-385.446 642.01,-383.247 651.493,-380.879"/>
<polygon fill="#b62020" stroke="black" points="652.489,-384.237 661.304,-378.361 650.748,-377.457 652.489,-384.237"/>
</g>
<!-- SimpleGUICS2Pygame_simpleguics2pygame_keys -->
<g id="node14" class="node"><title>SimpleGUICS2Pygame_simpleguics2pygame_keys</title><style>.edge>path:hover{stroke-width:8}</style>
<ellipse fill="#ce3b3b" stroke="black" cx="957.161" cy="-358.253" rx="88.2768" ry="28.9828"/>
<text text-anchor="middle" x="957.161" y="-366.753" font-family="Helvetica,sans-Serif" font-size="10.00" fill="#ffffff">SimpleGUICS2Pygame.</text>
<text text-anchor="middle" x="957.161" y="-355.753" font-family="Helvetica,sans-Serif" font-size="10.00" fill="#ffffff">simpleguics2pygame.</text>
<text text-anchor="middle" x="957.161" y="-344.753" font-family="Helvetica,sans-Serif" font-size="10.00" fill="#ffffff">keys</text>
</g>
<!-- SimpleGUICS2Pygame_simpleguics2pygame_keys&#45;&gt;SimpleGUICS2Pygame_simpleguics2pygame -->
<g id="edge41" class="edge"><title>SimpleGUICS2Pygame_simpleguics2pygame_keys&#45;&gt;SimpleGUICS2Pygame_simpleguics2pygame</title><style>.edge>path:hover{stroke-width:8}</style>
<path fill="none" stroke="black" d="M1016.8,-336.79C1048.06,-321.95 1078.83,-298.591 1073.16,-265.271"/>
</g>
<!-- SimpleGUICS2Pygame_simpleguics2pygame_keys&#45;&gt;SimpleGUICS2Pygame_simpleguics2pygame_frame -->
<g id="edge42" class="edge"><title>SimpleGUICS2Pygame_simpleguics2pygame_keys&#45;&gt;SimpleGUICS2Pygame_simpleguics2pygame_frame</title><style>.edge>path:hover{stroke-width:8}</style>
<path fill="none" stroke="black" d="M894.949,-337.521C849.172,-323.001 786.841,-303.231 738.952,-288.041"/>
<polygon fill="#ce3b3b" stroke="black" points="739.861,-284.658 729.27,-284.971 737.744,-291.33 739.861,-284.658"/>
</g>
<!-- SimpleGUICS2Pygame_simpleguics2pygame__colors -->
<g id="node15" class="node"><title>SimpleGUICS2Pygame_simpleguics2pygame__colors</title><style>.edge>path:hover{stroke-width:8}</style>
<ellipse fill="#bf2121" stroke="black" cx="882.161" cy="-546.219" rx="88.2768" ry="28.9828"/>
<text text-anchor="middle" x="882.161" y="-554.719" font-family="Helvetica,sans-Serif" font-size="10.00" fill="#ffffff">SimpleGUICS2Pygame.</text>
<text text-anchor="middle" x="882.161" y="-543.719" font-family="Helvetica,sans-Serif" font-size="10.00" fill="#ffffff">simpleguics2pygame.</text>
<text text-anchor="middle" x="882.161" y="-532.719" font-family="Helvetica,sans-Serif" font-size="10.00" fill="#ffffff">_colors</text>
</g>
<!-- SimpleGUICS2Pygame_simpleguics2pygame__colors&#45;&gt;SimpleGUICS2Pygame_simpleguics2pygame_control -->
<g id="edge15" class="edge"><title>SimpleGUICS2Pygame_simpleguics2pygame__colors&#45;&gt;SimpleGUICS2Pygame_simpleguics2pygame_control</title><style>.edge>path:hover{stroke-width:8}</style>
<path fill="none" stroke="black" d="M819.239,-525.776C807.647,-522.615 795.595,-519.604 784.161,-517.227 664.769,-492.415 631.553,-506.04 512.161,-481.227 503.943,-479.52 495.405,-477.484 486.949,-475.3"/>
<polygon fill="#bf2121" stroke="black" points="487.647,-471.864 477.083,-472.679 485.85,-478.629 487.647,-471.864"/>
</g>
<!-- SimpleGUICS2Pygame_simpleguics2pygame__colors&#45;&gt;SimpleGUICS2Pygame_simpleguics2pygame_frame -->
<g id="edge16" class="edge"><title>SimpleGUICS2Pygame_simpleguics2pygame__colors&#45;&gt;SimpleGUICS2Pygame_simpleguics2pygame_frame</title><style>.edge>path:hover{stroke-width:8}</style>
<path fill="none" stroke="black" d="M940.022,-524.24C969.433,-509.481 998.893,-486.384 998.161,-453.236"/>
</g>
<!-- SimpleGUICS2Pygame_simpleguics2pygame__colors&#45;&gt;SimpleGUICS2Pygame_simpleguics2pygame_canvas -->
<g id="edge14" class="edge"><title>SimpleGUICS2Pygame_simpleguics2pygame__colors&#45;&gt;SimpleGUICS2Pygame_simpleguics2pygame_canvas</title><style>.edge>path:hover{stroke-width:8}</style>
<path fill="none" stroke="black" d="M925.273,-520.853C950.039,-503.464 973.768,-478.726 960.161,-453.236"/>
<path fill="none" stroke="black" d="M960.161,-451.236C951.939,-435.833 862.835,-403.946 796.767,-382.077"/>
<polygon fill="#bf2121" stroke="black" points="797.792,-378.73 787.199,-378.927 795.603,-385.379 797.792,-378.73"/>
</g>
<!-- SimpleGUICS2Pygame_simpleguics2pygame_frame&#45;&gt;SimpleGUICS2Pygame_simpleguics2pygame -->
<g id="edge37" class="edge"><title>SimpleGUICS2Pygame_simpleguics2pygame_frame&#45;&gt;SimpleGUICS2Pygame_simpleguics2pygame</title><style>.edge>path:hover{stroke-width:8}</style>
<path fill="none" stroke="black" d="M667.161,-235.232C667.161,-227.024 667.161,-218.01 667.161,-209.653"/>
<polygon fill="#732626" stroke="black" points="670.661,-209.527 667.161,-199.527 663.661,-209.527 670.661,-209.527"/>
</g>
<!-- SimpleGUICS2Pygame_simpleguics2pygame__pygame_init -->
<g id="node17" class="node"><title>SimpleGUICS2Pygame_simpleguics2pygame__pygame_init</title><style>.edge>path:hover{stroke-width:8}</style>
<ellipse fill="#d10505" stroke="black" cx="766.161" cy="-640.202" rx="88.2768" ry="28.9828"/>
<text text-anchor="middle" x="766.161" y="-648.702" font-family="Helvetica,sans-Serif" font-size="10.00" fill="#ffffff">SimpleGUICS2Pygame.</text>
<text text-anchor="middle" x="766.161" y="-637.702" font-family="Helvetica,sans-Serif" font-size="10.00" fill="#ffffff">simpleguics2pygame.</text>
<text text-anchor="middle" x="766.161" y="-626.702" font-family="Helvetica,sans-Serif" font-size="10.00" fill="#ffffff">_pygame_init</text>
</g>
<!-- SimpleGUICS2Pygame_simpleguics2pygame__pygame_init&#45;&gt;SimpleGUICS2Pygame_simpleguics2pygame__joypads -->
<g id="edge27" class="edge"><title>SimpleGUICS2Pygame_simpleguics2pygame__pygame_init&#45;&gt;SimpleGUICS2Pygame_simpleguics2pygame__joypads</title><style>.edge>path:hover{stroke-width:8}</style>
<path fill="none" stroke="black" d="M742.886,-612.101C734.841,-602.735 725.71,-592.103 717.201,-582.195"/>
<polygon fill="#d10505" stroke="black" points="719.714,-579.749 710.543,-574.443 714.403,-584.31 719.714,-579.749"/>
</g>
<!-- SimpleGUICS2Pygame_simpleguics2pygame__pygame_init&#45;&gt;SimpleGUICS2Pygame_simpleguics2pygame_control -->
<g id="edge30" class="edge"><title>SimpleGUICS2Pygame_simpleguics2pygame__pygame_init&#45;&gt;SimpleGUICS2Pygame_simpleguics2pygame_control</title><style>.edge>path:hover{stroke-width:8}</style>
<path fill="none" stroke="black" d="M692.956,-623.636C659.181,-613.824 620.047,-598.481 590.161,-575.21 578.298,-565.973 578.358,-560.421 571.161,-547.219"/>
<path fill="none" stroke="black" d="M571.161,-545.219C553.477,-512.779 519.183,-490.781 487.146,-476.456"/>
<polygon fill="#d10505" stroke="black" points="488.314,-473.148 477.743,-472.435 485.561,-479.585 488.314,-473.148"/>
</g>
<!-- SimpleGUICS2Pygame_simpleguics2pygame__pygame_init&#45;&gt;SimpleGUICS2Pygame_simpleguics2pygame__media -->
<g id="edge28" class="edge"><title>SimpleGUICS2Pygame_simpleguics2pygame__pygame_init&#45;&gt;SimpleGUICS2Pygame_simpleguics2pygame__media</title><style>.edge>path:hover{stroke-width:8}</style>
<path fill="none" stroke="black" d="M684.76,-628.87C575.682,-614.794 387.958,-589.686 320.161,-575.21 312.015,-573.471 303.55,-571.424 295.16,-569.243"/>
<polygon fill="#d10505" stroke="black" points="295.933,-565.827 285.369,-566.63 294.128,-572.59 295.933,-565.827"/>
</g>
<!-- SimpleGUICS2Pygame_simpleguics2pygame__pygame_init&#45;&gt;SimpleGUICS2Pygame_simpleguics2pygame_image -->
<g id="edge32" class="edge"><title>SimpleGUICS2Pygame_simpleguics2pygame__pygame_init&#45;&gt;SimpleGUICS2Pygame_simpleguics2pygame_image</title><style>.edge>path:hover{stroke-width:8}</style>
<path fill="none" stroke="black" d="M571.161,-545.219C561.443,-527.391 568.654,-506.548 579.3,-489.214"/>
<polygon fill="#d10505" stroke="black" points="582.472,-490.766 585.109,-480.505 576.649,-486.882 582.472,-490.766"/>
</g>
<!-- SimpleGUICS2Pygame_simpleguics2pygame__pygame_init&#45;&gt;SimpleGUICS2Pygame_simpleguics2pygame -->
<g id="edge24" class="edge"><title>SimpleGUICS2Pygame_simpleguics2pygame__pygame_init&#45;&gt;SimpleGUICS2Pygame_simpleguics2pygame</title><style>.edge>path:hover{stroke-width:8}</style>
<path fill="none" stroke="black" d="M832.218,-620.837C844.168,-617.582 856.526,-614.261 868.161,-611.21 931.974,-594.48 966.104,-622.441 1012.16,-575.21 1110.18,-474.697 1096.69,-403.678 1073.16,-265.271"/>
</g>
<!-- SimpleGUICS2Pygame_simpleguics2pygame__pygame_init&#45;&gt;SimpleGUICS2Pygame_simpleguics2pygame__fonts -->
<g id="edge26" class="edge"><title>SimpleGUICS2Pygame_simpleguics2pygame__pygame_init&#45;&gt;SimpleGUICS2Pygame_simpleguics2pygame__fonts</title><style>.edge>path:hover{stroke-width:8}</style>
<path fill="none" stroke="black" d="M698.457,-621.357C640.06,-605.966 555.735,-583.742 494.654,-567.643"/>
<polygon fill="#d10505" stroke="black" points="495.239,-564.178 484.677,-565.013 493.455,-570.947 495.239,-564.178"/>
</g>
<!-- SimpleGUICS2Pygame_simpleguics2pygame__pygame_init&#45;&gt;SimpleGUICS2Pygame_simpleguics2pygame__colors -->
<g id="edge25" class="edge"><title>SimpleGUICS2Pygame_simpleguics2pygame__pygame_init&#45;&gt;SimpleGUICS2Pygame_simpleguics2pygame__colors</title><style>.edge>path:hover{stroke-width:8}</style>
<path fill="none" stroke="black" d="M799.092,-613.089C812.194,-602.7 827.41,-590.634 841.212,-579.69"/>
<polygon fill="#d10505" stroke="black" points="843.487,-582.352 849.148,-573.397 839.138,-576.868 843.487,-582.352"/>
</g>
<!-- SimpleGUICS2Pygame_simpleguics2pygame__pygame_init&#45;&gt;SimpleGUICS2Pygame_simpleguics2pygame_frame -->
<g id="edge31" class="edge"><title>SimpleGUICS2Pygame_simpleguics2pygame__pygame_init&#45;&gt;SimpleGUICS2Pygame_simpleguics2pygame_frame</title><style>.edge>path:hover{stroke-width:8}</style>
<path fill="none" stroke="black" d="M571.161,-545.219C563.964,-532.017 578.08,-526.179 590.161,-517.227 643.511,-477.697 709.703,-517.811 725.161,-453.236"/>
<path fill="none" stroke="black" d="M725.161,-451.236C740.479,-387.247 567.873,-410.484 609.161,-359.253"/>
</g>
<!-- SimpleGUICS2Pygame_simpleguics2pygame__pygame_init&#45;&gt;SimpleGUICS2Pygame_simpleguics2pygame_canvas -->
<g id="edge29" class="edge"><title>SimpleGUICS2Pygame_simpleguics2pygame__pygame_init&#45;&gt;SimpleGUICS2Pygame_simpleguics2pygame_canvas</title><style>.edge>path:hover{stroke-width:8}</style>
<path fill="none" stroke="black" d="M725.161,-451.236C729.278,-434.037 729.833,-414.506 729.138,-397.878"/>
<polygon fill="#d10505" stroke="black" points="732.604,-397.202 728.525,-387.424 725.616,-397.612 732.604,-397.202"/>
</g>
<!-- SimpleGUICS2Pygame_simpleguics2pygame_canvas&#45;&gt;SimpleGUICS2Pygame_simpleguics2pygame -->
<g id="edge33" class="edge"><title>SimpleGUICS2Pygame_simpleguics2pygame_canvas&#45;&gt;SimpleGUICS2Pygame_simpleguics2pygame</title><style>.edge>path:hover{stroke-width:8}</style>
<path fill="none" stroke="black" d="M798.303,-341.691C901.07,-319.308 1075.53,-279.19 1073.16,-265.271"/>
<path fill="none" stroke="black" d="M1073.16,-263.271C1062.76,-202.07 882.087,-185.113 765.298,-180.563"/>
<polygon fill="#9b2626" stroke="black" points="765.376,-177.064 755.255,-180.196 765.12,-184.059 765.376,-177.064"/>
</g>
<!-- SimpleGUICS2Pygame_simpleguics2pygame_canvas&#45;&gt;SimpleGUICS2Pygame_simpleguics2pygame_frame -->
<g id="edge34" class="edge"><title>SimpleGUICS2Pygame_simpleguics2pygame_canvas&#45;&gt;SimpleGUICS2Pygame_simpleguics2pygame_frame</title><style>.edge>path:hover{stroke-width:8}</style>
<path fill="none" stroke="black" d="M707.759,-329.655C702.196,-320.833 695.951,-310.929 690.059,-301.584"/>
<polygon fill="#9b2626" stroke="black" points="692.845,-299.441 684.551,-292.849 686.924,-303.175 692.845,-299.441"/>
</g>
<!-- SimpleGUICS2Pygame_simpleplot -->
<g id="node19" class="node"><title>SimpleGUICS2Pygame_simpleplot</title><style>.edge>path:hover{stroke-width:8}</style>
<ellipse fill="#ac4949" stroke="black" cx="882.161" cy="-726.406" rx="88.2768" ry="21.4286"/>
<text text-anchor="middle" x="882.161" y="-729.406" font-family="Helvetica,sans-Serif" font-size="10.00" fill="#ffffff">SimpleGUICS2Pygame.</text>
<text text-anchor="middle" x="882.161" y="-718.406" font-family="Helvetica,sans-Serif" font-size="10.00" fill="#ffffff">simpleplot</text>
</g>
<!-- matplotlib -->
<g id="node21" class="node"><title>matplotlib</title><style>.edge>path:hover{stroke-width:8}</style>
<polygon fill="#4cb34c" stroke="black" points="911.661,-856.619 908.661,-860.619 887.661,-860.619 884.661,-856.619 852.661,-856.619 852.661,-820.619 911.661,-820.619 911.661,-856.619"/>
<text text-anchor="middle" x="882.161" y="-836.119" font-family="Helvetica,sans-Serif" font-size="10.00" fill="#000000">matplotlib</text>
</g>
<!-- matplotlib&#45;&gt;SimpleGUICS2Pygame_simpleplot -->
<g id="edge46" class="edge"><title>matplotlib&#45;&gt;SimpleGUICS2Pygame_simpleplot</title><style>.edge>path:hover{stroke-width:8}</style>
<path fill="none" stroke="black" d="M882.161,-820.399C882.161,-803.771 882.161,-778.225 882.161,-758.112"/>
<polygon fill="#4cb34c" stroke="black" points="885.661,-757.878 882.161,-747.878 878.661,-757.878 885.661,-757.878"/>
</g>
<!-- pygame -->
<g id="node22" class="node"><title>pygame</title><style>.edge>path:hover{stroke-width:8}</style>
<polygon fill="#4747c2" stroke="black" points="793.161,-856.619 790.161,-860.619 769.161,-860.619 766.161,-856.619 739.161,-856.619 739.161,-820.619 793.161,-820.619 793.161,-856.619"/>
<text text-anchor="middle" x="766.161" y="-836.119" font-family="Helvetica,sans-Serif" font-size="10.00" fill="#ffffff">pygame</text>
</g>
<!-- pygame&#45;&gt;SimpleGUICS2Pygame_simpleguics2pygame__joypads -->
<g id="edge49" class="edge"><title>pygame&#45;&gt;SimpleGUICS2Pygame_simpleguics2pygame__joypads</title><style>.edge>path:hover{stroke-width:8}</style>
<path fill="none" stroke="black" d="M766.161,-725.406C763.562,-713.354 775.158,-712.401 785.161,-705.193 827.064,-675.001 865.462,-690.075 882.161,-641.202"/>
<path fill="none" stroke="black" d="M882.161,-639.202C887.023,-624.973 875.025,-620.448 863.161,-611.21 846.537,-598.266 801.632,-582.026 761.345,-569.145"/>
<polygon fill="#4747c2" stroke="black" points="762.351,-565.793 751.761,-566.116 760.241,-572.467 762.351,-565.793"/>
</g>
<!-- pygame&#45;&gt;SimpleGUICS2Pygame_simpleguics2pygame_control -->
<g id="edge53" class="edge"><title>pygame&#45;&gt;SimpleGUICS2Pygame_simpleguics2pygame_control</title><style>.edge>path:hover{stroke-width:8}</style>
<path fill="none" stroke="black" d="M533.161,-639.202C484.22,-614.405 544.138,-563.179 514.161,-517.227 504.559,-502.508 490.259,-490.495 475.457,-481.018"/>
<polygon fill="#4747c2" stroke="black" points="477.083,-477.912 466.715,-475.73 473.46,-483.901 477.083,-477.912"/>
</g>
<!-- pygame&#45;&gt;SimpleGUICS2Pygame_simpleguics2pygame__media -->
<g id="edge50" class="edge"><title>pygame&#45;&gt;SimpleGUICS2Pygame_simpleguics2pygame__media</title><style>.edge>path:hover{stroke-width:8}</style>
<path fill="none" stroke="black" d="M768.362,-820.58C770.687,-798.721 773.14,-759.764 766.161,-727.406"/>
<path fill="none" stroke="black" d="M766.161,-725.406C753.16,-671.908 582.272,-666.085 533.161,-641.202"/>
<path fill="none" stroke="black" d="M533.161,-639.202C522.359,-633.729 385.604,-594.065 297.074,-568.64"/>
<polygon fill="#4747c2" stroke="black" points="297.908,-565.239 287.33,-565.844 295.976,-571.967 297.908,-565.239"/>
</g>
<!-- pygame&#45;&gt;SimpleGUICS2Pygame_simpleguics2pygame__fonts -->
<g id="edge48" class="edge"><title>pygame&#45;&gt;SimpleGUICS2Pygame_simpleguics2pygame__fonts</title><style>.edge>path:hover{stroke-width:8}</style>
<path fill="none" stroke="black" d="M533.161,-639.202C503.349,-624.097 473.894,-600.605 452.125,-581.143"/>
<polygon fill="#4747c2" stroke="black" points="454.22,-578.317 444.467,-574.179 449.51,-583.496 454.22,-578.317"/>
</g>
<!-- pygame&#45;&gt;SimpleGUICS2Pygame_simpleguics2pygame__colors -->
<g id="edge47" class="edge"><title>pygame&#45;&gt;SimpleGUICS2Pygame_simpleguics2pygame__colors</title><style>.edge>path:hover{stroke-width:8}</style>
<path fill="none" stroke="black" d="M882.161,-639.202C887.976,-622.182 888.675,-602.335 887.633,-585.442"/>
<polygon fill="#4747c2" stroke="black" points="891.111,-585.031 886.79,-575.357 884.136,-585.614 891.111,-585.031"/>
</g>
<!-- pygame&#45;&gt;SimpleGUICS2Pygame_simpleguics2pygame_frame -->
<g id="edge54" class="edge"><title>pygame&#45;&gt;SimpleGUICS2Pygame_simpleguics2pygame_frame</title><style>.edge>path:hover{stroke-width:8}</style>
<path fill="none" stroke="black" d="M998.161,-545.219C1011.99,-506.749 999.064,-494.107 998.161,-453.236"/>
</g>
<!-- pygame&#45;&gt;SimpleGUICS2Pygame_simpleguics2pygame__pygame_init -->
<g id="edge51" class="edge"><title>pygame&#45;&gt;SimpleGUICS2Pygame_simpleguics2pygame__pygame_init</title><style>.edge>path:hover{stroke-width:8}</style>
<path fill="none" stroke="black" d="M766.161,-725.406C762.962,-710.572 762.357,-693.923 762.769,-679.37"/>
<polygon fill="#4747c2" stroke="black" points="766.273,-679.347 763.225,-669.2 759.28,-679.033 766.273,-679.347"/>
</g>
<!-- pygame&#45;&gt;SimpleGUICS2Pygame_simpleguics2pygame_canvas -->
<g id="edge52" class="edge"><title>pygame&#45;&gt;SimpleGUICS2Pygame_simpleguics2pygame_canvas</title><style>.edge>path:hover{stroke-width:8}</style>
<path fill="none" stroke="black" d="M882.161,-639.202C898.861,-590.329 942.401,-611.489 979.161,-575.21 989.863,-564.649 993.073,-561.368 998.161,-547.219"/>
<path fill="none" stroke="black" d="M998.161,-545.219C1013.13,-503.596 980.991,-492.257 960.161,-453.236"/>
</g>
</g>
</svg>
