<?xml version="1.0" encoding="UTF-8" standalone="no"?>
<!DOCTYPE svg PUBLIC "-//W3C//DTD SVG 1.1//EN"
 "http://www.w3.org/Graphics/SVG/1.1/DTD/svg11.dtd">
<!-- Generated by graphviz version 2.38.0 (20140413.2041)
 -->
<!-- Title: G Pages: 1 -->
<svg width="1206pt" height="520pt"
 viewBox="0.00 0.00 1205.88 520.34" xmlns="http://www.w3.org/2000/svg" xmlns:xlink="http://www.w3.org/1999/xlink">
<g id="graph0" class="graph" transform="scale(1 1) rotate(0) translate(4 516.34)">
<title>G</title><style>.edge>path:hover{stroke-width:8}</style>
<polygon fill="white" stroke="none" points="-4,4 -4,-516.34 1201.88,-516.34 1201.88,4 -4,4"/>
<!-- SimpleGUICS2Pygame_simpleguics2pygame -->
<g id="node1" class="node"><title>SimpleGUICS2Pygame_simpleguics2pygame</title><style>.edge>path:hover{stroke-width:8}</style>
<ellipse fill="#9f0404" stroke="black" cx="540.066" cy="-21.2132" rx="88.2768" ry="21.4286"/>
<text text-anchor="middle" x="540.066" y="-24.2132" font-family="Helvetica,sans-Serif" font-size="10.00" fill="#ffffff">SimpleGUICS2Pygame.</text>
<text text-anchor="middle" x="540.066" y="-13.2132" font-family="Helvetica,sans-Serif" font-size="10.00" fill="#ffffff">simpleguics2pygame</text>
</g>
<!-- SimpleGUICS2Pygame_simpleguics2pygame_canvas -->
<g id="node2" class="node"><title>SimpleGUICS2Pygame_simpleguics2pygame_canvas</title><style>.edge>path:hover{stroke-width:8}</style>
<ellipse fill="#a13535" stroke="black" cx="627.066" cy="-201.401" rx="88.2768" ry="28.9828"/>
<text text-anchor="middle" x="627.066" y="-209.901" font-family="Helvetica,sans-Serif" font-size="10.00" fill="#ffffff">SimpleGUICS2Pygame.</text>
<text text-anchor="middle" x="627.066" y="-198.901" font-family="Helvetica,sans-Serif" font-size="10.00" fill="#ffffff">simpleguics2pygame.</text>
<text text-anchor="middle" x="627.066" y="-187.901" font-family="Helvetica,sans-Serif" font-size="10.00" fill="#ffffff">canvas</text>
</g>
<!-- SimpleGUICS2Pygame_simpleguics2pygame_canvas&#45;&gt;SimpleGUICS2Pygame_simpleguics2pygame -->
<g id="edge26" class="edge"><title>SimpleGUICS2Pygame_simpleguics2pygame_canvas&#45;&gt;SimpleGUICS2Pygame_simpleguics2pygame</title><style>.edge>path:hover{stroke-width:8}</style>
<path fill="none" stroke="black" d="M711.591,-192.907C807.387,-181.899 942.492,-157.156 879.066,-108.418"/>
<path fill="none" stroke="black" d="M879.066,-106.418C809.604,-53.0414 710.592,-33.0917 637.497,-25.8404"/>
<polygon fill="#a13535" stroke="black" points="637.642,-22.3388 627.361,-24.8993 636.994,-29.3088 637.642,-22.3388"/>
</g>
<!-- SimpleGUICS2Pygame_simpleguics2pygame_frame -->
<g id="node7" class="node"><title>SimpleGUICS2Pygame_simpleguics2pygame_frame</title><style>.edge>path:hover{stroke-width:8}</style>
<ellipse fill="#6b2e2e" stroke="black" cx="540.066" cy="-107.418" rx="88.2768" ry="28.9828"/>
<text text-anchor="middle" x="540.066" y="-115.918" font-family="Helvetica,sans-Serif" font-size="10.00" fill="#ffffff">SimpleGUICS2Pygame.</text>
<text text-anchor="middle" x="540.066" y="-104.918" font-family="Helvetica,sans-Serif" font-size="10.00" fill="#ffffff">simpleguics2pygame.</text>
<text text-anchor="middle" x="540.066" y="-93.9178" font-family="Helvetica,sans-Serif" font-size="10.00" fill="#ffffff">frame</text>
</g>
<!-- SimpleGUICS2Pygame_simpleguics2pygame_canvas&#45;&gt;SimpleGUICS2Pygame_simpleguics2pygame_frame -->
<g id="edge27" class="edge"><title>SimpleGUICS2Pygame_simpleguics2pygame_canvas&#45;&gt;SimpleGUICS2Pygame_simpleguics2pygame_frame</title><style>.edge>path:hover{stroke-width:8}</style>
<path fill="none" stroke="black" d="M601.434,-173.3C592.407,-163.756 582.138,-152.899 572.617,-142.833"/>
<polygon fill="#a13535" stroke="black" points="574.929,-140.185 565.515,-135.324 569.844,-144.995 574.929,-140.185"/>
</g>
<!-- SimpleGUICS2Pygame_simpleguics2pygame_image -->
<g id="node3" class="node"><title>SimpleGUICS2Pygame_simpleguics2pygame_image</title><style>.edge>path:hover{stroke-width:8}</style>
<ellipse fill="#bc2f2f" stroke="black" cx="801.066" cy="-295.383" rx="88.2768" ry="28.9828"/>
<text text-anchor="middle" x="801.066" y="-303.883" font-family="Helvetica,sans-Serif" font-size="10.00" fill="#ffffff">SimpleGUICS2Pygame.</text>
<text text-anchor="middle" x="801.066" y="-292.883" font-family="Helvetica,sans-Serif" font-size="10.00" fill="#ffffff">simpleguics2pygame.</text>
<text text-anchor="middle" x="801.066" y="-281.883" font-family="Helvetica,sans-Serif" font-size="10.00" fill="#ffffff">image</text>
</g>
<!-- SimpleGUICS2Pygame_simpleguics2pygame_image&#45;&gt;SimpleGUICS2Pygame_simpleguics2pygame -->
<g id="edge31" class="edge"><title>SimpleGUICS2Pygame_simpleguics2pygame_image&#45;&gt;SimpleGUICS2Pygame_simpleguics2pygame</title><style>.edge>path:hover{stroke-width:8}</style>
<path fill="none" stroke="black" d="M879.066,-200.401C871.51,-160.224 911.482,-133.327 879.066,-108.418"/>
</g>
<!-- SimpleGUICS2Pygame_simpleguics2pygame_image&#45;&gt;SimpleGUICS2Pygame_simpleguics2pygame_canvas -->
<g id="edge32" class="edge"><title>SimpleGUICS2Pygame_simpleguics2pygame_image&#45;&gt;SimpleGUICS2Pygame_simpleguics2pygame_canvas</title><style>.edge>path:hover{stroke-width:8}</style>
<path fill="none" stroke="black" d="M755.804,-270.456C733.035,-258.42 705.269,-243.742 681.36,-231.102"/>
<polygon fill="#bc2f2f" stroke="black" points="682.88,-227.947 672.403,-226.368 679.608,-234.135 682.88,-227.947"/>
</g>
<!-- SimpleGUICS2Pygame_simpleguics2pygame_image&#45;&gt;SimpleGUICS2Pygame_simpleguics2pygame_frame -->
<g id="edge33" class="edge"><title>SimpleGUICS2Pygame_simpleguics2pygame_image&#45;&gt;SimpleGUICS2Pygame_simpleguics2pygame_frame</title><style>.edge>path:hover{stroke-width:8}</style>
<path fill="none" stroke="black" d="M842.321,-269.289C863.592,-252.811 884.135,-229.357 879.066,-202.401"/>
<path fill="none" stroke="black" d="M879.066,-200.401C869.799,-151.128 732.579,-127.203 635.599,-116.392"/>
<polygon fill="#bc2f2f" stroke="black" points="635.781,-112.891 625.462,-115.293 635.026,-119.851 635.781,-112.891"/>
</g>
<!-- SimpleGUICS2Pygame_simpleguics2pygame_keys -->
<g id="node4" class="node"><title>SimpleGUICS2Pygame_simpleguics2pygame_keys</title><style>.edge>path:hover{stroke-width:8}</style>
<ellipse fill="#c24747" stroke="black" cx="105.066" cy="-201.401" rx="88.2768" ry="28.9828"/>
<text text-anchor="middle" x="105.066" y="-209.901" font-family="Helvetica,sans-Serif" font-size="10.00" fill="#ffffff">SimpleGUICS2Pygame.</text>
<text text-anchor="middle" x="105.066" y="-198.901" font-family="Helvetica,sans-Serif" font-size="10.00" fill="#ffffff">simpleguics2pygame.</text>
<text text-anchor="middle" x="105.066" y="-187.901" font-family="Helvetica,sans-Serif" font-size="10.00" fill="#ffffff">keys</text>
</g>
<!-- SimpleGUICS2Pygame_simpleguics2pygame_keys&#45;&gt;SimpleGUICS2Pygame_simpleguics2pygame -->
<g id="edge34" class="edge"><title>SimpleGUICS2Pygame_simpleguics2pygame_keys&#45;&gt;SimpleGUICS2Pygame_simpleguics2pygame</title><style>.edge>path:hover{stroke-width:8}</style>
<path fill="none" stroke="black" d="M98.4252,-172.165C95.4613,-153.049 94.6474,-127.837 105.066,-108.418"/>
</g>
<!-- SimpleGUICS2Pygame_simpleguics2pygame_keys&#45;&gt;SimpleGUICS2Pygame_simpleguics2pygame_frame -->
<g id="edge35" class="edge"><title>SimpleGUICS2Pygame_simpleguics2pygame_keys&#45;&gt;SimpleGUICS2Pygame_simpleguics2pygame_frame</title><style>.edge>path:hover{stroke-width:8}</style>
<path fill="none" stroke="black" d="M170.169,-181.721C182.386,-178.448 195.083,-175.2 207.066,-172.409 289.824,-153.133 385.121,-135.251 452.508,-123.318"/>
<polygon fill="#c24747" stroke="black" points="453.42,-126.712 462.66,-121.528 452.204,-119.818 453.42,-126.712"/>
</g>
<!-- SimpleGUICS2Pygame_simpleguics2pygame__pygame_init -->
<g id="node5" class="node"><title>SimpleGUICS2Pygame_simpleguics2pygame__pygame_init</title><style>.edge>path:hover{stroke-width:8}</style>
<ellipse fill="#f91010" stroke="black" cx="453.066" cy="-483.349" rx="88.2768" ry="28.9828"/>
<text text-anchor="middle" x="453.066" y="-491.849" font-family="Helvetica,sans-Serif" font-size="10.00" fill="#ffffff">SimpleGUICS2Pygame.</text>
<text text-anchor="middle" x="453.066" y="-480.849" font-family="Helvetica,sans-Serif" font-size="10.00" fill="#ffffff">simpleguics2pygame.</text>
<text text-anchor="middle" x="453.066" y="-469.849" font-family="Helvetica,sans-Serif" font-size="10.00" fill="#ffffff">_pygame_init</text>
</g>
<!-- SimpleGUICS2Pygame_simpleguics2pygame__pygame_init&#45;&gt;SimpleGUICS2Pygame_simpleguics2pygame -->
<g id="edge17" class="edge"><title>SimpleGUICS2Pygame_simpleguics2pygame__pygame_init&#45;&gt;SimpleGUICS2Pygame_simpleguics2pygame</title><style>.edge>path:hover{stroke-width:8}</style>
<path fill="none" stroke="black" d="M365.994,-478.014C305.303,-471.587 224.523,-455.969 163.066,-418.357 70.709,-361.834 44.6642,-332.3 8.06588,-230.392 -0.644316,-206.138 -4.14885,-195.101 8.06588,-172.409 32.546,-126.932 80.649,-153.929 105.066,-108.418"/>
<path fill="none" stroke="black" d="M105.066,-106.418C135.113,-47.0679 323.121,-29.4777 441.931,-24.3109"/>
<polygon fill="#f91010" stroke="black" points="442.29,-27.7991 452.137,-23.89 442.002,-20.8051 442.29,-27.7991"/>
</g>
<!-- SimpleGUICS2Pygame_simpleguics2pygame__pygame_init&#45;&gt;SimpleGUICS2Pygame_simpleguics2pygame_canvas -->
<g id="edge22" class="edge"><title>SimpleGUICS2Pygame_simpleguics2pygame__pygame_init&#45;&gt;SimpleGUICS2Pygame_simpleguics2pygame_canvas</title><style>.edge>path:hover{stroke-width:8}</style>
<path fill="none" stroke="black" d="M453.066,-388.366C454.538,-289.53 607.077,-403.69 666.066,-324.375 684.9,-299.051 670.855,-264.308 654.604,-238.377"/>
<polygon fill="#f91010" stroke="black" points="657.475,-236.374 649.052,-229.948 651.629,-240.224 657.475,-236.374"/>
</g>
<!-- SimpleGUICS2Pygame_simpleguics2pygame__pygame_init&#45;&gt;SimpleGUICS2Pygame_simpleguics2pygame_image -->
<g id="edge25" class="edge"><title>SimpleGUICS2Pygame_simpleguics2pygame__pygame_init&#45;&gt;SimpleGUICS2Pygame_simpleguics2pygame_image</title><style>.edge>path:hover{stroke-width:8}</style>
<path fill="none" stroke="black" d="M498.204,-458.228C562.094,-424.086 678.717,-361.765 747.098,-325.223"/>
<polygon fill="#f91010" stroke="black" points="748.838,-328.262 756.008,-320.462 745.538,-322.088 748.838,-328.262"/>
</g>
<!-- SimpleGUICS2Pygame_simpleguics2pygame__pygame_init&#45;&gt;SimpleGUICS2Pygame_simpleguics2pygame_frame -->
<g id="edge24" class="edge"><title>SimpleGUICS2Pygame_simpleguics2pygame__pygame_init&#45;&gt;SimpleGUICS2Pygame_simpleguics2pygame_frame</title><style>.edge>path:hover{stroke-width:8}</style>
<path fill="none" stroke="black" d="M453.066,-388.366C453.066,-305.715 422.915,-279.356 453.066,-202.401"/>
</g>
<!-- SimpleGUICS2Pygame_simpleguics2pygame_control -->
<g id="node8" class="node"><title>SimpleGUICS2Pygame_simpleguics2pygame_control</title><style>.edge>path:hover{stroke-width:8}</style>
<ellipse fill="#a83838" stroke="black" cx="337.066" cy="-201.401" rx="88.2768" ry="28.9828"/>
<text text-anchor="middle" x="337.066" y="-209.901" font-family="Helvetica,sans-Serif" font-size="10.00" fill="#ffffff">SimpleGUICS2Pygame.</text>
<text text-anchor="middle" x="337.066" y="-198.901" font-family="Helvetica,sans-Serif" font-size="10.00" fill="#ffffff">simpleguics2pygame.</text>
<text text-anchor="middle" x="337.066" y="-187.901" font-family="Helvetica,sans-Serif" font-size="10.00" fill="#ffffff">control</text>
</g>
<!-- SimpleGUICS2Pygame_simpleguics2pygame__pygame_init&#45;&gt;SimpleGUICS2Pygame_simpleguics2pygame_control -->
<g id="edge23" class="edge"><title>SimpleGUICS2Pygame_simpleguics2pygame__pygame_init&#45;&gt;SimpleGUICS2Pygame_simpleguics2pygame_control</title><style>.edge>path:hover{stroke-width:8}</style>
<path fill="none" stroke="black" d="M453.066,-454.169C453.066,-435.964 453.066,-411.765 453.066,-390.366"/>
<path fill="none" stroke="black" d="M453.066,-388.366C453.066,-289.519 299.055,-403.69 240.066,-324.375 224.687,-303.696 227.851,-289.083 240.066,-266.392 248.064,-251.534 261.19,-239.553 275.24,-230.157"/>
<polygon fill="#f91010" stroke="black" points="277.445,-232.906 284.07,-224.637 273.735,-226.97 277.445,-232.906"/>
</g>
<!-- SimpleGUICS2Pygame_simpleguics2pygame__joypads -->
<g id="node10" class="node"><title>SimpleGUICS2Pygame_simpleguics2pygame__joypads</title><style>.edge>path:hover{stroke-width:8}</style>
<ellipse fill="#ac4949" stroke="black" cx="260.066" cy="-389.366" rx="88.2768" ry="28.9828"/>
<text text-anchor="middle" x="260.066" y="-397.866" font-family="Helvetica,sans-Serif" font-size="10.00" fill="#ffffff">SimpleGUICS2Pygame.</text>
<text text-anchor="middle" x="260.066" y="-386.866" font-family="Helvetica,sans-Serif" font-size="10.00" fill="#ffffff">simpleguics2pygame.</text>
<text text-anchor="middle" x="260.066" y="-375.866" font-family="Helvetica,sans-Serif" font-size="10.00" fill="#ffffff">_joypads</text>
</g>
<!-- SimpleGUICS2Pygame_simpleguics2pygame__pygame_init&#45;&gt;SimpleGUICS2Pygame_simpleguics2pygame__joypads -->
<g id="edge20" class="edge"><title>SimpleGUICS2Pygame_simpleguics2pygame__pygame_init&#45;&gt;SimpleGUICS2Pygame_simpleguics2pygame__joypads</title><style>.edge>path:hover{stroke-width:8}</style>
<path fill="none" stroke="black" d="M404.364,-459.138C378.078,-446.61 345.462,-431.065 317.892,-417.926"/>
<polygon fill="#f91010" stroke="black" points="319.285,-414.713 308.752,-413.57 316.274,-421.032 319.285,-414.713"/>
</g>
<!-- SimpleGUICS2Pygame_simpleguics2pygame__colors -->
<g id="node12" class="node"><title>SimpleGUICS2Pygame_simpleguics2pygame__colors</title><style>.edge>path:hover{stroke-width:8}</style>
<ellipse fill="#c43131" stroke="black" cx="337.066" cy="-295.383" rx="88.2768" ry="28.9828"/>
<text text-anchor="middle" x="337.066" y="-303.883" font-family="Helvetica,sans-Serif" font-size="10.00" fill="#ffffff">SimpleGUICS2Pygame.</text>
<text text-anchor="middle" x="337.066" y="-292.883" font-family="Helvetica,sans-Serif" font-size="10.00" fill="#ffffff">simpleguics2pygame.</text>
<text text-anchor="middle" x="337.066" y="-281.883" font-family="Helvetica,sans-Serif" font-size="10.00" fill="#ffffff">_colors</text>
</g>
<!-- SimpleGUICS2Pygame_simpleguics2pygame__pygame_init&#45;&gt;SimpleGUICS2Pygame_simpleguics2pygame__colors -->
<g id="edge18" class="edge"><title>SimpleGUICS2Pygame_simpleguics2pygame__pygame_init&#45;&gt;SimpleGUICS2Pygame_simpleguics2pygame__colors</title><style>.edge>path:hover{stroke-width:8}</style>
<path fill="none" stroke="black" d="M453.066,-388.366C453.066,-358.693 429.474,-337.077 403.569,-322.285"/>
<polygon fill="#f91010" stroke="black" points="405.191,-319.183 394.726,-317.528 401.875,-325.348 405.191,-319.183"/>
</g>
<!-- SimpleGUICS2Pygame_simpleguics2pygame__media -->
<g id="node13" class="node"><title>SimpleGUICS2Pygame_simpleguics2pygame__media</title><style>.edge>path:hover{stroke-width:8}</style>
<ellipse fill="#bc2f2f" stroke="black" cx="859.066" cy="-389.366" rx="88.2768" ry="28.9828"/>
<text text-anchor="middle" x="859.066" y="-397.866" font-family="Helvetica,sans-Serif" font-size="10.00" fill="#ffffff">SimpleGUICS2Pygame.</text>
<text text-anchor="middle" x="859.066" y="-386.866" font-family="Helvetica,sans-Serif" font-size="10.00" fill="#ffffff">simpleguics2pygame.</text>
<text text-anchor="middle" x="859.066" y="-375.866" font-family="Helvetica,sans-Serif" font-size="10.00" fill="#ffffff">_media</text>
</g>
<!-- SimpleGUICS2Pygame_simpleguics2pygame__pygame_init&#45;&gt;SimpleGUICS2Pygame_simpleguics2pygame__media -->
<g id="edge21" class="edge"><title>SimpleGUICS2Pygame_simpleguics2pygame__pygame_init&#45;&gt;SimpleGUICS2Pygame_simpleguics2pygame__media</title><style>.edge>path:hover{stroke-width:8}</style>
<path fill="none" stroke="black" d="M524.716,-466.116C595.631,-450.05 704.023,-425.492 778.037,-408.724"/>
<polygon fill="#f91010" stroke="black" points="778.812,-412.137 787.792,-406.514 777.265,-405.31 778.812,-412.137"/>
</g>
<!-- SimpleGUICS2Pygame_simpleguics2pygame__fonts -->
<g id="node14" class="node"><title>SimpleGUICS2Pygame_simpleguics2pygame__fonts</title><style>.edge>path:hover{stroke-width:8}</style>
<ellipse fill="#bc2f2f" stroke="black" cx="569.066" cy="-295.383" rx="88.2768" ry="28.9828"/>
<text text-anchor="middle" x="569.066" y="-303.883" font-family="Helvetica,sans-Serif" font-size="10.00" fill="#ffffff">SimpleGUICS2Pygame.</text>
<text text-anchor="middle" x="569.066" y="-292.883" font-family="Helvetica,sans-Serif" font-size="10.00" fill="#ffffff">simpleguics2pygame.</text>
<text text-anchor="middle" x="569.066" y="-281.883" font-family="Helvetica,sans-Serif" font-size="10.00" fill="#ffffff">_fonts</text>
</g>
<!-- SimpleGUICS2Pygame_simpleguics2pygame__pygame_init&#45;&gt;SimpleGUICS2Pygame_simpleguics2pygame__fonts -->
<g id="edge19" class="edge"><title>SimpleGUICS2Pygame_simpleguics2pygame__pygame_init&#45;&gt;SimpleGUICS2Pygame_simpleguics2pygame__fonts</title><style>.edge>path:hover{stroke-width:8}</style>
<path fill="none" stroke="black" d="M453.066,-388.366C453.066,-358.693 476.658,-337.077 502.563,-322.285"/>
<polygon fill="#f91010" stroke="black" points="504.257,-325.348 511.406,-317.528 500.941,-319.183 504.257,-325.348"/>
</g>
<!-- SimpleGUICS2Pygame_simpleguics2pygame__arguments -->
<g id="node6" class="node"><title>SimpleGUICS2Pygame_simpleguics2pygame__arguments</title><style>.edge>path:hover{stroke-width:8}</style>
<ellipse fill="#f31616" stroke="black" cx="859.066" cy="-483.349" rx="88.2768" ry="28.9828"/>
<text text-anchor="middle" x="859.066" y="-491.849" font-family="Helvetica,sans-Serif" font-size="10.00" fill="#ffffff">SimpleGUICS2Pygame.</text>
<text text-anchor="middle" x="859.066" y="-480.849" font-family="Helvetica,sans-Serif" font-size="10.00" fill="#ffffff">simpleguics2pygame.</text>
<text text-anchor="middle" x="859.066" y="-469.849" font-family="Helvetica,sans-Serif" font-size="10.00" fill="#ffffff">_arguments</text>
</g>
<!-- SimpleGUICS2Pygame_simpleguics2pygame__arguments&#45;&gt;SimpleGUICS2Pygame_simpleguics2pygame -->
<g id="edge1" class="edge"><title>SimpleGUICS2Pygame_simpleguics2pygame__arguments&#45;&gt;SimpleGUICS2Pygame_simpleguics2pygame</title><style>.edge>path:hover{stroke-width:8}</style>
<path fill="none" stroke="black" d="M1071.07,-388.366C1099.23,-345.074 1140.15,-367.826 1168.07,-324.375 1197.72,-278.216 1206.44,-253.732 1187.07,-202.401"/>
</g>
<!-- SimpleGUICS2Pygame_simpleguics2pygame__arguments&#45;&gt;SimpleGUICS2Pygame_simpleguics2pygame_frame -->
<g id="edge4" class="edge"><title>SimpleGUICS2Pygame_simpleguics2pygame__arguments&#45;&gt;SimpleGUICS2Pygame_simpleguics2pygame_frame</title><style>.edge>path:hover{stroke-width:8}</style>
<path fill="none" stroke="black" d="M937.909,-470.227C985.25,-458.434 1041.8,-435.347 1071.07,-390.366"/>
<path fill="none" stroke="black" d="M1071.07,-388.366C1099.23,-345.074 1010.83,-360.653 974.066,-324.375 963.364,-313.813 960.082,-310.558 955.066,-296.383"/>
<path fill="none" stroke="black" d="M955.066,-294.383C947.688,-273.534 932.472,-218.268 917.066,-202.401"/>
</g>
<!-- SimpleGUICS2Pygame_simpleguics2pygame_sound -->
<g id="node9" class="node"><title>SimpleGUICS2Pygame_simpleguics2pygame_sound</title><style>.edge>path:hover{stroke-width:8}</style>
<ellipse fill="#a44646" stroke="black" cx="1071.07" cy="-295.383" rx="88.2768" ry="28.9828"/>
<text text-anchor="middle" x="1071.07" y="-303.883" font-family="Helvetica,sans-Serif" font-size="10.00" fill="#ffffff">SimpleGUICS2Pygame.</text>
<text text-anchor="middle" x="1071.07" y="-292.883" font-family="Helvetica,sans-Serif" font-size="10.00" fill="#ffffff">simpleguics2pygame.</text>
<text text-anchor="middle" x="1071.07" y="-281.883" font-family="Helvetica,sans-Serif" font-size="10.00" fill="#ffffff">sound</text>
</g>
<!-- SimpleGUICS2Pygame_simpleguics2pygame__arguments&#45;&gt;SimpleGUICS2Pygame_simpleguics2pygame_sound -->
<g id="edge5" class="edge"><title>SimpleGUICS2Pygame_simpleguics2pygame__arguments&#45;&gt;SimpleGUICS2Pygame_simpleguics2pygame_sound</title><style>.edge>path:hover{stroke-width:8}</style>
<path fill="none" stroke="black" d="M1071.07,-388.366C1081.26,-372.7 1082.13,-352.134 1080.08,-334.423"/>
<polygon fill="#f31616" stroke="black" points="1083.51,-333.756 1078.58,-324.383 1076.59,-334.79 1083.51,-333.756"/>
</g>
<!-- SimpleGUICS2Pygame_simpleguics2pygame_timer -->
<g id="node11" class="node"><title>SimpleGUICS2Pygame_simpleguics2pygame_timer</title><style>.edge>path:hover{stroke-width:8}</style>
<ellipse fill="#b83d3d" stroke="black" cx="1033.07" cy="-201.401" rx="88.2768" ry="28.9828"/>
<text text-anchor="middle" x="1033.07" y="-209.901" font-family="Helvetica,sans-Serif" font-size="10.00" fill="#ffffff">SimpleGUICS2Pygame.</text>
<text text-anchor="middle" x="1033.07" y="-198.901" font-family="Helvetica,sans-Serif" font-size="10.00" fill="#ffffff">simpleguics2pygame.</text>
<text text-anchor="middle" x="1033.07" y="-187.901" font-family="Helvetica,sans-Serif" font-size="10.00" fill="#ffffff">timer</text>
</g>
<!-- SimpleGUICS2Pygame_simpleguics2pygame__arguments&#45;&gt;SimpleGUICS2Pygame_simpleguics2pygame_timer -->
<g id="edge6" class="edge"><title>SimpleGUICS2Pygame_simpleguics2pygame__arguments&#45;&gt;SimpleGUICS2Pygame_simpleguics2pygame_timer</title><style>.edge>path:hover{stroke-width:8}</style>
<path fill="none" stroke="black" d="M955.066,-294.383C946.773,-270.946 962.953,-249.462 982.688,-233.161"/>
<polygon fill="#f31616" stroke="black" points="984.934,-235.849 990.686,-226.951 980.641,-230.32 984.934,-235.849"/>
</g>
<!-- SimpleGUICS2Pygame_simpleguics2pygame__arguments&#45;&gt;SimpleGUICS2Pygame_simpleguics2pygame__media -->
<g id="edge3" class="edge"><title>SimpleGUICS2Pygame_simpleguics2pygame__arguments&#45;&gt;SimpleGUICS2Pygame_simpleguics2pygame__media</title><style>.edge>path:hover{stroke-width:8}</style>
<path fill="none" stroke="black" d="M859.066,-454.251C859.066,-446.213 859.066,-437.311 859.066,-428.768"/>
<polygon fill="#f31616" stroke="black" points="862.566,-428.609 859.066,-418.609 855.566,-428.609 862.566,-428.609"/>
</g>
<!-- SimpleGUICS2Pygame_simpleguics2pygame__arguments&#45;&gt;SimpleGUICS2Pygame_simpleguics2pygame__fonts -->
<g id="edge2" class="edge"><title>SimpleGUICS2Pygame_simpleguics2pygame__arguments&#45;&gt;SimpleGUICS2Pygame_simpleguics2pygame__fonts</title><style>.edge>path:hover{stroke-width:8}</style>
<path fill="none" stroke="black" d="M819.955,-457.269C767.309,-423.509 673.715,-363.491 616.927,-327.075"/>
<polygon fill="#f31616" stroke="black" points="618.79,-324.112 608.483,-321.66 615.012,-330.004 618.79,-324.112"/>
</g>
<!-- SimpleGUICS2Pygame_simpleguics2pygame_frame&#45;&gt;SimpleGUICS2Pygame_simpleguics2pygame -->
<g id="edge30" class="edge"><title>SimpleGUICS2Pygame_simpleguics2pygame_frame&#45;&gt;SimpleGUICS2Pygame_simpleguics2pygame</title><style>.edge>path:hover{stroke-width:8}</style>
<path fill="none" stroke="black" d="M540.066,-78.3789C540.066,-70.171 540.066,-61.1574 540.066,-52.7997"/>
<polygon fill="#6b2e2e" stroke="black" points="543.566,-52.674 540.066,-42.674 536.566,-52.6741 543.566,-52.674"/>
</g>
<!-- SimpleGUICS2Pygame_simpleguics2pygame_control&#45;&gt;SimpleGUICS2Pygame_simpleguics2pygame -->
<g id="edge28" class="edge"><title>SimpleGUICS2Pygame_simpleguics2pygame_control&#45;&gt;SimpleGUICS2Pygame_simpleguics2pygame</title><style>.edge>path:hover{stroke-width:8}</style>
<path fill="none" stroke="black" d="M262.881,-185.583C188.817,-168.846 88.2179,-139.821 105.066,-108.418"/>
</g>
<!-- SimpleGUICS2Pygame_simpleguics2pygame_control&#45;&gt;SimpleGUICS2Pygame_simpleguics2pygame_frame -->
<g id="edge29" class="edge"><title>SimpleGUICS2Pygame_simpleguics2pygame_control&#45;&gt;SimpleGUICS2Pygame_simpleguics2pygame_frame</title><style>.edge>path:hover{stroke-width:8}</style>
<path fill="none" stroke="black" d="M387.506,-177.545C415.585,-164.822 450.713,-148.905 480.18,-135.553"/>
<polygon fill="#a83838" stroke="black" points="481.869,-138.63 489.533,-131.315 478.98,-132.254 481.869,-138.63"/>
</g>
<!-- SimpleGUICS2Pygame_simpleguics2pygame_sound&#45;&gt;SimpleGUICS2Pygame_simpleguics2pygame -->
<g id="edge36" class="edge"><title>SimpleGUICS2Pygame_simpleguics2pygame_sound&#45;&gt;SimpleGUICS2Pygame_simpleguics2pygame</title><style>.edge>path:hover{stroke-width:8}</style>
<path fill="none" stroke="black" d="M1131.77,-274.255C1165.9,-259.02 1199.41,-235.104 1187.07,-202.401"/>
<path fill="none" stroke="black" d="M1187.07,-200.401C1136.62,-66.7385 992.347,-195.465 879.066,-108.418"/>
</g>
<!-- SimpleGUICS2Pygame_simpleguics2pygame__joypads&#45;&gt;SimpleGUICS2Pygame_simpleguics2pygame_frame -->
<g id="edge13" class="edge"><title>SimpleGUICS2Pygame_simpleguics2pygame__joypads&#45;&gt;SimpleGUICS2Pygame_simpleguics2pygame_frame</title><style>.edge>path:hover{stroke-width:8}</style>
<path fill="none" stroke="black" d="M241.686,-360.904C235.434,-350.012 229.229,-337.07 226.066,-324.375 209.667,-258.561 193.622,-221.84 240.066,-172.409 267.724,-142.973 367.935,-125.953 445.008,-116.971"/>
<polygon fill="#ac4949" stroke="black" points="445.699,-120.415 455.24,-115.809 444.909,-113.46 445.699,-120.415"/>
</g>
<!-- SimpleGUICS2Pygame_simpleguics2pygame_timer&#45;&gt;SimpleGUICS2Pygame_simpleguics2pygame -->
<g id="edge37" class="edge"><title>SimpleGUICS2Pygame_simpleguics2pygame_timer&#45;&gt;SimpleGUICS2Pygame_simpleguics2pygame</title><style>.edge>path:hover{stroke-width:8}</style>
<path fill="none" stroke="black" d="M986.791,-176.478C955.231,-159.287 913.143,-134.604 879.066,-108.418"/>
</g>
<!-- SimpleGUICS2Pygame_simpleguics2pygame_timer&#45;&gt;SimpleGUICS2Pygame_simpleguics2pygame_frame -->
<g id="edge38" class="edge"><title>SimpleGUICS2Pygame_simpleguics2pygame_timer&#45;&gt;SimpleGUICS2Pygame_simpleguics2pygame_frame</title><style>.edge>path:hover{stroke-width:8}</style>
<path fill="none" stroke="black" d="M968.297,-181.523C955.99,-178.25 943.175,-175.054 931.066,-172.409 829.082,-150.136 710.606,-131.782 631.03,-120.528"/>
<polygon fill="#b83d3d" stroke="black" points="631.428,-117.05 621.038,-119.123 630.453,-123.981 631.428,-117.05"/>
</g>
<!-- SimpleGUICS2Pygame_simpleguics2pygame__colors&#45;&gt;SimpleGUICS2Pygame_simpleguics2pygame_canvas -->
<g id="edge7" class="edge"><title>SimpleGUICS2Pygame_simpleguics2pygame__colors&#45;&gt;SimpleGUICS2Pygame_simpleguics2pygame_canvas</title><style>.edge>path:hover{stroke-width:8}</style>
<path fill="none" stroke="black" d="M399.278,-274.651C445.055,-260.131 507.386,-240.361 555.275,-225.171"/>
<polygon fill="#c43131" stroke="black" points="556.483,-228.46 564.956,-222.101 554.366,-221.788 556.483,-228.46"/>
</g>
<!-- SimpleGUICS2Pygame_simpleguics2pygame__colors&#45;&gt;SimpleGUICS2Pygame_simpleguics2pygame_frame -->
<g id="edge9" class="edge"><title>SimpleGUICS2Pygame_simpleguics2pygame__colors&#45;&gt;SimpleGUICS2Pygame_simpleguics2pygame_frame</title><style>.edge>path:hover{stroke-width:8}</style>
<path fill="none" stroke="black" d="M386.37,-271.185C412.291,-255.848 441.111,-232.912 453.066,-202.401"/>
<path fill="none" stroke="black" d="M453.066,-200.401C462.036,-177.506 479.779,-157.056 496.916,-141.286"/>
<polygon fill="#c43131" stroke="black" points="499.549,-143.629 504.713,-134.378 494.907,-138.39 499.549,-143.629"/>
</g>
<!-- SimpleGUICS2Pygame_simpleguics2pygame__colors&#45;&gt;SimpleGUICS2Pygame_simpleguics2pygame_control -->
<g id="edge8" class="edge"><title>SimpleGUICS2Pygame_simpleguics2pygame__colors&#45;&gt;SimpleGUICS2Pygame_simpleguics2pygame_control</title><style>.edge>path:hover{stroke-width:8}</style>
<path fill="none" stroke="black" d="M337.066,-266.286C337.066,-258.248 337.066,-249.346 337.066,-240.803"/>
<polygon fill="#c43131" stroke="black" points="340.566,-240.643 337.066,-230.643 333.566,-240.643 340.566,-240.643"/>
</g>
<!-- SimpleGUICS2Pygame_simpleguics2pygame__media&#45;&gt;SimpleGUICS2Pygame_simpleguics2pygame_image -->
<g id="edge15" class="edge"><title>SimpleGUICS2Pygame_simpleguics2pygame__media&#45;&gt;SimpleGUICS2Pygame_simpleguics2pygame_image</title><style>.edge>path:hover{stroke-width:8}</style>
<path fill="none" stroke="black" d="M841.664,-360.768C836.101,-351.946 829.856,-342.042 823.964,-332.697"/>
<polygon fill="#bc2f2f" stroke="black" points="826.75,-330.554 818.456,-323.962 820.829,-334.287 826.75,-330.554"/>
</g>
<!-- SimpleGUICS2Pygame_simpleguics2pygame__media&#45;&gt;SimpleGUICS2Pygame_simpleguics2pygame_frame -->
<g id="edge14" class="edge"><title>SimpleGUICS2Pygame_simpleguics2pygame__media&#45;&gt;SimpleGUICS2Pygame_simpleguics2pygame_frame</title><style>.edge>path:hover{stroke-width:8}</style>
<path fill="none" stroke="black" d="M881.976,-361.226C912.859,-321.287 959.369,-246.644 917.066,-202.401"/>
<path fill="none" stroke="black" d="M917.066,-200.401C905.651,-188.643 907.282,-180.561 893.066,-172.409 849.885,-147.647 723.012,-128.86 633.79,-118.24"/>
<polygon fill="#bc2f2f" stroke="black" points="633.989,-114.739 623.649,-117.049 633.173,-121.691 633.989,-114.739"/>
</g>
<!-- SimpleGUICS2Pygame_simpleguics2pygame__media&#45;&gt;SimpleGUICS2Pygame_simpleguics2pygame_sound -->
<g id="edge16" class="edge"><title>SimpleGUICS2Pygame_simpleguics2pygame__media&#45;&gt;SimpleGUICS2Pygame_simpleguics2pygame_sound</title><style>.edge>path:hover{stroke-width:8}</style>
<path fill="none" stroke="black" d="M910.927,-365.865C940.699,-352.947 978.26,-336.65 1009.52,-323.086"/>
<polygon fill="#bc2f2f" stroke="black" points="1011.22,-326.162 1019.01,-318.971 1008.44,-319.741 1011.22,-326.162"/>
</g>
<!-- SimpleGUICS2Pygame_simpleguics2pygame__fonts&#45;&gt;SimpleGUICS2Pygame_simpleguics2pygame_canvas -->
<g id="edge10" class="edge"><title>SimpleGUICS2Pygame_simpleguics2pygame__fonts&#45;&gt;SimpleGUICS2Pygame_simpleguics2pygame_canvas</title><style>.edge>path:hover{stroke-width:8}</style>
<path fill="none" stroke="black" d="M586.468,-266.785C592.031,-257.963 598.276,-248.059 604.168,-238.714"/>
<polygon fill="#bc2f2f" stroke="black" points="607.303,-240.305 609.676,-229.979 601.382,-236.571 607.303,-240.305"/>
</g>
<!-- SimpleGUICS2Pygame_simpleguics2pygame__fonts&#45;&gt;SimpleGUICS2Pygame_simpleguics2pygame_frame -->
<g id="edge12" class="edge"><title>SimpleGUICS2Pygame_simpleguics2pygame__fonts&#45;&gt;SimpleGUICS2Pygame_simpleguics2pygame_frame</title><style>.edge>path:hover{stroke-width:8}</style>
<path fill="none" stroke="black" d="M508.091,-274.152C473.85,-258.872 440.314,-234.946 453.066,-202.401"/>
</g>
<!-- SimpleGUICS2Pygame_simpleguics2pygame__fonts&#45;&gt;SimpleGUICS2Pygame_simpleguics2pygame_control -->
<g id="edge11" class="edge"><title>SimpleGUICS2Pygame_simpleguics2pygame__fonts&#45;&gt;SimpleGUICS2Pygame_simpleguics2pygame_control</title><style>.edge>path:hover{stroke-width:8}</style>
<path fill="none" stroke="black" d="M514.085,-272.585C480.403,-259.231 437.126,-242.072 401.794,-228.064"/>
<polygon fill="#bc2f2f" stroke="black" points="402.64,-224.634 392.054,-224.202 400.06,-231.141 402.64,-224.634"/>
</g>
</g>
</svg>
