<?xml version="1.0" encoding="UTF-8" standalone="no"?>
<!DOCTYPE svg PUBLIC "-//W3C//DTD SVG 1.1//EN"
 "http://www.w3.org/Graphics/SVG/1.1/DTD/svg11.dtd">
<!-- Generated by graphviz version 2.38.0 (20140413.2041)
 -->
<!-- Title: G Pages: 1 -->
<svg width="1162pt" height="865pt"
 viewBox="0.00 0.00 1161.70 864.62" xmlns="http://www.w3.org/2000/svg" xmlns:xlink="http://www.w3.org/1999/xlink">
<g id="graph0" class="graph" transform="scale(1 1) rotate(0) translate(4 860.619)">
<title>G</title><style>.edge>path:hover{stroke-width:8}</style>
<polygon fill="white" stroke="none" points="-4,4 -4,-860.619 1157.7,-860.619 1157.7,4 -4,4"/>
<!-- SimpleGUICS2Pygame_simpleguics2pygame_image -->
<g id="node1" class="node"><title>SimpleGUICS2Pygame_simpleguics2pygame_image</title><style>.edge>path:hover{stroke-width:8}</style>
<ellipse fill="#bf2121" stroke="black" cx="725.735" cy="-452.236" rx="88.2768" ry="28.9828"/>
<text text-anchor="middle" x="725.735" y="-460.736" font-family="Helvetica,sans-Serif" font-size="10.00" fill="#ffffff">SimpleGUICS2Pygame.</text>
<text text-anchor="middle" x="725.735" y="-449.736" font-family="Helvetica,sans-Serif" font-size="10.00" fill="#ffffff">simpleguics2pygame.</text>
<text text-anchor="middle" x="725.735" y="-438.736" font-family="Helvetica,sans-Serif" font-size="10.00" fill="#ffffff">image</text>
</g>
<!-- SimpleGUICS2Pygame_simpleguics2pygame_frame -->
<g id="node11" class="node"><title>SimpleGUICS2Pygame_simpleguics2pygame_frame</title><style>.edge>path:hover{stroke-width:8}</style>
<ellipse fill="#732626" stroke="black" cx="571.735" cy="-264.271" rx="88.2768" ry="28.9828"/>
<text text-anchor="middle" x="571.735" y="-272.771" font-family="Helvetica,sans-Serif" font-size="10.00" fill="#ffffff">SimpleGUICS2Pygame.</text>
<text text-anchor="middle" x="571.735" y="-261.771" font-family="Helvetica,sans-Serif" font-size="10.00" fill="#ffffff">simpleguics2pygame.</text>
<text text-anchor="middle" x="571.735" y="-250.771" font-family="Helvetica,sans-Serif" font-size="10.00" fill="#ffffff">frame</text>
</g>
<!-- SimpleGUICS2Pygame_simpleguics2pygame_image&#45;&gt;SimpleGUICS2Pygame_simpleguics2pygame_frame -->
<g id="edge41" class="edge"><title>SimpleGUICS2Pygame_simpleguics2pygame_image&#45;&gt;SimpleGUICS2Pygame_simpleguics2pygame_frame</title><style>.edge>path:hover{stroke-width:8}</style>
<path fill="none" stroke="black" d="M754.9,-424.56C771.753,-407.504 791.901,-383.998 803.735,-359.253"/>
<path fill="none" stroke="black" d="M803.735,-357.253C832.136,-297.868 745.115,-276.573 669.667,-269.072"/>
<polygon fill="#bf2121" stroke="black" points="669.865,-265.576 659.586,-268.144 669.223,-272.546 669.865,-265.576"/>
</g>
<!-- SimpleGUICS2Pygame_simpleguics2pygame_canvas -->
<g id="node14" class="node"><title>SimpleGUICS2Pygame_simpleguics2pygame_canvas</title><style>.edge>path:hover{stroke-width:8}</style>
<ellipse fill="#9b2626" stroke="black" cx="919.735" cy="-358.253" rx="88.2768" ry="28.9828"/>
<text text-anchor="middle" x="919.735" y="-366.753" font-family="Helvetica,sans-Serif" font-size="10.00" fill="#ffffff">SimpleGUICS2Pygame.</text>
<text text-anchor="middle" x="919.735" y="-355.753" font-family="Helvetica,sans-Serif" font-size="10.00" fill="#ffffff">simpleguics2pygame.</text>
<text text-anchor="middle" x="919.735" y="-344.753" font-family="Helvetica,sans-Serif" font-size="10.00" fill="#ffffff">canvas</text>
</g>
<!-- SimpleGUICS2Pygame_simpleguics2pygame_image&#45;&gt;SimpleGUICS2Pygame_simpleguics2pygame_canvas -->
<g id="edge40" class="edge"><title>SimpleGUICS2Pygame_simpleguics2pygame_image&#45;&gt;SimpleGUICS2Pygame_simpleguics2pygame_canvas</title><style>.edge>path:hover{stroke-width:8}</style>
<path fill="none" stroke="black" d="M774.689,-428.025C801.111,-415.497 833.896,-399.953 861.609,-386.813"/>
<polygon fill="#bf2121" stroke="black" points="863.26,-389.904 870.796,-382.457 860.261,-383.579 863.26,-389.904"/>
</g>
<!-- SimpleGUICS2Pygame_simpleguics2pygame -->
<g id="node16" class="node"><title>SimpleGUICS2Pygame_simpleguics2pygame</title><style>.edge>path:hover{stroke-width:8}</style>
<ellipse fill="#950303" stroke="black" cx="571.735" cy="-178.066" rx="88.2768" ry="21.4286"/>
<text text-anchor="middle" x="571.735" y="-181.066" font-family="Helvetica,sans-Serif" font-size="10.00" fill="#ffffff">SimpleGUICS2Pygame.</text>
<text text-anchor="middle" x="571.735" y="-170.066" font-family="Helvetica,sans-Serif" font-size="10.00" fill="#ffffff">simpleguics2pygame</text>
</g>
<!-- SimpleGUICS2Pygame_simpleguics2pygame_image&#45;&gt;SimpleGUICS2Pygame_simpleguics2pygame -->
<g id="edge39" class="edge"><title>SimpleGUICS2Pygame_simpleguics2pygame_image&#45;&gt;SimpleGUICS2Pygame_simpleguics2pygame</title><style>.edge>path:hover{stroke-width:8}</style>
<path fill="none" stroke="black" d="M803.735,-357.253C810.222,-343.689 810.428,-337.901 822.735,-329.262 916.961,-263.119 1110.71,-374.296 1073.73,-265.271"/>
<path fill="none" stroke="black" d="M1073.73,-263.271C1060.67,-224.731 806.494,-198.057 664.957,-186.126"/>
<polygon fill="#bf2121" stroke="black" points="665.222,-182.636 654.965,-185.293 664.64,-189.612 665.222,-182.636"/>
</g>
<!-- SimpleGUICS2Pygame_simpleguics2pygame__arguments -->
<g id="node2" class="node"><title>SimpleGUICS2Pygame_simpleguics2pygame__arguments</title><style>.edge>path:hover{stroke-width:8}</style>
<ellipse fill="#f90606" stroke="black" cx="261.735" cy="-640.202" rx="88.2768" ry="28.9828"/>
<text text-anchor="middle" x="261.735" y="-648.702" font-family="Helvetica,sans-Serif" font-size="10.00" fill="#ffffff">SimpleGUICS2Pygame.</text>
<text text-anchor="middle" x="261.735" y="-637.702" font-family="Helvetica,sans-Serif" font-size="10.00" fill="#ffffff">simpleguics2pygame.</text>
<text text-anchor="middle" x="261.735" y="-626.702" font-family="Helvetica,sans-Serif" font-size="10.00" fill="#ffffff">_arguments</text>
</g>
<!-- SimpleGUICS2Pygame_simpleguics2pygame__media -->
<g id="node5" class="node"><title>SimpleGUICS2Pygame_simpleguics2pygame__media</title><style>.edge>path:hover{stroke-width:8}</style>
<ellipse fill="#b62020" stroke="black" cx="261.735" cy="-546.219" rx="88.2768" ry="28.9828"/>
<text text-anchor="middle" x="261.735" y="-554.719" font-family="Helvetica,sans-Serif" font-size="10.00" fill="#ffffff">SimpleGUICS2Pygame.</text>
<text text-anchor="middle" x="261.735" y="-543.719" font-family="Helvetica,sans-Serif" font-size="10.00" fill="#ffffff">simpleguics2pygame.</text>
<text text-anchor="middle" x="261.735" y="-532.719" font-family="Helvetica,sans-Serif" font-size="10.00" fill="#ffffff">_media</text>
</g>
<!-- SimpleGUICS2Pygame_simpleguics2pygame__arguments&#45;&gt;SimpleGUICS2Pygame_simpleguics2pygame__media -->
<g id="edge10" class="edge"><title>SimpleGUICS2Pygame_simpleguics2pygame__arguments&#45;&gt;SimpleGUICS2Pygame_simpleguics2pygame__media</title><style>.edge>path:hover{stroke-width:8}</style>
<path fill="none" stroke="black" d="M261.735,-611.104C261.735,-603.066 261.735,-594.164 261.735,-585.621"/>
<polygon fill="#f90606" stroke="black" points="265.235,-585.461 261.735,-575.461 258.235,-585.461 265.235,-585.461"/>
</g>
<!-- SimpleGUICS2Pygame_simpleguics2pygame_sound -->
<g id="node10" class="node"><title>SimpleGUICS2Pygame_simpleguics2pygame_sound</title><style>.edge>path:hover{stroke-width:8}</style>
<ellipse fill="#a83838" stroke="black" cx="223.735" cy="-452.236" rx="88.2768" ry="28.9828"/>
<text text-anchor="middle" x="223.735" y="-460.736" font-family="Helvetica,sans-Serif" font-size="10.00" fill="#ffffff">SimpleGUICS2Pygame.</text>
<text text-anchor="middle" x="223.735" y="-449.736" font-family="Helvetica,sans-Serif" font-size="10.00" fill="#ffffff">simpleguics2pygame.</text>
<text text-anchor="middle" x="223.735" y="-438.736" font-family="Helvetica,sans-Serif" font-size="10.00" fill="#ffffff">sound</text>
</g>
<!-- SimpleGUICS2Pygame_simpleguics2pygame__arguments&#45;&gt;SimpleGUICS2Pygame_simpleguics2pygame_sound -->
<g id="edge12" class="edge"><title>SimpleGUICS2Pygame_simpleguics2pygame__arguments&#45;&gt;SimpleGUICS2Pygame_simpleguics2pygame_sound</title><style>.edge>path:hover{stroke-width:8}</style>
<path fill="none" stroke="black" d="M107.735,-545.219C100.523,-515.091 125.816,-492.943 154.605,-477.939"/>
<polygon fill="#f90606" stroke="black" points="156.188,-481.061 163.62,-473.511 153.101,-474.778 156.188,-481.061"/>
</g>
<!-- SimpleGUICS2Pygame_simpleguics2pygame__arguments&#45;&gt;SimpleGUICS2Pygame_simpleguics2pygame_frame -->
<g id="edge11" class="edge"><title>SimpleGUICS2Pygame_simpleguics2pygame__arguments&#45;&gt;SimpleGUICS2Pygame_simpleguics2pygame_frame</title><style>.edge>path:hover{stroke-width:8}</style>
<path fill="none" stroke="black" d="M107.735,-451.236C107.735,-436.2 115.265,-432.967 126.735,-423.245 127.032,-422.993 330.368,-329.394 330.735,-329.262 382.544,-310.606 442.369,-294.691 489.451,-283.399"/>
<polygon fill="#f90606" stroke="black" points="490.377,-286.776 499.297,-281.06 488.759,-279.966 490.377,-286.776"/>
</g>
<!-- SimpleGUICS2Pygame_simpleguics2pygame__arguments&#45;&gt;SimpleGUICS2Pygame_simpleguics2pygame -->
<g id="edge8" class="edge"><title>SimpleGUICS2Pygame_simpleguics2pygame__arguments&#45;&gt;SimpleGUICS2Pygame_simpleguics2pygame</title><style>.edge>path:hover{stroke-width:8}</style>
<path fill="none" stroke="black" d="M191.695,-622.285C155.515,-608.981 117.015,-585.986 107.735,-547.219"/>
<path fill="none" stroke="black" d="M107.735,-545.219C98.2173,-505.461 104.362,-493.978 107.735,-453.236"/>
<path fill="none" stroke="black" d="M107.735,-451.236C111.996,-399.765 35.215,-432.722 10.7348,-387.245 -1.47988,-364.553 -5.07714,-349.611 10.7348,-329.262 81.3724,-238.356 167.289,-331.1 261.735,-265.271"/>
<path fill="none" stroke="black" d="M261.735,-263.271C325.685,-217.502 413.241,-196.606 478.995,-187.068"/>
<polygon fill="#f90606" stroke="black" points="479.519,-190.529 488.942,-185.687 478.556,-183.595 479.519,-190.529"/>
</g>
<!-- SimpleGUICS2Pygame_simpleguics2pygame_timer -->
<g id="node19" class="node"><title>SimpleGUICS2Pygame_simpleguics2pygame_timer</title><style>.edge>path:hover{stroke-width:8}</style>
<ellipse fill="#bc2f2f" stroke="black" cx="107.735" cy="-358.253" rx="88.2768" ry="28.9828"/>
<text text-anchor="middle" x="107.735" y="-366.753" font-family="Helvetica,sans-Serif" font-size="10.00" fill="#ffffff">SimpleGUICS2Pygame.</text>
<text text-anchor="middle" x="107.735" y="-355.753" font-family="Helvetica,sans-Serif" font-size="10.00" fill="#ffffff">simpleguics2pygame.</text>
<text text-anchor="middle" x="107.735" y="-344.753" font-family="Helvetica,sans-Serif" font-size="10.00" fill="#ffffff">timer</text>
</g>
<!-- SimpleGUICS2Pygame_simpleguics2pygame__arguments&#45;&gt;SimpleGUICS2Pygame_simpleguics2pygame_timer -->
<g id="edge13" class="edge"><title>SimpleGUICS2Pygame_simpleguics2pygame__arguments&#45;&gt;SimpleGUICS2Pygame_simpleguics2pygame_timer</title><style>.edge>path:hover{stroke-width:8}</style>
<path fill="none" stroke="black" d="M107.735,-451.236C107.735,-433.682 107.735,-414.244 107.735,-397.777"/>
<polygon fill="#f90606" stroke="black" points="111.235,-397.434 107.735,-387.434 104.235,-397.434 111.235,-397.434"/>
</g>
<!-- SimpleGUICS2Pygame_simpleguics2pygame__fonts -->
<g id="node20" class="node"><title>SimpleGUICS2Pygame_simpleguics2pygame__fonts</title><style>.edge>path:hover{stroke-width:8}</style>
<ellipse fill="#b62020" stroke="black" cx="725.735" cy="-546.219" rx="88.2768" ry="28.9828"/>
<text text-anchor="middle" x="725.735" y="-554.719" font-family="Helvetica,sans-Serif" font-size="10.00" fill="#ffffff">SimpleGUICS2Pygame.</text>
<text text-anchor="middle" x="725.735" y="-543.719" font-family="Helvetica,sans-Serif" font-size="10.00" fill="#ffffff">simpleguics2pygame.</text>
<text text-anchor="middle" x="725.735" y="-532.719" font-family="Helvetica,sans-Serif" font-size="10.00" fill="#ffffff">_fonts</text>
</g>
<!-- SimpleGUICS2Pygame_simpleguics2pygame__arguments&#45;&gt;SimpleGUICS2Pygame_simpleguics2pygame__fonts -->
<g id="edge9" class="edge"><title>SimpleGUICS2Pygame_simpleguics2pygame__arguments&#45;&gt;SimpleGUICS2Pygame_simpleguics2pygame__fonts</title><style>.edge>path:hover{stroke-width:8}</style>
<path fill="none" stroke="black" d="M336.921,-624.851C403.638,-612.052 503.736,-592.69 590.735,-575.21 607.507,-571.84 625.437,-568.17 642.571,-564.63"/>
<polygon fill="#f90606" stroke="black" points="643.469,-568.019 652.552,-562.564 642.05,-561.164 643.469,-568.019"/>
</g>
<!-- SimpleGUICS2Pygame_simplegui_lib_draw -->
<g id="node3" class="node"><title>SimpleGUICS2Pygame_simplegui_lib_draw</title><style>.edge>path:hover{stroke-width:8}</style>
<ellipse fill="#c04040" stroke="black" cx="181.735" cy="-99.6396" rx="88.2768" ry="21.4286"/>
<text text-anchor="middle" x="181.735" y="-102.64" font-family="Helvetica,sans-Serif" font-size="10.00" fill="#ffffff">SimpleGUICS2Pygame.</text>
<text text-anchor="middle" x="181.735" y="-91.6396" font-family="Helvetica,sans-Serif" font-size="10.00" fill="#ffffff">simplegui_lib_draw</text>
</g>
<!-- SimpleGUICS2Pygame_simplegui_lib -->
<g id="node17" class="node"><title>SimpleGUICS2Pygame_simplegui_lib</title><style>.edge>path:hover{stroke-width:8}</style>
<ellipse fill="#964040" stroke="black" cx="473.735" cy="-21.2132" rx="88.2768" ry="21.4286"/>
<text text-anchor="middle" x="473.735" y="-24.2132" font-family="Helvetica,sans-Serif" font-size="10.00" fill="#ffffff">SimpleGUICS2Pygame.</text>
<text text-anchor="middle" x="473.735" y="-13.2132" font-family="Helvetica,sans-Serif" font-size="10.00" fill="#ffffff">simplegui_lib</text>
</g>
<!-- SimpleGUICS2Pygame_simplegui_lib_draw&#45;&gt;SimpleGUICS2Pygame_simplegui_lib -->
<g id="edge1" class="edge"><title>SimpleGUICS2Pygame_simplegui_lib_draw&#45;&gt;SimpleGUICS2Pygame_simplegui_lib</title><style>.edge>path:hover{stroke-width:8}</style>
<path fill="none" stroke="black" d="M239.425,-83.5402C287.339,-70.9994 355.579,-53.1386 406.066,-39.9244"/>
<polygon fill="#c04040" stroke="black" points="407.128,-43.2646 415.916,-37.3465 405.355,-36.4927 407.128,-43.2646"/>
</g>
<!-- SimpleGUICS2Pygame_simpleguics2pygame_keys -->
<g id="node4" class="node"><title>SimpleGUICS2Pygame_simpleguics2pygame_keys</title><style>.edge>path:hover{stroke-width:8}</style>
<ellipse fill="#ac2b2b" stroke="black" cx="455.735" cy="-358.253" rx="88.2768" ry="28.9828"/>
<text text-anchor="middle" x="455.735" y="-366.753" font-family="Helvetica,sans-Serif" font-size="10.00" fill="#ffffff">SimpleGUICS2Pygame.</text>
<text text-anchor="middle" x="455.735" y="-355.753" font-family="Helvetica,sans-Serif" font-size="10.00" fill="#ffffff">simpleguics2pygame.</text>
<text text-anchor="middle" x="455.735" y="-344.753" font-family="Helvetica,sans-Serif" font-size="10.00" fill="#ffffff">keys</text>
</g>
<!-- SimpleGUICS2Pygame_simpleguics2pygame_keys&#45;&gt;SimpleGUICS2Pygame_simpleguics2pygame_frame -->
<g id="edge43" class="edge"><title>SimpleGUICS2Pygame_simpleguics2pygame_keys&#45;&gt;SimpleGUICS2Pygame_simpleguics2pygame_frame</title><style>.edge>path:hover{stroke-width:8}</style>
<path fill="none" stroke="black" d="M488.666,-331.141C501.768,-320.751 516.984,-308.686 530.786,-297.742"/>
<polygon fill="#ac2b2b" stroke="black" points="533.061,-300.404 538.722,-291.448 528.712,-294.919 533.061,-300.404"/>
</g>
<!-- SimpleGUICS2Pygame_simpleguics2pygame_keys&#45;&gt;SimpleGUICS2Pygame_simpleguics2pygame -->
<g id="edge42" class="edge"><title>SimpleGUICS2Pygame_simpleguics2pygame_keys&#45;&gt;SimpleGUICS2Pygame_simpleguics2pygame</title><style>.edge>path:hover{stroke-width:8}</style>
<path fill="none" stroke="black" d="M378.327,-344.146C305.148,-329.153 213.238,-301.87 261.735,-265.271"/>
</g>
<!-- SimpleGUICS2Pygame_simpleguics2pygame__media&#45;&gt;SimpleGUICS2Pygame_simpleguics2pygame_image -->
<g id="edge22" class="edge"><title>SimpleGUICS2Pygame_simpleguics2pygame__media&#45;&gt;SimpleGUICS2Pygame_simpleguics2pygame_image</title><style>.edge>path:hover{stroke-width:8}</style>
<path fill="none" stroke="black" d="M334.907,-529.821C354.94,-525.668 376.663,-521.22 396.735,-517.227 480.602,-500.547 501.809,-497.61 585.735,-481.227 603.882,-477.685 623.34,-473.831 641.804,-470.147"/>
<polygon fill="#b62020" stroke="black" points="642.529,-473.571 651.65,-468.18 641.158,-466.707 642.529,-473.571"/>
</g>
<!-- SimpleGUICS2Pygame_simpleguics2pygame__media&#45;&gt;SimpleGUICS2Pygame_simpleguics2pygame_sound -->
<g id="edge23" class="edge"><title>SimpleGUICS2Pygame_simpleguics2pygame__media&#45;&gt;SimpleGUICS2Pygame_simpleguics2pygame_sound</title><style>.edge>path:hover{stroke-width:8}</style>
<path fill="none" stroke="black" d="M250.127,-517.121C246.665,-508.741 242.815,-499.421 239.149,-490.548"/>
<polygon fill="#b62020" stroke="black" points="242.325,-489.068 235.271,-481.162 235.855,-491.74 242.325,-489.068"/>
</g>
<!-- SimpleGUICS2Pygame_simpleguics2pygame__media&#45;&gt;SimpleGUICS2Pygame_simpleguics2pygame_frame -->
<g id="edge21" class="edge"><title>SimpleGUICS2Pygame_simpleguics2pygame__media&#45;&gt;SimpleGUICS2Pygame_simpleguics2pygame_frame</title><style>.edge>path:hover{stroke-width:8}</style>
<path fill="none" stroke="black" d="M291.846,-518.646C302.347,-507.958 313.342,-494.924 320.735,-481.227 353.802,-419.962 310.672,-379.629 358.735,-329.262 389.086,-297.455 434.575,-281.283 475.731,-273.13"/>
<polygon fill="#b62020" stroke="black" points="476.612,-276.527 485.812,-271.273 475.344,-269.643 476.612,-276.527"/>
</g>
<!-- SimpleGUICS2Pygame_simpleguics2pygame__pygame_init -->
<g id="node6" class="node"><title>SimpleGUICS2Pygame_simpleguics2pygame__pygame_init</title><style>.edge>path:hover{stroke-width:8}</style>
<ellipse fill="#d10505" stroke="black" cx="879.735" cy="-640.202" rx="88.2768" ry="28.9828"/>
<text text-anchor="middle" x="879.735" y="-648.702" font-family="Helvetica,sans-Serif" font-size="10.00" fill="#ffffff">SimpleGUICS2Pygame.</text>
<text text-anchor="middle" x="879.735" y="-637.702" font-family="Helvetica,sans-Serif" font-size="10.00" fill="#ffffff">simpleguics2pygame.</text>
<text text-anchor="middle" x="879.735" y="-626.702" font-family="Helvetica,sans-Serif" font-size="10.00" fill="#ffffff">_pygame_init</text>
</g>
<!-- SimpleGUICS2Pygame_simpleguics2pygame__pygame_init&#45;&gt;SimpleGUICS2Pygame_simpleguics2pygame_image -->
<g id="edge32" class="edge"><title>SimpleGUICS2Pygame_simpleguics2pygame__pygame_init&#45;&gt;SimpleGUICS2Pygame_simpleguics2pygame_image</title><style>.edge>path:hover{stroke-width:8}</style>
<path fill="none" stroke="black" d="M864.886,-611.526C856.208,-593.722 846.123,-569.776 841.735,-547.219"/>
<path fill="none" stroke="black" d="M841.735,-545.219C836.184,-516.682 812.893,-495.406 788.622,-480.545"/>
<polygon fill="#d10505" stroke="black" points="790.074,-477.342 779.667,-475.359 786.566,-483.399 790.074,-477.342"/>
</g>
<!-- SimpleGUICS2Pygame_simpleguics2pygame__pygame_init&#45;&gt;SimpleGUICS2Pygame_simpleguics2pygame_keys -->
<g id="edge33" class="edge"><title>SimpleGUICS2Pygame_simpleguics2pygame__pygame_init&#45;&gt;SimpleGUICS2Pygame_simpleguics2pygame_keys</title><style>.edge>path:hover{stroke-width:8}</style>
<path fill="none" stroke="black" d="M792.296,-635.353C739.759,-628.901 674.455,-613.07 628.735,-575.21 582.647,-537.046 598.759,-506.624 571.735,-453.236"/>
<path fill="none" stroke="black" d="M571.735,-451.236C558.331,-425.053 533.729,-403.897 510.619,-388.506"/>
<polygon fill="#d10505" stroke="black" points="512.502,-385.556 502.196,-383.098 508.72,-391.446 512.502,-385.556"/>
</g>
<!-- SimpleGUICS2Pygame_simpleguics2pygame__pygame_init&#45;&gt;SimpleGUICS2Pygame_simpleguics2pygame__media -->
<g id="edge28" class="edge"><title>SimpleGUICS2Pygame_simpleguics2pygame__pygame_init&#45;&gt;SimpleGUICS2Pygame_simpleguics2pygame__media</title><style>.edge>path:hover{stroke-width:8}</style>
<path fill="none" stroke="black" d="M796.556,-630.044C700.089,-618.993 536.421,-598.913 396.735,-575.21 379.572,-572.298 361.266,-568.781 343.85,-565.239"/>
<polygon fill="#d10505" stroke="black" points="344.215,-561.741 333.715,-563.154 342.805,-568.597 344.215,-561.741"/>
</g>
<!-- SimpleGUICS2Pygame_simpleguics2pygame__joypads -->
<g id="node7" class="node"><title>SimpleGUICS2Pygame_simpleguics2pygame__joypads</title><style>.edge>path:hover{stroke-width:8}</style>
<ellipse fill="#a13535" stroke="black" cx="493.735" cy="-546.219" rx="88.2768" ry="28.9828"/>
<text text-anchor="middle" x="493.735" y="-554.719" font-family="Helvetica,sans-Serif" font-size="10.00" fill="#ffffff">SimpleGUICS2Pygame.</text>
<text text-anchor="middle" x="493.735" y="-543.719" font-family="Helvetica,sans-Serif" font-size="10.00" fill="#ffffff">simpleguics2pygame.</text>
<text text-anchor="middle" x="493.735" y="-532.719" font-family="Helvetica,sans-Serif" font-size="10.00" fill="#ffffff">_joypads</text>
</g>
<!-- SimpleGUICS2Pygame_simpleguics2pygame__pygame_init&#45;&gt;SimpleGUICS2Pygame_simpleguics2pygame__joypads -->
<g id="edge27" class="edge"><title>SimpleGUICS2Pygame_simpleguics2pygame__pygame_init&#45;&gt;SimpleGUICS2Pygame_simpleguics2pygame__joypads</title><style>.edge>path:hover{stroke-width:8}</style>
<path fill="none" stroke="black" d="M806.849,-623.75C749.35,-611.326 667.204,-593.058 595.735,-575.21 587.1,-573.054 578.078,-570.71 569.126,-568.328"/>
<polygon fill="#d10505" stroke="black" points="570.026,-564.946 559.46,-565.735 568.212,-571.707 570.026,-564.946"/>
</g>
<!-- SimpleGUICS2Pygame_simpleguics2pygame__pygame_init&#45;&gt;SimpleGUICS2Pygame_simpleguics2pygame_frame -->
<g id="edge31" class="edge"><title>SimpleGUICS2Pygame_simpleguics2pygame__pygame_init&#45;&gt;SimpleGUICS2Pygame_simpleguics2pygame_frame</title><style>.edge>path:hover{stroke-width:8}</style>
<path fill="none" stroke="black" d="M571.735,-451.236C553.106,-414.846 572.387,-400.129 571.735,-359.253"/>
</g>
<!-- SimpleGUICS2Pygame_simpleguics2pygame_control -->
<g id="node13" class="node"><title>SimpleGUICS2Pygame_simpleguics2pygame_control</title><style>.edge>path:hover{stroke-width:8}</style>
<ellipse fill="#a32828" stroke="black" cx="957.735" cy="-452.236" rx="88.2768" ry="28.9828"/>
<text text-anchor="middle" x="957.735" y="-460.736" font-family="Helvetica,sans-Serif" font-size="10.00" fill="#ffffff">SimpleGUICS2Pygame.</text>
<text text-anchor="middle" x="957.735" y="-449.736" font-family="Helvetica,sans-Serif" font-size="10.00" fill="#ffffff">simpleguics2pygame.</text>
<text text-anchor="middle" x="957.735" y="-438.736" font-family="Helvetica,sans-Serif" font-size="10.00" fill="#ffffff">control</text>
</g>
<!-- SimpleGUICS2Pygame_simpleguics2pygame__pygame_init&#45;&gt;SimpleGUICS2Pygame_simpleguics2pygame_control -->
<g id="edge30" class="edge"><title>SimpleGUICS2Pygame_simpleguics2pygame__pygame_init&#45;&gt;SimpleGUICS2Pygame_simpleguics2pygame_control</title><style>.edge>path:hover{stroke-width:8}</style>
<path fill="none" stroke="black" d="M841.735,-545.219C835.89,-515.169 860.595,-493.169 888.688,-478.234"/>
<polygon fill="#d10505" stroke="black" points="890.514,-481.234 897.893,-473.632 887.384,-474.973 890.514,-481.234"/>
</g>
<!-- SimpleGUICS2Pygame_simpleguics2pygame__pygame_init&#45;&gt;SimpleGUICS2Pygame_simpleguics2pygame_canvas -->
<g id="edge29" class="edge"><title>SimpleGUICS2Pygame_simpleguics2pygame__pygame_init&#45;&gt;SimpleGUICS2Pygame_simpleguics2pygame_canvas</title><style>.edge>path:hover{stroke-width:8}</style>
<path fill="none" stroke="black" d="M841.735,-545.219C833.929,-505.09 817.887,-486.441 841.735,-453.236"/>
</g>
<!-- SimpleGUICS2Pygame_simpleguics2pygame__colors -->
<g id="node15" class="node"><title>SimpleGUICS2Pygame_simpleguics2pygame__colors</title><style>.edge>path:hover{stroke-width:8}</style>
<ellipse fill="#bf2121" stroke="black" cx="995.735" cy="-546.219" rx="88.2768" ry="28.9828"/>
<text text-anchor="middle" x="995.735" y="-554.719" font-family="Helvetica,sans-Serif" font-size="10.00" fill="#ffffff">SimpleGUICS2Pygame.</text>
<text text-anchor="middle" x="995.735" y="-543.719" font-family="Helvetica,sans-Serif" font-size="10.00" fill="#ffffff">simpleguics2pygame.</text>
<text text-anchor="middle" x="995.735" y="-532.719" font-family="Helvetica,sans-Serif" font-size="10.00" fill="#ffffff">_colors</text>
</g>
<!-- SimpleGUICS2Pygame_simpleguics2pygame__pygame_init&#45;&gt;SimpleGUICS2Pygame_simpleguics2pygame__colors -->
<g id="edge25" class="edge"><title>SimpleGUICS2Pygame_simpleguics2pygame__pygame_init&#45;&gt;SimpleGUICS2Pygame_simpleguics2pygame__colors</title><style>.edge>path:hover{stroke-width:8}</style>
<path fill="none" stroke="black" d="M912.666,-613.089C925.768,-602.7 940.984,-590.634 954.786,-579.69"/>
<polygon fill="#d10505" stroke="black" points="957.061,-582.352 962.722,-573.397 952.712,-576.868 957.061,-582.352"/>
</g>
<!-- SimpleGUICS2Pygame_simpleguics2pygame__pygame_init&#45;&gt;SimpleGUICS2Pygame_simpleguics2pygame -->
<g id="edge24" class="edge"><title>SimpleGUICS2Pygame_simpleguics2pygame__pygame_init&#45;&gt;SimpleGUICS2Pygame_simpleguics2pygame</title><style>.edge>path:hover{stroke-width:8}</style>
<path fill="none" stroke="black" d="M945.912,-620.885C1006.36,-603.912 1087.19,-580.511 1092.73,-575.21 1172.49,-499.031 1162.64,-433.194 1125.73,-329.262 1113.47,-294.728 1085.26,-300.058 1073.73,-265.271"/>
</g>
<!-- SimpleGUICS2Pygame_simpleguics2pygame__pygame_init&#45;&gt;SimpleGUICS2Pygame_simpleguics2pygame__fonts -->
<g id="edge26" class="edge"><title>SimpleGUICS2Pygame_simpleguics2pygame__pygame_init&#45;&gt;SimpleGUICS2Pygame_simpleguics2pygame__fonts</title><style>.edge>path:hover{stroke-width:8}</style>
<path fill="none" stroke="black" d="M838.466,-614.552C819.218,-603.056 796.144,-589.274 775.898,-577.181"/>
<polygon fill="#d10505" stroke="black" points="777.498,-574.06 767.118,-571.937 773.908,-580.069 777.498,-574.06"/>
</g>
<!-- SimpleGUICS2Pygame_simpleguics2pygame__joypads&#45;&gt;SimpleGUICS2Pygame_simpleguics2pygame_frame -->
<g id="edge20" class="edge"><title>SimpleGUICS2Pygame_simpleguics2pygame__joypads&#45;&gt;SimpleGUICS2Pygame_simpleguics2pygame_frame</title><style>.edge>path:hover{stroke-width:8}</style>
<path fill="none" stroke="black" d="M508.59,-517.361C531.221,-473.887 571.735,-391.551 571.735,-359.253"/>
<path fill="none" stroke="black" d="M571.735,-357.253C571.517,-339.701 571.486,-320.263 571.522,-303.795"/>
<polygon fill="#a13535" stroke="black" points="575.023,-303.463 571.554,-293.452 568.023,-303.441 575.023,-303.463"/>
</g>
<!-- SimpleGUICS2Pygame_simplegui_lib_fps -->
<g id="node8" class="node"><title>SimpleGUICS2Pygame_simplegui_lib_fps</title><style>.edge>path:hover{stroke-width:8}</style>
<ellipse fill="#b83d3d" stroke="black" cx="571.735" cy="-99.6396" rx="88.2768" ry="21.4286"/>
<text text-anchor="middle" x="571.735" y="-102.64" font-family="Helvetica,sans-Serif" font-size="10.00" fill="#ffffff">SimpleGUICS2Pygame.</text>
<text text-anchor="middle" x="571.735" y="-91.6396" font-family="Helvetica,sans-Serif" font-size="10.00" fill="#ffffff">simplegui_lib_fps</text>
</g>
<!-- SimpleGUICS2Pygame_simplegui_lib_fps&#45;&gt;SimpleGUICS2Pygame_simplegui_lib -->
<g id="edge2" class="edge"><title>SimpleGUICS2Pygame_simplegui_lib_fps&#45;&gt;SimpleGUICS2Pygame_simplegui_lib</title><style>.edge>path:hover{stroke-width:8}</style>
<path fill="none" stroke="black" d="M546.752,-79.1563C534.542,-69.634 519.688,-58.0504 506.574,-47.8231"/>
<polygon fill="#b83d3d" stroke="black" points="508.71,-45.0507 498.672,-41.661 504.406,-50.5706 508.71,-45.0507"/>
</g>
<!-- SimpleGUICS2Pygame_simplegui_lib_loader -->
<g id="node9" class="node"><title>SimpleGUICS2Pygame_simplegui_lib_loader</title><style>.edge>path:hover{stroke-width:8}</style>
<ellipse fill="#b83d3d" stroke="black" cx="766.735" cy="-99.6396" rx="88.2768" ry="21.4286"/>
<text text-anchor="middle" x="766.735" y="-102.64" font-family="Helvetica,sans-Serif" font-size="10.00" fill="#ffffff">SimpleGUICS2Pygame.</text>
<text text-anchor="middle" x="766.735" y="-91.6396" font-family="Helvetica,sans-Serif" font-size="10.00" fill="#ffffff">simplegui_lib_loader</text>
</g>
<!-- SimpleGUICS2Pygame_simplegui_lib_loader&#45;&gt;SimpleGUICS2Pygame_simplegui_lib -->
<g id="edge4" class="edge"><title>SimpleGUICS2Pygame_simplegui_lib_loader&#45;&gt;SimpleGUICS2Pygame_simplegui_lib</title><style>.edge>path:hover{stroke-width:8}</style>
<path fill="none" stroke="black" d="M708.847,-83.5402C660.691,-70.979 592.073,-53.0805 541.388,-39.86"/>
<polygon fill="#b83d3d" stroke="black" points="542.062,-36.4186 531.502,-37.2812 540.295,-43.192 542.062,-36.4186"/>
</g>
<!-- SimpleGUICS2Pygame_simpleguics2pygame_sound&#45;&gt;SimpleGUICS2Pygame_simpleguics2pygame -->
<g id="edge44" class="edge"><title>SimpleGUICS2Pygame_simpleguics2pygame_sound&#45;&gt;SimpleGUICS2Pygame_simpleguics2pygame</title><style>.edge>path:hover{stroke-width:8}</style>
<path fill="none" stroke="black" d="M219.462,-423.009C214.858,-380.583 213.731,-301.497 261.735,-265.271"/>
</g>
<!-- SimpleGUICS2Pygame_simpleguics2pygame_frame&#45;&gt;SimpleGUICS2Pygame_simpleguics2pygame -->
<g id="edge38" class="edge"><title>SimpleGUICS2Pygame_simpleguics2pygame_frame&#45;&gt;SimpleGUICS2Pygame_simpleguics2pygame</title><style>.edge>path:hover{stroke-width:8}</style>
<path fill="none" stroke="black" d="M571.735,-235.232C571.735,-227.024 571.735,-218.01 571.735,-209.653"/>
<polygon fill="#732626" stroke="black" points="575.235,-209.527 571.735,-199.527 568.235,-209.527 575.235,-209.527"/>
</g>
<!-- SimpleGUICS2Pygame_simpleplot -->
<g id="node12" class="node"><title>SimpleGUICS2Pygame_simpleplot</title><style>.edge>path:hover{stroke-width:8}</style>
<ellipse fill="#ac4949" stroke="black" cx="995.735" cy="-726.406" rx="88.2768" ry="21.4286"/>
<text text-anchor="middle" x="995.735" y="-729.406" font-family="Helvetica,sans-Serif" font-size="10.00" fill="#ffffff">SimpleGUICS2Pygame.</text>
<text text-anchor="middle" x="995.735" y="-718.406" font-family="Helvetica,sans-Serif" font-size="10.00" fill="#ffffff">simpleplot</text>
</g>
<!-- SimpleGUICS2Pygame_simpleguics2pygame_control&#45;&gt;SimpleGUICS2Pygame_simpleguics2pygame_frame -->
<g id="edge37" class="edge"><title>SimpleGUICS2Pygame_simpleguics2pygame_control&#45;&gt;SimpleGUICS2Pygame_simpleguics2pygame_frame</title><style>.edge>path:hover{stroke-width:8}</style>
<path fill="none" stroke="black" d="M1001.17,-426.79C1026.98,-408.974 1051.81,-383.762 1035.73,-359.253"/>
<path fill="none" stroke="black" d="M1035.73,-357.253C1027.49,-344.682 1029.48,-337.231 1016.73,-329.262 960.358,-294.023 781.951,-277.347 668.892,-270.133"/>
<polygon fill="#a32828" stroke="black" points="669.038,-266.635 658.839,-269.505 668.602,-273.621 669.038,-266.635"/>
</g>
<!-- SimpleGUICS2Pygame_simpleguics2pygame_control&#45;&gt;SimpleGUICS2Pygame_simpleguics2pygame -->
<g id="edge36" class="edge"><title>SimpleGUICS2Pygame_simpleguics2pygame_control&#45;&gt;SimpleGUICS2Pygame_simpleguics2pygame</title><style>.edge>path:hover{stroke-width:8}</style>
<path fill="none" stroke="black" d="M1005.77,-427.663C1022.07,-417.392 1038.88,-403.859 1049.73,-387.245 1079.95,-340.99 1091.48,-317.594 1073.73,-265.271"/>
</g>
<!-- SimpleGUICS2Pygame_simpleguics2pygame_canvas&#45;&gt;SimpleGUICS2Pygame_simpleguics2pygame_frame -->
<g id="edge35" class="edge"><title>SimpleGUICS2Pygame_simpleguics2pygame_canvas&#45;&gt;SimpleGUICS2Pygame_simpleguics2pygame_frame</title><style>.edge>path:hover{stroke-width:8}</style>
<path fill="none" stroke="black" d="M853.653,-338.981C841.706,-335.716 829.355,-332.368 817.735,-329.262 761.596,-314.258 698.124,-297.759 649.715,-285.272"/>
<polygon fill="#9b2626" stroke="black" points="650.489,-281.857 639.932,-282.75 648.742,-288.636 650.489,-281.857"/>
</g>
<!-- SimpleGUICS2Pygame_simpleguics2pygame_canvas&#45;&gt;SimpleGUICS2Pygame_simpleguics2pygame -->
<g id="edge34" class="edge"><title>SimpleGUICS2Pygame_simpleguics2pygame_canvas&#45;&gt;SimpleGUICS2Pygame_simpleguics2pygame</title><style>.edge>path:hover{stroke-width:8}</style>
<path fill="none" stroke="black" d="M995.054,-343.004C1040.7,-330.03 1087.69,-306.413 1073.73,-265.271"/>
</g>
<!-- SimpleGUICS2Pygame_simpleguics2pygame__colors&#45;&gt;SimpleGUICS2Pygame_simpleguics2pygame_frame -->
<g id="edge16" class="edge"><title>SimpleGUICS2Pygame_simpleguics2pygame__colors&#45;&gt;SimpleGUICS2Pygame_simpleguics2pygame_frame</title><style>.edge>path:hover{stroke-width:8}</style>
<path fill="none" stroke="black" d="M1073.73,-451.236C1071.45,-407.063 1060,-396.237 1035.73,-359.253"/>
</g>
<!-- SimpleGUICS2Pygame_simpleguics2pygame__colors&#45;&gt;SimpleGUICS2Pygame_simpleguics2pygame_control -->
<g id="edge15" class="edge"><title>SimpleGUICS2Pygame_simpleguics2pygame__colors&#45;&gt;SimpleGUICS2Pygame_simpleguics2pygame_control</title><style>.edge>path:hover{stroke-width:8}</style>
<path fill="none" stroke="black" d="M984.127,-517.121C980.665,-508.741 976.815,-499.421 973.149,-490.548"/>
<polygon fill="#bf2121" stroke="black" points="976.325,-489.068 969.271,-481.162 969.855,-491.74 976.325,-489.068"/>
</g>
<!-- SimpleGUICS2Pygame_simpleguics2pygame__colors&#45;&gt;SimpleGUICS2Pygame_simpleguics2pygame_canvas -->
<g id="edge14" class="edge"><title>SimpleGUICS2Pygame_simpleguics2pygame__colors&#45;&gt;SimpleGUICS2Pygame_simpleguics2pygame_canvas</title><style>.edge>path:hover{stroke-width:8}</style>
<path fill="none" stroke="black" d="M1034.84,-520.06C1055,-503.714 1075.14,-480.419 1073.73,-453.236"/>
<path fill="none" stroke="black" d="M1073.73,-451.236C1072.96,-436.22 1066.15,-433.029 1054.73,-423.245 1035.61,-406.853 1011.56,-393.688 989.086,-383.662"/>
<polygon fill="#bf2121" stroke="black" points="990.47,-380.447 979.902,-379.696 987.695,-386.873 990.47,-380.447"/>
</g>
<!-- SimpleGUICS2Pygame_simpleguics2pygame&#45;&gt;SimpleGUICS2Pygame_simplegui_lib_fps -->
<g id="edge5" class="edge"><title>SimpleGUICS2Pygame_simpleguics2pygame&#45;&gt;SimpleGUICS2Pygame_simplegui_lib_fps</title><style>.edge>path:hover{stroke-width:8}</style>
<path fill="none" stroke="black" d="M571.735,-156.585C571.735,-148.726 571.735,-139.582 571.735,-130.992"/>
<polygon fill="#950303" stroke="black" points="575.235,-130.912 571.735,-120.912 568.235,-130.912 575.235,-130.912"/>
</g>
<!-- SimpleGUICS2Pygame_simpleguics2pygame&#45;&gt;SimpleGUICS2Pygame_simplegui_lib_loader -->
<g id="edge7" class="edge"><title>SimpleGUICS2Pygame_simpleguics2pygame&#45;&gt;SimpleGUICS2Pygame_simplegui_lib_loader</title><style>.edge>path:hover{stroke-width:8}</style>
<path fill="none" stroke="black" d="M616.472,-159.532C645.084,-148.318 682.372,-133.704 712.644,-121.84"/>
<polygon fill="#950303" stroke="black" points="714.173,-125 722.206,-118.092 711.618,-118.482 714.173,-125"/>
</g>
<!-- SimpleGUICS2Pygame_simplegui_lib_keys -->
<g id="node18" class="node"><title>SimpleGUICS2Pygame_simplegui_lib_keys</title><style>.edge>path:hover{stroke-width:8}</style>
<ellipse fill="#b83d3d" stroke="black" cx="376.735" cy="-99.6396" rx="88.2768" ry="21.4286"/>
<text text-anchor="middle" x="376.735" y="-102.64" font-family="Helvetica,sans-Serif" font-size="10.00" fill="#ffffff">SimpleGUICS2Pygame.</text>
<text text-anchor="middle" x="376.735" y="-91.6396" font-family="Helvetica,sans-Serif" font-size="10.00" fill="#ffffff">simplegui_lib_keys</text>
</g>
<!-- SimpleGUICS2Pygame_simpleguics2pygame&#45;&gt;SimpleGUICS2Pygame_simplegui_lib_keys -->
<g id="edge6" class="edge"><title>SimpleGUICS2Pygame_simpleguics2pygame&#45;&gt;SimpleGUICS2Pygame_simplegui_lib_keys</title><style>.edge>path:hover{stroke-width:8}</style>
<path fill="none" stroke="black" d="M526.998,-159.532C498.386,-148.318 461.098,-133.704 430.826,-121.84"/>
<polygon fill="#950303" stroke="black" points="431.851,-118.482 421.264,-118.092 429.297,-125 431.851,-118.482"/>
</g>
<!-- SimpleGUICS2Pygame_simplegui_lib_keys&#45;&gt;SimpleGUICS2Pygame_simplegui_lib -->
<g id="edge3" class="edge"><title>SimpleGUICS2Pygame_simplegui_lib_keys&#45;&gt;SimpleGUICS2Pygame_simplegui_lib</title><style>.edge>path:hover{stroke-width:8}</style>
<path fill="none" stroke="black" d="M401.463,-79.1563C413.435,-69.7239 427.973,-58.2688 440.863,-48.1129"/>
<polygon fill="#b83d3d" stroke="black" points="443.363,-50.599 449.052,-41.661 439.031,-45.1007 443.363,-50.599"/>
</g>
<!-- SimpleGUICS2Pygame_simpleguics2pygame_timer&#45;&gt;SimpleGUICS2Pygame_simpleguics2pygame_frame -->
<g id="edge46" class="edge"><title>SimpleGUICS2Pygame_simpleguics2pygame_timer&#45;&gt;SimpleGUICS2Pygame_simpleguics2pygame_frame</title><style>.edge>path:hover{stroke-width:8}</style>
<path fill="none" stroke="black" d="M172.532,-338.501C184.835,-335.216 197.642,-331.984 209.735,-329.262 301.908,-308.515 408.531,-290.364 482.069,-278.745"/>
<polygon fill="#bc2f2f" stroke="black" points="482.886,-282.159 492.221,-277.149 481.799,-275.244 482.886,-282.159"/>
</g>
<!-- SimpleGUICS2Pygame_simpleguics2pygame_timer&#45;&gt;SimpleGUICS2Pygame_simpleguics2pygame -->
<g id="edge45" class="edge"><title>SimpleGUICS2Pygame_simpleguics2pygame_timer&#45;&gt;SimpleGUICS2Pygame_simpleguics2pygame</title><style>.edge>path:hover{stroke-width:8}</style>
<path fill="none" stroke="black" d="M153.523,-333.329C185.055,-316.044 227.307,-291.252 261.735,-265.271"/>
</g>
<!-- SimpleGUICS2Pygame_simpleguics2pygame__fonts&#45;&gt;SimpleGUICS2Pygame_simpleguics2pygame_frame -->
<g id="edge19" class="edge"><title>SimpleGUICS2Pygame_simpleguics2pygame__fonts&#45;&gt;SimpleGUICS2Pygame_simpleguics2pygame_frame</title><style>.edge>path:hover{stroke-width:8}</style>
<path fill="none" stroke="black" d="M678.755,-521.425C661.387,-510.905 642.581,-497.259 628.735,-481.227 609.178,-458.585 572.106,-389.17 571.735,-359.253"/>
</g>
<!-- SimpleGUICS2Pygame_simpleguics2pygame__fonts&#45;&gt;SimpleGUICS2Pygame_simpleguics2pygame_control -->
<g id="edge18" class="edge"><title>SimpleGUICS2Pygame_simpleguics2pygame__fonts&#45;&gt;SimpleGUICS2Pygame_simpleguics2pygame_control</title><style>.edge>path:hover{stroke-width:8}</style>
<path fill="none" stroke="black" d="M780.716,-523.42C814.398,-510.066 857.675,-492.908 893.007,-478.899"/>
<polygon fill="#b62020" stroke="black" points="894.741,-481.977 902.747,-475.037 892.161,-475.47 894.741,-481.977"/>
</g>
<!-- SimpleGUICS2Pygame_simpleguics2pygame__fonts&#45;&gt;SimpleGUICS2Pygame_simpleguics2pygame_canvas -->
<g id="edge17" class="edge"><title>SimpleGUICS2Pygame_simpleguics2pygame__fonts&#45;&gt;SimpleGUICS2Pygame_simpleguics2pygame_canvas</title><style>.edge>path:hover{stroke-width:8}</style>
<path fill="none" stroke="black" d="M770.449,-520.83C787.904,-510.058 807.37,-496.391 822.735,-481.227 833.437,-470.666 832.964,-465.449 841.735,-453.236"/>
<path fill="none" stroke="black" d="M841.735,-451.236C850.506,-439.023 851.391,-435.025 860.735,-423.245 868.585,-413.348 877.599,-403.092 886.181,-393.765"/>
<polygon fill="#b62020" stroke="black" points="888.994,-395.88 893.252,-386.179 883.873,-391.107 888.994,-395.88"/>
</g>
<!-- matplotlib -->
<g id="node21" class="node"><title>matplotlib</title><style>.edge>path:hover{stroke-width:8}</style>
<polygon fill="#4cb34c" stroke="black" points="1025.23,-856.619 1022.23,-860.619 1001.23,-860.619 998.235,-856.619 966.235,-856.619 966.235,-820.619 1025.23,-820.619 1025.23,-856.619"/>
<text text-anchor="middle" x="995.735" y="-836.119" font-family="Helvetica,sans-Serif" font-size="10.00" fill="#000000">matplotlib</text>
</g>
<!-- matplotlib&#45;&gt;SimpleGUICS2Pygame_simpleplot -->
<g id="edge47" class="edge"><title>matplotlib&#45;&gt;SimpleGUICS2Pygame_simpleplot</title><style>.edge>path:hover{stroke-width:8}</style>
<path fill="none" stroke="black" d="M995.735,-820.399C995.735,-803.771 995.735,-778.225 995.735,-758.112"/>
<polygon fill="#4cb34c" stroke="black" points="999.235,-757.878 995.735,-747.878 992.235,-757.878 999.235,-757.878"/>
</g>
<!-- pygame -->
<g id="node22" class="node"><title>pygame</title><style>.edge>path:hover{stroke-width:8}</style>
<polygon fill="#4747c2" stroke="black" points="906.735,-856.619 903.735,-860.619 882.735,-860.619 879.735,-856.619 852.735,-856.619 852.735,-820.619 906.735,-820.619 906.735,-856.619"/>
<text text-anchor="middle" x="879.735" y="-836.119" font-family="Helvetica,sans-Serif" font-size="10.00" fill="#ffffff">pygame</text>
</g>
<!-- pygame&#45;&gt;SimpleGUICS2Pygame_simpleguics2pygame_keys -->
<g id="edge56" class="edge"><title>pygame&#45;&gt;SimpleGUICS2Pygame_simpleguics2pygame_keys</title><style>.edge>path:hover{stroke-width:8}</style>
<path fill="none" stroke="black" d="M493.735,-639.202C455.791,-604.163 421.215,-620.687 396.735,-575.21 365.129,-516.496 402.384,-439.487 430.398,-395.075"/>
<polygon fill="#4747c2" stroke="black" points="433.36,-396.939 435.854,-386.642 427.483,-393.136 433.36,-396.939"/>
</g>
<!-- pygame&#45;&gt;SimpleGUICS2Pygame_simpleguics2pygame__media -->
<g id="edge51" class="edge"><title>pygame&#45;&gt;SimpleGUICS2Pygame_simpleguics2pygame__media</title><style>.edge>path:hover{stroke-width:8}</style>
<path fill="none" stroke="black" d="M883.758,-820.365C888.109,-797.938 892.806,-758.026 879.735,-727.406"/>
<path fill="none" stroke="black" d="M879.735,-725.406C841.132,-646.553 558.236,-700.764 493.735,-641.202"/>
<path fill="none" stroke="black" d="M493.735,-639.202C469.688,-616.996 393.214,-588.961 334.573,-569.713"/>
<polygon fill="#4747c2" stroke="black" points="335.55,-566.35 324.957,-566.583 333.383,-573.006 335.55,-566.35"/>
</g>
<!-- pygame&#45;&gt;SimpleGUICS2Pygame_simpleguics2pygame__pygame_init -->
<g id="edge52" class="edge"><title>pygame&#45;&gt;SimpleGUICS2Pygame_simpleguics2pygame__pygame_init</title><style>.edge>path:hover{stroke-width:8}</style>
<path fill="none" stroke="black" d="M879.735,-725.406C873.626,-711.096 872.597,-694.129 873.479,-679.188"/>
<polygon fill="#4747c2" stroke="black" points="876.966,-679.495 874.357,-669.226 869.993,-678.88 876.966,-679.495"/>
</g>
<!-- pygame&#45;&gt;SimpleGUICS2Pygame_simpleguics2pygame__joypads -->
<g id="edge50" class="edge"><title>pygame&#45;&gt;SimpleGUICS2Pygame_simpleguics2pygame__joypads</title><style>.edge>path:hover{stroke-width:8}</style>
<path fill="none" stroke="black" d="M493.735,-639.202C479.315,-625.886 478.741,-604.153 482.043,-585.155"/>
<polygon fill="#4747c2" stroke="black" points="485.494,-585.75 484.14,-575.242 478.646,-584.301 485.494,-585.75"/>
</g>
<!-- pygame&#45;&gt;SimpleGUICS2Pygame_simpleguics2pygame_frame -->
<g id="edge55" class="edge"><title>pygame&#45;&gt;SimpleGUICS2Pygame_simpleguics2pygame_frame</title><style>.edge>path:hover{stroke-width:8}</style>
<path fill="none" stroke="black" d="M1111.73,-451.236C1089.66,-394.571 1099.34,-364.438 1049.73,-329.262 990.404,-287.191 791.439,-272.75 669.7,-267.814"/>
<polygon fill="#4747c2" stroke="black" points="669.75,-264.314 659.621,-267.42 669.477,-271.308 669.75,-264.314"/>
</g>
<!-- pygame&#45;&gt;SimpleGUICS2Pygame_simpleguics2pygame_control -->
<g id="edge54" class="edge"><title>pygame&#45;&gt;SimpleGUICS2Pygame_simpleguics2pygame_control</title><style>.edge>path:hover{stroke-width:8}</style>
<path fill="none" stroke="black" d="M879.735,-725.406C874.314,-714.333 888.732,-712.401 898.735,-705.193 929.712,-682.873 947.617,-693.89 976.735,-669.193 988.202,-659.467 988.981,-654.635 995.735,-641.202"/>
<path fill="none" stroke="black" d="M995.735,-639.202C1002.49,-625.768 988.202,-620.936 976.735,-611.21 947.617,-586.513 919.313,-607.371 898.735,-575.21 884.846,-553.503 889.358,-541.231 898.735,-517.227 903.116,-506.011 910.487,-495.577 918.561,-486.526"/>
<polygon fill="#4747c2" stroke="black" points="921.112,-488.922 925.459,-479.26 916.035,-484.103 921.112,-488.922"/>
</g>
<!-- pygame&#45;&gt;SimpleGUICS2Pygame_simpleguics2pygame_canvas -->
<g id="edge53" class="edge"><title>pygame&#45;&gt;SimpleGUICS2Pygame_simpleguics2pygame_canvas</title><style>.edge>path:hover{stroke-width:8}</style>
<path fill="none" stroke="black" d="M995.735,-639.202C1020.07,-593.648 1064.82,-618.662 1092.73,-575.21 1122.39,-529.052 1133,-503.812 1111.73,-453.236"/>
<path fill="none" stroke="black" d="M1111.73,-451.236C1105.79,-435.966 1101.14,-432.672 1087.73,-423.245 1060.78,-404.288 1027.49,-390.084 997.667,-379.936"/>
<polygon fill="#4747c2" stroke="black" points="998.712,-376.595 988.119,-376.783 996.517,-383.242 998.712,-376.595"/>
</g>
<!-- pygame&#45;&gt;SimpleGUICS2Pygame_simpleguics2pygame__colors -->
<g id="edge48" class="edge"><title>pygame&#45;&gt;SimpleGUICS2Pygame_simpleguics2pygame__colors</title><style>.edge>path:hover{stroke-width:8}</style>
<path fill="none" stroke="black" d="M995.735,-639.202C1003.93,-622.896 1004.81,-602.818 1003.27,-585.585"/>
<polygon fill="#4747c2" stroke="black" points="1006.7,-584.798 1002.04,-575.282 999.752,-585.626 1006.7,-584.798"/>
</g>
<!-- pygame&#45;&gt;SimpleGUICS2Pygame_simpleguics2pygame__fonts -->
<g id="edge49" class="edge"><title>pygame&#45;&gt;SimpleGUICS2Pygame_simpleguics2pygame__fonts</title><style>.edge>path:hover{stroke-width:8}</style>
<path fill="none" stroke="black" d="M493.735,-639.202C468.031,-615.466 567.089,-585.07 643.725,-565.864"/>
<polygon fill="#4747c2" stroke="black" points="645.032,-569.147 653.898,-563.347 643.35,-562.352 645.032,-569.147"/>
</g>
</g>
</svg>
