<?xml version="1.0" encoding="UTF-8" standalone="no"?>
<!DOCTYPE svg PUBLIC "-//W3C//DTD SVG 1.1//EN"
 "http://www.w3.org/Graphics/SVG/1.1/DTD/svg11.dtd">
<!-- Generated by graphviz version 2.38.0 (20140413.2041)
 -->
<!-- Title: G Pages: 1 -->
<svg width="999pt" height="865pt"
 viewBox="0.00 0.00 999.02 864.62" xmlns="http://www.w3.org/2000/svg" xmlns:xlink="http://www.w3.org/1999/xlink">
<g id="graph0" class="graph" transform="scale(1 1) rotate(0) translate(4 860.619)">
<title>G</title><style>.edge>path:hover{stroke-width:8}</style>
<polygon fill="white" stroke="none" points="-4,4 -4,-860.619 995.016,-860.619 995.016,4 -4,4"/>
<!-- SimpleGUICS2Pygame_simplegui_lib -->
<g id="node1" class="node"><title>SimpleGUICS2Pygame_simplegui_lib</title><style>.edge>path:hover{stroke-width:8}</style>
<ellipse fill="#964040" stroke="black" cx="528.719" cy="-21.2132" rx="88.2768" ry="21.4286"/>
<text text-anchor="middle" x="528.719" y="-24.2132" font-family="Helvetica,sans-Serif" font-size="10.00" fill="#ffffff">SimpleGUICS2Pygame.</text>
<text text-anchor="middle" x="528.719" y="-13.2132" font-family="Helvetica,sans-Serif" font-size="10.00" fill="#ffffff">simplegui_lib</text>
</g>
<!-- SimpleGUICS2Pygame_simplegui_lib_fps -->
<g id="node2" class="node"><title>SimpleGUICS2Pygame_simplegui_lib_fps</title><style>.edge>path:hover{stroke-width:8}</style>
<ellipse fill="#b83d3d" stroke="black" cx="236.719" cy="-99.6396" rx="88.2768" ry="21.4286"/>
<text text-anchor="middle" x="236.719" y="-102.64" font-family="Helvetica,sans-Serif" font-size="10.00" fill="#ffffff">SimpleGUICS2Pygame.</text>
<text text-anchor="middle" x="236.719" y="-91.6396" font-family="Helvetica,sans-Serif" font-size="10.00" fill="#ffffff">simplegui_lib_fps</text>
</g>
<!-- SimpleGUICS2Pygame_simplegui_lib_fps&#45;&gt;SimpleGUICS2Pygame_simplegui_lib -->
<g id="edge2" class="edge"><title>SimpleGUICS2Pygame_simplegui_lib_fps&#45;&gt;SimpleGUICS2Pygame_simplegui_lib</title><style>.edge>path:hover{stroke-width:8}</style>
<path fill="none" stroke="black" d="M294.409,-83.5402C342.323,-70.9994 410.563,-53.1386 461.05,-39.9244"/>
<polygon fill="#b83d3d" stroke="black" points="462.112,-43.2646 470.899,-37.3465 460.339,-36.4927 462.112,-43.2646"/>
</g>
<!-- SimpleGUICS2Pygame_simpleguics2pygame_sound -->
<g id="node3" class="node"><title>SimpleGUICS2Pygame_simpleguics2pygame_sound</title><style>.edge>path:hover{stroke-width:8}</style>
<ellipse fill="#a83838" stroke="black" cx="120.719" cy="-452.236" rx="88.2768" ry="28.9828"/>
<text text-anchor="middle" x="120.719" y="-460.736" font-family="Helvetica,sans-Serif" font-size="10.00" fill="#ffffff">SimpleGUICS2Pygame.</text>
<text text-anchor="middle" x="120.719" y="-449.736" font-family="Helvetica,sans-Serif" font-size="10.00" fill="#ffffff">simpleguics2pygame.</text>
<text text-anchor="middle" x="120.719" y="-438.736" font-family="Helvetica,sans-Serif" font-size="10.00" fill="#ffffff">sound</text>
</g>
<!-- SimpleGUICS2Pygame_simpleguics2pygame -->
<g id="node12" class="node"><title>SimpleGUICS2Pygame_simpleguics2pygame</title><style>.edge>path:hover{stroke-width:8}</style>
<ellipse fill="#950303" stroke="black" cx="431.719" cy="-178.066" rx="88.2768" ry="21.4286"/>
<text text-anchor="middle" x="431.719" y="-181.066" font-family="Helvetica,sans-Serif" font-size="10.00" fill="#ffffff">SimpleGUICS2Pygame.</text>
<text text-anchor="middle" x="431.719" y="-170.066" font-family="Helvetica,sans-Serif" font-size="10.00" fill="#ffffff">simpleguics2pygame</text>
</g>
<!-- SimpleGUICS2Pygame_simpleguics2pygame_sound&#45;&gt;SimpleGUICS2Pygame_simpleguics2pygame -->
<g id="edge43" class="edge"><title>SimpleGUICS2Pygame_simpleguics2pygame_sound&#45;&gt;SimpleGUICS2Pygame_simpleguics2pygame</title><style>.edge>path:hover{stroke-width:8}</style>
<path fill="none" stroke="black" d="M61.076,-430.772C29.8142,-415.932 -0.948407,-392.573 4.71876,-359.253"/>
</g>
<!-- SimpleGUICS2Pygame_simpleguics2pygame_keys -->
<g id="node4" class="node"><title>SimpleGUICS2Pygame_simpleguics2pygame_keys</title><style>.edge>path:hover{stroke-width:8}</style>
<ellipse fill="#ce3b3b" stroke="black" cx="315.719" cy="-358.253" rx="88.2768" ry="28.9828"/>
<text text-anchor="middle" x="315.719" y="-366.753" font-family="Helvetica,sans-Serif" font-size="10.00" fill="#ffffff">SimpleGUICS2Pygame.</text>
<text text-anchor="middle" x="315.719" y="-355.753" font-family="Helvetica,sans-Serif" font-size="10.00" fill="#ffffff">simpleguics2pygame.</text>
<text text-anchor="middle" x="315.719" y="-344.753" font-family="Helvetica,sans-Serif" font-size="10.00" fill="#ffffff">keys</text>
</g>
<!-- SimpleGUICS2Pygame_simpleguics2pygame_frame -->
<g id="node11" class="node"><title>SimpleGUICS2Pygame_simpleguics2pygame_frame</title><style>.edge>path:hover{stroke-width:8}</style>
<ellipse fill="#732626" stroke="black" cx="431.719" cy="-264.271" rx="88.2768" ry="28.9828"/>
<text text-anchor="middle" x="431.719" y="-272.771" font-family="Helvetica,sans-Serif" font-size="10.00" fill="#ffffff">SimpleGUICS2Pygame.</text>
<text text-anchor="middle" x="431.719" y="-261.771" font-family="Helvetica,sans-Serif" font-size="10.00" fill="#ffffff">simpleguics2pygame.</text>
<text text-anchor="middle" x="431.719" y="-250.771" font-family="Helvetica,sans-Serif" font-size="10.00" fill="#ffffff">frame</text>
</g>
<!-- SimpleGUICS2Pygame_simpleguics2pygame_keys&#45;&gt;SimpleGUICS2Pygame_simpleguics2pygame_frame -->
<g id="edge42" class="edge"><title>SimpleGUICS2Pygame_simpleguics2pygame_keys&#45;&gt;SimpleGUICS2Pygame_simpleguics2pygame_frame</title><style>.edge>path:hover{stroke-width:8}</style>
<path fill="none" stroke="black" d="M348.649,-331.141C361.752,-320.751 376.967,-308.686 390.769,-297.742"/>
<polygon fill="#ce3b3b" stroke="black" points="393.045,-300.404 398.706,-291.448 388.696,-294.919 393.045,-300.404"/>
</g>
<!-- SimpleGUICS2Pygame_simpleguics2pygame_keys&#45;&gt;SimpleGUICS2Pygame_simpleguics2pygame -->
<g id="edge41" class="edge"><title>SimpleGUICS2Pygame_simpleguics2pygame_keys&#45;&gt;SimpleGUICS2Pygame_simpleguics2pygame</title><style>.edge>path:hover{stroke-width:8}</style>
<path fill="none" stroke="black" d="M257.803,-336.26C197.598,-313.564 113.075,-278.821 120.719,-265.271"/>
</g>
<!-- SimpleGUICS2Pygame_simpleguics2pygame__arguments -->
<g id="node5" class="node"><title>SimpleGUICS2Pygame_simpleguics2pygame__arguments</title><style>.edge>path:hover{stroke-width:8}</style>
<ellipse fill="#f90606" stroke="black" cx="121.719" cy="-640.202" rx="88.2768" ry="28.9828"/>
<text text-anchor="middle" x="121.719" y="-648.702" font-family="Helvetica,sans-Serif" font-size="10.00" fill="#ffffff">SimpleGUICS2Pygame.</text>
<text text-anchor="middle" x="121.719" y="-637.702" font-family="Helvetica,sans-Serif" font-size="10.00" fill="#ffffff">simpleguics2pygame.</text>
<text text-anchor="middle" x="121.719" y="-626.702" font-family="Helvetica,sans-Serif" font-size="10.00" fill="#ffffff">_arguments</text>
</g>
<!-- SimpleGUICS2Pygame_simpleguics2pygame__arguments&#45;&gt;SimpleGUICS2Pygame_simpleguics2pygame_sound -->
<g id="edge12" class="edge"><title>SimpleGUICS2Pygame_simpleguics2pygame__arguments&#45;&gt;SimpleGUICS2Pygame_simpleguics2pygame_sound</title><style>.edge>path:hover{stroke-width:8}</style>
<path fill="none" stroke="black" d="M5.71876,-545.219C8.18242,-516.164 31.2768,-494.741 56.1303,-479.916"/>
<polygon fill="#f90606" stroke="black" points="57.9648,-482.9 64.9636,-474.946 54.5321,-476.799 57.9648,-482.9"/>
</g>
<!-- SimpleGUICS2Pygame_simpleguics2pygame_timer -->
<g id="node6" class="node"><title>SimpleGUICS2Pygame_simpleguics2pygame_timer</title><style>.edge>path:hover{stroke-width:8}</style>
<ellipse fill="#bc2f2f" stroke="black" cx="120.719" cy="-358.253" rx="88.2768" ry="28.9828"/>
<text text-anchor="middle" x="120.719" y="-366.753" font-family="Helvetica,sans-Serif" font-size="10.00" fill="#ffffff">SimpleGUICS2Pygame.</text>
<text text-anchor="middle" x="120.719" y="-355.753" font-family="Helvetica,sans-Serif" font-size="10.00" fill="#ffffff">simpleguics2pygame.</text>
<text text-anchor="middle" x="120.719" y="-344.753" font-family="Helvetica,sans-Serif" font-size="10.00" fill="#ffffff">timer</text>
</g>
<!-- SimpleGUICS2Pygame_simpleguics2pygame__arguments&#45;&gt;SimpleGUICS2Pygame_simpleguics2pygame_timer -->
<g id="edge13" class="edge"><title>SimpleGUICS2Pygame_simpleguics2pygame__arguments&#45;&gt;SimpleGUICS2Pygame_simpleguics2pygame_timer</title><style>.edge>path:hover{stroke-width:8}</style>
<path fill="none" stroke="black" d="M5.71876,-545.219C6.98915,-530.237 12.0851,-525.38 24.7188,-517.227 94.6463,-472.101 375.678,-534.481 393.719,-453.236"/>
<path fill="none" stroke="black" d="M393.719,-451.236C395.998,-440.973 277.482,-404.502 195.885,-380.684"/>
<polygon fill="#f90606" stroke="black" points="196.708,-377.278 186.128,-377.844 194.752,-383.999 196.708,-377.278"/>
</g>
<!-- SimpleGUICS2Pygame_simpleguics2pygame__fonts -->
<g id="node9" class="node"><title>SimpleGUICS2Pygame_simpleguics2pygame__fonts</title><style>.edge>path:hover{stroke-width:8}</style>
<ellipse fill="#b62020" stroke="black" cx="585.719" cy="-546.219" rx="88.2768" ry="28.9828"/>
<text text-anchor="middle" x="585.719" y="-554.719" font-family="Helvetica,sans-Serif" font-size="10.00" fill="#ffffff">SimpleGUICS2Pygame.</text>
<text text-anchor="middle" x="585.719" y="-543.719" font-family="Helvetica,sans-Serif" font-size="10.00" fill="#ffffff">simpleguics2pygame.</text>
<text text-anchor="middle" x="585.719" y="-532.719" font-family="Helvetica,sans-Serif" font-size="10.00" fill="#ffffff">_fonts</text>
</g>
<!-- SimpleGUICS2Pygame_simpleguics2pygame__arguments&#45;&gt;SimpleGUICS2Pygame_simpleguics2pygame__fonts -->
<g id="edge9" class="edge"><title>SimpleGUICS2Pygame_simpleguics2pygame__arguments&#45;&gt;SimpleGUICS2Pygame_simpleguics2pygame__fonts</title><style>.edge>path:hover{stroke-width:8}</style>
<path fill="none" stroke="black" d="M196.905,-624.851C263.622,-612.052 363.72,-592.69 450.719,-575.21 467.491,-571.84 485.421,-568.17 502.555,-564.63"/>
<polygon fill="#f90606" stroke="black" points="503.453,-568.019 512.536,-562.564 502.034,-561.164 503.453,-568.019"/>
</g>
<!-- SimpleGUICS2Pygame_simpleguics2pygame__media -->
<g id="node10" class="node"><title>SimpleGUICS2Pygame_simpleguics2pygame__media</title><style>.edge>path:hover{stroke-width:8}</style>
<ellipse fill="#b62020" stroke="black" cx="121.719" cy="-546.219" rx="88.2768" ry="28.9828"/>
<text text-anchor="middle" x="121.719" y="-554.719" font-family="Helvetica,sans-Serif" font-size="10.00" fill="#ffffff">SimpleGUICS2Pygame.</text>
<text text-anchor="middle" x="121.719" y="-543.719" font-family="Helvetica,sans-Serif" font-size="10.00" fill="#ffffff">simpleguics2pygame.</text>
<text text-anchor="middle" x="121.719" y="-532.719" font-family="Helvetica,sans-Serif" font-size="10.00" fill="#ffffff">_media</text>
</g>
<!-- SimpleGUICS2Pygame_simpleguics2pygame__arguments&#45;&gt;SimpleGUICS2Pygame_simpleguics2pygame__media -->
<g id="edge10" class="edge"><title>SimpleGUICS2Pygame_simpleguics2pygame__arguments&#45;&gt;SimpleGUICS2Pygame_simpleguics2pygame__media</title><style>.edge>path:hover{stroke-width:8}</style>
<path fill="none" stroke="black" d="M121.719,-611.104C121.719,-603.066 121.719,-594.164 121.719,-585.621"/>
<polygon fill="#f90606" stroke="black" points="125.219,-585.461 121.719,-575.461 118.219,-585.461 125.219,-585.461"/>
</g>
<!-- SimpleGUICS2Pygame_simpleguics2pygame__arguments&#45;&gt;SimpleGUICS2Pygame_simpleguics2pygame_frame -->
<g id="edge11" class="edge"><title>SimpleGUICS2Pygame_simpleguics2pygame__arguments&#45;&gt;SimpleGUICS2Pygame_simpleguics2pygame_frame</title><style>.edge>path:hover{stroke-width:8}</style>
<path fill="none" stroke="black" d="M393.719,-451.236C403.307,-408.055 449.911,-399.571 431.719,-359.253"/>
<path fill="none" stroke="black" d="M431.719,-357.253C424.267,-340.739 423.42,-320.796 424.787,-303.708"/>
<polygon fill="#f90606" stroke="black" points="428.297,-303.809 425.886,-293.492 421.337,-303.061 428.297,-303.809"/>
</g>
<!-- SimpleGUICS2Pygame_simpleguics2pygame__arguments&#45;&gt;SimpleGUICS2Pygame_simpleguics2pygame -->
<g id="edge8" class="edge"><title>SimpleGUICS2Pygame_simpleguics2pygame__arguments&#45;&gt;SimpleGUICS2Pygame_simpleguics2pygame</title><style>.edge>path:hover{stroke-width:8}</style>
<path fill="none" stroke="black" d="M63.0264,-618.484C32.8531,-603.712 2.8957,-580.512 5.71876,-547.219"/>
<path fill="none" stroke="black" d="M5.71876,-545.219C12.7022,-462.862 -9.14018,-440.736 4.71876,-359.253"/>
<path fill="none" stroke="black" d="M4.71876,-357.253C7.26855,-342.435 13.017,-339.824 23.7188,-329.262 60.4786,-292.983 95.3434,-310.254 120.719,-265.271"/>
<path fill="none" stroke="black" d="M120.719,-263.271C142.738,-224.237 259.036,-201.078 342.964,-189.213"/>
<polygon fill="#f90606" stroke="black" points="343.603,-192.658 353.03,-187.822 342.645,-185.724 343.603,-192.658"/>
</g>
<!-- SimpleGUICS2Pygame_simpleguics2pygame_timer&#45;&gt;SimpleGUICS2Pygame_simpleguics2pygame_frame -->
<g id="edge45" class="edge"><title>SimpleGUICS2Pygame_simpleguics2pygame_timer&#45;&gt;SimpleGUICS2Pygame_simpleguics2pygame_frame</title><style>.edge>path:hover{stroke-width:8}</style>
<path fill="none" stroke="black" d="M185.158,-338.194C235.406,-323.333 305.24,-302.678 357.765,-287.144"/>
<polygon fill="#bc2f2f" stroke="black" points="358.765,-290.498 367.362,-284.305 356.78,-283.785 358.765,-290.498"/>
</g>
<!-- SimpleGUICS2Pygame_simpleguics2pygame_timer&#45;&gt;SimpleGUICS2Pygame_simpleguics2pygame -->
<g id="edge44" class="edge"><title>SimpleGUICS2Pygame_simpleguics2pygame_timer&#45;&gt;SimpleGUICS2Pygame_simpleguics2pygame</title><style>.edge>path:hover{stroke-width:8}</style>
<path fill="none" stroke="black" d="M113.885,-329.291C110.75,-310.06 109.813,-284.604 120.719,-265.271"/>
</g>
<!-- SimpleGUICS2Pygame_simplegui_lib_keys -->
<g id="node7" class="node"><title>SimpleGUICS2Pygame_simplegui_lib_keys</title><style>.edge>path:hover{stroke-width:8}</style>
<ellipse fill="#b83d3d" stroke="black" cx="431.719" cy="-99.6396" rx="88.2768" ry="21.4286"/>
<text text-anchor="middle" x="431.719" y="-102.64" font-family="Helvetica,sans-Serif" font-size="10.00" fill="#ffffff">SimpleGUICS2Pygame.</text>
<text text-anchor="middle" x="431.719" y="-91.6396" font-family="Helvetica,sans-Serif" font-size="10.00" fill="#ffffff">simplegui_lib_keys</text>
</g>
<!-- SimpleGUICS2Pygame_simplegui_lib_keys&#45;&gt;SimpleGUICS2Pygame_simplegui_lib -->
<g id="edge3" class="edge"><title>SimpleGUICS2Pygame_simplegui_lib_keys&#45;&gt;SimpleGUICS2Pygame_simplegui_lib</title><style>.edge>path:hover{stroke-width:8}</style>
<path fill="none" stroke="black" d="M456.447,-79.1563C468.418,-69.7239 482.957,-58.2688 495.847,-48.1129"/>
<polygon fill="#b83d3d" stroke="black" points="498.347,-50.599 504.036,-41.661 494.015,-45.1007 498.347,-50.599"/>
</g>
<!-- SimpleGUICS2Pygame_simpleguics2pygame__joypads -->
<g id="node8" class="node"><title>SimpleGUICS2Pygame_simpleguics2pygame__joypads</title><style>.edge>path:hover{stroke-width:8}</style>
<ellipse fill="#a13535" stroke="black" cx="353.719" cy="-546.219" rx="88.2768" ry="28.9828"/>
<text text-anchor="middle" x="353.719" y="-554.719" font-family="Helvetica,sans-Serif" font-size="10.00" fill="#ffffff">SimpleGUICS2Pygame.</text>
<text text-anchor="middle" x="353.719" y="-543.719" font-family="Helvetica,sans-Serif" font-size="10.00" fill="#ffffff">simpleguics2pygame.</text>
<text text-anchor="middle" x="353.719" y="-532.719" font-family="Helvetica,sans-Serif" font-size="10.00" fill="#ffffff">_joypads</text>
</g>
<!-- SimpleGUICS2Pygame_simpleguics2pygame__joypads&#45;&gt;SimpleGUICS2Pygame_simpleguics2pygame_frame -->
<g id="edge20" class="edge"><title>SimpleGUICS2Pygame_simpleguics2pygame__joypads&#45;&gt;SimpleGUICS2Pygame_simpleguics2pygame_frame</title><style>.edge>path:hover{stroke-width:8}</style>
<path fill="none" stroke="black" d="M385.089,-518.912C402.509,-502.159 422.478,-478.839 431.719,-453.236"/>
</g>
<!-- SimpleGUICS2Pygame_simpleguics2pygame__fonts&#45;&gt;SimpleGUICS2Pygame_simpleguics2pygame_frame -->
<g id="edge19" class="edge"><title>SimpleGUICS2Pygame_simpleguics2pygame__fonts&#45;&gt;SimpleGUICS2Pygame_simpleguics2pygame_frame</title><style>.edge>path:hover{stroke-width:8}</style>
<path fill="none" stroke="black" d="M528.438,-523.978C481.334,-504.683 423.552,-475.865 431.719,-453.236"/>
</g>
<!-- SimpleGUICS2Pygame_simpleguics2pygame_canvas -->
<g id="node13" class="node"><title>SimpleGUICS2Pygame_simpleguics2pygame_canvas</title><style>.edge>path:hover{stroke-width:8}</style>
<ellipse fill="#9b2626" stroke="black" cx="779.719" cy="-358.253" rx="88.2768" ry="28.9828"/>
<text text-anchor="middle" x="779.719" y="-366.753" font-family="Helvetica,sans-Serif" font-size="10.00" fill="#ffffff">SimpleGUICS2Pygame.</text>
<text text-anchor="middle" x="779.719" y="-355.753" font-family="Helvetica,sans-Serif" font-size="10.00" fill="#ffffff">simpleguics2pygame.</text>
<text text-anchor="middle" x="779.719" y="-344.753" font-family="Helvetica,sans-Serif" font-size="10.00" fill="#ffffff">canvas</text>
</g>
<!-- SimpleGUICS2Pygame_simpleguics2pygame__fonts&#45;&gt;SimpleGUICS2Pygame_simpleguics2pygame_canvas -->
<g id="edge17" class="edge"><title>SimpleGUICS2Pygame_simpleguics2pygame__fonts&#45;&gt;SimpleGUICS2Pygame_simpleguics2pygame_canvas</title><style>.edge>path:hover{stroke-width:8}</style>
<path fill="none" stroke="black" d="M612.202,-518.294C622.715,-507.152 634.671,-493.895 644.719,-481.227 654.063,-469.448 655.863,-466.056 663.719,-453.236"/>
<path fill="none" stroke="black" d="M663.719,-451.236C671.575,-438.416 672.017,-433.806 682.719,-423.245 695.563,-410.569 711.273,-398.939 726.278,-389.172"/>
<polygon fill="#b62020" stroke="black" points="728.431,-391.951 735.005,-383.642 724.685,-386.038 728.431,-391.951"/>
</g>
<!-- SimpleGUICS2Pygame_simpleguics2pygame_control -->
<g id="node14" class="node"><title>SimpleGUICS2Pygame_simpleguics2pygame_control</title><style>.edge>path:hover{stroke-width:8}</style>
<ellipse fill="#a32828" stroke="black" cx="779.719" cy="-452.236" rx="88.2768" ry="28.9828"/>
<text text-anchor="middle" x="779.719" y="-460.736" font-family="Helvetica,sans-Serif" font-size="10.00" fill="#ffffff">SimpleGUICS2Pygame.</text>
<text text-anchor="middle" x="779.719" y="-449.736" font-family="Helvetica,sans-Serif" font-size="10.00" fill="#ffffff">simpleguics2pygame.</text>
<text text-anchor="middle" x="779.719" y="-438.736" font-family="Helvetica,sans-Serif" font-size="10.00" fill="#ffffff">control</text>
</g>
<!-- SimpleGUICS2Pygame_simpleguics2pygame__fonts&#45;&gt;SimpleGUICS2Pygame_simpleguics2pygame_control -->
<g id="edge18" class="edge"><title>SimpleGUICS2Pygame_simpleguics2pygame__fonts&#45;&gt;SimpleGUICS2Pygame_simpleguics2pygame_control</title><style>.edge>path:hover{stroke-width:8}</style>
<path fill="none" stroke="black" d="M634.673,-522.008C661.095,-509.48 693.88,-493.935 721.593,-480.796"/>
<polygon fill="#b62020" stroke="black" points="723.244,-483.887 730.78,-476.44 720.245,-477.562 723.244,-483.887"/>
</g>
<!-- SimpleGUICS2Pygame_simpleguics2pygame__media&#45;&gt;SimpleGUICS2Pygame_simpleguics2pygame_sound -->
<g id="edge23" class="edge"><title>SimpleGUICS2Pygame_simpleguics2pygame__media&#45;&gt;SimpleGUICS2Pygame_simpleguics2pygame_sound</title><style>.edge>path:hover{stroke-width:8}</style>
<path fill="none" stroke="black" d="M121.413,-517.121C121.326,-509.083 121.229,-500.181 121.136,-491.639"/>
<polygon fill="#b62020" stroke="black" points="124.634,-491.44 121.026,-481.479 117.635,-491.516 124.634,-491.44"/>
</g>
<!-- SimpleGUICS2Pygame_simpleguics2pygame__media&#45;&gt;SimpleGUICS2Pygame_simpleguics2pygame_frame -->
<g id="edge21" class="edge"><title>SimpleGUICS2Pygame_simpleguics2pygame__media&#45;&gt;SimpleGUICS2Pygame_simpleguics2pygame_frame</title><style>.edge>path:hover{stroke-width:8}</style>
<path fill="none" stroke="black" d="M186.83,-526.573C199.046,-523.296 211.741,-520.039 223.719,-517.227 317.881,-495.128 398.884,-544.213 431.719,-453.236"/>
<path fill="none" stroke="black" d="M431.719,-451.236C445.597,-412.783 448.533,-396.517 431.719,-359.253"/>
</g>
<!-- SimpleGUICS2Pygame_simpleguics2pygame_image -->
<g id="node20" class="node"><title>SimpleGUICS2Pygame_simpleguics2pygame_image</title><style>.edge>path:hover{stroke-width:8}</style>
<ellipse fill="#bf2121" stroke="black" cx="547.719" cy="-452.236" rx="88.2768" ry="28.9828"/>
<text text-anchor="middle" x="547.719" y="-460.736" font-family="Helvetica,sans-Serif" font-size="10.00" fill="#ffffff">SimpleGUICS2Pygame.</text>
<text text-anchor="middle" x="547.719" y="-449.736" font-family="Helvetica,sans-Serif" font-size="10.00" fill="#ffffff">simpleguics2pygame.</text>
<text text-anchor="middle" x="547.719" y="-438.736" font-family="Helvetica,sans-Serif" font-size="10.00" fill="#ffffff">image</text>
</g>
<!-- SimpleGUICS2Pygame_simpleguics2pygame__media&#45;&gt;SimpleGUICS2Pygame_simpleguics2pygame_image -->
<g id="edge22" class="edge"><title>SimpleGUICS2Pygame_simpleguics2pygame__media&#45;&gt;SimpleGUICS2Pygame_simpleguics2pygame_image</title><style>.edge>path:hover{stroke-width:8}</style>
<path fill="none" stroke="black" d="M194.891,-529.821C214.923,-525.668 236.647,-521.22 256.719,-517.227 340.586,-500.547 362.422,-500.558 445.719,-481.227 454.52,-479.185 463.706,-476.894 472.804,-474.525"/>
<polygon fill="#b62020" stroke="black" points="473.845,-477.87 482.619,-471.931 472.057,-471.102 473.845,-477.87"/>
</g>
<!-- SimpleGUICS2Pygame_simpleguics2pygame_frame&#45;&gt;SimpleGUICS2Pygame_simpleguics2pygame -->
<g id="edge37" class="edge"><title>SimpleGUICS2Pygame_simpleguics2pygame_frame&#45;&gt;SimpleGUICS2Pygame_simpleguics2pygame</title><style>.edge>path:hover{stroke-width:8}</style>
<path fill="none" stroke="black" d="M431.719,-235.232C431.719,-227.024 431.719,-218.01 431.719,-209.653"/>
<polygon fill="#732626" stroke="black" points="435.219,-209.527 431.719,-199.527 428.219,-209.527 435.219,-209.527"/>
</g>
<!-- SimpleGUICS2Pygame_simpleguics2pygame&#45;&gt;SimpleGUICS2Pygame_simplegui_lib_fps -->
<g id="edge5" class="edge"><title>SimpleGUICS2Pygame_simpleguics2pygame&#45;&gt;SimpleGUICS2Pygame_simplegui_lib_fps</title><style>.edge>path:hover{stroke-width:8}</style>
<path fill="none" stroke="black" d="M386.982,-159.532C358.37,-148.318 321.082,-133.704 290.81,-121.84"/>
<polygon fill="#950303" stroke="black" points="291.835,-118.482 281.248,-118.092 289.281,-125 291.835,-118.482"/>
</g>
<!-- SimpleGUICS2Pygame_simpleguics2pygame&#45;&gt;SimpleGUICS2Pygame_simplegui_lib_keys -->
<g id="edge6" class="edge"><title>SimpleGUICS2Pygame_simpleguics2pygame&#45;&gt;SimpleGUICS2Pygame_simplegui_lib_keys</title><style>.edge>path:hover{stroke-width:8}</style>
<path fill="none" stroke="black" d="M431.719,-156.585C431.719,-148.726 431.719,-139.582 431.719,-130.992"/>
<polygon fill="#950303" stroke="black" points="435.219,-130.912 431.719,-120.912 428.219,-130.912 435.219,-130.912"/>
</g>
<!-- SimpleGUICS2Pygame_simplegui_lib_loader -->
<g id="node19" class="node"><title>SimpleGUICS2Pygame_simplegui_lib_loader</title><style>.edge>path:hover{stroke-width:8}</style>
<ellipse fill="#b83d3d" stroke="black" cx="821.719" cy="-99.6396" rx="88.2768" ry="21.4286"/>
<text text-anchor="middle" x="821.719" y="-102.64" font-family="Helvetica,sans-Serif" font-size="10.00" fill="#ffffff">SimpleGUICS2Pygame.</text>
<text text-anchor="middle" x="821.719" y="-91.6396" font-family="Helvetica,sans-Serif" font-size="10.00" fill="#ffffff">simplegui_lib_loader</text>
</g>
<!-- SimpleGUICS2Pygame_simpleguics2pygame&#45;&gt;SimpleGUICS2Pygame_simplegui_lib_loader -->
<g id="edge7" class="edge"><title>SimpleGUICS2Pygame_simpleguics2pygame&#45;&gt;SimpleGUICS2Pygame_simplegui_lib_loader</title><style>.edge>path:hover{stroke-width:8}</style>
<path fill="none" stroke="black" d="M499.328,-164.313C558.542,-153.081 646.89,-136.171 723.719,-120.853 731.265,-119.348 739.135,-117.759 746.989,-116.16"/>
<polygon fill="#950303" stroke="black" points="747.807,-119.565 756.904,-114.134 746.406,-112.707 747.807,-119.565"/>
</g>
<!-- SimpleGUICS2Pygame_simpleguics2pygame_canvas&#45;&gt;SimpleGUICS2Pygame_simpleguics2pygame_frame -->
<g id="edge34" class="edge"><title>SimpleGUICS2Pygame_simpleguics2pygame_canvas&#45;&gt;SimpleGUICS2Pygame_simpleguics2pygame_frame</title><style>.edge>path:hover{stroke-width:8}</style>
<path fill="none" stroke="black" d="M712.208,-339.409C653.979,-324.018 569.896,-301.793 508.989,-285.695"/>
<polygon fill="#9b2626" stroke="black" points="509.604,-282.237 499.041,-283.065 507.815,-289.004 509.604,-282.237"/>
</g>
<!-- SimpleGUICS2Pygame_simpleguics2pygame_canvas&#45;&gt;SimpleGUICS2Pygame_simpleguics2pygame -->
<g id="edge33" class="edge"><title>SimpleGUICS2Pygame_simpleguics2pygame_canvas&#45;&gt;SimpleGUICS2Pygame_simpleguics2pygame</title><style>.edge>path:hover{stroke-width:8}</style>
<path fill="none" stroke="black" d="M789.151,-329.081C794.091,-308.456 796.145,-281.364 779.719,-265.271"/>
</g>
<!-- SimpleGUICS2Pygame_simpleguics2pygame_control&#45;&gt;SimpleGUICS2Pygame_simpleguics2pygame_frame -->
<g id="edge36" class="edge"><title>SimpleGUICS2Pygame_simpleguics2pygame_control&#45;&gt;SimpleGUICS2Pygame_simpleguics2pygame_frame</title><style>.edge>path:hover{stroke-width:8}</style>
<path fill="none" stroke="black" d="M707.863,-435.212C607.67,-412.45 437.51,-372.087 431.719,-359.253"/>
</g>
<!-- SimpleGUICS2Pygame_simpleguics2pygame_control&#45;&gt;SimpleGUICS2Pygame_simpleguics2pygame -->
<g id="edge35" class="edge"><title>SimpleGUICS2Pygame_simpleguics2pygame_control&#45;&gt;SimpleGUICS2Pygame_simpleguics2pygame</title><style>.edge>path:hover{stroke-width:8}</style>
<path fill="none" stroke="black" d="M846.546,-433.208C903.774,-415.736 976.313,-387.761 971.719,-359.253"/>
<path fill="none" stroke="black" d="M971.719,-357.253C956.664,-263.838 845.623,-333.166 779.719,-265.271"/>
</g>
<!-- SimpleGUICS2Pygame_simpleguics2pygame__pygame_init -->
<g id="node15" class="node"><title>SimpleGUICS2Pygame_simpleguics2pygame__pygame_init</title><style>.edge>path:hover{stroke-width:8}</style>
<ellipse fill="#d10505" stroke="black" cx="739.719" cy="-640.202" rx="88.2768" ry="28.9828"/>
<text text-anchor="middle" x="739.719" y="-648.702" font-family="Helvetica,sans-Serif" font-size="10.00" fill="#ffffff">SimpleGUICS2Pygame.</text>
<text text-anchor="middle" x="739.719" y="-637.702" font-family="Helvetica,sans-Serif" font-size="10.00" fill="#ffffff">simpleguics2pygame.</text>
<text text-anchor="middle" x="739.719" y="-626.702" font-family="Helvetica,sans-Serif" font-size="10.00" fill="#ffffff">_pygame_init</text>
</g>
<!-- SimpleGUICS2Pygame_simpleguics2pygame__pygame_init&#45;&gt;SimpleGUICS2Pygame_simpleguics2pygame__joypads -->
<g id="edge27" class="edge"><title>SimpleGUICS2Pygame_simpleguics2pygame__pygame_init&#45;&gt;SimpleGUICS2Pygame_simpleguics2pygame__joypads</title><style>.edge>path:hover{stroke-width:8}</style>
<path fill="none" stroke="black" d="M666.833,-623.75C609.334,-611.326 527.188,-593.058 455.719,-575.21 447.084,-573.054 438.062,-570.71 429.11,-568.328"/>
<polygon fill="#d10505" stroke="black" points="430.01,-564.946 419.444,-565.735 428.196,-571.707 430.01,-564.946"/>
</g>
<!-- SimpleGUICS2Pygame_simpleguics2pygame__pygame_init&#45;&gt;SimpleGUICS2Pygame_simpleguics2pygame__fonts -->
<g id="edge26" class="edge"><title>SimpleGUICS2Pygame_simpleguics2pygame__pygame_init&#45;&gt;SimpleGUICS2Pygame_simpleguics2pygame__fonts</title><style>.edge>path:hover{stroke-width:8}</style>
<path fill="none" stroke="black" d="M698.45,-614.552C679.202,-603.056 656.128,-589.274 635.882,-577.181"/>
<polygon fill="#d10505" stroke="black" points="637.482,-574.06 627.102,-571.937 633.892,-580.069 637.482,-574.06"/>
</g>
<!-- SimpleGUICS2Pygame_simpleguics2pygame__pygame_init&#45;&gt;SimpleGUICS2Pygame_simpleguics2pygame__media -->
<g id="edge28" class="edge"><title>SimpleGUICS2Pygame_simpleguics2pygame__pygame_init&#45;&gt;SimpleGUICS2Pygame_simpleguics2pygame__media</title><style>.edge>path:hover{stroke-width:8}</style>
<path fill="none" stroke="black" d="M656.54,-630.044C560.073,-618.993 396.405,-598.913 256.719,-575.21 239.556,-572.298 221.25,-568.781 203.834,-565.239"/>
<polygon fill="#d10505" stroke="black" points="204.199,-561.741 193.699,-563.154 202.789,-568.597 204.199,-561.741"/>
</g>
<!-- SimpleGUICS2Pygame_simpleguics2pygame__pygame_init&#45;&gt;SimpleGUICS2Pygame_simpleguics2pygame_frame -->
<g id="edge31" class="edge"><title>SimpleGUICS2Pygame_simpleguics2pygame__pygame_init&#45;&gt;SimpleGUICS2Pygame_simpleguics2pygame_frame</title><style>.edge>path:hover{stroke-width:8}</style>
<path fill="none" stroke="black" d="M652.28,-635.353C599.743,-628.901 534.439,-613.07 488.719,-575.21 477.197,-565.669 426.64,-467.307 431.719,-453.236"/>
</g>
<!-- SimpleGUICS2Pygame_simpleguics2pygame__pygame_init&#45;&gt;SimpleGUICS2Pygame_simpleguics2pygame -->
<g id="edge24" class="edge"><title>SimpleGUICS2Pygame_simpleguics2pygame__pygame_init&#45;&gt;SimpleGUICS2Pygame_simpleguics2pygame</title><style>.edge>path:hover{stroke-width:8}</style>
<path fill="none" stroke="black" d="M804.932,-620.55C866.652,-602.756 950.266,-578.223 952.719,-575.21 1013.55,-500.493 987.049,-454.378 971.719,-359.253"/>
</g>
<!-- SimpleGUICS2Pygame_simpleguics2pygame__pygame_init&#45;&gt;SimpleGUICS2Pygame_simpleguics2pygame_canvas -->
<g id="edge29" class="edge"><title>SimpleGUICS2Pygame_simpleguics2pygame__pygame_init&#45;&gt;SimpleGUICS2Pygame_simpleguics2pygame_canvas</title><style>.edge>path:hover{stroke-width:8}</style>
<path fill="none" stroke="black" d="M701.719,-545.219C685.138,-504.212 640.608,-490.951 663.719,-453.236"/>
</g>
<!-- SimpleGUICS2Pygame_simpleguics2pygame__pygame_init&#45;&gt;SimpleGUICS2Pygame_simpleguics2pygame_control -->
<g id="edge30" class="edge"><title>SimpleGUICS2Pygame_simpleguics2pygame__pygame_init&#45;&gt;SimpleGUICS2Pygame_simpleguics2pygame_control</title><style>.edge>path:hover{stroke-width:8}</style>
<path fill="none" stroke="black" d="M701.719,-545.219C692.33,-521.999 708.746,-500.395 728.901,-483.967"/>
<polygon fill="#d10505" stroke="black" points="731.264,-486.567 737.074,-477.707 727.007,-481.01 731.264,-486.567"/>
</g>
<!-- SimpleGUICS2Pygame_simpleguics2pygame__colors -->
<g id="node17" class="node"><title>SimpleGUICS2Pygame_simpleguics2pygame__colors</title><style>.edge>path:hover{stroke-width:8}</style>
<ellipse fill="#bf2121" stroke="black" cx="855.719" cy="-546.219" rx="88.2768" ry="28.9828"/>
<text text-anchor="middle" x="855.719" y="-554.719" font-family="Helvetica,sans-Serif" font-size="10.00" fill="#ffffff">SimpleGUICS2Pygame.</text>
<text text-anchor="middle" x="855.719" y="-543.719" font-family="Helvetica,sans-Serif" font-size="10.00" fill="#ffffff">simpleguics2pygame.</text>
<text text-anchor="middle" x="855.719" y="-532.719" font-family="Helvetica,sans-Serif" font-size="10.00" fill="#ffffff">_colors</text>
</g>
<!-- SimpleGUICS2Pygame_simpleguics2pygame__pygame_init&#45;&gt;SimpleGUICS2Pygame_simpleguics2pygame__colors -->
<g id="edge25" class="edge"><title>SimpleGUICS2Pygame_simpleguics2pygame__pygame_init&#45;&gt;SimpleGUICS2Pygame_simpleguics2pygame__colors</title><style>.edge>path:hover{stroke-width:8}</style>
<path fill="none" stroke="black" d="M772.649,-613.089C785.752,-602.7 800.967,-590.634 814.769,-579.69"/>
<polygon fill="#d10505" stroke="black" points="817.045,-582.352 822.706,-573.397 812.696,-576.868 817.045,-582.352"/>
</g>
<!-- SimpleGUICS2Pygame_simpleguics2pygame__pygame_init&#45;&gt;SimpleGUICS2Pygame_simpleguics2pygame_image -->
<g id="edge32" class="edge"><title>SimpleGUICS2Pygame_simpleguics2pygame__pygame_init&#45;&gt;SimpleGUICS2Pygame_simpleguics2pygame_image</title><style>.edge>path:hover{stroke-width:8}</style>
<path fill="none" stroke="black" d="M727.967,-611.066C720.402,-592.88 710.398,-568.684 701.719,-547.219"/>
<path fill="none" stroke="black" d="M701.719,-545.219C688.172,-511.715 655.263,-489.685 623.329,-475.611"/>
<polygon fill="#d10505" stroke="black" points="624.496,-472.305 613.92,-471.672 621.793,-478.762 624.496,-472.305"/>
</g>
<!-- SimpleGUICS2Pygame_simplegui_lib_draw -->
<g id="node16" class="node"><title>SimpleGUICS2Pygame_simplegui_lib_draw</title><style>.edge>path:hover{stroke-width:8}</style>
<ellipse fill="#c04040" stroke="black" cx="626.719" cy="-99.6396" rx="88.2768" ry="21.4286"/>
<text text-anchor="middle" x="626.719" y="-102.64" font-family="Helvetica,sans-Serif" font-size="10.00" fill="#ffffff">SimpleGUICS2Pygame.</text>
<text text-anchor="middle" x="626.719" y="-91.6396" font-family="Helvetica,sans-Serif" font-size="10.00" fill="#ffffff">simplegui_lib_draw</text>
</g>
<!-- SimpleGUICS2Pygame_simplegui_lib_draw&#45;&gt;SimpleGUICS2Pygame_simplegui_lib -->
<g id="edge1" class="edge"><title>SimpleGUICS2Pygame_simplegui_lib_draw&#45;&gt;SimpleGUICS2Pygame_simplegui_lib</title><style>.edge>path:hover{stroke-width:8}</style>
<path fill="none" stroke="black" d="M601.736,-79.1563C589.526,-69.634 574.672,-58.0504 561.558,-47.8231"/>
<polygon fill="#c04040" stroke="black" points="563.694,-45.0507 553.656,-41.661 559.389,-50.5706 563.694,-45.0507"/>
</g>
<!-- SimpleGUICS2Pygame_simpleguics2pygame__colors&#45;&gt;SimpleGUICS2Pygame_simpleguics2pygame_frame -->
<g id="edge16" class="edge"><title>SimpleGUICS2Pygame_simpleguics2pygame__colors&#45;&gt;SimpleGUICS2Pygame_simpleguics2pygame_frame</title><style>.edge>path:hover{stroke-width:8}</style>
<path fill="none" stroke="black" d="M895.719,-451.236C891.593,-396.527 915.74,-367.829 876.719,-329.262 852.252,-305.08 650.448,-283.857 527.156,-272.985"/>
<polygon fill="#bf2121" stroke="black" points="527.216,-269.477 516.95,-272.093 526.607,-276.451 527.216,-269.477"/>
</g>
<!-- SimpleGUICS2Pygame_simpleguics2pygame__colors&#45;&gt;SimpleGUICS2Pygame_simpleguics2pygame_canvas -->
<g id="edge14" class="edge"><title>SimpleGUICS2Pygame_simpleguics2pygame__colors&#45;&gt;SimpleGUICS2Pygame_simpleguics2pygame_canvas</title><style>.edge>path:hover{stroke-width:8}</style>
<path fill="none" stroke="black" d="M875.754,-517.915C886.596,-500.256 897.46,-476.331 895.719,-453.236"/>
<path fill="none" stroke="black" d="M895.719,-451.236C893.514,-422.005 870.25,-400.563 845.128,-385.771"/>
<polygon fill="#bf2121" stroke="black" points="846.638,-382.606 836.196,-380.814 843.242,-388.727 846.638,-382.606"/>
</g>
<!-- SimpleGUICS2Pygame_simpleguics2pygame__colors&#45;&gt;SimpleGUICS2Pygame_simpleguics2pygame_control -->
<g id="edge15" class="edge"><title>SimpleGUICS2Pygame_simpleguics2pygame__colors&#45;&gt;SimpleGUICS2Pygame_simpleguics2pygame_control</title><style>.edge>path:hover{stroke-width:8}</style>
<path fill="none" stroke="black" d="M833.327,-518.119C825.588,-508.752 816.804,-498.12 808.618,-488.213"/>
<polygon fill="#bf2121" stroke="black" points="811.281,-485.94 802.213,-480.461 805.884,-490.399 811.281,-485.94"/>
</g>
<!-- SimpleGUICS2Pygame_simpleplot -->
<g id="node18" class="node"><title>SimpleGUICS2Pygame_simpleplot</title><style>.edge>path:hover{stroke-width:8}</style>
<ellipse fill="#ac4949" stroke="black" cx="855.719" cy="-726.406" rx="88.2768" ry="21.4286"/>
<text text-anchor="middle" x="855.719" y="-729.406" font-family="Helvetica,sans-Serif" font-size="10.00" fill="#ffffff">SimpleGUICS2Pygame.</text>
<text text-anchor="middle" x="855.719" y="-718.406" font-family="Helvetica,sans-Serif" font-size="10.00" fill="#ffffff">simpleplot</text>
</g>
<!-- SimpleGUICS2Pygame_simplegui_lib_loader&#45;&gt;SimpleGUICS2Pygame_simplegui_lib -->
<g id="edge4" class="edge"><title>SimpleGUICS2Pygame_simplegui_lib_loader&#45;&gt;SimpleGUICS2Pygame_simplegui_lib</title><style>.edge>path:hover{stroke-width:8}</style>
<path fill="none" stroke="black" d="M763.831,-83.5402C715.675,-70.979 647.056,-53.0805 596.372,-39.86"/>
<polygon fill="#b83d3d" stroke="black" points="597.046,-36.4186 586.486,-37.2812 595.279,-43.192 597.046,-36.4186"/>
</g>
<!-- SimpleGUICS2Pygame_simpleguics2pygame_image&#45;&gt;SimpleGUICS2Pygame_simpleguics2pygame_frame -->
<g id="edge40" class="edge"><title>SimpleGUICS2Pygame_simpleguics2pygame_image&#45;&gt;SimpleGUICS2Pygame_simpleguics2pygame_frame</title><style>.edge>path:hover{stroke-width:8}</style>
<path fill="none" stroke="black" d="M499.867,-427.735C474.25,-412.236 445.25,-389.24 431.719,-359.253"/>
</g>
<!-- SimpleGUICS2Pygame_simpleguics2pygame_image&#45;&gt;SimpleGUICS2Pygame_simpleguics2pygame -->
<g id="edge38" class="edge"><title>SimpleGUICS2Pygame_simpleguics2pygame_image&#45;&gt;SimpleGUICS2Pygame_simpleguics2pygame</title><style>.edge>path:hover{stroke-width:8}</style>
<path fill="none" stroke="black" d="M574.828,-424.488C601.351,-398.872 643.385,-359.723 682.719,-329.262 723.553,-297.639 816.611,-301.415 779.719,-265.271"/>
<path fill="none" stroke="black" d="M779.719,-263.271C744.091,-226.567 610.441,-202.254 519.529,-189.569"/>
<polygon fill="#bf2121" stroke="black" points="519.876,-186.084 509.493,-188.192 518.924,-193.019 519.876,-186.084"/>
</g>
<!-- SimpleGUICS2Pygame_simpleguics2pygame_image&#45;&gt;SimpleGUICS2Pygame_simpleguics2pygame_canvas -->
<g id="edge39" class="edge"><title>SimpleGUICS2Pygame_simpleguics2pygame_image&#45;&gt;SimpleGUICS2Pygame_simpleguics2pygame_canvas</title><style>.edge>path:hover{stroke-width:8}</style>
<path fill="none" stroke="black" d="M602.7,-429.437C636.382,-416.083 679.659,-398.925 714.991,-384.917"/>
<polygon fill="#bf2121" stroke="black" points="716.725,-387.994 724.731,-381.055 714.145,-381.487 716.725,-387.994"/>
</g>
<!-- matplotlib -->
<g id="node21" class="node"><title>matplotlib</title><style>.edge>path:hover{stroke-width:8}</style>
<polygon fill="#33cc33" stroke="black" points="885.219,-856.619 882.219,-860.619 861.219,-860.619 858.219,-856.619 826.219,-856.619 826.219,-820.619 885.219,-820.619 885.219,-856.619"/>
<text text-anchor="middle" x="855.719" y="-836.119" font-family="Helvetica,sans-Serif" font-size="10.00" fill="#000000">matplotlib</text>
</g>
<!-- matplotlib&#45;&gt;SimpleGUICS2Pygame_simpleplot -->
<g id="edge46" class="edge"><title>matplotlib&#45;&gt;SimpleGUICS2Pygame_simpleplot</title><style>.edge>path:hover{stroke-width:8}</style>
<path fill="none" stroke="black" d="M855.719,-820.399C855.719,-803.771 855.719,-778.225 855.719,-758.112"/>
<polygon fill="#33cc33" stroke="black" points="859.219,-757.878 855.719,-747.878 852.219,-757.878 859.219,-757.878"/>
</g>
<!-- pygame -->
<g id="node22" class="node"><title>pygame</title><style>.edge>path:hover{stroke-width:8}</style>
<polygon fill="#4747c2" stroke="black" points="766.719,-856.619 763.719,-860.619 742.719,-860.619 739.719,-856.619 712.719,-856.619 712.719,-820.619 766.719,-820.619 766.719,-856.619"/>
<text text-anchor="middle" x="739.719" y="-836.119" font-family="Helvetica,sans-Serif" font-size="10.00" fill="#ffffff">pygame</text>
</g>
<!-- pygame&#45;&gt;SimpleGUICS2Pygame_simpleguics2pygame__joypads -->
<g id="edge49" class="edge"><title>pygame&#45;&gt;SimpleGUICS2Pygame_simpleguics2pygame__joypads</title><style>.edge>path:hover{stroke-width:8}</style>
<path fill="none" stroke="black" d="M353.719,-639.202C339.299,-625.886 338.725,-604.153 342.027,-585.155"/>
<polygon fill="#4747c2" stroke="black" points="345.478,-585.75 344.124,-575.242 338.63,-584.301 345.478,-585.75"/>
</g>
<!-- pygame&#45;&gt;SimpleGUICS2Pygame_simpleguics2pygame__fonts -->
<g id="edge48" class="edge"><title>pygame&#45;&gt;SimpleGUICS2Pygame_simpleguics2pygame__fonts</title><style>.edge>path:hover{stroke-width:8}</style>
<path fill="none" stroke="black" d="M353.719,-639.202C328.015,-615.466 427.073,-585.07 503.709,-565.864"/>
<polygon fill="#4747c2" stroke="black" points="505.016,-569.147 513.882,-563.347 503.334,-562.352 505.016,-569.147"/>
</g>
<!-- pygame&#45;&gt;SimpleGUICS2Pygame_simpleguics2pygame__media -->
<g id="edge50" class="edge"><title>pygame&#45;&gt;SimpleGUICS2Pygame_simpleguics2pygame__media</title><style>.edge>path:hover{stroke-width:8}</style>
<path fill="none" stroke="black" d="M743.742,-820.365C748.093,-797.938 752.79,-758.026 739.719,-727.406"/>
<path fill="none" stroke="black" d="M739.719,-725.406C700.442,-646.887 418.219,-700.764 353.719,-641.202"/>
<path fill="none" stroke="black" d="M353.719,-639.202C329.671,-616.996 253.198,-588.961 194.557,-569.713"/>
<polygon fill="#4747c2" stroke="black" points="195.534,-566.35 184.941,-566.583 193.367,-573.006 195.534,-566.35"/>
</g>
<!-- pygame&#45;&gt;SimpleGUICS2Pygame_simpleguics2pygame_frame -->
<g id="edge54" class="edge"><title>pygame&#45;&gt;SimpleGUICS2Pygame_simpleguics2pygame_frame</title><style>.edge>path:hover{stroke-width:8}</style>
<path fill="none" stroke="black" d="M353.719,-639.202C315.775,-604.163 281.199,-620.687 256.719,-575.21 244.504,-552.519 240.749,-537.453 256.719,-517.227 308.04,-452.232 403.752,-531.186 431.719,-453.236"/>
</g>
<!-- pygame&#45;&gt;SimpleGUICS2Pygame_simpleguics2pygame_canvas -->
<g id="edge52" class="edge"><title>pygame&#45;&gt;SimpleGUICS2Pygame_simpleguics2pygame_canvas</title><style>.edge>path:hover{stroke-width:8}</style>
<path fill="none" stroke="black" d="M855.719,-639.202C883.099,-595.409 928.239,-620.687 952.719,-575.21 964.933,-552.519 958.205,-542.407 952.719,-517.227 942.939,-472.346 941.736,-456.182 909.719,-423.245 893.299,-406.354 871.498,-393.258 850.448,-383.44"/>
<polygon fill="#4747c2" stroke="black" points="851.731,-380.18 841.173,-379.296 848.875,-386.571 851.731,-380.18"/>
</g>
<!-- pygame&#45;&gt;SimpleGUICS2Pygame_simpleguics2pygame_control -->
<g id="edge53" class="edge"><title>pygame&#45;&gt;SimpleGUICS2Pygame_simpleguics2pygame_control</title><style>.edge>path:hover{stroke-width:8}</style>
<path fill="none" stroke="black" d="M739.719,-725.406C734.203,-714.379 748.715,-712.401 758.719,-705.193 789.696,-682.873 807.601,-693.89 836.719,-669.193 848.186,-659.467 848.081,-654.153 855.719,-641.202"/>
<path fill="none" stroke="black" d="M855.719,-639.202C863.357,-626.25 848.186,-620.936 836.719,-611.21 807.601,-586.513 779.296,-607.371 758.719,-575.21 742.545,-549.932 750.268,-515.934 760.628,-490.252"/>
<polygon fill="#4747c2" stroke="black" points="763.936,-491.42 764.683,-480.852 757.508,-488.648 763.936,-491.42"/>
</g>
<!-- pygame&#45;&gt;SimpleGUICS2Pygame_simpleguics2pygame__pygame_init -->
<g id="edge51" class="edge"><title>pygame&#45;&gt;SimpleGUICS2Pygame_simpleguics2pygame__pygame_init</title><style>.edge>path:hover{stroke-width:8}</style>
<path fill="none" stroke="black" d="M739.719,-725.406C733.61,-711.096 732.581,-694.129 733.463,-679.188"/>
<polygon fill="#4747c2" stroke="black" points="736.95,-679.495 734.341,-669.226 729.977,-678.88 736.95,-679.495"/>
</g>
<!-- pygame&#45;&gt;SimpleGUICS2Pygame_simpleguics2pygame__colors -->
<g id="edge47" class="edge"><title>pygame&#45;&gt;SimpleGUICS2Pygame_simpleguics2pygame__colors</title><style>.edge>path:hover{stroke-width:8}</style>
<path fill="none" stroke="black" d="M855.719,-639.202C865.145,-623.218 866.014,-602.795 864.152,-585.254"/>
<polygon fill="#4747c2" stroke="black" points="867.615,-584.745 862.784,-575.315 860.68,-585.699 867.615,-584.745"/>
</g>
</g>
</svg>
