<?xml version="1.0" encoding="UTF-8" standalone="no"?>
<!DOCTYPE svg PUBLIC "-//W3C//DTD SVG 1.1//EN"
 "http://www.w3.org/Graphics/SVG/1.1/DTD/svg11.dtd">
<!-- Generated by graphviz version 2.38.0 (20140413.2041)
 -->
<!-- Title: G Pages: 1 -->
<svg width="1029pt" height="865pt"
 viewBox="0.00 0.00 1028.94 864.62" xmlns="http://www.w3.org/2000/svg" xmlns:xlink="http://www.w3.org/1999/xlink">
<g id="graph0" class="graph" transform="scale(1 1) rotate(0) translate(4 860.619)">
<title>G</title><style>.edge>path:hover{stroke-width:8}</style>
<polygon fill="white" stroke="none" points="-4,4 -4,-860.619 1024.94,-860.619 1024.94,4 -4,4"/>
<!-- SimpleGUICS2Pygame_simplegui_lib_loader -->
<g id="node1" class="node"><title>SimpleGUICS2Pygame_simplegui_lib_loader</title><style>.edge>path:hover{stroke-width:8}</style>
<ellipse fill="#b83d3d" stroke="black" cx="300.586" cy="-99.6396" rx="88.2768" ry="21.4286"/>
<text text-anchor="middle" x="300.586" y="-102.64" font-family="Helvetica,sans-Serif" font-size="10.00" fill="#ffffff">SimpleGUICS2Pygame.</text>
<text text-anchor="middle" x="300.586" y="-91.6396" font-family="Helvetica,sans-Serif" font-size="10.00" fill="#ffffff">simplegui_lib_loader</text>
</g>
<!-- SimpleGUICS2Pygame_simplegui_lib -->
<g id="node18" class="node"><title>SimpleGUICS2Pygame_simplegui_lib</title><style>.edge>path:hover{stroke-width:8}</style>
<ellipse fill="#964040" stroke="black" cx="592.586" cy="-21.2132" rx="88.2768" ry="21.4286"/>
<text text-anchor="middle" x="592.586" y="-24.2132" font-family="Helvetica,sans-Serif" font-size="10.00" fill="#ffffff">SimpleGUICS2Pygame.</text>
<text text-anchor="middle" x="592.586" y="-13.2132" font-family="Helvetica,sans-Serif" font-size="10.00" fill="#ffffff">simplegui_lib</text>
</g>
<!-- SimpleGUICS2Pygame_simplegui_lib_loader&#45;&gt;SimpleGUICS2Pygame_simplegui_lib -->
<g id="edge4" class="edge"><title>SimpleGUICS2Pygame_simplegui_lib_loader&#45;&gt;SimpleGUICS2Pygame_simplegui_lib</title><style>.edge>path:hover{stroke-width:8}</style>
<path fill="none" stroke="black" d="M358.276,-83.5402C406.19,-70.9994 474.431,-53.1386 524.918,-39.9244"/>
<polygon fill="#b83d3d" stroke="black" points="525.979,-43.2646 534.767,-37.3465 524.207,-36.4927 525.979,-43.2646"/>
</g>
<!-- SimpleGUICS2Pygame_simpleguics2pygame_canvas -->
<g id="node2" class="node"><title>SimpleGUICS2Pygame_simpleguics2pygame_canvas</title><style>.edge>path:hover{stroke-width:8}</style>
<ellipse fill="#9b2626" stroke="black" cx="379.586" cy="-358.253" rx="88.2768" ry="28.9828"/>
<text text-anchor="middle" x="379.586" y="-366.753" font-family="Helvetica,sans-Serif" font-size="10.00" fill="#ffffff">SimpleGUICS2Pygame.</text>
<text text-anchor="middle" x="379.586" y="-355.753" font-family="Helvetica,sans-Serif" font-size="10.00" fill="#ffffff">simpleguics2pygame.</text>
<text text-anchor="middle" x="379.586" y="-344.753" font-family="Helvetica,sans-Serif" font-size="10.00" fill="#ffffff">canvas</text>
</g>
<!-- SimpleGUICS2Pygame_simpleguics2pygame_frame -->
<g id="node15" class="node"><title>SimpleGUICS2Pygame_simpleguics2pygame_frame</title><style>.edge>path:hover{stroke-width:8}</style>
<ellipse fill="#732626" stroke="black" cx="495.586" cy="-264.271" rx="88.2768" ry="28.9828"/>
<text text-anchor="middle" x="495.586" y="-272.771" font-family="Helvetica,sans-Serif" font-size="10.00" fill="#ffffff">SimpleGUICS2Pygame.</text>
<text text-anchor="middle" x="495.586" y="-261.771" font-family="Helvetica,sans-Serif" font-size="10.00" fill="#ffffff">simpleguics2pygame.</text>
<text text-anchor="middle" x="495.586" y="-250.771" font-family="Helvetica,sans-Serif" font-size="10.00" fill="#ffffff">frame</text>
</g>
<!-- SimpleGUICS2Pygame_simpleguics2pygame_canvas&#45;&gt;SimpleGUICS2Pygame_simpleguics2pygame_frame -->
<g id="edge34" class="edge"><title>SimpleGUICS2Pygame_simpleguics2pygame_canvas&#45;&gt;SimpleGUICS2Pygame_simpleguics2pygame_frame</title><style>.edge>path:hover{stroke-width:8}</style>
<path fill="none" stroke="black" d="M412.517,-331.141C425.619,-320.751 440.835,-308.686 454.637,-297.742"/>
<polygon fill="#9b2626" stroke="black" points="456.912,-300.404 462.573,-291.448 452.563,-294.919 456.912,-300.404"/>
</g>
<!-- SimpleGUICS2Pygame_simpleguics2pygame -->
<g id="node17" class="node"><title>SimpleGUICS2Pygame_simpleguics2pygame</title><style>.edge>path:hover{stroke-width:8}</style>
<ellipse fill="#950303" stroke="black" cx="495.586" cy="-178.066" rx="88.2768" ry="21.4286"/>
<text text-anchor="middle" x="495.586" y="-181.066" font-family="Helvetica,sans-Serif" font-size="10.00" fill="#ffffff">SimpleGUICS2Pygame.</text>
<text text-anchor="middle" x="495.586" y="-170.066" font-family="Helvetica,sans-Serif" font-size="10.00" fill="#ffffff">simpleguics2pygame</text>
</g>
<!-- SimpleGUICS2Pygame_simpleguics2pygame_canvas&#45;&gt;SimpleGUICS2Pygame_simpleguics2pygame -->
<g id="edge33" class="edge"><title>SimpleGUICS2Pygame_simpleguics2pygame_canvas&#45;&gt;SimpleGUICS2Pygame_simpleguics2pygame</title><style>.edge>path:hover{stroke-width:8}</style>
<path fill="none" stroke="black" d="M305.351,-342.509C231.565,-325.889 131.508,-297.014 147.586,-265.271"/>
</g>
<!-- SimpleGUICS2Pygame_simpleguics2pygame_control -->
<g id="node3" class="node"><title>SimpleGUICS2Pygame_simpleguics2pygame_control</title><style>.edge>path:hover{stroke-width:8}</style>
<ellipse fill="#a32828" stroke="black" cx="147.586" cy="-452.236" rx="88.2768" ry="28.9828"/>
<text text-anchor="middle" x="147.586" y="-460.736" font-family="Helvetica,sans-Serif" font-size="10.00" fill="#ffffff">SimpleGUICS2Pygame.</text>
<text text-anchor="middle" x="147.586" y="-449.736" font-family="Helvetica,sans-Serif" font-size="10.00" fill="#ffffff">simpleguics2pygame.</text>
<text text-anchor="middle" x="147.586" y="-438.736" font-family="Helvetica,sans-Serif" font-size="10.00" fill="#ffffff">control</text>
</g>
<!-- SimpleGUICS2Pygame_simpleguics2pygame_control&#45;&gt;SimpleGUICS2Pygame_simpleguics2pygame_frame -->
<g id="edge36" class="edge"><title>SimpleGUICS2Pygame_simpleguics2pygame_control&#45;&gt;SimpleGUICS2Pygame_simpleguics2pygame_frame</title><style>.edge>path:hover{stroke-width:8}</style>
<path fill="none" stroke="black" d="M192.3,-426.847C209.755,-416.075 229.222,-402.408 244.586,-387.245 255.288,-376.683 252.1,-368.956 263.586,-359.253"/>
<path fill="none" stroke="black" d="M263.586,-357.253C275.073,-347.551 270.465,-338.159 282.586,-329.262 318.245,-303.091 364.641,-287.528 405.025,-278.32"/>
<polygon fill="#a32828" stroke="black" points="405.858,-281.721 414.882,-276.17 404.366,-274.882 405.858,-281.721"/>
</g>
<!-- SimpleGUICS2Pygame_simpleguics2pygame_control&#45;&gt;SimpleGUICS2Pygame_simpleguics2pygame -->
<g id="edge35" class="edge"><title>SimpleGUICS2Pygame_simpleguics2pygame_control&#45;&gt;SimpleGUICS2Pygame_simpleguics2pygame</title><style>.edge>path:hover{stroke-width:8}</style>
<path fill="none" stroke="black" d="M87.1659,-430.886C54.8247,-415.922 23.1867,-392.389 31.5863,-359.253"/>
</g>
<!-- SimpleGUICS2Pygame_simpleguics2pygame__media -->
<g id="node4" class="node"><title>SimpleGUICS2Pygame_simpleguics2pygame__media</title><style>.edge>path:hover{stroke-width:8}</style>
<ellipse fill="#b62020" stroke="black" cx="862.586" cy="-546.219" rx="88.2768" ry="28.9828"/>
<text text-anchor="middle" x="862.586" y="-554.719" font-family="Helvetica,sans-Serif" font-size="10.00" fill="#ffffff">SimpleGUICS2Pygame.</text>
<text text-anchor="middle" x="862.586" y="-543.719" font-family="Helvetica,sans-Serif" font-size="10.00" fill="#ffffff">simpleguics2pygame.</text>
<text text-anchor="middle" x="862.586" y="-532.719" font-family="Helvetica,sans-Serif" font-size="10.00" fill="#ffffff">_media</text>
</g>
<!-- SimpleGUICS2Pygame_simpleguics2pygame_sound -->
<g id="node9" class="node"><title>SimpleGUICS2Pygame_simpleguics2pygame_sound</title><style>.edge>path:hover{stroke-width:8}</style>
<ellipse fill="#a83838" stroke="black" cx="900.586" cy="-452.236" rx="88.2768" ry="28.9828"/>
<text text-anchor="middle" x="900.586" y="-460.736" font-family="Helvetica,sans-Serif" font-size="10.00" fill="#ffffff">SimpleGUICS2Pygame.</text>
<text text-anchor="middle" x="900.586" y="-449.736" font-family="Helvetica,sans-Serif" font-size="10.00" fill="#ffffff">simpleguics2pygame.</text>
<text text-anchor="middle" x="900.586" y="-438.736" font-family="Helvetica,sans-Serif" font-size="10.00" fill="#ffffff">sound</text>
</g>
<!-- SimpleGUICS2Pygame_simpleguics2pygame__media&#45;&gt;SimpleGUICS2Pygame_simpleguics2pygame_sound -->
<g id="edge23" class="edge"><title>SimpleGUICS2Pygame_simpleguics2pygame__media&#45;&gt;SimpleGUICS2Pygame_simpleguics2pygame_sound</title><style>.edge>path:hover{stroke-width:8}</style>
<path fill="none" stroke="black" d="M874.194,-517.121C877.656,-508.741 881.506,-499.421 885.172,-490.548"/>
<polygon fill="#b62020" stroke="black" points="888.466,-491.74 889.05,-481.162 881.997,-489.068 888.466,-491.74"/>
</g>
<!-- SimpleGUICS2Pygame_simpleguics2pygame__media&#45;&gt;SimpleGUICS2Pygame_simpleguics2pygame_frame -->
<g id="edge21" class="edge"><title>SimpleGUICS2Pygame_simpleguics2pygame__media&#45;&gt;SimpleGUICS2Pygame_simpleguics2pygame_frame</title><style>.edge>path:hover{stroke-width:8}</style>
<path fill="none" stroke="black" d="M804.926,-524.074C775.813,-509.31 746.586,-486.263 746.586,-453.236"/>
</g>
<!-- SimpleGUICS2Pygame_simpleguics2pygame_image -->
<g id="node16" class="node"><title>SimpleGUICS2Pygame_simpleguics2pygame_image</title><style>.edge>path:hover{stroke-width:8}</style>
<ellipse fill="#bf2121" stroke="black" cx="572.586" cy="-452.236" rx="88.2768" ry="28.9828"/>
<text text-anchor="middle" x="572.586" y="-460.736" font-family="Helvetica,sans-Serif" font-size="10.00" fill="#ffffff">SimpleGUICS2Pygame.</text>
<text text-anchor="middle" x="572.586" y="-449.736" font-family="Helvetica,sans-Serif" font-size="10.00" fill="#ffffff">simpleguics2pygame.</text>
<text text-anchor="middle" x="572.586" y="-438.736" font-family="Helvetica,sans-Serif" font-size="10.00" fill="#ffffff">image</text>
</g>
<!-- SimpleGUICS2Pygame_simpleguics2pygame__media&#45;&gt;SimpleGUICS2Pygame_simpleguics2pygame_image -->
<g id="edge22" class="edge"><title>SimpleGUICS2Pygame_simpleguics2pygame__media&#45;&gt;SimpleGUICS2Pygame_simpleguics2pygame_image</title><style>.edge>path:hover{stroke-width:8}</style>
<path fill="none" stroke="black" d="M800.374,-525.486C754.598,-510.967 692.266,-491.196 644.378,-476.007"/>
<polygon fill="#b62020" stroke="black" points="645.286,-472.623 634.696,-472.936 643.17,-479.296 645.286,-472.623"/>
</g>
<!-- SimpleGUICS2Pygame_simplegui_lib_fps -->
<g id="node5" class="node"><title>SimpleGUICS2Pygame_simplegui_lib_fps</title><style>.edge>path:hover{stroke-width:8}</style>
<ellipse fill="#b83d3d" stroke="black" cx="495.586" cy="-99.6396" rx="88.2768" ry="21.4286"/>
<text text-anchor="middle" x="495.586" y="-102.64" font-family="Helvetica,sans-Serif" font-size="10.00" fill="#ffffff">SimpleGUICS2Pygame.</text>
<text text-anchor="middle" x="495.586" y="-91.6396" font-family="Helvetica,sans-Serif" font-size="10.00" fill="#ffffff">simplegui_lib_fps</text>
</g>
<!-- SimpleGUICS2Pygame_simplegui_lib_fps&#45;&gt;SimpleGUICS2Pygame_simplegui_lib -->
<g id="edge2" class="edge"><title>SimpleGUICS2Pygame_simplegui_lib_fps&#45;&gt;SimpleGUICS2Pygame_simplegui_lib</title><style>.edge>path:hover{stroke-width:8}</style>
<path fill="none" stroke="black" d="M520.314,-79.1563C532.286,-69.7239 546.825,-58.2688 559.715,-48.1129"/>
<polygon fill="#b83d3d" stroke="black" points="562.215,-50.599 567.903,-41.661 557.882,-45.1007 562.215,-50.599"/>
</g>
<!-- SimpleGUICS2Pygame_simpleguics2pygame_timer -->
<g id="node6" class="node"><title>SimpleGUICS2Pygame_simpleguics2pygame_timer</title><style>.edge>path:hover{stroke-width:8}</style>
<ellipse fill="#bc2f2f" stroke="black" cx="862.586" cy="-358.253" rx="88.2768" ry="28.9828"/>
<text text-anchor="middle" x="862.586" y="-366.753" font-family="Helvetica,sans-Serif" font-size="10.00" fill="#ffffff">SimpleGUICS2Pygame.</text>
<text text-anchor="middle" x="862.586" y="-355.753" font-family="Helvetica,sans-Serif" font-size="10.00" fill="#ffffff">simpleguics2pygame.</text>
<text text-anchor="middle" x="862.586" y="-344.753" font-family="Helvetica,sans-Serif" font-size="10.00" fill="#ffffff">timer</text>
</g>
<!-- SimpleGUICS2Pygame_simpleguics2pygame_timer&#45;&gt;SimpleGUICS2Pygame_simpleguics2pygame_frame -->
<g id="edge45" class="edge"><title>SimpleGUICS2Pygame_simpleguics2pygame_timer&#45;&gt;SimpleGUICS2Pygame_simpleguics2pygame_frame</title><style>.edge>path:hover{stroke-width:8}</style>
<path fill="none" stroke="black" d="M796.549,-338.811C784.597,-335.564 772.233,-332.266 760.586,-329.262 698.91,-313.357 628.846,-296.49 576.258,-284.068"/>
<polygon fill="#bc2f2f" stroke="black" points="576.851,-280.612 566.314,-281.723 575.244,-287.425 576.851,-280.612"/>
</g>
<!-- SimpleGUICS2Pygame_simpleguics2pygame_timer&#45;&gt;SimpleGUICS2Pygame_simpleguics2pygame -->
<g id="edge44" class="edge"><title>SimpleGUICS2Pygame_simpleguics2pygame_timer&#45;&gt;SimpleGUICS2Pygame_simpleguics2pygame</title><style>.edge>path:hover{stroke-width:8}</style>
<path fill="none" stroke="black" d="M870.964,-329.351C875.129,-309.401 876.669,-283.044 862.586,-265.271"/>
</g>
<!-- SimpleGUICS2Pygame_simpleplot -->
<g id="node7" class="node"><title>SimpleGUICS2Pygame_simpleplot</title><style>.edge>path:hover{stroke-width:8}</style>
<ellipse fill="#ac4949" stroke="black" cx="630.586" cy="-726.406" rx="88.2768" ry="21.4286"/>
<text text-anchor="middle" x="630.586" y="-729.406" font-family="Helvetica,sans-Serif" font-size="10.00" fill="#ffffff">SimpleGUICS2Pygame.</text>
<text text-anchor="middle" x="630.586" y="-718.406" font-family="Helvetica,sans-Serif" font-size="10.00" fill="#ffffff">simpleplot</text>
</g>
<!-- SimpleGUICS2Pygame_simplegui_lib_keys -->
<g id="node8" class="node"><title>SimpleGUICS2Pygame_simplegui_lib_keys</title><style>.edge>path:hover{stroke-width:8}</style>
<ellipse fill="#b83d3d" stroke="black" cx="690.586" cy="-99.6396" rx="88.2768" ry="21.4286"/>
<text text-anchor="middle" x="690.586" y="-102.64" font-family="Helvetica,sans-Serif" font-size="10.00" fill="#ffffff">SimpleGUICS2Pygame.</text>
<text text-anchor="middle" x="690.586" y="-91.6396" font-family="Helvetica,sans-Serif" font-size="10.00" fill="#ffffff">simplegui_lib_keys</text>
</g>
<!-- SimpleGUICS2Pygame_simplegui_lib_keys&#45;&gt;SimpleGUICS2Pygame_simplegui_lib -->
<g id="edge3" class="edge"><title>SimpleGUICS2Pygame_simplegui_lib_keys&#45;&gt;SimpleGUICS2Pygame_simplegui_lib</title><style>.edge>path:hover{stroke-width:8}</style>
<path fill="none" stroke="black" d="M665.603,-79.1563C653.393,-69.634 638.54,-58.0504 625.425,-47.8231"/>
<polygon fill="#b83d3d" stroke="black" points="627.562,-45.0507 617.524,-41.661 623.257,-50.5706 627.562,-45.0507"/>
</g>
<!-- SimpleGUICS2Pygame_simpleguics2pygame_sound&#45;&gt;SimpleGUICS2Pygame_simpleguics2pygame -->
<g id="edge43" class="edge"><title>SimpleGUICS2Pygame_simpleguics2pygame_sound&#45;&gt;SimpleGUICS2Pygame_simpleguics2pygame</title><style>.edge>path:hover{stroke-width:8}</style>
<path fill="none" stroke="black" d="M960.701,-430.962C992.924,-416.026 1024.54,-392.498 1016.59,-359.253"/>
<path fill="none" stroke="black" d="M1016.59,-357.253C998.026,-279.72 912.097,-327.758 862.586,-265.271"/>
</g>
<!-- SimpleGUICS2Pygame_simpleguics2pygame__joypads -->
<g id="node10" class="node"><title>SimpleGUICS2Pygame_simpleguics2pygame__joypads</title><style>.edge>path:hover{stroke-width:8}</style>
<ellipse fill="#a13535" stroke="black" cx="630.586" cy="-546.219" rx="88.2768" ry="28.9828"/>
<text text-anchor="middle" x="630.586" y="-554.719" font-family="Helvetica,sans-Serif" font-size="10.00" fill="#ffffff">SimpleGUICS2Pygame.</text>
<text text-anchor="middle" x="630.586" y="-543.719" font-family="Helvetica,sans-Serif" font-size="10.00" fill="#ffffff">simpleguics2pygame.</text>
<text text-anchor="middle" x="630.586" y="-532.719" font-family="Helvetica,sans-Serif" font-size="10.00" fill="#ffffff">_joypads</text>
</g>
<!-- SimpleGUICS2Pygame_simpleguics2pygame__joypads&#45;&gt;SimpleGUICS2Pygame_simpleguics2pygame_frame -->
<g id="edge20" class="edge"><title>SimpleGUICS2Pygame_simpleguics2pygame__joypads&#45;&gt;SimpleGUICS2Pygame_simpleguics2pygame_frame</title><style>.edge>path:hover{stroke-width:8}</style>
<path fill="none" stroke="black" d="M688.246,-524.074C717.359,-509.31 746.586,-486.263 746.586,-453.236"/>
<path fill="none" stroke="black" d="M746.586,-451.236C746.586,-410.355 773.11,-390.362 746.586,-359.253"/>
<path fill="none" stroke="black" d="M746.586,-357.253C735.954,-344.783 736.397,-338.083 722.586,-329.262 681.689,-303.14 630.005,-287.49 586.289,-278.214"/>
<polygon fill="#a13535" stroke="black" points="586.725,-274.731 576.227,-276.16 585.325,-281.589 586.725,-274.731"/>
</g>
<!-- SimpleGUICS2Pygame_simpleguics2pygame__pygame_init -->
<g id="node11" class="node"><title>SimpleGUICS2Pygame_simpleguics2pygame__pygame_init</title><style>.edge>path:hover{stroke-width:8}</style>
<ellipse fill="#d10505" stroke="black" cx="514.586" cy="-640.202" rx="88.2768" ry="28.9828"/>
<text text-anchor="middle" x="514.586" y="-648.702" font-family="Helvetica,sans-Serif" font-size="10.00" fill="#ffffff">SimpleGUICS2Pygame.</text>
<text text-anchor="middle" x="514.586" y="-637.702" font-family="Helvetica,sans-Serif" font-size="10.00" fill="#ffffff">simpleguics2pygame.</text>
<text text-anchor="middle" x="514.586" y="-626.702" font-family="Helvetica,sans-Serif" font-size="10.00" fill="#ffffff">_pygame_init</text>
</g>
<!-- SimpleGUICS2Pygame_simpleguics2pygame__pygame_init&#45;&gt;SimpleGUICS2Pygame_simpleguics2pygame_canvas -->
<g id="edge29" class="edge"><title>SimpleGUICS2Pygame_simpleguics2pygame__pygame_init&#45;&gt;SimpleGUICS2Pygame_simpleguics2pygame_canvas</title><style>.edge>path:hover{stroke-width:8}</style>
<path fill="none" stroke="black" d="M427.092,-635.805C368.703,-628.005 299.619,-606.114 282.586,-547.219"/>
<path fill="none" stroke="black" d="M282.586,-545.219C270.989,-505.118 295.361,-494.514 301.586,-453.236"/>
<path fill="none" stroke="black" d="M301.586,-451.236C305.079,-428.075 320.414,-407.592 336.574,-391.869"/>
<polygon fill="#d10505" stroke="black" points="339.051,-394.345 344.017,-384.987 334.299,-389.206 339.051,-394.345"/>
</g>
<!-- SimpleGUICS2Pygame_simpleguics2pygame__pygame_init&#45;&gt;SimpleGUICS2Pygame_simpleguics2pygame_control -->
<g id="edge30" class="edge"><title>SimpleGUICS2Pygame_simpleguics2pygame__pygame_init&#45;&gt;SimpleGUICS2Pygame_simpleguics2pygame_control</title><style>.edge>path:hover{stroke-width:8}</style>
<path fill="none" stroke="black" d="M426.151,-639.016C295.568,-636.266 64.9415,-620.925 50.5863,-547.219"/>
</g>
<!-- SimpleGUICS2Pygame_simpleguics2pygame__pygame_init&#45;&gt;SimpleGUICS2Pygame_simpleguics2pygame__media -->
<g id="edge28" class="edge"><title>SimpleGUICS2Pygame_simpleguics2pygame__pygame_init&#45;&gt;SimpleGUICS2Pygame_simpleguics2pygame__media</title><style>.edge>path:hover{stroke-width:8}</style>
<path fill="none" stroke="black" d="M582.097,-621.357C640.326,-605.966 724.409,-583.742 785.316,-567.643"/>
<polygon fill="#d10505" stroke="black" points="786.49,-570.953 795.264,-565.013 784.701,-564.185 786.49,-570.953"/>
</g>
<!-- SimpleGUICS2Pygame_simpleguics2pygame__pygame_init&#45;&gt;SimpleGUICS2Pygame_simpleguics2pygame__joypads -->
<g id="edge27" class="edge"><title>SimpleGUICS2Pygame_simpleguics2pygame__pygame_init&#45;&gt;SimpleGUICS2Pygame_simpleguics2pygame__joypads</title><style>.edge>path:hover{stroke-width:8}</style>
<path fill="none" stroke="black" d="M547.517,-613.089C560.619,-602.7 575.835,-590.634 589.637,-579.69"/>
<polygon fill="#d10505" stroke="black" points="591.912,-582.352 597.573,-573.397 587.563,-576.868 591.912,-582.352"/>
</g>
<!-- SimpleGUICS2Pygame_simpleguics2pygame__colors -->
<g id="node12" class="node"><title>SimpleGUICS2Pygame_simpleguics2pygame__colors</title><style>.edge>path:hover{stroke-width:8}</style>
<ellipse fill="#bf2121" stroke="black" cx="166.586" cy="-546.219" rx="88.2768" ry="28.9828"/>
<text text-anchor="middle" x="166.586" y="-554.719" font-family="Helvetica,sans-Serif" font-size="10.00" fill="#ffffff">SimpleGUICS2Pygame.</text>
<text text-anchor="middle" x="166.586" y="-543.719" font-family="Helvetica,sans-Serif" font-size="10.00" fill="#ffffff">simpleguics2pygame.</text>
<text text-anchor="middle" x="166.586" y="-532.719" font-family="Helvetica,sans-Serif" font-size="10.00" fill="#ffffff">_colors</text>
</g>
<!-- SimpleGUICS2Pygame_simpleguics2pygame__pygame_init&#45;&gt;SimpleGUICS2Pygame_simpleguics2pygame__colors -->
<g id="edge25" class="edge"><title>SimpleGUICS2Pygame_simpleguics2pygame__pygame_init&#45;&gt;SimpleGUICS2Pygame_simpleguics2pygame__colors</title><style>.edge>path:hover{stroke-width:8}</style>
<path fill="none" stroke="black" d="M446.389,-621.722C396.978,-608.994 328.593,-591.248 268.586,-575.21 260.144,-572.954 251.315,-570.569 242.536,-568.182"/>
<polygon fill="#d10505" stroke="black" points="243.236,-564.745 232.668,-565.492 241.395,-571.498 243.236,-564.745"/>
</g>
<!-- SimpleGUICS2Pygame_simpleguics2pygame__fonts -->
<g id="node13" class="node"><title>SimpleGUICS2Pygame_simpleguics2pygame__fonts</title><style>.edge>path:hover{stroke-width:8}</style>
<ellipse fill="#b62020" stroke="black" cx="398.586" cy="-546.219" rx="88.2768" ry="28.9828"/>
<text text-anchor="middle" x="398.586" y="-554.719" font-family="Helvetica,sans-Serif" font-size="10.00" fill="#ffffff">SimpleGUICS2Pygame.</text>
<text text-anchor="middle" x="398.586" y="-543.719" font-family="Helvetica,sans-Serif" font-size="10.00" fill="#ffffff">simpleguics2pygame.</text>
<text text-anchor="middle" x="398.586" y="-532.719" font-family="Helvetica,sans-Serif" font-size="10.00" fill="#ffffff">_fonts</text>
</g>
<!-- SimpleGUICS2Pygame_simpleguics2pygame__pygame_init&#45;&gt;SimpleGUICS2Pygame_simpleguics2pygame__fonts -->
<g id="edge26" class="edge"><title>SimpleGUICS2Pygame_simpleguics2pygame__pygame_init&#45;&gt;SimpleGUICS2Pygame_simpleguics2pygame__fonts</title><style>.edge>path:hover{stroke-width:8}</style>
<path fill="none" stroke="black" d="M481.656,-613.089C468.553,-602.7 453.338,-590.634 439.536,-579.69"/>
<polygon fill="#d10505" stroke="black" points="441.61,-576.868 431.599,-573.397 437.26,-582.352 441.61,-576.868"/>
</g>
<!-- SimpleGUICS2Pygame_simpleguics2pygame__pygame_init&#45;&gt;SimpleGUICS2Pygame_simpleguics2pygame_frame -->
<g id="edge31" class="edge"><title>SimpleGUICS2Pygame_simpleguics2pygame__pygame_init&#45;&gt;SimpleGUICS2Pygame_simpleguics2pygame_frame</title><style>.edge>path:hover{stroke-width:8}</style>
<path fill="none" stroke="black" d="M282.586,-545.219C278.409,-530.775 290.885,-527.789 301.586,-517.227 338.346,-480.949 366.229,-493.491 398.586,-453.236"/>
<path fill="none" stroke="black" d="M398.586,-451.236C426.679,-416.287 454.34,-426.177 476.586,-387.245 491.1,-361.845 495.538,-328.854 496.519,-303.588"/>
<polygon fill="#d10505" stroke="black" points="500.025,-303.352 496.747,-293.277 493.026,-303.198 500.025,-303.352"/>
</g>
<!-- SimpleGUICS2Pygame_simpleguics2pygame__pygame_init&#45;&gt;SimpleGUICS2Pygame_simpleguics2pygame_image -->
<g id="edge32" class="edge"><title>SimpleGUICS2Pygame_simpleguics2pygame__pygame_init&#45;&gt;SimpleGUICS2Pygame_simpleguics2pygame_image</title><style>.edge>path:hover{stroke-width:8}</style>
<path fill="none" stroke="black" d="M515.864,-610.808C517.729,-585.573 522.314,-548.019 533.586,-517.227 537.075,-507.698 542.058,-498.035 547.302,-489.204"/>
<polygon fill="#d10505" stroke="black" points="550.288,-491.03 552.586,-480.687 544.34,-487.339 550.288,-491.03"/>
</g>
<!-- SimpleGUICS2Pygame_simpleguics2pygame__pygame_init&#45;&gt;SimpleGUICS2Pygame_simpleguics2pygame -->
<g id="edge24" class="edge"><title>SimpleGUICS2Pygame_simpleguics2pygame__pygame_init&#45;&gt;SimpleGUICS2Pygame_simpleguics2pygame</title><style>.edge>path:hover{stroke-width:8}</style>
<path fill="none" stroke="black" d="M428.255,-633.653C297.656,-624.378 62.2652,-603.879 36.5863,-575.21 -27.4684,-503.696 7.99559,-452.316 31.5863,-359.253"/>
<path fill="none" stroke="black" d="M31.5863,-357.253C42.1868,-309.252 139.23,-281.769 147.586,-265.271"/>
<path fill="none" stroke="black" d="M147.586,-263.271C170.621,-217.793 306.998,-196.024 402.021,-186.253"/>
<polygon fill="#d10505" stroke="black" points="402.634,-189.709 412.236,-185.232 401.938,-182.744 402.634,-189.709"/>
</g>
<!-- SimpleGUICS2Pygame_simpleguics2pygame__colors&#45;&gt;SimpleGUICS2Pygame_simpleguics2pygame_canvas -->
<g id="edge14" class="edge"><title>SimpleGUICS2Pygame_simpleguics2pygame__colors&#45;&gt;SimpleGUICS2Pygame_simpleguics2pygame_canvas</title><style>.edge>path:hover{stroke-width:8}</style>
<path fill="none" stroke="black" d="M263.586,-451.236C273.853,-438.463 275.428,-434.232 287.586,-423.245 300.739,-411.358 316.183,-399.827 330.623,-389.903"/>
<polygon fill="#bf2121" stroke="black" points="332.656,-392.753 338.983,-384.255 328.737,-386.953 332.656,-392.753"/>
</g>
<!-- SimpleGUICS2Pygame_simpleguics2pygame__colors&#45;&gt;SimpleGUICS2Pygame_simpleguics2pygame_control -->
<g id="edge15" class="edge"><title>SimpleGUICS2Pygame_simpleguics2pygame__colors&#45;&gt;SimpleGUICS2Pygame_simpleguics2pygame_control</title><style>.edge>path:hover{stroke-width:8}</style>
<path fill="none" stroke="black" d="M160.782,-517.121C159.104,-508.995 157.243,-499.985 155.461,-491.357"/>
<polygon fill="#bf2121" stroke="black" points="158.871,-490.564 153.42,-481.479 152.015,-491.98 158.871,-490.564"/>
</g>
<!-- SimpleGUICS2Pygame_simpleguics2pygame__colors&#45;&gt;SimpleGUICS2Pygame_simpleguics2pygame_frame -->
<g id="edge16" class="edge"><title>SimpleGUICS2Pygame_simpleguics2pygame__colors&#45;&gt;SimpleGUICS2Pygame_simpleguics2pygame_frame</title><style>.edge>path:hover{stroke-width:8}</style>
<path fill="none" stroke="black" d="M202.254,-519.485C216.249,-508.517 231.948,-495.067 244.586,-481.227 254.725,-470.124 254.166,-464.955 263.586,-453.236"/>
<path fill="none" stroke="black" d="M263.586,-451.236C289.199,-419.373 232.355,-385.633 263.586,-359.253"/>
</g>
<!-- SimpleGUICS2Pygame_simpleguics2pygame__fonts&#45;&gt;SimpleGUICS2Pygame_simpleguics2pygame_canvas -->
<g id="edge17" class="edge"><title>SimpleGUICS2Pygame_simpleguics2pygame__fonts&#45;&gt;SimpleGUICS2Pygame_simpleguics2pygame_canvas</title><style>.edge>path:hover{stroke-width:8}</style>
<path fill="none" stroke="black" d="M348.25,-522.167C322.364,-506.502 297.07,-483.184 301.586,-453.236"/>
</g>
<!-- SimpleGUICS2Pygame_simpleguics2pygame__fonts&#45;&gt;SimpleGUICS2Pygame_simpleguics2pygame_control -->
<g id="edge18" class="edge"><title>SimpleGUICS2Pygame_simpleguics2pygame__fonts&#45;&gt;SimpleGUICS2Pygame_simpleguics2pygame_control</title><style>.edge>path:hover{stroke-width:8}</style>
<path fill="none" stroke="black" d="M341.002,-524.116C303.509,-510.376 254.443,-492.396 215.113,-477.982"/>
<polygon fill="#b62020" stroke="black" points="215.931,-474.554 205.337,-474.4 213.522,-481.127 215.931,-474.554"/>
</g>
<!-- SimpleGUICS2Pygame_simpleguics2pygame__fonts&#45;&gt;SimpleGUICS2Pygame_simpleguics2pygame_frame -->
<g id="edge19" class="edge"><title>SimpleGUICS2Pygame_simpleguics2pygame__fonts&#45;&gt;SimpleGUICS2Pygame_simpleguics2pygame_frame</title><style>.edge>path:hover{stroke-width:8}</style>
<path fill="none" stroke="black" d="M390.135,-517.257C385.933,-497.278 384.38,-470.91 398.586,-453.236"/>
</g>
<!-- SimpleGUICS2Pygame_simpleguics2pygame_keys -->
<g id="node14" class="node"><title>SimpleGUICS2Pygame_simpleguics2pygame_keys</title><style>.edge>path:hover{stroke-width:8}</style>
<ellipse fill="#ce3b3b" stroke="black" cx="147.586" cy="-358.253" rx="88.2768" ry="28.9828"/>
<text text-anchor="middle" x="147.586" y="-366.753" font-family="Helvetica,sans-Serif" font-size="10.00" fill="#ffffff">SimpleGUICS2Pygame.</text>
<text text-anchor="middle" x="147.586" y="-355.753" font-family="Helvetica,sans-Serif" font-size="10.00" fill="#ffffff">simpleguics2pygame.</text>
<text text-anchor="middle" x="147.586" y="-344.753" font-family="Helvetica,sans-Serif" font-size="10.00" fill="#ffffff">keys</text>
</g>
<!-- SimpleGUICS2Pygame_simpleguics2pygame_keys&#45;&gt;SimpleGUICS2Pygame_simpleguics2pygame_frame -->
<g id="edge42" class="edge"><title>SimpleGUICS2Pygame_simpleguics2pygame_keys&#45;&gt;SimpleGUICS2Pygame_simpleguics2pygame_frame</title><style>.edge>path:hover{stroke-width:8}</style>
<path fill="none" stroke="black" d="M213.668,-338.981C225.615,-335.716 237.966,-332.368 249.586,-329.262 305.725,-314.258 369.197,-297.759 417.606,-285.272"/>
<polygon fill="#ce3b3b" stroke="black" points="418.579,-288.636 427.389,-282.75 416.832,-281.857 418.579,-288.636"/>
</g>
<!-- SimpleGUICS2Pygame_simpleguics2pygame_keys&#45;&gt;SimpleGUICS2Pygame_simpleguics2pygame -->
<g id="edge41" class="edge"><title>SimpleGUICS2Pygame_simpleguics2pygame_keys&#45;&gt;SimpleGUICS2Pygame_simpleguics2pygame</title><style>.edge>path:hover{stroke-width:8}</style>
<path fill="none" stroke="black" d="M141.24,-329.171C138.407,-310.123 137.629,-284.93 147.586,-265.271"/>
</g>
<!-- SimpleGUICS2Pygame_simpleguics2pygame_frame&#45;&gt;SimpleGUICS2Pygame_simpleguics2pygame -->
<g id="edge37" class="edge"><title>SimpleGUICS2Pygame_simpleguics2pygame_frame&#45;&gt;SimpleGUICS2Pygame_simpleguics2pygame</title><style>.edge>path:hover{stroke-width:8}</style>
<path fill="none" stroke="black" d="M495.586,-235.232C495.586,-227.024 495.586,-218.01 495.586,-209.653"/>
<polygon fill="#732626" stroke="black" points="499.086,-209.527 495.586,-199.527 492.086,-209.527 499.086,-209.527"/>
</g>
<!-- SimpleGUICS2Pygame_simpleguics2pygame_image&#45;&gt;SimpleGUICS2Pygame_simpleguics2pygame_canvas -->
<g id="edge39" class="edge"><title>SimpleGUICS2Pygame_simpleguics2pygame_image&#45;&gt;SimpleGUICS2Pygame_simpleguics2pygame_canvas</title><style>.edge>path:hover{stroke-width:8}</style>
<path fill="none" stroke="black" d="M523.884,-428.025C497.598,-415.497 464.982,-399.953 437.413,-386.813"/>
<polygon fill="#bf2121" stroke="black" points="438.806,-383.6 428.273,-382.457 435.794,-389.919 438.806,-383.6"/>
</g>
<!-- SimpleGUICS2Pygame_simpleguics2pygame_image&#45;&gt;SimpleGUICS2Pygame_simpleguics2pygame_frame -->
<g id="edge40" class="edge"><title>SimpleGUICS2Pygame_simpleguics2pygame_image&#45;&gt;SimpleGUICS2Pygame_simpleguics2pygame_frame</title><style>.edge>path:hover{stroke-width:8}</style>
<path fill="none" stroke="black" d="M632.422,-430.785C663.26,-416.394 696.822,-393.489 708.586,-359.253"/>
<path fill="none" stroke="black" d="M708.586,-357.253C727.48,-302.269 657.355,-280.046 592.587,-271.121"/>
<polygon fill="#bf2121" stroke="black" points="593.031,-267.65 582.667,-269.849 592.141,-274.593 593.031,-267.65"/>
</g>
<!-- SimpleGUICS2Pygame_simpleguics2pygame_image&#45;&gt;SimpleGUICS2Pygame_simpleguics2pygame -->
<g id="edge38" class="edge"><title>SimpleGUICS2Pygame_simpleguics2pygame_image&#45;&gt;SimpleGUICS2Pygame_simpleguics2pygame</title><style>.edge>path:hover{stroke-width:8}</style>
<path fill="none" stroke="black" d="M708.586,-357.253C734.494,-281.856 912.097,-327.758 862.586,-265.271"/>
<path fill="none" stroke="black" d="M862.586,-263.271C828.965,-220.836 685.21,-198.063 587.915,-187.272"/>
<polygon fill="#bf2121" stroke="black" points="588.086,-183.771 577.767,-186.172 587.331,-190.73 588.086,-183.771"/>
</g>
<!-- SimpleGUICS2Pygame_simpleguics2pygame&#45;&gt;SimpleGUICS2Pygame_simplegui_lib_loader -->
<g id="edge7" class="edge"><title>SimpleGUICS2Pygame_simpleguics2pygame&#45;&gt;SimpleGUICS2Pygame_simplegui_lib_loader</title><style>.edge>path:hover{stroke-width:8}</style>
<path fill="none" stroke="black" d="M450.849,-159.532C422.237,-148.318 384.95,-133.704 354.677,-121.84"/>
<polygon fill="#950303" stroke="black" points="355.703,-118.482 345.115,-118.092 353.148,-125 355.703,-118.482"/>
</g>
<!-- SimpleGUICS2Pygame_simpleguics2pygame&#45;&gt;SimpleGUICS2Pygame_simplegui_lib_fps -->
<g id="edge5" class="edge"><title>SimpleGUICS2Pygame_simpleguics2pygame&#45;&gt;SimpleGUICS2Pygame_simplegui_lib_fps</title><style>.edge>path:hover{stroke-width:8}</style>
<path fill="none" stroke="black" d="M495.586,-156.585C495.586,-148.726 495.586,-139.582 495.586,-130.992"/>
<polygon fill="#950303" stroke="black" points="499.086,-130.912 495.586,-120.912 492.086,-130.912 499.086,-130.912"/>
</g>
<!-- SimpleGUICS2Pygame_simpleguics2pygame&#45;&gt;SimpleGUICS2Pygame_simplegui_lib_keys -->
<g id="edge6" class="edge"><title>SimpleGUICS2Pygame_simpleguics2pygame&#45;&gt;SimpleGUICS2Pygame_simplegui_lib_keys</title><style>.edge>path:hover{stroke-width:8}</style>
<path fill="none" stroke="black" d="M540.323,-159.532C568.936,-148.318 606.223,-133.704 636.495,-121.84"/>
<polygon fill="#950303" stroke="black" points="638.024,-125 646.058,-118.092 635.47,-118.482 638.024,-125"/>
</g>
<!-- SimpleGUICS2Pygame_simplegui_lib_draw -->
<g id="node19" class="node"><title>SimpleGUICS2Pygame_simplegui_lib_draw</title><style>.edge>path:hover{stroke-width:8}</style>
<ellipse fill="#c04040" stroke="black" cx="885.586" cy="-99.6396" rx="88.2768" ry="21.4286"/>
<text text-anchor="middle" x="885.586" y="-102.64" font-family="Helvetica,sans-Serif" font-size="10.00" fill="#ffffff">SimpleGUICS2Pygame.</text>
<text text-anchor="middle" x="885.586" y="-91.6396" font-family="Helvetica,sans-Serif" font-size="10.00" fill="#ffffff">simplegui_lib_draw</text>
</g>
<!-- SimpleGUICS2Pygame_simplegui_lib_draw&#45;&gt;SimpleGUICS2Pygame_simplegui_lib -->
<g id="edge1" class="edge"><title>SimpleGUICS2Pygame_simplegui_lib_draw&#45;&gt;SimpleGUICS2Pygame_simplegui_lib</title><style>.edge>path:hover{stroke-width:8}</style>
<path fill="none" stroke="black" d="M827.699,-83.5402C779.542,-70.979 710.924,-53.0805 660.24,-39.86"/>
<polygon fill="#c04040" stroke="black" points="660.913,-36.4186 650.353,-37.2812 659.146,-43.192 660.913,-36.4186"/>
</g>
<!-- SimpleGUICS2Pygame_simpleguics2pygame__arguments -->
<g id="node20" class="node"><title>SimpleGUICS2Pygame_simpleguics2pygame__arguments</title><style>.edge>path:hover{stroke-width:8}</style>
<ellipse fill="#f90606" stroke="black" cx="862.586" cy="-640.202" rx="88.2768" ry="28.9828"/>
<text text-anchor="middle" x="862.586" y="-648.702" font-family="Helvetica,sans-Serif" font-size="10.00" fill="#ffffff">SimpleGUICS2Pygame.</text>
<text text-anchor="middle" x="862.586" y="-637.702" font-family="Helvetica,sans-Serif" font-size="10.00" fill="#ffffff">simpleguics2pygame.</text>
<text text-anchor="middle" x="862.586" y="-626.702" font-family="Helvetica,sans-Serif" font-size="10.00" fill="#ffffff">_arguments</text>
</g>
<!-- SimpleGUICS2Pygame_simpleguics2pygame__arguments&#45;&gt;SimpleGUICS2Pygame_simpleguics2pygame__media -->
<g id="edge10" class="edge"><title>SimpleGUICS2Pygame_simpleguics2pygame__arguments&#45;&gt;SimpleGUICS2Pygame_simpleguics2pygame__media</title><style>.edge>path:hover{stroke-width:8}</style>
<path fill="none" stroke="black" d="M862.586,-611.104C862.586,-603.066 862.586,-594.164 862.586,-585.621"/>
<polygon fill="#f90606" stroke="black" points="866.086,-585.461 862.586,-575.461 859.086,-585.461 866.086,-585.461"/>
</g>
<!-- SimpleGUICS2Pygame_simpleguics2pygame__arguments&#45;&gt;SimpleGUICS2Pygame_simpleguics2pygame_timer -->
<g id="edge13" class="edge"><title>SimpleGUICS2Pygame_simpleguics2pygame__arguments&#45;&gt;SimpleGUICS2Pygame_simpleguics2pygame_timer</title><style>.edge>path:hover{stroke-width:8}</style>
<path fill="none" stroke="black" d="M784.586,-451.236C773.409,-428.388 790.403,-406.512 811.35,-389.83"/>
<polygon fill="#f90606" stroke="black" points="813.623,-392.5 819.521,-383.699 809.422,-386.901 813.623,-392.5"/>
</g>
<!-- SimpleGUICS2Pygame_simpleguics2pygame__arguments&#45;&gt;SimpleGUICS2Pygame_simpleguics2pygame_sound -->
<g id="edge12" class="edge"><title>SimpleGUICS2Pygame_simpleguics2pygame__arguments&#45;&gt;SimpleGUICS2Pygame_simpleguics2pygame_sound</title><style>.edge>path:hover{stroke-width:8}</style>
<path fill="none" stroke="black" d="M978.586,-545.219C980.909,-521.729 966.06,-501.09 948.713,-485.346"/>
<polygon fill="#f90606" stroke="black" points="950.505,-482.276 940.619,-478.464 945.97,-487.608 950.505,-482.276"/>
</g>
<!-- SimpleGUICS2Pygame_simpleguics2pygame__arguments&#45;&gt;SimpleGUICS2Pygame_simpleguics2pygame__fonts -->
<g id="edge9" class="edge"><title>SimpleGUICS2Pygame_simpleguics2pygame__arguments&#45;&gt;SimpleGUICS2Pygame_simpleguics2pygame__fonts</title><style>.edge>path:hover{stroke-width:8}</style>
<path fill="none" stroke="black" d="M798.101,-620.348C785.71,-617.054 772.792,-613.844 760.586,-611.21 660.735,-589.661 634.07,-593.585 533.586,-575.21 516.561,-572.097 498.383,-568.509 481.062,-564.963"/>
<polygon fill="#f90606" stroke="black" points="481.478,-561.476 470.977,-562.884 480.065,-568.332 481.478,-561.476"/>
</g>
<!-- SimpleGUICS2Pygame_simpleguics2pygame__arguments&#45;&gt;SimpleGUICS2Pygame_simpleguics2pygame_frame -->
<g id="edge11" class="edge"><title>SimpleGUICS2Pygame_simpleguics2pygame__arguments&#45;&gt;SimpleGUICS2Pygame_simpleguics2pygame_frame</title><style>.edge>path:hover{stroke-width:8}</style>
<path fill="none" stroke="black" d="M918.489,-617.59C946.575,-602.774 975.361,-579.83 978.586,-547.219"/>
<path fill="none" stroke="black" d="M978.586,-545.219C980.066,-530.256 971.991,-525.725 959.586,-517.227 900.884,-477.013 862.288,-521.442 803.586,-481.227 791.182,-472.73 791.194,-466.742 784.586,-453.236"/>
<path fill="none" stroke="black" d="M784.586,-451.236C765.148,-411.504 775.284,-392.913 746.586,-359.253"/>
</g>
<!-- SimpleGUICS2Pygame_simpleguics2pygame__arguments&#45;&gt;SimpleGUICS2Pygame_simpleguics2pygame -->
<g id="edge8" class="edge"><title>SimpleGUICS2Pygame_simpleguics2pygame__arguments&#45;&gt;SimpleGUICS2Pygame_simpleguics2pygame</title><style>.edge>path:hover{stroke-width:8}</style>
<path fill="none" stroke="black" d="M978.586,-545.219C981.506,-515.695 991.066,-510.17 997.586,-481.227 1009.64,-427.704 1029.36,-412.61 1016.59,-359.253"/>
</g>
<!-- matplotlib -->
<g id="node21" class="node"><title>matplotlib</title><style>.edge>path:hover{stroke-width:8}</style>
<polygon fill="#31c431" stroke="black" points="660.086,-856.619 657.086,-860.619 636.086,-860.619 633.086,-856.619 601.086,-856.619 601.086,-820.619 660.086,-820.619 660.086,-856.619"/>
<text text-anchor="middle" x="630.586" y="-836.119" font-family="Helvetica,sans-Serif" font-size="10.00" fill="#000000">matplotlib</text>
</g>
<!-- matplotlib&#45;&gt;SimpleGUICS2Pygame_simpleplot -->
<g id="edge46" class="edge"><title>matplotlib&#45;&gt;SimpleGUICS2Pygame_simpleplot</title><style>.edge>path:hover{stroke-width:8}</style>
<path fill="none" stroke="black" d="M630.586,-820.399C630.586,-803.771 630.586,-778.225 630.586,-758.112"/>
<polygon fill="#31c431" stroke="black" points="634.086,-757.878 630.586,-747.878 627.086,-757.878 634.086,-757.878"/>
</g>
<!-- pygame -->
<g id="node22" class="node"><title>pygame</title><style>.edge>path:hover{stroke-width:8}</style>
<polygon fill="#4747c2" stroke="black" points="541.586,-856.619 538.586,-860.619 517.586,-860.619 514.586,-856.619 487.586,-856.619 487.586,-820.619 541.586,-820.619 541.586,-856.619"/>
<text text-anchor="middle" x="514.586" y="-836.119" font-family="Helvetica,sans-Serif" font-size="10.00" fill="#ffffff">pygame</text>
</g>
<!-- pygame&#45;&gt;SimpleGUICS2Pygame_simpleguics2pygame_canvas -->
<g id="edge52" class="edge"><title>pygame&#45;&gt;SimpleGUICS2Pygame_simpleguics2pygame_canvas</title><style>.edge>path:hover{stroke-width:8}</style>
<path fill="none" stroke="black" d="M518.25,-820.51C522.212,-798.241 526.489,-758.499 514.586,-727.406"/>
<path fill="none" stroke="black" d="M514.586,-725.406C472.104,-629.608 111.739,-726.304 50.5863,-641.202"/>
<path fill="none" stroke="black" d="M50.5863,-639.202C-5.42286,-561.257 -16.9625,-491.432 50.5863,-423.245 86.5315,-386.96 227.661,-398.019 277.586,-387.245 286.55,-385.31 295.898,-383.065 305.139,-380.705"/>
<polygon fill="#4747c2" stroke="black" points="306.308,-384.017 315.101,-378.107 304.542,-377.243 306.308,-384.017"/>
</g>
<!-- pygame&#45;&gt;SimpleGUICS2Pygame_simpleguics2pygame_control -->
<g id="edge53" class="edge"><title>pygame&#45;&gt;SimpleGUICS2Pygame_simpleguics2pygame_control</title><style>.edge>path:hover{stroke-width:8}</style>
<path fill="none" stroke="black" d="M50.5863,-639.202C26.7303,-606.003 58.4016,-587.346 50.5863,-547.219"/>
<path fill="none" stroke="black" d="M50.5863,-545.219C45.3902,-518.54 65.2502,-497.02 88.328,-481.522"/>
<polygon fill="#4747c2" stroke="black" points="90.349,-484.385 96.9354,-476.087 86.6114,-478.467 90.349,-484.385"/>
</g>
<!-- pygame&#45;&gt;SimpleGUICS2Pygame_simpleguics2pygame__media -->
<g id="edge50" class="edge"><title>pygame&#45;&gt;SimpleGUICS2Pygame_simpleguics2pygame__media</title><style>.edge>path:hover{stroke-width:8}</style>
<path fill="none" stroke="black" d="M746.586,-639.202C753.33,-610.923 776.76,-589.677 800.814,-574.769"/>
<polygon fill="#4747c2" stroke="black" points="802.826,-577.646 809.675,-569.562 799.28,-571.611 802.826,-577.646"/>
</g>
<!-- pygame&#45;&gt;SimpleGUICS2Pygame_simpleguics2pygame__joypads -->
<g id="edge49" class="edge"><title>pygame&#45;&gt;SimpleGUICS2Pygame_simpleguics2pygame__joypads</title><style>.edge>path:hover{stroke-width:8}</style>
<path fill="none" stroke="black" d="M746.586,-639.202C753.772,-609.068 728.477,-586.919 699.694,-571.916"/>
<polygon fill="#4747c2" stroke="black" points="701.2,-568.757 690.681,-567.489 698.113,-575.039 701.2,-568.757"/>
</g>
<!-- pygame&#45;&gt;SimpleGUICS2Pygame_simpleguics2pygame__pygame_init -->
<g id="edge51" class="edge"><title>pygame&#45;&gt;SimpleGUICS2Pygame_simpleguics2pygame__pygame_init</title><style>.edge>path:hover{stroke-width:8}</style>
<path fill="none" stroke="black" d="M514.586,-725.406C509.119,-711.124 508.12,-694.454 508.85,-679.732"/>
<polygon fill="#4747c2" stroke="black" points="512.366,-679.659 509.649,-669.419 505.387,-679.119 512.366,-679.659"/>
</g>
<!-- pygame&#45;&gt;SimpleGUICS2Pygame_simpleguics2pygame__colors -->
<g id="edge47" class="edge"><title>pygame&#45;&gt;SimpleGUICS2Pygame_simpleguics2pygame__colors</title><style>.edge>path:hover{stroke-width:8}</style>
<path fill="none" stroke="black" d="M50.5863,-639.202C30.8293,-611.707 62.1189,-588.153 97.1528,-571.764"/>
<polygon fill="#4747c2" stroke="black" points="98.8973,-574.818 106.601,-567.545 96.0427,-568.427 98.8973,-574.818"/>
</g>
<!-- pygame&#45;&gt;SimpleGUICS2Pygame_simpleguics2pygame__fonts -->
<g id="edge48" class="edge"><title>pygame&#45;&gt;SimpleGUICS2Pygame_simpleguics2pygame__fonts</title><style>.edge>path:hover{stroke-width:8}</style>
<path fill="none" stroke="black" d="M514.586,-725.406C475.37,-622.963 721.141,-747.902 746.586,-641.202"/>
<path fill="none" stroke="black" d="M746.586,-639.202C749.764,-625.878 585.328,-587.654 481.398,-564.89"/>
<polygon fill="#4747c2" stroke="black" points="482.053,-561.45 471.537,-562.736 480.56,-568.289 482.053,-561.45"/>
</g>
<!-- pygame&#45;&gt;SimpleGUICS2Pygame_simpleguics2pygame_frame -->
<g id="edge54" class="edge"><title>pygame&#45;&gt;SimpleGUICS2Pygame_simpleguics2pygame_frame</title><style>.edge>path:hover{stroke-width:8}</style>
<path fill="none" stroke="black" d="M746.586,-639.202C765.759,-558.805 746.586,-535.887 746.586,-453.236"/>
</g>
</g>
</svg>
