<?xml version="1.0" encoding="UTF-8" standalone="no"?>
<!DOCTYPE svg PUBLIC "-//W3C//DTD SVG 1.1//EN"
 "http://www.w3.org/Graphics/SVG/1.1/DTD/svg11.dtd">
<!-- Generated by graphviz version 2.38.0 (20140413.2041)
 -->
<!-- Title: G Pages: 1 -->
<svg width="1126pt" height="520pt"
 viewBox="0.00 0.00 1125.89 520.34" xmlns="http://www.w3.org/2000/svg" xmlns:xlink="http://www.w3.org/1999/xlink">
<g id="graph0" class="graph" transform="scale(1 1) rotate(0) translate(4 516.34)">
<title>G</title><style>.edge>path:hover{stroke-width:8}</style>
<polygon fill="white" stroke="none" points="-4,4 -4,-516.34 1121.89,-516.34 1121.89,4 -4,4"/>
<!-- SimpleGUICS2Pygame_simpleguics2pygame_sound -->
<g id="node1" class="node"><title>SimpleGUICS2Pygame_simpleguics2pygame_sound</title><style>.edge>path:hover{stroke-width:8}</style>
<ellipse fill="#a44646" stroke="black" cx="994.161" cy="-295.383" rx="88.2768" ry="28.9828"/>
<text text-anchor="middle" x="994.161" y="-303.883" font-family="Helvetica,sans-Serif" font-size="10.00" fill="#ffffff">SimpleGUICS2Pygame.</text>
<text text-anchor="middle" x="994.161" y="-292.883" font-family="Helvetica,sans-Serif" font-size="10.00" fill="#ffffff">simpleguics2pygame.</text>
<text text-anchor="middle" x="994.161" y="-281.883" font-family="Helvetica,sans-Serif" font-size="10.00" fill="#ffffff">sound</text>
</g>
<!-- SimpleGUICS2Pygame_simpleguics2pygame -->
<g id="node11" class="node"><title>SimpleGUICS2Pygame_simpleguics2pygame</title><style>.edge>path:hover{stroke-width:8}</style>
<ellipse fill="#9f0404" stroke="black" cx="533.161" cy="-21.2132" rx="88.2768" ry="21.4286"/>
<text text-anchor="middle" x="533.161" y="-24.2132" font-family="Helvetica,sans-Serif" font-size="10.00" fill="#ffffff">SimpleGUICS2Pygame.</text>
<text text-anchor="middle" x="533.161" y="-13.2132" font-family="Helvetica,sans-Serif" font-size="10.00" fill="#ffffff">simpleguics2pygame</text>
</g>
<!-- SimpleGUICS2Pygame_simpleguics2pygame_sound&#45;&gt;SimpleGUICS2Pygame_simpleguics2pygame -->
<g id="edge37" class="edge"><title>SimpleGUICS2Pygame_simpleguics2pygame_sound&#45;&gt;SimpleGUICS2Pygame_simpleguics2pygame</title><style>.edge>path:hover{stroke-width:8}</style>
<path fill="none" stroke="black" d="M1054.28,-274.109C1086.5,-259.174 1118.12,-235.645 1110.16,-202.401"/>
<path fill="none" stroke="black" d="M1110.16,-200.401C1091.6,-122.867 1008.43,-168.617 956.161,-108.418"/>
</g>
<!-- SimpleGUICS2Pygame_simpleguics2pygame__joypads -->
<g id="node2" class="node"><title>SimpleGUICS2Pygame_simpleguics2pygame__joypads</title><style>.edge>path:hover{stroke-width:8}</style>
<ellipse fill="#ac4949" stroke="black" cx="645.161" cy="-389.366" rx="88.2768" ry="28.9828"/>
<text text-anchor="middle" x="645.161" y="-397.866" font-family="Helvetica,sans-Serif" font-size="10.00" fill="#ffffff">SimpleGUICS2Pygame.</text>
<text text-anchor="middle" x="645.161" y="-386.866" font-family="Helvetica,sans-Serif" font-size="10.00" fill="#ffffff">simpleguics2pygame.</text>
<text text-anchor="middle" x="645.161" y="-375.866" font-family="Helvetica,sans-Serif" font-size="10.00" fill="#ffffff">_joypads</text>
</g>
<!-- SimpleGUICS2Pygame_simpleguics2pygame_frame -->
<g id="node9" class="node"><title>SimpleGUICS2Pygame_simpleguics2pygame_frame</title><style>.edge>path:hover{stroke-width:8}</style>
<ellipse fill="#6b2e2e" stroke="black" cx="533.161" cy="-107.418" rx="88.2768" ry="28.9828"/>
<text text-anchor="middle" x="533.161" y="-115.918" font-family="Helvetica,sans-Serif" font-size="10.00" fill="#ffffff">SimpleGUICS2Pygame.</text>
<text text-anchor="middle" x="533.161" y="-104.918" font-family="Helvetica,sans-Serif" font-size="10.00" fill="#ffffff">simpleguics2pygame.</text>
<text text-anchor="middle" x="533.161" y="-93.9178" font-family="Helvetica,sans-Serif" font-size="10.00" fill="#ffffff">frame</text>
</g>
<!-- SimpleGUICS2Pygame_simpleguics2pygame__joypads&#45;&gt;SimpleGUICS2Pygame_simpleguics2pygame_frame -->
<g id="edge13" class="edge"><title>SimpleGUICS2Pygame_simpleguics2pygame__joypads&#45;&gt;SimpleGUICS2Pygame_simpleguics2pygame_frame</title><style>.edge>path:hover{stroke-width:8}</style>
<path fill="none" stroke="black" d="M716.982,-372.232C742.34,-362.71 768.237,-347.745 783.161,-324.375 797.031,-302.655 796.222,-288.607 783.161,-266.392 753.516,-215.97 684.333,-258.612 668.161,-202.401"/>
</g>
<!-- SimpleGUICS2Pygame_simpleguics2pygame_image -->
<g id="node3" class="node"><title>SimpleGUICS2Pygame_simpleguics2pygame_image</title><style>.edge>path:hover{stroke-width:8}</style>
<ellipse fill="#bc2f2f" stroke="black" cx="686.161" cy="-295.383" rx="88.2768" ry="28.9828"/>
<text text-anchor="middle" x="686.161" y="-303.883" font-family="Helvetica,sans-Serif" font-size="10.00" fill="#ffffff">SimpleGUICS2Pygame.</text>
<text text-anchor="middle" x="686.161" y="-292.883" font-family="Helvetica,sans-Serif" font-size="10.00" fill="#ffffff">simpleguics2pygame.</text>
<text text-anchor="middle" x="686.161" y="-281.883" font-family="Helvetica,sans-Serif" font-size="10.00" fill="#ffffff">image</text>
</g>
<!-- SimpleGUICS2Pygame_simpleguics2pygame_image&#45;&gt;SimpleGUICS2Pygame_simpleguics2pygame_frame -->
<g id="edge34" class="edge"><title>SimpleGUICS2Pygame_simpleguics2pygame_image&#45;&gt;SimpleGUICS2Pygame_simpleguics2pygame_frame</title><style>.edge>path:hover{stroke-width:8}</style>
<path fill="none" stroke="black" d="M681.969,-266.31C678.908,-247.937 674.235,-223.512 668.161,-202.401"/>
</g>
<!-- SimpleGUICS2Pygame_simpleguics2pygame_image&#45;&gt;SimpleGUICS2Pygame_simpleguics2pygame -->
<g id="edge32" class="edge"><title>SimpleGUICS2Pygame_simpleguics2pygame_image&#45;&gt;SimpleGUICS2Pygame_simpleguics2pygame</title><style>.edge>path:hover{stroke-width:8}</style>
<path fill="none" stroke="black" d="M721.72,-268.829C756.537,-243.923 811.194,-205.129 859.161,-172.409 901.827,-143.305 988.832,-148.418 956.161,-108.418"/>
<path fill="none" stroke="black" d="M956.161,-106.418C914.209,-58.0997 739.728,-36.7663 628.38,-27.9228"/>
<polygon fill="#bc2f2f" stroke="black" points="628.382,-24.4126 618.142,-27.1306 627.842,-31.3918 628.382,-24.4126"/>
</g>
<!-- SimpleGUICS2Pygame_simpleguics2pygame_canvas -->
<g id="node13" class="node"><title>SimpleGUICS2Pygame_simpleguics2pygame_canvas</title><style>.edge>path:hover{stroke-width:8}</style>
<ellipse fill="#a13535" stroke="black" cx="533.161" cy="-201.401" rx="88.2768" ry="28.9828"/>
<text text-anchor="middle" x="533.161" y="-209.901" font-family="Helvetica,sans-Serif" font-size="10.00" fill="#ffffff">SimpleGUICS2Pygame.</text>
<text text-anchor="middle" x="533.161" y="-198.901" font-family="Helvetica,sans-Serif" font-size="10.00" fill="#ffffff">simpleguics2pygame.</text>
<text text-anchor="middle" x="533.161" y="-187.901" font-family="Helvetica,sans-Serif" font-size="10.00" fill="#ffffff">canvas</text>
</g>
<!-- SimpleGUICS2Pygame_simpleguics2pygame_image&#45;&gt;SimpleGUICS2Pygame_simpleguics2pygame_canvas -->
<g id="edge33" class="edge"><title>SimpleGUICS2Pygame_simpleguics2pygame_image&#45;&gt;SimpleGUICS2Pygame_simpleguics2pygame_canvas</title><style>.edge>path:hover{stroke-width:8}</style>
<path fill="none" stroke="black" d="M644.757,-269.491C625.716,-258.044 602.97,-244.369 582.997,-232.362"/>
<polygon fill="#bc2f2f" stroke="black" points="584.707,-229.306 574.333,-227.153 581.1,-235.305 584.707,-229.306"/>
</g>
<!-- SimpleGUICS2Pygame_simpleguics2pygame__fonts -->
<g id="node4" class="node"><title>SimpleGUICS2Pygame_simpleguics2pygame__fonts</title><style>.edge>path:hover{stroke-width:8}</style>
<ellipse fill="#bc2f2f" stroke="black" cx="454.161" cy="-295.383" rx="88.2768" ry="28.9828"/>
<text text-anchor="middle" x="454.161" y="-303.883" font-family="Helvetica,sans-Serif" font-size="10.00" fill="#ffffff">SimpleGUICS2Pygame.</text>
<text text-anchor="middle" x="454.161" y="-292.883" font-family="Helvetica,sans-Serif" font-size="10.00" fill="#ffffff">simpleguics2pygame.</text>
<text text-anchor="middle" x="454.161" y="-281.883" font-family="Helvetica,sans-Serif" font-size="10.00" fill="#ffffff">_fonts</text>
</g>
<!-- SimpleGUICS2Pygame_simpleguics2pygame__fonts&#45;&gt;SimpleGUICS2Pygame_simpleguics2pygame_frame -->
<g id="edge12" class="edge"><title>SimpleGUICS2Pygame_simpleguics2pygame__fonts&#45;&gt;SimpleGUICS2Pygame_simpleguics2pygame_frame</title><style>.edge>path:hover{stroke-width:8}</style>
<path fill="none" stroke="black" d="M515.756,-274.546C580.615,-252.723 672.822,-218.602 668.161,-202.401"/>
<path fill="none" stroke="black" d="M668.161,-200.401C659.175,-169.167 631.182,-147.464 602.999,-133.018"/>
<polygon fill="#bc2f2f" stroke="black" points="604.39,-129.803 593.866,-128.58 601.331,-136.099 604.39,-129.803"/>
</g>
<!-- SimpleGUICS2Pygame_simpleguics2pygame__fonts&#45;&gt;SimpleGUICS2Pygame_simpleguics2pygame_canvas -->
<g id="edge10" class="edge"><title>SimpleGUICS2Pygame_simpleguics2pygame__fonts&#45;&gt;SimpleGUICS2Pygame_simpleguics2pygame_canvas</title><style>.edge>path:hover{stroke-width:8}</style>
<path fill="none" stroke="black" d="M477.436,-267.283C485.481,-257.916 494.612,-247.284 503.121,-237.377"/>
<polygon fill="#bc2f2f" stroke="black" points="505.919,-239.492 509.779,-229.625 500.608,-234.931 505.919,-239.492"/>
</g>
<!-- SimpleGUICS2Pygame_simpleguics2pygame_control -->
<g id="node14" class="node"><title>SimpleGUICS2Pygame_simpleguics2pygame_control</title><style>.edge>path:hover{stroke-width:8}</style>
<ellipse fill="#a83838" stroke="black" cx="301.161" cy="-201.401" rx="88.2768" ry="28.9828"/>
<text text-anchor="middle" x="301.161" y="-209.901" font-family="Helvetica,sans-Serif" font-size="10.00" fill="#ffffff">SimpleGUICS2Pygame.</text>
<text text-anchor="middle" x="301.161" y="-198.901" font-family="Helvetica,sans-Serif" font-size="10.00" fill="#ffffff">simpleguics2pygame.</text>
<text text-anchor="middle" x="301.161" y="-187.901" font-family="Helvetica,sans-Serif" font-size="10.00" fill="#ffffff">control</text>
</g>
<!-- SimpleGUICS2Pygame_simpleguics2pygame__fonts&#45;&gt;SimpleGUICS2Pygame_simpleguics2pygame_control -->
<g id="edge11" class="edge"><title>SimpleGUICS2Pygame_simpleguics2pygame__fonts&#45;&gt;SimpleGUICS2Pygame_simpleguics2pygame_control</title><style>.edge>path:hover{stroke-width:8}</style>
<path fill="none" stroke="black" d="M412.757,-269.491C393.716,-258.044 370.97,-244.369 350.997,-232.362"/>
<polygon fill="#bc2f2f" stroke="black" points="352.707,-229.306 342.333,-227.153 349.1,-235.305 352.707,-229.306"/>
</g>
<!-- SimpleGUICS2Pygame_simpleguics2pygame__colors -->
<g id="node5" class="node"><title>SimpleGUICS2Pygame_simpleguics2pygame__colors</title><style>.edge>path:hover{stroke-width:8}</style>
<ellipse fill="#c43131" stroke="black" cx="222.161" cy="-295.383" rx="88.2768" ry="28.9828"/>
<text text-anchor="middle" x="222.161" y="-303.883" font-family="Helvetica,sans-Serif" font-size="10.00" fill="#ffffff">SimpleGUICS2Pygame.</text>
<text text-anchor="middle" x="222.161" y="-292.883" font-family="Helvetica,sans-Serif" font-size="10.00" fill="#ffffff">simpleguics2pygame.</text>
<text text-anchor="middle" x="222.161" y="-281.883" font-family="Helvetica,sans-Serif" font-size="10.00" fill="#ffffff">_colors</text>
</g>
<!-- SimpleGUICS2Pygame_simpleguics2pygame__colors&#45;&gt;SimpleGUICS2Pygame_simpleguics2pygame_frame -->
<g id="edge9" class="edge"><title>SimpleGUICS2Pygame_simpleguics2pygame__colors&#45;&gt;SimpleGUICS2Pygame_simpleguics2pygame_frame</title><style>.edge>path:hover{stroke-width:8}</style>
<path fill="none" stroke="black" d="M286.831,-275.576C329.354,-262.333 380.318,-244.519 398.161,-230.392 422.317,-211.266 414.407,-194.229 436.161,-172.409 448.902,-159.63 464.581,-147.969 479.59,-138.204"/>
<polygon fill="#c43131" stroke="black" points="481.742,-140.984 488.322,-132.681 478,-135.069 481.742,-140.984"/>
</g>
<!-- SimpleGUICS2Pygame_simpleguics2pygame__colors&#45;&gt;SimpleGUICS2Pygame_simpleguics2pygame_canvas -->
<g id="edge7" class="edge"><title>SimpleGUICS2Pygame_simpleguics2pygame__colors&#45;&gt;SimpleGUICS2Pygame_simpleguics2pygame_canvas</title><style>.edge>path:hover{stroke-width:8}</style>
<path fill="none" stroke="black" d="M286.6,-275.324C336.848,-260.463 406.683,-239.808 459.207,-224.274"/>
<polygon fill="#c43131" stroke="black" points="460.208,-227.628 468.804,-221.435 458.222,-220.915 460.208,-227.628"/>
</g>
<!-- SimpleGUICS2Pygame_simpleguics2pygame__colors&#45;&gt;SimpleGUICS2Pygame_simpleguics2pygame_control -->
<g id="edge8" class="edge"><title>SimpleGUICS2Pygame_simpleguics2pygame__colors&#45;&gt;SimpleGUICS2Pygame_simpleguics2pygame_control</title><style>.edge>path:hover{stroke-width:8}</style>
<path fill="none" stroke="black" d="M245.436,-267.283C253.481,-257.916 262.612,-247.284 271.121,-237.377"/>
<polygon fill="#c43131" stroke="black" points="273.919,-239.492 277.779,-229.625 268.608,-234.931 273.919,-239.492"/>
</g>
<!-- SimpleGUICS2Pygame_simpleguics2pygame__arguments -->
<g id="node6" class="node"><title>SimpleGUICS2Pygame_simpleguics2pygame__arguments</title><style>.edge>path:hover{stroke-width:8}</style>
<ellipse fill="#f31616" stroke="black" cx="840.161" cy="-483.349" rx="88.2768" ry="28.9828"/>
<text text-anchor="middle" x="840.161" y="-491.849" font-family="Helvetica,sans-Serif" font-size="10.00" fill="#ffffff">SimpleGUICS2Pygame.</text>
<text text-anchor="middle" x="840.161" y="-480.849" font-family="Helvetica,sans-Serif" font-size="10.00" fill="#ffffff">simpleguics2pygame.</text>
<text text-anchor="middle" x="840.161" y="-469.849" font-family="Helvetica,sans-Serif" font-size="10.00" fill="#ffffff">_arguments</text>
</g>
<!-- SimpleGUICS2Pygame_simpleguics2pygame__arguments&#45;&gt;SimpleGUICS2Pygame_simpleguics2pygame_sound -->
<g id="edge5" class="edge"><title>SimpleGUICS2Pygame_simpleguics2pygame__arguments&#45;&gt;SimpleGUICS2Pygame_simpleguics2pygame_sound</title><style>.edge>path:hover{stroke-width:8}</style>
<path fill="none" stroke="black" d="M994.161,-388.366C1003.16,-372.336 1004.06,-352.124 1002.34,-334.733"/>
<polygon fill="#f31616" stroke="black" points="1005.74,-333.789 1000.97,-324.331 998.802,-334.702 1005.74,-333.789"/>
</g>
<!-- SimpleGUICS2Pygame_simpleguics2pygame__arguments&#45;&gt;SimpleGUICS2Pygame_simpleguics2pygame__fonts -->
<g id="edge2" class="edge"><title>SimpleGUICS2Pygame_simpleguics2pygame__arguments&#45;&gt;SimpleGUICS2Pygame_simpleguics2pygame__fonts</title><style>.edge>path:hover{stroke-width:8}</style>
<path fill="none" stroke="black" d="M776.34,-463.176C765.004,-460.041 753.271,-456.969 742.161,-454.357 656.793,-434.293 622.975,-464.108 548.161,-418.357 514.862,-397.995 488.971,-361.187 472.869,-333.314"/>
<polygon fill="#f31616" stroke="black" points="475.727,-331.255 467.787,-324.24 469.62,-334.675 475.727,-331.255"/>
</g>
<!-- SimpleGUICS2Pygame_simpleguics2pygame_timer -->
<g id="node7" class="node"><title>SimpleGUICS2Pygame_simpleguics2pygame_timer</title><style>.edge>path:hover{stroke-width:8}</style>
<ellipse fill="#b83d3d" stroke="black" cx="956.161" cy="-201.401" rx="88.2768" ry="28.9828"/>
<text text-anchor="middle" x="956.161" y="-209.901" font-family="Helvetica,sans-Serif" font-size="10.00" fill="#ffffff">SimpleGUICS2Pygame.</text>
<text text-anchor="middle" x="956.161" y="-198.901" font-family="Helvetica,sans-Serif" font-size="10.00" fill="#ffffff">simpleguics2pygame.</text>
<text text-anchor="middle" x="956.161" y="-187.901" font-family="Helvetica,sans-Serif" font-size="10.00" fill="#ffffff">timer</text>
</g>
<!-- SimpleGUICS2Pygame_simpleguics2pygame__arguments&#45;&gt;SimpleGUICS2Pygame_simpleguics2pygame_timer -->
<g id="edge6" class="edge"><title>SimpleGUICS2Pygame_simpleguics2pygame__arguments&#45;&gt;SimpleGUICS2Pygame_simpleguics2pygame_timer</title><style>.edge>path:hover{stroke-width:8}</style>
<path fill="none" stroke="black" d="M878.161,-294.383C869.868,-270.946 886.048,-249.462 905.783,-233.161"/>
<polygon fill="#f31616" stroke="black" points="908.029,-235.849 913.781,-226.951 903.736,-230.32 908.029,-235.849"/>
</g>
<!-- SimpleGUICS2Pygame_simpleguics2pygame__arguments&#45;&gt;SimpleGUICS2Pygame_simpleguics2pygame_frame -->
<g id="edge4" class="edge"><title>SimpleGUICS2Pygame_simpleguics2pygame__arguments&#45;&gt;SimpleGUICS2Pygame_simpleguics2pygame_frame</title><style>.edge>path:hover{stroke-width:8}</style>
<path fill="none" stroke="black" d="M902.135,-462.596C935.851,-448.303 974.575,-425.263 994.161,-390.366"/>
<path fill="none" stroke="black" d="M994.161,-388.366C1019.44,-343.327 933.921,-360.653 897.161,-324.375 886.459,-313.813 883.177,-310.558 878.161,-296.383"/>
<path fill="none" stroke="black" d="M878.161,-294.383C870.784,-273.534 855.467,-218.364 840.161,-202.401"/>
</g>
<!-- SimpleGUICS2Pygame_simpleguics2pygame__arguments&#45;&gt;SimpleGUICS2Pygame_simpleguics2pygame -->
<g id="edge1" class="edge"><title>SimpleGUICS2Pygame_simpleguics2pygame__arguments&#45;&gt;SimpleGUICS2Pygame_simpleguics2pygame</title><style>.edge>path:hover{stroke-width:8}</style>
<path fill="none" stroke="black" d="M994.161,-388.366C1019.44,-343.327 1063.24,-367.826 1091.16,-324.375 1120.82,-278.216 1122.93,-255.757 1110.16,-202.401"/>
</g>
<!-- SimpleGUICS2Pygame_simpleguics2pygame__media -->
<g id="node12" class="node"><title>SimpleGUICS2Pygame_simpleguics2pygame__media</title><style>.edge>path:hover{stroke-width:8}</style>
<ellipse fill="#bc2f2f" stroke="black" cx="840.161" cy="-389.366" rx="88.2768" ry="28.9828"/>
<text text-anchor="middle" x="840.161" y="-397.866" font-family="Helvetica,sans-Serif" font-size="10.00" fill="#ffffff">SimpleGUICS2Pygame.</text>
<text text-anchor="middle" x="840.161" y="-386.866" font-family="Helvetica,sans-Serif" font-size="10.00" fill="#ffffff">simpleguics2pygame.</text>
<text text-anchor="middle" x="840.161" y="-375.866" font-family="Helvetica,sans-Serif" font-size="10.00" fill="#ffffff">_media</text>
</g>
<!-- SimpleGUICS2Pygame_simpleguics2pygame__arguments&#45;&gt;SimpleGUICS2Pygame_simpleguics2pygame__media -->
<g id="edge3" class="edge"><title>SimpleGUICS2Pygame_simpleguics2pygame__arguments&#45;&gt;SimpleGUICS2Pygame_simpleguics2pygame__media</title><style>.edge>path:hover{stroke-width:8}</style>
<path fill="none" stroke="black" d="M840.161,-454.251C840.161,-446.213 840.161,-437.311 840.161,-428.768"/>
<polygon fill="#f31616" stroke="black" points="843.661,-428.609 840.161,-418.609 836.661,-428.609 843.661,-428.609"/>
</g>
<!-- SimpleGUICS2Pygame_simpleguics2pygame_timer&#45;&gt;SimpleGUICS2Pygame_simpleguics2pygame_frame -->
<g id="edge39" class="edge"><title>SimpleGUICS2Pygame_simpleguics2pygame_timer&#45;&gt;SimpleGUICS2Pygame_simpleguics2pygame_frame</title><style>.edge>path:hover{stroke-width:8}</style>
<path fill="none" stroke="black" d="M891.042,-181.789C878.826,-178.509 866.134,-175.242 854.161,-172.409 775.293,-153.751 684.672,-136.021 619.872,-123.976"/>
<polygon fill="#b83d3d" stroke="black" points="620.17,-120.472 609.699,-122.093 618.895,-127.355 620.17,-120.472"/>
</g>
<!-- SimpleGUICS2Pygame_simpleguics2pygame_timer&#45;&gt;SimpleGUICS2Pygame_simpleguics2pygame -->
<g id="edge38" class="edge"><title>SimpleGUICS2Pygame_simpleguics2pygame_timer&#45;&gt;SimpleGUICS2Pygame_simpleguics2pygame</title><style>.edge>path:hover{stroke-width:8}</style>
<path fill="none" stroke="black" d="M964.695,-172.373C968.937,-152.361 970.506,-125.98 956.161,-108.418"/>
</g>
<!-- SimpleGUICS2Pygame_simpleguics2pygame_keys -->
<g id="node8" class="node"><title>SimpleGUICS2Pygame_simpleguics2pygame_keys</title><style>.edge>path:hover{stroke-width:8}</style>
<ellipse fill="#b83d3d" stroke="black" cx="106.161" cy="-201.401" rx="88.2768" ry="28.9828"/>
<text text-anchor="middle" x="106.161" y="-209.901" font-family="Helvetica,sans-Serif" font-size="10.00" fill="#ffffff">SimpleGUICS2Pygame.</text>
<text text-anchor="middle" x="106.161" y="-198.901" font-family="Helvetica,sans-Serif" font-size="10.00" fill="#ffffff">simpleguics2pygame.</text>
<text text-anchor="middle" x="106.161" y="-187.901" font-family="Helvetica,sans-Serif" font-size="10.00" fill="#ffffff">keys</text>
</g>
<!-- SimpleGUICS2Pygame_simpleguics2pygame_keys&#45;&gt;SimpleGUICS2Pygame_simpleguics2pygame_frame -->
<g id="edge36" class="edge"><title>SimpleGUICS2Pygame_simpleguics2pygame_keys&#45;&gt;SimpleGUICS2Pygame_simpleguics2pygame_frame</title><style>.edge>path:hover{stroke-width:8}</style>
<path fill="none" stroke="black" d="M170.001,-181.309C181.335,-178.164 193.062,-175.068 204.161,-172.409 285.435,-152.936 379.072,-135.171 445.616,-123.327"/>
<polygon fill="#b83d3d" stroke="black" points="446.409,-126.741 455.645,-121.55 445.188,-119.849 446.409,-126.741"/>
</g>
<!-- SimpleGUICS2Pygame_simpleguics2pygame_keys&#45;&gt;SimpleGUICS2Pygame_simpleguics2pygame -->
<g id="edge35" class="edge"><title>SimpleGUICS2Pygame_simpleguics2pygame_keys&#45;&gt;SimpleGUICS2Pygame_simpleguics2pygame</title><style>.edge>path:hover{stroke-width:8}</style>
<path fill="none" stroke="black" d="M103.01,-172.279C101.716,-153.886 101.459,-129.457 106.161,-108.418"/>
</g>
<!-- SimpleGUICS2Pygame_simpleguics2pygame_frame&#45;&gt;SimpleGUICS2Pygame_simpleguics2pygame -->
<g id="edge31" class="edge"><title>SimpleGUICS2Pygame_simpleguics2pygame_frame&#45;&gt;SimpleGUICS2Pygame_simpleguics2pygame</title><style>.edge>path:hover{stroke-width:8}</style>
<path fill="none" stroke="black" d="M533.161,-78.3789C533.161,-70.171 533.161,-61.1574 533.161,-52.7997"/>
<polygon fill="#6b2e2e" stroke="black" points="536.661,-52.674 533.161,-42.674 529.661,-52.6741 536.661,-52.674"/>
</g>
<!-- SimpleGUICS2Pygame_simpleguics2pygame__pygame_init -->
<g id="node10" class="node"><title>SimpleGUICS2Pygame_simpleguics2pygame__pygame_init</title><style>.edge>path:hover{stroke-width:8}</style>
<ellipse fill="#f91010" stroke="black" cx="645.161" cy="-483.349" rx="88.2768" ry="28.9828"/>
<text text-anchor="middle" x="645.161" y="-491.849" font-family="Helvetica,sans-Serif" font-size="10.00" fill="#ffffff">SimpleGUICS2Pygame.</text>
<text text-anchor="middle" x="645.161" y="-480.849" font-family="Helvetica,sans-Serif" font-size="10.00" fill="#ffffff">simpleguics2pygame.</text>
<text text-anchor="middle" x="645.161" y="-469.849" font-family="Helvetica,sans-Serif" font-size="10.00" fill="#ffffff">_pygame_init</text>
</g>
<!-- SimpleGUICS2Pygame_simpleguics2pygame__pygame_init&#45;&gt;SimpleGUICS2Pygame_simpleguics2pygame__joypads -->
<g id="edge20" class="edge"><title>SimpleGUICS2Pygame_simpleguics2pygame__pygame_init&#45;&gt;SimpleGUICS2Pygame_simpleguics2pygame__joypads</title><style>.edge>path:hover{stroke-width:8}</style>
<path fill="none" stroke="black" d="M645.161,-454.251C645.161,-446.213 645.161,-437.311 645.161,-428.768"/>
<polygon fill="#f91010" stroke="black" points="648.661,-428.609 645.161,-418.609 641.661,-428.609 648.661,-428.609"/>
</g>
<!-- SimpleGUICS2Pygame_simpleguics2pygame__pygame_init&#45;&gt;SimpleGUICS2Pygame_simpleguics2pygame_image -->
<g id="edge25" class="edge"><title>SimpleGUICS2Pygame_simpleguics2pygame__pygame_init&#45;&gt;SimpleGUICS2Pygame_simpleguics2pygame_image</title><style>.edge>path:hover{stroke-width:8}</style>
<path fill="none" stroke="black" d="M338.161,-388.366C298.322,-282.652 475.02,-353.544 584.161,-324.375 592.604,-322.118 601.432,-319.733 610.212,-317.346"/>
<polygon fill="#f91010" stroke="black" points="611.352,-320.663 620.08,-314.656 609.511,-313.909 611.352,-320.663"/>
</g>
<!-- SimpleGUICS2Pygame_simpleguics2pygame__pygame_init&#45;&gt;SimpleGUICS2Pygame_simpleguics2pygame__fonts -->
<g id="edge19" class="edge"><title>SimpleGUICS2Pygame_simpleguics2pygame__pygame_init&#45;&gt;SimpleGUICS2Pygame_simpleguics2pygame__fonts</title><style>.edge>path:hover{stroke-width:8}</style>
<path fill="none" stroke="black" d="M338.161,-388.366C326.942,-358.596 353.692,-336.11 384.316,-320.824"/>
<polygon fill="#f91010" stroke="black" points="385.915,-323.94 393.466,-316.507 382.928,-317.609 385.915,-323.94"/>
</g>
<!-- SimpleGUICS2Pygame_simpleguics2pygame__pygame_init&#45;&gt;SimpleGUICS2Pygame_simpleguics2pygame__colors -->
<g id="edge18" class="edge"><title>SimpleGUICS2Pygame_simpleguics2pygame__pygame_init&#45;&gt;SimpleGUICS2Pygame_simpleguics2pygame__colors</title><style>.edge>path:hover{stroke-width:8}</style>
<path fill="none" stroke="black" d="M338.161,-388.366C327.869,-361.055 303.883,-339.875 280.378,-324.76"/>
<polygon fill="#f91010" stroke="black" points="282.118,-321.721 271.766,-319.466 278.452,-327.684 282.118,-321.721"/>
</g>
<!-- SimpleGUICS2Pygame_simpleguics2pygame__pygame_init&#45;&gt;SimpleGUICS2Pygame_simpleguics2pygame_keys -->
<g id="edge26" class="edge"><title>SimpleGUICS2Pygame_simpleguics2pygame__pygame_init&#45;&gt;SimpleGUICS2Pygame_simpleguics2pygame_keys</title><style>.edge>path:hover{stroke-width:8}</style>
<path fill="none" stroke="black" d="M106.161,-294.383C98.1187,-278.001 97.2567,-257.915 98.767,-240.696"/>
<polygon fill="#f91010" stroke="black" points="102.285,-240.743 99.971,-230.404 95.3327,-239.93 102.285,-240.743"/>
</g>
<!-- SimpleGUICS2Pygame_simpleguics2pygame__pygame_init&#45;&gt;SimpleGUICS2Pygame_simpleguics2pygame_frame -->
<g id="edge24" class="edge"><title>SimpleGUICS2Pygame_simpleguics2pygame__pygame_init&#45;&gt;SimpleGUICS2Pygame_simpleguics2pygame_frame</title><style>.edge>path:hover{stroke-width:8}</style>
<path fill="none" stroke="black" d="M338.161,-388.366C303.599,-295.759 471.951,-383.505 551.161,-324.375 575.852,-305.943 568.498,-289.247 589.161,-266.392 619.463,-232.874 680.025,-246 668.161,-202.401"/>
</g>
<!-- SimpleGUICS2Pygame_simpleguics2pygame__pygame_init&#45;&gt;SimpleGUICS2Pygame_simpleguics2pygame -->
<g id="edge17" class="edge"><title>SimpleGUICS2Pygame_simpleguics2pygame__pygame_init&#45;&gt;SimpleGUICS2Pygame_simpleguics2pygame</title><style>.edge>path:hover{stroke-width:8}</style>
<path fill="none" stroke="black" d="M563.223,-472.163C477.852,-459.308 354.26,-433.502 338.161,-390.366"/>
<path fill="none" stroke="black" d="M338.161,-388.366C303.599,-295.759 204.848,-382.861 125.161,-324.375 113.04,-315.478 112.787,-309.88 106.161,-296.383"/>
<path fill="none" stroke="black" d="M106.161,-294.383C83.4011,-248.021 33.6412,-275.869 9.16104,-230.392 -3.05368,-207.701 -3.05368,-195.101 9.16104,-172.409 33.6412,-126.932 94.896,-158.822 106.161,-108.418"/>
<path fill="none" stroke="black" d="M106.161,-106.418C120.08,-42.0367 313.095,-26.2925 434.803,-22.7988"/>
<polygon fill="#f91010" stroke="black" points="434.989,-26.2952 444.893,-22.5324 434.804,-19.2976 434.989,-26.2952"/>
</g>
<!-- SimpleGUICS2Pygame_simpleguics2pygame__pygame_init&#45;&gt;SimpleGUICS2Pygame_simpleguics2pygame__media -->
<g id="edge21" class="edge"><title>SimpleGUICS2Pygame_simpleguics2pygame__pygame_init&#45;&gt;SimpleGUICS2Pygame_simpleguics2pygame__media</title><style>.edge>path:hover{stroke-width:8}</style>
<path fill="none" stroke="black" d="M694.368,-459.138C720.926,-446.61 753.88,-431.065 781.736,-417.926"/>
<polygon fill="#f91010" stroke="black" points="783.419,-421.002 790.97,-413.57 780.433,-414.671 783.419,-421.002"/>
</g>
<!-- SimpleGUICS2Pygame_simpleguics2pygame__pygame_init&#45;&gt;SimpleGUICS2Pygame_simpleguics2pygame_canvas -->
<g id="edge22" class="edge"><title>SimpleGUICS2Pygame_simpleguics2pygame__pygame_init&#45;&gt;SimpleGUICS2Pygame_simpleguics2pygame_canvas</title><style>.edge>path:hover{stroke-width:8}</style>
<path fill="none" stroke="black" d="M338.161,-388.366C318.813,-337.026 322.31,-308.765 357.161,-266.392 364.319,-257.689 415.342,-239.644 460.62,-224.929"/>
<polygon fill="#f91010" stroke="black" points="461.736,-228.247 470.177,-221.844 459.585,-221.585 461.736,-228.247"/>
</g>
<!-- SimpleGUICS2Pygame_simpleguics2pygame__pygame_init&#45;&gt;SimpleGUICS2Pygame_simpleguics2pygame_control -->
<g id="edge23" class="edge"><title>SimpleGUICS2Pygame_simpleguics2pygame__pygame_init&#45;&gt;SimpleGUICS2Pygame_simpleguics2pygame_control</title><style>.edge>path:hover{stroke-width:8}</style>
<path fill="none" stroke="black" d="M106.161,-294.383C99.535,-280.886 113.298,-275.63 125.161,-266.392 141.785,-253.447 186.69,-237.207 226.977,-224.327"/>
<polygon fill="#f91010" stroke="black" points="228.081,-227.649 236.561,-221.297 225.971,-220.974 228.081,-227.649"/>
</g>
<!-- SimpleGUICS2Pygame_simpleguics2pygame__media&#45;&gt;SimpleGUICS2Pygame_simpleguics2pygame_sound -->
<g id="edge16" class="edge"><title>SimpleGUICS2Pygame_simpleguics2pygame__media&#45;&gt;SimpleGUICS2Pygame_simpleguics2pygame_sound</title><style>.edge>path:hover{stroke-width:8}</style>
<path fill="none" stroke="black" d="M881.43,-363.716C900.678,-352.22 923.752,-338.438 943.997,-326.346"/>
<polygon fill="#bc2f2f" stroke="black" points="945.988,-329.234 952.778,-321.101 942.398,-323.224 945.988,-329.234"/>
</g>
<!-- SimpleGUICS2Pygame_simpleguics2pygame__media&#45;&gt;SimpleGUICS2Pygame_simpleguics2pygame_image -->
<g id="edge15" class="edge"><title>SimpleGUICS2Pygame_simpleguics2pygame__media&#45;&gt;SimpleGUICS2Pygame_simpleguics2pygame_image</title><style>.edge>path:hover{stroke-width:8}</style>
<path fill="none" stroke="black" d="M798.892,-363.716C779.645,-352.22 756.57,-338.438 736.325,-326.346"/>
<polygon fill="#bc2f2f" stroke="black" points="737.924,-323.224 727.544,-321.101 734.335,-329.234 737.924,-323.224"/>
</g>
<!-- SimpleGUICS2Pygame_simpleguics2pygame__media&#45;&gt;SimpleGUICS2Pygame_simpleguics2pygame_frame -->
<g id="edge14" class="edge"><title>SimpleGUICS2Pygame_simpleguics2pygame__media&#45;&gt;SimpleGUICS2Pygame_simpleguics2pygame_frame</title><style>.edge>path:hover{stroke-width:8}</style>
<path fill="none" stroke="black" d="M844.528,-360.363C851.042,-314.159 860.494,-224.822 840.161,-202.401"/>
<path fill="none" stroke="black" d="M840.161,-200.401C785.953,-143.863 698.53,-121.691 630.814,-113.185"/>
<polygon fill="#bc2f2f" stroke="black" points="630.888,-109.67 620.548,-111.981 630.072,-116.623 630.888,-109.67"/>
</g>
<!-- SimpleGUICS2Pygame_simpleguics2pygame_canvas&#45;&gt;SimpleGUICS2Pygame_simpleguics2pygame_frame -->
<g id="edge28" class="edge"><title>SimpleGUICS2Pygame_simpleguics2pygame_canvas&#45;&gt;SimpleGUICS2Pygame_simpleguics2pygame_frame</title><style>.edge>path:hover{stroke-width:8}</style>
<path fill="none" stroke="black" d="M533.161,-172.303C533.161,-164.265 533.161,-155.363 533.161,-146.82"/>
<polygon fill="#a13535" stroke="black" points="536.661,-146.66 533.161,-136.66 529.661,-146.66 536.661,-146.66"/>
</g>
<!-- SimpleGUICS2Pygame_simpleguics2pygame_canvas&#45;&gt;SimpleGUICS2Pygame_simpleguics2pygame -->
<g id="edge27" class="edge"><title>SimpleGUICS2Pygame_simpleguics2pygame_canvas&#45;&gt;SimpleGUICS2Pygame_simpleguics2pygame</title><style>.edge>path:hover{stroke-width:8}</style>
<path fill="none" stroke="black" d="M459.656,-185.043C337.415,-159.438 105.674,-110.598 106.161,-108.418"/>
</g>
<!-- SimpleGUICS2Pygame_simpleguics2pygame_control&#45;&gt;SimpleGUICS2Pygame_simpleguics2pygame_frame -->
<g id="edge30" class="edge"><title>SimpleGUICS2Pygame_simpleguics2pygame_control&#45;&gt;SimpleGUICS2Pygame_simpleguics2pygame_frame</title><style>.edge>path:hover{stroke-width:8}</style>
<path fill="none" stroke="black" d="M356.142,-178.602C389.824,-165.248 433.101,-148.089 468.433,-134.081"/>
<polygon fill="#a83838" stroke="black" points="470.167,-137.158 478.173,-130.219 467.587,-130.651 470.167,-137.158"/>
</g>
<!-- SimpleGUICS2Pygame_simpleguics2pygame_control&#45;&gt;SimpleGUICS2Pygame_simpleguics2pygame -->
<g id="edge29" class="edge"><title>SimpleGUICS2Pygame_simpleguics2pygame_control&#45;&gt;SimpleGUICS2Pygame_simpleguics2pygame</title><style>.edge>path:hover{stroke-width:8}</style>
<path fill="none" stroke="black" d="M243.215,-179.407C184.526,-157.24 102.798,-123.464 106.161,-108.418"/>
</g>
</g>
</svg>
