<?xml version="1.0" encoding="UTF-8" standalone="no"?>
<!DOCTYPE svg PUBLIC "-//W3C//DTD SVG 1.1//EN"
 "http://www.w3.org/Graphics/SVG/1.1/DTD/svg11.dtd">
<!-- Generated by graphviz version 2.38.0 (20140413.2041)
 -->
<!-- Title: G Pages: 1 -->
<svg width="1227pt" height="520pt"
 viewBox="0.00 0.00 1226.53 520.34" xmlns="http://www.w3.org/2000/svg" xmlns:xlink="http://www.w3.org/1999/xlink">
<g id="graph0" class="graph" transform="scale(1 1) rotate(0) translate(4 516.34)">
<title>G</title><style>.edge>path:hover{stroke-width:8}</style>
<polygon fill="white" stroke="none" points="-4,4 -4,-516.34 1222.53,-516.34 1222.53,4 -4,4"/>
<!-- SimpleGUICS2Pygame_simpleguics2pygame__joypads -->
<g id="node1" class="node"><title>SimpleGUICS2Pygame_simpleguics2pygame__joypads</title><style>.edge>path:hover{stroke-width:8}</style>
<ellipse fill="#ac4949" stroke="black" cx="937.951" cy="-389.366" rx="88.2768" ry="28.9828"/>
<text text-anchor="middle" x="937.951" y="-397.866" font-family="Helvetica,sans-Serif" font-size="10.00" fill="#ffffff">SimpleGUICS2Pygame.</text>
<text text-anchor="middle" x="937.951" y="-386.866" font-family="Helvetica,sans-Serif" font-size="10.00" fill="#ffffff">simpleguics2pygame.</text>
<text text-anchor="middle" x="937.951" y="-375.866" font-family="Helvetica,sans-Serif" font-size="10.00" fill="#ffffff">_joypads</text>
</g>
<!-- SimpleGUICS2Pygame_simpleguics2pygame_frame -->
<g id="node12" class="node"><title>SimpleGUICS2Pygame_simpleguics2pygame_frame</title><style>.edge>path:hover{stroke-width:8}</style>
<ellipse fill="#6b2e2e" stroke="black" cx="744.951" cy="-107.418" rx="88.2768" ry="28.9828"/>
<text text-anchor="middle" x="744.951" y="-115.918" font-family="Helvetica,sans-Serif" font-size="10.00" fill="#ffffff">SimpleGUICS2Pygame.</text>
<text text-anchor="middle" x="744.951" y="-104.918" font-family="Helvetica,sans-Serif" font-size="10.00" fill="#ffffff">simpleguics2pygame.</text>
<text text-anchor="middle" x="744.951" y="-93.9178" font-family="Helvetica,sans-Serif" font-size="10.00" fill="#ffffff">frame</text>
</g>
<!-- SimpleGUICS2Pygame_simpleguics2pygame__joypads&#45;&gt;SimpleGUICS2Pygame_simpleguics2pygame_frame -->
<g id="edge13" class="edge"><title>SimpleGUICS2Pygame_simpleguics2pygame__joypads&#45;&gt;SimpleGUICS2Pygame_simpleguics2pygame_frame</title><style>.edge>path:hover{stroke-width:8}</style>
<path fill="none" stroke="black" d="M959.749,-361.016C967.028,-350.239 974.23,-337.346 977.951,-324.375 996.733,-258.892 1004.1,-222.517 957.951,-172.409 928.043,-139.937 882.363,-123.706 840.966,-115.686"/>
<polygon fill="#ac4949" stroke="black" points="841.564,-112.237 831.102,-113.911 840.324,-119.127 841.564,-112.237"/>
</g>
<!-- SimpleGUICS2Pygame_simpleguics2pygame_image -->
<g id="node2" class="node"><title>SimpleGUICS2Pygame_simpleguics2pygame_image</title><style>.edge>path:hover{stroke-width:8}</style>
<ellipse fill="#bc2f2f" stroke="black" cx="396.951" cy="-295.383" rx="88.2768" ry="28.9828"/>
<text text-anchor="middle" x="396.951" y="-303.883" font-family="Helvetica,sans-Serif" font-size="10.00" fill="#ffffff">SimpleGUICS2Pygame.</text>
<text text-anchor="middle" x="396.951" y="-292.883" font-family="Helvetica,sans-Serif" font-size="10.00" fill="#ffffff">simpleguics2pygame.</text>
<text text-anchor="middle" x="396.951" y="-281.883" font-family="Helvetica,sans-Serif" font-size="10.00" fill="#ffffff">image</text>
</g>
<!-- SimpleGUICS2Pygame_simpleguics2pygame_canvas -->
<g id="node6" class="node"><title>SimpleGUICS2Pygame_simpleguics2pygame_canvas</title><style>.edge>path:hover{stroke-width:8}</style>
<ellipse fill="#a13535" stroke="black" cx="512.951" cy="-201.401" rx="88.2768" ry="28.9828"/>
<text text-anchor="middle" x="512.951" y="-209.901" font-family="Helvetica,sans-Serif" font-size="10.00" fill="#ffffff">SimpleGUICS2Pygame.</text>
<text text-anchor="middle" x="512.951" y="-198.901" font-family="Helvetica,sans-Serif" font-size="10.00" fill="#ffffff">simpleguics2pygame.</text>
<text text-anchor="middle" x="512.951" y="-187.901" font-family="Helvetica,sans-Serif" font-size="10.00" fill="#ffffff">canvas</text>
</g>
<!-- SimpleGUICS2Pygame_simpleguics2pygame_image&#45;&gt;SimpleGUICS2Pygame_simpleguics2pygame_canvas -->
<g id="edge33" class="edge"><title>SimpleGUICS2Pygame_simpleguics2pygame_image&#45;&gt;SimpleGUICS2Pygame_simpleguics2pygame_canvas</title><style>.edge>path:hover{stroke-width:8}</style>
<path fill="none" stroke="black" d="M429.881,-268.271C442.984,-257.881 458.199,-245.816 472.001,-234.872"/>
<polygon fill="#bc2f2f" stroke="black" points="474.277,-237.534 479.938,-228.578 469.928,-232.049 474.277,-237.534"/>
</g>
<!-- SimpleGUICS2Pygame_simpleguics2pygame -->
<g id="node10" class="node"><title>SimpleGUICS2Pygame_simpleguics2pygame</title><style>.edge>path:hover{stroke-width:8}</style>
<ellipse fill="#9f0404" stroke="black" cx="744.951" cy="-21.2132" rx="88.2768" ry="21.4286"/>
<text text-anchor="middle" x="744.951" y="-24.2132" font-family="Helvetica,sans-Serif" font-size="10.00" fill="#ffffff">SimpleGUICS2Pygame.</text>
<text text-anchor="middle" x="744.951" y="-13.2132" font-family="Helvetica,sans-Serif" font-size="10.00" fill="#ffffff">simpleguics2pygame</text>
</g>
<!-- SimpleGUICS2Pygame_simpleguics2pygame_image&#45;&gt;SimpleGUICS2Pygame_simpleguics2pygame -->
<g id="edge32" class="edge"><title>SimpleGUICS2Pygame_simpleguics2pygame_image&#45;&gt;SimpleGUICS2Pygame_simpleguics2pygame</title><style>.edge>path:hover{stroke-width:8}</style>
<path fill="none" stroke="black" d="M331.388,-275.74C307.773,-265.89 283.016,-251.358 266.951,-230.392 233.346,-186.536 203.215,-146.805 242.951,-108.418"/>
</g>
<!-- SimpleGUICS2Pygame_simpleguics2pygame_image&#45;&gt;SimpleGUICS2Pygame_simpleguics2pygame_frame -->
<g id="edge34" class="edge"><title>SimpleGUICS2Pygame_simpleguics2pygame_image&#45;&gt;SimpleGUICS2Pygame_simpleguics2pygame_frame</title><style>.edge>path:hover{stroke-width:8}</style>
<path fill="none" stroke="black" d="M336.279,-274.072C299.108,-258.053 261.992,-233.286 280.951,-202.401"/>
</g>
<!-- SimpleGUICS2Pygame_simpleguics2pygame_sound -->
<g id="node3" class="node"><title>SimpleGUICS2Pygame_simpleguics2pygame_sound</title><style>.edge>path:hover{stroke-width:8}</style>
<ellipse fill="#a44646" stroke="black" cx="126.951" cy="-295.383" rx="88.2768" ry="28.9828"/>
<text text-anchor="middle" x="126.951" y="-303.883" font-family="Helvetica,sans-Serif" font-size="10.00" fill="#ffffff">SimpleGUICS2Pygame.</text>
<text text-anchor="middle" x="126.951" y="-292.883" font-family="Helvetica,sans-Serif" font-size="10.00" fill="#ffffff">simpleguics2pygame.</text>
<text text-anchor="middle" x="126.951" y="-281.883" font-family="Helvetica,sans-Serif" font-size="10.00" fill="#ffffff">sound</text>
</g>
<!-- SimpleGUICS2Pygame_simpleguics2pygame_sound&#45;&gt;SimpleGUICS2Pygame_simpleguics2pygame -->
<g id="edge37" class="edge"><title>SimpleGUICS2Pygame_simpleguics2pygame_sound&#45;&gt;SimpleGUICS2Pygame_simpleguics2pygame</title><style>.edge>path:hover{stroke-width:8}</style>
<path fill="none" stroke="black" d="M66.0943,-274.092C32.7581,-258.975 0.191674,-235.253 10.9507,-202.401"/>
</g>
<!-- SimpleGUICS2Pygame_simpleguics2pygame__arguments -->
<g id="node4" class="node"><title>SimpleGUICS2Pygame_simpleguics2pygame__arguments</title><style>.edge>path:hover{stroke-width:8}</style>
<ellipse fill="#f31616" stroke="black" cx="348.951" cy="-483.349" rx="88.2768" ry="28.9828"/>
<text text-anchor="middle" x="348.951" y="-491.849" font-family="Helvetica,sans-Serif" font-size="10.00" fill="#ffffff">SimpleGUICS2Pygame.</text>
<text text-anchor="middle" x="348.951" y="-480.849" font-family="Helvetica,sans-Serif" font-size="10.00" fill="#ffffff">simpleguics2pygame.</text>
<text text-anchor="middle" x="348.951" y="-469.849" font-family="Helvetica,sans-Serif" font-size="10.00" fill="#ffffff">_arguments</text>
</g>
<!-- SimpleGUICS2Pygame_simpleguics2pygame__arguments&#45;&gt;SimpleGUICS2Pygame_simpleguics2pygame_sound -->
<g id="edge5" class="edge"><title>SimpleGUICS2Pygame_simpleguics2pygame__arguments&#45;&gt;SimpleGUICS2Pygame_simpleguics2pygame_sound</title><style>.edge>path:hover{stroke-width:8}</style>
<path fill="none" stroke="black" d="M184.951,-388.366C168.663,-372.6 154.895,-351.389 144.866,-333.308"/>
<polygon fill="#f31616" stroke="black" points="147.782,-331.34 139.969,-324.184 141.614,-334.65 147.782,-331.34"/>
</g>
<!-- SimpleGUICS2Pygame_simpleguics2pygame_timer -->
<g id="node9" class="node"><title>SimpleGUICS2Pygame_simpleguics2pygame_timer</title><style>.edge>path:hover{stroke-width:8}</style>
<ellipse fill="#b83d3d" stroke="black" cx="126.951" cy="-201.401" rx="88.2768" ry="28.9828"/>
<text text-anchor="middle" x="126.951" y="-209.901" font-family="Helvetica,sans-Serif" font-size="10.00" fill="#ffffff">SimpleGUICS2Pygame.</text>
<text text-anchor="middle" x="126.951" y="-198.901" font-family="Helvetica,sans-Serif" font-size="10.00" fill="#ffffff">simpleguics2pygame.</text>
<text text-anchor="middle" x="126.951" y="-187.901" font-family="Helvetica,sans-Serif" font-size="10.00" fill="#ffffff">timer</text>
</g>
<!-- SimpleGUICS2Pygame_simpleguics2pygame__arguments&#45;&gt;SimpleGUICS2Pygame_simpleguics2pygame_timer -->
<g id="edge6" class="edge"><title>SimpleGUICS2Pygame_simpleguics2pygame__arguments&#45;&gt;SimpleGUICS2Pygame_simpleguics2pygame_timer</title><style>.edge>path:hover{stroke-width:8}</style>
<path fill="none" stroke="black" d="M184.951,-388.366C150.225,-354.752 239.099,-344.559 242.951,-296.383"/>
<path fill="none" stroke="black" d="M242.951,-294.383C245.334,-264.575 221.591,-242.862 194.977,-228.043"/>
<polygon fill="#f31616" stroke="black" points="196.358,-224.815 185.875,-223.28 193.112,-231.017 196.358,-224.815"/>
</g>
<!-- SimpleGUICS2Pygame_simpleguics2pygame__arguments&#45;&gt;SimpleGUICS2Pygame_simpleguics2pygame -->
<g id="edge1" class="edge"><title>SimpleGUICS2Pygame_simpleguics2pygame__arguments&#45;&gt;SimpleGUICS2Pygame_simpleguics2pygame</title><style>.edge>path:hover{stroke-width:8}</style>
<path fill="none" stroke="black" d="M294.511,-460.494C260.167,-444.744 216.499,-420.904 184.951,-390.366"/>
<path fill="none" stroke="black" d="M184.951,-388.366C131.4,-336.531 76.0505,-382.935 29.9507,-324.375 -3.98572,-281.265 -6.1249,-254.54 10.9507,-202.401"/>
<path fill="none" stroke="black" d="M10.9507,-200.401C43.4707,-97.8113 223.643,-127.359 242.951,-108.418"/>
<path fill="none" stroke="black" d="M242.951,-106.418C298.881,-51.5492 518.183,-32.2916 647.697,-25.6372"/>
<polygon fill="#f31616" stroke="black" points="648.203,-29.1164 658.017,-25.1238 647.855,-22.1251 648.203,-29.1164"/>
</g>
<!-- SimpleGUICS2Pygame_simpleguics2pygame__arguments&#45;&gt;SimpleGUICS2Pygame_simpleguics2pygame_frame -->
<g id="edge4" class="edge"><title>SimpleGUICS2Pygame_simpleguics2pygame__arguments&#45;&gt;SimpleGUICS2Pygame_simpleguics2pygame_frame</title><style>.edge>path:hover{stroke-width:8}</style>
<path fill="none" stroke="black" d="M242.951,-294.383C246.476,-250.292 258.121,-240.286 280.951,-202.401"/>
<path fill="none" stroke="black" d="M280.951,-200.401C318.107,-138.741 521.995,-118.395 646.815,-111.695"/>
<polygon fill="#f31616" stroke="black" points="647.343,-115.172 657.149,-111.161 646.982,-108.181 647.343,-115.172"/>
</g>
<!-- SimpleGUICS2Pygame_simpleguics2pygame__media -->
<g id="node13" class="node"><title>SimpleGUICS2Pygame_simpleguics2pygame__media</title><style>.edge>path:hover{stroke-width:8}</style>
<ellipse fill="#bc2f2f" stroke="black" cx="348.951" cy="-389.366" rx="88.2768" ry="28.9828"/>
<text text-anchor="middle" x="348.951" y="-397.866" font-family="Helvetica,sans-Serif" font-size="10.00" fill="#ffffff">SimpleGUICS2Pygame.</text>
<text text-anchor="middle" x="348.951" y="-386.866" font-family="Helvetica,sans-Serif" font-size="10.00" fill="#ffffff">simpleguics2pygame.</text>
<text text-anchor="middle" x="348.951" y="-375.866" font-family="Helvetica,sans-Serif" font-size="10.00" fill="#ffffff">_media</text>
</g>
<!-- SimpleGUICS2Pygame_simpleguics2pygame__arguments&#45;&gt;SimpleGUICS2Pygame_simpleguics2pygame__media -->
<g id="edge3" class="edge"><title>SimpleGUICS2Pygame_simpleguics2pygame__arguments&#45;&gt;SimpleGUICS2Pygame_simpleguics2pygame__media</title><style>.edge>path:hover{stroke-width:8}</style>
<path fill="none" stroke="black" d="M348.951,-454.251C348.951,-446.213 348.951,-437.311 348.951,-428.768"/>
<polygon fill="#f31616" stroke="black" points="352.451,-428.609 348.951,-418.609 345.451,-428.609 352.451,-428.609"/>
</g>
<!-- SimpleGUICS2Pygame_simpleguics2pygame__fonts -->
<g id="node14" class="node"><title>SimpleGUICS2Pygame_simpleguics2pygame__fonts</title><style>.edge>path:hover{stroke-width:8}</style>
<ellipse fill="#bc2f2f" stroke="black" cx="628.951" cy="-295.383" rx="88.2768" ry="28.9828"/>
<text text-anchor="middle" x="628.951" y="-303.883" font-family="Helvetica,sans-Serif" font-size="10.00" fill="#ffffff">SimpleGUICS2Pygame.</text>
<text text-anchor="middle" x="628.951" y="-292.883" font-family="Helvetica,sans-Serif" font-size="10.00" fill="#ffffff">simpleguics2pygame.</text>
<text text-anchor="middle" x="628.951" y="-281.883" font-family="Helvetica,sans-Serif" font-size="10.00" fill="#ffffff">_fonts</text>
</g>
<!-- SimpleGUICS2Pygame_simpleguics2pygame__arguments&#45;&gt;SimpleGUICS2Pygame_simpleguics2pygame__fonts -->
<g id="edge2" class="edge"><title>SimpleGUICS2Pygame_simpleguics2pygame__arguments&#45;&gt;SimpleGUICS2Pygame_simpleguics2pygame__fonts</title><style>.edge>path:hover{stroke-width:8}</style>
<path fill="none" stroke="black" d="M387.217,-457.164C405.077,-445.395 426.615,-431.179 445.951,-418.357 492.496,-387.493 545.596,-352.077 582.565,-327.388"/>
<polygon fill="#f31616" stroke="black" points="584.762,-330.13 591.133,-321.665 580.874,-324.309 584.762,-330.13"/>
</g>
<!-- SimpleGUICS2Pygame_simpleguics2pygame__colors -->
<g id="node5" class="node"><title>SimpleGUICS2Pygame_simpleguics2pygame__colors</title><style>.edge>path:hover{stroke-width:8}</style>
<ellipse fill="#c43131" stroke="black" cx="860.951" cy="-295.383" rx="88.2768" ry="28.9828"/>
<text text-anchor="middle" x="860.951" y="-303.883" font-family="Helvetica,sans-Serif" font-size="10.00" fill="#ffffff">SimpleGUICS2Pygame.</text>
<text text-anchor="middle" x="860.951" y="-292.883" font-family="Helvetica,sans-Serif" font-size="10.00" fill="#ffffff">simpleguics2pygame.</text>
<text text-anchor="middle" x="860.951" y="-281.883" font-family="Helvetica,sans-Serif" font-size="10.00" fill="#ffffff">_colors</text>
</g>
<!-- SimpleGUICS2Pygame_simpleguics2pygame__colors&#45;&gt;SimpleGUICS2Pygame_simpleguics2pygame_canvas -->
<g id="edge7" class="edge"><title>SimpleGUICS2Pygame_simpleguics2pygame__colors&#45;&gt;SimpleGUICS2Pygame_simpleguics2pygame_canvas</title><style>.edge>path:hover{stroke-width:8}</style>
<path fill="none" stroke="black" d="M793.44,-276.539C735.211,-261.148 651.128,-238.923 590.221,-222.825"/>
<polygon fill="#c43131" stroke="black" points="590.836,-219.367 580.273,-220.195 589.047,-226.134 590.836,-219.367"/>
</g>
<!-- SimpleGUICS2Pygame_simpleguics2pygame_control -->
<g id="node11" class="node"><title>SimpleGUICS2Pygame_simpleguics2pygame_control</title><style>.edge>path:hover{stroke-width:8}</style>
<ellipse fill="#a83838" stroke="black" cx="860.951" cy="-201.401" rx="88.2768" ry="28.9828"/>
<text text-anchor="middle" x="860.951" y="-209.901" font-family="Helvetica,sans-Serif" font-size="10.00" fill="#ffffff">SimpleGUICS2Pygame.</text>
<text text-anchor="middle" x="860.951" y="-198.901" font-family="Helvetica,sans-Serif" font-size="10.00" fill="#ffffff">simpleguics2pygame.</text>
<text text-anchor="middle" x="860.951" y="-187.901" font-family="Helvetica,sans-Serif" font-size="10.00" fill="#ffffff">control</text>
</g>
<!-- SimpleGUICS2Pygame_simpleguics2pygame__colors&#45;&gt;SimpleGUICS2Pygame_simpleguics2pygame_control -->
<g id="edge8" class="edge"><title>SimpleGUICS2Pygame_simpleguics2pygame__colors&#45;&gt;SimpleGUICS2Pygame_simpleguics2pygame_control</title><style>.edge>path:hover{stroke-width:8}</style>
<path fill="none" stroke="black" d="M860.951,-266.286C860.951,-258.248 860.951,-249.346 860.951,-240.803"/>
<polygon fill="#c43131" stroke="black" points="864.451,-240.643 860.951,-230.643 857.451,-240.643 864.451,-240.643"/>
</g>
<!-- SimpleGUICS2Pygame_simpleguics2pygame__colors&#45;&gt;SimpleGUICS2Pygame_simpleguics2pygame_frame -->
<g id="edge9" class="edge"><title>SimpleGUICS2Pygame_simpleguics2pygame__colors&#45;&gt;SimpleGUICS2Pygame_simpleguics2pygame_frame</title><style>.edge>path:hover{stroke-width:8}</style>
<path fill="none" stroke="black" d="M803.291,-273.239C774.178,-258.474 744.951,-235.428 744.951,-202.401"/>
</g>
<!-- SimpleGUICS2Pygame_simpleguics2pygame_canvas&#45;&gt;SimpleGUICS2Pygame_simpleguics2pygame -->
<g id="edge27" class="edge"><title>SimpleGUICS2Pygame_simpleguics2pygame_canvas&#45;&gt;SimpleGUICS2Pygame_simpleguics2pygame</title><style>.edge>path:hover{stroke-width:8}</style>
<path fill="none" stroke="black" d="M425.469,-196.337C325.048,-188.838 181.603,-167.683 242.951,-108.418"/>
</g>
<!-- SimpleGUICS2Pygame_simpleguics2pygame_canvas&#45;&gt;SimpleGUICS2Pygame_simpleguics2pygame_frame -->
<g id="edge28" class="edge"><title>SimpleGUICS2Pygame_simpleguics2pygame_canvas&#45;&gt;SimpleGUICS2Pygame_simpleguics2pygame_frame</title><style>.edge>path:hover{stroke-width:8}</style>
<path fill="none" stroke="black" d="M567.931,-178.602C601.613,-165.248 644.891,-148.089 680.223,-134.081"/>
<polygon fill="#a13535" stroke="black" points="681.957,-137.158 689.963,-130.219 679.377,-130.651 681.957,-137.158"/>
</g>
<!-- SimpleGUICS2Pygame_simpleguics2pygame_keys -->
<g id="node7" class="node"><title>SimpleGUICS2Pygame_simpleguics2pygame_keys</title><style>.edge>path:hover{stroke-width:8}</style>
<ellipse fill="#b83d3d" stroke="black" cx="1092.95" cy="-201.401" rx="88.2768" ry="28.9828"/>
<text text-anchor="middle" x="1092.95" y="-209.901" font-family="Helvetica,sans-Serif" font-size="10.00" fill="#ffffff">SimpleGUICS2Pygame.</text>
<text text-anchor="middle" x="1092.95" y="-198.901" font-family="Helvetica,sans-Serif" font-size="10.00" fill="#ffffff">simpleguics2pygame.</text>
<text text-anchor="middle" x="1092.95" y="-187.901" font-family="Helvetica,sans-Serif" font-size="10.00" fill="#ffffff">keys</text>
</g>
<!-- SimpleGUICS2Pygame_simpleguics2pygame_keys&#45;&gt;SimpleGUICS2Pygame_simpleguics2pygame -->
<g id="edge35" class="edge"><title>SimpleGUICS2Pygame_simpleguics2pygame_keys&#45;&gt;SimpleGUICS2Pygame_simpleguics2pygame</title><style>.edge>path:hover{stroke-width:8}</style>
<path fill="none" stroke="black" d="M1152.89,-179.884C1184.27,-165.024 1215.04,-141.663 1208.95,-108.418"/>
</g>
<!-- SimpleGUICS2Pygame_simpleguics2pygame_keys&#45;&gt;SimpleGUICS2Pygame_simpleguics2pygame_frame -->
<g id="edge36" class="edge"><title>SimpleGUICS2Pygame_simpleguics2pygame_keys&#45;&gt;SimpleGUICS2Pygame_simpleguics2pygame_frame</title><style>.edge>path:hover{stroke-width:8}</style>
<path fill="none" stroke="black" d="M1026.87,-182.128C1014.92,-178.864 1002.57,-175.515 990.951,-172.409 934.812,-157.405 871.34,-140.906 822.931,-128.419"/>
<polygon fill="#b83d3d" stroke="black" points="823.705,-125.004 813.148,-125.897 821.958,-131.783 823.705,-125.004"/>
</g>
<!-- SimpleGUICS2Pygame_simpleguics2pygame__pygame_init -->
<g id="node8" class="node"><title>SimpleGUICS2Pygame_simpleguics2pygame__pygame_init</title><style>.edge>path:hover{stroke-width:8}</style>
<ellipse fill="#f91010" stroke="black" cx="744.951" cy="-483.349" rx="88.2768" ry="28.9828"/>
<text text-anchor="middle" x="744.951" y="-491.849" font-family="Helvetica,sans-Serif" font-size="10.00" fill="#ffffff">SimpleGUICS2Pygame.</text>
<text text-anchor="middle" x="744.951" y="-480.849" font-family="Helvetica,sans-Serif" font-size="10.00" fill="#ffffff">simpleguics2pygame.</text>
<text text-anchor="middle" x="744.951" y="-469.849" font-family="Helvetica,sans-Serif" font-size="10.00" fill="#ffffff">_pygame_init</text>
</g>
<!-- SimpleGUICS2Pygame_simpleguics2pygame__pygame_init&#45;&gt;SimpleGUICS2Pygame_simpleguics2pygame__joypads -->
<g id="edge20" class="edge"><title>SimpleGUICS2Pygame_simpleguics2pygame__pygame_init&#45;&gt;SimpleGUICS2Pygame_simpleguics2pygame__joypads</title><style>.edge>path:hover{stroke-width:8}</style>
<path fill="none" stroke="black" d="M793.653,-459.138C819.939,-446.61 852.555,-431.065 880.124,-417.926"/>
<polygon fill="#f91010" stroke="black" points="881.743,-421.032 889.264,-413.57 878.731,-414.713 881.743,-421.032"/>
</g>
<!-- SimpleGUICS2Pygame_simpleguics2pygame__pygame_init&#45;&gt;SimpleGUICS2Pygame_simpleguics2pygame_image -->
<g id="edge25" class="edge"><title>SimpleGUICS2Pygame_simpleguics2pygame__pygame_init&#45;&gt;SimpleGUICS2Pygame_simpleguics2pygame_image</title><style>.edge>path:hover{stroke-width:8}</style>
<path fill="none" stroke="black" d="M699.813,-458.228C635.923,-424.086 519.3,-361.765 450.919,-325.223"/>
<polygon fill="#f91010" stroke="black" points="452.478,-322.088 442.009,-320.462 449.179,-328.262 452.478,-322.088"/>
</g>
<!-- SimpleGUICS2Pygame_simpleguics2pygame__pygame_init&#45;&gt;SimpleGUICS2Pygame_simpleguics2pygame__colors -->
<g id="edge18" class="edge"><title>SimpleGUICS2Pygame_simpleguics2pygame__pygame_init&#45;&gt;SimpleGUICS2Pygame_simpleguics2pygame__colors</title><style>.edge>path:hover{stroke-width:8}</style>
<path fill="none" stroke="black" d="M744.951,-388.366C744.951,-358.693 768.542,-337.077 794.447,-322.285"/>
<polygon fill="#f91010" stroke="black" points="796.142,-325.348 803.291,-317.528 792.826,-319.183 796.142,-325.348"/>
</g>
<!-- SimpleGUICS2Pygame_simpleguics2pygame__pygame_init&#45;&gt;SimpleGUICS2Pygame_simpleguics2pygame_canvas -->
<g id="edge22" class="edge"><title>SimpleGUICS2Pygame_simpleguics2pygame__pygame_init&#45;&gt;SimpleGUICS2Pygame_simpleguics2pygame_canvas</title><style>.edge>path:hover{stroke-width:8}</style>
<path fill="none" stroke="black" d="M745.152,-454.167C745.233,-435.962 745.247,-411.763 744.951,-390.366"/>
<path fill="none" stroke="black" d="M744.951,-388.366C743.584,-289.529 596.886,-398.9 531.951,-324.375 512.189,-301.694 508.386,-267.214 508.982,-240.694"/>
<polygon fill="#f91010" stroke="black" points="512.483,-240.744 509.425,-230.6 505.49,-240.437 512.483,-240.744"/>
</g>
<!-- SimpleGUICS2Pygame_simpleguics2pygame__pygame_init&#45;&gt;SimpleGUICS2Pygame_simpleguics2pygame_keys -->
<g id="edge26" class="edge"><title>SimpleGUICS2Pygame_simpleguics2pygame__pygame_init&#45;&gt;SimpleGUICS2Pygame_simpleguics2pygame_keys</title><style>.edge>path:hover{stroke-width:8}</style>
<path fill="none" stroke="black" d="M827.65,-472.927C887.188,-464.061 968.403,-447.621 1034.95,-418.357 1121.4,-380.341 1234.73,-387.239 1208.95,-296.383"/>
<path fill="none" stroke="black" d="M1208.95,-294.383C1212.54,-264.332 1188.29,-242.464 1161.04,-227.61"/>
<polygon fill="#f91010" stroke="black" points="1162.62,-224.485 1152.12,-223.033 1159.42,-230.713 1162.62,-224.485"/>
</g>
<!-- SimpleGUICS2Pygame_simpleguics2pygame__pygame_init&#45;&gt;SimpleGUICS2Pygame_simpleguics2pygame -->
<g id="edge17" class="edge"><title>SimpleGUICS2Pygame_simpleguics2pygame__pygame_init&#45;&gt;SimpleGUICS2Pygame_simpleguics2pygame</title><style>.edge>path:hover{stroke-width:8}</style>
<path fill="none" stroke="black" d="M1208.95,-294.383C1218.76,-212.316 1223.84,-189.716 1208.95,-108.418"/>
</g>
<!-- SimpleGUICS2Pygame_simpleguics2pygame__pygame_init&#45;&gt;SimpleGUICS2Pygame_simpleguics2pygame_control -->
<g id="edge23" class="edge"><title>SimpleGUICS2Pygame_simpleguics2pygame__pygame_init&#45;&gt;SimpleGUICS2Pygame_simpleguics2pygame_control</title><style>.edge>path:hover{stroke-width:8}</style>
<path fill="none" stroke="black" d="M744.951,-388.366C744.951,-289.519 898.962,-403.69 957.951,-324.375 973.33,-303.696 970.165,-289.083 957.951,-266.392 949.953,-251.534 936.826,-239.553 922.777,-230.157"/>
<polygon fill="#f91010" stroke="black" points="924.282,-226.97 913.947,-224.637 920.571,-232.906 924.282,-226.97"/>
</g>
<!-- SimpleGUICS2Pygame_simpleguics2pygame__pygame_init&#45;&gt;SimpleGUICS2Pygame_simpleguics2pygame_frame -->
<g id="edge24" class="edge"><title>SimpleGUICS2Pygame_simpleguics2pygame__pygame_init&#45;&gt;SimpleGUICS2Pygame_simpleguics2pygame_frame</title><style>.edge>path:hover{stroke-width:8}</style>
<path fill="none" stroke="black" d="M744.951,-388.366C744.599,-305.715 744.951,-285.052 744.951,-202.401"/>
</g>
<!-- SimpleGUICS2Pygame_simpleguics2pygame__pygame_init&#45;&gt;SimpleGUICS2Pygame_simpleguics2pygame__media -->
<g id="edge21" class="edge"><title>SimpleGUICS2Pygame_simpleguics2pygame__pygame_init&#45;&gt;SimpleGUICS2Pygame_simpleguics2pygame__media</title><style>.edge>path:hover{stroke-width:8}</style>
<path fill="none" stroke="black" d="M674.154,-465.904C605.525,-449.963 501.538,-425.809 429.715,-409.126"/>
<polygon fill="#f91010" stroke="black" points="430.334,-405.677 419.801,-406.823 428.75,-412.495 430.334,-405.677"/>
</g>
<!-- SimpleGUICS2Pygame_simpleguics2pygame__pygame_init&#45;&gt;SimpleGUICS2Pygame_simpleguics2pygame__fonts -->
<g id="edge19" class="edge"><title>SimpleGUICS2Pygame_simpleguics2pygame__pygame_init&#45;&gt;SimpleGUICS2Pygame_simpleguics2pygame__fonts</title><style>.edge>path:hover{stroke-width:8}</style>
<path fill="none" stroke="black" d="M744.951,-388.366C744.951,-358.693 721.359,-337.077 695.454,-322.285"/>
<polygon fill="#f91010" stroke="black" points="697.076,-319.183 686.611,-317.528 693.76,-325.348 697.076,-319.183"/>
</g>
<!-- SimpleGUICS2Pygame_simpleguics2pygame_timer&#45;&gt;SimpleGUICS2Pygame_simpleguics2pygame -->
<g id="edge38" class="edge"><title>SimpleGUICS2Pygame_simpleguics2pygame_timer&#45;&gt;SimpleGUICS2Pygame_simpleguics2pygame</title><style>.edge>path:hover{stroke-width:8}</style>
<path fill="none" stroke="black" d="M162.949,-174.724C186.644,-157.146 217.811,-132.704 242.951,-108.418"/>
</g>
<!-- SimpleGUICS2Pygame_simpleguics2pygame_timer&#45;&gt;SimpleGUICS2Pygame_simpleguics2pygame_frame -->
<g id="edge39" class="edge"><title>SimpleGUICS2Pygame_simpleguics2pygame_timer&#45;&gt;SimpleGUICS2Pygame_simpleguics2pygame_frame</title><style>.edge>path:hover{stroke-width:8}</style>
<path fill="none" stroke="black" d="M199.812,-184.911C221.375,-180.576 245.069,-176.058 266.951,-172.409 400.355,-150.167 555.721,-130.516 652.218,-119.042"/>
<polygon fill="#b83d3d" stroke="black" points="652.72,-122.507 662.239,-117.854 651.896,-115.555 652.72,-122.507"/>
</g>
<!-- SimpleGUICS2Pygame_simpleguics2pygame_control&#45;&gt;SimpleGUICS2Pygame_simpleguics2pygame -->
<g id="edge29" class="edge"><title>SimpleGUICS2Pygame_simpleguics2pygame_control&#45;&gt;SimpleGUICS2Pygame_simpleguics2pygame</title><style>.edge>path:hover{stroke-width:8}</style>
<path fill="none" stroke="black" d="M933.712,-184.923C1036.48,-162.548 1211.5,-122.325 1208.95,-108.418"/>
<path fill="none" stroke="black" d="M1208.95,-106.418C1202.24,-69.7989 970.839,-42.7084 837.415,-30.0918"/>
<polygon fill="#a83838" stroke="black" points="837.475,-26.5822 827.193,-29.1353 836.823,-33.5518 837.475,-26.5822"/>
</g>
<!-- SimpleGUICS2Pygame_simpleguics2pygame_control&#45;&gt;SimpleGUICS2Pygame_simpleguics2pygame_frame -->
<g id="edge30" class="edge"><title>SimpleGUICS2Pygame_simpleguics2pygame_control&#45;&gt;SimpleGUICS2Pygame_simpleguics2pygame_frame</title><style>.edge>path:hover{stroke-width:8}</style>
<path fill="none" stroke="black" d="M828.02,-174.288C814.918,-163.899 799.702,-151.833 785.9,-140.889"/>
<polygon fill="#a83838" stroke="black" points="787.974,-138.066 777.964,-134.596 783.625,-143.551 787.974,-138.066"/>
</g>
<!-- SimpleGUICS2Pygame_simpleguics2pygame_frame&#45;&gt;SimpleGUICS2Pygame_simpleguics2pygame -->
<g id="edge31" class="edge"><title>SimpleGUICS2Pygame_simpleguics2pygame_frame&#45;&gt;SimpleGUICS2Pygame_simpleguics2pygame</title><style>.edge>path:hover{stroke-width:8}</style>
<path fill="none" stroke="black" d="M744.951,-78.3789C744.951,-70.171 744.951,-61.1574 744.951,-52.7997"/>
<polygon fill="#6b2e2e" stroke="black" points="748.451,-52.674 744.951,-42.674 741.451,-52.6741 748.451,-52.674"/>
</g>
<!-- SimpleGUICS2Pygame_simpleguics2pygame__media&#45;&gt;SimpleGUICS2Pygame_simpleguics2pygame_image -->
<g id="edge15" class="edge"><title>SimpleGUICS2Pygame_simpleguics2pygame__media&#45;&gt;SimpleGUICS2Pygame_simpleguics2pygame_image</title><style>.edge>path:hover{stroke-width:8}</style>
<path fill="none" stroke="black" d="M363.613,-360.268C368.121,-351.63 373.149,-341.994 377.906,-332.879"/>
<polygon fill="#bc2f2f" stroke="black" points="381.02,-334.478 382.543,-323.993 374.814,-331.239 381.02,-334.478"/>
</g>
<!-- SimpleGUICS2Pygame_simpleguics2pygame__media&#45;&gt;SimpleGUICS2Pygame_simpleguics2pygame_sound -->
<g id="edge16" class="edge"><title>SimpleGUICS2Pygame_simpleguics2pygame__media&#45;&gt;SimpleGUICS2Pygame_simpleguics2pygame_sound</title><style>.edge>path:hover{stroke-width:8}</style>
<path fill="none" stroke="black" d="M295.494,-366.217C263.731,-353.057 223.281,-336.296 189.969,-322.494"/>
<polygon fill="#bc2f2f" stroke="black" points="190.906,-319.094 180.328,-318.5 188.227,-325.561 190.906,-319.094"/>
</g>
<!-- SimpleGUICS2Pygame_simpleguics2pygame__media&#45;&gt;SimpleGUICS2Pygame_simpleguics2pygame_frame -->
<g id="edge14" class="edge"><title>SimpleGUICS2Pygame_simpleguics2pygame__media&#45;&gt;SimpleGUICS2Pygame_simpleguics2pygame_frame</title><style>.edge>path:hover{stroke-width:8}</style>
<path fill="none" stroke="black" d="M324.686,-361.301C294.065,-323.695 249.03,-254.403 280.951,-202.401"/>
</g>
<!-- SimpleGUICS2Pygame_simpleguics2pygame__fonts&#45;&gt;SimpleGUICS2Pygame_simpleguics2pygame_canvas -->
<g id="edge10" class="edge"><title>SimpleGUICS2Pygame_simpleguics2pygame__fonts&#45;&gt;SimpleGUICS2Pygame_simpleguics2pygame_canvas</title><style>.edge>path:hover{stroke-width:8}</style>
<path fill="none" stroke="black" d="M596.02,-268.271C582.918,-257.881 567.702,-245.816 553.9,-234.872"/>
<polygon fill="#bc2f2f" stroke="black" points="555.974,-232.049 545.964,-228.578 551.625,-237.534 555.974,-232.049"/>
</g>
<!-- SimpleGUICS2Pygame_simpleguics2pygame__fonts&#45;&gt;SimpleGUICS2Pygame_simpleguics2pygame_control -->
<g id="edge11" class="edge"><title>SimpleGUICS2Pygame_simpleguics2pygame__fonts&#45;&gt;SimpleGUICS2Pygame_simpleguics2pygame_control</title><style>.edge>path:hover{stroke-width:8}</style>
<path fill="none" stroke="black" d="M683.931,-272.585C717.613,-259.231 760.891,-242.072 796.223,-228.064"/>
<polygon fill="#bc2f2f" stroke="black" points="797.957,-231.141 805.963,-224.202 795.377,-224.634 797.957,-231.141"/>
</g>
<!-- SimpleGUICS2Pygame_simpleguics2pygame__fonts&#45;&gt;SimpleGUICS2Pygame_simpleguics2pygame_frame -->
<g id="edge12" class="edge"><title>SimpleGUICS2Pygame_simpleguics2pygame__fonts&#45;&gt;SimpleGUICS2Pygame_simpleguics2pygame_frame</title><style>.edge>path:hover{stroke-width:8}</style>
<path fill="none" stroke="black" d="M686.611,-273.239C715.724,-258.474 744.951,-235.428 744.951,-202.401"/>
<path fill="none" stroke="black" d="M744.951,-200.401C744.951,-182.847 744.951,-163.409 744.951,-146.941"/>
<polygon fill="#bc2f2f" stroke="black" points="748.451,-146.598 744.951,-136.598 741.451,-146.598 748.451,-146.598"/>
</g>
</g>
</svg>
