<?xml version="1.0" encoding="UTF-8" standalone="no"?>
<!DOCTYPE svg PUBLIC "-//W3C//DTD SVG 1.1//EN"
 "http://www.w3.org/Graphics/SVG/1.1/DTD/svg11.dtd">
<!-- Generated by graphviz version 2.38.0 (20140413.2041)
 -->
<!-- Title: G Pages: 1 -->
<svg width="1211pt" height="900pt"
 viewBox="0.00 0.00 1211.47 899.62" xmlns="http://www.w3.org/2000/svg" xmlns:xlink="http://www.w3.org/1999/xlink">
<g id="graph0" class="graph" transform="scale(1 1) rotate(0) translate(4 895.619)">
<title>G</title><style>.edge>path:hover{stroke-width:8}</style>
<polygon fill="white" stroke="none" points="-4,4 -4,-895.619 1207.47,-895.619 1207.47,4 -4,4"/>
<!-- SimpleGUICS2Pygame_simpleguics2pygame__media -->
<g id="node1" class="node"><title>SimpleGUICS2Pygame_simpleguics2pygame__media</title><style>.edge>path:hover{stroke-width:8}</style>
<ellipse fill="#ae1e1e" stroke="black" cx="223.086" cy="-546.219" rx="88.2768" ry="28.9828"/>
<text text-anchor="middle" x="223.086" y="-554.719" font-family="Helvetica,sans-Serif" font-size="10.00" fill="#ffffff">SimpleGUICS2Pygame.</text>
<text text-anchor="middle" x="223.086" y="-543.719" font-family="Helvetica,sans-Serif" font-size="10.00" fill="#ffffff">simpleguics2pygame.</text>
<text text-anchor="middle" x="223.086" y="-532.719" font-family="Helvetica,sans-Serif" font-size="10.00" fill="#ffffff">_media</text>
</g>
<!-- SimpleGUICS2Pygame_simpleguics2pygame_image -->
<g id="node2" class="node"><title>SimpleGUICS2Pygame_simpleguics2pygame_image</title><style>.edge>path:hover{stroke-width:8}</style>
<ellipse fill="#bf2121" stroke="black" cx="687.086" cy="-452.236" rx="88.2768" ry="28.9828"/>
<text text-anchor="middle" x="687.086" y="-460.736" font-family="Helvetica,sans-Serif" font-size="10.00" fill="#ffffff">SimpleGUICS2Pygame.</text>
<text text-anchor="middle" x="687.086" y="-449.736" font-family="Helvetica,sans-Serif" font-size="10.00" fill="#ffffff">simpleguics2pygame.</text>
<text text-anchor="middle" x="687.086" y="-438.736" font-family="Helvetica,sans-Serif" font-size="10.00" fill="#ffffff">image</text>
</g>
<!-- SimpleGUICS2Pygame_simpleguics2pygame__media&#45;&gt;SimpleGUICS2Pygame_simpleguics2pygame_image -->
<g id="edge22" class="edge"><title>SimpleGUICS2Pygame_simpleguics2pygame__media&#45;&gt;SimpleGUICS2Pygame_simpleguics2pygame_image</title><style>.edge>path:hover{stroke-width:8}</style>
<path fill="none" stroke="black" d="M296.269,-529.873C316.301,-525.72 338.022,-521.259 358.086,-517.227 440.837,-500.602 535.439,-482.272 601.894,-469.507"/>
<polygon fill="#ae1e1e" stroke="black" points="602.74,-472.909 611.9,-467.586 601.42,-466.034 602.74,-472.909"/>
</g>
<!-- SimpleGUICS2Pygame_simpleguics2pygame_sound -->
<g id="node15" class="node"><title>SimpleGUICS2Pygame_simpleguics2pygame_sound</title><style>.edge>path:hover{stroke-width:8}</style>
<ellipse fill="#a83838" stroke="black" cx="223.086" cy="-452.236" rx="88.2768" ry="28.9828"/>
<text text-anchor="middle" x="223.086" y="-460.736" font-family="Helvetica,sans-Serif" font-size="10.00" fill="#ffffff">SimpleGUICS2Pygame.</text>
<text text-anchor="middle" x="223.086" y="-449.736" font-family="Helvetica,sans-Serif" font-size="10.00" fill="#ffffff">simpleguics2pygame.</text>
<text text-anchor="middle" x="223.086" y="-438.736" font-family="Helvetica,sans-Serif" font-size="10.00" fill="#ffffff">sound</text>
</g>
<!-- SimpleGUICS2Pygame_simpleguics2pygame__media&#45;&gt;SimpleGUICS2Pygame_simpleguics2pygame_sound -->
<g id="edge23" class="edge"><title>SimpleGUICS2Pygame_simpleguics2pygame__media&#45;&gt;SimpleGUICS2Pygame_simpleguics2pygame_sound</title><style>.edge>path:hover{stroke-width:8}</style>
<path fill="none" stroke="black" d="M223.086,-517.121C223.086,-509.083 223.086,-500.181 223.086,-491.639"/>
<polygon fill="#ae1e1e" stroke="black" points="226.586,-491.479 223.086,-481.479 219.586,-491.479 226.586,-491.479"/>
</g>
<!-- SimpleGUICS2Pygame_simpleguics2pygame_frame -->
<g id="node17" class="node"><title>SimpleGUICS2Pygame_simpleguics2pygame_frame</title><style>.edge>path:hover{stroke-width:8}</style>
<ellipse fill="#732626" stroke="black" cx="725.086" cy="-264.271" rx="88.2768" ry="28.9828"/>
<text text-anchor="middle" x="725.086" y="-272.771" font-family="Helvetica,sans-Serif" font-size="10.00" fill="#ffffff">SimpleGUICS2Pygame.</text>
<text text-anchor="middle" x="725.086" y="-261.771" font-family="Helvetica,sans-Serif" font-size="10.00" fill="#ffffff">simpleguics2pygame.</text>
<text text-anchor="middle" x="725.086" y="-250.771" font-family="Helvetica,sans-Serif" font-size="10.00" fill="#ffffff">frame</text>
</g>
<!-- SimpleGUICS2Pygame_simpleguics2pygame__media&#45;&gt;SimpleGUICS2Pygame_simpleguics2pygame_frame -->
<g id="edge21" class="edge"><title>SimpleGUICS2Pygame_simpleguics2pygame__media&#45;&gt;SimpleGUICS2Pygame_simpleguics2pygame_frame</title><style>.edge>path:hover{stroke-width:8}</style>
<path fill="none" stroke="black" d="M287.047,-526.122C355.084,-504.893 453.254,-471.233 455.086,-453.236"/>
</g>
<!-- SimpleGUICS2Pygame_simpleguics2pygame_canvas -->
<g id="node13" class="node"><title>SimpleGUICS2Pygame_simpleguics2pygame_canvas</title><style>.edge>path:hover{stroke-width:8}</style>
<ellipse fill="#9b2626" stroke="black" cx="725.086" cy="-358.253" rx="88.2768" ry="28.9828"/>
<text text-anchor="middle" x="725.086" y="-366.753" font-family="Helvetica,sans-Serif" font-size="10.00" fill="#ffffff">SimpleGUICS2Pygame.</text>
<text text-anchor="middle" x="725.086" y="-355.753" font-family="Helvetica,sans-Serif" font-size="10.00" fill="#ffffff">simpleguics2pygame.</text>
<text text-anchor="middle" x="725.086" y="-344.753" font-family="Helvetica,sans-Serif" font-size="10.00" fill="#ffffff">canvas</text>
</g>
<!-- SimpleGUICS2Pygame_simpleguics2pygame_image&#45;&gt;SimpleGUICS2Pygame_simpleguics2pygame_canvas -->
<g id="edge40" class="edge"><title>SimpleGUICS2Pygame_simpleguics2pygame_image&#45;&gt;SimpleGUICS2Pygame_simpleguics2pygame_canvas</title><style>.edge>path:hover{stroke-width:8}</style>
<path fill="none" stroke="black" d="M698.694,-423.138C702.156,-414.758 706.006,-405.438 709.672,-396.566"/>
<polygon fill="#bf2121" stroke="black" points="712.966,-397.758 713.55,-387.179 706.497,-395.085 712.966,-397.758"/>
</g>
<!-- SimpleGUICS2Pygame_simpleguics2pygame_image&#45;&gt;SimpleGUICS2Pygame_simpleguics2pygame_frame -->
<g id="edge41" class="edge"><title>SimpleGUICS2Pygame_simpleguics2pygame_image&#45;&gt;SimpleGUICS2Pygame_simpleguics2pygame_frame</title><style>.edge>path:hover{stroke-width:8}</style>
<path fill="none" stroke="black" d="M645.812,-426.416C624.179,-409.881 603.259,-386.27 609.086,-359.253"/>
<path fill="none" stroke="black" d="M609.086,-357.253C615.216,-328.836 638.574,-307.573 662.74,-292.691"/>
<polygon fill="#bf2121" stroke="black" points="664.775,-295.556 671.65,-287.495 661.248,-289.509 664.775,-295.556"/>
</g>
<!-- SimpleGUICS2Pygame_simpleguics2pygame -->
<g id="node20" class="node"><title>SimpleGUICS2Pygame_simpleguics2pygame</title><style>.edge>path:hover{stroke-width:8}</style>
<ellipse fill="#950303" stroke="black" cx="725.086" cy="-178.066" rx="88.2768" ry="21.4286"/>
<text text-anchor="middle" x="725.086" y="-181.066" font-family="Helvetica,sans-Serif" font-size="10.00" fill="#ffffff">SimpleGUICS2Pygame.</text>
<text text-anchor="middle" x="725.086" y="-170.066" font-family="Helvetica,sans-Serif" font-size="10.00" fill="#ffffff">simpleguics2pygame</text>
</g>
<!-- SimpleGUICS2Pygame_simpleguics2pygame_image&#45;&gt;SimpleGUICS2Pygame_simpleguics2pygame -->
<g id="edge39" class="edge"><title>SimpleGUICS2Pygame_simpleguics2pygame_image&#45;&gt;SimpleGUICS2Pygame_simpleguics2pygame</title><style>.edge>path:hover{stroke-width:8}</style>
<path fill="none" stroke="black" d="M609.086,-357.253C635.817,-233.331 934.236,-379.419 879.086,-265.271"/>
<path fill="none" stroke="black" d="M879.086,-263.271C863.1,-230.182 828.001,-209.582 795.343,-197.047"/>
<polygon fill="#bf2121" stroke="black" points="796.358,-193.692 785.764,-193.567 793.968,-200.271 796.358,-193.692"/>
</g>
<!-- SimpleGUICS2Pygame_simplegui_lib_loader -->
<g id="node3" class="node"><title>SimpleGUICS2Pygame_simplegui_lib_loader</title><style>.edge>path:hover{stroke-width:8}</style>
<ellipse fill="#b83d3d" stroke="black" cx="530.086" cy="-99.6396" rx="88.2768" ry="21.4286"/>
<text text-anchor="middle" x="530.086" y="-102.64" font-family="Helvetica,sans-Serif" font-size="10.00" fill="#ffffff">SimpleGUICS2Pygame.</text>
<text text-anchor="middle" x="530.086" y="-91.6396" font-family="Helvetica,sans-Serif" font-size="10.00" fill="#ffffff">simplegui_lib_loader</text>
</g>
<!-- SimpleGUICS2Pygame_simplegui_lib -->
<g id="node9" class="node"><title>SimpleGUICS2Pygame_simplegui_lib</title><style>.edge>path:hover{stroke-width:8}</style>
<ellipse fill="#964040" stroke="black" cx="822.086" cy="-21.2132" rx="88.2768" ry="21.4286"/>
<text text-anchor="middle" x="822.086" y="-24.2132" font-family="Helvetica,sans-Serif" font-size="10.00" fill="#ffffff">SimpleGUICS2Pygame.</text>
<text text-anchor="middle" x="822.086" y="-13.2132" font-family="Helvetica,sans-Serif" font-size="10.00" fill="#ffffff">simplegui_lib</text>
</g>
<!-- SimpleGUICS2Pygame_simplegui_lib_loader&#45;&gt;SimpleGUICS2Pygame_simplegui_lib -->
<g id="edge4" class="edge"><title>SimpleGUICS2Pygame_simplegui_lib_loader&#45;&gt;SimpleGUICS2Pygame_simplegui_lib</title><style>.edge>path:hover{stroke-width:8}</style>
<path fill="none" stroke="black" d="M587.776,-83.5402C635.69,-70.9994 703.93,-53.1386 754.418,-39.9244"/>
<polygon fill="#b83d3d" stroke="black" points="755.479,-43.2646 764.267,-37.3465 753.707,-36.4927 755.479,-43.2646"/>
</g>
<!-- SimpleGUICS2Pygame_simplegui_lib_fps -->
<g id="node4" class="node"><title>SimpleGUICS2Pygame_simplegui_lib_fps</title><style>.edge>path:hover{stroke-width:8}</style>
<ellipse fill="#b83d3d" stroke="black" cx="725.086" cy="-99.6396" rx="88.2768" ry="21.4286"/>
<text text-anchor="middle" x="725.086" y="-102.64" font-family="Helvetica,sans-Serif" font-size="10.00" fill="#ffffff">SimpleGUICS2Pygame.</text>
<text text-anchor="middle" x="725.086" y="-91.6396" font-family="Helvetica,sans-Serif" font-size="10.00" fill="#ffffff">simplegui_lib_fps</text>
</g>
<!-- SimpleGUICS2Pygame_simplegui_lib_fps&#45;&gt;SimpleGUICS2Pygame_simplegui_lib -->
<g id="edge2" class="edge"><title>SimpleGUICS2Pygame_simplegui_lib_fps&#45;&gt;SimpleGUICS2Pygame_simplegui_lib</title><style>.edge>path:hover{stroke-width:8}</style>
<path fill="none" stroke="black" d="M749.814,-79.1563C761.786,-69.7239 776.325,-58.2688 789.215,-48.1129"/>
<polygon fill="#b83d3d" stroke="black" points="791.715,-50.599 797.403,-41.661 787.382,-45.1007 791.715,-50.599"/>
</g>
<!-- SimpleGUICS2Pygame_simplegui_lib_keys -->
<g id="node5" class="node"><title>SimpleGUICS2Pygame_simplegui_lib_keys</title><style>.edge>path:hover{stroke-width:8}</style>
<ellipse fill="#b83d3d" stroke="black" cx="920.086" cy="-99.6396" rx="88.2768" ry="21.4286"/>
<text text-anchor="middle" x="920.086" y="-102.64" font-family="Helvetica,sans-Serif" font-size="10.00" fill="#ffffff">SimpleGUICS2Pygame.</text>
<text text-anchor="middle" x="920.086" y="-91.6396" font-family="Helvetica,sans-Serif" font-size="10.00" fill="#ffffff">simplegui_lib_keys</text>
</g>
<!-- SimpleGUICS2Pygame_simplegui_lib_keys&#45;&gt;SimpleGUICS2Pygame_simplegui_lib -->
<g id="edge3" class="edge"><title>SimpleGUICS2Pygame_simplegui_lib_keys&#45;&gt;SimpleGUICS2Pygame_simplegui_lib</title><style>.edge>path:hover{stroke-width:8}</style>
<path fill="none" stroke="black" d="M895.103,-79.1563C882.893,-69.634 868.04,-58.0504 854.925,-47.8231"/>
<polygon fill="#b83d3d" stroke="black" points="857.062,-45.0507 847.024,-41.661 852.757,-50.5706 857.062,-45.0507"/>
</g>
<!-- SimpleGUICS2Pygame_simpleguics2pygame_control -->
<g id="node6" class="node"><title>SimpleGUICS2Pygame_simpleguics2pygame_control</title><style>.edge>path:hover{stroke-width:8}</style>
<ellipse fill="#a32828" stroke="black" cx="957.086" cy="-452.236" rx="88.2768" ry="28.9828"/>
<text text-anchor="middle" x="957.086" y="-460.736" font-family="Helvetica,sans-Serif" font-size="10.00" fill="#ffffff">SimpleGUICS2Pygame.</text>
<text text-anchor="middle" x="957.086" y="-449.736" font-family="Helvetica,sans-Serif" font-size="10.00" fill="#ffffff">simpleguics2pygame.</text>
<text text-anchor="middle" x="957.086" y="-438.736" font-family="Helvetica,sans-Serif" font-size="10.00" fill="#ffffff">control</text>
</g>
<!-- SimpleGUICS2Pygame_simpleguics2pygame_control&#45;&gt;SimpleGUICS2Pygame_simpleguics2pygame_frame -->
<g id="edge37" class="edge"><title>SimpleGUICS2Pygame_simpleguics2pygame_control&#45;&gt;SimpleGUICS2Pygame_simpleguics2pygame_frame</title><style>.edge>path:hover{stroke-width:8}</style>
<path fill="none" stroke="black" d="M930.603,-424.311C920.09,-413.17 908.134,-399.912 898.086,-387.245 888.742,-375.465 888.652,-370.854 879.086,-359.253"/>
<path fill="none" stroke="black" d="M879.086,-357.253C868.661,-344.61 868.035,-339.306 855.086,-329.262 835.607,-314.153 811.99,-301.234 790.259,-291.042"/>
<polygon fill="#a32828" stroke="black" points="791.628,-287.82 781.079,-286.843 788.717,-294.186 791.628,-287.82"/>
</g>
<!-- SimpleGUICS2Pygame_simpleguics2pygame_control&#45;&gt;SimpleGUICS2Pygame_simpleguics2pygame -->
<g id="edge36" class="edge"><title>SimpleGUICS2Pygame_simpleguics2pygame_control&#45;&gt;SimpleGUICS2Pygame_simpleguics2pygame</title><style>.edge>path:hover{stroke-width:8}</style>
<path fill="none" stroke="black" d="M879.086,-357.253C853.078,-325.713 896.871,-302.081 879.086,-265.271"/>
</g>
<!-- SimpleGUICS2Pygame_simpleguics2pygame__colors -->
<g id="node7" class="node"><title>SimpleGUICS2Pygame_simpleguics2pygame__colors</title><style>.edge>path:hover{stroke-width:8}</style>
<ellipse fill="#bf2121" stroke="black" cx="919.086" cy="-546.219" rx="88.2768" ry="28.9828"/>
<text text-anchor="middle" x="919.086" y="-554.719" font-family="Helvetica,sans-Serif" font-size="10.00" fill="#ffffff">SimpleGUICS2Pygame.</text>
<text text-anchor="middle" x="919.086" y="-543.719" font-family="Helvetica,sans-Serif" font-size="10.00" fill="#ffffff">simpleguics2pygame.</text>
<text text-anchor="middle" x="919.086" y="-532.719" font-family="Helvetica,sans-Serif" font-size="10.00" fill="#ffffff">_colors</text>
</g>
<!-- SimpleGUICS2Pygame_simpleguics2pygame__colors&#45;&gt;SimpleGUICS2Pygame_simpleguics2pygame_control -->
<g id="edge15" class="edge"><title>SimpleGUICS2Pygame_simpleguics2pygame__colors&#45;&gt;SimpleGUICS2Pygame_simpleguics2pygame_control</title><style>.edge>path:hover{stroke-width:8}</style>
<path fill="none" stroke="black" d="M930.694,-517.121C934.156,-508.741 938.006,-499.421 941.672,-490.548"/>
<polygon fill="#bf2121" stroke="black" points="944.966,-491.74 945.55,-481.162 938.497,-489.068 944.966,-491.74"/>
</g>
<!-- SimpleGUICS2Pygame_simpleguics2pygame__colors&#45;&gt;SimpleGUICS2Pygame_simpleguics2pygame_canvas -->
<g id="edge14" class="edge"><title>SimpleGUICS2Pygame_simpleguics2pygame__colors&#45;&gt;SimpleGUICS2Pygame_simpleguics2pygame_canvas</title><style>.edge>path:hover{stroke-width:8}</style>
<path fill="none" stroke="black" d="M892.603,-518.294C882.09,-507.152 870.134,-493.895 860.086,-481.227 850.742,-469.448 849.857,-465.449 841.086,-453.236"/>
<path fill="none" stroke="black" d="M841.086,-451.236C831.527,-437.926 829.244,-434.232 817.086,-423.245 803.934,-411.358 788.489,-399.827 774.05,-389.903"/>
<polygon fill="#bf2121" stroke="black" points="775.935,-386.953 765.69,-384.255 772.017,-392.753 775.935,-386.953"/>
</g>
<!-- SimpleGUICS2Pygame_simpleguics2pygame__colors&#45;&gt;SimpleGUICS2Pygame_simpleguics2pygame_frame -->
<g id="edge16" class="edge"><title>SimpleGUICS2Pygame_simpleguics2pygame__colors&#45;&gt;SimpleGUICS2Pygame_simpleguics2pygame_frame</title><style>.edge>path:hover{stroke-width:8}</style>
<path fill="none" stroke="black" d="M841.086,-451.236C809.082,-406.673 851.743,-375.42 822.086,-329.262 812.875,-314.925 799.182,-303.082 784.967,-293.649"/>
<polygon fill="#bf2121" stroke="black" points="786.417,-290.427 776.085,-288.086 782.702,-296.36 786.417,-290.427"/>
</g>
<!-- SimpleGUICS2Pygame_simpleguics2pygame__joypads -->
<g id="node8" class="node"><title>SimpleGUICS2Pygame_simpleguics2pygame__joypads</title><style>.edge>path:hover{stroke-width:8}</style>
<ellipse fill="#a13535" stroke="black" cx="455.086" cy="-546.219" rx="88.2768" ry="28.9828"/>
<text text-anchor="middle" x="455.086" y="-554.719" font-family="Helvetica,sans-Serif" font-size="10.00" fill="#ffffff">SimpleGUICS2Pygame.</text>
<text text-anchor="middle" x="455.086" y="-543.719" font-family="Helvetica,sans-Serif" font-size="10.00" fill="#ffffff">simpleguics2pygame.</text>
<text text-anchor="middle" x="455.086" y="-532.719" font-family="Helvetica,sans-Serif" font-size="10.00" fill="#ffffff">_joypads</text>
</g>
<!-- SimpleGUICS2Pygame_simpleguics2pygame__joypads&#45;&gt;SimpleGUICS2Pygame_simpleguics2pygame_frame -->
<g id="edge20" class="edge"><title>SimpleGUICS2Pygame_simpleguics2pygame__joypads&#45;&gt;SimpleGUICS2Pygame_simpleguics2pygame_frame</title><style>.edge>path:hover{stroke-width:8}</style>
<path fill="none" stroke="black" d="M453.61,-516.964C453.021,-498.729 452.919,-474.525 455.086,-453.236"/>
</g>
<!-- SimpleGUICS2Pygame_simpleguics2pygame_keys -->
<g id="node10" class="node"><title>SimpleGUICS2Pygame_simpleguics2pygame_keys</title><style>.edge>path:hover{stroke-width:8}</style>
<ellipse fill="#ac2b2b" stroke="black" cx="995.086" cy="-358.253" rx="88.2768" ry="28.9828"/>
<text text-anchor="middle" x="995.086" y="-366.753" font-family="Helvetica,sans-Serif" font-size="10.00" fill="#ffffff">SimpleGUICS2Pygame.</text>
<text text-anchor="middle" x="995.086" y="-355.753" font-family="Helvetica,sans-Serif" font-size="10.00" fill="#ffffff">simpleguics2pygame.</text>
<text text-anchor="middle" x="995.086" y="-344.753" font-family="Helvetica,sans-Serif" font-size="10.00" fill="#ffffff">keys</text>
</g>
<!-- SimpleGUICS2Pygame_simpleguics2pygame_keys&#45;&gt;SimpleGUICS2Pygame_simpleguics2pygame_frame -->
<g id="edge43" class="edge"><title>SimpleGUICS2Pygame_simpleguics2pygame_keys&#45;&gt;SimpleGUICS2Pygame_simpleguics2pygame_frame</title><style>.edge>path:hover{stroke-width:8}</style>
<path fill="none" stroke="black" d="M935.165,-336.839C893.711,-322.717 838.41,-303.878 794.953,-289.072"/>
<polygon fill="#ac2b2b" stroke="black" points="795.901,-285.698 785.307,-285.786 793.644,-292.324 795.901,-285.698"/>
</g>
<!-- SimpleGUICS2Pygame_simpleguics2pygame_keys&#45;&gt;SimpleGUICS2Pygame_simpleguics2pygame -->
<g id="edge42" class="edge"><title>SimpleGUICS2Pygame_simpleguics2pygame_keys&#45;&gt;SimpleGUICS2Pygame_simpleguics2pygame</title><style>.edge>path:hover{stroke-width:8}</style>
<path fill="none" stroke="black" d="M948.118,-333.661C922.625,-318.068 893.454,-295.009 879.086,-265.271"/>
</g>
<!-- SimpleGUICS2Pygame_simpleplot -->
<g id="node11" class="node"><title>SimpleGUICS2Pygame_simpleplot</title><style>.edge>path:hover{stroke-width:8}</style>
<ellipse fill="#ac4949" stroke="black" cx="1035.09" cy="-726.406" rx="88.2768" ry="21.4286"/>
<text text-anchor="middle" x="1035.09" y="-729.406" font-family="Helvetica,sans-Serif" font-size="10.00" fill="#ffffff">SimpleGUICS2Pygame.</text>
<text text-anchor="middle" x="1035.09" y="-718.406" font-family="Helvetica,sans-Serif" font-size="10.00" fill="#ffffff">simpleplot</text>
</g>
<!-- SimpleGUICS2Pygame_simpleguics2pygame__arguments -->
<g id="node12" class="node"><title>SimpleGUICS2Pygame_simpleguics2pygame__arguments</title><style>.edge>path:hover{stroke-width:8}</style>
<ellipse fill="#f90606" stroke="black" cx="223.086" cy="-640.202" rx="88.2768" ry="28.9828"/>
<text text-anchor="middle" x="223.086" y="-648.702" font-family="Helvetica,sans-Serif" font-size="10.00" fill="#ffffff">SimpleGUICS2Pygame.</text>
<text text-anchor="middle" x="223.086" y="-637.702" font-family="Helvetica,sans-Serif" font-size="10.00" fill="#ffffff">simpleguics2pygame.</text>
<text text-anchor="middle" x="223.086" y="-626.702" font-family="Helvetica,sans-Serif" font-size="10.00" fill="#ffffff">_arguments</text>
</g>
<!-- SimpleGUICS2Pygame_simpleguics2pygame__arguments&#45;&gt;SimpleGUICS2Pygame_simpleguics2pygame__media -->
<g id="edge10" class="edge"><title>SimpleGUICS2Pygame_simpleguics2pygame__arguments&#45;&gt;SimpleGUICS2Pygame_simpleguics2pygame__media</title><style>.edge>path:hover{stroke-width:8}</style>
<path fill="none" stroke="black" d="M223.086,-611.104C223.086,-603.066 223.086,-594.164 223.086,-585.621"/>
<polygon fill="#f90606" stroke="black" points="226.586,-585.461 223.086,-575.461 219.586,-585.461 226.586,-585.461"/>
</g>
<!-- SimpleGUICS2Pygame_simpleguics2pygame__arguments&#45;&gt;SimpleGUICS2Pygame_simpleguics2pygame_sound -->
<g id="edge12" class="edge"><title>SimpleGUICS2Pygame_simpleguics2pygame__arguments&#45;&gt;SimpleGUICS2Pygame_simpleguics2pygame_sound</title><style>.edge>path:hover{stroke-width:8}</style>
<path fill="none" stroke="black" d="M107.086,-545.219C109.07,-515.857 132.484,-494.359 157.763,-479.565"/>
<polygon fill="#f90606" stroke="black" points="159.682,-482.503 166.749,-474.61 156.302,-476.373 159.682,-482.503"/>
</g>
<!-- SimpleGUICS2Pygame_simpleguics2pygame_timer -->
<g id="node16" class="node"><title>SimpleGUICS2Pygame_simpleguics2pygame_timer</title><style>.edge>path:hover{stroke-width:8}</style>
<ellipse fill="#bc2f2f" stroke="black" cx="107.086" cy="-358.253" rx="88.2768" ry="28.9828"/>
<text text-anchor="middle" x="107.086" y="-366.753" font-family="Helvetica,sans-Serif" font-size="10.00" fill="#ffffff">SimpleGUICS2Pygame.</text>
<text text-anchor="middle" x="107.086" y="-355.753" font-family="Helvetica,sans-Serif" font-size="10.00" fill="#ffffff">simpleguics2pygame.</text>
<text text-anchor="middle" x="107.086" y="-344.753" font-family="Helvetica,sans-Serif" font-size="10.00" fill="#ffffff">timer</text>
</g>
<!-- SimpleGUICS2Pygame_simpleguics2pygame__arguments&#45;&gt;SimpleGUICS2Pygame_simpleguics2pygame_timer -->
<g id="edge13" class="edge"><title>SimpleGUICS2Pygame_simpleguics2pygame__arguments&#45;&gt;SimpleGUICS2Pygame_simpleguics2pygame_timer</title><style>.edge>path:hover{stroke-width:8}</style>
<path fill="none" stroke="black" d="M107.086,-451.236C102.213,-434.061 101.596,-414.345 102.448,-397.582"/>
<polygon fill="#f90606" stroke="black" points="105.941,-397.794 103.142,-387.576 98.9581,-397.309 105.941,-397.794"/>
</g>
<!-- SimpleGUICS2Pygame_simpleguics2pygame__arguments&#45;&gt;SimpleGUICS2Pygame_simpleguics2pygame_frame -->
<g id="edge11" class="edge"><title>SimpleGUICS2Pygame_simpleguics2pygame__arguments&#45;&gt;SimpleGUICS2Pygame_simpleguics2pygame_frame</title><style>.edge>path:hover{stroke-width:8}</style>
<path fill="none" stroke="black" d="M107.086,-545.219C117.869,-385.604 438.886,-612.392 455.086,-453.236"/>
<path fill="none" stroke="black" d="M455.086,-451.236C464.4,-359.736 569.53,-309.654 645.805,-285.159"/>
<polygon fill="#f90606" stroke="black" points="646.922,-288.477 655.424,-282.156 644.836,-281.796 646.922,-288.477"/>
</g>
<!-- SimpleGUICS2Pygame_simpleguics2pygame__fonts -->
<g id="node19" class="node"><title>SimpleGUICS2Pygame_simpleguics2pygame__fonts</title><style>.edge>path:hover{stroke-width:8}</style>
<ellipse fill="#b62020" stroke="black" cx="687.086" cy="-546.219" rx="88.2768" ry="28.9828"/>
<text text-anchor="middle" x="687.086" y="-554.719" font-family="Helvetica,sans-Serif" font-size="10.00" fill="#ffffff">SimpleGUICS2Pygame.</text>
<text text-anchor="middle" x="687.086" y="-543.719" font-family="Helvetica,sans-Serif" font-size="10.00" fill="#ffffff">simpleguics2pygame.</text>
<text text-anchor="middle" x="687.086" y="-532.719" font-family="Helvetica,sans-Serif" font-size="10.00" fill="#ffffff">_fonts</text>
</g>
<!-- SimpleGUICS2Pygame_simpleguics2pygame__arguments&#45;&gt;SimpleGUICS2Pygame_simpleguics2pygame__fonts -->
<g id="edge9" class="edge"><title>SimpleGUICS2Pygame_simpleguics2pygame__arguments&#45;&gt;SimpleGUICS2Pygame_simpleguics2pygame__fonts</title><style>.edge>path:hover{stroke-width:8}</style>
<path fill="none" stroke="black" d="M298.272,-624.851C364.99,-612.052 465.087,-592.69 552.086,-575.21 568.859,-571.84 586.789,-568.17 603.922,-564.63"/>
<polygon fill="#f90606" stroke="black" points="604.821,-568.019 613.904,-562.564 603.402,-561.164 604.821,-568.019"/>
</g>
<!-- SimpleGUICS2Pygame_simpleguics2pygame__arguments&#45;&gt;SimpleGUICS2Pygame_simpleguics2pygame -->
<g id="edge8" class="edge"><title>SimpleGUICS2Pygame_simpleguics2pygame__arguments&#45;&gt;SimpleGUICS2Pygame_simpleguics2pygame</title><style>.edge>path:hover{stroke-width:8}</style>
<path fill="none" stroke="black" d="M164.462,-618.345C134.553,-603.576 104.843,-580.427 107.086,-547.219"/>
<path fill="none" stroke="black" d="M107.086,-545.219C109.842,-504.431 118.245,-492.565 107.086,-453.236"/>
<path fill="none" stroke="black" d="M107.086,-451.236C92.989,-401.55 34.5665,-432.722 10.0863,-387.245 -2.12842,-364.553 -4.2433,-350.681 10.0863,-329.262 51.5284,-267.318 102.348,-305.5 165.086,-265.271"/>
<path fill="none" stroke="black" d="M165.086,-263.271C239.198,-213.737 489.3,-192.127 628.881,-183.736"/>
<polygon fill="#f90606" stroke="black" points="629.371,-187.213 639.148,-183.13 628.959,-180.225 629.371,-187.213"/>
</g>
<!-- SimpleGUICS2Pygame_simpleguics2pygame_canvas&#45;&gt;SimpleGUICS2Pygame_simpleguics2pygame_frame -->
<g id="edge35" class="edge"><title>SimpleGUICS2Pygame_simpleguics2pygame_canvas&#45;&gt;SimpleGUICS2Pygame_simpleguics2pygame_frame</title><style>.edge>path:hover{stroke-width:8}</style>
<path fill="none" stroke="black" d="M725.086,-329.156C725.086,-321.118 725.086,-312.216 725.086,-303.673"/>
<polygon fill="#9b2626" stroke="black" points="728.586,-303.513 725.086,-293.513 721.586,-303.513 728.586,-303.513"/>
</g>
<!-- SimpleGUICS2Pygame_simpleguics2pygame_canvas&#45;&gt;SimpleGUICS2Pygame_simpleguics2pygame -->
<g id="edge34" class="edge"><title>SimpleGUICS2Pygame_simpleguics2pygame_canvas&#45;&gt;SimpleGUICS2Pygame_simpleguics2pygame</title><style>.edge>path:hover{stroke-width:8}</style>
<path fill="none" stroke="black" d="M799.937,-342.748C848.137,-329.371 898.46,-305.369 879.086,-265.271"/>
</g>
<!-- SimpleGUICS2Pygame_simplegui_lib_draw -->
<g id="node14" class="node"><title>SimpleGUICS2Pygame_simplegui_lib_draw</title><style>.edge>path:hover{stroke-width:8}</style>
<ellipse fill="#c04040" stroke="black" cx="1115.09" cy="-99.6396" rx="88.2768" ry="21.4286"/>
<text text-anchor="middle" x="1115.09" y="-102.64" font-family="Helvetica,sans-Serif" font-size="10.00" fill="#ffffff">SimpleGUICS2Pygame.</text>
<text text-anchor="middle" x="1115.09" y="-91.6396" font-family="Helvetica,sans-Serif" font-size="10.00" fill="#ffffff">simplegui_lib_draw</text>
</g>
<!-- SimpleGUICS2Pygame_simplegui_lib_draw&#45;&gt;SimpleGUICS2Pygame_simplegui_lib -->
<g id="edge1" class="edge"><title>SimpleGUICS2Pygame_simplegui_lib_draw&#45;&gt;SimpleGUICS2Pygame_simplegui_lib</title><style>.edge>path:hover{stroke-width:8}</style>
<path fill="none" stroke="black" d="M1057.2,-83.5402C1009.04,-70.979 940.424,-53.0805 889.74,-39.86"/>
<polygon fill="#c04040" stroke="black" points="890.413,-36.4186 879.853,-37.2812 888.646,-43.192 890.413,-36.4186"/>
</g>
<!-- SimpleGUICS2Pygame_simpleguics2pygame_sound&#45;&gt;SimpleGUICS2Pygame_simpleguics2pygame -->
<g id="edge44" class="edge"><title>SimpleGUICS2Pygame_simpleguics2pygame_sound&#45;&gt;SimpleGUICS2Pygame_simpleguics2pygame</title><style>.edge>path:hover{stroke-width:8}</style>
<path fill="none" stroke="black" d="M221.809,-422.843C219.944,-397.608 215.359,-360.054 204.086,-329.262 192.636,-297.986 137.324,-283.671 165.086,-265.271"/>
</g>
<!-- SimpleGUICS2Pygame_simpleguics2pygame_timer&#45;&gt;SimpleGUICS2Pygame_simpleguics2pygame_frame -->
<g id="edge46" class="edge"><title>SimpleGUICS2Pygame_simpleguics2pygame_timer&#45;&gt;SimpleGUICS2Pygame_simpleguics2pygame_frame</title><style>.edge>path:hover{stroke-width:8}</style>
<path fill="none" stroke="black" d="M186.614,-345.417C301.875,-328.261 514.723,-296.581 635.419,-278.617"/>
<polygon fill="#bc2f2f" stroke="black" points="635.999,-282.069 645.375,-277.135 634.969,-275.145 635.999,-282.069"/>
</g>
<!-- SimpleGUICS2Pygame_simpleguics2pygame_timer&#45;&gt;SimpleGUICS2Pygame_simpleguics2pygame -->
<g id="edge45" class="edge"><title>SimpleGUICS2Pygame_simpleguics2pygame_timer&#45;&gt;SimpleGUICS2Pygame_simpleguics2pygame</title><style>.edge>path:hover{stroke-width:8}</style>
<path fill="none" stroke="black" d="M117.284,-329.334C126.477,-308.275 142.111,-280.498 165.086,-265.271"/>
</g>
<!-- SimpleGUICS2Pygame_simpleguics2pygame_frame&#45;&gt;SimpleGUICS2Pygame_simpleguics2pygame -->
<g id="edge38" class="edge"><title>SimpleGUICS2Pygame_simpleguics2pygame_frame&#45;&gt;SimpleGUICS2Pygame_simpleguics2pygame</title><style>.edge>path:hover{stroke-width:8}</style>
<path fill="none" stroke="black" d="M725.086,-235.232C725.086,-227.024 725.086,-218.01 725.086,-209.653"/>
<polygon fill="#732626" stroke="black" points="728.586,-209.527 725.086,-199.527 721.586,-209.527 728.586,-209.527"/>
</g>
<!-- SimpleGUICS2Pygame_simpleguics2pygame__pygame_init -->
<g id="node18" class="node"><title>SimpleGUICS2Pygame_simpleguics2pygame__pygame_init</title><style>.edge>path:hover{stroke-width:8}</style>
<ellipse fill="#d10505" stroke="black" cx="919.086" cy="-640.202" rx="88.2768" ry="28.9828"/>
<text text-anchor="middle" x="919.086" y="-648.702" font-family="Helvetica,sans-Serif" font-size="10.00" fill="#ffffff">SimpleGUICS2Pygame.</text>
<text text-anchor="middle" x="919.086" y="-637.702" font-family="Helvetica,sans-Serif" font-size="10.00" fill="#ffffff">simpleguics2pygame.</text>
<text text-anchor="middle" x="919.086" y="-626.702" font-family="Helvetica,sans-Serif" font-size="10.00" fill="#ffffff">_pygame_init</text>
</g>
<!-- SimpleGUICS2Pygame_simpleguics2pygame__pygame_init&#45;&gt;SimpleGUICS2Pygame_simpleguics2pygame__media -->
<g id="edge28" class="edge"><title>SimpleGUICS2Pygame_simpleguics2pygame__pygame_init&#45;&gt;SimpleGUICS2Pygame_simpleguics2pygame__media</title><style>.edge>path:hover{stroke-width:8}</style>
<path fill="none" stroke="black" d="M834.172,-631.938C724.004,-621.961 526.018,-602.141 358.086,-575.21 340.799,-572.438 322.37,-568.965 304.862,-565.418"/>
<polygon fill="#d10505" stroke="black" points="305.176,-561.909 294.676,-563.325 303.767,-568.766 305.176,-561.909"/>
</g>
<!-- SimpleGUICS2Pygame_simpleguics2pygame__pygame_init&#45;&gt;SimpleGUICS2Pygame_simpleguics2pygame_image -->
<g id="edge32" class="edge"><title>SimpleGUICS2Pygame_simpleguics2pygame__pygame_init&#45;&gt;SimpleGUICS2Pygame_simpleguics2pygame_image</title><style>.edge>path:hover{stroke-width:8}</style>
<path fill="none" stroke="black" d="M803.086,-545.219C790.792,-536.563 794.788,-527.789 784.086,-517.227 771.243,-504.552 755.532,-492.922 740.527,-483.154"/>
<polygon fill="#d10505" stroke="black" points="742.121,-480.021 731.8,-477.625 738.374,-485.934 742.121,-480.021"/>
</g>
<!-- SimpleGUICS2Pygame_simpleguics2pygame__pygame_init&#45;&gt;SimpleGUICS2Pygame_simpleguics2pygame_control -->
<g id="edge30" class="edge"><title>SimpleGUICS2Pygame_simpleguics2pygame__pygame_init&#45;&gt;SimpleGUICS2Pygame_simpleguics2pygame_control</title><style>.edge>path:hover{stroke-width:8}</style>
<path fill="none" stroke="black" d="M977.77,-618.34C1007.7,-603.57 1037.41,-580.422 1035.09,-547.219"/>
<path fill="none" stroke="black" d="M1035.09,-545.219C1033.45,-521.854 1018.35,-501.344 1001.86,-485.657"/>
<polygon fill="#d10505" stroke="black" points="1004.01,-482.88 994.236,-478.795 999.331,-488.085 1004.01,-482.88"/>
</g>
<!-- SimpleGUICS2Pygame_simpleguics2pygame__pygame_init&#45;&gt;SimpleGUICS2Pygame_simpleguics2pygame__colors -->
<g id="edge25" class="edge"><title>SimpleGUICS2Pygame_simpleguics2pygame__pygame_init&#45;&gt;SimpleGUICS2Pygame_simpleguics2pygame__colors</title><style>.edge>path:hover{stroke-width:8}</style>
<path fill="none" stroke="black" d="M919.086,-611.104C919.086,-603.066 919.086,-594.164 919.086,-585.621"/>
<polygon fill="#d10505" stroke="black" points="922.586,-585.461 919.086,-575.461 915.586,-585.461 922.586,-585.461"/>
</g>
<!-- SimpleGUICS2Pygame_simpleguics2pygame__pygame_init&#45;&gt;SimpleGUICS2Pygame_simpleguics2pygame__joypads -->
<g id="edge27" class="edge"><title>SimpleGUICS2Pygame_simpleguics2pygame__pygame_init&#45;&gt;SimpleGUICS2Pygame_simpleguics2pygame__joypads</title><style>.edge>path:hover{stroke-width:8}</style>
<path fill="none" stroke="black" d="M843.9,-624.851C777.183,-612.052 677.085,-592.69 590.086,-575.21 573.314,-571.84 555.384,-568.17 538.25,-564.63"/>
<polygon fill="#d10505" stroke="black" points="538.771,-561.164 528.269,-562.564 537.352,-568.019 538.771,-561.164"/>
</g>
<!-- SimpleGUICS2Pygame_simpleguics2pygame__pygame_init&#45;&gt;SimpleGUICS2Pygame_simpleguics2pygame_keys -->
<g id="edge33" class="edge"><title>SimpleGUICS2Pygame_simpleguics2pygame__pygame_init&#45;&gt;SimpleGUICS2Pygame_simpleguics2pygame_keys</title><style>.edge>path:hover{stroke-width:8}</style>
<path fill="none" stroke="black" d="M984.905,-620.608C1019.44,-606.781 1057.7,-583.822 1073.09,-547.219"/>
<path fill="none" stroke="black" d="M1073.09,-545.219C1094.35,-494.643 1077.93,-472.655 1054.09,-423.245 1048.8,-412.294 1041.01,-401.905 1032.81,-392.806"/>
<polygon fill="#d10505" stroke="black" points="1035.29,-390.335 1025.87,-385.483 1030.21,-395.15 1035.29,-390.335"/>
</g>
<!-- SimpleGUICS2Pygame_simpleguics2pygame__pygame_init&#45;&gt;SimpleGUICS2Pygame_simpleguics2pygame_canvas -->
<g id="edge29" class="edge"><title>SimpleGUICS2Pygame_simpleguics2pygame__pygame_init&#45;&gt;SimpleGUICS2Pygame_simpleguics2pygame_canvas</title><style>.edge>path:hover{stroke-width:8}</style>
<path fill="none" stroke="black" d="M803.086,-545.219C769.66,-521.683 799.063,-493.919 803.086,-453.236"/>
</g>
<!-- SimpleGUICS2Pygame_simpleguics2pygame__pygame_init&#45;&gt;SimpleGUICS2Pygame_simpleguics2pygame_frame -->
<g id="edge31" class="edge"><title>SimpleGUICS2Pygame_simpleguics2pygame__pygame_init&#45;&gt;SimpleGUICS2Pygame_simpleguics2pygame_frame</title><style>.edge>path:hover{stroke-width:8}</style>
<path fill="none" stroke="black" d="M874.372,-614.813C856.917,-604.041 837.451,-590.374 822.086,-575.21 811.385,-564.649 815.38,-555.875 803.086,-547.219"/>
<path fill="none" stroke="black" d="M803.086,-545.219C790.792,-536.563 796.672,-525.455 784.086,-517.227 710.684,-469.245 676.136,-498.13 590.086,-481.227 529.959,-469.417 448.881,-514.197 455.086,-453.236"/>
</g>
<!-- SimpleGUICS2Pygame_simpleguics2pygame__pygame_init&#45;&gt;SimpleGUICS2Pygame_simpleguics2pygame__fonts -->
<g id="edge26" class="edge"><title>SimpleGUICS2Pygame_simpleguics2pygame__pygame_init&#45;&gt;SimpleGUICS2Pygame_simpleguics2pygame__fonts</title><style>.edge>path:hover{stroke-width:8}</style>
<path fill="none" stroke="black" d="M864.106,-617.403C830.424,-604.049 787.146,-586.89 751.814,-572.882"/>
<polygon fill="#d10505" stroke="black" points="752.66,-569.452 742.074,-569.02 750.08,-575.96 752.66,-569.452"/>
</g>
<!-- SimpleGUICS2Pygame_simpleguics2pygame__pygame_init&#45;&gt;SimpleGUICS2Pygame_simpleguics2pygame -->
<g id="edge24" class="edge"><title>SimpleGUICS2Pygame_simpleguics2pygame__pygame_init&#45;&gt;SimpleGUICS2Pygame_simpleguics2pygame</title><style>.edge>path:hover{stroke-width:8}</style>
<path fill="none" stroke="black" d="M987.13,-621.614C1028.16,-609.502 1074.81,-592.524 1087.09,-575.21 1150.32,-486.019 1157.33,-416.992 1092.09,-329.262 1033.1,-249.946 922.087,-354.274 879.086,-265.271"/>
</g>
<!-- SimpleGUICS2Pygame_simpleguics2pygame__fonts&#45;&gt;SimpleGUICS2Pygame_simpleguics2pygame_control -->
<g id="edge18" class="edge"><title>SimpleGUICS2Pygame_simpleguics2pygame__fonts&#45;&gt;SimpleGUICS2Pygame_simpleguics2pygame_control</title><style>.edge>path:hover{stroke-width:8}</style>
<path fill="none" stroke="black" d="M747.008,-524.805C788.461,-510.683 843.762,-491.843 887.22,-477.038"/>
<polygon fill="#b62020" stroke="black" points="888.529,-480.29 896.866,-473.752 886.271,-473.664 888.529,-480.29"/>
</g>
<!-- SimpleGUICS2Pygame_simpleguics2pygame__fonts&#45;&gt;SimpleGUICS2Pygame_simpleguics2pygame_canvas -->
<g id="edge17" class="edge"><title>SimpleGUICS2Pygame_simpleguics2pygame__fonts&#45;&gt;SimpleGUICS2Pygame_simpleguics2pygame_canvas</title><style>.edge>path:hover{stroke-width:8}</style>
<path fill="none" stroke="black" d="M742.989,-523.608C771.075,-508.791 799.861,-485.847 803.086,-453.236"/>
</g>
<!-- SimpleGUICS2Pygame_simpleguics2pygame__fonts&#45;&gt;SimpleGUICS2Pygame_simpleguics2pygame_frame -->
<g id="edge19" class="edge"><title>SimpleGUICS2Pygame_simpleguics2pygame__fonts&#45;&gt;SimpleGUICS2Pygame_simpleguics2pygame_frame</title><style>.edge>path:hover{stroke-width:8}</style>
<path fill="none" stroke="black" d="M612.199,-530.663C543.079,-515.03 451.576,-487.72 455.086,-453.236"/>
</g>
<!-- SimpleGUICS2Pygame_simpleguics2pygame&#45;&gt;SimpleGUICS2Pygame_simplegui_lib_loader -->
<g id="edge7" class="edge"><title>SimpleGUICS2Pygame_simpleguics2pygame&#45;&gt;SimpleGUICS2Pygame_simplegui_lib_loader</title><style>.edge>path:hover{stroke-width:8}</style>
<path fill="none" stroke="black" d="M680.349,-159.532C651.737,-148.318 614.45,-133.704 584.177,-121.84"/>
<polygon fill="#950303" stroke="black" points="585.203,-118.482 574.615,-118.092 582.648,-125 585.203,-118.482"/>
</g>
<!-- SimpleGUICS2Pygame_simpleguics2pygame&#45;&gt;SimpleGUICS2Pygame_simplegui_lib_fps -->
<g id="edge5" class="edge"><title>SimpleGUICS2Pygame_simpleguics2pygame&#45;&gt;SimpleGUICS2Pygame_simplegui_lib_fps</title><style>.edge>path:hover{stroke-width:8}</style>
<path fill="none" stroke="black" d="M725.086,-156.585C725.086,-148.726 725.086,-139.582 725.086,-130.992"/>
<polygon fill="#950303" stroke="black" points="728.586,-130.912 725.086,-120.912 721.586,-130.912 728.586,-130.912"/>
</g>
<!-- SimpleGUICS2Pygame_simpleguics2pygame&#45;&gt;SimpleGUICS2Pygame_simplegui_lib_keys -->
<g id="edge6" class="edge"><title>SimpleGUICS2Pygame_simpleguics2pygame&#45;&gt;SimpleGUICS2Pygame_simplegui_lib_keys</title><style>.edge>path:hover{stroke-width:8}</style>
<path fill="none" stroke="black" d="M769.823,-159.532C798.436,-148.318 835.723,-133.704 865.995,-121.84"/>
<polygon fill="#950303" stroke="black" points="867.524,-125 875.558,-118.092 864.97,-118.482 867.524,-125"/>
</g>
<!-- audioread -->
<g id="node21" class="node"><title>audioread</title><style>.edge>path:hover{stroke-width:8}</style>
<polygon fill="#80c040" stroke="black" points="370.586,-819.619 367.586,-823.619 346.586,-823.619 343.586,-819.619 307.586,-819.619 307.586,-783.619 370.586,-783.619 370.586,-819.619"/>
<text text-anchor="middle" x="339.086" y="-799.119" font-family="Helvetica,sans-Serif" font-size="10.00" fill="#000000">audioread</text>
</g>
<!-- audioread&#45;&gt;SimpleGUICS2Pygame_simpleguics2pygame__media -->
<g id="edge47" class="edge"><title>audioread&#45;&gt;SimpleGUICS2Pygame_simpleguics2pygame__media</title><style>.edge>path:hover{stroke-width:8}</style>
<path fill="none" stroke="black" d="M341.967,-783.418C346.934,-748.222 353.601,-666.641 320.086,-611.21 311.312,-596.699 297.843,-584.818 283.707,-575.405"/>
<polygon fill="#80c040" stroke="black" points="285.189,-572.203 274.856,-569.861 281.473,-578.135 285.189,-572.203"/>
</g>
<!-- matplotlib -->
<g id="node22" class="node"><title>matplotlib</title><style>.edge>path:hover{stroke-width:8}</style>
<polygon fill="#31c4c4" stroke="black" points="1064.59,-891.619 1061.59,-895.619 1040.59,-895.619 1037.59,-891.619 1005.59,-891.619 1005.59,-855.619 1064.59,-855.619 1064.59,-891.619"/>
<text text-anchor="middle" x="1035.09" y="-871.119" font-family="Helvetica,sans-Serif" font-size="10.00" fill="#000000">matplotlib</text>
</g>
<!-- matplotlib&#45;&gt;SimpleGUICS2Pygame_simpleplot -->
<g id="edge48" class="edge"><title>matplotlib&#45;&gt;SimpleGUICS2Pygame_simpleplot</title><style>.edge>path:hover{stroke-width:8}</style>
<path fill="none" stroke="black" d="M1035.09,-855.391C1035.09,-831.437 1035.09,-787.684 1035.09,-758.081"/>
<polygon fill="#31c4c4" stroke="black" points="1038.59,-757.877 1035.09,-747.877 1031.59,-757.877 1038.59,-757.877"/>
</g>
<!-- pygame -->
<g id="node23" class="node"><title>pygame</title><style>.edge>path:hover{stroke-width:8}</style>
<polygon fill="#8547c2" stroke="black" points="946.086,-891.619 943.086,-895.619 922.086,-895.619 919.086,-891.619 892.086,-891.619 892.086,-855.619 946.086,-855.619 946.086,-891.619"/>
<text text-anchor="middle" x="919.086" y="-871.119" font-family="Helvetica,sans-Serif" font-size="10.00" fill="#ffffff">pygame</text>
</g>
<!-- pygame&#45;&gt;SimpleGUICS2Pygame_simpleguics2pygame__media -->
<g id="edge52" class="edge"><title>pygame&#45;&gt;SimpleGUICS2Pygame_simpleguics2pygame__media</title><style>.edge>path:hover{stroke-width:8}</style>
<path fill="none" stroke="black" d="M922.934,-855.357C928.335,-827.402 935.761,-770.963 919.086,-727.406"/>
<path fill="none" stroke="black" d="M919.086,-725.406C885.796,-653.141 642.314,-676.658 571.086,-641.202"/>
<path fill="none" stroke="black" d="M571.086,-639.202C469.952,-588.858 434.227,-604.38 325.086,-575.21 316.644,-572.954 307.815,-570.569 299.036,-568.182"/>
<polygon fill="#8547c2" stroke="black" points="299.736,-564.745 289.168,-565.492 297.895,-571.498 299.736,-564.745"/>
</g>
<!-- pygame&#45;&gt;SimpleGUICS2Pygame_simpleguics2pygame_control -->
<g id="edge55" class="edge"><title>pygame&#45;&gt;SimpleGUICS2Pygame_simpleguics2pygame_control</title><style>.edge>path:hover{stroke-width:8}</style>
<path fill="none" stroke="black" d="M1035.09,-639.202C1048.37,-600.538 1037.94,-588 1035.09,-547.219"/>
</g>
<!-- pygame&#45;&gt;SimpleGUICS2Pygame_simpleguics2pygame__colors -->
<g id="edge49" class="edge"><title>pygame&#45;&gt;SimpleGUICS2Pygame_simpleguics2pygame__colors</title><style>.edge>path:hover{stroke-width:8}</style>
<path fill="none" stroke="black" d="M919.086,-725.406C914.678,-713.892 928.083,-712.401 938.086,-705.193 979.989,-675.001 1018.31,-690.047 1035.09,-641.202"/>
<path fill="none" stroke="black" d="M1035.09,-639.202C1045.3,-609.463 1019.26,-587.14 989.283,-571.938"/>
<polygon fill="#8547c2" stroke="black" points="990.42,-568.602 979.889,-567.448 987.402,-574.918 990.42,-568.602"/>
</g>
<!-- pygame&#45;&gt;SimpleGUICS2Pygame_simpleguics2pygame__joypads -->
<g id="edge51" class="edge"><title>pygame&#45;&gt;SimpleGUICS2Pygame_simpleguics2pygame__joypads</title><style>.edge>path:hover{stroke-width:8}</style>
<path fill="none" stroke="black" d="M571.086,-639.202C540.963,-624.206 511.311,-600.491 489.528,-580.897"/>
<polygon fill="#8547c2" stroke="black" points="491.611,-578.059 481.872,-573.888 486.884,-583.222 491.611,-578.059"/>
</g>
<!-- pygame&#45;&gt;SimpleGUICS2Pygame_simpleguics2pygame_keys -->
<g id="edge57" class="edge"><title>pygame&#45;&gt;SimpleGUICS2Pygame_simpleguics2pygame_keys</title><style>.edge>path:hover{stroke-width:8}</style>
<path fill="none" stroke="black" d="M1035.09,-639.202C1049.46,-597.369 1057.25,-588.52 1073.09,-547.219"/>
</g>
<!-- pygame&#45;&gt;SimpleGUICS2Pygame_simpleguics2pygame_canvas -->
<g id="edge54" class="edge"><title>pygame&#45;&gt;SimpleGUICS2Pygame_simpleguics2pygame_canvas</title><style>.edge>path:hover{stroke-width:8}</style>
<path fill="none" stroke="black" d="M571.086,-639.202C546.528,-626.977 570.972,-536.904 590.086,-517.227 658.962,-446.328 793.359,-551.603 803.086,-453.236"/>
<path fill="none" stroke="black" d="M803.086,-451.236C805.292,-427.735 790.429,-407.095 773.103,-391.353"/>
<polygon fill="#8547c2" stroke="black" points="774.904,-388.29 765.021,-384.472 770.366,-393.62 774.904,-388.29"/>
</g>
<!-- pygame&#45;&gt;SimpleGUICS2Pygame_simpleguics2pygame_frame -->
<g id="edge56" class="edge"><title>pygame&#45;&gt;SimpleGUICS2Pygame_simpleguics2pygame_frame</title><style>.edge>path:hover{stroke-width:8}</style>
<path fill="none" stroke="black" d="M571.086,-639.202C482.728,-594.89 417.075,-654.526 358.086,-575.21 342.707,-554.532 345.872,-539.919 358.086,-517.227 382.566,-471.75 436.03,-501.239 455.086,-453.236"/>
</g>
<!-- pygame&#45;&gt;SimpleGUICS2Pygame_simpleguics2pygame__pygame_init -->
<g id="edge53" class="edge"><title>pygame&#45;&gt;SimpleGUICS2Pygame_simpleguics2pygame__pygame_init</title><style>.edge>path:hover{stroke-width:8}</style>
<path fill="none" stroke="black" d="M919.086,-725.406C913.619,-711.124 912.62,-694.454 913.35,-679.732"/>
<polygon fill="#8547c2" stroke="black" points="916.866,-679.659 914.149,-669.419 909.887,-679.119 916.866,-679.659"/>
</g>
<!-- pygame&#45;&gt;SimpleGUICS2Pygame_simpleguics2pygame__fonts -->
<g id="edge50" class="edge"><title>pygame&#45;&gt;SimpleGUICS2Pygame_simpleguics2pygame__fonts</title><style>.edge>path:hover{stroke-width:8}</style>
<path fill="none" stroke="black" d="M571.086,-639.202C537.146,-622.307 580.832,-594.342 623.956,-573.675"/>
<polygon fill="#8547c2" stroke="black" points="625.55,-576.793 633.121,-569.382 622.581,-570.454 625.55,-576.793"/>
</g>
</g>
</svg>
