<?xml version="1.0" encoding="UTF-8" standalone="no"?>
<!DOCTYPE svg PUBLIC "-//W3C//DTD SVG 1.1//EN"
 "http://www.w3.org/Graphics/SVG/1.1/DTD/svg11.dtd">
<!-- Generated by graphviz version 2.38.0 (20140413.2041)
 -->
<!-- Title: G Pages: 1 -->
<svg width="975pt" height="520pt"
 viewBox="0.00 0.00 975.31 520.34" xmlns="http://www.w3.org/2000/svg" xmlns:xlink="http://www.w3.org/1999/xlink">
<g id="graph0" class="graph" transform="scale(1 1) rotate(0) translate(4 516.34)">
<title>G</title><style>.edge>path:hover{stroke-width:8}</style>
<polygon fill="white" stroke="none" points="-4,4 -4,-516.34 971.307,-516.34 971.307,4 -4,4"/>
<!-- SimpleGUICS2Pygame_simpleguics2pygame_frame -->
<g id="node1" class="node"><title>SimpleGUICS2Pygame_simpleguics2pygame_frame</title><style>.edge>path:hover{stroke-width:8}</style>
<ellipse fill="#a90404" stroke="black" cx="578.919" cy="-389.366" rx="88.2768" ry="28.9828"/>
<text text-anchor="middle" x="578.919" y="-397.866" font-family="Helvetica,sans-Serif" font-size="10.00" fill="#ffffff">SimpleGUICS2Pygame.</text>
<text text-anchor="middle" x="578.919" y="-386.866" font-family="Helvetica,sans-Serif" font-size="10.00" fill="#ffffff">simpleguics2pygame.</text>
<text text-anchor="middle" x="578.919" y="-375.866" font-family="Helvetica,sans-Serif" font-size="10.00" fill="#ffffff">frame</text>
</g>
<!-- SimpleGUICS2Pygame_simpleguics2pygame -->
<g id="node2" class="node"><title>SimpleGUICS2Pygame_simpleguics2pygame</title><style>.edge>path:hover{stroke-width:8}</style>
<ellipse fill="#9f0404" stroke="black" cx="529.919" cy="-21.2132" rx="88.2768" ry="21.4286"/>
<text text-anchor="middle" x="529.919" y="-24.2132" font-family="Helvetica,sans-Serif" font-size="10.00" fill="#ffffff">SimpleGUICS2Pygame.</text>
<text text-anchor="middle" x="529.919" y="-13.2132" font-family="Helvetica,sans-Serif" font-size="10.00" fill="#ffffff">simpleguics2pygame</text>
</g>
<!-- SimpleGUICS2Pygame_simpleguics2pygame_frame&#45;&gt;SimpleGUICS2Pygame_simpleguics2pygame -->
<g id="edge23" class="edge"><title>SimpleGUICS2Pygame_simpleguics2pygame_frame&#45;&gt;SimpleGUICS2Pygame_simpleguics2pygame</title><style>.edge>path:hover{stroke-width:8}</style>
<path fill="none" stroke="black" d="M665.032,-382.383C722.299,-375.176 797.292,-359.305 854.919,-324.375 868.933,-315.88 870.983,-310.721 878.919,-296.383"/>
<path fill="none" stroke="black" d="M878.919,-294.383C926.992,-207.533 895.835,-144.687 821.919,-78.4264 793.007,-52.5085 697.253,-37.6404 623.192,-29.7851"/>
<polygon fill="#a90404" stroke="black" points="623.201,-26.2676 612.895,-28.7228 622.483,-33.2306 623.201,-26.2676"/>
</g>
<!-- SimpleGUICS2Pygame_simpleguics2pygame__options -->
<g id="node4" class="node"><title>SimpleGUICS2Pygame_simpleguics2pygame__options</title><style>.edge>path:hover{stroke-width:8}</style>
<ellipse fill="#9d4343" stroke="black" cx="724.919" cy="-107.418" rx="88.2768" ry="28.9828"/>
<text text-anchor="middle" x="724.919" y="-115.918" font-family="Helvetica,sans-Serif" font-size="10.00" fill="#ffffff">SimpleGUICS2Pygame.</text>
<text text-anchor="middle" x="724.919" y="-104.918" font-family="Helvetica,sans-Serif" font-size="10.00" fill="#ffffff">simpleguics2pygame.</text>
<text text-anchor="middle" x="724.919" y="-93.9178" font-family="Helvetica,sans-Serif" font-size="10.00" fill="#ffffff">_options</text>
</g>
<!-- SimpleGUICS2Pygame_simpleguics2pygame_frame&#45;&gt;SimpleGUICS2Pygame_simpleguics2pygame__options -->
<g id="edge27" class="edge"><title>SimpleGUICS2Pygame_simpleguics2pygame_frame&#45;&gt;SimpleGUICS2Pygame_simpleguics2pygame__options</title><style>.edge>path:hover{stroke-width:8}</style>
<path fill="none" stroke="black" d="M658.524,-376.686C705.42,-367.389 764.627,-351.319 811.919,-324.375 827.484,-315.507 832.739,-312.32 840.919,-296.383"/>
<path fill="none" stroke="black" d="M840.919,-294.383C865.973,-245.574 851.575,-218.568 821.919,-172.409 812.707,-158.072 799.014,-146.229 784.8,-136.796"/>
<polygon fill="#a90404" stroke="black" points="786.25,-133.574 775.917,-131.233 782.534,-139.507 786.25,-133.574"/>
</g>
<!-- SimpleGUICS2Pygame_simpleguics2pygame__colors -->
<g id="node5" class="node"><title>SimpleGUICS2Pygame_simpleguics2pygame__colors</title><style>.edge>path:hover{stroke-width:8}</style>
<ellipse fill="#bc2f2f" stroke="black" cx="115.919" cy="-295.383" rx="88.2768" ry="28.9828"/>
<text text-anchor="middle" x="115.919" y="-303.883" font-family="Helvetica,sans-Serif" font-size="10.00" fill="#ffffff">SimpleGUICS2Pygame.</text>
<text text-anchor="middle" x="115.919" y="-292.883" font-family="Helvetica,sans-Serif" font-size="10.00" fill="#ffffff">simpleguics2pygame.</text>
<text text-anchor="middle" x="115.919" y="-281.883" font-family="Helvetica,sans-Serif" font-size="10.00" fill="#ffffff">_colors</text>
</g>
<!-- SimpleGUICS2Pygame_simpleguics2pygame_frame&#45;&gt;SimpleGUICS2Pygame_simpleguics2pygame__colors -->
<g id="edge24" class="edge"><title>SimpleGUICS2Pygame_simpleguics2pygame_frame&#45;&gt;SimpleGUICS2Pygame_simpleguics2pygame__colors</title><style>.edge>path:hover{stroke-width:8}</style>
<path fill="none" stroke="black" d="M496.022,-370.952C477.891,-367.311 458.781,-363.601 440.919,-360.375 340.396,-342.217 313.657,-346.442 213.919,-324.375 205.785,-322.575 197.329,-320.491 188.944,-318.287"/>
<polygon fill="#a90404" stroke="black" points="495.484,-374.414 505.98,-372.964 496.871,-367.552 495.484,-374.414"/>
<polygon fill="#a90404" stroke="black" points="189.723,-314.872 179.157,-315.656 187.905,-321.632 189.723,-314.872"/>
</g>
<!-- SimpleGUICS2Pygame_simpleguics2pygame_control -->
<g id="node6" class="node"><title>SimpleGUICS2Pygame_simpleguics2pygame_control</title><style>.edge>path:hover{stroke-width:8}</style>
<ellipse fill="#a13535" stroke="black" cx="297.919" cy="-201.401" rx="88.2768" ry="28.9828"/>
<text text-anchor="middle" x="297.919" y="-209.901" font-family="Helvetica,sans-Serif" font-size="10.00" fill="#ffffff">SimpleGUICS2Pygame.</text>
<text text-anchor="middle" x="297.919" y="-198.901" font-family="Helvetica,sans-Serif" font-size="10.00" fill="#ffffff">simpleguics2pygame.</text>
<text text-anchor="middle" x="297.919" y="-187.901" font-family="Helvetica,sans-Serif" font-size="10.00" fill="#ffffff">control</text>
</g>
<!-- SimpleGUICS2Pygame_simpleguics2pygame_frame&#45;&gt;SimpleGUICS2Pygame_simpleguics2pygame_control -->
<g id="edge29" class="edge"><title>SimpleGUICS2Pygame_simpleguics2pygame_frame&#45;&gt;SimpleGUICS2Pygame_simpleguics2pygame_control</title><style>.edge>path:hover{stroke-width:8}</style>
<path fill="none" stroke="black" d="M530.537,-357.443C516.523,-347.583 501.597,-336.154 488.919,-324.375 464.411,-301.603 467.551,-286.639 440.919,-266.392 419.32,-249.971 392.839,-236.63 368.562,-226.463"/>
<polygon fill="#a90404" stroke="black" points="528.899,-360.566 539.116,-363.369 532.878,-354.806 528.899,-360.566"/>
<polygon fill="#a90404" stroke="black" points="369.609,-223.111 359.027,-222.583 366.97,-229.594 369.609,-223.111"/>
</g>
<!-- SimpleGUICS2Pygame_simpleguics2pygame_canvas -->
<g id="node7" class="node"><title>SimpleGUICS2Pygame_simpleguics2pygame_canvas</title><style>.edge>path:hover{stroke-width:8}</style>
<ellipse fill="#993333" stroke="black" cx="143.919" cy="-107.418" rx="88.2768" ry="28.9828"/>
<text text-anchor="middle" x="143.919" y="-115.918" font-family="Helvetica,sans-Serif" font-size="10.00" fill="#ffffff">SimpleGUICS2Pygame.</text>
<text text-anchor="middle" x="143.919" y="-104.918" font-family="Helvetica,sans-Serif" font-size="10.00" fill="#ffffff">simpleguics2pygame.</text>
<text text-anchor="middle" x="143.919" y="-93.9178" font-family="Helvetica,sans-Serif" font-size="10.00" fill="#ffffff">canvas</text>
</g>
<!-- SimpleGUICS2Pygame_simpleguics2pygame_frame&#45;&gt;SimpleGUICS2Pygame_simpleguics2pygame_canvas -->
<g id="edge28" class="edge"><title>SimpleGUICS2Pygame_simpleguics2pygame_frame&#45;&gt;SimpleGUICS2Pygame_simpleguics2pygame_canvas</title><style>.edge>path:hover{stroke-width:8}</style>
<path fill="none" stroke="black" d="M552.879,-352.522C533.731,-327.233 506.363,-293.221 478.919,-266.392 460.355,-248.244 450.49,-249.503 432.919,-230.392 412.065,-207.71 419.993,-190.315 394.919,-172.409 349.725,-140.135 289.725,-124.108 239.721,-116.162"/>
<polygon fill="#a90404" stroke="black" points="550.245,-354.843 559.047,-360.741 555.844,-350.641 550.245,-354.843"/>
<polygon fill="#a90404" stroke="black" points="239.945,-112.657 229.536,-114.633 238.906,-119.579 239.945,-112.657"/>
</g>
<!-- SimpleGUICS2Pygame_simpleguics2pygame__media -->
<g id="node9" class="node"><title>SimpleGUICS2Pygame_simpleguics2pygame__media</title><style>.edge>path:hover{stroke-width:8}</style>
<ellipse fill="#b03a3a" stroke="black" cx="714.919" cy="-295.383" rx="88.2768" ry="28.9828"/>
<text text-anchor="middle" x="714.919" y="-303.883" font-family="Helvetica,sans-Serif" font-size="10.00" fill="#ffffff">SimpleGUICS2Pygame.</text>
<text text-anchor="middle" x="714.919" y="-292.883" font-family="Helvetica,sans-Serif" font-size="10.00" fill="#ffffff">simpleguics2pygame.</text>
<text text-anchor="middle" x="714.919" y="-281.883" font-family="Helvetica,sans-Serif" font-size="10.00" fill="#ffffff">_media</text>
</g>
<!-- SimpleGUICS2Pygame_simpleguics2pygame_frame&#45;&gt;SimpleGUICS2Pygame_simpleguics2pygame__media -->
<g id="edge26" class="edge"><title>SimpleGUICS2Pygame_simpleguics2pygame_frame&#45;&gt;SimpleGUICS2Pygame_simpleguics2pygame__media</title><style>.edge>path:hover{stroke-width:8}</style>
<path fill="none" stroke="black" d="M616.442,-362.988C632.644,-352.029 651.757,-339.102 668.813,-327.566"/>
<polygon fill="#a90404" stroke="black" points="671.196,-330.18 677.519,-321.679 667.275,-324.382 671.196,-330.18"/>
</g>
<!-- SimpleGUICS2Pygame_simpleguics2pygame__fonts -->
<g id="node10" class="node"><title>SimpleGUICS2Pygame_simpleguics2pygame__fonts</title><style>.edge>path:hover{stroke-width:8}</style>
<ellipse fill="#bc2f2f" stroke="black" cx="310.919" cy="-295.383" rx="88.2768" ry="28.9828"/>
<text text-anchor="middle" x="310.919" y="-303.883" font-family="Helvetica,sans-Serif" font-size="10.00" fill="#ffffff">SimpleGUICS2Pygame.</text>
<text text-anchor="middle" x="310.919" y="-292.883" font-family="Helvetica,sans-Serif" font-size="10.00" fill="#ffffff">simpleguics2pygame.</text>
<text text-anchor="middle" x="310.919" y="-281.883" font-family="Helvetica,sans-Serif" font-size="10.00" fill="#ffffff">_fonts</text>
</g>
<!-- SimpleGUICS2Pygame_simpleguics2pygame_frame&#45;&gt;SimpleGUICS2Pygame_simpleguics2pygame__fonts -->
<g id="edge25" class="edge"><title>SimpleGUICS2Pygame_simpleguics2pygame_frame&#45;&gt;SimpleGUICS2Pygame_simpleguics2pygame__fonts</title><style>.edge>path:hover{stroke-width:8}</style>
<path fill="none" stroke="black" d="M509.546,-364.556C469.747,-350.896 419.949,-333.804 380.171,-320.152"/>
<polygon fill="#a90404" stroke="black" points="508.513,-367.902 519.108,-367.838 510.786,-361.281 508.513,-367.902"/>
<polygon fill="#a90404" stroke="black" points="381.142,-316.785 370.547,-316.849 378.869,-323.406 381.142,-316.785"/>
</g>
<!-- SimpleGUICS2Pygame_simpleguics2pygame__pygame_lib -->
<g id="node3" class="node"><title>SimpleGUICS2Pygame_simpleguics2pygame__pygame_lib</title><style>.edge>path:hover{stroke-width:8}</style>
<ellipse fill="#f91010" stroke="black" cx="488.919" cy="-483.349" rx="88.2768" ry="28.9828"/>
<text text-anchor="middle" x="488.919" y="-491.849" font-family="Helvetica,sans-Serif" font-size="10.00" fill="#ffffff">SimpleGUICS2Pygame.</text>
<text text-anchor="middle" x="488.919" y="-480.849" font-family="Helvetica,sans-Serif" font-size="10.00" fill="#ffffff">simpleguics2pygame.</text>
<text text-anchor="middle" x="488.919" y="-469.849" font-family="Helvetica,sans-Serif" font-size="10.00" fill="#ffffff">_pygame_lib</text>
</g>
<!-- SimpleGUICS2Pygame_simpleguics2pygame__pygame_lib&#45;&gt;SimpleGUICS2Pygame_simpleguics2pygame_frame -->
<g id="edge17" class="edge"><title>SimpleGUICS2Pygame_simpleguics2pygame__pygame_lib&#45;&gt;SimpleGUICS2Pygame_simpleguics2pygame_frame</title><style>.edge>path:hover{stroke-width:8}</style>
<path fill="none" stroke="black" d="M515.435,-455.248C524.865,-445.611 535.605,-434.634 545.535,-424.485"/>
<polygon fill="#f91010" stroke="black" points="548.1,-426.868 552.592,-417.273 543.097,-421.973 548.1,-426.868"/>
</g>
<!-- SimpleGUICS2Pygame_simpleguics2pygame__pygame_lib&#45;&gt;SimpleGUICS2Pygame_simpleguics2pygame -->
<g id="edge10" class="edge"><title>SimpleGUICS2Pygame_simpleguics2pygame__pygame_lib&#45;&gt;SimpleGUICS2Pygame_simpleguics2pygame</title><style>.edge>path:hover{stroke-width:8}</style>
<path fill="none" stroke="black" d="M474.62,-454.581C463.528,-434.952 446.732,-408.934 426.919,-390.366"/>
<path fill="none" stroke="black" d="M426.919,-388.366C292.988,-262.854 138.23,-463.858 18.9189,-324.375 -60.808,-231.169 140.435,-217.993 143.919,-202.401"/>
<path fill="none" stroke="black" d="M143.919,-200.401C154.337,-149.815 71.3991,-181.886 46.9189,-136.409 34.7042,-113.718 29.7823,-97.6731 46.9189,-78.4264 72.1379,-50.1021 299.929,-33.8447 433.484,-26.6694"/>
<polygon fill="#f91010" stroke="black" points="433.924,-30.1511 443.725,-26.127 433.554,-23.1609 433.924,-30.1511"/>
</g>
<!-- SimpleGUICS2Pygame_simpleguics2pygame__pygame_lib&#45;&gt;SimpleGUICS2Pygame_simpleguics2pygame__options -->
<g id="edge14" class="edge"><title>SimpleGUICS2Pygame_simpleguics2pygame__pygame_lib&#45;&gt;SimpleGUICS2Pygame_simpleguics2pygame__options</title><style>.edge>path:hover{stroke-width:8}</style>
<path fill="none" stroke="black" d="M840.919,-388.366C855.308,-350.101 823.028,-333.142 840.919,-296.383"/>
</g>
<!-- SimpleGUICS2Pygame_simpleguics2pygame__pygame_lib&#45;&gt;SimpleGUICS2Pygame_simpleguics2pygame__colors -->
<g id="edge11" class="edge"><title>SimpleGUICS2Pygame_simpleguics2pygame__pygame_lib&#45;&gt;SimpleGUICS2Pygame_simpleguics2pygame__colors</title><style>.edge>path:hover{stroke-width:8}</style>
<path fill="none" stroke="black" d="M426.919,-388.366C424.736,-386.221 281.989,-344.539 190.668,-318.029"/>
<polygon fill="#f91010" stroke="black" points="191.479,-314.62 180.9,-315.194 189.528,-321.343 191.479,-314.62"/>
</g>
<!-- SimpleGUICS2Pygame_simpleguics2pygame__pygame_lib&#45;&gt;SimpleGUICS2Pygame_simpleguics2pygame_control -->
<g id="edge16" class="edge"><title>SimpleGUICS2Pygame_simpleguics2pygame__pygame_lib&#45;&gt;SimpleGUICS2Pygame_simpleguics2pygame_control</title><style>.edge>path:hover{stroke-width:8}</style>
<path fill="none" stroke="black" d="M426.919,-388.366C387.015,-350.712 438.862,-311.698 407.919,-266.392 397.142,-250.613 381.093,-238.193 364.563,-228.661"/>
<polygon fill="#f91010" stroke="black" points="365.819,-225.36 355.361,-223.661 362.476,-231.511 365.819,-225.36"/>
</g>
<!-- SimpleGUICS2Pygame_simpleguics2pygame__pygame_lib&#45;&gt;SimpleGUICS2Pygame_simpleguics2pygame_canvas -->
<g id="edge15" class="edge"><title>SimpleGUICS2Pygame_simpleguics2pygame__pygame_lib&#45;&gt;SimpleGUICS2Pygame_simpleguics2pygame_canvas</title><style>.edge>path:hover{stroke-width:8}</style>
<path fill="none" stroke="black" d="M143.919,-200.401C147.775,-183.141 148.295,-163.602 147.643,-146.984"/>
<polygon fill="#f91010" stroke="black" points="151.113,-146.332 147.069,-136.539 144.124,-146.716 151.113,-146.332"/>
</g>
<!-- SimpleGUICS2Pygame_simpleguics2pygame__pygame_lib&#45;&gt;SimpleGUICS2Pygame_simpleguics2pygame__media -->
<g id="edge13" class="edge"><title>SimpleGUICS2Pygame_simpleguics2pygame__pygame_lib&#45;&gt;SimpleGUICS2Pygame_simpleguics2pygame__media</title><style>.edge>path:hover{stroke-width:8}</style>
<path fill="none" stroke="black" d="M553.678,-463.541C564.751,-460.414 576.153,-457.25 586.919,-454.357 699.347,-424.147 799.944,-499.333 840.919,-390.366"/>
<path fill="none" stroke="black" d="M840.919,-388.366C852.813,-356.736 823.183,-334.088 789.68,-319.18"/>
<polygon fill="#f91010" stroke="black" points="790.734,-315.827 780.159,-315.18 788.022,-322.28 790.734,-315.827"/>
</g>
<!-- SimpleGUICS2Pygame_simpleguics2pygame__pygame_lib&#45;&gt;SimpleGUICS2Pygame_simpleguics2pygame__fonts -->
<g id="edge12" class="edge"><title>SimpleGUICS2Pygame_simpleguics2pygame__pygame_lib&#45;&gt;SimpleGUICS2Pygame_simpleguics2pygame__fonts</title><style>.edge>path:hover{stroke-width:8}</style>
<path fill="none" stroke="black" d="M426.919,-388.366C404.715,-366.545 377.554,-344.781 355.097,-327.905"/>
<polygon fill="#f91010" stroke="black" points="357.166,-325.082 347.055,-321.918 352.986,-330.697 357.166,-325.082"/>
</g>
<!-- SimpleGUICS2Pygame_simpleguics2pygame_image -->
<g id="node11" class="node"><title>SimpleGUICS2Pygame_simpleguics2pygame_image</title><style>.edge>path:hover{stroke-width:8}</style>
<ellipse fill="#bc2f2f" stroke="black" cx="529.919" cy="-201.401" rx="88.2768" ry="28.9828"/>
<text text-anchor="middle" x="529.919" y="-209.901" font-family="Helvetica,sans-Serif" font-size="10.00" fill="#ffffff">SimpleGUICS2Pygame.</text>
<text text-anchor="middle" x="529.919" y="-198.901" font-family="Helvetica,sans-Serif" font-size="10.00" fill="#ffffff">simpleguics2pygame.</text>
<text text-anchor="middle" x="529.919" y="-187.901" font-family="Helvetica,sans-Serif" font-size="10.00" fill="#ffffff">image</text>
</g>
<!-- SimpleGUICS2Pygame_simpleguics2pygame__pygame_lib&#45;&gt;SimpleGUICS2Pygame_simpleguics2pygame_image -->
<g id="edge18" class="edge"><title>SimpleGUICS2Pygame_simpleguics2pygame__pygame_lib&#45;&gt;SimpleGUICS2Pygame_simpleguics2pygame_image</title><style>.edge>path:hover{stroke-width:8}</style>
<path fill="none" stroke="black" d="M426.919,-388.366C415.037,-376.689 471.151,-288.977 505.258,-238.293"/>
<polygon fill="#f91010" stroke="black" points="508.238,-240.135 510.939,-229.89 502.439,-236.214 508.238,-240.135"/>
</g>
<!-- SimpleGUICS2Pygame_simpleguics2pygame__options&#45;&gt;SimpleGUICS2Pygame_simpleguics2pygame -->
<g id="edge9" class="edge"><title>SimpleGUICS2Pygame_simpleguics2pygame__options&#45;&gt;SimpleGUICS2Pygame_simpleguics2pygame</title><style>.edge>path:hover{stroke-width:8}</style>
<path fill="none" stroke="black" d="M672.919,-83.9631C644.334,-71.6196 609.023,-56.3716 580.642,-44.1162"/>
<polygon fill="#9d4343" stroke="black" points="581.87,-40.8345 571.302,-40.0833 579.095,-47.2609 581.87,-40.8345"/>
</g>
<!-- SimpleGUICS2Pygame_simpleguics2pygame__colors&#45;&gt;SimpleGUICS2Pygame_simpleguics2pygame_control -->
<g id="edge2" class="edge"><title>SimpleGUICS2Pygame_simpleguics2pygame__colors&#45;&gt;SimpleGUICS2Pygame_simpleguics2pygame_control</title><style>.edge>path:hover{stroke-width:8}</style>
<path fill="none" stroke="black" d="M162.788,-270.695C186.896,-258.512 216.455,-243.572 241.774,-230.776"/>
<polygon fill="#bc2f2f" stroke="black" points="243.546,-233.802 250.892,-226.168 240.389,-227.555 243.546,-233.802"/>
</g>
<!-- SimpleGUICS2Pygame_simpleguics2pygame__colors&#45;&gt;SimpleGUICS2Pygame_simpleguics2pygame_canvas -->
<g id="edge1" class="edge"><title>SimpleGUICS2Pygame_simpleguics2pygame__colors&#45;&gt;SimpleGUICS2Pygame_simpleguics2pygame_canvas</title><style>.edge>path:hover{stroke-width:8}</style>
<path fill="none" stroke="black" d="M152.376,-268.843C172.256,-251.509 191.112,-227.291 181.919,-202.401"/>
<path fill="none" stroke="black" d="M181.919,-200.401C175.213,-182.245 167.1,-162.367 160.095,-145.75"/>
<polygon fill="#bc2f2f" stroke="black" points="163.247,-144.217 156.118,-136.38 156.804,-146.953 163.247,-144.217"/>
</g>
<!-- SimpleGUICS2Pygame_simpleguics2pygame_control&#45;&gt;SimpleGUICS2Pygame_simpleguics2pygame -->
<g id="edge21" class="edge"><title>SimpleGUICS2Pygame_simpleguics2pygame_control&#45;&gt;SimpleGUICS2Pygame_simpleguics2pygame</title><style>.edge>path:hover{stroke-width:8}</style>
<path fill="none" stroke="black" d="M371.952,-185.521C439.001,-169.863 527.677,-142.736 529.919,-108.418"/>
<path fill="none" stroke="black" d="M529.919,-106.418C531.073,-88.7575 531.135,-68.9692 530.881,-53.0151"/>
<polygon fill="#a13535" stroke="black" points="534.372,-52.5801 530.663,-42.6558 527.374,-52.7271 534.372,-52.5801"/>
</g>
<!-- SimpleGUICS2Pygame_simpleguics2pygame_canvas&#45;&gt;SimpleGUICS2Pygame_simpleguics2pygame -->
<g id="edge19" class="edge"><title>SimpleGUICS2Pygame_simpleguics2pygame_canvas&#45;&gt;SimpleGUICS2Pygame_simpleguics2pygame</title><style>.edge>path:hover{stroke-width:8}</style>
<path fill="none" stroke="black" d="M216.523,-90.5795C285.213,-75.5951 387.779,-53.2205 456.678,-38.1905"/>
<polygon fill="#993333" stroke="black" points="457.567,-41.579 466.591,-36.028 456.075,-34.7398 457.567,-41.579"/>
</g>
<!-- SimpleGUICS2Pygame_simpleguics2pygame_timer -->
<g id="node8" class="node"><title>SimpleGUICS2Pygame_simpleguics2pygame_timer</title><style>.edge>path:hover{stroke-width:8}</style>
<ellipse fill="#c24747" stroke="black" cx="683.919" cy="-483.349" rx="88.2768" ry="28.9828"/>
<text text-anchor="middle" x="683.919" y="-491.849" font-family="Helvetica,sans-Serif" font-size="10.00" fill="#ffffff">SimpleGUICS2Pygame.</text>
<text text-anchor="middle" x="683.919" y="-480.849" font-family="Helvetica,sans-Serif" font-size="10.00" fill="#ffffff">simpleguics2pygame.</text>
<text text-anchor="middle" x="683.919" y="-469.849" font-family="Helvetica,sans-Serif" font-size="10.00" fill="#ffffff">timer</text>
</g>
<!-- SimpleGUICS2Pygame_simpleguics2pygame_timer&#45;&gt;SimpleGUICS2Pygame_simpleguics2pygame_frame -->
<g id="edge38" class="edge"><title>SimpleGUICS2Pygame_simpleguics2pygame_timer&#45;&gt;SimpleGUICS2Pygame_simpleguics2pygame_frame</title><style>.edge>path:hover{stroke-width:8}</style>
<path fill="none" stroke="black" d="M653.83,-455.99C642.297,-445.887 628.988,-434.228 616.816,-423.565"/>
<polygon fill="#c24747" stroke="black" points="618.84,-420.685 609.012,-416.728 614.228,-425.951 618.84,-420.685"/>
</g>
<!-- SimpleGUICS2Pygame_simpleguics2pygame_timer&#45;&gt;SimpleGUICS2Pygame_simpleguics2pygame -->
<g id="edge37" class="edge"><title>SimpleGUICS2Pygame_simpleguics2pygame_timer&#45;&gt;SimpleGUICS2Pygame_simpleguics2pygame</title><style>.edge>path:hover{stroke-width:8}</style>
<path fill="none" stroke="black" d="M746.229,-462.67C787.296,-449.016 836.733,-431.07 854.919,-418.357 868.35,-408.969 872.509,-405.448 878.919,-390.366"/>
<path fill="none" stroke="black" d="M878.919,-388.366C894.91,-350.742 855.487,-329.883 878.919,-296.383"/>
</g>
<!-- SimpleGUICS2Pygame_simpleguics2pygame__media&#45;&gt;SimpleGUICS2Pygame_simpleguics2pygame_image -->
<g id="edge7" class="edge"><title>SimpleGUICS2Pygame_simpleguics2pygame__media&#45;&gt;SimpleGUICS2Pygame_simpleguics2pygame_image</title><style>.edge>path:hover{stroke-width:8}</style>
<path fill="none" stroke="black" d="M667.277,-270.695C642.677,-258.464 612.491,-243.456 586.689,-230.627"/>
<polygon fill="#b03a3a" stroke="black" points="587.912,-227.326 577.4,-226.008 584.796,-233.594 587.912,-227.326"/>
</g>
<!-- SimpleGUICS2Pygame_simpleguics2pygame_sound -->
<g id="node12" class="node"><title>SimpleGUICS2Pygame_simpleguics2pygame_sound</title><style>.edge>path:hover{stroke-width:8}</style>
<ellipse fill="#b83d3d" stroke="black" cx="724.919" cy="-201.401" rx="88.2768" ry="28.9828"/>
<text text-anchor="middle" x="724.919" y="-209.901" font-family="Helvetica,sans-Serif" font-size="10.00" fill="#ffffff">SimpleGUICS2Pygame.</text>
<text text-anchor="middle" x="724.919" y="-198.901" font-family="Helvetica,sans-Serif" font-size="10.00" fill="#ffffff">simpleguics2pygame.</text>
<text text-anchor="middle" x="724.919" y="-187.901" font-family="Helvetica,sans-Serif" font-size="10.00" fill="#ffffff">sound</text>
</g>
<!-- SimpleGUICS2Pygame_simpleguics2pygame__media&#45;&gt;SimpleGUICS2Pygame_simpleguics2pygame_sound -->
<g id="edge8" class="edge"><title>SimpleGUICS2Pygame_simpleguics2pygame__media&#45;&gt;SimpleGUICS2Pygame_simpleguics2pygame_sound</title><style>.edge>path:hover{stroke-width:8}</style>
<path fill="none" stroke="black" d="M717.974,-266.286C718.847,-258.248 719.815,-249.346 720.744,-240.803"/>
<polygon fill="#b03a3a" stroke="black" points="724.247,-240.963 721.849,-230.643 717.288,-240.206 724.247,-240.963"/>
</g>
<!-- SimpleGUICS2Pygame_simpleguics2pygame__fonts&#45;&gt;SimpleGUICS2Pygame_simpleguics2pygame_control -->
<g id="edge5" class="edge"><title>SimpleGUICS2Pygame_simpleguics2pygame__fonts&#45;&gt;SimpleGUICS2Pygame_simpleguics2pygame_control</title><style>.edge>path:hover{stroke-width:8}</style>
<path fill="none" stroke="black" d="M306.948,-266.286C305.812,-258.248 304.554,-249.346 303.346,-240.803"/>
<polygon fill="#bc2f2f" stroke="black" points="306.776,-240.055 301.91,-230.643 299.844,-241.035 306.776,-240.055"/>
</g>
<!-- SimpleGUICS2Pygame_simpleguics2pygame__fonts&#45;&gt;SimpleGUICS2Pygame_simpleguics2pygame_canvas -->
<g id="edge4" class="edge"><title>SimpleGUICS2Pygame_simpleguics2pygame__fonts&#45;&gt;SimpleGUICS2Pygame_simpleguics2pygame_canvas</title><style>.edge>path:hover{stroke-width:8}</style>
<path fill="none" stroke="black" d="M254.883,-272.815C225.865,-258.063 194.022,-235.17 181.919,-202.401"/>
</g>
<!-- SimpleGUICS2Pygame_simpleguics2pygame_image&#45;&gt;SimpleGUICS2Pygame_simpleguics2pygame_frame -->
<g id="edge32" class="edge"><title>SimpleGUICS2Pygame_simpleguics2pygame_image&#45;&gt;SimpleGUICS2Pygame_simpleguics2pygame_frame</title><style>.edge>path:hover{stroke-width:8}</style>
<path fill="none" stroke="black" d="M542.097,-230.377C546.583,-241.442 551.417,-254.368 554.919,-266.392 562.944,-293.951 569.109,-325.797 573.18,-350.037"/>
<polygon fill="#bc2f2f" stroke="black" points="569.728,-350.62 574.795,-359.925 576.637,-349.491 569.728,-350.62"/>
</g>
<!-- SimpleGUICS2Pygame_simpleguics2pygame_image&#45;&gt;SimpleGUICS2Pygame_simpleguics2pygame -->
<g id="edge30" class="edge"><title>SimpleGUICS2Pygame_simpleguics2pygame_image&#45;&gt;SimpleGUICS2Pygame_simpleguics2pygame</title><style>.edge>path:hover{stroke-width:8}</style>
<path fill="none" stroke="black" d="M528.968,-172.189C528.589,-153.972 528.524,-129.771 529.919,-108.418"/>
</g>
<!-- SimpleGUICS2Pygame_simpleguics2pygame_image&#45;&gt;SimpleGUICS2Pygame_simpleguics2pygame_canvas -->
<g id="edge31" class="edge"><title>SimpleGUICS2Pygame_simpleguics2pygame_image&#45;&gt;SimpleGUICS2Pygame_simpleguics2pygame_canvas</title><style>.edge>path:hover{stroke-width:8}</style>
<path fill="none" stroke="black" d="M464.193,-181.884C452.153,-178.628 439.677,-175.346 427.919,-172.409 360.497,-155.572 283.575,-138.362 226.806,-126.036"/>
<polygon fill="#bc2f2f" stroke="black" points="227.319,-122.566 216.804,-123.87 225.837,-129.407 227.319,-122.566"/>
</g>
<!-- SimpleGUICS2Pygame_simpleguics2pygame_sound&#45;&gt;SimpleGUICS2Pygame_simpleguics2pygame -->
<g id="edge35" class="edge"><title>SimpleGUICS2Pygame_simpleguics2pygame_sound&#45;&gt;SimpleGUICS2Pygame_simpleguics2pygame</title><style>.edge>path:hover{stroke-width:8}</style>
<path fill="none" stroke="black" d="M667.344,-179.335C609.473,-157.277 528.917,-123.755 529.919,-108.418"/>
</g>
<!-- SimpleGUICS2Pygame_simpleguics2pygame_sound&#45;&gt;SimpleGUICS2Pygame_simpleguics2pygame__options -->
<g id="edge36" class="edge"><title>SimpleGUICS2Pygame_simpleguics2pygame_sound&#45;&gt;SimpleGUICS2Pygame_simpleguics2pygame__options</title><style>.edge>path:hover{stroke-width:8}</style>
<path fill="none" stroke="black" d="M724.919,-172.303C724.919,-164.265 724.919,-155.363 724.919,-146.82"/>
<polygon fill="#b83d3d" stroke="black" points="728.419,-146.66 724.919,-136.66 721.419,-146.66 728.419,-146.66"/>
</g>
<!-- SimpleGUICS2Pygame_simpleguics2pygame_keys -->
<g id="node13" class="node"><title>SimpleGUICS2Pygame_simpleguics2pygame_keys</title><style>.edge>path:hover{stroke-width:8}</style>
<ellipse fill="#c24747" stroke="black" cx="878.919" cy="-483.349" rx="88.2768" ry="28.9828"/>
<text text-anchor="middle" x="878.919" y="-491.849" font-family="Helvetica,sans-Serif" font-size="10.00" fill="#ffffff">SimpleGUICS2Pygame.</text>
<text text-anchor="middle" x="878.919" y="-480.849" font-family="Helvetica,sans-Serif" font-size="10.00" fill="#ffffff">simpleguics2pygame.</text>
<text text-anchor="middle" x="878.919" y="-469.849" font-family="Helvetica,sans-Serif" font-size="10.00" fill="#ffffff">keys</text>
</g>
<!-- SimpleGUICS2Pygame_simpleguics2pygame_keys&#45;&gt;SimpleGUICS2Pygame_simpleguics2pygame_frame -->
<g id="edge34" class="edge"><title>SimpleGUICS2Pygame_simpleguics2pygame_keys&#45;&gt;SimpleGUICS2Pygame_simpleguics2pygame_frame</title><style>.edge>path:hover{stroke-width:8}</style>
<path fill="none" stroke="black" d="M815.663,-462.954C767.798,-448.278 701.977,-428.097 651.887,-412.739"/>
<polygon fill="#c24747" stroke="black" points="652.675,-409.32 642.088,-409.734 650.623,-416.012 652.675,-409.32"/>
</g>
<!-- SimpleGUICS2Pygame_simpleguics2pygame_keys&#45;&gt;SimpleGUICS2Pygame_simpleguics2pygame -->
<g id="edge33" class="edge"><title>SimpleGUICS2Pygame_simpleguics2pygame_keys&#45;&gt;SimpleGUICS2Pygame_simpleguics2pygame</title><style>.edge>path:hover{stroke-width:8}</style>
<path fill="none" stroke="black" d="M873.372,-454.252C870.963,-435.428 870.361,-410.501 878.919,-390.366"/>
</g>
</g>
</svg>
