<?xml version="1.0" encoding="UTF-8" standalone="no"?>
<!DOCTYPE svg PUBLIC "-//W3C//DTD SVG 1.1//EN"
 "http://www.w3.org/Graphics/SVG/1.1/DTD/svg11.dtd">
<!-- Generated by graphviz version 2.38.0 (20140413.2041)
 -->
<!-- Title: G Pages: 1 -->
<svg width="1044pt" height="520pt"
 viewBox="0.00 0.00 1044.20 520.34" xmlns="http://www.w3.org/2000/svg" xmlns:xlink="http://www.w3.org/1999/xlink">
<g id="graph0" class="graph" transform="scale(1 1) rotate(0) translate(4 516.34)">
<title>G</title><style>.edge>path:hover{stroke-width:8}</style>
<polygon fill="white" stroke="none" points="-4,4 -4,-516.34 1040.2,-516.34 1040.2,4 -4,4"/>
<!-- SimpleGUICS2Pygame_simpleguics2pygame__fonts -->
<g id="node1" class="node"><title>SimpleGUICS2Pygame_simpleguics2pygame__fonts</title><style>.edge>path:hover{stroke-width:8}</style>
<ellipse fill="#bc2f2f" stroke="black" cx="670.329" cy="-295.383" rx="88.2768" ry="28.9828"/>
<text text-anchor="middle" x="670.329" y="-303.883" font-family="Helvetica,sans-Serif" font-size="10.00" fill="#ffffff">SimpleGUICS2Pygame.</text>
<text text-anchor="middle" x="670.329" y="-292.883" font-family="Helvetica,sans-Serif" font-size="10.00" fill="#ffffff">simpleguics2pygame.</text>
<text text-anchor="middle" x="670.329" y="-281.883" font-family="Helvetica,sans-Serif" font-size="10.00" fill="#ffffff">_fonts</text>
</g>
<!-- SimpleGUICS2Pygame_simpleguics2pygame_canvas -->
<g id="node4" class="node"><title>SimpleGUICS2Pygame_simpleguics2pygame_canvas</title><style>.edge>path:hover{stroke-width:8}</style>
<ellipse fill="#a13535" stroke="black" cx="670.329" cy="-201.401" rx="88.2768" ry="28.9828"/>
<text text-anchor="middle" x="670.329" y="-209.901" font-family="Helvetica,sans-Serif" font-size="10.00" fill="#ffffff">SimpleGUICS2Pygame.</text>
<text text-anchor="middle" x="670.329" y="-198.901" font-family="Helvetica,sans-Serif" font-size="10.00" fill="#ffffff">simpleguics2pygame.</text>
<text text-anchor="middle" x="670.329" y="-187.901" font-family="Helvetica,sans-Serif" font-size="10.00" fill="#ffffff">canvas</text>
</g>
<!-- SimpleGUICS2Pygame_simpleguics2pygame__fonts&#45;&gt;SimpleGUICS2Pygame_simpleguics2pygame_canvas -->
<g id="edge10" class="edge"><title>SimpleGUICS2Pygame_simpleguics2pygame__fonts&#45;&gt;SimpleGUICS2Pygame_simpleguics2pygame_canvas</title><style>.edge>path:hover{stroke-width:8}</style>
<path fill="none" stroke="black" d="M670.329,-266.286C670.329,-258.248 670.329,-249.346 670.329,-240.803"/>
<polygon fill="#bc2f2f" stroke="black" points="673.829,-240.643 670.329,-230.643 666.829,-240.643 673.829,-240.643"/>
</g>
<!-- SimpleGUICS2Pygame_simpleguics2pygame_frame -->
<g id="node7" class="node"><title>SimpleGUICS2Pygame_simpleguics2pygame_frame</title><style>.edge>path:hover{stroke-width:8}</style>
<ellipse fill="#6b2e2e" stroke="black" cx="572.329" cy="-107.418" rx="88.2768" ry="28.9828"/>
<text text-anchor="middle" x="572.329" y="-115.918" font-family="Helvetica,sans-Serif" font-size="10.00" fill="#ffffff">SimpleGUICS2Pygame.</text>
<text text-anchor="middle" x="572.329" y="-104.918" font-family="Helvetica,sans-Serif" font-size="10.00" fill="#ffffff">simpleguics2pygame.</text>
<text text-anchor="middle" x="572.329" y="-93.9178" font-family="Helvetica,sans-Serif" font-size="10.00" fill="#ffffff">frame</text>
</g>
<!-- SimpleGUICS2Pygame_simpleguics2pygame__fonts&#45;&gt;SimpleGUICS2Pygame_simpleguics2pygame_frame -->
<g id="edge12" class="edge"><title>SimpleGUICS2Pygame_simpleguics2pygame__fonts&#45;&gt;SimpleGUICS2Pygame_simpleguics2pygame_frame</title><style>.edge>path:hover{stroke-width:8}</style>
<path fill="none" stroke="black" d="M612.486,-273.43C552.347,-250.771 467.883,-216.061 475.329,-202.401"/>
</g>
<!-- SimpleGUICS2Pygame_simpleguics2pygame_control -->
<g id="node9" class="node"><title>SimpleGUICS2Pygame_simpleguics2pygame_control</title><style>.edge>path:hover{stroke-width:8}</style>
<ellipse fill="#a83838" stroke="black" cx="902.329" cy="-201.401" rx="88.2768" ry="28.9828"/>
<text text-anchor="middle" x="902.329" y="-209.901" font-family="Helvetica,sans-Serif" font-size="10.00" fill="#ffffff">SimpleGUICS2Pygame.</text>
<text text-anchor="middle" x="902.329" y="-198.901" font-family="Helvetica,sans-Serif" font-size="10.00" fill="#ffffff">simpleguics2pygame.</text>
<text text-anchor="middle" x="902.329" y="-187.901" font-family="Helvetica,sans-Serif" font-size="10.00" fill="#ffffff">control</text>
</g>
<!-- SimpleGUICS2Pygame_simpleguics2pygame__fonts&#45;&gt;SimpleGUICS2Pygame_simpleguics2pygame_control -->
<g id="edge11" class="edge"><title>SimpleGUICS2Pygame_simpleguics2pygame__fonts&#45;&gt;SimpleGUICS2Pygame_simpleguics2pygame_control</title><style>.edge>path:hover{stroke-width:8}</style>
<path fill="none" stroke="black" d="M725.31,-272.585C758.992,-259.231 802.269,-242.072 837.601,-228.064"/>
<polygon fill="#bc2f2f" stroke="black" points="839.336,-231.141 847.342,-224.202 836.756,-224.634 839.336,-231.141"/>
</g>
<!-- SimpleGUICS2Pygame_simpleguics2pygame__media -->
<g id="node2" class="node"><title>SimpleGUICS2Pygame_simpleguics2pygame__media</title><style>.edge>path:hover{stroke-width:8}</style>
<ellipse fill="#bc2f2f" stroke="black" cx="388.329" cy="-389.366" rx="88.2768" ry="28.9828"/>
<text text-anchor="middle" x="388.329" y="-397.866" font-family="Helvetica,sans-Serif" font-size="10.00" fill="#ffffff">SimpleGUICS2Pygame.</text>
<text text-anchor="middle" x="388.329" y="-386.866" font-family="Helvetica,sans-Serif" font-size="10.00" fill="#ffffff">simpleguics2pygame.</text>
<text text-anchor="middle" x="388.329" y="-375.866" font-family="Helvetica,sans-Serif" font-size="10.00" fill="#ffffff">_media</text>
</g>
<!-- SimpleGUICS2Pygame_simpleguics2pygame__media&#45;&gt;SimpleGUICS2Pygame_simpleguics2pygame_frame -->
<g id="edge13" class="edge"><title>SimpleGUICS2Pygame_simpleguics2pygame__media&#45;&gt;SimpleGUICS2Pygame_simpleguics2pygame_frame</title><style>.edge>path:hover{stroke-width:8}</style>
<path fill="none" stroke="black" d="M376.033,-360.431C369.036,-342.528 361.285,-318.567 359.329,-296.383"/>
<path fill="none" stroke="black" d="M359.329,-294.383C358.008,-279.406 366.862,-276.118 378.329,-266.392 407.447,-241.695 427.211,-255.089 456.329,-230.392 467.796,-220.666 468.133,-215.603 475.329,-202.401"/>
</g>
<!-- SimpleGUICS2Pygame_simpleguics2pygame_sound -->
<g id="node11" class="node"><title>SimpleGUICS2Pygame_simpleguics2pygame_sound</title><style>.edge>path:hover{stroke-width:8}</style>
<ellipse fill="#a44646" stroke="black" cx="127.329" cy="-295.383" rx="88.2768" ry="28.9828"/>
<text text-anchor="middle" x="127.329" y="-303.883" font-family="Helvetica,sans-Serif" font-size="10.00" fill="#ffffff">SimpleGUICS2Pygame.</text>
<text text-anchor="middle" x="127.329" y="-292.883" font-family="Helvetica,sans-Serif" font-size="10.00" fill="#ffffff">simpleguics2pygame.</text>
<text text-anchor="middle" x="127.329" y="-281.883" font-family="Helvetica,sans-Serif" font-size="10.00" fill="#ffffff">sound</text>
</g>
<!-- SimpleGUICS2Pygame_simpleguics2pygame__media&#45;&gt;SimpleGUICS2Pygame_simpleguics2pygame_sound -->
<g id="edge15" class="edge"><title>SimpleGUICS2Pygame_simpleguics2pygame__media&#45;&gt;SimpleGUICS2Pygame_simpleguics2pygame_sound</title><style>.edge>path:hover{stroke-width:8}</style>
<path fill="none" stroke="black" d="M329.43,-367.609C289.677,-353.599 237.085,-335.064 195.516,-320.414"/>
<polygon fill="#bc2f2f" stroke="black" points="196.609,-317.088 186.014,-317.065 194.282,-323.69 196.609,-317.088"/>
</g>
<!-- SimpleGUICS2Pygame_simpleguics2pygame_image -->
<g id="node12" class="node"><title>SimpleGUICS2Pygame_simpleguics2pygame_image</title><style>.edge>path:hover{stroke-width:8}</style>
<ellipse fill="#bc2f2f" stroke="black" cx="475.329" cy="-295.383" rx="88.2768" ry="28.9828"/>
<text text-anchor="middle" x="475.329" y="-303.883" font-family="Helvetica,sans-Serif" font-size="10.00" fill="#ffffff">SimpleGUICS2Pygame.</text>
<text text-anchor="middle" x="475.329" y="-292.883" font-family="Helvetica,sans-Serif" font-size="10.00" fill="#ffffff">simpleguics2pygame.</text>
<text text-anchor="middle" x="475.329" y="-281.883" font-family="Helvetica,sans-Serif" font-size="10.00" fill="#ffffff">image</text>
</g>
<!-- SimpleGUICS2Pygame_simpleguics2pygame__media&#45;&gt;SimpleGUICS2Pygame_simpleguics2pygame_image -->
<g id="edge14" class="edge"><title>SimpleGUICS2Pygame_simpleguics2pygame__media&#45;&gt;SimpleGUICS2Pygame_simpleguics2pygame_image</title><style>.edge>path:hover{stroke-width:8}</style>
<path fill="none" stroke="black" d="M413.962,-361.266C422.988,-351.722 433.258,-340.865 442.778,-330.798"/>
<polygon fill="#bc2f2f" stroke="black" points="445.551,-332.96 449.88,-323.29 440.466,-328.15 445.551,-332.96"/>
</g>
<!-- SimpleGUICS2Pygame_simpleguics2pygame_timer -->
<g id="node3" class="node"><title>SimpleGUICS2Pygame_simpleguics2pygame_timer</title><style>.edge>path:hover{stroke-width:8}</style>
<ellipse fill="#b83d3d" stroke="black" cx="127.329" cy="-201.401" rx="88.2768" ry="28.9828"/>
<text text-anchor="middle" x="127.329" y="-209.901" font-family="Helvetica,sans-Serif" font-size="10.00" fill="#ffffff">SimpleGUICS2Pygame.</text>
<text text-anchor="middle" x="127.329" y="-198.901" font-family="Helvetica,sans-Serif" font-size="10.00" fill="#ffffff">simpleguics2pygame.</text>
<text text-anchor="middle" x="127.329" y="-187.901" font-family="Helvetica,sans-Serif" font-size="10.00" fill="#ffffff">timer</text>
</g>
<!-- SimpleGUICS2Pygame_simpleguics2pygame_timer&#45;&gt;SimpleGUICS2Pygame_simpleguics2pygame_frame -->
<g id="edge36" class="edge"><title>SimpleGUICS2Pygame_simpleguics2pygame_timer&#45;&gt;SimpleGUICS2Pygame_simpleguics2pygame_frame</title><style>.edge>path:hover{stroke-width:8}</style>
<path fill="none" stroke="black" d="M200.895,-185.135C220.829,-181.002 242.406,-176.531 262.329,-172.409 339.08,-156.531 426.528,-138.483 488.934,-125.612"/>
<polygon fill="#b83d3d" stroke="black" points="489.642,-129.039 498.729,-123.592 488.228,-122.184 489.642,-129.039"/>
</g>
<!-- SimpleGUICS2Pygame_simpleguics2pygame -->
<g id="node10" class="node"><title>SimpleGUICS2Pygame_simpleguics2pygame</title><style>.edge>path:hover{stroke-width:8}</style>
<ellipse fill="#9f0404" stroke="black" cx="572.329" cy="-21.2132" rx="88.2768" ry="21.4286"/>
<text text-anchor="middle" x="572.329" y="-24.2132" font-family="Helvetica,sans-Serif" font-size="10.00" fill="#ffffff">SimpleGUICS2Pygame.</text>
<text text-anchor="middle" x="572.329" y="-13.2132" font-family="Helvetica,sans-Serif" font-size="10.00" fill="#ffffff">simpleguics2pygame</text>
</g>
<!-- SimpleGUICS2Pygame_simpleguics2pygame_timer&#45;&gt;SimpleGUICS2Pygame_simpleguics2pygame -->
<g id="edge35" class="edge"><title>SimpleGUICS2Pygame_simpleguics2pygame_timer&#45;&gt;SimpleGUICS2Pygame_simpleguics2pygame</title><style>.edge>path:hover{stroke-width:8}</style>
<path fill="none" stroke="black" d="M159.38,-174.042C182.424,-155.325 214.405,-129.822 243.329,-108.418"/>
</g>
<!-- SimpleGUICS2Pygame_simpleguics2pygame_canvas&#45;&gt;SimpleGUICS2Pygame_simpleguics2pygame_frame -->
<g id="edge25" class="edge"><title>SimpleGUICS2Pygame_simpleguics2pygame_canvas&#45;&gt;SimpleGUICS2Pygame_simpleguics2pygame_frame</title><style>.edge>path:hover{stroke-width:8}</style>
<path fill="none" stroke="black" d="M641.984,-173.795C631.42,-163.88 619.288,-152.493 608.14,-142.03"/>
<polygon fill="#a13535" stroke="black" points="610.298,-139.255 600.611,-134.963 605.507,-144.359 610.298,-139.255"/>
</g>
<!-- SimpleGUICS2Pygame_simpleguics2pygame_canvas&#45;&gt;SimpleGUICS2Pygame_simpleguics2pygame -->
<g id="edge24" class="edge"><title>SimpleGUICS2Pygame_simpleguics2pygame_canvas&#45;&gt;SimpleGUICS2Pygame_simpleguics2pygame</title><style>.edge>path:hover{stroke-width:8}</style>
<path fill="none" stroke="black" d="M743.078,-184.925C845.83,-162.554 1020.83,-122.334 1018.33,-108.418"/>
<path fill="none" stroke="black" d="M1018.33,-106.418C1006.04,-37.9354 798.479,-23.865 670.896,-21.7252"/>
<polygon fill="#a13535" stroke="black" points="670.763,-18.223 660.713,-21.5768 670.66,-25.2223 670.763,-18.223"/>
</g>
<!-- SimpleGUICS2Pygame_simpleguics2pygame__colors -->
<g id="node5" class="node"><title>SimpleGUICS2Pygame_simpleguics2pygame__colors</title><style>.edge>path:hover{stroke-width:8}</style>
<ellipse fill="#c43131" stroke="black" cx="902.329" cy="-295.383" rx="88.2768" ry="28.9828"/>
<text text-anchor="middle" x="902.329" y="-303.883" font-family="Helvetica,sans-Serif" font-size="10.00" fill="#ffffff">SimpleGUICS2Pygame.</text>
<text text-anchor="middle" x="902.329" y="-292.883" font-family="Helvetica,sans-Serif" font-size="10.00" fill="#ffffff">simpleguics2pygame.</text>
<text text-anchor="middle" x="902.329" y="-281.883" font-family="Helvetica,sans-Serif" font-size="10.00" fill="#ffffff">_colors</text>
</g>
<!-- SimpleGUICS2Pygame_simpleguics2pygame__colors&#45;&gt;SimpleGUICS2Pygame_simpleguics2pygame_canvas -->
<g id="edge7" class="edge"><title>SimpleGUICS2Pygame_simpleguics2pygame__colors&#45;&gt;SimpleGUICS2Pygame_simpleguics2pygame_canvas</title><style>.edge>path:hover{stroke-width:8}</style>
<path fill="none" stroke="black" d="M847.348,-272.585C813.666,-259.231 770.389,-242.072 735.057,-228.064"/>
<polygon fill="#c43131" stroke="black" points="735.903,-224.634 725.317,-224.202 733.323,-231.141 735.903,-224.634"/>
</g>
<!-- SimpleGUICS2Pygame_simpleguics2pygame__colors&#45;&gt;SimpleGUICS2Pygame_simpleguics2pygame_frame -->
<g id="edge9" class="edge"><title>SimpleGUICS2Pygame_simpleguics2pygame__colors&#45;&gt;SimpleGUICS2Pygame_simpleguics2pygame_frame</title><style>.edge>path:hover{stroke-width:8}</style>
<path fill="none" stroke="black" d="M857.49,-270.121C840.017,-259.367 820.57,-245.679 805.329,-230.392 783.575,-208.572 791.785,-191.151 767.329,-172.409 736.308,-148.637 696.072,-133.488 660.211,-123.937"/>
<polygon fill="#c43131" stroke="black" points="660.779,-120.47 650.224,-121.389 659.048,-127.253 660.779,-120.47"/>
</g>
<!-- SimpleGUICS2Pygame_simpleguics2pygame__colors&#45;&gt;SimpleGUICS2Pygame_simpleguics2pygame_control -->
<g id="edge8" class="edge"><title>SimpleGUICS2Pygame_simpleguics2pygame__colors&#45;&gt;SimpleGUICS2Pygame_simpleguics2pygame_control</title><style>.edge>path:hover{stroke-width:8}</style>
<path fill="none" stroke="black" d="M902.329,-266.286C902.329,-258.248 902.329,-249.346 902.329,-240.803"/>
<polygon fill="#c43131" stroke="black" points="905.829,-240.643 902.329,-230.643 898.829,-240.643 905.829,-240.643"/>
</g>
<!-- SimpleGUICS2Pygame_simpleguics2pygame_keys -->
<g id="node6" class="node"><title>SimpleGUICS2Pygame_simpleguics2pygame_keys</title><style>.edge>path:hover{stroke-width:8}</style>
<ellipse fill="#c24747" stroke="black" cx="359.329" cy="-201.401" rx="88.2768" ry="28.9828"/>
<text text-anchor="middle" x="359.329" y="-209.901" font-family="Helvetica,sans-Serif" font-size="10.00" fill="#ffffff">SimpleGUICS2Pygame.</text>
<text text-anchor="middle" x="359.329" y="-198.901" font-family="Helvetica,sans-Serif" font-size="10.00" fill="#ffffff">simpleguics2pygame.</text>
<text text-anchor="middle" x="359.329" y="-187.901" font-family="Helvetica,sans-Serif" font-size="10.00" fill="#ffffff">keys</text>
</g>
<!-- SimpleGUICS2Pygame_simpleguics2pygame_keys&#45;&gt;SimpleGUICS2Pygame_simpleguics2pygame_frame -->
<g id="edge33" class="edge"><title>SimpleGUICS2Pygame_simpleguics2pygame_keys&#45;&gt;SimpleGUICS2Pygame_simpleguics2pygame_frame</title><style>.edge>path:hover{stroke-width:8}</style>
<path fill="none" stroke="black" d="M411.435,-177.899C441.348,-164.981 479.086,-148.684 510.495,-135.121"/>
<polygon fill="#c24747" stroke="black" points="512.23,-138.184 520.023,-131.006 509.455,-131.757 512.23,-138.184"/>
</g>
<!-- SimpleGUICS2Pygame_simpleguics2pygame_keys&#45;&gt;SimpleGUICS2Pygame_simpleguics2pygame -->
<g id="edge32" class="edge"><title>SimpleGUICS2Pygame_simpleguics2pygame_keys&#45;&gt;SimpleGUICS2Pygame_simpleguics2pygame</title><style>.edge>path:hover{stroke-width:8}</style>
<path fill="none" stroke="black" d="M302.754,-179.072C259.327,-160.096 211.719,-131.809 243.329,-108.418"/>
</g>
<!-- SimpleGUICS2Pygame_simpleguics2pygame_frame&#45;&gt;SimpleGUICS2Pygame_simpleguics2pygame -->
<g id="edge28" class="edge"><title>SimpleGUICS2Pygame_simpleguics2pygame_frame&#45;&gt;SimpleGUICS2Pygame_simpleguics2pygame</title><style>.edge>path:hover{stroke-width:8}</style>
<path fill="none" stroke="black" d="M572.329,-78.3789C572.329,-70.171 572.329,-61.1574 572.329,-52.7997"/>
<polygon fill="#6b2e2e" stroke="black" points="575.829,-52.674 572.329,-42.674 568.829,-52.6741 575.829,-52.674"/>
</g>
<!-- SimpleGUICS2Pygame_simpleguics2pygame__arguments -->
<g id="node8" class="node"><title>SimpleGUICS2Pygame_simpleguics2pygame__arguments</title><style>.edge>path:hover{stroke-width:8}</style>
<ellipse fill="#f31616" stroke="black" cx="388.329" cy="-483.349" rx="88.2768" ry="28.9828"/>
<text text-anchor="middle" x="388.329" y="-491.849" font-family="Helvetica,sans-Serif" font-size="10.00" fill="#ffffff">SimpleGUICS2Pygame.</text>
<text text-anchor="middle" x="388.329" y="-480.849" font-family="Helvetica,sans-Serif" font-size="10.00" fill="#ffffff">simpleguics2pygame.</text>
<text text-anchor="middle" x="388.329" y="-469.849" font-family="Helvetica,sans-Serif" font-size="10.00" fill="#ffffff">_arguments</text>
</g>
<!-- SimpleGUICS2Pygame_simpleguics2pygame__arguments&#45;&gt;SimpleGUICS2Pygame_simpleguics2pygame__fonts -->
<g id="edge2" class="edge"><title>SimpleGUICS2Pygame_simpleguics2pygame__arguments&#45;&gt;SimpleGUICS2Pygame_simpleguics2pygame__fonts</title><style>.edge>path:hover{stroke-width:8}</style>
<path fill="none" stroke="black" d="M426.654,-457.075C477.829,-423.328 568.415,-363.591 623.554,-327.229"/>
<polygon fill="#f31616" stroke="black" points="625.666,-330.029 632.088,-321.602 621.813,-324.185 625.666,-330.029"/>
</g>
<!-- SimpleGUICS2Pygame_simpleguics2pygame__arguments&#45;&gt;SimpleGUICS2Pygame_simpleguics2pygame__media -->
<g id="edge3" class="edge"><title>SimpleGUICS2Pygame_simpleguics2pygame__arguments&#45;&gt;SimpleGUICS2Pygame_simpleguics2pygame__media</title><style>.edge>path:hover{stroke-width:8}</style>
<path fill="none" stroke="black" d="M388.329,-454.251C388.329,-446.213 388.329,-437.311 388.329,-428.768"/>
<polygon fill="#f31616" stroke="black" points="391.829,-428.609 388.329,-418.609 384.829,-428.609 391.829,-428.609"/>
</g>
<!-- SimpleGUICS2Pygame_simpleguics2pygame__arguments&#45;&gt;SimpleGUICS2Pygame_simpleguics2pygame_timer -->
<g id="edge6" class="edge"><title>SimpleGUICS2Pygame_simpleguics2pygame__arguments&#45;&gt;SimpleGUICS2Pygame_simpleguics2pygame_timer</title><style>.edge>path:hover{stroke-width:8}</style>
<path fill="none" stroke="black" d="M214.329,-388.366C168.237,-345.842 301.59,-355.908 321.329,-296.383"/>
<path fill="none" stroke="black" d="M321.329,-294.383C325.921,-280.538 252.362,-249.233 194.509,-226.997"/>
<polygon fill="#f31616" stroke="black" points="195.6,-223.667 185.009,-223.372 193.104,-230.207 195.6,-223.667"/>
</g>
<!-- SimpleGUICS2Pygame_simpleguics2pygame__arguments&#45;&gt;SimpleGUICS2Pygame_simpleguics2pygame_frame -->
<g id="edge4" class="edge"><title>SimpleGUICS2Pygame_simpleguics2pygame__arguments&#45;&gt;SimpleGUICS2Pygame_simpleguics2pygame_frame</title><style>.edge>path:hover{stroke-width:8}</style>
<path fill="none" stroke="black" d="M321.329,-294.383C342.229,-231.359 403.231,-270.26 456.329,-230.392 468.353,-221.364 468.133,-215.603 475.329,-202.401"/>
<path fill="none" stroke="black" d="M475.329,-200.401C487.964,-177.221 508.522,-156.48 527.467,-140.587"/>
<polygon fill="#f31616" stroke="black" points="529.915,-143.107 535.46,-134.079 525.495,-137.679 529.915,-143.107"/>
</g>
<!-- SimpleGUICS2Pygame_simpleguics2pygame__arguments&#45;&gt;SimpleGUICS2Pygame_simpleguics2pygame -->
<g id="edge1" class="edge"><title>SimpleGUICS2Pygame_simpleguics2pygame__arguments&#45;&gt;SimpleGUICS2Pygame_simpleguics2pygame</title><style>.edge>path:hover{stroke-width:8}</style>
<path fill="none" stroke="black" d="M331.182,-461.09C294.767,-445.515 248.233,-421.646 214.329,-390.366"/>
<path fill="none" stroke="black" d="M214.329,-388.366C150.693,-329.656 85.7962,-390.857 30.3292,-324.375 -4.81846,-282.247 -5.74638,-254.54 11.3292,-202.401"/>
<path fill="none" stroke="black" d="M11.3292,-200.401C44.1407,-96.8917 225.938,-121.313 243.329,-108.418"/>
<path fill="none" stroke="black" d="M243.329,-106.418C311.039,-56.2115 405.733,-35.8202 476.153,-27.6011"/>
<polygon fill="#f31616" stroke="black" points="476.805,-31.0505 486.361,-26.4746 476.037,-24.0927 476.805,-31.0505"/>
</g>
<!-- SimpleGUICS2Pygame_simpleguics2pygame__arguments&#45;&gt;SimpleGUICS2Pygame_simpleguics2pygame_sound -->
<g id="edge5" class="edge"><title>SimpleGUICS2Pygame_simpleguics2pygame__arguments&#45;&gt;SimpleGUICS2Pygame_simpleguics2pygame_sound</title><style>.edge>path:hover{stroke-width:8}</style>
<path fill="none" stroke="black" d="M214.329,-388.366C194.856,-370.4 174.432,-348.96 158.271,-331.3"/>
<polygon fill="#f31616" stroke="black" points="160.479,-328.526 151.164,-323.478 155.298,-333.233 160.479,-328.526"/>
</g>
<!-- SimpleGUICS2Pygame_simpleguics2pygame_control&#45;&gt;SimpleGUICS2Pygame_simpleguics2pygame_frame -->
<g id="edge27" class="edge"><title>SimpleGUICS2Pygame_simpleguics2pygame_control&#45;&gt;SimpleGUICS2Pygame_simpleguics2pygame_frame</title><style>.edge>path:hover{stroke-width:8}</style>
<path fill="none" stroke="black" d="M836.342,-182.008C781.934,-166.842 704.733,-145.323 647.86,-129.471"/>
<polygon fill="#a83838" stroke="black" points="648.775,-126.093 638.202,-126.779 646.895,-132.835 648.775,-126.093"/>
</g>
<!-- SimpleGUICS2Pygame_simpleguics2pygame_control&#45;&gt;SimpleGUICS2Pygame_simpleguics2pygame -->
<g id="edge26" class="edge"><title>SimpleGUICS2Pygame_simpleguics2pygame_control&#45;&gt;SimpleGUICS2Pygame_simpleguics2pygame</title><style>.edge>path:hover{stroke-width:8}</style>
<path fill="none" stroke="black" d="M962.186,-179.899C993.528,-165.045 1024.3,-141.685 1018.33,-108.418"/>
</g>
<!-- SimpleGUICS2Pygame_simpleguics2pygame_sound&#45;&gt;SimpleGUICS2Pygame_simpleguics2pygame -->
<g id="edge34" class="edge"><title>SimpleGUICS2Pygame_simpleguics2pygame_sound&#45;&gt;SimpleGUICS2Pygame_simpleguics2pygame</title><style>.edge>path:hover{stroke-width:8}</style>
<path fill="none" stroke="black" d="M66.4729,-274.092C33.1366,-258.975 0.57019,-235.253 11.3292,-202.401"/>
</g>
<!-- SimpleGUICS2Pygame_simpleguics2pygame_image&#45;&gt;SimpleGUICS2Pygame_simpleguics2pygame_canvas -->
<g id="edge30" class="edge"><title>SimpleGUICS2Pygame_simpleguics2pygame_image&#45;&gt;SimpleGUICS2Pygame_simpleguics2pygame_canvas</title><style>.edge>path:hover{stroke-width:8}</style>
<path fill="none" stroke="black" d="M524.536,-271.172C551.094,-258.644 584.048,-243.1 611.904,-229.96"/>
<polygon fill="#bc2f2f" stroke="black" points="613.587,-233.036 621.138,-225.604 610.601,-226.705 613.587,-233.036"/>
</g>
<!-- SimpleGUICS2Pygame_simpleguics2pygame_image&#45;&gt;SimpleGUICS2Pygame_simpleguics2pygame_frame -->
<g id="edge31" class="edge"><title>SimpleGUICS2Pygame_simpleguics2pygame_image&#45;&gt;SimpleGUICS2Pygame_simpleguics2pygame_frame</title><style>.edge>path:hover{stroke-width:8}</style>
<path fill="none" stroke="black" d="M468.607,-266.104C465.606,-246.968 464.782,-221.75 475.329,-202.401"/>
</g>
<!-- SimpleGUICS2Pygame_simpleguics2pygame_image&#45;&gt;SimpleGUICS2Pygame_simpleguics2pygame -->
<g id="edge29" class="edge"><title>SimpleGUICS2Pygame_simpleguics2pygame_image&#45;&gt;SimpleGUICS2Pygame_simpleguics2pygame</title><style>.edge>path:hover{stroke-width:8}</style>
<path fill="none" stroke="black" d="M399.459,-280.451C345.93,-269.041 280.624,-251.389 262.329,-230.392 226.287,-189.027 199.227,-141.053 243.329,-108.418"/>
</g>
<!-- SimpleGUICS2Pygame_simpleguics2pygame__pygame_init -->
<g id="node13" class="node"><title>SimpleGUICS2Pygame_simpleguics2pygame__pygame_init</title><style>.edge>path:hover{stroke-width:8}</style>
<ellipse fill="#f91010" stroke="black" cx="641.329" cy="-483.349" rx="88.2768" ry="28.9828"/>
<text text-anchor="middle" x="641.329" y="-491.849" font-family="Helvetica,sans-Serif" font-size="10.00" fill="#ffffff">SimpleGUICS2Pygame.</text>
<text text-anchor="middle" x="641.329" y="-480.849" font-family="Helvetica,sans-Serif" font-size="10.00" fill="#ffffff">simpleguics2pygame.</text>
<text text-anchor="middle" x="641.329" y="-469.849" font-family="Helvetica,sans-Serif" font-size="10.00" fill="#ffffff">_pygame_init</text>
</g>
<!-- SimpleGUICS2Pygame_simpleguics2pygame__pygame_init&#45;&gt;SimpleGUICS2Pygame_simpleguics2pygame__fonts -->
<g id="edge18" class="edge"><title>SimpleGUICS2Pygame_simpleguics2pygame__pygame_init&#45;&gt;SimpleGUICS2Pygame_simpleguics2pygame__fonts</title><style>.edge>path:hover{stroke-width:8}</style>
<path fill="none" stroke="black" d="M670.329,-388.366C675.853,-371.25 676.516,-351.391 675.527,-334.515"/>
<polygon fill="#f91010" stroke="black" points="679.008,-334.135 674.726,-324.444 672.03,-334.69 679.008,-334.135"/>
</g>
<!-- SimpleGUICS2Pygame_simpleguics2pygame__pygame_init&#45;&gt;SimpleGUICS2Pygame_simpleguics2pygame__media -->
<g id="edge19" class="edge"><title>SimpleGUICS2Pygame_simpleguics2pygame__pygame_init&#45;&gt;SimpleGUICS2Pygame_simpleguics2pygame__media</title><style>.edge>path:hover{stroke-width:8}</style>
<path fill="none" stroke="black" d="M583.603,-461.361C545.609,-447.548 495.722,-429.411 455.882,-414.926"/>
<polygon fill="#f91010" stroke="black" points="456.839,-411.55 446.245,-411.422 454.447,-418.129 456.839,-411.55"/>
</g>
<!-- SimpleGUICS2Pygame_simpleguics2pygame__pygame_init&#45;&gt;SimpleGUICS2Pygame_simpleguics2pygame_canvas -->
<g id="edge20" class="edge"><title>SimpleGUICS2Pygame_simpleguics2pygame__pygame_init&#45;&gt;SimpleGUICS2Pygame_simpleguics2pygame_canvas</title><style>.edge>path:hover{stroke-width:8}</style>
<path fill="none" stroke="black" d="M670.329,-388.366C686.19,-339.215 742.849,-369.852 767.329,-324.375 779.544,-301.683 779.544,-289.083 767.329,-266.392 759.331,-251.534 746.205,-239.553 732.155,-230.157"/>
<polygon fill="#f91010" stroke="black" points="733.66,-226.97 723.325,-224.637 729.95,-232.906 733.66,-226.97"/>
</g>
<!-- SimpleGUICS2Pygame_simpleguics2pygame__pygame_init&#45;&gt;SimpleGUICS2Pygame_simpleguics2pygame__colors -->
<g id="edge17" class="edge"><title>SimpleGUICS2Pygame_simpleguics2pygame__pygame_init&#45;&gt;SimpleGUICS2Pygame_simpleguics2pygame__colors</title><style>.edge>path:hover{stroke-width:8}</style>
<path fill="none" stroke="black" d="M670.329,-388.366C675.616,-371.982 763.759,-340.488 829.841,-318.961"/>
<polygon fill="#f91010" stroke="black" points="830.983,-322.27 839.418,-315.86 828.827,-315.611 830.983,-322.27"/>
</g>
<!-- SimpleGUICS2Pygame_simpleguics2pygame__pygame_init&#45;&gt;SimpleGUICS2Pygame_simpleguics2pygame_frame -->
<g id="edge22" class="edge"><title>SimpleGUICS2Pygame_simpleguics2pygame__pygame_init&#45;&gt;SimpleGUICS2Pygame_simpleguics2pygame_frame</title><style>.edge>path:hover{stroke-width:8}</style>
<path fill="none" stroke="black" d="M650.279,-454.189C656.045,-435.993 663.679,-411.795 670.329,-390.366"/>
<path fill="none" stroke="black" d="M670.329,-388.366C713.052,-250.702 371.991,-439.967 359.329,-296.383"/>
</g>
<!-- SimpleGUICS2Pygame_simpleguics2pygame__pygame_init&#45;&gt;SimpleGUICS2Pygame_simpleguics2pygame_control -->
<g id="edge21" class="edge"><title>SimpleGUICS2Pygame_simpleguics2pygame__pygame_init&#45;&gt;SimpleGUICS2Pygame_simpleguics2pygame_control</title><style>.edge>path:hover{stroke-width:8}</style>
<path fill="none" stroke="black" d="M670.329,-388.366C717.746,-235.576 959.429,-445.124 1018.33,-296.383"/>
<path fill="none" stroke="black" d="M1018.33,-294.383C1030.09,-264.695 1003.11,-242.159 972.23,-226.825"/>
<polygon fill="#f91010" stroke="black" points="973.544,-223.575 963.004,-222.495 970.569,-229.912 973.544,-223.575"/>
</g>
<!-- SimpleGUICS2Pygame_simpleguics2pygame__pygame_init&#45;&gt;SimpleGUICS2Pygame_simpleguics2pygame -->
<g id="edge16" class="edge"><title>SimpleGUICS2Pygame_simpleguics2pygame__pygame_init&#45;&gt;SimpleGUICS2Pygame_simpleguics2pygame</title><style>.edge>path:hover{stroke-width:8}</style>
<path fill="none" stroke="black" d="M1018.33,-294.383C1048.76,-217.538 1032.93,-189.77 1018.33,-108.418"/>
</g>
<!-- SimpleGUICS2Pygame_simpleguics2pygame__pygame_init&#45;&gt;SimpleGUICS2Pygame_simpleguics2pygame_image -->
<g id="edge23" class="edge"><title>SimpleGUICS2Pygame_simpleguics2pygame__pygame_init&#45;&gt;SimpleGUICS2Pygame_simpleguics2pygame_image</title><style>.edge>path:hover{stroke-width:8}</style>
<path fill="none" stroke="black" d="M670.329,-388.366C674.828,-374.425 600.916,-343.142 542.802,-320.937"/>
<polygon fill="#f91010" stroke="black" points="543.851,-317.591 533.26,-317.317 541.369,-324.136 543.851,-317.591"/>
</g>
</g>
</svg>
