<?xml version="1.0" encoding="UTF-8" standalone="no"?>
<!DOCTYPE svg PUBLIC "-//W3C//DTD SVG 1.1//EN"
 "http://www.w3.org/Graphics/SVG/1.1/DTD/svg11.dtd">
<!-- Generated by graphviz version 2.38.0 (20140413.2041)
 -->
<!-- Title: G Pages: 1 -->
<svg width="1019pt" height="959pt"
 viewBox="0.00 0.00 1019.32 958.60" xmlns="http://www.w3.org/2000/svg" xmlns:xlink="http://www.w3.org/1999/xlink">
<g id="graph0" class="graph" transform="scale(1 1) rotate(0) translate(4 954.602)">
<title>G</title><style>.edge>path:hover{stroke-width:8}</style>
<polygon fill="white" stroke="none" points="-4,4 -4,-954.602 1015.32,-954.602 1015.32,4 -4,4"/>
<!-- SimpleGUICS2Pygame_simpleguics2pygame__pygame_lib -->
<g id="node1" class="node"><title>SimpleGUICS2Pygame_simpleguics2pygame__pygame_lib</title><style>.edge>path:hover{stroke-width:8}</style>
<ellipse fill="#d10505" stroke="black" cx="506.705" cy="-734.184" rx="88.2768" ry="28.9828"/>
<text text-anchor="middle" x="506.705" y="-742.684" font-family="Helvetica,sans-Serif" font-size="10.00" fill="#ffffff">SimpleGUICS2Pygame.</text>
<text text-anchor="middle" x="506.705" y="-731.684" font-family="Helvetica,sans-Serif" font-size="10.00" fill="#ffffff">simpleguics2pygame.</text>
<text text-anchor="middle" x="506.705" y="-720.684" font-family="Helvetica,sans-Serif" font-size="10.00" fill="#ffffff">_pygame_lib</text>
</g>
<!-- SimpleGUICS2Pygame_simpleguics2pygame_control -->
<g id="node2" class="node"><title>SimpleGUICS2Pygame_simpleguics2pygame_control</title><style>.edge>path:hover{stroke-width:8}</style>
<ellipse fill="#9b2626" stroke="black" cx="736.705" cy="-640.202" rx="88.2768" ry="28.9828"/>
<text text-anchor="middle" x="736.705" y="-648.702" font-family="Helvetica,sans-Serif" font-size="10.00" fill="#ffffff">SimpleGUICS2Pygame.</text>
<text text-anchor="middle" x="736.705" y="-637.702" font-family="Helvetica,sans-Serif" font-size="10.00" fill="#ffffff">simpleguics2pygame.</text>
<text text-anchor="middle" x="736.705" y="-626.702" font-family="Helvetica,sans-Serif" font-size="10.00" fill="#ffffff">control</text>
</g>
<!-- SimpleGUICS2Pygame_simpleguics2pygame__pygame_lib&#45;&gt;SimpleGUICS2Pygame_simpleguics2pygame_control -->
<g id="edge23" class="edge"><title>SimpleGUICS2Pygame_simpleguics2pygame__pygame_lib&#45;&gt;SimpleGUICS2Pygame_simpleguics2pygame_control</title><style>.edge>path:hover{stroke-width:8}</style>
<path fill="none" stroke="black" d="M561.503,-711.269C594.781,-697.961 637.425,-680.906 672.309,-666.955"/>
<polygon fill="#d10505" stroke="black" points="673.943,-670.071 681.928,-663.108 671.343,-663.572 673.943,-670.071"/>
</g>
<!-- SimpleGUICS2Pygame_simpleguics2pygame__fonts -->
<g id="node3" class="node"><title>SimpleGUICS2Pygame_simpleguics2pygame__fonts</title><style>.edge>path:hover{stroke-width:8}</style>
<ellipse fill="#b62020" stroke="black" cx="855.705" cy="-452.236" rx="88.2768" ry="28.9828"/>
<text text-anchor="middle" x="855.705" y="-460.736" font-family="Helvetica,sans-Serif" font-size="10.00" fill="#ffffff">SimpleGUICS2Pygame.</text>
<text text-anchor="middle" x="855.705" y="-449.736" font-family="Helvetica,sans-Serif" font-size="10.00" fill="#ffffff">simpleguics2pygame.</text>
<text text-anchor="middle" x="855.705" y="-438.736" font-family="Helvetica,sans-Serif" font-size="10.00" fill="#ffffff">_fonts</text>
</g>
<!-- SimpleGUICS2Pygame_simpleguics2pygame__pygame_lib&#45;&gt;SimpleGUICS2Pygame_simpleguics2pygame__fonts -->
<g id="edge19" class="edge"><title>SimpleGUICS2Pygame_simpleguics2pygame__pygame_lib&#45;&gt;SimpleGUICS2Pygame_simpleguics2pygame__fonts</title><style>.edge>path:hover{stroke-width:8}</style>
<path fill="none" stroke="black" d="M533.927,-706.562C560.263,-681.21 601.669,-642.4 639.705,-611.21 696.574,-564.577 765.702,-515.213 810.184,-484.325"/>
<polygon fill="#d10505" stroke="black" points="812.239,-487.16 818.468,-478.589 808.254,-481.405 812.239,-487.16"/>
</g>
<!-- SimpleGUICS2Pygame_simpleguics2pygame_frame -->
<g id="node4" class="node"><title>SimpleGUICS2Pygame_simpleguics2pygame_frame</title><style>.edge>path:hover{stroke-width:8}</style>
<ellipse fill="#950303" stroke="black" cx="428.705" cy="-546.219" rx="88.2768" ry="28.9828"/>
<text text-anchor="middle" x="428.705" y="-554.719" font-family="Helvetica,sans-Serif" font-size="10.00" fill="#ffffff">SimpleGUICS2Pygame.</text>
<text text-anchor="middle" x="428.705" y="-543.719" font-family="Helvetica,sans-Serif" font-size="10.00" fill="#ffffff">simpleguics2pygame.</text>
<text text-anchor="middle" x="428.705" y="-532.719" font-family="Helvetica,sans-Serif" font-size="10.00" fill="#ffffff">frame</text>
</g>
<!-- SimpleGUICS2Pygame_simpleguics2pygame__pygame_lib&#45;&gt;SimpleGUICS2Pygame_simpleguics2pygame_frame -->
<g id="edge24" class="edge"><title>SimpleGUICS2Pygame_simpleguics2pygame__pygame_lib&#45;&gt;SimpleGUICS2Pygame_simpleguics2pygame_frame</title><style>.edge>path:hover{stroke-width:8}</style>
<path fill="none" stroke="black" d="M525.933,-705.745C536.309,-688.033 546.641,-664.1 544.705,-641.202"/>
<path fill="none" stroke="black" d="M544.705,-639.202C542.235,-609.992 518.942,-588.552 493.869,-573.756"/>
<polygon fill="#d10505" stroke="black" points="495.398,-570.601 484.958,-568.798 491.995,-576.718 495.398,-570.601"/>
</g>
<!-- SimpleGUICS2Pygame_simpleguics2pygame_image -->
<g id="node6" class="node"><title>SimpleGUICS2Pygame_simpleguics2pygame_image</title><style>.edge>path:hover{stroke-width:8}</style>
<ellipse fill="#bf2121" stroke="black" cx="428.705" cy="-358.253" rx="88.2768" ry="28.9828"/>
<text text-anchor="middle" x="428.705" y="-366.753" font-family="Helvetica,sans-Serif" font-size="10.00" fill="#ffffff">SimpleGUICS2Pygame.</text>
<text text-anchor="middle" x="428.705" y="-355.753" font-family="Helvetica,sans-Serif" font-size="10.00" fill="#ffffff">simpleguics2pygame.</text>
<text text-anchor="middle" x="428.705" y="-344.753" font-family="Helvetica,sans-Serif" font-size="10.00" fill="#ffffff">image</text>
</g>
<!-- SimpleGUICS2Pygame_simpleguics2pygame__pygame_lib&#45;&gt;SimpleGUICS2Pygame_simpleguics2pygame_image -->
<g id="edge25" class="edge"><title>SimpleGUICS2Pygame_simpleguics2pygame__pygame_lib&#45;&gt;SimpleGUICS2Pygame_simpleguics2pygame_image</title><style>.edge>path:hover{stroke-width:8}</style>
<path fill="none" stroke="black" d="M544.705,-639.202C541.261,-598.466 533.546,-586.548 544.705,-547.219"/>
<path fill="none" stroke="black" d="M544.705,-545.219C555.864,-505.89 547.583,-494.016 544.705,-453.236"/>
<path fill="none" stroke="black" d="M544.705,-451.236C542.633,-421.88 519.209,-400.383 493.948,-385.588"/>
<polygon fill="#d10505" stroke="black" points="495.414,-382.4 484.968,-380.632 492.032,-388.528 495.414,-382.4"/>
</g>
<!-- SimpleGUICS2Pygame_simpleguics2pygame__colors -->
<g id="node8" class="node"><title>SimpleGUICS2Pygame_simpleguics2pygame__colors</title><style>.edge>path:hover{stroke-width:8}</style>
<ellipse fill="#b62020" stroke="black" cx="660.705" cy="-452.236" rx="88.2768" ry="28.9828"/>
<text text-anchor="middle" x="660.705" y="-460.736" font-family="Helvetica,sans-Serif" font-size="10.00" fill="#ffffff">SimpleGUICS2Pygame.</text>
<text text-anchor="middle" x="660.705" y="-449.736" font-family="Helvetica,sans-Serif" font-size="10.00" fill="#ffffff">simpleguics2pygame.</text>
<text text-anchor="middle" x="660.705" y="-438.736" font-family="Helvetica,sans-Serif" font-size="10.00" fill="#ffffff">_colors</text>
</g>
<!-- SimpleGUICS2Pygame_simpleguics2pygame__pygame_lib&#45;&gt;SimpleGUICS2Pygame_simpleguics2pygame__colors -->
<g id="edge18" class="edge"><title>SimpleGUICS2Pygame_simpleguics2pygame__pygame_lib&#45;&gt;SimpleGUICS2Pygame_simpleguics2pygame__colors</title><style>.edge>path:hover{stroke-width:8}</style>
<path fill="none" stroke="black" d="M544.705,-545.219C552.64,-517.251 576.208,-496.041 600.046,-481.077"/>
<polygon fill="#d10505" stroke="black" points="602.019,-483.976 608.812,-475.846 598.432,-477.965 602.019,-483.976"/>
</g>
<!-- SimpleGUICS2Pygame_simpleguics2pygame -->
<g id="node10" class="node"><title>SimpleGUICS2Pygame_simpleguics2pygame</title><style>.edge>path:hover{stroke-width:8}</style>
<ellipse fill="#950303" stroke="black" cx="312.705" cy="-178.066" rx="88.2768" ry="21.4286"/>
<text text-anchor="middle" x="312.705" y="-181.066" font-family="Helvetica,sans-Serif" font-size="10.00" fill="#ffffff">SimpleGUICS2Pygame.</text>
<text text-anchor="middle" x="312.705" y="-170.066" font-family="Helvetica,sans-Serif" font-size="10.00" fill="#ffffff">simpleguics2pygame</text>
</g>
<!-- SimpleGUICS2Pygame_simpleguics2pygame__pygame_lib&#45;&gt;SimpleGUICS2Pygame_simpleguics2pygame -->
<g id="edge17" class="edge"><title>SimpleGUICS2Pygame_simpleguics2pygame__pygame_lib&#45;&gt;SimpleGUICS2Pygame_simpleguics2pygame</title><style>.edge>path:hover{stroke-width:8}</style>
<path fill="none" stroke="black" d="M544.705,-451.236C540.842,-396.508 561.747,-370.627 525.705,-329.262 460.77,-254.736 355.248,-354.493 312.705,-265.271"/>
</g>
<!-- SimpleGUICS2Pygame_simpleguics2pygame_canvas -->
<g id="node11" class="node"><title>SimpleGUICS2Pygame_simpleguics2pygame_canvas</title><style>.edge>path:hover{stroke-width:8}</style>
<ellipse fill="#932424" stroke="black" cx="505.705" cy="-264.271" rx="88.2768" ry="28.9828"/>
<text text-anchor="middle" x="505.705" y="-272.771" font-family="Helvetica,sans-Serif" font-size="10.00" fill="#ffffff">SimpleGUICS2Pygame.</text>
<text text-anchor="middle" x="505.705" y="-261.771" font-family="Helvetica,sans-Serif" font-size="10.00" fill="#ffffff">simpleguics2pygame.</text>
<text text-anchor="middle" x="505.705" y="-250.771" font-family="Helvetica,sans-Serif" font-size="10.00" fill="#ffffff">canvas</text>
</g>
<!-- SimpleGUICS2Pygame_simpleguics2pygame__pygame_lib&#45;&gt;SimpleGUICS2Pygame_simpleguics2pygame_canvas -->
<g id="edge22" class="edge"><title>SimpleGUICS2Pygame_simpleguics2pygame__pygame_lib&#45;&gt;SimpleGUICS2Pygame_simpleguics2pygame_canvas</title><style>.edge>path:hover{stroke-width:8}</style>
<path fill="none" stroke="black" d="M544.705,-451.236C540.971,-398.337 663.648,-390.367 620.705,-359.253"/>
<path fill="none" stroke="black" d="M620.705,-357.253C594.706,-338.416 566.542,-315.926 544.593,-297.9"/>
<polygon fill="#d10505" stroke="black" points="546.745,-295.138 536.803,-291.475 542.291,-300.538 546.745,-295.138"/>
</g>
<!-- SimpleGUICS2Pygame_simpleguics2pygame__options -->
<g id="node12" class="node"><title>SimpleGUICS2Pygame_simpleguics2pygame__options</title><style>.edge>path:hover{stroke-width:8}</style>
<ellipse fill="#993333" stroke="black" cx="196.705" cy="-264.271" rx="88.2768" ry="28.9828"/>
<text text-anchor="middle" x="196.705" y="-272.771" font-family="Helvetica,sans-Serif" font-size="10.00" fill="#ffffff">SimpleGUICS2Pygame.</text>
<text text-anchor="middle" x="196.705" y="-261.771" font-family="Helvetica,sans-Serif" font-size="10.00" fill="#ffffff">simpleguics2pygame.</text>
<text text-anchor="middle" x="196.705" y="-250.771" font-family="Helvetica,sans-Serif" font-size="10.00" fill="#ffffff">_options</text>
</g>
<!-- SimpleGUICS2Pygame_simpleguics2pygame__pygame_lib&#45;&gt;SimpleGUICS2Pygame_simpleguics2pygame__options -->
<g id="edge21" class="edge"><title>SimpleGUICS2Pygame_simpleguics2pygame__pygame_lib&#45;&gt;SimpleGUICS2Pygame_simpleguics2pygame__options</title><style>.edge>path:hover{stroke-width:8}</style>
<path fill="none" stroke="black" d="M500.654,-705.193C493.247,-677.503 478.036,-635.803 449.705,-611.21 408.298,-575.267 369.473,-614.959 331.705,-575.21 283.75,-524.74 315.25,-489.447 293.705,-423.245 279.762,-380.401 279.811,-367.326 255.705,-329.262 249.073,-318.79 240.633,-308.458 232.225,-299.252"/>
<polygon fill="#d10505" stroke="black" points="234.615,-296.685 225.21,-291.806 229.52,-301.485 234.615,-296.685"/>
</g>
<!-- SimpleGUICS2Pygame_simpleguics2pygame__media -->
<g id="node19" class="node"><title>SimpleGUICS2Pygame_simpleguics2pygame__media</title><style>.edge>path:hover{stroke-width:8}</style>
<ellipse fill="#ac2b2b" stroke="black" cx="196.705" cy="-452.236" rx="88.2768" ry="28.9828"/>
<text text-anchor="middle" x="196.705" y="-460.736" font-family="Helvetica,sans-Serif" font-size="10.00" fill="#ffffff">SimpleGUICS2Pygame.</text>
<text text-anchor="middle" x="196.705" y="-449.736" font-family="Helvetica,sans-Serif" font-size="10.00" fill="#ffffff">simpleguics2pygame.</text>
<text text-anchor="middle" x="196.705" y="-438.736" font-family="Helvetica,sans-Serif" font-size="10.00" fill="#ffffff">_media</text>
</g>
<!-- SimpleGUICS2Pygame_simpleguics2pygame__pygame_lib&#45;&gt;SimpleGUICS2Pygame_simpleguics2pygame__media -->
<g id="edge20" class="edge"><title>SimpleGUICS2Pygame_simpleguics2pygame__pygame_lib&#45;&gt;SimpleGUICS2Pygame_simpleguics2pygame__media</title><style>.edge>path:hover{stroke-width:8}</style>
<path fill="none" stroke="black" d="M429.938,-719.804C366.921,-707.707 283.678,-688.829 255.705,-669.193 243.398,-660.554 246.947,-652.21 236.705,-641.202"/>
</g>
<!-- SimpleGUICS2Pygame_simpleguics2pygame_control&#45;&gt;SimpleGUICS2Pygame_simpleguics2pygame_frame -->
<g id="edge29" class="edge"><title>SimpleGUICS2Pygame_simpleguics2pygame_control&#45;&gt;SimpleGUICS2Pygame_simpleguics2pygame_frame</title><style>.edge>path:hover{stroke-width:8}</style>
<path fill="none" stroke="black" d="M663.071,-617.211C614.508,-602.708 551.132,-583.781 502.53,-569.266"/>
<polygon fill="#9b2626" stroke="black" points="662.304,-620.635 672.887,-620.143 664.307,-613.927 662.304,-620.635"/>
<polygon fill="#9b2626" stroke="black" points="503.289,-565.84 492.705,-566.332 501.286,-572.548 503.289,-565.84"/>
</g>
<!-- SimpleGUICS2Pygame_simpleguics2pygame_control&#45;&gt;SimpleGUICS2Pygame_simpleguics2pygame -->
<g id="edge28" class="edge"><title>SimpleGUICS2Pygame_simpleguics2pygame_control&#45;&gt;SimpleGUICS2Pygame_simpleguics2pygame</title><style>.edge>path:hover{stroke-width:8}</style>
<path fill="none" stroke="black" d="M799.681,-619.831C869.29,-594.044 971.705,-541.163 971.705,-453.236 971.705,-453.236 971.705,-453.236 971.705,-357.253 971.705,-241.807 590.061,-198.878 407.637,-184.952"/>
<polygon fill="#9b2626" stroke="black" points="407.742,-181.45 397.509,-184.193 407.219,-188.431 407.742,-181.45"/>
</g>
<!-- SimpleGUICS2Pygame_simpleguics2pygame__fonts&#45;&gt;SimpleGUICS2Pygame_simpleguics2pygame_control -->
<g id="edge12" class="edge"><title>SimpleGUICS2Pygame_simpleguics2pygame__fonts&#45;&gt;SimpleGUICS2Pygame_simpleguics2pygame_control</title><style>.edge>path:hover{stroke-width:8}</style>
<path fill="none" stroke="black" d="M838.074,-480.789C817.301,-513.251 782.723,-567.288 759.82,-603.08"/>
<polygon fill="#b62020" stroke="black" points="756.706,-601.452 754.264,-611.762 762.602,-605.225 756.706,-601.452"/>
</g>
<!-- SimpleGUICS2Pygame_simpleguics2pygame__fonts&#45;&gt;SimpleGUICS2Pygame_simpleguics2pygame_canvas -->
<g id="edge11" class="edge"><title>SimpleGUICS2Pygame_simpleguics2pygame__fonts&#45;&gt;SimpleGUICS2Pygame_simpleguics2pygame_canvas</title><style>.edge>path:hover{stroke-width:8}</style>
<path fill="none" stroke="black" d="M794.437,-431.185C734.85,-410.993 649.265,-379.947 620.705,-359.253"/>
</g>
<!-- SimpleGUICS2Pygame_simpleguics2pygame_frame&#45;&gt;SimpleGUICS2Pygame_simpleguics2pygame__fonts -->
<g id="edge32" class="edge"><title>SimpleGUICS2Pygame_simpleguics2pygame_frame&#45;&gt;SimpleGUICS2Pygame_simpleguics2pygame__fonts</title><style>.edge>path:hover{stroke-width:8}</style>
<path fill="none" stroke="black" d="M503.152,-523.767C512.393,-521.407 521.741,-519.162 530.705,-517.227 630.556,-495.678 657.967,-503.295 757.705,-481.227 765.838,-479.428 774.295,-477.344 782.68,-475.14"/>
<polygon fill="#950303" stroke="black" points="501.983,-520.455 493.19,-526.365 503.749,-527.229 501.983,-520.455"/>
<polygon fill="#950303" stroke="black" points="783.719,-478.485 792.467,-472.509 781.901,-471.725 783.719,-478.485"/>
</g>
<!-- SimpleGUICS2Pygame_simpleguics2pygame_frame&#45;&gt;SimpleGUICS2Pygame_simpleguics2pygame__colors -->
<g id="edge31" class="edge"><title>SimpleGUICS2Pygame_simpleguics2pygame_frame&#45;&gt;SimpleGUICS2Pygame_simpleguics2pygame__colors</title><style>.edge>path:hover{stroke-width:8}</style>
<path fill="none" stroke="black" d="M493.426,-519.559C525.582,-506.809 564.322,-491.45 596.419,-478.724"/>
<polygon fill="#950303" stroke="black" points="491.692,-516.481 483.686,-523.42 494.272,-522.988 491.692,-516.481"/>
<polygon fill="#950303" stroke="black" points="597.711,-481.977 605.717,-475.037 595.131,-475.47 597.711,-481.977"/>
</g>
<!-- SimpleGUICS2Pygame_simpleguics2pygame_frame&#45;&gt;SimpleGUICS2Pygame_simpleguics2pygame -->
<g id="edge30" class="edge"><title>SimpleGUICS2Pygame_simpleguics2pygame_frame&#45;&gt;SimpleGUICS2Pygame_simpleguics2pygame</title><style>.edge>path:hover{stroke-width:8}</style>
<path fill="none" stroke="black" d="M312.705,-357.253C291.644,-322.214 330.3,-302.172 312.705,-265.271"/>
<path fill="none" stroke="black" d="M312.705,-263.271C304.86,-246.817 304.657,-226.416 306.512,-209.815"/>
<polygon fill="#950303" stroke="black" points="310.032,-209.927 307.97,-199.535 303.101,-208.945 310.032,-209.927"/>
</g>
<!-- SimpleGUICS2Pygame_simpleguics2pygame_frame&#45;&gt;SimpleGUICS2Pygame_simpleguics2pygame_canvas -->
<g id="edge35" class="edge"><title>SimpleGUICS2Pygame_simpleguics2pygame_frame&#45;&gt;SimpleGUICS2Pygame_simpleguics2pygame_canvas</title><style>.edge>path:hover{stroke-width:8}</style>
<path fill="none" stroke="black" d="M458.332,-509.955C481.762,-479.613 512.629,-433.531 525.705,-387.245 533.55,-359.475 527.635,-327.224 520.251,-302.862"/>
<polygon fill="#950303" stroke="black" points="455.372,-508.058 451.942,-518.083 460.874,-512.385 455.372,-508.058"/>
<polygon fill="#950303" stroke="black" points="523.557,-301.71 517.147,-293.274 516.897,-303.865 523.557,-301.71"/>
</g>
<!-- SimpleGUICS2Pygame_simpleguics2pygame_frame&#45;&gt;SimpleGUICS2Pygame_simpleguics2pygame__options -->
<g id="edge34" class="edge"><title>SimpleGUICS2Pygame_simpleguics2pygame_frame&#45;&gt;SimpleGUICS2Pygame_simpleguics2pygame__options</title><style>.edge>path:hover{stroke-width:8}</style>
<path fill="none" stroke="black" d="M409.406,-517.772C384.958,-482.265 342.435,-417.987 312.705,-359.253"/>
<path fill="none" stroke="black" d="M312.705,-357.253C297.501,-331.958 272.597,-310.848 249.754,-295.258"/>
<polygon fill="#950303" stroke="black" points="251.398,-292.149 241.125,-289.556 247.539,-297.989 251.398,-292.149"/>
</g>
<!-- SimpleGUICS2Pygame_simpleguics2pygame_frame&#45;&gt;SimpleGUICS2Pygame_simpleguics2pygame__media -->
<g id="edge33" class="edge"><title>SimpleGUICS2Pygame_simpleguics2pygame_frame&#45;&gt;SimpleGUICS2Pygame_simpleguics2pygame__media</title><style>.edge>path:hover{stroke-width:8}</style>
<path fill="none" stroke="black" d="M373.724,-523.42C340.042,-510.066 296.765,-492.908 261.433,-478.899"/>
<polygon fill="#950303" stroke="black" points="262.279,-475.47 251.693,-475.037 259.699,-481.977 262.279,-475.47"/>
</g>
<!-- SimpleGUICS2Pygame_simplegui_lib_loader -->
<g id="node5" class="node"><title>SimpleGUICS2Pygame_simplegui_lib_loader</title><style>.edge>path:hover{stroke-width:8}</style>
<ellipse fill="#b83d3d" stroke="black" cx="507.705" cy="-99.6396" rx="88.2768" ry="21.4286"/>
<text text-anchor="middle" x="507.705" y="-102.64" font-family="Helvetica,sans-Serif" font-size="10.00" fill="#ffffff">SimpleGUICS2Pygame.</text>
<text text-anchor="middle" x="507.705" y="-91.6396" font-family="Helvetica,sans-Serif" font-size="10.00" fill="#ffffff">simplegui_lib_loader</text>
</g>
<!-- SimpleGUICS2Pygame_simplegui_lib -->
<g id="node15" class="node"><title>SimpleGUICS2Pygame_simplegui_lib</title><style>.edge>path:hover{stroke-width:8}</style>
<ellipse fill="#964040" stroke="black" cx="409.705" cy="-21.2132" rx="88.2768" ry="21.4286"/>
<text text-anchor="middle" x="409.705" y="-24.2132" font-family="Helvetica,sans-Serif" font-size="10.00" fill="#ffffff">SimpleGUICS2Pygame.</text>
<text text-anchor="middle" x="409.705" y="-13.2132" font-family="Helvetica,sans-Serif" font-size="10.00" fill="#ffffff">simplegui_lib</text>
</g>
<!-- SimpleGUICS2Pygame_simplegui_lib_loader&#45;&gt;SimpleGUICS2Pygame_simplegui_lib -->
<g id="edge4" class="edge"><title>SimpleGUICS2Pygame_simplegui_lib_loader&#45;&gt;SimpleGUICS2Pygame_simplegui_lib</title><style>.edge>path:hover{stroke-width:8}</style>
<path fill="none" stroke="black" d="M482.722,-79.1563C470.512,-69.634 455.658,-58.0504 442.544,-47.8231"/>
<polygon fill="#b83d3d" stroke="black" points="444.68,-45.0507 434.642,-41.661 440.376,-50.5706 444.68,-45.0507"/>
</g>
<!-- SimpleGUICS2Pygame_simpleguics2pygame_image&#45;&gt;SimpleGUICS2Pygame_simpleguics2pygame_frame -->
<g id="edge39" class="edge"><title>SimpleGUICS2Pygame_simpleguics2pygame_image&#45;&gt;SimpleGUICS2Pygame_simpleguics2pygame_frame</title><style>.edge>path:hover{stroke-width:8}</style>
<path fill="none" stroke="black" d="M428.705,-387.458C428.705,-419.347 428.705,-471.439 428.705,-506.972"/>
<polygon fill="#bf2121" stroke="black" points="425.205,-506.975 428.705,-516.975 432.205,-506.975 425.205,-506.975"/>
</g>
<!-- SimpleGUICS2Pygame_simpleguics2pygame_image&#45;&gt;SimpleGUICS2Pygame_simpleguics2pygame -->
<g id="edge37" class="edge"><title>SimpleGUICS2Pygame_simpleguics2pygame_image&#45;&gt;SimpleGUICS2Pygame_simpleguics2pygame</title><style>.edge>path:hover{stroke-width:8}</style>
<path fill="none" stroke="black" d="M381.623,-333.716C356.091,-318.141 326.92,-295.082 312.705,-265.271"/>
</g>
<!-- SimpleGUICS2Pygame_simpleguics2pygame_image&#45;&gt;SimpleGUICS2Pygame_simpleguics2pygame_canvas -->
<g id="edge38" class="edge"><title>SimpleGUICS2Pygame_simpleguics2pygame_image&#45;&gt;SimpleGUICS2Pygame_simpleguics2pygame_canvas</title><style>.edge>path:hover{stroke-width:8}</style>
<path fill="none" stroke="black" d="M451.391,-330.153C459.232,-320.786 468.132,-310.155 476.425,-300.247"/>
<polygon fill="#bf2121" stroke="black" points="479.18,-302.41 482.915,-292.495 473.812,-297.916 479.18,-302.41"/>
</g>
<!-- SimpleGUICS2Pygame_simpleguics2pygame_keys -->
<g id="node7" class="node"><title>SimpleGUICS2Pygame_simpleguics2pygame_keys</title><style>.edge>path:hover{stroke-width:8}</style>
<ellipse fill="#ce3b3b" stroke="black" cx="120.705" cy="-640.202" rx="88.2768" ry="28.9828"/>
<text text-anchor="middle" x="120.705" y="-648.702" font-family="Helvetica,sans-Serif" font-size="10.00" fill="#ffffff">SimpleGUICS2Pygame.</text>
<text text-anchor="middle" x="120.705" y="-637.702" font-family="Helvetica,sans-Serif" font-size="10.00" fill="#ffffff">simpleguics2pygame.</text>
<text text-anchor="middle" x="120.705" y="-626.702" font-family="Helvetica,sans-Serif" font-size="10.00" fill="#ffffff">keys</text>
</g>
<!-- SimpleGUICS2Pygame_simpleguics2pygame_keys&#45;&gt;SimpleGUICS2Pygame_simpleguics2pygame_frame -->
<g id="edge41" class="edge"><title>SimpleGUICS2Pygame_simpleguics2pygame_keys&#45;&gt;SimpleGUICS2Pygame_simpleguics2pygame_frame</title><style>.edge>path:hover{stroke-width:8}</style>
<path fill="none" stroke="black" d="M184.523,-620.143C234.1,-605.337 302.93,-584.781 354.88,-569.266"/>
<polygon fill="#ce3b3b" stroke="black" points="356.124,-572.548 364.704,-566.332 354.121,-565.84 356.124,-572.548"/>
</g>
<!-- SimpleGUICS2Pygame_simpleguics2pygame_keys&#45;&gt;SimpleGUICS2Pygame_simpleguics2pygame -->
<g id="edge40" class="edge"><title>SimpleGUICS2Pygame_simpleguics2pygame_keys&#45;&gt;SimpleGUICS2Pygame_simpleguics2pygame</title><style>.edge>path:hover{stroke-width:8}</style>
<path fill="none" stroke="black" d="M102.358,-611.519C61.5633,-546.164 -27.7093,-379.229 42.7049,-265.271"/>
<path fill="none" stroke="black" d="M42.7049,-263.271C60.0119,-229.062 156.666,-205.256 229.427,-191.89"/>
<polygon fill="#ce3b3b" stroke="black" points="230.302,-195.289 239.525,-190.073 229.063,-188.399 230.302,-195.289"/>
</g>
<!-- SimpleGUICS2Pygame_simpleguics2pygame__colors&#45;&gt;SimpleGUICS2Pygame_simpleguics2pygame_control -->
<g id="edge9" class="edge"><title>SimpleGUICS2Pygame_simpleguics2pygame__colors&#45;&gt;SimpleGUICS2Pygame_simpleguics2pygame_control</title><style>.edge>path:hover{stroke-width:8}</style>
<path fill="none" stroke="black" d="M672.161,-481.267C685.29,-513.395 706.867,-566.192 721.421,-601.804"/>
<polygon fill="#b62020" stroke="black" points="718.304,-603.428 725.327,-611.361 724.784,-600.78 718.304,-603.428"/>
</g>
<!-- SimpleGUICS2Pygame_simpleguics2pygame__colors&#45;&gt;SimpleGUICS2Pygame_simpleguics2pygame_canvas -->
<g id="edge8" class="edge"><title>SimpleGUICS2Pygame_simpleguics2pygame__colors&#45;&gt;SimpleGUICS2Pygame_simpleguics2pygame_canvas</title><style>.edge>path:hover{stroke-width:8}</style>
<path fill="none" stroke="black" d="M656.3,-423.144C651.408,-401.991 641.293,-374.17 620.705,-359.253"/>
</g>
<!-- SimpleGUICS2Pygame_simpleguics2pygame_timer -->
<g id="node9" class="node"><title>SimpleGUICS2Pygame_simpleguics2pygame_timer</title><style>.edge>path:hover{stroke-width:8}</style>
<ellipse fill="#ce3b3b" stroke="black" cx="352.705" cy="-640.202" rx="88.2768" ry="28.9828"/>
<text text-anchor="middle" x="352.705" y="-648.702" font-family="Helvetica,sans-Serif" font-size="10.00" fill="#ffffff">SimpleGUICS2Pygame.</text>
<text text-anchor="middle" x="352.705" y="-637.702" font-family="Helvetica,sans-Serif" font-size="10.00" fill="#ffffff">simpleguics2pygame.</text>
<text text-anchor="middle" x="352.705" y="-626.702" font-family="Helvetica,sans-Serif" font-size="10.00" fill="#ffffff">timer</text>
</g>
<!-- SimpleGUICS2Pygame_simpleguics2pygame_timer&#45;&gt;SimpleGUICS2Pygame_simpleguics2pygame_frame -->
<g id="edge45" class="edge"><title>SimpleGUICS2Pygame_simpleguics2pygame_timer&#45;&gt;SimpleGUICS2Pygame_simpleguics2pygame_frame</title><style>.edge>path:hover{stroke-width:8}</style>
<path fill="none" stroke="black" d="M375.096,-612.101C382.835,-602.735 391.62,-592.103 399.806,-582.195"/>
<polygon fill="#ce3b3b" stroke="black" points="402.539,-584.382 406.211,-574.443 397.143,-579.923 402.539,-584.382"/>
</g>
<!-- SimpleGUICS2Pygame_simpleguics2pygame_timer&#45;&gt;SimpleGUICS2Pygame_simpleguics2pygame -->
<g id="edge44" class="edge"><title>SimpleGUICS2Pygame_simpleguics2pygame_timer&#45;&gt;SimpleGUICS2Pygame_simpleguics2pygame</title><style>.edge>path:hover{stroke-width:8}</style>
<path fill="none" stroke="black" d="M298.024,-617.282C241.439,-592.097 153.896,-545.771 99.7049,-481.227 67.7895,-443.215 16.3228,-307.312 42.7049,-265.271"/>
</g>
<!-- SimpleGUICS2Pygame_simpleguics2pygame&#45;&gt;SimpleGUICS2Pygame_simplegui_lib_loader -->
<g id="edge7" class="edge"><title>SimpleGUICS2Pygame_simpleguics2pygame&#45;&gt;SimpleGUICS2Pygame_simplegui_lib_loader</title><style>.edge>path:hover{stroke-width:8}</style>
<path fill="none" stroke="black" d="M357.442,-159.532C386.054,-148.318 423.342,-133.704 453.614,-121.84"/>
<polygon fill="#950303" stroke="black" points="455.143,-125 463.176,-118.092 452.588,-118.482 455.143,-125"/>
</g>
<!-- SimpleGUICS2Pygame_simplegui_lib_keys -->
<g id="node16" class="node"><title>SimpleGUICS2Pygame_simplegui_lib_keys</title><style>.edge>path:hover{stroke-width:8}</style>
<ellipse fill="#b83d3d" stroke="black" cx="117.705" cy="-99.6396" rx="88.2768" ry="21.4286"/>
<text text-anchor="middle" x="117.705" y="-102.64" font-family="Helvetica,sans-Serif" font-size="10.00" fill="#ffffff">SimpleGUICS2Pygame.</text>
<text text-anchor="middle" x="117.705" y="-91.6396" font-family="Helvetica,sans-Serif" font-size="10.00" fill="#ffffff">simplegui_lib_keys</text>
</g>
<!-- SimpleGUICS2Pygame_simpleguics2pygame&#45;&gt;SimpleGUICS2Pygame_simplegui_lib_keys -->
<g id="edge6" class="edge"><title>SimpleGUICS2Pygame_simpleguics2pygame&#45;&gt;SimpleGUICS2Pygame_simplegui_lib_keys</title><style>.edge>path:hover{stroke-width:8}</style>
<path fill="none" stroke="black" d="M267.968,-159.532C239.356,-148.318 202.068,-133.704 171.796,-121.84"/>
<polygon fill="#950303" stroke="black" points="172.821,-118.482 162.234,-118.092 170.267,-125 172.821,-118.482"/>
</g>
<!-- SimpleGUICS2Pygame_simplegui_lib_fps -->
<g id="node17" class="node"><title>SimpleGUICS2Pygame_simplegui_lib_fps</title><style>.edge>path:hover{stroke-width:8}</style>
<ellipse fill="#b83d3d" stroke="black" cx="312.705" cy="-99.6396" rx="88.2768" ry="21.4286"/>
<text text-anchor="middle" x="312.705" y="-102.64" font-family="Helvetica,sans-Serif" font-size="10.00" fill="#ffffff">SimpleGUICS2Pygame.</text>
<text text-anchor="middle" x="312.705" y="-91.6396" font-family="Helvetica,sans-Serif" font-size="10.00" fill="#ffffff">simplegui_lib_fps</text>
</g>
<!-- SimpleGUICS2Pygame_simpleguics2pygame&#45;&gt;SimpleGUICS2Pygame_simplegui_lib_fps -->
<g id="edge5" class="edge"><title>SimpleGUICS2Pygame_simpleguics2pygame&#45;&gt;SimpleGUICS2Pygame_simplegui_lib_fps</title><style>.edge>path:hover{stroke-width:8}</style>
<path fill="none" stroke="black" d="M312.705,-156.585C312.705,-148.726 312.705,-139.582 312.705,-130.992"/>
<polygon fill="#950303" stroke="black" points="316.205,-130.912 312.705,-120.912 309.205,-130.912 316.205,-130.912"/>
</g>
<!-- SimpleGUICS2Pygame_simpleguics2pygame_canvas&#45;&gt;SimpleGUICS2Pygame_simpleguics2pygame -->
<g id="edge26" class="edge"><title>SimpleGUICS2Pygame_simpleguics2pygame_canvas&#45;&gt;SimpleGUICS2Pygame_simpleguics2pygame</title><style>.edge>path:hover{stroke-width:8}</style>
<path fill="none" stroke="black" d="M453.984,-240.705C425.695,-228.363 390.808,-213.142 362.78,-200.914"/>
<polygon fill="#932424" stroke="black" points="364.123,-197.681 353.558,-196.89 361.324,-204.097 364.123,-197.681"/>
</g>
<!-- SimpleGUICS2Pygame_simpleguics2pygame__options&#45;&gt;SimpleGUICS2Pygame_simpleguics2pygame -->
<g id="edge16" class="edge"><title>SimpleGUICS2Pygame_simpleguics2pygame__options&#45;&gt;SimpleGUICS2Pygame_simpleguics2pygame</title><style>.edge>path:hover{stroke-width:8}</style>
<path fill="none" stroke="black" d="M232.139,-237.549C246.62,-227.037 263.325,-214.911 277.756,-204.436"/>
<polygon fill="#993333" stroke="black" points="279.919,-207.19 285.956,-198.483 275.807,-201.525 279.919,-207.19"/>
</g>
<!-- SimpleGUICS2Pygame_simpleplot -->
<g id="node13" class="node"><title>SimpleGUICS2Pygame_simpleplot</title><style>.edge>path:hover{stroke-width:8}</style>
<ellipse fill="#ac4949" stroke="black" cx="622.705" cy="-820.389" rx="88.2768" ry="21.4286"/>
<text text-anchor="middle" x="622.705" y="-823.389" font-family="Helvetica,sans-Serif" font-size="10.00" fill="#ffffff">SimpleGUICS2Pygame.</text>
<text text-anchor="middle" x="622.705" y="-812.389" font-family="Helvetica,sans-Serif" font-size="10.00" fill="#ffffff">simpleplot</text>
</g>
<!-- SimpleGUICS2Pygame_simpleguics2pygame_sound -->
<g id="node14" class="node"><title>SimpleGUICS2Pygame_simpleguics2pygame_sound</title><style>.edge>path:hover{stroke-width:8}</style>
<ellipse fill="#bc2f2f" stroke="black" cx="158.705" cy="-358.253" rx="88.2768" ry="28.9828"/>
<text text-anchor="middle" x="158.705" y="-366.753" font-family="Helvetica,sans-Serif" font-size="10.00" fill="#ffffff">SimpleGUICS2Pygame.</text>
<text text-anchor="middle" x="158.705" y="-355.753" font-family="Helvetica,sans-Serif" font-size="10.00" fill="#ffffff">simpleguics2pygame.</text>
<text text-anchor="middle" x="158.705" y="-344.753" font-family="Helvetica,sans-Serif" font-size="10.00" fill="#ffffff">sound</text>
</g>
<!-- SimpleGUICS2Pygame_simpleguics2pygame_sound&#45;&gt;SimpleGUICS2Pygame_simpleguics2pygame -->
<g id="edge42" class="edge"><title>SimpleGUICS2Pygame_simpleguics2pygame_sound&#45;&gt;SimpleGUICS2Pygame_simpleguics2pygame</title><style>.edge>path:hover{stroke-width:8}</style>
<path fill="none" stroke="black" d="M98.2454,-336.998C60.8525,-320.929 23.3739,-296.076 42.7049,-265.271"/>
</g>
<!-- SimpleGUICS2Pygame_simpleguics2pygame_sound&#45;&gt;SimpleGUICS2Pygame_simpleguics2pygame__options -->
<g id="edge43" class="edge"><title>SimpleGUICS2Pygame_simpleguics2pygame_sound&#45;&gt;SimpleGUICS2Pygame_simpleguics2pygame__options</title><style>.edge>path:hover{stroke-width:8}</style>
<path fill="none" stroke="black" d="M170.313,-329.156C173.775,-320.775 177.625,-311.455 181.29,-302.583"/>
<polygon fill="#bc2f2f" stroke="black" points="184.585,-303.775 185.168,-293.196 178.115,-301.102 184.585,-303.775"/>
</g>
<!-- SimpleGUICS2Pygame_simplegui_lib_keys&#45;&gt;SimpleGUICS2Pygame_simplegui_lib -->
<g id="edge3" class="edge"><title>SimpleGUICS2Pygame_simplegui_lib_keys&#45;&gt;SimpleGUICS2Pygame_simplegui_lib</title><style>.edge>path:hover{stroke-width:8}</style>
<path fill="none" stroke="black" d="M175.395,-83.5402C223.309,-70.9994 291.549,-53.1386 342.036,-39.9244"/>
<polygon fill="#b83d3d" stroke="black" points="343.098,-43.2646 351.886,-37.3465 341.325,-36.4927 343.098,-43.2646"/>
</g>
<!-- SimpleGUICS2Pygame_simplegui_lib_fps&#45;&gt;SimpleGUICS2Pygame_simplegui_lib -->
<g id="edge2" class="edge"><title>SimpleGUICS2Pygame_simplegui_lib_fps&#45;&gt;SimpleGUICS2Pygame_simplegui_lib</title><style>.edge>path:hover{stroke-width:8}</style>
<path fill="none" stroke="black" d="M337.433,-79.1563C349.405,-69.7239 363.943,-58.2688 376.833,-48.1129"/>
<polygon fill="#b83d3d" stroke="black" points="379.333,-50.599 385.022,-41.661 375.001,-45.1007 379.333,-50.599"/>
</g>
<!-- SimpleGUICS2Pygame_simplegui_lib_draw -->
<g id="node18" class="node"><title>SimpleGUICS2Pygame_simplegui_lib_draw</title><style>.edge>path:hover{stroke-width:8}</style>
<ellipse fill="#c04040" stroke="black" cx="702.705" cy="-99.6396" rx="88.2768" ry="21.4286"/>
<text text-anchor="middle" x="702.705" y="-102.64" font-family="Helvetica,sans-Serif" font-size="10.00" fill="#ffffff">SimpleGUICS2Pygame.</text>
<text text-anchor="middle" x="702.705" y="-91.6396" font-family="Helvetica,sans-Serif" font-size="10.00" fill="#ffffff">simplegui_lib_draw</text>
</g>
<!-- SimpleGUICS2Pygame_simplegui_lib_draw&#45;&gt;SimpleGUICS2Pygame_simplegui_lib -->
<g id="edge1" class="edge"><title>SimpleGUICS2Pygame_simplegui_lib_draw&#45;&gt;SimpleGUICS2Pygame_simplegui_lib</title><style>.edge>path:hover{stroke-width:8}</style>
<path fill="none" stroke="black" d="M644.818,-83.5402C596.661,-70.979 528.043,-53.0805 477.358,-39.86"/>
<polygon fill="#c04040" stroke="black" points="478.032,-36.4186 467.472,-37.2812 476.265,-43.192 478.032,-36.4186"/>
</g>
<!-- SimpleGUICS2Pygame_simpleguics2pygame__media&#45;&gt;SimpleGUICS2Pygame_simpleguics2pygame_image -->
<g id="edge14" class="edge"><title>SimpleGUICS2Pygame_simpleguics2pygame__media&#45;&gt;SimpleGUICS2Pygame_simpleguics2pygame_image</title><style>.edge>path:hover{stroke-width:8}</style>
<path fill="none" stroke="black" d="M251.686,-429.437C285.368,-416.083 328.645,-398.925 363.977,-384.917"/>
<polygon fill="#ac2b2b" stroke="black" points="365.711,-387.994 373.717,-381.055 363.131,-381.487 365.711,-387.994"/>
</g>
<!-- SimpleGUICS2Pygame_simpleguics2pygame__media&#45;&gt;SimpleGUICS2Pygame_simpleguics2pygame_sound -->
<g id="edge15" class="edge"><title>SimpleGUICS2Pygame_simpleguics2pygame__media&#45;&gt;SimpleGUICS2Pygame_simpleguics2pygame_sound</title><style>.edge>path:hover{stroke-width:8}</style>
<path fill="none" stroke="black" d="M185.097,-423.138C181.635,-414.758 177.785,-405.438 174.119,-396.566"/>
<polygon fill="#ac2b2b" stroke="black" points="177.295,-395.085 170.242,-387.179 170.825,-397.758 177.295,-395.085"/>
</g>
<!-- matplotlib -->
<g id="node20" class="node"><title>matplotlib</title><style>.edge>path:hover{stroke-width:8}</style>
<polygon fill="#40c040" stroke="black" points="652.205,-950.602 649.205,-954.602 628.205,-954.602 625.205,-950.602 593.205,-950.602 593.205,-914.602 652.205,-914.602 652.205,-950.602"/>
<text text-anchor="middle" x="622.705" y="-930.102" font-family="Helvetica,sans-Serif" font-size="10.00" fill="#000000">matplotlib</text>
</g>
<!-- matplotlib&#45;&gt;SimpleGUICS2Pygame_simpleplot -->
<g id="edge46" class="edge"><title>matplotlib&#45;&gt;SimpleGUICS2Pygame_simpleplot</title><style>.edge>path:hover{stroke-width:8}</style>
<path fill="none" stroke="black" d="M622.705,-914.381C622.705,-897.754 622.705,-872.208 622.705,-852.095"/>
<polygon fill="#40c040" stroke="black" points="626.205,-851.861 622.705,-841.861 619.205,-851.861 626.205,-851.861"/>
</g>
<!-- pygame -->
<g id="node21" class="node"><title>pygame</title><style>.edge>path:hover{stroke-width:8}</style>
<polygon fill="#4747c2" stroke="black" points="533.705,-950.602 530.705,-954.602 509.705,-954.602 506.705,-950.602 479.705,-950.602 479.705,-914.602 533.705,-914.602 533.705,-950.602"/>
<text text-anchor="middle" x="506.705" y="-930.102" font-family="Helvetica,sans-Serif" font-size="10.00" fill="#ffffff">pygame</text>
</g>
<!-- pygame&#45;&gt;SimpleGUICS2Pygame_simpleguics2pygame__pygame_lib -->
<g id="edge51" class="edge"><title>pygame&#45;&gt;SimpleGUICS2Pygame_simpleguics2pygame__pygame_lib</title><style>.edge>path:hover{stroke-width:8}</style>
<path fill="none" stroke="black" d="M506.705,-819.389C508.307,-804.417 508.62,-787.862 508.422,-773.421"/>
<polygon fill="#4747c2" stroke="black" points="511.919,-773.252 508.198,-763.332 504.921,-773.407 511.919,-773.252"/>
</g>
<!-- pygame&#45;&gt;SimpleGUICS2Pygame_simpleguics2pygame_control -->
<g id="edge53" class="edge"><title>pygame&#45;&gt;SimpleGUICS2Pygame_simpleguics2pygame_control</title><style>.edge>path:hover{stroke-width:8}</style>
<path fill="none" stroke="black" d="M736.705,-733.184C746.231,-717.261 747.109,-696.842 745.228,-679.29"/>
<polygon fill="#4747c2" stroke="black" points="748.689,-678.766 743.846,-669.342 741.755,-679.729 748.689,-678.766"/>
</g>
<!-- pygame&#45;&gt;SimpleGUICS2Pygame_simpleguics2pygame__fonts -->
<g id="edge48" class="edge"><title>pygame&#45;&gt;SimpleGUICS2Pygame_simpleguics2pygame__fonts</title><style>.edge>path:hover{stroke-width:8}</style>
<path fill="none" stroke="black" d="M736.705,-733.184C779.795,-673.758 997.105,-619.534 1009.7,-547.219"/>
<path fill="none" stroke="black" d="M1009.7,-545.219C1013.52,-507.082 978.072,-484.355 940.234,-471.035"/>
<polygon fill="#4747c2" stroke="black" points="941.178,-467.661 930.585,-467.848 938.983,-474.308 941.178,-467.661"/>
</g>
<!-- pygame&#45;&gt;SimpleGUICS2Pygame_simpleguics2pygame_frame -->
<g id="edge54" class="edge"><title>pygame&#45;&gt;SimpleGUICS2Pygame_simpleguics2pygame_frame</title><style>.edge>path:hover{stroke-width:8}</style>
<path fill="none" stroke="black" d="M332.705,-733.184C285.618,-697.189 419.479,-720.176 449.705,-669.193 464.96,-643.461 457.413,-609.645 447.353,-584.146"/>
<polygon fill="#4747c2" stroke="black" points="450.528,-582.668 443.416,-574.815 444.079,-585.389 450.528,-582.668"/>
</g>
<!-- pygame&#45;&gt;SimpleGUICS2Pygame_simpleguics2pygame__colors -->
<g id="edge47" class="edge"><title>pygame&#45;&gt;SimpleGUICS2Pygame_simpleguics2pygame__colors</title><style>.edge>path:hover{stroke-width:8}</style>
<path fill="none" stroke="black" d="M506.705,-819.389C518.29,-711.15 680.82,-828.602 736.705,-735.184"/>
<path fill="none" stroke="black" d="M736.705,-733.184C763.219,-688.863 664.185,-714.67 639.705,-669.193 609.264,-612.643 628.683,-535.633 645.052,-490.495"/>
<polygon fill="#4747c2" stroke="black" points="648.343,-491.687 648.585,-481.095 641.791,-489.224 648.343,-491.687"/>
</g>
<!-- pygame&#45;&gt;SimpleGUICS2Pygame_simpleguics2pygame_canvas -->
<g id="edge52" class="edge"><title>pygame&#45;&gt;SimpleGUICS2Pygame_simpleguics2pygame_canvas</title><style>.edge>path:hover{stroke-width:8}</style>
<path fill="none" stroke="black" d="M1009.7,-545.219C1015.66,-485.678 999.902,-460.028 952.705,-423.245 834.178,-330.871 742.393,-447.421 620.705,-359.253"/>
</g>
<!-- pygame&#45;&gt;SimpleGUICS2Pygame_simpleguics2pygame__options -->
<g id="edge50" class="edge"><title>pygame&#45;&gt;SimpleGUICS2Pygame_simpleguics2pygame__options</title><style>.edge>path:hover{stroke-width:8}</style>
<path fill="none" stroke="black" d="M505.574,-914.361C504.406,-892.616 503.202,-854.113 506.705,-821.389"/>
<path fill="none" stroke="black" d="M506.705,-819.389C509.176,-798.053 350.364,-747.41 332.705,-735.184"/>
<path fill="none" stroke="black" d="M332.705,-733.184C217.393,-653.356 120.381,-770.795 23.7049,-669.193 -14.1147,-629.446 4.7049,-602.083 4.7049,-547.219 4.7049,-547.219 4.7049,-547.219 4.7049,-451.236 4.7049,-391.398 19.5092,-371.69 61.7049,-329.262 79.069,-311.802 102.121,-298.492 124.253,-288.654"/>
<polygon fill="#4747c2" stroke="black" points="125.833,-291.786 133.663,-284.649 123.091,-285.345 125.833,-291.786"/>
</g>
<!-- pygame&#45;&gt;SimpleGUICS2Pygame_simpleguics2pygame__media -->
<g id="edge49" class="edge"><title>pygame&#45;&gt;SimpleGUICS2Pygame_simpleguics2pygame__media</title><style>.edge>path:hover{stroke-width:8}</style>
<path fill="none" stroke="black" d="M332.705,-733.184C296.119,-707.857 285.606,-702.147 255.705,-669.193 245.601,-658.058 246.947,-652.21 236.705,-641.202"/>
<path fill="none" stroke="black" d="M236.705,-639.202C217.11,-618.141 205.66,-539.62 200.344,-491.599"/>
<polygon fill="#4747c2" stroke="black" points="203.814,-491.128 199.272,-481.556 196.853,-491.871 203.814,-491.128"/>
</g>
</g>
</svg>
