<?xml version="1.0" encoding="UTF-8" standalone="no"?>
<!DOCTYPE svg PUBLIC "-//W3C//DTD SVG 1.1//EN"
 "http://www.w3.org/Graphics/SVG/1.1/DTD/svg11.dtd">
<!-- Generated by graphviz version 2.38.0 (20140413.2041)
 -->
<!-- Title: G Pages: 1 -->
<svg width="1163pt" height="900pt"
 viewBox="0.00 0.00 1163.40 899.62" xmlns="http://www.w3.org/2000/svg" xmlns:xlink="http://www.w3.org/1999/xlink">
<g id="graph0" class="graph" transform="scale(1 1) rotate(0) translate(4 895.619)">
<title>G</title><style>.edge>path:hover{stroke-width:8}</style>
<polygon fill="white" stroke="none" points="-4,4 -4,-895.619 1159.4,-895.619 1159.4,4 -4,4"/>
<!-- SimpleGUICS2Pygame_simpleguics2pygame__joypads -->
<g id="node1" class="node"><title>SimpleGUICS2Pygame_simpleguics2pygame__joypads</title><style>.edge>path:hover{stroke-width:8}</style>
<ellipse fill="#a13535" stroke="black" cx="460.009" cy="-546.219" rx="88.2768" ry="28.9828"/>
<text text-anchor="middle" x="460.009" y="-554.719" font-family="Helvetica,sans-Serif" font-size="10.00" fill="#ffffff">SimpleGUICS2Pygame.</text>
<text text-anchor="middle" x="460.009" y="-543.719" font-family="Helvetica,sans-Serif" font-size="10.00" fill="#ffffff">simpleguics2pygame.</text>
<text text-anchor="middle" x="460.009" y="-532.719" font-family="Helvetica,sans-Serif" font-size="10.00" fill="#ffffff">_joypads</text>
</g>
<!-- SimpleGUICS2Pygame_simpleguics2pygame_frame -->
<g id="node15" class="node"><title>SimpleGUICS2Pygame_simpleguics2pygame_frame</title><style>.edge>path:hover{stroke-width:8}</style>
<ellipse fill="#732626" stroke="black" cx="672.009" cy="-264.271" rx="88.2768" ry="28.9828"/>
<text text-anchor="middle" x="672.009" y="-272.771" font-family="Helvetica,sans-Serif" font-size="10.00" fill="#ffffff">SimpleGUICS2Pygame.</text>
<text text-anchor="middle" x="672.009" y="-261.771" font-family="Helvetica,sans-Serif" font-size="10.00" fill="#ffffff">simpleguics2pygame.</text>
<text text-anchor="middle" x="672.009" y="-250.771" font-family="Helvetica,sans-Serif" font-size="10.00" fill="#ffffff">frame</text>
</g>
<!-- SimpleGUICS2Pygame_simpleguics2pygame__joypads&#45;&gt;SimpleGUICS2Pygame_simpleguics2pygame_frame -->
<g id="edge20" class="edge"><title>SimpleGUICS2Pygame_simpleguics2pygame__joypads&#45;&gt;SimpleGUICS2Pygame_simpleguics2pygame_frame</title><style>.edge>path:hover{stroke-width:8}</style>
<path fill="none" stroke="black" d="M427.733,-519.195C417.123,-508.659 406.618,-495.584 401.009,-481.227 391.632,-457.224 385.631,-443.923 401.009,-423.245 459.998,-343.929 568.079,-446.781 614.009,-359.253"/>
<path fill="none" stroke="black" d="M614.009,-357.253C623.694,-338.011 636.269,-317.647 647.233,-300.985"/>
<polygon fill="#a13535" stroke="black" points="650.164,-302.897 652.796,-292.634 644.339,-299.016 650.164,-302.897"/>
</g>
<!-- SimpleGUICS2Pygame_simpleguics2pygame__arguments -->
<g id="node2" class="node"><title>SimpleGUICS2Pygame_simpleguics2pygame__arguments</title><style>.edge>path:hover{stroke-width:8}</style>
<ellipse fill="#f90606" stroke="black" cx="265.009" cy="-640.202" rx="88.2768" ry="28.9828"/>
<text text-anchor="middle" x="265.009" y="-648.702" font-family="Helvetica,sans-Serif" font-size="10.00" fill="#ffffff">SimpleGUICS2Pygame.</text>
<text text-anchor="middle" x="265.009" y="-637.702" font-family="Helvetica,sans-Serif" font-size="10.00" fill="#ffffff">simpleguics2pygame.</text>
<text text-anchor="middle" x="265.009" y="-626.702" font-family="Helvetica,sans-Serif" font-size="10.00" fill="#ffffff">_arguments</text>
</g>
<!-- SimpleGUICS2Pygame_simpleguics2pygame_sound -->
<g id="node5" class="node"><title>SimpleGUICS2Pygame_simpleguics2pygame_sound</title><style>.edge>path:hover{stroke-width:8}</style>
<ellipse fill="#a83838" stroke="black" cx="149.009" cy="-452.236" rx="88.2768" ry="28.9828"/>
<text text-anchor="middle" x="149.009" y="-460.736" font-family="Helvetica,sans-Serif" font-size="10.00" fill="#ffffff">SimpleGUICS2Pygame.</text>
<text text-anchor="middle" x="149.009" y="-449.736" font-family="Helvetica,sans-Serif" font-size="10.00" fill="#ffffff">simpleguics2pygame.</text>
<text text-anchor="middle" x="149.009" y="-438.736" font-family="Helvetica,sans-Serif" font-size="10.00" fill="#ffffff">sound</text>
</g>
<!-- SimpleGUICS2Pygame_simpleguics2pygame__arguments&#45;&gt;SimpleGUICS2Pygame_simpleguics2pygame_sound -->
<g id="edge12" class="edge"><title>SimpleGUICS2Pygame_simpleguics2pygame__arguments&#45;&gt;SimpleGUICS2Pygame_simpleguics2pygame_sound</title><style>.edge>path:hover{stroke-width:8}</style>
<path fill="none" stroke="black" d="M149.009,-545.219C141.155,-528.746 140.313,-508.65 141.788,-491.448"/>
<polygon fill="#f90606" stroke="black" points="145.304,-491.503 142.964,-481.17 138.35,-490.707 145.304,-491.503"/>
</g>
<!-- SimpleGUICS2Pygame_simpleguics2pygame__fonts -->
<g id="node7" class="node"><title>SimpleGUICS2Pygame_simpleguics2pygame__fonts</title><style>.edge>path:hover{stroke-width:8}</style>
<ellipse fill="#b62020" stroke="black" cx="730.009" cy="-546.219" rx="88.2768" ry="28.9828"/>
<text text-anchor="middle" x="730.009" y="-554.719" font-family="Helvetica,sans-Serif" font-size="10.00" fill="#ffffff">SimpleGUICS2Pygame.</text>
<text text-anchor="middle" x="730.009" y="-543.719" font-family="Helvetica,sans-Serif" font-size="10.00" fill="#ffffff">simpleguics2pygame.</text>
<text text-anchor="middle" x="730.009" y="-532.719" font-family="Helvetica,sans-Serif" font-size="10.00" fill="#ffffff">_fonts</text>
</g>
<!-- SimpleGUICS2Pygame_simpleguics2pygame__arguments&#45;&gt;SimpleGUICS2Pygame_simpleguics2pygame__fonts -->
<g id="edge9" class="edge"><title>SimpleGUICS2Pygame_simpleguics2pygame__arguments&#45;&gt;SimpleGUICS2Pygame_simpleguics2pygame__fonts</title><style>.edge>path:hover{stroke-width:8}</style>
<path fill="none" stroke="black" d="M344.387,-627.395C418.213,-615.899 531.081,-597.004 628.009,-575.21 636.89,-573.213 646.156,-570.94 655.325,-568.573"/>
<polygon fill="#f90606" stroke="black" points="656.431,-571.901 665.214,-565.976 654.653,-565.131 656.431,-571.901"/>
</g>
<!-- SimpleGUICS2Pygame_simpleguics2pygame__media -->
<g id="node8" class="node"><title>SimpleGUICS2Pygame_simpleguics2pygame__media</title><style>.edge>path:hover{stroke-width:8}</style>
<ellipse fill="#ae1e1e" stroke="black" cx="265.009" cy="-546.219" rx="88.2768" ry="28.9828"/>
<text text-anchor="middle" x="265.009" y="-554.719" font-family="Helvetica,sans-Serif" font-size="10.00" fill="#ffffff">SimpleGUICS2Pygame.</text>
<text text-anchor="middle" x="265.009" y="-543.719" font-family="Helvetica,sans-Serif" font-size="10.00" fill="#ffffff">simpleguics2pygame.</text>
<text text-anchor="middle" x="265.009" y="-532.719" font-family="Helvetica,sans-Serif" font-size="10.00" fill="#ffffff">_media</text>
</g>
<!-- SimpleGUICS2Pygame_simpleguics2pygame__arguments&#45;&gt;SimpleGUICS2Pygame_simpleguics2pygame__media -->
<g id="edge10" class="edge"><title>SimpleGUICS2Pygame_simpleguics2pygame__arguments&#45;&gt;SimpleGUICS2Pygame_simpleguics2pygame__media</title><style>.edge>path:hover{stroke-width:8}</style>
<path fill="none" stroke="black" d="M265.009,-611.104C265.009,-603.066 265.009,-594.164 265.009,-585.621"/>
<polygon fill="#f90606" stroke="black" points="268.51,-585.461 265.009,-575.461 261.51,-585.461 268.51,-585.461"/>
</g>
<!-- SimpleGUICS2Pygame_simpleguics2pygame_timer -->
<g id="node11" class="node"><title>SimpleGUICS2Pygame_simpleguics2pygame_timer</title><style>.edge>path:hover{stroke-width:8}</style>
<ellipse fill="#bc2f2f" stroke="black" cx="111.009" cy="-358.253" rx="88.2768" ry="28.9828"/>
<text text-anchor="middle" x="111.009" y="-366.753" font-family="Helvetica,sans-Serif" font-size="10.00" fill="#ffffff">SimpleGUICS2Pygame.</text>
<text text-anchor="middle" x="111.009" y="-355.753" font-family="Helvetica,sans-Serif" font-size="10.00" fill="#ffffff">simpleguics2pygame.</text>
<text text-anchor="middle" x="111.009" y="-344.753" font-family="Helvetica,sans-Serif" font-size="10.00" fill="#ffffff">timer</text>
</g>
<!-- SimpleGUICS2Pygame_simpleguics2pygame__arguments&#45;&gt;SimpleGUICS2Pygame_simpleguics2pygame_timer -->
<g id="edge13" class="edge"><title>SimpleGUICS2Pygame_simpleguics2pygame__arguments&#45;&gt;SimpleGUICS2Pygame_simpleguics2pygame_timer</title><style>.edge>path:hover{stroke-width:8}</style>
<path fill="none" stroke="black" d="M33.0094,-451.236C24.7163,-427.799 40.8964,-406.315 60.6314,-390.014"/>
<polygon fill="#f90606" stroke="black" points="62.8772,-392.701 68.6295,-383.804 58.5843,-387.172 62.8772,-392.701"/>
</g>
<!-- SimpleGUICS2Pygame_simpleguics2pygame -->
<g id="node12" class="node"><title>SimpleGUICS2Pygame_simpleguics2pygame</title><style>.edge>path:hover{stroke-width:8}</style>
<ellipse fill="#950303" stroke="black" cx="672.009" cy="-178.066" rx="88.2768" ry="21.4286"/>
<text text-anchor="middle" x="672.009" y="-181.066" font-family="Helvetica,sans-Serif" font-size="10.00" fill="#ffffff">SimpleGUICS2Pygame.</text>
<text text-anchor="middle" x="672.009" y="-170.066" font-family="Helvetica,sans-Serif" font-size="10.00" fill="#ffffff">simpleguics2pygame</text>
</g>
<!-- SimpleGUICS2Pygame_simpleguics2pygame__arguments&#45;&gt;SimpleGUICS2Pygame_simpleguics2pygame -->
<g id="edge8" class="edge"><title>SimpleGUICS2Pygame_simpleguics2pygame__arguments&#45;&gt;SimpleGUICS2Pygame_simpleguics2pygame</title><style>.edge>path:hover{stroke-width:8}</style>
<path fill="none" stroke="black" d="M217.927,-615.664C192.396,-600.09 163.224,-577.03 149.009,-547.219"/>
<path fill="none" stroke="black" d="M149.009,-545.219C120.69,-485.828 54.9579,-515.264 33.0094,-453.236"/>
<path fill="none" stroke="black" d="M33.0094,-451.236C14.7079,-399.514 -18.7322,-373.286 14.0094,-329.262 72.9984,-249.946 143.54,-318.219 227.009,-265.271"/>
<path fill="none" stroke="black" d="M227.009,-263.271C284.27,-226.021 468.804,-200.545 581.463,-188.021"/>
<polygon fill="#f90606" stroke="black" points="581.903,-191.494 591.461,-186.922 581.139,-184.536 581.903,-191.494"/>
</g>
<!-- SimpleGUICS2Pygame_simpleguics2pygame__arguments&#45;&gt;SimpleGUICS2Pygame_simpleguics2pygame_frame -->
<g id="edge11" class="edge"><title>SimpleGUICS2Pygame_simpleguics2pygame__arguments&#45;&gt;SimpleGUICS2Pygame_simpleguics2pygame_frame</title><style>.edge>path:hover{stroke-width:8}</style>
<path fill="none" stroke="black" d="M149.009,-545.219C142.538,-531.647 156.543,-526.953 168.009,-517.227 207.397,-483.82 250.912,-502.922 265.009,-453.236"/>
<path fill="none" stroke="black" d="M265.009,-451.236C300.84,-324.95 466.691,-284.356 575.309,-271.35"/>
<polygon fill="#f90606" stroke="black" points="575.769,-274.82 585.309,-270.21 574.977,-267.865 575.769,-274.82"/>
</g>
<!-- SimpleGUICS2Pygame_simplegui_lib_loader -->
<g id="node3" class="node"><title>SimpleGUICS2Pygame_simplegui_lib_loader</title><style>.edge>path:hover{stroke-width:8}</style>
<ellipse fill="#b83d3d" stroke="black" cx="672.009" cy="-99.6396" rx="88.2768" ry="21.4286"/>
<text text-anchor="middle" x="672.009" y="-102.64" font-family="Helvetica,sans-Serif" font-size="10.00" fill="#ffffff">SimpleGUICS2Pygame.</text>
<text text-anchor="middle" x="672.009" y="-91.6396" font-family="Helvetica,sans-Serif" font-size="10.00" fill="#ffffff">simplegui_lib_loader</text>
</g>
<!-- SimpleGUICS2Pygame_simplegui_lib -->
<g id="node17" class="node"><title>SimpleGUICS2Pygame_simplegui_lib</title><style>.edge>path:hover{stroke-width:8}</style>
<ellipse fill="#964040" stroke="black" cx="574.009" cy="-21.2132" rx="88.2768" ry="21.4286"/>
<text text-anchor="middle" x="574.009" y="-24.2132" font-family="Helvetica,sans-Serif" font-size="10.00" fill="#ffffff">SimpleGUICS2Pygame.</text>
<text text-anchor="middle" x="574.009" y="-13.2132" font-family="Helvetica,sans-Serif" font-size="10.00" fill="#ffffff">simplegui_lib</text>
</g>
<!-- SimpleGUICS2Pygame_simplegui_lib_loader&#45;&gt;SimpleGUICS2Pygame_simplegui_lib -->
<g id="edge4" class="edge"><title>SimpleGUICS2Pygame_simplegui_lib_loader&#45;&gt;SimpleGUICS2Pygame_simplegui_lib</title><style>.edge>path:hover{stroke-width:8}</style>
<path fill="none" stroke="black" d="M647.026,-79.1563C634.816,-69.634 619.963,-58.0504 606.848,-47.8231"/>
<polygon fill="#b83d3d" stroke="black" points="608.985,-45.0507 598.947,-41.661 604.68,-50.5706 608.985,-45.0507"/>
</g>
<!-- SimpleGUICS2Pygame_simpleguics2pygame__colors -->
<g id="node4" class="node"><title>SimpleGUICS2Pygame_simpleguics2pygame__colors</title><style>.edge>path:hover{stroke-width:8}</style>
<ellipse fill="#bf2121" stroke="black" cx="962.009" cy="-546.219" rx="88.2768" ry="28.9828"/>
<text text-anchor="middle" x="962.009" y="-554.719" font-family="Helvetica,sans-Serif" font-size="10.00" fill="#ffffff">SimpleGUICS2Pygame.</text>
<text text-anchor="middle" x="962.009" y="-543.719" font-family="Helvetica,sans-Serif" font-size="10.00" fill="#ffffff">simpleguics2pygame.</text>
<text text-anchor="middle" x="962.009" y="-532.719" font-family="Helvetica,sans-Serif" font-size="10.00" fill="#ffffff">_colors</text>
</g>
<!-- SimpleGUICS2Pygame_simpleguics2pygame_control -->
<g id="node14" class="node"><title>SimpleGUICS2Pygame_simpleguics2pygame_control</title><style>.edge>path:hover{stroke-width:8}</style>
<ellipse fill="#a32828" stroke="black" cx="797.009" cy="-452.236" rx="88.2768" ry="28.9828"/>
<text text-anchor="middle" x="797.009" y="-460.736" font-family="Helvetica,sans-Serif" font-size="10.00" fill="#ffffff">SimpleGUICS2Pygame.</text>
<text text-anchor="middle" x="797.009" y="-449.736" font-family="Helvetica,sans-Serif" font-size="10.00" fill="#ffffff">simpleguics2pygame.</text>
<text text-anchor="middle" x="797.009" y="-438.736" font-family="Helvetica,sans-Serif" font-size="10.00" fill="#ffffff">control</text>
</g>
<!-- SimpleGUICS2Pygame_simpleguics2pygame__colors&#45;&gt;SimpleGUICS2Pygame_simpleguics2pygame_control -->
<g id="edge15" class="edge"><title>SimpleGUICS2Pygame_simpleguics2pygame__colors&#45;&gt;SimpleGUICS2Pygame_simpleguics2pygame_control</title><style>.edge>path:hover{stroke-width:8}</style>
<path fill="none" stroke="black" d="M918.226,-520.811C897.164,-509.069 871.748,-494.901 849.641,-482.576"/>
<polygon fill="#bf2121" stroke="black" points="851.15,-479.411 840.711,-477.599 847.742,-485.525 851.15,-479.411"/>
</g>
<!-- SimpleGUICS2Pygame_simpleguics2pygame__colors&#45;&gt;SimpleGUICS2Pygame_simpleguics2pygame_frame -->
<g id="edge16" class="edge"><title>SimpleGUICS2Pygame_simpleguics2pygame__colors&#45;&gt;SimpleGUICS2Pygame_simpleguics2pygame_frame</title><style>.edge>path:hover{stroke-width:8}</style>
<path fill="none" stroke="black" d="M913.009,-451.236C874.129,-397.495 878.939,-370.53 827.009,-329.262 803.97,-310.952 774.958,-297.125 748.282,-287.095"/>
<polygon fill="#bf2121" stroke="black" points="749.17,-283.694 738.576,-283.57 746.78,-290.273 749.17,-283.694"/>
</g>
<!-- SimpleGUICS2Pygame_simpleguics2pygame_canvas -->
<g id="node19" class="node"><title>SimpleGUICS2Pygame_simpleguics2pygame_canvas</title><style>.edge>path:hover{stroke-width:8}</style>
<ellipse fill="#9b2626" stroke="black" cx="730.009" cy="-358.253" rx="88.2768" ry="28.9828"/>
<text text-anchor="middle" x="730.009" y="-366.753" font-family="Helvetica,sans-Serif" font-size="10.00" fill="#ffffff">SimpleGUICS2Pygame.</text>
<text text-anchor="middle" x="730.009" y="-355.753" font-family="Helvetica,sans-Serif" font-size="10.00" fill="#ffffff">simpleguics2pygame.</text>
<text text-anchor="middle" x="730.009" y="-344.753" font-family="Helvetica,sans-Serif" font-size="10.00" fill="#ffffff">canvas</text>
</g>
<!-- SimpleGUICS2Pygame_simpleguics2pygame__colors&#45;&gt;SimpleGUICS2Pygame_simpleguics2pygame_canvas -->
<g id="edge14" class="edge"><title>SimpleGUICS2Pygame_simpleguics2pygame__colors&#45;&gt;SimpleGUICS2Pygame_simpleguics2pygame_canvas</title><style>.edge>path:hover{stroke-width:8}</style>
<path fill="none" stroke="black" d="M949.704,-517.501C940.741,-498.615 927.645,-473.466 913.009,-453.236"/>
<path fill="none" stroke="black" d="M913.009,-451.236C904.196,-439.054 905.765,-432.62 894.009,-423.245 869.429,-403.641 838.122,-389.459 809.462,-379.508"/>
<polygon fill="#bf2121" stroke="black" points="810.452,-376.148 799.858,-376.293 808.23,-382.786 810.452,-376.148"/>
</g>
<!-- SimpleGUICS2Pygame_simpleguics2pygame_sound&#45;&gt;SimpleGUICS2Pygame_simpleguics2pygame -->
<g id="edge44" class="edge"><title>SimpleGUICS2Pygame_simpleguics2pygame_sound&#45;&gt;SimpleGUICS2Pygame_simpleguics2pygame</title><style>.edge>path:hover{stroke-width:8}</style>
<path fill="none" stroke="black" d="M179.792,-425.006C190.372,-414.358 201.244,-401.262 208.009,-387.245 231.858,-337.835 181.073,-295.27 227.009,-265.271"/>
</g>
<!-- SimpleGUICS2Pygame_simplegui_lib_fps -->
<g id="node6" class="node"><title>SimpleGUICS2Pygame_simplegui_lib_fps</title><style>.edge>path:hover{stroke-width:8}</style>
<ellipse fill="#b83d3d" stroke="black" cx="867.009" cy="-99.6396" rx="88.2768" ry="21.4286"/>
<text text-anchor="middle" x="867.009" y="-102.64" font-family="Helvetica,sans-Serif" font-size="10.00" fill="#ffffff">SimpleGUICS2Pygame.</text>
<text text-anchor="middle" x="867.009" y="-91.6396" font-family="Helvetica,sans-Serif" font-size="10.00" fill="#ffffff">simplegui_lib_fps</text>
</g>
<!-- SimpleGUICS2Pygame_simplegui_lib_fps&#45;&gt;SimpleGUICS2Pygame_simplegui_lib -->
<g id="edge2" class="edge"><title>SimpleGUICS2Pygame_simplegui_lib_fps&#45;&gt;SimpleGUICS2Pygame_simplegui_lib</title><style>.edge>path:hover{stroke-width:8}</style>
<path fill="none" stroke="black" d="M809.122,-83.5402C760.966,-70.979 692.347,-53.0805 641.663,-39.86"/>
<polygon fill="#b83d3d" stroke="black" points="642.336,-36.4186 631.777,-37.2812 640.569,-43.192 642.336,-36.4186"/>
</g>
<!-- SimpleGUICS2Pygame_simpleguics2pygame__fonts&#45;&gt;SimpleGUICS2Pygame_simpleguics2pygame_control -->
<g id="edge18" class="edge"><title>SimpleGUICS2Pygame_simpleguics2pygame__fonts&#45;&gt;SimpleGUICS2Pygame_simpleguics2pygame_control</title><style>.edge>path:hover{stroke-width:8}</style>
<path fill="none" stroke="black" d="M750.112,-517.621C756.73,-508.535 764.184,-498.302 771.168,-488.713"/>
<polygon fill="#b62020" stroke="black" points="774.094,-490.641 777.152,-480.498 768.436,-486.52 774.094,-490.641"/>
</g>
<!-- SimpleGUICS2Pygame_simpleguics2pygame__fonts&#45;&gt;SimpleGUICS2Pygame_simpleguics2pygame_frame -->
<g id="edge19" class="edge"><title>SimpleGUICS2Pygame_simpleguics2pygame__fonts&#45;&gt;SimpleGUICS2Pygame_simpleguics2pygame_frame</title><style>.edge>path:hover{stroke-width:8}</style>
<path fill="none" stroke="black" d="M675.002,-523.503C647.209,-508.651 618.418,-485.708 614.009,-453.236"/>
</g>
<!-- SimpleGUICS2Pygame_simpleguics2pygame__fonts&#45;&gt;SimpleGUICS2Pygame_simpleguics2pygame_canvas -->
<g id="edge17" class="edge"><title>SimpleGUICS2Pygame_simpleguics2pygame__fonts&#45;&gt;SimpleGUICS2Pygame_simpleguics2pygame_canvas</title><style>.edge>path:hover{stroke-width:8}</style>
<path fill="none" stroke="black" d="M688.184,-520.271C666.343,-503.689 645.399,-480.072 652.009,-453.236"/>
</g>
<!-- SimpleGUICS2Pygame_simpleguics2pygame__media&#45;&gt;SimpleGUICS2Pygame_simpleguics2pygame_sound -->
<g id="edge23" class="edge"><title>SimpleGUICS2Pygame_simpleguics2pygame__media&#45;&gt;SimpleGUICS2Pygame_simpleguics2pygame_sound</title><style>.edge>path:hover{stroke-width:8}</style>
<path fill="none" stroke="black" d="M232.079,-519.106C218.977,-508.717 203.761,-496.651 189.959,-485.707"/>
<polygon fill="#ae1e1e" stroke="black" points="192.033,-482.885 182.022,-479.414 187.683,-488.37 192.033,-482.885"/>
</g>
<!-- SimpleGUICS2Pygame_simpleguics2pygame__media&#45;&gt;SimpleGUICS2Pygame_simpleguics2pygame_frame -->
<g id="edge21" class="edge"><title>SimpleGUICS2Pygame_simpleguics2pygame__media&#45;&gt;SimpleGUICS2Pygame_simpleguics2pygame_frame</title><style>.edge>path:hover{stroke-width:8}</style>
<path fill="none" stroke="black" d="M261.066,-516.897C259.447,-498.421 259.125,-473.976 265.009,-453.236"/>
</g>
<!-- SimpleGUICS2Pygame_simpleguics2pygame_image -->
<g id="node16" class="node"><title>SimpleGUICS2Pygame_simpleguics2pygame_image</title><style>.edge>path:hover{stroke-width:8}</style>
<ellipse fill="#bf2121" stroke="black" cx="498.009" cy="-452.236" rx="88.2768" ry="28.9828"/>
<text text-anchor="middle" x="498.009" y="-460.736" font-family="Helvetica,sans-Serif" font-size="10.00" fill="#ffffff">SimpleGUICS2Pygame.</text>
<text text-anchor="middle" x="498.009" y="-449.736" font-family="Helvetica,sans-Serif" font-size="10.00" fill="#ffffff">simpleguics2pygame.</text>
<text text-anchor="middle" x="498.009" y="-438.736" font-family="Helvetica,sans-Serif" font-size="10.00" fill="#ffffff">image</text>
</g>
<!-- SimpleGUICS2Pygame_simpleguics2pygame__media&#45;&gt;SimpleGUICS2Pygame_simpleguics2pygame_image -->
<g id="edge22" class="edge"><title>SimpleGUICS2Pygame_simpleguics2pygame__media&#45;&gt;SimpleGUICS2Pygame_simpleguics2pygame_image</title><style>.edge>path:hover{stroke-width:8}</style>
<path fill="none" stroke="black" d="M320.227,-523.42C354.199,-510.009 397.89,-492.761 433.457,-478.72"/>
<polygon fill="#ae1e1e" stroke="black" points="434.769,-481.965 442.785,-475.037 432.198,-475.454 434.769,-481.965"/>
</g>
<!-- SimpleGUICS2Pygame_simplegui_lib_draw -->
<g id="node9" class="node"><title>SimpleGUICS2Pygame_simplegui_lib_draw</title><style>.edge>path:hover{stroke-width:8}</style>
<ellipse fill="#c04040" stroke="black" cx="282.009" cy="-99.6396" rx="88.2768" ry="21.4286"/>
<text text-anchor="middle" x="282.009" y="-102.64" font-family="Helvetica,sans-Serif" font-size="10.00" fill="#ffffff">SimpleGUICS2Pygame.</text>
<text text-anchor="middle" x="282.009" y="-91.6396" font-family="Helvetica,sans-Serif" font-size="10.00" fill="#ffffff">simplegui_lib_draw</text>
</g>
<!-- SimpleGUICS2Pygame_simplegui_lib_draw&#45;&gt;SimpleGUICS2Pygame_simplegui_lib -->
<g id="edge1" class="edge"><title>SimpleGUICS2Pygame_simplegui_lib_draw&#45;&gt;SimpleGUICS2Pygame_simplegui_lib</title><style>.edge>path:hover{stroke-width:8}</style>
<path fill="none" stroke="black" d="M339.699,-83.5402C387.613,-70.9994 455.854,-53.1386 506.341,-39.9244"/>
<polygon fill="#c04040" stroke="black" points="507.402,-43.2646 516.19,-37.3465 505.63,-36.4927 507.402,-43.2646"/>
</g>
<!-- SimpleGUICS2Pygame_simpleguics2pygame__pygame_init -->
<g id="node10" class="node"><title>SimpleGUICS2Pygame_simpleguics2pygame__pygame_init</title><style>.edge>path:hover{stroke-width:8}</style>
<ellipse fill="#d10505" stroke="black" cx="846.009" cy="-640.202" rx="88.2768" ry="28.9828"/>
<text text-anchor="middle" x="846.009" y="-648.702" font-family="Helvetica,sans-Serif" font-size="10.00" fill="#ffffff">SimpleGUICS2Pygame.</text>
<text text-anchor="middle" x="846.009" y="-637.702" font-family="Helvetica,sans-Serif" font-size="10.00" fill="#ffffff">simpleguics2pygame.</text>
<text text-anchor="middle" x="846.009" y="-626.702" font-family="Helvetica,sans-Serif" font-size="10.00" fill="#ffffff">_pygame_init</text>
</g>
<!-- SimpleGUICS2Pygame_simpleguics2pygame__pygame_init&#45;&gt;SimpleGUICS2Pygame_simpleguics2pygame__joypads -->
<g id="edge27" class="edge"><title>SimpleGUICS2Pygame_simpleguics2pygame__pygame_init&#45;&gt;SimpleGUICS2Pygame_simpleguics2pygame__joypads</title><style>.edge>path:hover{stroke-width:8}</style>
<path fill="none" stroke="black" d="M775.66,-622.438C709.233,-606.608 609.709,-582.892 540.227,-566.334"/>
<polygon fill="#d10505" stroke="black" points="540.74,-562.859 530.201,-563.945 539.117,-569.668 540.74,-562.859"/>
</g>
<!-- SimpleGUICS2Pygame_simpleguics2pygame__pygame_init&#45;&gt;SimpleGUICS2Pygame_simpleguics2pygame__colors -->
<g id="edge25" class="edge"><title>SimpleGUICS2Pygame_simpleguics2pygame__pygame_init&#45;&gt;SimpleGUICS2Pygame_simpleguics2pygame__colors</title><style>.edge>path:hover{stroke-width:8}</style>
<path fill="none" stroke="black" d="M878.94,-613.089C892.042,-602.7 907.258,-590.634 921.06,-579.69"/>
<polygon fill="#d10505" stroke="black" points="923.336,-582.352 928.996,-573.397 918.986,-576.868 923.336,-582.352"/>
</g>
<!-- SimpleGUICS2Pygame_simpleguics2pygame__pygame_init&#45;&gt;SimpleGUICS2Pygame_simpleguics2pygame__fonts -->
<g id="edge26" class="edge"><title>SimpleGUICS2Pygame_simpleguics2pygame__pygame_init&#45;&gt;SimpleGUICS2Pygame_simpleguics2pygame__fonts</title><style>.edge>path:hover{stroke-width:8}</style>
<path fill="none" stroke="black" d="M813.079,-613.089C799.977,-602.7 784.761,-590.634 770.959,-579.69"/>
<polygon fill="#d10505" stroke="black" points="773.033,-576.868 763.022,-573.397 768.683,-582.352 773.033,-576.868"/>
</g>
<!-- SimpleGUICS2Pygame_simpleguics2pygame__pygame_init&#45;&gt;SimpleGUICS2Pygame_simpleguics2pygame__media -->
<g id="edge28" class="edge"><title>SimpleGUICS2Pygame_simpleguics2pygame__pygame_init&#45;&gt;SimpleGUICS2Pygame_simpleguics2pygame__media</title><style>.edge>path:hover{stroke-width:8}</style>
<path fill="none" stroke="black" d="M763.285,-629.728C646.052,-616.047 437.544,-590.705 363.009,-575.21 354.791,-573.502 346.254,-571.465 337.798,-569.281"/>
<polygon fill="#d10505" stroke="black" points="338.496,-565.845 327.932,-566.66 336.698,-572.611 338.496,-565.845"/>
</g>
<!-- SimpleGUICS2Pygame_simpleguics2pygame__pygame_init&#45;&gt;SimpleGUICS2Pygame_simpleguics2pygame -->
<g id="edge24" class="edge"><title>SimpleGUICS2Pygame_simpleguics2pygame__pygame_init&#45;&gt;SimpleGUICS2Pygame_simpleguics2pygame</title><style>.edge>path:hover{stroke-width:8}</style>
<path fill="none" stroke="black" d="M911.628,-620.639C971.901,-603.411 1052.81,-579.758 1059.01,-575.21 1071.13,-566.314 1071.59,-560.817 1078.01,-547.219"/>
<path fill="none" stroke="black" d="M1078.01,-545.219C1114.3,-468.301 1012.18,-461.105 970.009,-387.245 940.341,-335.28 947.01,-314.51 913.009,-265.271"/>
</g>
<!-- SimpleGUICS2Pygame_simpleguics2pygame__pygame_init&#45;&gt;SimpleGUICS2Pygame_simpleguics2pygame_control -->
<g id="edge30" class="edge"><title>SimpleGUICS2Pygame_simpleguics2pygame__pygame_init&#45;&gt;SimpleGUICS2Pygame_simpleguics2pygame_control</title><style>.edge>path:hover{stroke-width:8}</style>
<path fill="none" stroke="black" d="M852.882,-611.217C856.034,-591.977 856.976,-566.518 846.009,-547.219"/>
<path fill="none" stroke="black" d="M846.009,-545.219C835.827,-527.3 825.005,-507.117 816.128,-490.231"/>
<polygon fill="#d10505" stroke="black" points="819.152,-488.461 811.413,-481.225 812.951,-491.708 819.152,-488.461"/>
</g>
<!-- SimpleGUICS2Pygame_simpleguics2pygame__pygame_init&#45;&gt;SimpleGUICS2Pygame_simpleguics2pygame_frame -->
<g id="edge31" class="edge"><title>SimpleGUICS2Pygame_simpleguics2pygame__pygame_init&#45;&gt;SimpleGUICS2Pygame_simpleguics2pygame_frame</title><style>.edge>path:hover{stroke-width:8}</style>
<path fill="none" stroke="black" d="M614.009,-545.219C586.811,-514.698 619.51,-493.746 614.009,-453.236"/>
</g>
<!-- SimpleGUICS2Pygame_simpleguics2pygame__pygame_init&#45;&gt;SimpleGUICS2Pygame_simpleguics2pygame_image -->
<g id="edge32" class="edge"><title>SimpleGUICS2Pygame_simpleguics2pygame__pygame_init&#45;&gt;SimpleGUICS2Pygame_simpleguics2pygame_image</title><style>.edge>path:hover{stroke-width:8}</style>
<path fill="none" stroke="black" d="M765.305,-628.302C722.788,-619.439 671.608,-603.54 633.009,-575.21 620.888,-566.314 624.013,-558.444 614.009,-547.219"/>
<path fill="none" stroke="black" d="M614.009,-545.219C593.692,-522.419 567.245,-500.968 544.736,-484.526"/>
<polygon fill="#d10505" stroke="black" points="546.485,-481.473 536.323,-478.477 542.399,-487.157 546.485,-481.473"/>
</g>
<!-- SimpleGUICS2Pygame_simpleguics2pygame_keys -->
<g id="node18" class="node"><title>SimpleGUICS2Pygame_simpleguics2pygame_keys</title><style>.edge>path:hover{stroke-width:8}</style>
<ellipse fill="#ac2b2b" stroke="black" cx="1067.01" cy="-358.253" rx="88.2768" ry="28.9828"/>
<text text-anchor="middle" x="1067.01" y="-366.753" font-family="Helvetica,sans-Serif" font-size="10.00" fill="#ffffff">SimpleGUICS2Pygame.</text>
<text text-anchor="middle" x="1067.01" y="-355.753" font-family="Helvetica,sans-Serif" font-size="10.00" fill="#ffffff">simpleguics2pygame.</text>
<text text-anchor="middle" x="1067.01" y="-344.753" font-family="Helvetica,sans-Serif" font-size="10.00" fill="#ffffff">keys</text>
</g>
<!-- SimpleGUICS2Pygame_simpleguics2pygame__pygame_init&#45;&gt;SimpleGUICS2Pygame_simpleguics2pygame_keys -->
<g id="edge33" class="edge"><title>SimpleGUICS2Pygame_simpleguics2pygame__pygame_init&#45;&gt;SimpleGUICS2Pygame_simpleguics2pygame_keys</title><style>.edge>path:hover{stroke-width:8}</style>
<path fill="none" stroke="black" d="M1078.01,-545.219C1096.88,-505.216 1122.21,-497.032 1116.01,-453.236"/>
<path fill="none" stroke="black" d="M1116.01,-451.236C1113.19,-431.283 1103.54,-411.281 1093.55,-395.05"/>
<polygon fill="#d10505" stroke="black" points="1096.37,-392.954 1088.01,-386.445 1090.48,-396.746 1096.37,-392.954"/>
</g>
<!-- SimpleGUICS2Pygame_simpleguics2pygame__pygame_init&#45;&gt;SimpleGUICS2Pygame_simpleguics2pygame_canvas -->
<g id="edge29" class="edge"><title>SimpleGUICS2Pygame_simpleguics2pygame__pygame_init&#45;&gt;SimpleGUICS2Pygame_simpleguics2pygame_canvas</title><style>.edge>path:hover{stroke-width:8}</style>
<path fill="none" stroke="black" d="M614.009,-545.219C584.581,-512.196 641.43,-496.185 652.009,-453.236"/>
<path fill="none" stroke="black" d="M652.009,-451.236C657.612,-428.493 673.212,-408.063 689.003,-392.266"/>
<polygon fill="#d10505" stroke="black" points="691.432,-394.786 696.236,-385.343 686.592,-389.729 691.432,-394.786"/>
</g>
<!-- SimpleGUICS2Pygame_simpleguics2pygame_timer&#45;&gt;SimpleGUICS2Pygame_simpleguics2pygame -->
<g id="edge45" class="edge"><title>SimpleGUICS2Pygame_simpleguics2pygame_timer&#45;&gt;SimpleGUICS2Pygame_simpleguics2pygame</title><style>.edge>path:hover{stroke-width:8}</style>
<path fill="none" stroke="black" d="M140.75,-330.864C163.461,-311.424 196.025,-285.039 227.009,-265.271"/>
</g>
<!-- SimpleGUICS2Pygame_simpleguics2pygame_timer&#45;&gt;SimpleGUICS2Pygame_simpleguics2pygame_frame -->
<g id="edge46" class="edge"><title>SimpleGUICS2Pygame_simpleguics2pygame_timer&#45;&gt;SimpleGUICS2Pygame_simpleguics2pygame_frame</title><style>.edge>path:hover{stroke-width:8}</style>
<path fill="none" stroke="black" d="M184.274,-341.937C205.742,-337.63 229.283,-333.083 251.009,-329.262 364.648,-309.276 496.202,-289.875 581.59,-277.774"/>
<polygon fill="#bc2f2f" stroke="black" points="582.1,-281.237 591.511,-276.372 581.12,-274.306 582.1,-281.237"/>
</g>
<!-- SimpleGUICS2Pygame_simpleguics2pygame&#45;&gt;SimpleGUICS2Pygame_simplegui_lib_loader -->
<g id="edge7" class="edge"><title>SimpleGUICS2Pygame_simpleguics2pygame&#45;&gt;SimpleGUICS2Pygame_simplegui_lib_loader</title><style>.edge>path:hover{stroke-width:8}</style>
<path fill="none" stroke="black" d="M672.009,-156.585C672.009,-148.726 672.009,-139.582 672.009,-130.992"/>
<polygon fill="#950303" stroke="black" points="675.51,-130.912 672.009,-120.912 668.51,-130.912 675.51,-130.912"/>
</g>
<!-- SimpleGUICS2Pygame_simpleguics2pygame&#45;&gt;SimpleGUICS2Pygame_simplegui_lib_fps -->
<g id="edge5" class="edge"><title>SimpleGUICS2Pygame_simpleguics2pygame&#45;&gt;SimpleGUICS2Pygame_simplegui_lib_fps</title><style>.edge>path:hover{stroke-width:8}</style>
<path fill="none" stroke="black" d="M716.746,-159.532C745.359,-148.318 782.646,-133.704 812.918,-121.84"/>
<polygon fill="#950303" stroke="black" points="814.447,-125 822.481,-118.092 811.893,-118.482 814.447,-125"/>
</g>
<!-- SimpleGUICS2Pygame_simplegui_lib_keys -->
<g id="node20" class="node"><title>SimpleGUICS2Pygame_simplegui_lib_keys</title><style>.edge>path:hover{stroke-width:8}</style>
<ellipse fill="#b83d3d" stroke="black" cx="477.009" cy="-99.6396" rx="88.2768" ry="21.4286"/>
<text text-anchor="middle" x="477.009" y="-102.64" font-family="Helvetica,sans-Serif" font-size="10.00" fill="#ffffff">SimpleGUICS2Pygame.</text>
<text text-anchor="middle" x="477.009" y="-91.6396" font-family="Helvetica,sans-Serif" font-size="10.00" fill="#ffffff">simplegui_lib_keys</text>
</g>
<!-- SimpleGUICS2Pygame_simpleguics2pygame&#45;&gt;SimpleGUICS2Pygame_simplegui_lib_keys -->
<g id="edge6" class="edge"><title>SimpleGUICS2Pygame_simpleguics2pygame&#45;&gt;SimpleGUICS2Pygame_simplegui_lib_keys</title><style>.edge>path:hover{stroke-width:8}</style>
<path fill="none" stroke="black" d="M627.273,-159.532C598.66,-148.318 561.373,-133.704 531.1,-121.84"/>
<polygon fill="#950303" stroke="black" points="532.126,-118.482 521.538,-118.092 529.571,-125 532.126,-118.482"/>
</g>
<!-- SimpleGUICS2Pygame_simpleplot -->
<g id="node13" class="node"><title>SimpleGUICS2Pygame_simpleplot</title><style>.edge>path:hover{stroke-width:8}</style>
<ellipse fill="#ac4949" stroke="black" cx="962.009" cy="-726.406" rx="88.2768" ry="21.4286"/>
<text text-anchor="middle" x="962.009" y="-729.406" font-family="Helvetica,sans-Serif" font-size="10.00" fill="#ffffff">SimpleGUICS2Pygame.</text>
<text text-anchor="middle" x="962.009" y="-718.406" font-family="Helvetica,sans-Serif" font-size="10.00" fill="#ffffff">simpleplot</text>
</g>
<!-- SimpleGUICS2Pygame_simpleguics2pygame_control&#45;&gt;SimpleGUICS2Pygame_simpleguics2pygame -->
<g id="edge36" class="edge"><title>SimpleGUICS2Pygame_simpleguics2pygame_control&#45;&gt;SimpleGUICS2Pygame_simpleguics2pygame</title><style>.edge>path:hover{stroke-width:8}</style>
<path fill="none" stroke="black" d="M833.406,-425.489C879.775,-389.431 949.749,-321.946 913.009,-265.271"/>
</g>
<!-- SimpleGUICS2Pygame_simpleguics2pygame_control&#45;&gt;SimpleGUICS2Pygame_simpleguics2pygame_frame -->
<g id="edge37" class="edge"><title>SimpleGUICS2Pygame_simpleguics2pygame_control&#45;&gt;SimpleGUICS2Pygame_simpleguics2pygame_frame</title><style>.edge>path:hover{stroke-width:8}</style>
<path fill="none" stroke="black" d="M715.222,-441.107C655.644,-429.71 589.349,-406.247 614.009,-359.253"/>
</g>
<!-- SimpleGUICS2Pygame_simpleguics2pygame_frame&#45;&gt;SimpleGUICS2Pygame_simpleguics2pygame -->
<g id="edge38" class="edge"><title>SimpleGUICS2Pygame_simpleguics2pygame_frame&#45;&gt;SimpleGUICS2Pygame_simpleguics2pygame</title><style>.edge>path:hover{stroke-width:8}</style>
<path fill="none" stroke="black" d="M672.009,-235.232C672.009,-227.024 672.009,-218.01 672.009,-209.653"/>
<polygon fill="#732626" stroke="black" points="675.51,-209.527 672.009,-199.527 668.51,-209.527 675.51,-209.527"/>
</g>
<!-- SimpleGUICS2Pygame_simpleguics2pygame_image&#45;&gt;SimpleGUICS2Pygame_simpleguics2pygame -->
<g id="edge39" class="edge"><title>SimpleGUICS2Pygame_simpleguics2pygame_image&#45;&gt;SimpleGUICS2Pygame_simpleguics2pygame</title><style>.edge>path:hover{stroke-width:8}</style>
<path fill="none" stroke="black" d="M448.065,-428.206C357.732,-385.311 180.649,-294.849 227.009,-265.271"/>
</g>
<!-- SimpleGUICS2Pygame_simpleguics2pygame_image&#45;&gt;SimpleGUICS2Pygame_simpleguics2pygame_frame -->
<g id="edge41" class="edge"><title>SimpleGUICS2Pygame_simpleguics2pygame_image&#45;&gt;SimpleGUICS2Pygame_simpleguics2pygame_frame</title><style>.edge>path:hover{stroke-width:8}</style>
<path fill="none" stroke="black" d="M543.955,-427.46C569.269,-411.739 598.603,-388.612 614.009,-359.253"/>
</g>
<!-- SimpleGUICS2Pygame_simpleguics2pygame_image&#45;&gt;SimpleGUICS2Pygame_simpleguics2pygame_canvas -->
<g id="edge40" class="edge"><title>SimpleGUICS2Pygame_simpleguics2pygame_image&#45;&gt;SimpleGUICS2Pygame_simpleguics2pygame_canvas</title><style>.edge>path:hover{stroke-width:8}</style>
<path fill="none" stroke="black" d="M552.99,-429.437C586.672,-416.083 629.949,-398.925 665.282,-384.917"/>
<polygon fill="#bf2121" stroke="black" points="667.016,-387.994 675.022,-381.055 664.436,-381.487 667.016,-387.994"/>
</g>
<!-- SimpleGUICS2Pygame_simpleguics2pygame_keys&#45;&gt;SimpleGUICS2Pygame_simpleguics2pygame -->
<g id="edge42" class="edge"><title>SimpleGUICS2Pygame_simpleguics2pygame_keys&#45;&gt;SimpleGUICS2Pygame_simpleguics2pygame</title><style>.edge>path:hover{stroke-width:8}</style>
<path fill="none" stroke="black" d="M1007.05,-336.69C973.795,-322.074 934.862,-298.981 913.009,-265.271"/>
</g>
<!-- SimpleGUICS2Pygame_simpleguics2pygame_keys&#45;&gt;SimpleGUICS2Pygame_simpleguics2pygame_frame -->
<g id="edge43" class="edge"><title>SimpleGUICS2Pygame_simpleguics2pygame_keys&#45;&gt;SimpleGUICS2Pygame_simpleguics2pygame_frame</title><style>.edge>path:hover{stroke-width:8}</style>
<path fill="none" stroke="black" d="M996.391,-340.809C927.935,-324.868 824.211,-300.713 752.57,-284.031"/>
<polygon fill="#ac2b2b" stroke="black" points="753.214,-280.587 742.681,-281.728 751.627,-287.405 753.214,-280.587"/>
</g>
<!-- SimpleGUICS2Pygame_simpleguics2pygame_canvas&#45;&gt;SimpleGUICS2Pygame_simpleguics2pygame -->
<g id="edge34" class="edge"><title>SimpleGUICS2Pygame_simpleguics2pygame_canvas&#45;&gt;SimpleGUICS2Pygame_simpleguics2pygame</title><style>.edge>path:hover{stroke-width:8}</style>
<path fill="none" stroke="black" d="M794.165,-338.309C852.895,-319.198 928.507,-289.178 913.009,-265.271"/>
<path fill="none" stroke="black" d="M913.009,-263.271C881.811,-215.143 820.57,-194.156 767.632,-185.168"/>
<polygon fill="#9b2626" stroke="black" points="767.933,-181.672 757.511,-183.576 766.845,-188.587 767.933,-181.672"/>
</g>
<!-- SimpleGUICS2Pygame_simpleguics2pygame_canvas&#45;&gt;SimpleGUICS2Pygame_simpleguics2pygame_frame -->
<g id="edge35" class="edge"><title>SimpleGUICS2Pygame_simpleguics2pygame_canvas&#45;&gt;SimpleGUICS2Pygame_simpleguics2pygame_frame</title><style>.edge>path:hover{stroke-width:8}</style>
<path fill="none" stroke="black" d="M712.608,-329.655C707.045,-320.833 700.8,-310.929 694.907,-301.584"/>
<polygon fill="#9b2626" stroke="black" points="697.693,-299.441 689.399,-292.849 691.772,-303.175 697.693,-299.441"/>
</g>
<!-- SimpleGUICS2Pygame_simplegui_lib_keys&#45;&gt;SimpleGUICS2Pygame_simplegui_lib -->
<g id="edge3" class="edge"><title>SimpleGUICS2Pygame_simplegui_lib_keys&#45;&gt;SimpleGUICS2Pygame_simplegui_lib</title><style>.edge>path:hover{stroke-width:8}</style>
<path fill="none" stroke="black" d="M501.738,-79.1563C513.709,-69.7239 528.248,-58.2688 541.138,-48.1129"/>
<polygon fill="#b83d3d" stroke="black" points="543.638,-50.599 549.326,-41.661 539.305,-45.1007 543.638,-50.599"/>
</g>
<!-- audioread -->
<g id="node21" class="node"><title>audioread</title><style>.edge>path:hover{stroke-width:8}</style>
<polygon fill="#80c040" stroke="black" points="412.509,-819.619 409.509,-823.619 388.509,-823.619 385.509,-819.619 349.509,-819.619 349.509,-783.619 412.509,-783.619 412.509,-819.619"/>
<text text-anchor="middle" x="381.009" y="-799.119" font-family="Helvetica,sans-Serif" font-size="10.00" fill="#000000">audioread</text>
</g>
<!-- audioread&#45;&gt;SimpleGUICS2Pygame_simpleguics2pygame__media -->
<g id="edge47" class="edge"><title>audioread&#45;&gt;SimpleGUICS2Pygame_simpleguics2pygame__media</title><style>.edge>path:hover{stroke-width:8}</style>
<path fill="none" stroke="black" d="M383.891,-783.418C388.857,-748.222 395.524,-666.641 362.009,-611.21 353.236,-596.699 339.766,-584.818 325.63,-575.405"/>
<polygon fill="#80c040" stroke="black" points="327.112,-572.203 316.779,-569.861 323.396,-578.135 327.112,-572.203"/>
</g>
<!-- matplotlib -->
<g id="node22" class="node"><title>matplotlib</title><style>.edge>path:hover{stroke-width:8}</style>
<polygon fill="#31c4c4" stroke="black" points="991.509,-891.619 988.509,-895.619 967.509,-895.619 964.509,-891.619 932.509,-891.619 932.509,-855.619 991.509,-855.619 991.509,-891.619"/>
<text text-anchor="middle" x="962.009" y="-871.119" font-family="Helvetica,sans-Serif" font-size="10.00" fill="#000000">matplotlib</text>
</g>
<!-- matplotlib&#45;&gt;SimpleGUICS2Pygame_simpleplot -->
<g id="edge48" class="edge"><title>matplotlib&#45;&gt;SimpleGUICS2Pygame_simpleplot</title><style>.edge>path:hover{stroke-width:8}</style>
<path fill="none" stroke="black" d="M962.009,-855.391C962.009,-831.437 962.009,-787.684 962.009,-758.081"/>
<polygon fill="#31c4c4" stroke="black" points="965.51,-757.877 962.009,-747.877 958.51,-757.877 965.51,-757.877"/>
</g>
<!-- pygame -->
<g id="node23" class="node"><title>pygame</title><style>.edge>path:hover{stroke-width:8}</style>
<polygon fill="#7f4cb3" stroke="black" points="873.009,-891.619 870.009,-895.619 849.009,-895.619 846.009,-891.619 819.009,-891.619 819.009,-855.619 873.009,-855.619 873.009,-891.619"/>
<text text-anchor="middle" x="846.009" y="-871.119" font-family="Helvetica,sans-Serif" font-size="10.00" fill="#ffffff">pygame</text>
</g>
<!-- pygame&#45;&gt;SimpleGUICS2Pygame_simpleguics2pygame__joypads -->
<g id="edge51" class="edge"><title>pygame&#45;&gt;SimpleGUICS2Pygame_simpleguics2pygame__joypads</title><style>.edge>path:hover{stroke-width:8}</style>
<path fill="none" stroke="black" d="M576.009,-639.202C545.523,-624.613 515.75,-600.743 494.001,-580.975"/>
<polygon fill="#7f4cb3" stroke="black" points="496.371,-578.399 486.655,-574.176 491.616,-583.537 496.371,-578.399"/>
</g>
<!-- pygame&#45;&gt;SimpleGUICS2Pygame_simpleguics2pygame__colors -->
<g id="edge49" class="edge"><title>pygame&#45;&gt;SimpleGUICS2Pygame_simpleguics2pygame__colors</title><style>.edge>path:hover{stroke-width:8}</style>
<path fill="none" stroke="black" d="M962.009,-639.202C966.001,-621.973 966.539,-602.438 965.864,-585.815"/>
<polygon fill="#7f4cb3" stroke="black" points="969.332,-585.15 965.27,-575.365 962.344,-585.548 969.332,-585.15"/>
</g>
<!-- pygame&#45;&gt;SimpleGUICS2Pygame_simpleguics2pygame__fonts -->
<g id="edge50" class="edge"><title>pygame&#45;&gt;SimpleGUICS2Pygame_simpleguics2pygame__fonts</title><style>.edge>path:hover{stroke-width:8}</style>
<path fill="none" stroke="black" d="M846.009,-725.406C842.738,-713.519 855.006,-712.401 865.009,-705.193 906.913,-675.001 950.353,-691.516 962.009,-641.202"/>
<path fill="none" stroke="black" d="M962.009,-639.202C965.403,-624.554 955.131,-620.107 943.009,-611.21 937.14,-606.902 864.227,-585.451 805.321,-568.557"/>
<polygon fill="#7f4cb3" stroke="black" points="806.205,-565.169 795.628,-565.781 804.278,-571.899 806.205,-565.169"/>
</g>
<!-- pygame&#45;&gt;SimpleGUICS2Pygame_simpleguics2pygame__media -->
<g id="edge52" class="edge"><title>pygame&#45;&gt;SimpleGUICS2Pygame_simpleguics2pygame__media</title><style>.edge>path:hover{stroke-width:8}</style>
<path fill="none" stroke="black" d="M848.93,-855.234C852.933,-827.581 858.317,-772.131 846.009,-727.406"/>
<path fill="none" stroke="black" d="M846.009,-725.406C826.541,-665.647 632.703,-668.331 576.009,-641.202"/>
<path fill="none" stroke="black" d="M576.009,-639.202C565.086,-633.975 428.373,-594.227 339.883,-568.72"/>
<polygon fill="#7f4cb3" stroke="black" points="340.722,-565.319 330.144,-565.914 338.784,-572.046 340.722,-565.319"/>
</g>
<!-- pygame&#45;&gt;SimpleGUICS2Pygame_simpleguics2pygame__pygame_init -->
<g id="edge53" class="edge"><title>pygame&#45;&gt;SimpleGUICS2Pygame_simpleguics2pygame__pygame_init</title><style>.edge>path:hover{stroke-width:8}</style>
<path fill="none" stroke="black" d="M846.009,-725.406C841.983,-710.775 841.222,-694.164 841.74,-679.585"/>
<polygon fill="#7f4cb3" stroke="black" points="845.247,-679.567 842.315,-669.386 838.258,-679.173 845.247,-679.567"/>
</g>
<!-- pygame&#45;&gt;SimpleGUICS2Pygame_simpleguics2pygame_control -->
<g id="edge55" class="edge"><title>pygame&#45;&gt;SimpleGUICS2Pygame_simpleguics2pygame_control</title><style>.edge>path:hover{stroke-width:8}</style>
<path fill="none" stroke="black" d="M962.009,-639.202C965.403,-624.554 954.476,-620.936 943.009,-611.21 913.892,-586.513 894.127,-599.907 865.009,-575.21 853.543,-565.484 853.438,-560.291 846.009,-547.219"/>
</g>
<!-- pygame&#45;&gt;SimpleGUICS2Pygame_simpleguics2pygame_frame -->
<g id="edge56" class="edge"><title>pygame&#45;&gt;SimpleGUICS2Pygame_simpleguics2pygame_frame</title><style>.edge>path:hover{stroke-width:8}</style>
<path fill="none" stroke="black" d="M576.009,-639.202C499.914,-602.788 625.359,-536.828 614.009,-453.236"/>
<path fill="none" stroke="black" d="M614.009,-451.236C608.177,-410.773 595.63,-395.77 614.009,-359.253"/>
</g>
<!-- pygame&#45;&gt;SimpleGUICS2Pygame_simpleguics2pygame_keys -->
<g id="edge57" class="edge"><title>pygame&#45;&gt;SimpleGUICS2Pygame_simpleguics2pygame_keys</title><style>.edge>path:hover{stroke-width:8}</style>
<path fill="none" stroke="black" d="M1116.01,-545.219C1126.15,-505.615 1121.74,-493.714 1116.01,-453.236"/>
</g>
<!-- pygame&#45;&gt;SimpleGUICS2Pygame_simpleguics2pygame_canvas -->
<g id="edge54" class="edge"><title>pygame&#45;&gt;SimpleGUICS2Pygame_simpleguics2pygame_canvas</title><style>.edge>path:hover{stroke-width:8}</style>
<path fill="none" stroke="black" d="M962.009,-639.202C980.002,-561.534 1084.11,-620.282 1116.01,-547.219"/>
<path fill="none" stroke="black" d="M1116.01,-545.219C1143.59,-482.062 929.027,-412.907 808.398,-379.523"/>
<polygon fill="#7f4cb3" stroke="black" points="809.024,-376.066 798.454,-376.794 807.171,-382.816 809.024,-376.066"/>
</g>
</g>
</svg>
