<?xml version="1.0" encoding="UTF-8" standalone="no"?>
<!DOCTYPE svg PUBLIC "-//W3C//DTD SVG 1.1//EN"
 "http://www.w3.org/Graphics/SVG/1.1/DTD/svg11.dtd">
<!-- Generated by graphviz version 2.38.0 (20140413.2041)
 -->
<!-- Title: G Pages: 1 -->
<svg width="1212pt" height="900pt"
 viewBox="0.00 0.00 1212.38 899.62" xmlns="http://www.w3.org/2000/svg" xmlns:xlink="http://www.w3.org/1999/xlink">
<g id="graph0" class="graph" transform="scale(1 1) rotate(0) translate(4 895.619)">
<title>G</title><style>.edge>path:hover{stroke-width:8}</style>
<polygon fill="white" stroke="none" points="-4,4 -4,-895.619 1208.38,-895.619 1208.38,4 -4,4"/>
<!-- SimpleGUICS2Pygame_simpleplot -->
<g id="node1" class="node"><title>SimpleGUICS2Pygame_simpleplot</title><style>.edge>path:hover{stroke-width:8}</style>
<ellipse fill="#ac4949" stroke="black" cx="159.298" cy="-726.406" rx="88.2768" ry="21.4286"/>
<text text-anchor="middle" x="159.298" y="-729.406" font-family="Helvetica,sans-Serif" font-size="10.00" fill="#ffffff">SimpleGUICS2Pygame.</text>
<text text-anchor="middle" x="159.298" y="-718.406" font-family="Helvetica,sans-Serif" font-size="10.00" fill="#ffffff">simpleplot</text>
</g>
<!-- SimpleGUICS2Pygame_simpleguics2pygame_keys -->
<g id="node2" class="node"><title>SimpleGUICS2Pygame_simpleguics2pygame_keys</title><style>.edge>path:hover{stroke-width:8}</style>
<ellipse fill="#ac2b2b" stroke="black" cx="855.298" cy="-546.219" rx="88.2768" ry="28.9828"/>
<text text-anchor="middle" x="855.298" y="-554.719" font-family="Helvetica,sans-Serif" font-size="10.00" fill="#ffffff">SimpleGUICS2Pygame.</text>
<text text-anchor="middle" x="855.298" y="-543.719" font-family="Helvetica,sans-Serif" font-size="10.00" fill="#ffffff">simpleguics2pygame.</text>
<text text-anchor="middle" x="855.298" y="-532.719" font-family="Helvetica,sans-Serif" font-size="10.00" fill="#ffffff">keys</text>
</g>
<!-- SimpleGUICS2Pygame_simpleguics2pygame -->
<g id="node11" class="node"><title>SimpleGUICS2Pygame_simpleguics2pygame</title><style>.edge>path:hover{stroke-width:8}</style>
<ellipse fill="#950303" stroke="black" cx="623.298" cy="-178.066" rx="88.2768" ry="21.4286"/>
<text text-anchor="middle" x="623.298" y="-181.066" font-family="Helvetica,sans-Serif" font-size="10.00" fill="#ffffff">SimpleGUICS2Pygame.</text>
<text text-anchor="middle" x="623.298" y="-170.066" font-family="Helvetica,sans-Serif" font-size="10.00" fill="#ffffff">simpleguics2pygame</text>
</g>
<!-- SimpleGUICS2Pygame_simpleguics2pygame_keys&#45;&gt;SimpleGUICS2Pygame_simpleguics2pygame -->
<g id="edge42" class="edge"><title>SimpleGUICS2Pygame_simpleguics2pygame_keys&#45;&gt;SimpleGUICS2Pygame_simpleguics2pygame</title><style>.edge>path:hover{stroke-width:8}</style>
<path fill="none" stroke="black" d="M928.87,-529.902C1010.94,-508.189 1138.23,-459.394 1184.3,-359.253"/>
</g>
<!-- SimpleGUICS2Pygame_simpleguics2pygame_frame -->
<g id="node17" class="node"><title>SimpleGUICS2Pygame_simpleguics2pygame_frame</title><style>.edge>path:hover{stroke-width:8}</style>
<ellipse fill="#732626" stroke="black" cx="623.298" cy="-264.271" rx="88.2768" ry="28.9828"/>
<text text-anchor="middle" x="623.298" y="-272.771" font-family="Helvetica,sans-Serif" font-size="10.00" fill="#ffffff">SimpleGUICS2Pygame.</text>
<text text-anchor="middle" x="623.298" y="-261.771" font-family="Helvetica,sans-Serif" font-size="10.00" fill="#ffffff">simpleguics2pygame.</text>
<text text-anchor="middle" x="623.298" y="-250.771" font-family="Helvetica,sans-Serif" font-size="10.00" fill="#ffffff">frame</text>
</g>
<!-- SimpleGUICS2Pygame_simpleguics2pygame_keys&#45;&gt;SimpleGUICS2Pygame_simpleguics2pygame_frame -->
<g id="edge43" class="edge"><title>SimpleGUICS2Pygame_simpleguics2pygame_keys&#45;&gt;SimpleGUICS2Pygame_simpleguics2pygame_frame</title><style>.edge>path:hover{stroke-width:8}</style>
<path fill="none" stroke="black" d="M802.242,-523.019C769.831,-507.338 729.36,-483.7 701.298,-453.236"/>
</g>
<!-- SimpleGUICS2Pygame_simplegui_lib -->
<g id="node3" class="node"><title>SimpleGUICS2Pygame_simplegui_lib</title><style>.edge>path:hover{stroke-width:8}</style>
<ellipse fill="#964040" stroke="black" cx="525.298" cy="-21.2132" rx="88.2768" ry="21.4286"/>
<text text-anchor="middle" x="525.298" y="-24.2132" font-family="Helvetica,sans-Serif" font-size="10.00" fill="#ffffff">SimpleGUICS2Pygame.</text>
<text text-anchor="middle" x="525.298" y="-13.2132" font-family="Helvetica,sans-Serif" font-size="10.00" fill="#ffffff">simplegui_lib</text>
</g>
<!-- SimpleGUICS2Pygame_simpleguics2pygame__media -->
<g id="node4" class="node"><title>SimpleGUICS2Pygame_simpleguics2pygame__media</title><style>.edge>path:hover{stroke-width:8}</style>
<ellipse fill="#ae1e1e" stroke="black" cx="159.298" cy="-546.219" rx="88.2768" ry="28.9828"/>
<text text-anchor="middle" x="159.298" y="-554.719" font-family="Helvetica,sans-Serif" font-size="10.00" fill="#ffffff">SimpleGUICS2Pygame.</text>
<text text-anchor="middle" x="159.298" y="-543.719" font-family="Helvetica,sans-Serif" font-size="10.00" fill="#ffffff">simpleguics2pygame.</text>
<text text-anchor="middle" x="159.298" y="-532.719" font-family="Helvetica,sans-Serif" font-size="10.00" fill="#ffffff">_media</text>
</g>
<!-- SimpleGUICS2Pygame_simpleguics2pygame_sound -->
<g id="node5" class="node"><title>SimpleGUICS2Pygame_simpleguics2pygame_sound</title><style>.edge>path:hover{stroke-width:8}</style>
<ellipse fill="#a83838" stroke="black" cx="121.298" cy="-452.236" rx="88.2768" ry="28.9828"/>
<text text-anchor="middle" x="121.298" y="-460.736" font-family="Helvetica,sans-Serif" font-size="10.00" fill="#ffffff">SimpleGUICS2Pygame.</text>
<text text-anchor="middle" x="121.298" y="-449.736" font-family="Helvetica,sans-Serif" font-size="10.00" fill="#ffffff">simpleguics2pygame.</text>
<text text-anchor="middle" x="121.298" y="-438.736" font-family="Helvetica,sans-Serif" font-size="10.00" fill="#ffffff">sound</text>
</g>
<!-- SimpleGUICS2Pygame_simpleguics2pygame__media&#45;&gt;SimpleGUICS2Pygame_simpleguics2pygame_sound -->
<g id="edge23" class="edge"><title>SimpleGUICS2Pygame_simpleguics2pygame__media&#45;&gt;SimpleGUICS2Pygame_simpleguics2pygame_sound</title><style>.edge>path:hover{stroke-width:8}</style>
<path fill="none" stroke="black" d="M147.691,-517.121C144.229,-508.741 140.378,-499.421 136.713,-490.548"/>
<polygon fill="#ae1e1e" stroke="black" points="139.888,-489.068 132.835,-481.162 133.419,-491.74 139.888,-489.068"/>
</g>
<!-- SimpleGUICS2Pygame_simpleguics2pygame_image -->
<g id="node9" class="node"><title>SimpleGUICS2Pygame_simpleguics2pygame_image</title><style>.edge>path:hover{stroke-width:8}</style>
<ellipse fill="#bf2121" stroke="black" cx="507.298" cy="-452.236" rx="88.2768" ry="28.9828"/>
<text text-anchor="middle" x="507.298" y="-460.736" font-family="Helvetica,sans-Serif" font-size="10.00" fill="#ffffff">SimpleGUICS2Pygame.</text>
<text text-anchor="middle" x="507.298" y="-449.736" font-family="Helvetica,sans-Serif" font-size="10.00" fill="#ffffff">simpleguics2pygame.</text>
<text text-anchor="middle" x="507.298" y="-438.736" font-family="Helvetica,sans-Serif" font-size="10.00" fill="#ffffff">image</text>
</g>
<!-- SimpleGUICS2Pygame_simpleguics2pygame__media&#45;&gt;SimpleGUICS2Pygame_simpleguics2pygame_image -->
<g id="edge22" class="edge"><title>SimpleGUICS2Pygame_simpleguics2pygame__media&#45;&gt;SimpleGUICS2Pygame_simpleguics2pygame_image</title><style>.edge>path:hover{stroke-width:8}</style>
<path fill="none" stroke="black" d="M226.809,-527.375C285.039,-511.983 369.121,-489.759 430.028,-473.66"/>
<polygon fill="#ae1e1e" stroke="black" points="431.202,-476.97 439.976,-471.031 429.413,-470.202 431.202,-476.97"/>
</g>
<!-- SimpleGUICS2Pygame_simpleguics2pygame__media&#45;&gt;SimpleGUICS2Pygame_simpleguics2pygame_frame -->
<g id="edge21" class="edge"><title>SimpleGUICS2Pygame_simpleguics2pygame__media&#45;&gt;SimpleGUICS2Pygame_simpleguics2pygame_frame</title><style>.edge>path:hover{stroke-width:8}</style>
<path fill="none" stroke="black" d="M199.902,-520.217C216.551,-509.158 235.565,-495.447 251.298,-481.227 263.456,-470.24 262.162,-463.033 275.298,-453.236"/>
<path fill="none" stroke="black" d="M275.298,-451.236C339.418,-403.414 614.591,-438.767 623.298,-359.253"/>
<path fill="none" stroke="black" d="M623.298,-357.253C625.209,-339.804 625.479,-320.381 625.165,-303.896"/>
<polygon fill="#ae1e1e" stroke="black" points="628.654,-303.439 624.886,-293.537 621.657,-303.628 628.654,-303.439"/>
</g>
<!-- SimpleGUICS2Pygame_simpleguics2pygame_sound&#45;&gt;SimpleGUICS2Pygame_simpleguics2pygame -->
<g id="edge44" class="edge"><title>SimpleGUICS2Pygame_simpleguics2pygame_sound&#45;&gt;SimpleGUICS2Pygame_simpleguics2pygame</title><style>.edge>path:hover{stroke-width:8}</style>
<path fill="none" stroke="black" d="M60.8356,-431.013C27.9349,-415.982 -4.29738,-392.33 5.29847,-359.253"/>
</g>
<!-- SimpleGUICS2Pygame_simplegui_lib_draw -->
<g id="node6" class="node"><title>SimpleGUICS2Pygame_simplegui_lib_draw</title><style>.edge>path:hover{stroke-width:8}</style>
<ellipse fill="#c04040" stroke="black" cx="233.298" cy="-99.6396" rx="88.2768" ry="21.4286"/>
<text text-anchor="middle" x="233.298" y="-102.64" font-family="Helvetica,sans-Serif" font-size="10.00" fill="#ffffff">SimpleGUICS2Pygame.</text>
<text text-anchor="middle" x="233.298" y="-91.6396" font-family="Helvetica,sans-Serif" font-size="10.00" fill="#ffffff">simplegui_lib_draw</text>
</g>
<!-- SimpleGUICS2Pygame_simplegui_lib_draw&#45;&gt;SimpleGUICS2Pygame_simplegui_lib -->
<g id="edge1" class="edge"><title>SimpleGUICS2Pygame_simplegui_lib_draw&#45;&gt;SimpleGUICS2Pygame_simplegui_lib</title><style>.edge>path:hover{stroke-width:8}</style>
<path fill="none" stroke="black" d="M290.988,-83.5402C338.902,-70.9994 407.143,-53.1386 457.63,-39.9244"/>
<polygon fill="#c04040" stroke="black" points="458.691,-43.2646 467.479,-37.3465 456.919,-36.4927 458.691,-43.2646"/>
</g>
<!-- SimpleGUICS2Pygame_simplegui_lib_loader -->
<g id="node7" class="node"><title>SimpleGUICS2Pygame_simplegui_lib_loader</title><style>.edge>path:hover{stroke-width:8}</style>
<ellipse fill="#b83d3d" stroke="black" cx="818.298" cy="-99.6396" rx="88.2768" ry="21.4286"/>
<text text-anchor="middle" x="818.298" y="-102.64" font-family="Helvetica,sans-Serif" font-size="10.00" fill="#ffffff">SimpleGUICS2Pygame.</text>
<text text-anchor="middle" x="818.298" y="-91.6396" font-family="Helvetica,sans-Serif" font-size="10.00" fill="#ffffff">simplegui_lib_loader</text>
</g>
<!-- SimpleGUICS2Pygame_simplegui_lib_loader&#45;&gt;SimpleGUICS2Pygame_simplegui_lib -->
<g id="edge4" class="edge"><title>SimpleGUICS2Pygame_simplegui_lib_loader&#45;&gt;SimpleGUICS2Pygame_simplegui_lib</title><style>.edge>path:hover{stroke-width:8}</style>
<path fill="none" stroke="black" d="M760.411,-83.5402C712.255,-70.979 643.636,-53.0805 592.952,-39.86"/>
<polygon fill="#b83d3d" stroke="black" points="593.625,-36.4186 583.066,-37.2812 591.858,-43.192 593.625,-36.4186"/>
</g>
<!-- SimpleGUICS2Pygame_simpleguics2pygame__arguments -->
<g id="node8" class="node"><title>SimpleGUICS2Pygame_simpleguics2pygame__arguments</title><style>.edge>path:hover{stroke-width:8}</style>
<ellipse fill="#f90606" stroke="black" cx="159.298" cy="-640.202" rx="88.2768" ry="28.9828"/>
<text text-anchor="middle" x="159.298" y="-648.702" font-family="Helvetica,sans-Serif" font-size="10.00" fill="#ffffff">SimpleGUICS2Pygame.</text>
<text text-anchor="middle" x="159.298" y="-637.702" font-family="Helvetica,sans-Serif" font-size="10.00" fill="#ffffff">simpleguics2pygame.</text>
<text text-anchor="middle" x="159.298" y="-626.702" font-family="Helvetica,sans-Serif" font-size="10.00" fill="#ffffff">_arguments</text>
</g>
<!-- SimpleGUICS2Pygame_simpleguics2pygame__arguments&#45;&gt;SimpleGUICS2Pygame_simpleguics2pygame__media -->
<g id="edge10" class="edge"><title>SimpleGUICS2Pygame_simpleguics2pygame__arguments&#45;&gt;SimpleGUICS2Pygame_simpleguics2pygame__media</title><style>.edge>path:hover{stroke-width:8}</style>
<path fill="none" stroke="black" d="M159.298,-611.104C159.298,-603.066 159.298,-594.164 159.298,-585.621"/>
<polygon fill="#f90606" stroke="black" points="162.799,-585.461 159.298,-575.461 155.799,-585.461 162.799,-585.461"/>
</g>
<!-- SimpleGUICS2Pygame_simpleguics2pygame__arguments&#45;&gt;SimpleGUICS2Pygame_simpleguics2pygame_sound -->
<g id="edge12" class="edge"><title>SimpleGUICS2Pygame_simpleguics2pygame__arguments&#45;&gt;SimpleGUICS2Pygame_simpleguics2pygame_sound</title><style>.edge>path:hover{stroke-width:8}</style>
<path fill="none" stroke="black" d="M43.2985,-545.219C40.9756,-521.729 55.8247,-501.09 73.1722,-485.346"/>
<polygon fill="#f90606" stroke="black" points="75.9147,-487.608 81.2658,-478.464 71.3802,-482.276 75.9147,-487.608"/>
</g>
<!-- SimpleGUICS2Pygame_simpleguics2pygame__arguments&#45;&gt;SimpleGUICS2Pygame_simpleguics2pygame -->
<g id="edge8" class="edge"><title>SimpleGUICS2Pygame_simpleguics2pygame__arguments&#45;&gt;SimpleGUICS2Pygame_simpleguics2pygame</title><style>.edge>path:hover{stroke-width:8}</style>
<path fill="none" stroke="black" d="M103.396,-617.59C75.3098,-602.774 46.5233,-579.83 43.2985,-547.219"/>
<path fill="none" stroke="black" d="M43.2985,-545.219C40.3789,-515.695 30.8185,-510.17 24.2985,-481.227 12.241,-427.704 -9.98788,-411.945 5.29847,-359.253"/>
<path fill="none" stroke="black" d="M5.29847,-357.253C28.8934,-270.444 181.289,-277.166 198.298,-265.271"/>
<path fill="none" stroke="black" d="M198.298,-263.271C251.349,-226.171 425.194,-200.893 533.414,-188.312"/>
<polygon fill="#f90606" stroke="black" points="533.817,-191.789 543.352,-187.171 533.018,-184.835 533.817,-191.789"/>
</g>
<!-- SimpleGUICS2Pygame_simpleguics2pygame__fonts -->
<g id="node14" class="node"><title>SimpleGUICS2Pygame_simpleguics2pygame__fonts</title><style>.edge>path:hover{stroke-width:8}</style>
<ellipse fill="#b62020" stroke="black" cx="623.298" cy="-546.219" rx="88.2768" ry="28.9828"/>
<text text-anchor="middle" x="623.298" y="-554.719" font-family="Helvetica,sans-Serif" font-size="10.00" fill="#ffffff">SimpleGUICS2Pygame.</text>
<text text-anchor="middle" x="623.298" y="-543.719" font-family="Helvetica,sans-Serif" font-size="10.00" fill="#ffffff">simpleguics2pygame.</text>
<text text-anchor="middle" x="623.298" y="-532.719" font-family="Helvetica,sans-Serif" font-size="10.00" fill="#ffffff">_fonts</text>
</g>
<!-- SimpleGUICS2Pygame_simpleguics2pygame__arguments&#45;&gt;SimpleGUICS2Pygame_simpleguics2pygame__fonts -->
<g id="edge9" class="edge"><title>SimpleGUICS2Pygame_simpleguics2pygame__arguments&#45;&gt;SimpleGUICS2Pygame_simpleguics2pygame__fonts</title><style>.edge>path:hover{stroke-width:8}</style>
<path fill="none" stroke="black" d="M234.484,-624.851C301.202,-612.052 401.3,-592.69 488.298,-575.21 505.071,-571.84 523.001,-568.17 540.135,-564.63"/>
<polygon fill="#f90606" stroke="black" points="541.033,-568.019 550.116,-562.564 539.614,-561.164 541.033,-568.019"/>
</g>
<!-- SimpleGUICS2Pygame_simpleguics2pygame__arguments&#45;&gt;SimpleGUICS2Pygame_simpleguics2pygame_frame -->
<g id="edge11" class="edge"><title>SimpleGUICS2Pygame_simpleguics2pygame__arguments&#45;&gt;SimpleGUICS2Pygame_simpleguics2pygame_frame</title><style>.edge>path:hover{stroke-width:8}</style>
<path fill="none" stroke="black" d="M237.298,-451.236C272.019,-332.009 425.603,-289.199 528.261,-273.842"/>
<polygon fill="#f90606" stroke="black" points="528.938,-277.281 538.341,-272.398 527.945,-270.352 528.938,-277.281"/>
</g>
<!-- SimpleGUICS2Pygame_simpleguics2pygame_timer -->
<g id="node18" class="node"><title>SimpleGUICS2Pygame_simpleguics2pygame_timer</title><style>.edge>path:hover{stroke-width:8}</style>
<ellipse fill="#bc2f2f" stroke="black" cx="121.298" cy="-358.253" rx="88.2768" ry="28.9828"/>
<text text-anchor="middle" x="121.298" y="-366.753" font-family="Helvetica,sans-Serif" font-size="10.00" fill="#ffffff">SimpleGUICS2Pygame.</text>
<text text-anchor="middle" x="121.298" y="-355.753" font-family="Helvetica,sans-Serif" font-size="10.00" fill="#ffffff">simpleguics2pygame.</text>
<text text-anchor="middle" x="121.298" y="-344.753" font-family="Helvetica,sans-Serif" font-size="10.00" fill="#ffffff">timer</text>
</g>
<!-- SimpleGUICS2Pygame_simpleguics2pygame__arguments&#45;&gt;SimpleGUICS2Pygame_simpleguics2pygame_timer -->
<g id="edge13" class="edge"><title>SimpleGUICS2Pygame_simpleguics2pygame__arguments&#45;&gt;SimpleGUICS2Pygame_simpleguics2pygame_timer</title><style>.edge>path:hover{stroke-width:8}</style>
<path fill="none" stroke="black" d="M43.2985,-545.219C33.908,-450.259 210.619,-544.853 237.298,-453.236"/>
<path fill="none" stroke="black" d="M237.298,-451.236C246.025,-421.269 220.37,-399.035 190.988,-383.94"/>
<polygon fill="#f90606" stroke="black" points="192.31,-380.691 181.784,-379.484 189.26,-386.991 192.31,-380.691"/>
</g>
<!-- SimpleGUICS2Pygame_simpleguics2pygame_image&#45;&gt;SimpleGUICS2Pygame_simpleguics2pygame -->
<g id="edge39" class="edge"><title>SimpleGUICS2Pygame_simpleguics2pygame_image&#45;&gt;SimpleGUICS2Pygame_simpleguics2pygame</title><style>.edge>path:hover{stroke-width:8}</style>
<path fill="none" stroke="black" d="M452.009,-429.38C350.183,-387.858 147.806,-298.738 198.298,-265.271"/>
</g>
<!-- SimpleGUICS2Pygame_simpleguics2pygame_image&#45;&gt;SimpleGUICS2Pygame_simpleguics2pygame_frame -->
<g id="edge41" class="edge"><title>SimpleGUICS2Pygame_simpleguics2pygame_image&#45;&gt;SimpleGUICS2Pygame_simpleguics2pygame_frame</title><style>.edge>path:hover{stroke-width:8}</style>
<path fill="none" stroke="black" d="M563.13,-429.618C591.193,-414.799 619.98,-391.855 623.298,-359.253"/>
</g>
<!-- SimpleGUICS2Pygame_simpleguics2pygame_canvas -->
<g id="node19" class="node"><title>SimpleGUICS2Pygame_simpleguics2pygame_canvas</title><style>.edge>path:hover{stroke-width:8}</style>
<ellipse fill="#9b2626" stroke="black" cx="739.298" cy="-358.253" rx="88.2768" ry="28.9828"/>
<text text-anchor="middle" x="739.298" y="-366.753" font-family="Helvetica,sans-Serif" font-size="10.00" fill="#ffffff">SimpleGUICS2Pygame.</text>
<text text-anchor="middle" x="739.298" y="-355.753" font-family="Helvetica,sans-Serif" font-size="10.00" fill="#ffffff">simpleguics2pygame.</text>
<text text-anchor="middle" x="739.298" y="-344.753" font-family="Helvetica,sans-Serif" font-size="10.00" fill="#ffffff">canvas</text>
</g>
<!-- SimpleGUICS2Pygame_simpleguics2pygame_image&#45;&gt;SimpleGUICS2Pygame_simpleguics2pygame_canvas -->
<g id="edge40" class="edge"><title>SimpleGUICS2Pygame_simpleguics2pygame_image&#45;&gt;SimpleGUICS2Pygame_simpleguics2pygame_canvas</title><style>.edge>path:hover{stroke-width:8}</style>
<path fill="none" stroke="black" d="M562.279,-429.437C595.961,-416.083 639.238,-398.925 674.571,-384.917"/>
<polygon fill="#bf2121" stroke="black" points="676.305,-387.994 684.311,-381.055 673.725,-381.487 676.305,-387.994"/>
</g>
<!-- SimpleGUICS2Pygame_simpleguics2pygame__pygame_init -->
<g id="node10" class="node"><title>SimpleGUICS2Pygame_simpleguics2pygame__pygame_init</title><style>.edge>path:hover{stroke-width:8}</style>
<ellipse fill="#d10505" stroke="black" cx="855.298" cy="-640.202" rx="88.2768" ry="28.9828"/>
<text text-anchor="middle" x="855.298" y="-648.702" font-family="Helvetica,sans-Serif" font-size="10.00" fill="#ffffff">SimpleGUICS2Pygame.</text>
<text text-anchor="middle" x="855.298" y="-637.702" font-family="Helvetica,sans-Serif" font-size="10.00" fill="#ffffff">simpleguics2pygame.</text>
<text text-anchor="middle" x="855.298" y="-626.702" font-family="Helvetica,sans-Serif" font-size="10.00" fill="#ffffff">_pygame_init</text>
</g>
<!-- SimpleGUICS2Pygame_simpleguics2pygame__pygame_init&#45;&gt;SimpleGUICS2Pygame_simpleguics2pygame_keys -->
<g id="edge33" class="edge"><title>SimpleGUICS2Pygame_simpleguics2pygame__pygame_init&#45;&gt;SimpleGUICS2Pygame_simpleguics2pygame_keys</title><style>.edge>path:hover{stroke-width:8}</style>
<path fill="none" stroke="black" d="M855.298,-611.104C855.298,-603.066 855.298,-594.164 855.298,-585.621"/>
<polygon fill="#d10505" stroke="black" points="858.799,-585.461 855.298,-575.461 851.799,-585.461 858.799,-585.461"/>
</g>
<!-- SimpleGUICS2Pygame_simpleguics2pygame__pygame_init&#45;&gt;SimpleGUICS2Pygame_simpleguics2pygame__media -->
<g id="edge28" class="edge"><title>SimpleGUICS2Pygame_simpleguics2pygame__pygame_init&#45;&gt;SimpleGUICS2Pygame_simpleguics2pygame__media</title><style>.edge>path:hover{stroke-width:8}</style>
<path fill="none" stroke="black" d="M770.384,-631.938C660.217,-621.961 462.23,-602.141 294.298,-575.21 277.011,-572.438 258.582,-568.965 241.074,-565.418"/>
<polygon fill="#d10505" stroke="black" points="241.388,-561.909 230.888,-563.325 239.979,-568.766 241.388,-561.909"/>
</g>
<!-- SimpleGUICS2Pygame_simpleguics2pygame__pygame_init&#45;&gt;SimpleGUICS2Pygame_simpleguics2pygame_image -->
<g id="edge32" class="edge"><title>SimpleGUICS2Pygame_simpleguics2pygame__pygame_init&#45;&gt;SimpleGUICS2Pygame_simpleguics2pygame_image</title><style>.edge>path:hover{stroke-width:8}</style>
<path fill="none" stroke="black" d="M769.216,-633.491C683.199,-625.92 559.146,-609.315 526.298,-575.21 505.299,-553.406 501.688,-518.53 502.671,-491.645"/>
<polygon fill="#d10505" stroke="black" points="506.18,-491.599 503.275,-481.41 499.192,-491.186 506.18,-491.599"/>
</g>
<!-- SimpleGUICS2Pygame_simpleguics2pygame__pygame_init&#45;&gt;SimpleGUICS2Pygame_simpleguics2pygame -->
<g id="edge24" class="edge"><title>SimpleGUICS2Pygame_simpleguics2pygame__pygame_init&#45;&gt;SimpleGUICS2Pygame_simpleguics2pygame</title><style>.edge>path:hover{stroke-width:8}</style>
<path fill="none" stroke="black" d="M931.64,-625.586C1027.56,-608.302 1180.24,-580.128 1184.3,-575.21 1245.35,-501.145 1142.57,-445.688 1184.3,-359.253"/>
</g>
<!-- SimpleGUICS2Pygame_simpleguics2pygame_control -->
<g id="node12" class="node"><title>SimpleGUICS2Pygame_simpleguics2pygame_control</title><style>.edge>path:hover{stroke-width:8}</style>
<ellipse fill="#a32828" stroke="black" cx="855.298" cy="-452.236" rx="88.2768" ry="28.9828"/>
<text text-anchor="middle" x="855.298" y="-460.736" font-family="Helvetica,sans-Serif" font-size="10.00" fill="#ffffff">SimpleGUICS2Pygame.</text>
<text text-anchor="middle" x="855.298" y="-449.736" font-family="Helvetica,sans-Serif" font-size="10.00" fill="#ffffff">simpleguics2pygame.</text>
<text text-anchor="middle" x="855.298" y="-438.736" font-family="Helvetica,sans-Serif" font-size="10.00" fill="#ffffff">control</text>
</g>
<!-- SimpleGUICS2Pygame_simpleguics2pygame__pygame_init&#45;&gt;SimpleGUICS2Pygame_simpleguics2pygame_control -->
<g id="edge30" class="edge"><title>SimpleGUICS2Pygame_simpleguics2pygame__pygame_init&#45;&gt;SimpleGUICS2Pygame_simpleguics2pygame_control</title><style>.edge>path:hover{stroke-width:8}</style>
<path fill="none" stroke="black" d="M739.298,-545.219C729.742,-515.384 755.584,-493.107 785.281,-477.954"/>
<polygon fill="#d10505" stroke="black" points="787.091,-480.968 794.587,-473.48 784.058,-474.659 787.091,-480.968"/>
</g>
<!-- SimpleGUICS2Pygame_simpleguics2pygame__joypads -->
<g id="node13" class="node"><title>SimpleGUICS2Pygame_simpleguics2pygame__joypads</title><style>.edge>path:hover{stroke-width:8}</style>
<ellipse fill="#a13535" stroke="black" cx="391.298" cy="-546.219" rx="88.2768" ry="28.9828"/>
<text text-anchor="middle" x="391.298" y="-554.719" font-family="Helvetica,sans-Serif" font-size="10.00" fill="#ffffff">SimpleGUICS2Pygame.</text>
<text text-anchor="middle" x="391.298" y="-543.719" font-family="Helvetica,sans-Serif" font-size="10.00" fill="#ffffff">simpleguics2pygame.</text>
<text text-anchor="middle" x="391.298" y="-532.719" font-family="Helvetica,sans-Serif" font-size="10.00" fill="#ffffff">_joypads</text>
</g>
<!-- SimpleGUICS2Pygame_simpleguics2pygame__pygame_init&#45;&gt;SimpleGUICS2Pygame_simpleguics2pygame__joypads -->
<g id="edge27" class="edge"><title>SimpleGUICS2Pygame_simpleguics2pygame__pygame_init&#45;&gt;SimpleGUICS2Pygame_simpleguics2pygame__joypads</title><style>.edge>path:hover{stroke-width:8}</style>
<path fill="none" stroke="black" d="M775.785,-627.323C702.156,-615.81 589.807,-596.933 493.298,-575.21 484.418,-573.211 475.152,-570.937 465.983,-568.569"/>
<polygon fill="#d10505" stroke="black" points="466.656,-565.127 456.095,-565.971 464.878,-571.897 466.656,-565.127"/>
</g>
<!-- SimpleGUICS2Pygame_simpleguics2pygame__pygame_init&#45;&gt;SimpleGUICS2Pygame_simpleguics2pygame__fonts -->
<g id="edge26" class="edge"><title>SimpleGUICS2Pygame_simpleguics2pygame__pygame_init&#45;&gt;SimpleGUICS2Pygame_simpleguics2pygame__fonts</title><style>.edge>path:hover{stroke-width:8}</style>
<path fill="none" stroke="black" d="M800.318,-617.403C766.636,-604.049 723.359,-586.89 688.026,-572.882"/>
<polygon fill="#d10505" stroke="black" points="688.872,-569.452 678.286,-569.02 686.292,-575.96 688.872,-569.452"/>
</g>
<!-- SimpleGUICS2Pygame_simpleguics2pygame__pygame_init&#45;&gt;SimpleGUICS2Pygame_simpleguics2pygame_frame -->
<g id="edge31" class="edge"><title>SimpleGUICS2Pygame_simpleguics2pygame__pygame_init&#45;&gt;SimpleGUICS2Pygame_simpleguics2pygame_frame</title><style>.edge>path:hover{stroke-width:8}</style>
<path fill="none" stroke="black" d="M804.636,-616.209C778.454,-600.996 749.823,-578.117 739.298,-547.219"/>
<path fill="none" stroke="black" d="M739.298,-545.219C725.037,-503.349 731.266,-485.77 701.298,-453.236"/>
<path fill="none" stroke="black" d="M701.298,-451.236C698.022,-447.68 645.304,-391.033 642.298,-387.245 632.954,-375.465 621.662,-374.2 623.298,-359.253"/>
</g>
<!-- SimpleGUICS2Pygame_simpleguics2pygame__pygame_init&#45;&gt;SimpleGUICS2Pygame_simpleguics2pygame_canvas -->
<g id="edge29" class="edge"><title>SimpleGUICS2Pygame_simpleguics2pygame__pygame_init&#45;&gt;SimpleGUICS2Pygame_simpleguics2pygame_canvas</title><style>.edge>path:hover{stroke-width:8}</style>
<path fill="none" stroke="black" d="M739.298,-545.219C723.59,-496.176 727.456,-436.054 732.603,-397.697"/>
<polygon fill="#d10505" stroke="black" points="736.112,-397.88 734.073,-387.483 729.184,-396.882 736.112,-397.88"/>
</g>
<!-- SimpleGUICS2Pygame_simpleguics2pygame__colors -->
<g id="node20" class="node"><title>SimpleGUICS2Pygame_simpleguics2pygame__colors</title><style>.edge>path:hover{stroke-width:8}</style>
<ellipse fill="#bf2121" stroke="black" cx="1087.3" cy="-546.219" rx="88.2768" ry="28.9828"/>
<text text-anchor="middle" x="1087.3" y="-554.719" font-family="Helvetica,sans-Serif" font-size="10.00" fill="#ffffff">SimpleGUICS2Pygame.</text>
<text text-anchor="middle" x="1087.3" y="-543.719" font-family="Helvetica,sans-Serif" font-size="10.00" fill="#ffffff">simpleguics2pygame.</text>
<text text-anchor="middle" x="1087.3" y="-532.719" font-family="Helvetica,sans-Serif" font-size="10.00" fill="#ffffff">_colors</text>
</g>
<!-- SimpleGUICS2Pygame_simpleguics2pygame__pygame_init&#45;&gt;SimpleGUICS2Pygame_simpleguics2pygame__colors -->
<g id="edge25" class="edge"><title>SimpleGUICS2Pygame_simpleguics2pygame__pygame_init&#45;&gt;SimpleGUICS2Pygame_simpleguics2pygame__colors</title><style>.edge>path:hover{stroke-width:8}</style>
<path fill="none" stroke="black" d="M910.279,-617.403C943.961,-604.049 987.238,-586.89 1022.57,-572.882"/>
<polygon fill="#d10505" stroke="black" points="1024.3,-575.96 1032.31,-569.02 1021.72,-569.452 1024.3,-575.96"/>
</g>
<!-- SimpleGUICS2Pygame_simpleguics2pygame&#45;&gt;SimpleGUICS2Pygame_simplegui_lib_loader -->
<g id="edge7" class="edge"><title>SimpleGUICS2Pygame_simpleguics2pygame&#45;&gt;SimpleGUICS2Pygame_simplegui_lib_loader</title><style>.edge>path:hover{stroke-width:8}</style>
<path fill="none" stroke="black" d="M668.035,-159.532C696.648,-148.318 733.935,-133.704 764.207,-121.84"/>
<polygon fill="#950303" stroke="black" points="765.736,-125 773.77,-118.092 763.182,-118.482 765.736,-125"/>
</g>
<!-- SimpleGUICS2Pygame_simplegui_lib_keys -->
<g id="node15" class="node"><title>SimpleGUICS2Pygame_simplegui_lib_keys</title><style>.edge>path:hover{stroke-width:8}</style>
<ellipse fill="#b83d3d" stroke="black" cx="428.298" cy="-99.6396" rx="88.2768" ry="21.4286"/>
<text text-anchor="middle" x="428.298" y="-102.64" font-family="Helvetica,sans-Serif" font-size="10.00" fill="#ffffff">SimpleGUICS2Pygame.</text>
<text text-anchor="middle" x="428.298" y="-91.6396" font-family="Helvetica,sans-Serif" font-size="10.00" fill="#ffffff">simplegui_lib_keys</text>
</g>
<!-- SimpleGUICS2Pygame_simpleguics2pygame&#45;&gt;SimpleGUICS2Pygame_simplegui_lib_keys -->
<g id="edge6" class="edge"><title>SimpleGUICS2Pygame_simpleguics2pygame&#45;&gt;SimpleGUICS2Pygame_simplegui_lib_keys</title><style>.edge>path:hover{stroke-width:8}</style>
<path fill="none" stroke="black" d="M578.562,-159.532C549.949,-148.318 512.662,-133.704 482.39,-121.84"/>
<polygon fill="#950303" stroke="black" points="483.415,-118.482 472.827,-118.092 480.861,-125 483.415,-118.482"/>
</g>
<!-- SimpleGUICS2Pygame_simplegui_lib_fps -->
<g id="node16" class="node"><title>SimpleGUICS2Pygame_simplegui_lib_fps</title><style>.edge>path:hover{stroke-width:8}</style>
<ellipse fill="#b83d3d" stroke="black" cx="623.298" cy="-99.6396" rx="88.2768" ry="21.4286"/>
<text text-anchor="middle" x="623.298" y="-102.64" font-family="Helvetica,sans-Serif" font-size="10.00" fill="#ffffff">SimpleGUICS2Pygame.</text>
<text text-anchor="middle" x="623.298" y="-91.6396" font-family="Helvetica,sans-Serif" font-size="10.00" fill="#ffffff">simplegui_lib_fps</text>
</g>
<!-- SimpleGUICS2Pygame_simpleguics2pygame&#45;&gt;SimpleGUICS2Pygame_simplegui_lib_fps -->
<g id="edge5" class="edge"><title>SimpleGUICS2Pygame_simpleguics2pygame&#45;&gt;SimpleGUICS2Pygame_simplegui_lib_fps</title><style>.edge>path:hover{stroke-width:8}</style>
<path fill="none" stroke="black" d="M623.298,-156.585C623.298,-148.726 623.298,-139.582 623.298,-130.992"/>
<polygon fill="#950303" stroke="black" points="626.799,-130.912 623.298,-120.912 619.799,-130.912 626.799,-130.912"/>
</g>
<!-- SimpleGUICS2Pygame_simpleguics2pygame_control&#45;&gt;SimpleGUICS2Pygame_simpleguics2pygame -->
<g id="edge36" class="edge"><title>SimpleGUICS2Pygame_simpleguics2pygame_control&#45;&gt;SimpleGUICS2Pygame_simpleguics2pygame</title><style>.edge>path:hover{stroke-width:8}</style>
<path fill="none" stroke="black" d="M938.223,-442.091C1028.7,-429.908 1163.51,-404.446 1184.3,-359.253"/>
<path fill="none" stroke="black" d="M1184.3,-357.253C1201.38,-320.113 1189.34,-305.84 1184.3,-265.271"/>
</g>
<!-- SimpleGUICS2Pygame_simpleguics2pygame_control&#45;&gt;SimpleGUICS2Pygame_simpleguics2pygame_frame -->
<g id="edge37" class="edge"><title>SimpleGUICS2Pygame_simpleguics2pygame_control&#45;&gt;SimpleGUICS2Pygame_simpleguics2pygame_frame</title><style>.edge>path:hover{stroke-width:8}</style>
<path fill="none" stroke="black" d="M780.411,-436.68C711.291,-421.047 619.788,-393.738 623.298,-359.253"/>
</g>
<!-- SimpleGUICS2Pygame_simpleguics2pygame__joypads&#45;&gt;SimpleGUICS2Pygame_simpleguics2pygame_frame -->
<g id="edge20" class="edge"><title>SimpleGUICS2Pygame_simpleguics2pygame__joypads&#45;&gt;SimpleGUICS2Pygame_simpleguics2pygame_frame</title><style>.edge>path:hover{stroke-width:8}</style>
<path fill="none" stroke="black" d="M467.168,-531.286C520.698,-519.876 586.004,-502.224 604.298,-481.227 640.341,-439.862 617.743,-413.836 623.298,-359.253"/>
</g>
<!-- SimpleGUICS2Pygame_simpleguics2pygame__fonts&#45;&gt;SimpleGUICS2Pygame_simpleguics2pygame_control -->
<g id="edge18" class="edge"><title>SimpleGUICS2Pygame_simpleguics2pygame__fonts&#45;&gt;SimpleGUICS2Pygame_simpleguics2pygame_control</title><style>.edge>path:hover{stroke-width:8}</style>
<path fill="none" stroke="black" d="M678.279,-523.42C711.961,-510.066 755.238,-492.908 790.571,-478.899"/>
<polygon fill="#b62020" stroke="black" points="792.305,-481.977 800.311,-475.037 789.725,-475.47 792.305,-481.977"/>
</g>
<!-- SimpleGUICS2Pygame_simpleguics2pygame__fonts&#45;&gt;SimpleGUICS2Pygame_simpleguics2pygame_frame -->
<g id="edge19" class="edge"><title>SimpleGUICS2Pygame_simpleguics2pygame__fonts&#45;&gt;SimpleGUICS2Pygame_simpleguics2pygame_frame</title><style>.edge>path:hover{stroke-width:8}</style>
<path fill="none" stroke="black" d="M636.348,-517.543C644.43,-499.54 654.524,-475.376 661.298,-453.236"/>
<path fill="none" stroke="black" d="M661.298,-451.236C674.241,-408.94 618.819,-403.258 623.298,-359.253"/>
</g>
<!-- SimpleGUICS2Pygame_simpleguics2pygame__fonts&#45;&gt;SimpleGUICS2Pygame_simpleguics2pygame_canvas -->
<g id="edge17" class="edge"><title>SimpleGUICS2Pygame_simpleguics2pygame__fonts&#45;&gt;SimpleGUICS2Pygame_simpleguics2pygame_canvas</title><style>.edge>path:hover{stroke-width:8}</style>
<path fill="none" stroke="black" d="M661.298,-451.236C668.143,-428.868 683.868,-408.506 699.42,-392.658"/>
<polygon fill="#b62020" stroke="black" points="702.294,-394.743 707.001,-385.251 697.402,-389.736 702.294,-394.743"/>
</g>
<!-- SimpleGUICS2Pygame_simplegui_lib_keys&#45;&gt;SimpleGUICS2Pygame_simplegui_lib -->
<g id="edge3" class="edge"><title>SimpleGUICS2Pygame_simplegui_lib_keys&#45;&gt;SimpleGUICS2Pygame_simplegui_lib</title><style>.edge>path:hover{stroke-width:8}</style>
<path fill="none" stroke="black" d="M453.027,-79.1563C464.998,-69.7239 479.537,-58.2688 492.427,-48.1129"/>
<polygon fill="#b83d3d" stroke="black" points="494.927,-50.599 500.615,-41.661 490.594,-45.1007 494.927,-50.599"/>
</g>
<!-- SimpleGUICS2Pygame_simplegui_lib_fps&#45;&gt;SimpleGUICS2Pygame_simplegui_lib -->
<g id="edge2" class="edge"><title>SimpleGUICS2Pygame_simplegui_lib_fps&#45;&gt;SimpleGUICS2Pygame_simplegui_lib</title><style>.edge>path:hover{stroke-width:8}</style>
<path fill="none" stroke="black" d="M598.315,-79.1563C586.105,-69.634 571.252,-58.0504 558.138,-47.8231"/>
<polygon fill="#b83d3d" stroke="black" points="560.274,-45.0507 550.236,-41.661 555.969,-50.5706 560.274,-45.0507"/>
</g>
<!-- SimpleGUICS2Pygame_simpleguics2pygame_frame&#45;&gt;SimpleGUICS2Pygame_simpleguics2pygame -->
<g id="edge38" class="edge"><title>SimpleGUICS2Pygame_simpleguics2pygame_frame&#45;&gt;SimpleGUICS2Pygame_simpleguics2pygame</title><style>.edge>path:hover{stroke-width:8}</style>
<path fill="none" stroke="black" d="M623.298,-235.232C623.298,-227.024 623.298,-218.01 623.298,-209.653"/>
<polygon fill="#732626" stroke="black" points="626.799,-209.527 623.298,-199.527 619.799,-209.527 626.799,-209.527"/>
</g>
<!-- SimpleGUICS2Pygame_simpleguics2pygame_timer&#45;&gt;SimpleGUICS2Pygame_simpleguics2pygame -->
<g id="edge45" class="edge"><title>SimpleGUICS2Pygame_simpleguics2pygame_timer&#45;&gt;SimpleGUICS2Pygame_simpleguics2pygame</title><style>.edge>path:hover{stroke-width:8}</style>
<path fill="none" stroke="black" d="M137.977,-329.78C151.768,-309.248 173.128,-281.954 198.298,-265.271"/>
</g>
<!-- SimpleGUICS2Pygame_simpleguics2pygame_timer&#45;&gt;SimpleGUICS2Pygame_simpleguics2pygame_frame -->
<g id="edge46" class="edge"><title>SimpleGUICS2Pygame_simpleguics2pygame_timer&#45;&gt;SimpleGUICS2Pygame_simpleguics2pygame_frame</title><style>.edge>path:hover{stroke-width:8}</style>
<path fill="none" stroke="black" d="M185.786,-338.413C198.177,-335.118 211.094,-331.904 223.298,-329.262 328.104,-306.569 449.966,-288.207 531.385,-277.067"/>
<polygon fill="#bc2f2f" stroke="black" points="532.168,-280.493 541.606,-275.678 531.225,-273.557 532.168,-280.493"/>
</g>
<!-- SimpleGUICS2Pygame_simpleguics2pygame_canvas&#45;&gt;SimpleGUICS2Pygame_simpleguics2pygame -->
<g id="edge34" class="edge"><title>SimpleGUICS2Pygame_simpleguics2pygame_canvas&#45;&gt;SimpleGUICS2Pygame_simpleguics2pygame</title><style>.edge>path:hover{stroke-width:8}</style>
<path fill="none" stroke="black" d="M827.762,-356.597C960.079,-353.26 1193.23,-337.198 1184.3,-265.271"/>
<path fill="none" stroke="black" d="M1184.3,-263.271C1178.58,-217.276 877.944,-193.394 719.197,-183.974"/>
<polygon fill="#9b2626" stroke="black" points="719.137,-180.464 708.95,-183.374 718.728,-187.452 719.137,-180.464"/>
</g>
<!-- SimpleGUICS2Pygame_simpleguics2pygame_canvas&#45;&gt;SimpleGUICS2Pygame_simpleguics2pygame_frame -->
<g id="edge35" class="edge"><title>SimpleGUICS2Pygame_simpleguics2pygame_canvas&#45;&gt;SimpleGUICS2Pygame_simpleguics2pygame_frame</title><style>.edge>path:hover{stroke-width:8}</style>
<path fill="none" stroke="black" d="M706.368,-331.141C693.266,-320.751 678.05,-308.686 664.248,-297.742"/>
<polygon fill="#9b2626" stroke="black" points="666.322,-294.919 656.311,-291.448 661.972,-300.404 666.322,-294.919"/>
</g>
<!-- SimpleGUICS2Pygame_simpleguics2pygame__colors&#45;&gt;SimpleGUICS2Pygame_simpleguics2pygame_control -->
<g id="edge15" class="edge"><title>SimpleGUICS2Pygame_simpleguics2pygame__colors&#45;&gt;SimpleGUICS2Pygame_simpleguics2pygame_control</title><style>.edge>path:hover{stroke-width:8}</style>
<path fill="none" stroke="black" d="M1032.32,-523.42C998.636,-510.066 955.359,-492.908 920.026,-478.899"/>
<polygon fill="#bf2121" stroke="black" points="920.872,-475.47 910.286,-475.037 918.292,-481.977 920.872,-475.47"/>
</g>
<!-- SimpleGUICS2Pygame_simpleguics2pygame__colors&#45;&gt;SimpleGUICS2Pygame_simpleguics2pygame_frame -->
<g id="edge16" class="edge"><title>SimpleGUICS2Pygame_simpleguics2pygame__colors&#45;&gt;SimpleGUICS2Pygame_simpleguics2pygame_frame</title><style>.edge>path:hover{stroke-width:8}</style>
<path fill="none" stroke="black" d="M1073.12,-517.577C1058.42,-490.937 1033.39,-450.729 1003.3,-423.245 918.683,-345.959 790.922,-303.505 707.299,-282.574"/>
<polygon fill="#bf2121" stroke="black" points="708.126,-279.173 697.58,-280.188 706.457,-285.971 708.126,-279.173"/>
</g>
<!-- SimpleGUICS2Pygame_simpleguics2pygame__colors&#45;&gt;SimpleGUICS2Pygame_simpleguics2pygame_canvas -->
<g id="edge14" class="edge"><title>SimpleGUICS2Pygame_simpleguics2pygame__colors&#45;&gt;SimpleGUICS2Pygame_simpleguics2pygame_canvas</title><style>.edge>path:hover{stroke-width:8}</style>
<path fill="none" stroke="black" d="M1064.09,-518.124C1039.1,-490.543 996.875,-448.373 952.298,-423.245 912.99,-401.087 865.183,-385.823 824.827,-375.778"/>
<polygon fill="#bf2121" stroke="black" points="825.549,-372.352 815.006,-373.398 823.901,-379.155 825.549,-372.352"/>
</g>
<!-- audioread -->
<g id="node21" class="node"><title>audioread</title><style>.edge>path:hover{stroke-width:8}</style>
<polygon fill="#80c040" stroke="black" points="306.798,-819.619 303.798,-823.619 282.798,-823.619 279.798,-819.619 243.798,-819.619 243.798,-783.619 306.798,-783.619 306.798,-819.619"/>
<text text-anchor="middle" x="275.298" y="-799.119" font-family="Helvetica,sans-Serif" font-size="10.00" fill="#000000">audioread</text>
</g>
<!-- audioread&#45;&gt;SimpleGUICS2Pygame_simpleguics2pygame__media -->
<g id="edge47" class="edge"><title>audioread&#45;&gt;SimpleGUICS2Pygame_simpleguics2pygame__media</title><style>.edge>path:hover{stroke-width:8}</style>
<path fill="none" stroke="black" d="M278.18,-783.418C283.146,-748.222 289.813,-666.641 256.298,-611.21 247.525,-596.699 234.055,-584.818 219.919,-575.405"/>
<polygon fill="#80c040" stroke="black" points="221.401,-572.203 211.068,-569.861 217.685,-578.135 221.401,-572.203"/>
</g>
<!-- matplotlib -->
<g id="node22" class="node"><title>matplotlib</title><style>.edge>path:hover{stroke-width:8}</style>
<polygon fill="#31c4c4" stroke="black" points="188.798,-891.619 185.798,-895.619 164.798,-895.619 161.798,-891.619 129.798,-891.619 129.798,-855.619 188.798,-855.619 188.798,-891.619"/>
<text text-anchor="middle" x="159.298" y="-871.119" font-family="Helvetica,sans-Serif" font-size="10.00" fill="#000000">matplotlib</text>
</g>
<!-- matplotlib&#45;&gt;SimpleGUICS2Pygame_simpleplot -->
<g id="edge48" class="edge"><title>matplotlib&#45;&gt;SimpleGUICS2Pygame_simpleplot</title><style>.edge>path:hover{stroke-width:8}</style>
<path fill="none" stroke="black" d="M159.298,-855.391C159.298,-831.437 159.298,-787.684 159.298,-758.081"/>
<polygon fill="#31c4c4" stroke="black" points="162.799,-757.877 159.298,-747.877 155.799,-757.877 162.799,-757.877"/>
</g>
<!-- pygame -->
<g id="node23" class="node"><title>pygame</title><style>.edge>path:hover{stroke-width:8}</style>
<polygon fill="#7f4cb3" stroke="black" points="882.298,-891.619 879.298,-895.619 858.298,-895.619 855.298,-891.619 828.298,-891.619 828.298,-855.619 882.298,-855.619 882.298,-891.619"/>
<text text-anchor="middle" x="855.298" y="-871.119" font-family="Helvetica,sans-Serif" font-size="10.00" fill="#ffffff">pygame</text>
</g>
<!-- pygame&#45;&gt;SimpleGUICS2Pygame_simpleguics2pygame_keys -->
<g id="edge57" class="edge"><title>pygame&#45;&gt;SimpleGUICS2Pygame_simpleguics2pygame_keys</title><style>.edge>path:hover{stroke-width:8}</style>
<path fill="none" stroke="black" d="M855.298,-725.406C820.167,-647.005 983.998,-714.201 1029.3,-641.202"/>
<path fill="none" stroke="black" d="M1029.3,-639.202C1042.81,-617.427 980.756,-589.592 927.046,-570.272"/>
<polygon fill="#7f4cb3" stroke="black" points="928.075,-566.924 917.48,-566.888 925.74,-573.523 928.075,-566.924"/>
</g>
<!-- pygame&#45;&gt;SimpleGUICS2Pygame_simpleguics2pygame__media -->
<g id="edge52" class="edge"><title>pygame&#45;&gt;SimpleGUICS2Pygame_simpleguics2pygame__media</title><style>.edge>path:hover{stroke-width:8}</style>
<path fill="none" stroke="black" d="M859.6,-855.583C865.785,-827.465 874.474,-770.198 855.298,-727.406"/>
<path fill="none" stroke="black" d="M855.298,-725.406C805.62,-633.134 469.557,-710.898 391.298,-641.202"/>
<path fill="none" stroke="black" d="M391.298,-639.202C366.817,-617.398 290.213,-589.231 231.662,-569.842"/>
<polygon fill="#7f4cb3" stroke="black" points="232.656,-566.485 222.063,-566.688 230.471,-573.135 232.656,-566.485"/>
</g>
<!-- pygame&#45;&gt;SimpleGUICS2Pygame_simpleguics2pygame__pygame_init -->
<g id="edge53" class="edge"><title>pygame&#45;&gt;SimpleGUICS2Pygame_simpleguics2pygame__pygame_init</title><style>.edge>path:hover{stroke-width:8}</style>
<path fill="none" stroke="black" d="M855.298,-725.406C848.936,-711.207 847.864,-694.259 848.783,-679.302"/>
<polygon fill="#7f4cb3" stroke="black" points="852.27,-679.602 849.697,-669.324 845.299,-678.963 852.27,-679.602"/>
</g>
<!-- pygame&#45;&gt;SimpleGUICS2Pygame_simpleguics2pygame_control -->
<g id="edge55" class="edge"><title>pygame&#45;&gt;SimpleGUICS2Pygame_simpleguics2pygame_control</title><style>.edge>path:hover{stroke-width:8}</style>
<path fill="none" stroke="black" d="M1029.3,-639.202C1030.35,-637.499 953.701,-518.658 952.298,-517.227 939.667,-504.34 924.021,-492.646 909.009,-482.886"/>
<polygon fill="#7f4cb3" stroke="black" points="910.595,-479.748 900.271,-477.367 906.857,-485.666 910.595,-479.748"/>
</g>
<!-- pygame&#45;&gt;SimpleGUICS2Pygame_simpleguics2pygame__joypads -->
<g id="edge51" class="edge"><title>pygame&#45;&gt;SimpleGUICS2Pygame_simpleguics2pygame__joypads</title><style>.edge>path:hover{stroke-width:8}</style>
<path fill="none" stroke="black" d="M391.298,-639.202C376.641,-626.148 376.058,-604.425 379.414,-585.367"/>
<polygon fill="#7f4cb3" stroke="black" points="382.873,-585.927 381.546,-575.416 376.028,-584.461 382.873,-585.927"/>
</g>
<!-- pygame&#45;&gt;SimpleGUICS2Pygame_simpleguics2pygame__fonts -->
<g id="edge50" class="edge"><title>pygame&#45;&gt;SimpleGUICS2Pygame_simpleguics2pygame__fonts</title><style>.edge>path:hover{stroke-width:8}</style>
<path fill="none" stroke="black" d="M391.298,-639.202C365.079,-615.85 465.041,-585.2 541.927,-565.851"/>
<polygon fill="#7f4cb3" stroke="black" points="542.794,-569.242 551.654,-563.432 541.104,-562.449 542.794,-569.242"/>
</g>
<!-- pygame&#45;&gt;SimpleGUICS2Pygame_simpleguics2pygame_frame -->
<g id="edge56" class="edge"><title>pygame&#45;&gt;SimpleGUICS2Pygame_simpleguics2pygame_frame</title><style>.edge>path:hover{stroke-width:8}</style>
<path fill="none" stroke="black" d="M391.298,-639.202C352.73,-604.852 322.216,-618.662 294.298,-575.21 264.642,-529.052 231.319,-486.037 275.298,-453.236"/>
</g>
<!-- pygame&#45;&gt;SimpleGUICS2Pygame_simpleguics2pygame_canvas -->
<g id="edge54" class="edge"><title>pygame&#45;&gt;SimpleGUICS2Pygame_simpleguics2pygame_canvas</title><style>.edge>path:hover{stroke-width:8}</style>
<path fill="none" stroke="black" d="M1029.3,-639.202C1068.51,-575.823 1142.86,-637.155 1184.3,-575.21 1198.63,-553.792 1197.68,-539.252 1184.3,-517.227 1113.37,-400.483 946.254,-368.787 838.209,-360.885"/>
<polygon fill="#7f4cb3" stroke="black" points="838.156,-357.373 827.943,-360.192 837.685,-364.358 838.156,-357.373"/>
</g>
<!-- pygame&#45;&gt;SimpleGUICS2Pygame_simpleguics2pygame__colors -->
<g id="edge49" class="edge"><title>pygame&#45;&gt;SimpleGUICS2Pygame_simpleguics2pygame__colors</title><style>.edge>path:hover{stroke-width:8}</style>
<path fill="none" stroke="black" d="M1029.3,-639.202C1040.74,-620.761 1053.6,-600.333 1064.3,-583.421"/>
<polygon fill="#7f4cb3" stroke="black" points="1067.29,-585.249 1069.68,-574.928 1061.37,-581.504 1067.29,-585.249"/>
</g>
</g>
</svg>
