<?xml version="1.0" encoding="UTF-8" standalone="no"?>
<!DOCTYPE svg PUBLIC "-//W3C//DTD SVG 1.1//EN"
 "http://www.w3.org/Graphics/SVG/1.1/DTD/svg11.dtd">
<!-- Generated by graphviz version 2.38.0 (20140413.2041)
 -->
<!-- Title: G Pages: 1 -->
<svg width="1343pt" height="865pt"
 viewBox="0.00 0.00 1343.12 864.62" xmlns="http://www.w3.org/2000/svg" xmlns:xlink="http://www.w3.org/1999/xlink">
<g id="graph0" class="graph" transform="scale(1 1) rotate(0) translate(4 860.619)">
<title>G</title><style>.edge>path:hover{stroke-width:8}</style>
<polygon fill="white" stroke="none" points="-4,4 -4,-860.619 1339.12,-860.619 1339.12,4 -4,4"/>
<!-- SimpleGUICS2Pygame_simplegui_lib_fps -->
<g id="node1" class="node"><title>SimpleGUICS2Pygame_simplegui_lib_fps</title><style>.edge>path:hover{stroke-width:8}</style>
<ellipse fill="#b83d3d" stroke="black" cx="474.388" cy="-99.6396" rx="88.2768" ry="21.4286"/>
<text text-anchor="middle" x="474.388" y="-102.64" font-family="Helvetica,sans-Serif" font-size="10.00" fill="#ffffff">SimpleGUICS2Pygame.</text>
<text text-anchor="middle" x="474.388" y="-91.6396" font-family="Helvetica,sans-Serif" font-size="10.00" fill="#ffffff">simplegui_lib_fps</text>
</g>
<!-- SimpleGUICS2Pygame_simplegui_lib -->
<g id="node7" class="node"><title>SimpleGUICS2Pygame_simplegui_lib</title><style>.edge>path:hover{stroke-width:8}</style>
<ellipse fill="#964040" stroke="black" cx="571.388" cy="-21.2132" rx="88.2768" ry="21.4286"/>
<text text-anchor="middle" x="571.388" y="-24.2132" font-family="Helvetica,sans-Serif" font-size="10.00" fill="#ffffff">SimpleGUICS2Pygame.</text>
<text text-anchor="middle" x="571.388" y="-13.2132" font-family="Helvetica,sans-Serif" font-size="10.00" fill="#ffffff">simplegui_lib</text>
</g>
<!-- SimpleGUICS2Pygame_simplegui_lib_fps&#45;&gt;SimpleGUICS2Pygame_simplegui_lib -->
<g id="edge2" class="edge"><title>SimpleGUICS2Pygame_simplegui_lib_fps&#45;&gt;SimpleGUICS2Pygame_simplegui_lib</title><style>.edge>path:hover{stroke-width:8}</style>
<path fill="none" stroke="black" d="M499.117,-79.1563C511.088,-69.7239 525.627,-58.2688 538.517,-48.1129"/>
<polygon fill="#b83d3d" stroke="black" points="541.017,-50.599 546.705,-41.661 536.684,-45.1007 541.017,-50.599"/>
</g>
<!-- SimpleGUICS2Pygame_simpleguics2pygame_control -->
<g id="node2" class="node"><title>SimpleGUICS2Pygame_simpleguics2pygame_control</title><style>.edge>path:hover{stroke-width:8}</style>
<ellipse fill="#a32828" stroke="black" cx="552.388" cy="-452.236" rx="88.2768" ry="28.9828"/>
<text text-anchor="middle" x="552.388" y="-460.736" font-family="Helvetica,sans-Serif" font-size="10.00" fill="#ffffff">SimpleGUICS2Pygame.</text>
<text text-anchor="middle" x="552.388" y="-449.736" font-family="Helvetica,sans-Serif" font-size="10.00" fill="#ffffff">simpleguics2pygame.</text>
<text text-anchor="middle" x="552.388" y="-438.736" font-family="Helvetica,sans-Serif" font-size="10.00" fill="#ffffff">control</text>
</g>
<!-- SimpleGUICS2Pygame_simpleguics2pygame -->
<g id="node13" class="node"><title>SimpleGUICS2Pygame_simpleguics2pygame</title><style>.edge>path:hover{stroke-width:8}</style>
<ellipse fill="#950303" stroke="black" cx="474.388" cy="-178.066" rx="88.2768" ry="21.4286"/>
<text text-anchor="middle" x="474.388" y="-181.066" font-family="Helvetica,sans-Serif" font-size="10.00" fill="#ffffff">SimpleGUICS2Pygame.</text>
<text text-anchor="middle" x="474.388" y="-170.066" font-family="Helvetica,sans-Serif" font-size="10.00" fill="#ffffff">simpleguics2pygame</text>
</g>
<!-- SimpleGUICS2Pygame_simpleguics2pygame_control&#45;&gt;SimpleGUICS2Pygame_simpleguics2pygame -->
<g id="edge35" class="edge"><title>SimpleGUICS2Pygame_simpleguics2pygame_control&#45;&gt;SimpleGUICS2Pygame_simpleguics2pygame</title><style>.edge>path:hover{stroke-width:8}</style>
<path fill="none" stroke="black" d="M527.635,-424.401C511.666,-406.536 490.877,-382.212 474.388,-359.253"/>
<path fill="none" stroke="black" d="M474.388,-357.253C436.007,-303.811 312.832,-312.746 358.388,-265.271"/>
</g>
<!-- SimpleGUICS2Pygame_simpleguics2pygame_frame -->
<g id="node20" class="node"><title>SimpleGUICS2Pygame_simpleguics2pygame_frame</title><style>.edge>path:hover{stroke-width:8}</style>
<ellipse fill="#732626" stroke="black" cx="474.388" cy="-264.271" rx="88.2768" ry="28.9828"/>
<text text-anchor="middle" x="474.388" y="-272.771" font-family="Helvetica,sans-Serif" font-size="10.00" fill="#ffffff">SimpleGUICS2Pygame.</text>
<text text-anchor="middle" x="474.388" y="-261.771" font-family="Helvetica,sans-Serif" font-size="10.00" fill="#ffffff">simpleguics2pygame.</text>
<text text-anchor="middle" x="474.388" y="-250.771" font-family="Helvetica,sans-Serif" font-size="10.00" fill="#ffffff">frame</text>
</g>
<!-- SimpleGUICS2Pygame_simpleguics2pygame_control&#45;&gt;SimpleGUICS2Pygame_simpleguics2pygame_frame -->
<g id="edge36" class="edge"><title>SimpleGUICS2Pygame_simpleguics2pygame_control&#45;&gt;SimpleGUICS2Pygame_simpleguics2pygame_frame</title><style>.edge>path:hover{stroke-width:8}</style>
<path fill="none" stroke="black" d="M474.388,-357.253C463.357,-341.894 462.531,-321.062 464.83,-303.108"/>
<polygon fill="#a32828" stroke="black" points="468.289,-303.639 466.437,-293.208 461.38,-302.518 468.289,-303.639"/>
</g>
<!-- SimpleGUICS2Pygame_simpleguics2pygame__pygame_init -->
<g id="node3" class="node"><title>SimpleGUICS2Pygame_simpleguics2pygame__pygame_init</title><style>.edge>path:hover{stroke-width:8}</style>
<ellipse fill="#d10505" stroke="black" cx="803.388" cy="-640.202" rx="88.2768" ry="28.9828"/>
<text text-anchor="middle" x="803.388" y="-648.702" font-family="Helvetica,sans-Serif" font-size="10.00" fill="#ffffff">SimpleGUICS2Pygame.</text>
<text text-anchor="middle" x="803.388" y="-637.702" font-family="Helvetica,sans-Serif" font-size="10.00" fill="#ffffff">simpleguics2pygame.</text>
<text text-anchor="middle" x="803.388" y="-626.702" font-family="Helvetica,sans-Serif" font-size="10.00" fill="#ffffff">_pygame_init</text>
</g>
<!-- SimpleGUICS2Pygame_simpleguics2pygame__pygame_init&#45;&gt;SimpleGUICS2Pygame_simpleguics2pygame_control -->
<g id="edge30" class="edge"><title>SimpleGUICS2Pygame_simpleguics2pygame__pygame_init&#45;&gt;SimpleGUICS2Pygame_simpleguics2pygame_control</title><style>.edge>path:hover{stroke-width:8}</style>
<path fill="none" stroke="black" d="M719.992,-630.57C672.859,-622.36 614.859,-606.362 571.388,-575.21 559.167,-566.452 559.117,-560.665 552.388,-547.219"/>
</g>
<!-- SimpleGUICS2Pygame_simpleguics2pygame__joypads -->
<g id="node6" class="node"><title>SimpleGUICS2Pygame_simpleguics2pygame__joypads</title><style>.edge>path:hover{stroke-width:8}</style>
<ellipse fill="#a13535" stroke="black" cx="900.388" cy="-546.219" rx="88.2768" ry="28.9828"/>
<text text-anchor="middle" x="900.388" y="-554.719" font-family="Helvetica,sans-Serif" font-size="10.00" fill="#ffffff">SimpleGUICS2Pygame.</text>
<text text-anchor="middle" x="900.388" y="-543.719" font-family="Helvetica,sans-Serif" font-size="10.00" fill="#ffffff">simpleguics2pygame.</text>
<text text-anchor="middle" x="900.388" y="-532.719" font-family="Helvetica,sans-Serif" font-size="10.00" fill="#ffffff">_joypads</text>
</g>
<!-- SimpleGUICS2Pygame_simpleguics2pygame__pygame_init&#45;&gt;SimpleGUICS2Pygame_simpleguics2pygame__joypads -->
<g id="edge27" class="edge"><title>SimpleGUICS2Pygame_simpleguics2pygame__pygame_init&#45;&gt;SimpleGUICS2Pygame_simpleguics2pygame__joypads</title><style>.edge>path:hover{stroke-width:8}</style>
<path fill="none" stroke="black" d="M831.445,-612.596C841.901,-602.681 853.909,-591.294 864.943,-580.831"/>
<polygon fill="#d10505" stroke="black" points="867.547,-583.185 872.395,-573.764 862.73,-578.106 867.547,-583.185"/>
</g>
<!-- SimpleGUICS2Pygame_simpleguics2pygame_image -->
<g id="node8" class="node"><title>SimpleGUICS2Pygame_simpleguics2pygame_image</title><style>.edge>path:hover{stroke-width:8}</style>
<ellipse fill="#bf2121" stroke="black" cx="900.388" cy="-452.236" rx="88.2768" ry="28.9828"/>
<text text-anchor="middle" x="900.388" y="-460.736" font-family="Helvetica,sans-Serif" font-size="10.00" fill="#ffffff">SimpleGUICS2Pygame.</text>
<text text-anchor="middle" x="900.388" y="-449.736" font-family="Helvetica,sans-Serif" font-size="10.00" fill="#ffffff">simpleguics2pygame.</text>
<text text-anchor="middle" x="900.388" y="-438.736" font-family="Helvetica,sans-Serif" font-size="10.00" fill="#ffffff">image</text>
</g>
<!-- SimpleGUICS2Pygame_simpleguics2pygame__pygame_init&#45;&gt;SimpleGUICS2Pygame_simpleguics2pygame_image -->
<g id="edge32" class="edge"><title>SimpleGUICS2Pygame_simpleguics2pygame__pygame_init&#45;&gt;SimpleGUICS2Pygame_simpleguics2pygame_image</title><style>.edge>path:hover{stroke-width:8}</style>
<path fill="none" stroke="black" d="M784.388,-545.219C794.999,-518.03 819.02,-496.863 842.467,-481.726"/>
<polygon fill="#d10505" stroke="black" points="844.385,-484.655 851.053,-476.422 840.706,-478.7 844.385,-484.655"/>
</g>
<!-- SimpleGUICS2Pygame_simpleguics2pygame_canvas -->
<g id="node9" class="node"><title>SimpleGUICS2Pygame_simpleguics2pygame_canvas</title><style>.edge>path:hover{stroke-width:8}</style>
<ellipse fill="#9b2626" stroke="black" cx="320.388" cy="-358.253" rx="88.2768" ry="28.9828"/>
<text text-anchor="middle" x="320.388" y="-366.753" font-family="Helvetica,sans-Serif" font-size="10.00" fill="#ffffff">SimpleGUICS2Pygame.</text>
<text text-anchor="middle" x="320.388" y="-355.753" font-family="Helvetica,sans-Serif" font-size="10.00" fill="#ffffff">simpleguics2pygame.</text>
<text text-anchor="middle" x="320.388" y="-344.753" font-family="Helvetica,sans-Serif" font-size="10.00" fill="#ffffff">canvas</text>
</g>
<!-- SimpleGUICS2Pygame_simpleguics2pygame__pygame_init&#45;&gt;SimpleGUICS2Pygame_simpleguics2pygame_canvas -->
<g id="edge29" class="edge"><title>SimpleGUICS2Pygame_simpleguics2pygame__pygame_init&#45;&gt;SimpleGUICS2Pygame_simpleguics2pygame_canvas</title><style>.edge>path:hover{stroke-width:8}</style>
<path fill="none" stroke="black" d="M721.335,-629.197C589.85,-612.983 345.932,-582.085 339.388,-575.21 294.421,-527.97 301.625,-445.735 310.974,-397.525"/>
<polygon fill="#d10505" stroke="black" points="314.452,-397.991 313.047,-387.49 307.596,-396.575 314.452,-397.991"/>
</g>
<!-- SimpleGUICS2Pygame_simpleguics2pygame__fonts -->
<g id="node11" class="node"><title>SimpleGUICS2Pygame_simpleguics2pygame__fonts</title><style>.edge>path:hover{stroke-width:8}</style>
<ellipse fill="#b62020" stroke="black" cx="668.388" cy="-546.219" rx="88.2768" ry="28.9828"/>
<text text-anchor="middle" x="668.388" y="-554.719" font-family="Helvetica,sans-Serif" font-size="10.00" fill="#ffffff">SimpleGUICS2Pygame.</text>
<text text-anchor="middle" x="668.388" y="-543.719" font-family="Helvetica,sans-Serif" font-size="10.00" fill="#ffffff">simpleguics2pygame.</text>
<text text-anchor="middle" x="668.388" y="-532.719" font-family="Helvetica,sans-Serif" font-size="10.00" fill="#ffffff">_fonts</text>
</g>
<!-- SimpleGUICS2Pygame_simpleguics2pygame__pygame_init&#45;&gt;SimpleGUICS2Pygame_simpleguics2pygame__fonts -->
<g id="edge26" class="edge"><title>SimpleGUICS2Pygame_simpleguics2pygame__pygame_init&#45;&gt;SimpleGUICS2Pygame_simpleguics2pygame__fonts</title><style>.edge>path:hover{stroke-width:8}</style>
<path fill="none" stroke="black" d="M766.142,-613.823C750.191,-602.955 731.399,-590.151 714.575,-578.688"/>
<polygon fill="#d10505" stroke="black" points="716.217,-575.572 705.982,-572.834 712.275,-581.357 716.217,-575.572"/>
</g>
<!-- SimpleGUICS2Pygame_simpleguics2pygame__colors -->
<g id="node12" class="node"><title>SimpleGUICS2Pygame_simpleguics2pygame__colors</title><style>.edge>path:hover{stroke-width:8}</style>
<ellipse fill="#bf2121" stroke="black" cx="436.388" cy="-546.219" rx="88.2768" ry="28.9828"/>
<text text-anchor="middle" x="436.388" y="-554.719" font-family="Helvetica,sans-Serif" font-size="10.00" fill="#ffffff">SimpleGUICS2Pygame.</text>
<text text-anchor="middle" x="436.388" y="-543.719" font-family="Helvetica,sans-Serif" font-size="10.00" fill="#ffffff">simpleguics2pygame.</text>
<text text-anchor="middle" x="436.388" y="-532.719" font-family="Helvetica,sans-Serif" font-size="10.00" fill="#ffffff">_colors</text>
</g>
<!-- SimpleGUICS2Pygame_simpleguics2pygame__pygame_init&#45;&gt;SimpleGUICS2Pygame_simpleguics2pygame__colors -->
<g id="edge25" class="edge"><title>SimpleGUICS2Pygame_simpleguics2pygame__pygame_init&#45;&gt;SimpleGUICS2Pygame_simpleguics2pygame__colors</title><style>.edge>path:hover{stroke-width:8}</style>
<path fill="none" stroke="black" d="M732.66,-622.749C679.194,-610.161 604.04,-592.141 538.388,-575.21 529.926,-573.028 521.085,-570.69 512.299,-568.329"/>
<polygon fill="#d10505" stroke="black" points="512.992,-564.891 502.425,-565.661 511.166,-571.648 512.992,-564.891"/>
</g>
<!-- SimpleGUICS2Pygame_simpleguics2pygame__pygame_init&#45;&gt;SimpleGUICS2Pygame_simpleguics2pygame -->
<g id="edge24" class="edge"><title>SimpleGUICS2Pygame_simpleguics2pygame__pygame_init&#45;&gt;SimpleGUICS2Pygame_simpleguics2pygame</title><style>.edge>path:hover{stroke-width:8}</style>
<path fill="none" stroke="black" d="M784.388,-545.219C826.504,-439.001 951.032,-560.432 1033.39,-481.227 1073.21,-442.929 1018.03,-398.028 1057.39,-359.253"/>
</g>
<!-- SimpleGUICS2Pygame_simpleguics2pygame__media -->
<g id="node14" class="node"><title>SimpleGUICS2Pygame_simpleguics2pygame__media</title><style>.edge>path:hover{stroke-width:8}</style>
<ellipse fill="#b62020" stroke="black" cx="1095.39" cy="-546.219" rx="88.2768" ry="28.9828"/>
<text text-anchor="middle" x="1095.39" y="-554.719" font-family="Helvetica,sans-Serif" font-size="10.00" fill="#ffffff">SimpleGUICS2Pygame.</text>
<text text-anchor="middle" x="1095.39" y="-543.719" font-family="Helvetica,sans-Serif" font-size="10.00" fill="#ffffff">simpleguics2pygame.</text>
<text text-anchor="middle" x="1095.39" y="-532.719" font-family="Helvetica,sans-Serif" font-size="10.00" fill="#ffffff">_media</text>
</g>
<!-- SimpleGUICS2Pygame_simpleguics2pygame__pygame_init&#45;&gt;SimpleGUICS2Pygame_simpleguics2pygame__media -->
<g id="edge28" class="edge"><title>SimpleGUICS2Pygame_simpleguics2pygame__pygame_init&#45;&gt;SimpleGUICS2Pygame_simpleguics2pygame__media</title><style>.edge>path:hover{stroke-width:8}</style>
<path fill="none" stroke="black" d="M865.672,-619.582C911.819,-605.045 974.821,-585.199 1023.17,-569.967"/>
<polygon fill="#d10505" stroke="black" points="1024.46,-573.231 1032.95,-566.888 1022.36,-566.554 1024.46,-573.231"/>
</g>
<!-- SimpleGUICS2Pygame_simpleguics2pygame__pygame_init&#45;&gt;SimpleGUICS2Pygame_simpleguics2pygame_frame -->
<g id="edge31" class="edge"><title>SimpleGUICS2Pygame_simpleguics2pygame__pygame_init&#45;&gt;SimpleGUICS2Pygame_simpleguics2pygame_frame</title><style>.edge>path:hover{stroke-width:8}</style>
<path fill="none" stroke="black" d="M789.624,-611.544C782.279,-592.91 776.267,-568.03 784.388,-547.219"/>
<path fill="none" stroke="black" d="M784.388,-545.219C791.9,-525.97 801.61,-370.671 784.388,-359.253"/>
</g>
<!-- SimpleGUICS2Pygame_simpleplot -->
<g id="node4" class="node"><title>SimpleGUICS2Pygame_simpleplot</title><style>.edge>path:hover{stroke-width:8}</style>
<ellipse fill="#ac4949" stroke="black" cx="919.388" cy="-726.406" rx="88.2768" ry="21.4286"/>
<text text-anchor="middle" x="919.388" y="-729.406" font-family="Helvetica,sans-Serif" font-size="10.00" fill="#ffffff">SimpleGUICS2Pygame.</text>
<text text-anchor="middle" x="919.388" y="-718.406" font-family="Helvetica,sans-Serif" font-size="10.00" fill="#ffffff">simpleplot</text>
</g>
<!-- SimpleGUICS2Pygame_simpleguics2pygame_sound -->
<g id="node5" class="node"><title>SimpleGUICS2Pygame_simpleguics2pygame_sound</title><style>.edge>path:hover{stroke-width:8}</style>
<ellipse fill="#a83838" stroke="black" cx="1211.39" cy="-452.236" rx="88.2768" ry="28.9828"/>
<text text-anchor="middle" x="1211.39" y="-460.736" font-family="Helvetica,sans-Serif" font-size="10.00" fill="#ffffff">SimpleGUICS2Pygame.</text>
<text text-anchor="middle" x="1211.39" y="-449.736" font-family="Helvetica,sans-Serif" font-size="10.00" fill="#ffffff">simpleguics2pygame.</text>
<text text-anchor="middle" x="1211.39" y="-438.736" font-family="Helvetica,sans-Serif" font-size="10.00" fill="#ffffff">sound</text>
</g>
<!-- SimpleGUICS2Pygame_simpleguics2pygame_sound&#45;&gt;SimpleGUICS2Pygame_simpleguics2pygame -->
<g id="edge43" class="edge"><title>SimpleGUICS2Pygame_simpleguics2pygame_sound&#45;&gt;SimpleGUICS2Pygame_simpleguics2pygame</title><style>.edge>path:hover{stroke-width:8}</style>
<path fill="none" stroke="black" d="M1271.5,-430.962C1303.73,-416.026 1335.35,-392.498 1327.39,-359.253"/>
<path fill="none" stroke="black" d="M1327.39,-357.253C1308.83,-279.72 1230.08,-321.326 1173.39,-265.271"/>
</g>
<!-- SimpleGUICS2Pygame_simpleguics2pygame__joypads&#45;&gt;SimpleGUICS2Pygame_simpleguics2pygame_frame -->
<g id="edge20" class="edge"><title>SimpleGUICS2Pygame_simpleguics2pygame__joypads&#45;&gt;SimpleGUICS2Pygame_simpleguics2pygame_frame</title><style>.edge>path:hover{stroke-width:8}</style>
<path fill="none" stroke="black" d="M959.678,-524.441C1002.65,-506.508 1048.51,-479.43 1019.39,-453.236"/>
<path fill="none" stroke="black" d="M1019.39,-451.236C1007.62,-440.654 1010.46,-432.156 997.388,-423.245 915.71,-367.573 866.775,-413.872 784.388,-359.253"/>
</g>
<!-- SimpleGUICS2Pygame_simpleguics2pygame_image&#45;&gt;SimpleGUICS2Pygame_simpleguics2pygame_canvas -->
<g id="edge39" class="edge"><title>SimpleGUICS2Pygame_simpleguics2pygame_image&#45;&gt;SimpleGUICS2Pygame_simpleguics2pygame_canvas</title><style>.edge>path:hover{stroke-width:8}</style>
<path fill="none" stroke="black" d="M827.92,-435.629C806.26,-431.267 782.417,-426.763 760.388,-423.245 627.779,-402.064 592.997,-408.425 460.388,-387.245 441.716,-384.262 421.739,-380.572 402.894,-376.86"/>
<polygon fill="#bf2121" stroke="black" points="403.348,-373.381 392.857,-374.86 401.981,-380.247 403.348,-373.381"/>
</g>
<!-- SimpleGUICS2Pygame_simpleguics2pygame_image&#45;&gt;SimpleGUICS2Pygame_simpleguics2pygame -->
<g id="edge38" class="edge"><title>SimpleGUICS2Pygame_simpleguics2pygame_image&#45;&gt;SimpleGUICS2Pygame_simpleguics2pygame</title><style>.edge>path:hover{stroke-width:8}</style>
<path fill="none" stroke="black" d="M952.827,-428.717C985.63,-412.771 1027.23,-388.962 1057.39,-359.253"/>
<path fill="none" stroke="black" d="M1057.39,-357.253C1068.1,-346.701 1065.69,-339.824 1076.39,-329.262 1113.15,-292.983 1210.11,-301.584 1173.39,-265.271"/>
<path fill="none" stroke="black" d="M1173.39,-263.271C1131.22,-221.571 751.232,-194.701 569.884,-184.143"/>
<polygon fill="#bf2121" stroke="black" points="570,-180.644 559.815,-183.562 569.597,-187.632 570,-180.644"/>
</g>
<!-- SimpleGUICS2Pygame_simpleguics2pygame_image&#45;&gt;SimpleGUICS2Pygame_simpleguics2pygame_frame -->
<g id="edge40" class="edge"><title>SimpleGUICS2Pygame_simpleguics2pygame_image&#45;&gt;SimpleGUICS2Pygame_simpleguics2pygame_frame</title><style>.edge>path:hover{stroke-width:8}</style>
<path fill="none" stroke="black" d="M869.963,-424.757C847.171,-405.515 814.808,-379.42 784.388,-359.253"/>
</g>
<!-- SimpleGUICS2Pygame_simpleguics2pygame_canvas&#45;&gt;SimpleGUICS2Pygame_simpleguics2pygame -->
<g id="edge33" class="edge"><title>SimpleGUICS2Pygame_simpleguics2pygame_canvas&#45;&gt;SimpleGUICS2Pygame_simpleguics2pygame</title><style>.edge>path:hover{stroke-width:8}</style>
<path fill="none" stroke="black" d="M326.178,-329.309C331.567,-309.339 341.401,-282.974 358.388,-265.271"/>
</g>
<!-- SimpleGUICS2Pygame_simpleguics2pygame_canvas&#45;&gt;SimpleGUICS2Pygame_simpleguics2pygame_frame -->
<g id="edge34" class="edge"><title>SimpleGUICS2Pygame_simpleguics2pygame_canvas&#45;&gt;SimpleGUICS2Pygame_simpleguics2pygame_frame</title><style>.edge>path:hover{stroke-width:8}</style>
<path fill="none" stroke="black" d="M361.658,-332.604C380.905,-321.107 403.979,-307.325 424.225,-295.233"/>
<polygon fill="#9b2626" stroke="black" points="426.215,-298.121 433.005,-289.988 422.625,-292.111 426.215,-298.121"/>
</g>
<!-- SimpleGUICS2Pygame_simpleguics2pygame_timer -->
<g id="node10" class="node"><title>SimpleGUICS2Pygame_simpleguics2pygame_timer</title><style>.edge>path:hover{stroke-width:8}</style>
<ellipse fill="#bc2f2f" stroke="black" cx="1173.39" cy="-358.253" rx="88.2768" ry="28.9828"/>
<text text-anchor="middle" x="1173.39" y="-366.753" font-family="Helvetica,sans-Serif" font-size="10.00" fill="#ffffff">SimpleGUICS2Pygame.</text>
<text text-anchor="middle" x="1173.39" y="-355.753" font-family="Helvetica,sans-Serif" font-size="10.00" fill="#ffffff">simpleguics2pygame.</text>
<text text-anchor="middle" x="1173.39" y="-344.753" font-family="Helvetica,sans-Serif" font-size="10.00" fill="#ffffff">timer</text>
</g>
<!-- SimpleGUICS2Pygame_simpleguics2pygame_timer&#45;&gt;SimpleGUICS2Pygame_simpleguics2pygame -->
<g id="edge44" class="edge"><title>SimpleGUICS2Pygame_simpleguics2pygame_timer&#45;&gt;SimpleGUICS2Pygame_simpleguics2pygame</title><style>.edge>path:hover{stroke-width:8}</style>
<path fill="none" stroke="black" d="M1182.78,-329.125C1187.7,-308.522 1189.74,-281.439 1173.39,-265.271"/>
</g>
<!-- SimpleGUICS2Pygame_simpleguics2pygame_timer&#45;&gt;SimpleGUICS2Pygame_simpleguics2pygame_frame -->
<g id="edge45" class="edge"><title>SimpleGUICS2Pygame_simpleguics2pygame_timer&#45;&gt;SimpleGUICS2Pygame_simpleguics2pygame_frame</title><style>.edge>path:hover{stroke-width:8}</style>
<path fill="none" stroke="black" d="M1092.18,-346.567C960.916,-329.294 702.994,-295.353 565.598,-277.273"/>
<polygon fill="#bc2f2f" stroke="black" points="565.885,-273.781 555.513,-275.946 564.971,-280.721 565.885,-273.781"/>
</g>
<!-- SimpleGUICS2Pygame_simpleguics2pygame__fonts&#45;&gt;SimpleGUICS2Pygame_simpleguics2pygame_control -->
<g id="edge18" class="edge"><title>SimpleGUICS2Pygame_simpleguics2pygame__fonts&#45;&gt;SimpleGUICS2Pygame_simpleguics2pygame_control</title><style>.edge>path:hover{stroke-width:8}</style>
<path fill="none" stroke="black" d="M635.458,-519.106C622.355,-508.717 607.14,-496.651 593.338,-485.707"/>
<polygon fill="#b62020" stroke="black" points="595.412,-482.885 585.401,-479.414 591.062,-488.37 595.412,-482.885"/>
</g>
<!-- SimpleGUICS2Pygame_simpleguics2pygame__fonts&#45;&gt;SimpleGUICS2Pygame_simpleguics2pygame_canvas -->
<g id="edge17" class="edge"><title>SimpleGUICS2Pygame_simpleguics2pygame__fonts&#45;&gt;SimpleGUICS2Pygame_simpleguics2pygame_canvas</title><style>.edge>path:hover{stroke-width:8}</style>
<path fill="none" stroke="black" d="M709.682,-520.394C731.323,-503.858 752.243,-480.247 746.388,-453.236"/>
<path fill="none" stroke="black" d="M746.388,-451.236C741.753,-429.85 558.52,-406.4 460.388,-387.245 442.242,-383.702 422.784,-379.848 404.319,-376.164"/>
<polygon fill="#b62020" stroke="black" points="404.965,-372.724 394.474,-374.197 403.594,-379.588 404.965,-372.724"/>
</g>
<!-- SimpleGUICS2Pygame_simpleguics2pygame__fonts&#45;&gt;SimpleGUICS2Pygame_simpleguics2pygame_frame -->
<g id="edge19" class="edge"><title>SimpleGUICS2Pygame_simpleguics2pygame__fonts&#45;&gt;SimpleGUICS2Pygame_simpleguics2pygame_frame</title><style>.edge>path:hover{stroke-width:8}</style>
<path fill="none" stroke="black" d="M746.388,-451.236C737.018,-408.008 821.255,-383.694 784.388,-359.253"/>
<path fill="none" stroke="black" d="M784.388,-357.253C718.186,-313.365 630.47,-289.892 565.242,-277.675"/>
<polygon fill="#b62020" stroke="black" points="565.845,-274.227 555.38,-275.881 564.592,-281.114 565.845,-274.227"/>
</g>
<!-- SimpleGUICS2Pygame_simpleguics2pygame__colors&#45;&gt;SimpleGUICS2Pygame_simpleguics2pygame_control -->
<g id="edge15" class="edge"><title>SimpleGUICS2Pygame_simpleguics2pygame__colors&#45;&gt;SimpleGUICS2Pygame_simpleguics2pygame_control</title><style>.edge>path:hover{stroke-width:8}</style>
<path fill="none" stroke="black" d="M469.319,-519.106C482.421,-508.717 497.637,-496.651 511.439,-485.707"/>
<polygon fill="#bf2121" stroke="black" points="513.714,-488.37 519.375,-479.414 509.365,-482.885 513.714,-488.37"/>
</g>
<!-- SimpleGUICS2Pygame_simpleguics2pygame__colors&#45;&gt;SimpleGUICS2Pygame_simpleguics2pygame_canvas -->
<g id="edge14" class="edge"><title>SimpleGUICS2Pygame_simpleguics2pygame__colors&#45;&gt;SimpleGUICS2Pygame_simpleguics2pygame_canvas</title><style>.edge>path:hover{stroke-width:8}</style>
<path fill="none" stroke="black" d="M440.332,-516.897C441.951,-498.421 442.273,-473.976 436.388,-453.236"/>
<path fill="none" stroke="black" d="M436.388,-451.236C428.453,-423.269 404.885,-402.059 381.047,-387.094"/>
<polygon fill="#bf2121" stroke="black" points="382.662,-383.982 372.281,-381.863 379.074,-389.993 382.662,-383.982"/>
</g>
<!-- SimpleGUICS2Pygame_simpleguics2pygame__colors&#45;&gt;SimpleGUICS2Pygame_simpleguics2pygame_frame -->
<g id="edge16" class="edge"><title>SimpleGUICS2Pygame_simpleguics2pygame__colors&#45;&gt;SimpleGUICS2Pygame_simpleguics2pygame_frame</title><style>.edge>path:hover{stroke-width:8}</style>
<path fill="none" stroke="black" d="M436.388,-451.236C421.98,-400.455 440.481,-340.412 456.349,-302.581"/>
<polygon fill="#bf2121" stroke="black" points="459.739,-303.56 460.514,-292.994 453.319,-300.771 459.739,-303.56"/>
</g>
<!-- SimpleGUICS2Pygame_simpleguics2pygame&#45;&gt;SimpleGUICS2Pygame_simplegui_lib_fps -->
<g id="edge5" class="edge"><title>SimpleGUICS2Pygame_simpleguics2pygame&#45;&gt;SimpleGUICS2Pygame_simplegui_lib_fps</title><style>.edge>path:hover{stroke-width:8}</style>
<path fill="none" stroke="black" d="M474.388,-156.585C474.388,-148.726 474.388,-139.582 474.388,-130.992"/>
<polygon fill="#950303" stroke="black" points="477.888,-130.912 474.388,-120.912 470.888,-130.912 477.888,-130.912"/>
</g>
<!-- SimpleGUICS2Pygame_simplegui_lib_keys -->
<g id="node15" class="node"><title>SimpleGUICS2Pygame_simplegui_lib_keys</title><style>.edge>path:hover{stroke-width:8}</style>
<ellipse fill="#b83d3d" stroke="black" cx="864.388" cy="-99.6396" rx="88.2768" ry="21.4286"/>
<text text-anchor="middle" x="864.388" y="-102.64" font-family="Helvetica,sans-Serif" font-size="10.00" fill="#ffffff">SimpleGUICS2Pygame.</text>
<text text-anchor="middle" x="864.388" y="-91.6396" font-family="Helvetica,sans-Serif" font-size="10.00" fill="#ffffff">simplegui_lib_keys</text>
</g>
<!-- SimpleGUICS2Pygame_simpleguics2pygame&#45;&gt;SimpleGUICS2Pygame_simplegui_lib_keys -->
<g id="edge6" class="edge"><title>SimpleGUICS2Pygame_simpleguics2pygame&#45;&gt;SimpleGUICS2Pygame_simplegui_lib_keys</title><style>.edge>path:hover{stroke-width:8}</style>
<path fill="none" stroke="black" d="M541.997,-164.313C601.211,-153.081 689.559,-136.171 766.388,-120.853 773.935,-119.348 781.804,-117.759 789.659,-116.16"/>
<polygon fill="#950303" stroke="black" points="790.477,-119.565 799.574,-114.134 789.076,-112.707 790.477,-119.565"/>
</g>
<!-- SimpleGUICS2Pygame_simplegui_lib_loader -->
<g id="node19" class="node"><title>SimpleGUICS2Pygame_simplegui_lib_loader</title><style>.edge>path:hover{stroke-width:8}</style>
<ellipse fill="#b83d3d" stroke="black" cx="279.388" cy="-99.6396" rx="88.2768" ry="21.4286"/>
<text text-anchor="middle" x="279.388" y="-102.64" font-family="Helvetica,sans-Serif" font-size="10.00" fill="#ffffff">SimpleGUICS2Pygame.</text>
<text text-anchor="middle" x="279.388" y="-91.6396" font-family="Helvetica,sans-Serif" font-size="10.00" fill="#ffffff">simplegui_lib_loader</text>
</g>
<!-- SimpleGUICS2Pygame_simpleguics2pygame&#45;&gt;SimpleGUICS2Pygame_simplegui_lib_loader -->
<g id="edge7" class="edge"><title>SimpleGUICS2Pygame_simpleguics2pygame&#45;&gt;SimpleGUICS2Pygame_simplegui_lib_loader</title><style>.edge>path:hover{stroke-width:8}</style>
<path fill="none" stroke="black" d="M429.651,-159.532C401.039,-148.318 363.752,-133.704 333.479,-121.84"/>
<polygon fill="#950303" stroke="black" points="334.505,-118.482 323.917,-118.092 331.95,-125 334.505,-118.482"/>
</g>
<!-- SimpleGUICS2Pygame_simpleguics2pygame__media&#45;&gt;SimpleGUICS2Pygame_simpleguics2pygame_sound -->
<g id="edge23" class="edge"><title>SimpleGUICS2Pygame_simpleguics2pygame__media&#45;&gt;SimpleGUICS2Pygame_simpleguics2pygame_sound</title><style>.edge>path:hover{stroke-width:8}</style>
<path fill="none" stroke="black" d="M1128.32,-519.106C1141.42,-508.717 1156.64,-496.651 1170.44,-485.707"/>
<polygon fill="#b62020" stroke="black" points="1172.71,-488.37 1178.38,-479.414 1168.37,-482.885 1172.71,-488.37"/>
</g>
<!-- SimpleGUICS2Pygame_simpleguics2pygame__media&#45;&gt;SimpleGUICS2Pygame_simpleguics2pygame_image -->
<g id="edge22" class="edge"><title>SimpleGUICS2Pygame_simpleguics2pygame__media&#45;&gt;SimpleGUICS2Pygame_simpleguics2pygame_image</title><style>.edge>path:hover{stroke-width:8}</style>
<path fill="none" stroke="black" d="M1046.18,-522.008C1019.62,-509.48 986.669,-493.935 958.814,-480.796"/>
<polygon fill="#b62020" stroke="black" points="960.117,-477.541 949.579,-476.44 957.13,-483.872 960.117,-477.541"/>
</g>
<!-- SimpleGUICS2Pygame_simpleguics2pygame__media&#45;&gt;SimpleGUICS2Pygame_simpleguics2pygame_frame -->
<g id="edge21" class="edge"><title>SimpleGUICS2Pygame_simpleguics2pygame__media&#45;&gt;SimpleGUICS2Pygame_simpleguics2pygame_frame</title><style>.edge>path:hover{stroke-width:8}</style>
<path fill="none" stroke="black" d="M1076,-517.623C1061.66,-498.322 1040.95,-472.631 1019.39,-453.236"/>
</g>
<!-- SimpleGUICS2Pygame_simplegui_lib_keys&#45;&gt;SimpleGUICS2Pygame_simplegui_lib -->
<g id="edge3" class="edge"><title>SimpleGUICS2Pygame_simplegui_lib_keys&#45;&gt;SimpleGUICS2Pygame_simplegui_lib</title><style>.edge>path:hover{stroke-width:8}</style>
<path fill="none" stroke="black" d="M806.501,-83.5402C758.344,-70.979 689.726,-53.0805 639.042,-39.86"/>
<polygon fill="#b83d3d" stroke="black" points="639.715,-36.4186 629.155,-37.2812 637.948,-43.192 639.715,-36.4186"/>
</g>
<!-- SimpleGUICS2Pygame_simpleguics2pygame__arguments -->
<g id="node16" class="node"><title>SimpleGUICS2Pygame_simpleguics2pygame__arguments</title><style>.edge>path:hover{stroke-width:8}</style>
<ellipse fill="#f90606" stroke="black" cx="1095.39" cy="-640.202" rx="88.2768" ry="28.9828"/>
<text text-anchor="middle" x="1095.39" y="-648.702" font-family="Helvetica,sans-Serif" font-size="10.00" fill="#ffffff">SimpleGUICS2Pygame.</text>
<text text-anchor="middle" x="1095.39" y="-637.702" font-family="Helvetica,sans-Serif" font-size="10.00" fill="#ffffff">simpleguics2pygame.</text>
<text text-anchor="middle" x="1095.39" y="-626.702" font-family="Helvetica,sans-Serif" font-size="10.00" fill="#ffffff">_arguments</text>
</g>
<!-- SimpleGUICS2Pygame_simpleguics2pygame__arguments&#45;&gt;SimpleGUICS2Pygame_simpleguics2pygame_sound -->
<g id="edge12" class="edge"><title>SimpleGUICS2Pygame_simpleguics2pygame__arguments&#45;&gt;SimpleGUICS2Pygame_simpleguics2pygame_sound</title><style>.edge>path:hover{stroke-width:8}</style>
<path fill="none" stroke="black" d="M1211.39,-545.219C1215.05,-527.918 1215.55,-508.373 1214.93,-491.762"/>
<polygon fill="#f90606" stroke="black" points="1218.4,-491.127 1214.38,-481.324 1211.41,-491.493 1218.4,-491.127"/>
</g>
<!-- SimpleGUICS2Pygame_simpleguics2pygame__arguments&#45;&gt;SimpleGUICS2Pygame_simpleguics2pygame_timer -->
<g id="edge13" class="edge"><title>SimpleGUICS2Pygame_simpleguics2pygame__arguments&#45;&gt;SimpleGUICS2Pygame_simpleguics2pygame_timer</title><style>.edge>path:hover{stroke-width:8}</style>
<path fill="none" stroke="black" d="M1211.39,-545.219C1214.51,-530.51 1203.86,-526.953 1192.39,-517.227 1163.27,-492.531 1134.97,-513.389 1114.39,-481.227 1100.5,-459.52 1105.01,-447.248 1114.39,-423.245 1118.77,-412.029 1126.14,-401.595 1134.21,-392.543"/>
<polygon fill="#f90606" stroke="black" points="1136.77,-394.94 1141.11,-385.278 1131.69,-390.12 1136.77,-394.94"/>
</g>
<!-- SimpleGUICS2Pygame_simpleguics2pygame__arguments&#45;&gt;SimpleGUICS2Pygame_simpleguics2pygame__fonts -->
<g id="edge9" class="edge"><title>SimpleGUICS2Pygame_simpleguics2pygame__arguments&#45;&gt;SimpleGUICS2Pygame_simpleguics2pygame__fonts</title><style>.edge>path:hover{stroke-width:8}</style>
<path fill="none" stroke="black" d="M1020.96,-624.524C999.178,-620.231 975.33,-615.531 953.388,-611.21 872.058,-595.195 851.078,-594.191 770.388,-575.21 761.593,-573.141 752.411,-570.834 743.315,-568.455"/>
<polygon fill="#f90606" stroke="black" points="744.065,-565.033 733.502,-565.855 742.272,-571.8 744.065,-565.033"/>
</g>
<!-- SimpleGUICS2Pygame_simpleguics2pygame__arguments&#45;&gt;SimpleGUICS2Pygame_simpleguics2pygame -->
<g id="edge8" class="edge"><title>SimpleGUICS2Pygame_simpleguics2pygame__arguments&#45;&gt;SimpleGUICS2Pygame_simpleguics2pygame</title><style>.edge>path:hover{stroke-width:8}</style>
<path fill="none" stroke="black" d="M1211.39,-545.219C1222.91,-494.872 1280.47,-524.679 1308.39,-481.227 1338.04,-435.069 1340.16,-412.61 1327.39,-359.253"/>
</g>
<!-- SimpleGUICS2Pygame_simpleguics2pygame__arguments&#45;&gt;SimpleGUICS2Pygame_simpleguics2pygame__media -->
<g id="edge10" class="edge"><title>SimpleGUICS2Pygame_simpleguics2pygame__arguments&#45;&gt;SimpleGUICS2Pygame_simpleguics2pygame__media</title><style>.edge>path:hover{stroke-width:8}</style>
<path fill="none" stroke="black" d="M1095.39,-611.104C1095.39,-603.066 1095.39,-594.164 1095.39,-585.621"/>
<polygon fill="#f90606" stroke="black" points="1098.89,-585.461 1095.39,-575.461 1091.89,-585.461 1098.89,-585.461"/>
</g>
<!-- SimpleGUICS2Pygame_simpleguics2pygame__arguments&#45;&gt;SimpleGUICS2Pygame_simpleguics2pygame_frame -->
<g id="edge11" class="edge"><title>SimpleGUICS2Pygame_simpleguics2pygame__arguments&#45;&gt;SimpleGUICS2Pygame_simpleguics2pygame_frame</title><style>.edge>path:hover{stroke-width:8}</style>
<path fill="none" stroke="black" d="M1148.52,-616.91C1175.5,-601.925 1204.11,-579.038 1211.39,-547.219"/>
<path fill="none" stroke="black" d="M1211.39,-545.219C1214.74,-530.562 1204.23,-526.498 1192.39,-517.227 1127.84,-466.681 1080.34,-508.061 1019.39,-453.236"/>
</g>
<!-- SimpleGUICS2Pygame_simplegui_lib_draw -->
<g id="node17" class="node"><title>SimpleGUICS2Pygame_simplegui_lib_draw</title><style>.edge>path:hover{stroke-width:8}</style>
<ellipse fill="#c04040" stroke="black" cx="669.388" cy="-99.6396" rx="88.2768" ry="21.4286"/>
<text text-anchor="middle" x="669.388" y="-102.64" font-family="Helvetica,sans-Serif" font-size="10.00" fill="#ffffff">SimpleGUICS2Pygame.</text>
<text text-anchor="middle" x="669.388" y="-91.6396" font-family="Helvetica,sans-Serif" font-size="10.00" fill="#ffffff">simplegui_lib_draw</text>
</g>
<!-- SimpleGUICS2Pygame_simplegui_lib_draw&#45;&gt;SimpleGUICS2Pygame_simplegui_lib -->
<g id="edge1" class="edge"><title>SimpleGUICS2Pygame_simplegui_lib_draw&#45;&gt;SimpleGUICS2Pygame_simplegui_lib</title><style>.edge>path:hover{stroke-width:8}</style>
<path fill="none" stroke="black" d="M644.405,-79.1563C632.195,-69.634 617.342,-58.0504 604.227,-47.8231"/>
<polygon fill="#c04040" stroke="black" points="606.364,-45.0507 596.326,-41.661 602.059,-50.5706 606.364,-45.0507"/>
</g>
<!-- SimpleGUICS2Pygame_simpleguics2pygame_keys -->
<g id="node18" class="node"><title>SimpleGUICS2Pygame_simpleguics2pygame_keys</title><style>.edge>path:hover{stroke-width:8}</style>
<ellipse fill="#ce3b3b" stroke="black" cx="88.3883" cy="-358.253" rx="88.2768" ry="28.9828"/>
<text text-anchor="middle" x="88.3883" y="-366.753" font-family="Helvetica,sans-Serif" font-size="10.00" fill="#ffffff">SimpleGUICS2Pygame.</text>
<text text-anchor="middle" x="88.3883" y="-355.753" font-family="Helvetica,sans-Serif" font-size="10.00" fill="#ffffff">simpleguics2pygame.</text>
<text text-anchor="middle" x="88.3883" y="-344.753" font-family="Helvetica,sans-Serif" font-size="10.00" fill="#ffffff">keys</text>
</g>
<!-- SimpleGUICS2Pygame_simpleguics2pygame_keys&#45;&gt;SimpleGUICS2Pygame_simpleguics2pygame -->
<g id="edge41" class="edge"><title>SimpleGUICS2Pygame_simpleguics2pygame_keys&#45;&gt;SimpleGUICS2Pygame_simpleguics2pygame</title><style>.edge>path:hover{stroke-width:8}</style>
<path fill="none" stroke="black" d="M153.402,-338.52C228.523,-316.35 343.752,-280.523 358.388,-265.271"/>
<path fill="none" stroke="black" d="M358.388,-263.271C368.799,-252.422 366.385,-245.526 377.388,-235.279 391.449,-222.184 409.09,-210.83 425.459,-201.82"/>
<polygon fill="#ce3b3b" stroke="black" points="427.212,-204.852 434.391,-197.06 423.92,-198.675 427.212,-204.852"/>
</g>
<!-- SimpleGUICS2Pygame_simpleguics2pygame_keys&#45;&gt;SimpleGUICS2Pygame_simpleguics2pygame_frame -->
<g id="edge42" class="edge"><title>SimpleGUICS2Pygame_simpleguics2pygame_keys&#45;&gt;SimpleGUICS2Pygame_simpleguics2pygame_frame</title><style>.edge>path:hover{stroke-width:8}</style>
<path fill="none" stroke="black" d="M153.504,-338.627C165.72,-335.348 178.413,-332.085 190.388,-329.262 270.644,-310.339 292.133,-312.185 372.388,-293.262 381.182,-291.188 390.364,-288.878 399.459,-286.498"/>
<polygon fill="#ce3b3b" stroke="black" points="400.503,-289.842 409.272,-283.897 398.709,-283.076 400.503,-289.842"/>
</g>
<!-- SimpleGUICS2Pygame_simplegui_lib_loader&#45;&gt;SimpleGUICS2Pygame_simplegui_lib -->
<g id="edge4" class="edge"><title>SimpleGUICS2Pygame_simplegui_lib_loader&#45;&gt;SimpleGUICS2Pygame_simplegui_lib</title><style>.edge>path:hover{stroke-width:8}</style>
<path fill="none" stroke="black" d="M337.078,-83.5402C384.992,-70.9994 453.233,-53.1386 503.72,-39.9244"/>
<polygon fill="#b83d3d" stroke="black" points="504.781,-43.2646 513.569,-37.3465 503.009,-36.4927 504.781,-43.2646"/>
</g>
<!-- SimpleGUICS2Pygame_simpleguics2pygame_frame&#45;&gt;SimpleGUICS2Pygame_simpleguics2pygame -->
<g id="edge37" class="edge"><title>SimpleGUICS2Pygame_simpleguics2pygame_frame&#45;&gt;SimpleGUICS2Pygame_simpleguics2pygame</title><style>.edge>path:hover{stroke-width:8}</style>
<path fill="none" stroke="black" d="M474.388,-235.232C474.388,-227.024 474.388,-218.01 474.388,-209.653"/>
<polygon fill="#732626" stroke="black" points="477.888,-209.527 474.388,-199.527 470.888,-209.527 477.888,-209.527"/>
</g>
<!-- matplotlib -->
<g id="node21" class="node"><title>matplotlib</title><style>.edge>path:hover{stroke-width:8}</style>
<polygon fill="#33cc33" stroke="black" points="948.888,-856.619 945.888,-860.619 924.888,-860.619 921.888,-856.619 889.888,-856.619 889.888,-820.619 948.888,-820.619 948.888,-856.619"/>
<text text-anchor="middle" x="919.388" y="-836.119" font-family="Helvetica,sans-Serif" font-size="10.00" fill="#000000">matplotlib</text>
</g>
<!-- matplotlib&#45;&gt;SimpleGUICS2Pygame_simpleplot -->
<g id="edge46" class="edge"><title>matplotlib&#45;&gt;SimpleGUICS2Pygame_simpleplot</title><style>.edge>path:hover{stroke-width:8}</style>
<path fill="none" stroke="black" d="M919.388,-820.399C919.388,-803.771 919.388,-778.225 919.388,-758.112"/>
<polygon fill="#33cc33" stroke="black" points="922.888,-757.878 919.388,-747.878 915.888,-757.878 922.888,-757.878"/>
</g>
<!-- pygame -->
<g id="node22" class="node"><title>pygame</title><style>.edge>path:hover{stroke-width:8}</style>
<polygon fill="#4747c2" stroke="black" points="830.388,-856.619 827.388,-860.619 806.388,-860.619 803.388,-856.619 776.388,-856.619 776.388,-820.619 830.388,-820.619 830.388,-856.619"/>
<text text-anchor="middle" x="803.388" y="-836.119" font-family="Helvetica,sans-Serif" font-size="10.00" fill="#ffffff">pygame</text>
</g>
<!-- pygame&#45;&gt;SimpleGUICS2Pygame_simpleguics2pygame_control -->
<g id="edge53" class="edge"><title>pygame&#45;&gt;SimpleGUICS2Pygame_simpleguics2pygame_control</title><style>.edge>path:hover{stroke-width:8}</style>
<path fill="none" stroke="black" d="M552.388,-639.202C519.583,-614.808 570.684,-583.778 552.388,-547.219"/>
<path fill="none" stroke="black" d="M552.388,-545.219C544.221,-528.899 543.345,-508.819 544.879,-491.589"/>
<polygon fill="#4747c2" stroke="black" points="548.399,-491.63 546.102,-481.288 541.448,-490.805 548.399,-491.63"/>
</g>
<!-- pygame&#45;&gt;SimpleGUICS2Pygame_simpleguics2pygame__pygame_init -->
<g id="edge51" class="edge"><title>pygame&#45;&gt;SimpleGUICS2Pygame_simpleguics2pygame__pygame_init</title><style>.edge>path:hover{stroke-width:8}</style>
<path fill="none" stroke="black" d="M803.388,-725.406C800.237,-710.562 799.641,-693.911 800.047,-679.36"/>
<polygon fill="#4747c2" stroke="black" points="803.551,-679.336 800.497,-669.191 796.558,-679.026 803.551,-679.336"/>
</g>
<!-- pygame&#45;&gt;SimpleGUICS2Pygame_simpleguics2pygame__joypads -->
<g id="edge49" class="edge"><title>pygame&#45;&gt;SimpleGUICS2Pygame_simpleguics2pygame__joypads</title><style>.edge>path:hover{stroke-width:8}</style>
<path fill="none" stroke="black" d="M803.388,-725.406C800.828,-713.346 812.385,-712.401 822.388,-705.193 853.366,-682.873 867.397,-688.411 900.388,-669.193 918.824,-658.454 924.364,-656.35 939.388,-641.202"/>
<path fill="none" stroke="black" d="M939.388,-639.202C954.817,-623.647 945.526,-601.049 932.154,-582.145"/>
<polygon fill="#4747c2" stroke="black" points="934.84,-579.894 926.016,-574.03 929.257,-584.117 934.84,-579.894"/>
</g>
<!-- pygame&#45;&gt;SimpleGUICS2Pygame_simpleguics2pygame_canvas -->
<g id="edge52" class="edge"><title>pygame&#45;&gt;SimpleGUICS2Pygame_simpleguics2pygame_canvas</title><style>.edge>path:hover{stroke-width:8}</style>
<path fill="none" stroke="black" d="M805.556,-820.587C807.846,-798.735 810.263,-759.787 803.388,-727.406"/>
<path fill="none" stroke="black" d="M803.388,-725.406C789.186,-668.313 599.599,-676.307 552.388,-641.202"/>
<path fill="none" stroke="black" d="M282.388,-451.236C280.378,-432.132 287.281,-412.272 295.735,-395.917"/>
<polygon fill="#4747c2" stroke="black" points="299.044,-397.166 300.836,-386.724 292.923,-393.77 299.044,-397.166"/>
</g>
<!-- pygame&#45;&gt;SimpleGUICS2Pygame_simpleguics2pygame__fonts -->
<g id="edge48" class="edge"><title>pygame&#45;&gt;SimpleGUICS2Pygame_simpleguics2pygame__fonts</title><style>.edge>path:hover{stroke-width:8}</style>
<path fill="none" stroke="black" d="M552.388,-639.202C523.051,-617.387 562.128,-591.416 602.65,-572.643"/>
<polygon fill="#4747c2" stroke="black" points="604.154,-575.804 611.84,-568.512 601.284,-569.42 604.154,-575.804"/>
</g>
<!-- pygame&#45;&gt;SimpleGUICS2Pygame_simpleguics2pygame__colors -->
<g id="edge47" class="edge"><title>pygame&#45;&gt;SimpleGUICS2Pygame_simpleguics2pygame__colors</title><style>.edge>path:hover{stroke-width:8}</style>
<path fill="none" stroke="black" d="M552.388,-639.202C526.672,-620.079 498.488,-597.763 476.341,-579.901"/>
<polygon fill="#4747c2" stroke="black" points="478.446,-577.103 468.47,-573.536 474.045,-582.546 478.446,-577.103"/>
</g>
<!-- pygame&#45;&gt;SimpleGUICS2Pygame_simpleguics2pygame__media -->
<g id="edge50" class="edge"><title>pygame&#45;&gt;SimpleGUICS2Pygame_simpleguics2pygame__media</title><style>.edge>path:hover{stroke-width:8}</style>
<path fill="none" stroke="black" d="M939.388,-639.202C966.392,-611.977 1003.07,-589.815 1034.08,-574.072"/>
<polygon fill="#4747c2" stroke="black" points="1035.69,-577.183 1043.08,-569.598 1032.57,-570.914 1035.69,-577.183"/>
</g>
<!-- pygame&#45;&gt;SimpleGUICS2Pygame_simpleguics2pygame_frame -->
<g id="edge54" class="edge"><title>pygame&#45;&gt;SimpleGUICS2Pygame_simpleguics2pygame_frame</title><style>.edge>path:hover{stroke-width:8}</style>
<path fill="none" stroke="black" d="M552.388,-639.202C461.733,-571.791 383.831,-657.462 306.388,-575.21 268.514,-534.984 288.17,-508.183 282.388,-453.236"/>
<path fill="none" stroke="black" d="M282.388,-451.236C275.907,-413.099 237.464,-423.277 223.388,-387.245 214.011,-363.241 207.449,-349.511 223.388,-329.262 265.527,-275.73 306.42,-310.279 372.388,-293.262 380.85,-291.079 389.691,-288.741 398.477,-286.38"/>
<polygon fill="#4747c2" stroke="black" points="399.61,-289.699 408.351,-283.712 397.784,-282.941 399.61,-289.699"/>
</g>
</g>
</svg>
