<?xml version="1.0" encoding="UTF-8" standalone="no"?>
<!DOCTYPE svg PUBLIC "-//W3C//DTD SVG 1.1//EN"
 "http://www.w3.org/Graphics/SVG/1.1/DTD/svg11.dtd">
<!-- Generated by graphviz version 2.38.0 (20140413.2041)
 -->
<!-- Title: G Pages: 1 -->
<svg width="1179pt" height="520pt"
 viewBox="0.00 0.00 1178.71 520.34" xmlns="http://www.w3.org/2000/svg" xmlns:xlink="http://www.w3.org/1999/xlink">
<g id="graph0" class="graph" transform="scale(1 1) rotate(0) translate(4 516.34)">
<title>G</title><style>.edge>path:hover{stroke-width:8}</style>
<polygon fill="white" stroke="none" points="-4,4 -4,-516.34 1174.71,-516.34 1174.71,4 -4,4"/>
<!-- SimpleGUICS2Pygame_simpleguics2pygame_keys -->
<g id="node1" class="node"><title>SimpleGUICS2Pygame_simpleguics2pygame_keys</title><style>.edge>path:hover{stroke-width:8}</style>
<ellipse fill="#b83d3d" stroke="black" cx="116.812" cy="-389.366" rx="88.2768" ry="28.9828"/>
<text text-anchor="middle" x="116.812" y="-397.866" font-family="Helvetica,sans-Serif" font-size="10.00" fill="#ffffff">SimpleGUICS2Pygame.</text>
<text text-anchor="middle" x="116.812" y="-386.866" font-family="Helvetica,sans-Serif" font-size="10.00" fill="#ffffff">simpleguics2pygame.</text>
<text text-anchor="middle" x="116.812" y="-375.866" font-family="Helvetica,sans-Serif" font-size="10.00" fill="#ffffff">keys</text>
</g>
<!-- SimpleGUICS2Pygame_simpleguics2pygame -->
<g id="node2" class="node"><title>SimpleGUICS2Pygame_simpleguics2pygame</title><style>.edge>path:hover{stroke-width:8}</style>
<ellipse fill="#9f0404" stroke="black" cx="235.812" cy="-21.2132" rx="88.2768" ry="21.4286"/>
<text text-anchor="middle" x="235.812" y="-24.2132" font-family="Helvetica,sans-Serif" font-size="10.00" fill="#ffffff">SimpleGUICS2Pygame.</text>
<text text-anchor="middle" x="235.812" y="-13.2132" font-family="Helvetica,sans-Serif" font-size="10.00" fill="#ffffff">simpleguics2pygame</text>
</g>
<!-- SimpleGUICS2Pygame_simpleguics2pygame_keys&#45;&gt;SimpleGUICS2Pygame_simpleguics2pygame -->
<g id="edge35" class="edge"><title>SimpleGUICS2Pygame_simpleguics2pygame_keys&#45;&gt;SimpleGUICS2Pygame_simpleguics2pygame</title><style>.edge>path:hover{stroke-width:8}</style>
<path fill="none" stroke="black" d="M112.854,-360.305C108.625,-323.321 104.432,-256.607 119.812,-202.401"/>
<path fill="none" stroke="black" d="M119.812,-200.401C133.038,-161.718 106.402,-147.037 119.812,-108.418"/>
</g>
<!-- SimpleGUICS2Pygame_simpleguics2pygame_frame -->
<g id="node11" class="node"><title>SimpleGUICS2Pygame_simpleguics2pygame_frame</title><style>.edge>path:hover{stroke-width:8}</style>
<ellipse fill="#6b2e2e" stroke="black" cx="235.812" cy="-107.418" rx="88.2768" ry="28.9828"/>
<text text-anchor="middle" x="235.812" y="-115.918" font-family="Helvetica,sans-Serif" font-size="10.00" fill="#ffffff">SimpleGUICS2Pygame.</text>
<text text-anchor="middle" x="235.812" y="-104.918" font-family="Helvetica,sans-Serif" font-size="10.00" fill="#ffffff">simpleguics2pygame.</text>
<text text-anchor="middle" x="235.812" y="-93.9178" font-family="Helvetica,sans-Serif" font-size="10.00" fill="#ffffff">frame</text>
</g>
<!-- SimpleGUICS2Pygame_simpleguics2pygame_keys&#45;&gt;SimpleGUICS2Pygame_simpleguics2pygame_frame -->
<g id="edge36" class="edge"><title>SimpleGUICS2Pygame_simpleguics2pygame_keys&#45;&gt;SimpleGUICS2Pygame_simpleguics2pygame_frame</title><style>.edge>path:hover{stroke-width:8}</style>
<path fill="none" stroke="black" d="M119.812,-200.401C127.747,-172.433 151.315,-151.223 175.153,-136.259"/>
<polygon fill="#b83d3d" stroke="black" points="177.126,-139.157 183.919,-131.027 173.538,-133.146 177.126,-139.157"/>
</g>
<!-- SimpleGUICS2Pygame_simpleguics2pygame_control -->
<g id="node3" class="node"><title>SimpleGUICS2Pygame_simpleguics2pygame_control</title><style>.edge>path:hover{stroke-width:8}</style>
<ellipse fill="#a83838" stroke="black" cx="273.812" cy="-201.401" rx="88.2768" ry="28.9828"/>
<text text-anchor="middle" x="273.812" y="-209.901" font-family="Helvetica,sans-Serif" font-size="10.00" fill="#ffffff">SimpleGUICS2Pygame.</text>
<text text-anchor="middle" x="273.812" y="-198.901" font-family="Helvetica,sans-Serif" font-size="10.00" fill="#ffffff">simpleguics2pygame.</text>
<text text-anchor="middle" x="273.812" y="-187.901" font-family="Helvetica,sans-Serif" font-size="10.00" fill="#ffffff">control</text>
</g>
<!-- SimpleGUICS2Pygame_simpleguics2pygame_control&#45;&gt;SimpleGUICS2Pygame_simpleguics2pygame -->
<g id="edge29" class="edge"><title>SimpleGUICS2Pygame_simpleguics2pygame_control&#45;&gt;SimpleGUICS2Pygame_simpleguics2pygame</title><style>.edge>path:hover{stroke-width:8}</style>
<path fill="none" stroke="black" d="M198.307,-186.088C152.571,-173.084 105.562,-149.458 119.812,-108.418"/>
</g>
<!-- SimpleGUICS2Pygame_simpleguics2pygame_control&#45;&gt;SimpleGUICS2Pygame_simpleguics2pygame_frame -->
<g id="edge30" class="edge"><title>SimpleGUICS2Pygame_simpleguics2pygame_control&#45;&gt;SimpleGUICS2Pygame_simpleguics2pygame_frame</title><style>.edge>path:hover{stroke-width:8}</style>
<path fill="none" stroke="black" d="M262.204,-172.303C258.742,-163.922 254.892,-154.603 251.226,-145.73"/>
<polygon fill="#a83838" stroke="black" points="254.402,-144.249 247.348,-136.343 247.932,-146.922 254.402,-144.249"/>
</g>
<!-- SimpleGUICS2Pygame_simpleguics2pygame_image -->
<g id="node4" class="node"><title>SimpleGUICS2Pygame_simpleguics2pygame_image</title><style>.edge>path:hover{stroke-width:8}</style>
<ellipse fill="#bc2f2f" stroke="black" cx="775.812" cy="-295.383" rx="88.2768" ry="28.9828"/>
<text text-anchor="middle" x="775.812" y="-303.883" font-family="Helvetica,sans-Serif" font-size="10.00" fill="#ffffff">SimpleGUICS2Pygame.</text>
<text text-anchor="middle" x="775.812" y="-292.883" font-family="Helvetica,sans-Serif" font-size="10.00" fill="#ffffff">simpleguics2pygame.</text>
<text text-anchor="middle" x="775.812" y="-281.883" font-family="Helvetica,sans-Serif" font-size="10.00" fill="#ffffff">image</text>
</g>
<!-- SimpleGUICS2Pygame_simpleguics2pygame_image&#45;&gt;SimpleGUICS2Pygame_simpleguics2pygame -->
<g id="edge32" class="edge"><title>SimpleGUICS2Pygame_simpleguics2pygame_image&#45;&gt;SimpleGUICS2Pygame_simpleguics2pygame</title><style>.edge>path:hover{stroke-width:8}</style>
<path fill="none" stroke="black" d="M815.196,-269.245C877.583,-227.894 990.027,-146.334 968.812,-108.418"/>
</g>
<!-- SimpleGUICS2Pygame_simpleguics2pygame_canvas -->
<g id="node6" class="node"><title>SimpleGUICS2Pygame_simpleguics2pygame_canvas</title><style>.edge>path:hover{stroke-width:8}</style>
<ellipse fill="#a13535" stroke="black" cx="601.812" cy="-201.401" rx="88.2768" ry="28.9828"/>
<text text-anchor="middle" x="601.812" y="-209.901" font-family="Helvetica,sans-Serif" font-size="10.00" fill="#ffffff">SimpleGUICS2Pygame.</text>
<text text-anchor="middle" x="601.812" y="-198.901" font-family="Helvetica,sans-Serif" font-size="10.00" fill="#ffffff">simpleguics2pygame.</text>
<text text-anchor="middle" x="601.812" y="-187.901" font-family="Helvetica,sans-Serif" font-size="10.00" fill="#ffffff">canvas</text>
</g>
<!-- SimpleGUICS2Pygame_simpleguics2pygame_image&#45;&gt;SimpleGUICS2Pygame_simpleguics2pygame_canvas -->
<g id="edge33" class="edge"><title>SimpleGUICS2Pygame_simpleguics2pygame_image&#45;&gt;SimpleGUICS2Pygame_simpleguics2pygame_canvas</title><style>.edge>path:hover{stroke-width:8}</style>
<path fill="none" stroke="black" d="M730.55,-270.456C707.781,-258.42 680.015,-243.742 656.106,-231.102"/>
<polygon fill="#bc2f2f" stroke="black" points="657.626,-227.947 647.149,-226.368 654.354,-234.135 657.626,-227.947"/>
</g>
<!-- SimpleGUICS2Pygame_simpleguics2pygame_image&#45;&gt;SimpleGUICS2Pygame_simpleguics2pygame_frame -->
<g id="edge34" class="edge"><title>SimpleGUICS2Pygame_simpleguics2pygame_image&#45;&gt;SimpleGUICS2Pygame_simpleguics2pygame_frame</title><style>.edge>path:hover{stroke-width:8}</style>
<path fill="none" stroke="black" d="M819.058,-270.074C845.238,-252.119 870.605,-226.681 853.812,-202.401"/>
<path fill="none" stroke="black" d="M853.812,-200.401C824.499,-158.019 498.205,-127.875 331.961,-115.153"/>
<polygon fill="#bc2f2f" stroke="black" points="331.97,-111.643 321.734,-114.376 331.44,-118.623 331.97,-111.643"/>
</g>
<!-- SimpleGUICS2Pygame_simpleguics2pygame_timer -->
<g id="node5" class="node"><title>SimpleGUICS2Pygame_simpleguics2pygame_timer</title><style>.edge>path:hover{stroke-width:8}</style>
<ellipse fill="#b83d3d" stroke="black" cx="1045.81" cy="-201.401" rx="88.2768" ry="28.9828"/>
<text text-anchor="middle" x="1045.81" y="-209.901" font-family="Helvetica,sans-Serif" font-size="10.00" fill="#ffffff">SimpleGUICS2Pygame.</text>
<text text-anchor="middle" x="1045.81" y="-198.901" font-family="Helvetica,sans-Serif" font-size="10.00" fill="#ffffff">simpleguics2pygame.</text>
<text text-anchor="middle" x="1045.81" y="-187.901" font-family="Helvetica,sans-Serif" font-size="10.00" fill="#ffffff">timer</text>
</g>
<!-- SimpleGUICS2Pygame_simpleguics2pygame_timer&#45;&gt;SimpleGUICS2Pygame_simpleguics2pygame -->
<g id="edge38" class="edge"><title>SimpleGUICS2Pygame_simpleguics2pygame_timer&#45;&gt;SimpleGUICS2Pygame_simpleguics2pygame</title><style>.edge>path:hover{stroke-width:8}</style>
<path fill="none" stroke="black" d="M1018.56,-173.45C1002.29,-156.114 982.235,-132.408 968.812,-108.418"/>
</g>
<!-- SimpleGUICS2Pygame_simpleguics2pygame_timer&#45;&gt;SimpleGUICS2Pygame_simpleguics2pygame_frame -->
<g id="edge39" class="edge"><title>SimpleGUICS2Pygame_simpleguics2pygame_timer&#45;&gt;SimpleGUICS2Pygame_simpleguics2pygame_frame</title><style>.edge>path:hover{stroke-width:8}</style>
<path fill="none" stroke="black" d="M982.279,-181.096C969.628,-177.783 956.37,-174.681 943.812,-172.409 728.028,-133.369 470.722,-117.696 333.478,-111.759"/>
<polygon fill="#b83d3d" stroke="black" points="333.542,-108.259 323.403,-111.332 333.245,-115.253 333.542,-108.259"/>
</g>
<!-- SimpleGUICS2Pygame_simpleguics2pygame_canvas&#45;&gt;SimpleGUICS2Pygame_simpleguics2pygame -->
<g id="edge27" class="edge"><title>SimpleGUICS2Pygame_simpleguics2pygame_canvas&#45;&gt;SimpleGUICS2Pygame_simpleguics2pygame</title><style>.edge>path:hover{stroke-width:8}</style>
<path fill="none" stroke="black" d="M687.764,-194.492C805.048,-184.457 997.638,-159.937 968.812,-108.418"/>
<path fill="none" stroke="black" d="M968.812,-106.418C938.204,-51.7133 525.839,-31.4351 333.425,-24.92"/>
<polygon fill="#a13535" stroke="black" points="333.422,-21.418 323.311,-24.5834 333.189,-28.4142 333.422,-21.418"/>
</g>
<!-- SimpleGUICS2Pygame_simpleguics2pygame_canvas&#45;&gt;SimpleGUICS2Pygame_simpleguics2pygame_frame -->
<g id="edge28" class="edge"><title>SimpleGUICS2Pygame_simpleguics2pygame_canvas&#45;&gt;SimpleGUICS2Pygame_simpleguics2pygame_frame</title><style>.edge>path:hover{stroke-width:8}</style>
<path fill="none" stroke="black" d="M532.97,-183.099C470.829,-167.482 379.447,-144.516 314.449,-128.181"/>
<polygon fill="#a13535" stroke="black" points="315.207,-124.762 304.655,-125.719 313.501,-131.551 315.207,-124.762"/>
</g>
<!-- SimpleGUICS2Pygame_simpleguics2pygame__fonts -->
<g id="node7" class="node"><title>SimpleGUICS2Pygame_simpleguics2pygame__fonts</title><style>.edge>path:hover{stroke-width:8}</style>
<ellipse fill="#bc2f2f" stroke="black" cx="543.812" cy="-295.383" rx="88.2768" ry="28.9828"/>
<text text-anchor="middle" x="543.812" y="-303.883" font-family="Helvetica,sans-Serif" font-size="10.00" fill="#ffffff">SimpleGUICS2Pygame.</text>
<text text-anchor="middle" x="543.812" y="-292.883" font-family="Helvetica,sans-Serif" font-size="10.00" fill="#ffffff">simpleguics2pygame.</text>
<text text-anchor="middle" x="543.812" y="-281.883" font-family="Helvetica,sans-Serif" font-size="10.00" fill="#ffffff">_fonts</text>
</g>
<!-- SimpleGUICS2Pygame_simpleguics2pygame__fonts&#45;&gt;SimpleGUICS2Pygame_simpleguics2pygame_control -->
<g id="edge11" class="edge"><title>SimpleGUICS2Pygame_simpleguics2pygame__fonts&#45;&gt;SimpleGUICS2Pygame_simpleguics2pygame_control</title><style>.edge>path:hover{stroke-width:8}</style>
<path fill="none" stroke="black" d="M483.89,-273.969C442.437,-259.847 387.136,-241.007 343.678,-226.202"/>
<polygon fill="#bc2f2f" stroke="black" points="344.627,-222.828 334.032,-222.916 342.369,-229.454 344.627,-222.828"/>
</g>
<!-- SimpleGUICS2Pygame_simpleguics2pygame__fonts&#45;&gt;SimpleGUICS2Pygame_simpleguics2pygame_canvas -->
<g id="edge10" class="edge"><title>SimpleGUICS2Pygame_simpleguics2pygame__fonts&#45;&gt;SimpleGUICS2Pygame_simpleguics2pygame_canvas</title><style>.edge>path:hover{stroke-width:8}</style>
<path fill="none" stroke="black" d="M561.214,-266.785C566.777,-257.963 573.022,-248.059 578.914,-238.714"/>
<polygon fill="#bc2f2f" stroke="black" points="582.049,-240.305 584.422,-229.979 576.128,-236.571 582.049,-240.305"/>
</g>
<!-- SimpleGUICS2Pygame_simpleguics2pygame__fonts&#45;&gt;SimpleGUICS2Pygame_simpleguics2pygame_frame -->
<g id="edge12" class="edge"><title>SimpleGUICS2Pygame_simpleguics2pygame__fonts&#45;&gt;SimpleGUICS2Pygame_simpleguics2pygame_frame</title><style>.edge>path:hover{stroke-width:8}</style>
<path fill="none" stroke="black" d="M500.024,-270.072C475.135,-254.026 445.498,-230.749 427.812,-202.401"/>
</g>
<!-- SimpleGUICS2Pygame_simpleguics2pygame__joypads -->
<g id="node8" class="node"><title>SimpleGUICS2Pygame_simpleguics2pygame__joypads</title><style>.edge>path:hover{stroke-width:8}</style>
<ellipse fill="#ac4949" stroke="black" cx="311.812" cy="-389.366" rx="88.2768" ry="28.9828"/>
<text text-anchor="middle" x="311.812" y="-397.866" font-family="Helvetica,sans-Serif" font-size="10.00" fill="#ffffff">SimpleGUICS2Pygame.</text>
<text text-anchor="middle" x="311.812" y="-386.866" font-family="Helvetica,sans-Serif" font-size="10.00" fill="#ffffff">simpleguics2pygame.</text>
<text text-anchor="middle" x="311.812" y="-375.866" font-family="Helvetica,sans-Serif" font-size="10.00" fill="#ffffff">_joypads</text>
</g>
<!-- SimpleGUICS2Pygame_simpleguics2pygame__joypads&#45;&gt;SimpleGUICS2Pygame_simpleguics2pygame_frame -->
<g id="edge13" class="edge"><title>SimpleGUICS2Pygame_simpleguics2pygame__joypads&#45;&gt;SimpleGUICS2Pygame_simpleguics2pygame_frame</title><style>.edge>path:hover{stroke-width:8}</style>
<path fill="none" stroke="black" d="M243.984,-370.572C220.377,-360.867 196.22,-346.211 181.812,-324.375 144.594,-267.97 152.223,-235.354 176.812,-172.409 181.193,-161.193 188.564,-150.759 196.638,-141.707"/>
<polygon fill="#ac4949" stroke="black" points="199.189,-144.104 203.536,-134.442 194.112,-139.284 199.189,-144.104"/>
</g>
<!-- SimpleGUICS2Pygame_simpleguics2pygame__arguments -->
<g id="node9" class="node"><title>SimpleGUICS2Pygame_simpleguics2pygame__arguments</title><style>.edge>path:hover{stroke-width:8}</style>
<ellipse fill="#f31616" stroke="black" cx="833.812" cy="-483.349" rx="88.2768" ry="28.9828"/>
<text text-anchor="middle" x="833.812" y="-491.849" font-family="Helvetica,sans-Serif" font-size="10.00" fill="#ffffff">SimpleGUICS2Pygame.</text>
<text text-anchor="middle" x="833.812" y="-480.849" font-family="Helvetica,sans-Serif" font-size="10.00" fill="#ffffff">simpleguics2pygame.</text>
<text text-anchor="middle" x="833.812" y="-469.849" font-family="Helvetica,sans-Serif" font-size="10.00" fill="#ffffff">_arguments</text>
</g>
<!-- SimpleGUICS2Pygame_simpleguics2pygame__arguments&#45;&gt;SimpleGUICS2Pygame_simpleguics2pygame -->
<g id="edge1" class="edge"><title>SimpleGUICS2Pygame_simpleguics2pygame__arguments&#45;&gt;SimpleGUICS2Pygame_simpleguics2pygame</title><style>.edge>path:hover{stroke-width:8}</style>
<path fill="none" stroke="black" d="M1045.81,-388.366C1073.98,-345.074 1114.89,-367.826 1142.81,-324.375 1172.47,-278.216 1177.1,-255.092 1161.81,-202.401"/>
</g>
<!-- SimpleGUICS2Pygame_simpleguics2pygame__arguments&#45;&gt;SimpleGUICS2Pygame_simpleguics2pygame_timer -->
<g id="edge6" class="edge"><title>SimpleGUICS2Pygame_simpleguics2pygame__arguments&#45;&gt;SimpleGUICS2Pygame_simpleguics2pygame_timer</title><style>.edge>path:hover{stroke-width:8}</style>
<path fill="none" stroke="black" d="M929.812,-294.383C924.698,-264.318 949.246,-242.362 977.058,-227.457"/>
<polygon fill="#f31616" stroke="black" points="978.815,-230.491 986.169,-222.864 975.664,-224.24 978.815,-230.491"/>
</g>
<!-- SimpleGUICS2Pygame_simpleguics2pygame__arguments&#45;&gt;SimpleGUICS2Pygame_simpleguics2pygame__fonts -->
<g id="edge2" class="edge"><title>SimpleGUICS2Pygame_simpleguics2pygame__arguments&#45;&gt;SimpleGUICS2Pygame_simpleguics2pygame__fonts</title><style>.edge>path:hover{stroke-width:8}</style>
<path fill="none" stroke="black" d="M759.898,-467.172C723.371,-457.283 679.93,-441.76 645.812,-418.357 612.741,-395.673 584.356,-359.454 565.989,-332.367"/>
<polygon fill="#f31616" stroke="black" points="568.831,-330.319 560.385,-323.922 562.998,-334.19 568.831,-330.319"/>
</g>
<!-- SimpleGUICS2Pygame_simpleguics2pygame_sound -->
<g id="node10" class="node"><title>SimpleGUICS2Pygame_simpleguics2pygame_sound</title><style>.edge>path:hover{stroke-width:8}</style>
<ellipse fill="#a44646" stroke="black" cx="1045.81" cy="-295.383" rx="88.2768" ry="28.9828"/>
<text text-anchor="middle" x="1045.81" y="-303.883" font-family="Helvetica,sans-Serif" font-size="10.00" fill="#ffffff">SimpleGUICS2Pygame.</text>
<text text-anchor="middle" x="1045.81" y="-292.883" font-family="Helvetica,sans-Serif" font-size="10.00" fill="#ffffff">simpleguics2pygame.</text>
<text text-anchor="middle" x="1045.81" y="-281.883" font-family="Helvetica,sans-Serif" font-size="10.00" fill="#ffffff">sound</text>
</g>
<!-- SimpleGUICS2Pygame_simpleguics2pygame__arguments&#45;&gt;SimpleGUICS2Pygame_simpleguics2pygame_sound -->
<g id="edge5" class="edge"><title>SimpleGUICS2Pygame_simpleguics2pygame__arguments&#45;&gt;SimpleGUICS2Pygame_simpleguics2pygame_sound</title><style>.edge>path:hover{stroke-width:8}</style>
<path fill="none" stroke="black" d="M1045.81,-388.366C1056,-372.7 1056.88,-352.134 1054.82,-334.423"/>
<polygon fill="#f31616" stroke="black" points="1058.26,-333.756 1053.32,-324.383 1051.34,-334.79 1058.26,-333.756"/>
</g>
<!-- SimpleGUICS2Pygame_simpleguics2pygame__arguments&#45;&gt;SimpleGUICS2Pygame_simpleguics2pygame_frame -->
<g id="edge4" class="edge"><title>SimpleGUICS2Pygame_simpleguics2pygame__arguments&#45;&gt;SimpleGUICS2Pygame_simpleguics2pygame_frame</title><style>.edge>path:hover{stroke-width:8}</style>
<path fill="none" stroke="black" d="M912.655,-470.227C959.996,-458.434 1016.55,-435.347 1045.81,-390.366"/>
<path fill="none" stroke="black" d="M1045.81,-388.366C1081.69,-333.213 940.844,-361.249 929.812,-296.383"/>
<path fill="none" stroke="black" d="M929.812,-294.383C919.615,-234.432 917.978,-206.782 867.812,-172.409 824.733,-142.892 499.429,-122.023 333.108,-113.163"/>
<polygon fill="#f31616" stroke="black" points="333.045,-109.655 322.875,-112.622 332.676,-116.645 333.045,-109.655"/>
</g>
<!-- SimpleGUICS2Pygame_simpleguics2pygame__media -->
<g id="node14" class="node"><title>SimpleGUICS2Pygame_simpleguics2pygame__media</title><style>.edge>path:hover{stroke-width:8}</style>
<ellipse fill="#bc2f2f" stroke="black" cx="833.812" cy="-389.366" rx="88.2768" ry="28.9828"/>
<text text-anchor="middle" x="833.812" y="-397.866" font-family="Helvetica,sans-Serif" font-size="10.00" fill="#ffffff">SimpleGUICS2Pygame.</text>
<text text-anchor="middle" x="833.812" y="-386.866" font-family="Helvetica,sans-Serif" font-size="10.00" fill="#ffffff">simpleguics2pygame.</text>
<text text-anchor="middle" x="833.812" y="-375.866" font-family="Helvetica,sans-Serif" font-size="10.00" fill="#ffffff">_media</text>
</g>
<!-- SimpleGUICS2Pygame_simpleguics2pygame__arguments&#45;&gt;SimpleGUICS2Pygame_simpleguics2pygame__media -->
<g id="edge3" class="edge"><title>SimpleGUICS2Pygame_simpleguics2pygame__arguments&#45;&gt;SimpleGUICS2Pygame_simpleguics2pygame__media</title><style>.edge>path:hover{stroke-width:8}</style>
<path fill="none" stroke="black" d="M833.812,-454.251C833.812,-446.213 833.812,-437.311 833.812,-428.768"/>
<polygon fill="#f31616" stroke="black" points="837.312,-428.609 833.812,-418.609 830.312,-428.609 837.312,-428.609"/>
</g>
<!-- SimpleGUICS2Pygame_simpleguics2pygame_sound&#45;&gt;SimpleGUICS2Pygame_simpleguics2pygame -->
<g id="edge37" class="edge"><title>SimpleGUICS2Pygame_simpleguics2pygame_sound&#45;&gt;SimpleGUICS2Pygame_simpleguics2pygame</title><style>.edge>path:hover{stroke-width:8}</style>
<path fill="none" stroke="black" d="M1106.27,-274.16C1139.18,-259.129 1171.41,-235.477 1161.81,-202.401"/>
<path fill="none" stroke="black" d="M1161.81,-200.401C1136.89,-114.503 978.562,-125.313 968.812,-108.418"/>
</g>
<!-- SimpleGUICS2Pygame_simpleguics2pygame_frame&#45;&gt;SimpleGUICS2Pygame_simpleguics2pygame -->
<g id="edge31" class="edge"><title>SimpleGUICS2Pygame_simpleguics2pygame_frame&#45;&gt;SimpleGUICS2Pygame_simpleguics2pygame</title><style>.edge>path:hover{stroke-width:8}</style>
<path fill="none" stroke="black" d="M235.812,-78.3789C235.812,-70.171 235.812,-61.1574 235.812,-52.7997"/>
<polygon fill="#6b2e2e" stroke="black" points="239.312,-52.674 235.812,-42.674 232.312,-52.6741 239.312,-52.674"/>
</g>
<!-- SimpleGUICS2Pygame_simpleguics2pygame__colors -->
<g id="node12" class="node"><title>SimpleGUICS2Pygame_simpleguics2pygame__colors</title><style>.edge>path:hover{stroke-width:8}</style>
<ellipse fill="#c43131" stroke="black" cx="311.812" cy="-295.383" rx="88.2768" ry="28.9828"/>
<text text-anchor="middle" x="311.812" y="-303.883" font-family="Helvetica,sans-Serif" font-size="10.00" fill="#ffffff">SimpleGUICS2Pygame.</text>
<text text-anchor="middle" x="311.812" y="-292.883" font-family="Helvetica,sans-Serif" font-size="10.00" fill="#ffffff">simpleguics2pygame.</text>
<text text-anchor="middle" x="311.812" y="-281.883" font-family="Helvetica,sans-Serif" font-size="10.00" fill="#ffffff">_colors</text>
</g>
<!-- SimpleGUICS2Pygame_simpleguics2pygame__colors&#45;&gt;SimpleGUICS2Pygame_simpleguics2pygame_control -->
<g id="edge8" class="edge"><title>SimpleGUICS2Pygame_simpleguics2pygame__colors&#45;&gt;SimpleGUICS2Pygame_simpleguics2pygame_control</title><style>.edge>path:hover{stroke-width:8}</style>
<path fill="none" stroke="black" d="M300.204,-266.286C296.742,-257.905 292.892,-248.585 289.226,-239.713"/>
<polygon fill="#c43131" stroke="black" points="292.402,-238.232 285.348,-230.326 285.932,-240.905 292.402,-238.232"/>
</g>
<!-- SimpleGUICS2Pygame_simpleguics2pygame__colors&#45;&gt;SimpleGUICS2Pygame_simpleguics2pygame_canvas -->
<g id="edge7" class="edge"><title>SimpleGUICS2Pygame_simpleguics2pygame__colors&#45;&gt;SimpleGUICS2Pygame_simpleguics2pygame_canvas</title><style>.edge>path:hover{stroke-width:8}</style>
<path fill="none" stroke="black" d="M374.024,-274.651C419.8,-260.131 482.132,-240.361 530.021,-225.171"/>
<polygon fill="#c43131" stroke="black" points="531.229,-228.46 539.702,-222.101 529.112,-221.788 531.229,-228.46"/>
</g>
<!-- SimpleGUICS2Pygame_simpleguics2pygame__colors&#45;&gt;SimpleGUICS2Pygame_simpleguics2pygame_frame -->
<g id="edge9" class="edge"><title>SimpleGUICS2Pygame_simpleguics2pygame__colors&#45;&gt;SimpleGUICS2Pygame_simpleguics2pygame_frame</title><style>.edge>path:hover{stroke-width:8}</style>
<path fill="none" stroke="black" d="M372.223,-274.159C409.592,-258.104 447.062,-233.256 427.812,-202.401"/>
<path fill="none" stroke="black" d="M427.812,-200.401C404.085,-162.369 359.748,-139.728 319.654,-126.431"/>
<polygon fill="#c43131" stroke="black" points="320.696,-123.09 310.106,-123.41 318.584,-129.764 320.696,-123.09"/>
</g>
<!-- SimpleGUICS2Pygame_simpleguics2pygame__pygame_init -->
<g id="node13" class="node"><title>SimpleGUICS2Pygame_simpleguics2pygame__pygame_init</title><style>.edge>path:hover{stroke-width:8}</style>
<ellipse fill="#f91010" stroke="black" cx="369.812" cy="-483.349" rx="88.2768" ry="28.9828"/>
<text text-anchor="middle" x="369.812" y="-491.849" font-family="Helvetica,sans-Serif" font-size="10.00" fill="#ffffff">SimpleGUICS2Pygame.</text>
<text text-anchor="middle" x="369.812" y="-480.849" font-family="Helvetica,sans-Serif" font-size="10.00" fill="#ffffff">simpleguics2pygame.</text>
<text text-anchor="middle" x="369.812" y="-469.849" font-family="Helvetica,sans-Serif" font-size="10.00" fill="#ffffff">_pygame_init</text>
</g>
<!-- SimpleGUICS2Pygame_simpleguics2pygame__pygame_init&#45;&gt;SimpleGUICS2Pygame_simpleguics2pygame_keys -->
<g id="edge26" class="edge"><title>SimpleGUICS2Pygame_simpleguics2pygame__pygame_init&#45;&gt;SimpleGUICS2Pygame_simpleguics2pygame_keys</title><style>.edge>path:hover{stroke-width:8}</style>
<path fill="none" stroke="black" d="M312.086,-461.361C274.091,-447.548 224.205,-429.411 184.365,-414.926"/>
<polygon fill="#f91010" stroke="black" points="185.322,-411.55 174.727,-411.422 182.93,-418.129 185.322,-411.55"/>
</g>
<!-- SimpleGUICS2Pygame_simpleguics2pygame__pygame_init&#45;&gt;SimpleGUICS2Pygame_simpleguics2pygame -->
<g id="edge17" class="edge"><title>SimpleGUICS2Pygame_simpleguics2pygame__pygame_init&#45;&gt;SimpleGUICS2Pygame_simpleguics2pygame</title><style>.edge>path:hover{stroke-width:8}</style>
<path fill="none" stroke="black" d="M282.207,-478.757C189.648,-472.906 52.5942,-457.677 19.8118,-418.357 -31.3725,-356.967 23.3593,-386.198 119.812,-108.418"/>
<path fill="none" stroke="black" d="M119.812,-106.418C127.716,-77.4239 153.976,-57.0467 179.515,-43.6086"/>
<polygon fill="#f91010" stroke="black" points="181.095,-46.7319 188.487,-39.1421 177.975,-40.4655 181.095,-46.7319"/>
</g>
<!-- SimpleGUICS2Pygame_simpleguics2pygame__pygame_init&#45;&gt;SimpleGUICS2Pygame_simpleguics2pygame_control -->
<g id="edge23" class="edge"><title>SimpleGUICS2Pygame_simpleguics2pygame__pygame_init&#45;&gt;SimpleGUICS2Pygame_simpleguics2pygame_control</title><style>.edge>path:hover{stroke-width:8}</style>
<path fill="none" stroke="black" d="M397.792,-455.663C412.624,-438.604 427.812,-415.097 427.812,-390.366"/>
<path fill="none" stroke="black" d="M427.812,-388.366C427.812,-373.33 421.397,-368.602 408.812,-360.375 335.409,-312.392 270.879,-391.804 214.812,-324.375 198.336,-304.56 205.435,-290.395 214.812,-266.392 219.193,-255.176 226.564,-244.742 234.638,-235.69"/>
<polygon fill="#f91010" stroke="black" points="237.189,-238.087 241.536,-228.425 232.112,-233.267 237.189,-238.087"/>
</g>
<!-- SimpleGUICS2Pygame_simpleguics2pygame__pygame_init&#45;&gt;SimpleGUICS2Pygame_simpleguics2pygame_image -->
<g id="edge25" class="edge"><title>SimpleGUICS2Pygame_simpleguics2pygame__pygame_init&#45;&gt;SimpleGUICS2Pygame_simpleguics2pygame_image</title><style>.edge>path:hover{stroke-width:8}</style>
<path fill="none" stroke="black" d="M659.812,-388.366C684.928,-368.646 712.987,-346.401 735.218,-328.728"/>
<polygon fill="#f91010" stroke="black" points="737.48,-331.401 743.128,-322.437 733.123,-325.922 737.48,-331.401"/>
</g>
<!-- SimpleGUICS2Pygame_simpleguics2pygame__pygame_init&#45;&gt;SimpleGUICS2Pygame_simpleguics2pygame_canvas -->
<g id="edge22" class="edge"><title>SimpleGUICS2Pygame_simpleguics2pygame__pygame_init&#45;&gt;SimpleGUICS2Pygame_simpleguics2pygame_canvas</title><style>.edge>path:hover{stroke-width:8}</style>
<path fill="none" stroke="black" d="M451.797,-472.2C514.244,-460.971 599.47,-437.745 659.812,-390.366"/>
<path fill="none" stroke="black" d="M659.812,-388.366C705.667,-352.362 663.464,-280.519 631.005,-237.432"/>
<polygon fill="#f91010" stroke="black" points="633.752,-235.263 624.877,-229.477 628.207,-239.535 633.752,-235.263"/>
</g>
<!-- SimpleGUICS2Pygame_simpleguics2pygame__pygame_init&#45;&gt;SimpleGUICS2Pygame_simpleguics2pygame__fonts -->
<g id="edge19" class="edge"><title>SimpleGUICS2Pygame_simpleguics2pygame__pygame_init&#45;&gt;SimpleGUICS2Pygame_simpleguics2pygame__fonts</title><style>.edge>path:hover{stroke-width:8}</style>
<path fill="none" stroke="black" d="M427.812,-388.366C427.812,-358.693 451.404,-337.077 477.309,-322.285"/>
<polygon fill="#f91010" stroke="black" points="479.003,-325.348 486.152,-317.528 475.687,-319.183 479.003,-325.348"/>
</g>
<!-- SimpleGUICS2Pygame_simpleguics2pygame__pygame_init&#45;&gt;SimpleGUICS2Pygame_simpleguics2pygame__joypads -->
<g id="edge20" class="edge"><title>SimpleGUICS2Pygame_simpleguics2pygame__pygame_init&#45;&gt;SimpleGUICS2Pygame_simpleguics2pygame__joypads</title><style>.edge>path:hover{stroke-width:8}</style>
<path fill="none" stroke="black" d="M352.41,-454.751C346.847,-445.929 340.602,-436.025 334.709,-426.68"/>
<polygon fill="#f91010" stroke="black" points="337.496,-424.536 329.201,-417.944 331.575,-428.27 337.496,-424.536"/>
</g>
<!-- SimpleGUICS2Pygame_simpleguics2pygame__pygame_init&#45;&gt;SimpleGUICS2Pygame_simpleguics2pygame_frame -->
<g id="edge24" class="edge"><title>SimpleGUICS2Pygame_simpleguics2pygame__pygame_init&#45;&gt;SimpleGUICS2Pygame_simpleguics2pygame_frame</title><style>.edge>path:hover{stroke-width:8}</style>
<path fill="none" stroke="black" d="M427.812,-388.366C428.42,-347.045 449.686,-237.462 427.812,-202.401"/>
</g>
<!-- SimpleGUICS2Pygame_simpleguics2pygame__pygame_init&#45;&gt;SimpleGUICS2Pygame_simpleguics2pygame__colors -->
<g id="edge18" class="edge"><title>SimpleGUICS2Pygame_simpleguics2pygame__pygame_init&#45;&gt;SimpleGUICS2Pygame_simpleguics2pygame__colors</title><style>.edge>path:hover{stroke-width:8}</style>
<path fill="none" stroke="black" d="M427.812,-388.366C427.812,-358.693 404.22,-337.077 378.315,-322.285"/>
<polygon fill="#f91010" stroke="black" points="379.937,-319.183 369.472,-317.528 376.621,-325.348 379.937,-319.183"/>
</g>
<!-- SimpleGUICS2Pygame_simpleguics2pygame__pygame_init&#45;&gt;SimpleGUICS2Pygame_simpleguics2pygame__media -->
<g id="edge21" class="edge"><title>SimpleGUICS2Pygame_simpleguics2pygame__pygame_init&#45;&gt;SimpleGUICS2Pygame_simpleguics2pygame__media</title><style>.edge>path:hover{stroke-width:8}</style>
<path fill="none" stroke="black" d="M444.104,-467.621C527.427,-451.103 662.286,-424.369 749.495,-407.081"/>
<polygon fill="#f91010" stroke="black" points="750.231,-410.503 759.36,-405.125 748.87,-403.637 750.231,-410.503"/>
</g>
<!-- SimpleGUICS2Pygame_simpleguics2pygame__media&#45;&gt;SimpleGUICS2Pygame_simpleguics2pygame_image -->
<g id="edge15" class="edge"><title>SimpleGUICS2Pygame_simpleguics2pygame__media&#45;&gt;SimpleGUICS2Pygame_simpleguics2pygame_image</title><style>.edge>path:hover{stroke-width:8}</style>
<path fill="none" stroke="black" d="M816.41,-360.768C810.847,-351.946 804.602,-342.042 798.709,-332.697"/>
<polygon fill="#bc2f2f" stroke="black" points="801.496,-330.554 793.201,-323.962 795.575,-334.287 801.496,-330.554"/>
</g>
<!-- SimpleGUICS2Pygame_simpleguics2pygame__media&#45;&gt;SimpleGUICS2Pygame_simpleguics2pygame_sound -->
<g id="edge16" class="edge"><title>SimpleGUICS2Pygame_simpleguics2pygame__media&#45;&gt;SimpleGUICS2Pygame_simpleguics2pygame_sound</title><style>.edge>path:hover{stroke-width:8}</style>
<path fill="none" stroke="black" d="M885.673,-365.865C915.445,-352.947 953.006,-336.65 984.268,-323.086"/>
<polygon fill="#bc2f2f" stroke="black" points="985.971,-326.162 993.751,-318.971 983.185,-319.741 985.971,-326.162"/>
</g>
<!-- SimpleGUICS2Pygame_simpleguics2pygame__media&#45;&gt;SimpleGUICS2Pygame_simpleguics2pygame_frame -->
<g id="edge14" class="edge"><title>SimpleGUICS2Pygame_simpleguics2pygame__media&#45;&gt;SimpleGUICS2Pygame_simpleguics2pygame_frame</title><style>.edge>path:hover{stroke-width:8}</style>
<path fill="none" stroke="black" d="M855.071,-360.941C862.169,-350.155 869.19,-337.277 872.812,-324.375 887.64,-271.552 885.021,-247.524 853.812,-202.401"/>
</g>
</g>
</svg>
