<?xml version="1.0" encoding="UTF-8" standalone="no"?>
<!DOCTYPE svg PUBLIC "-//W3C//DTD SVG 1.1//EN"
 "http://www.w3.org/Graphics/SVG/1.1/DTD/svg11.dtd">
<!-- Generated by graphviz version 2.38.0 (20140413.2041)
 -->
<!-- Title: G Pages: 1 -->
<svg width="1060pt" height="865pt"
 viewBox="0.00 0.00 1060.15 864.62" xmlns="http://www.w3.org/2000/svg" xmlns:xlink="http://www.w3.org/1999/xlink">
<g id="graph0" class="graph" transform="scale(1 1) rotate(0) translate(4 860.619)">
<title>G</title><style>.edge>path:hover{stroke-width:8}</style>
<polygon fill="white" stroke="none" points="-4,4 -4,-860.619 1056.15,-860.619 1056.15,4 -4,4"/>
<!-- SimpleGUICS2Pygame_simplegui_lib_loader -->
<g id="node1" class="node"><title>SimpleGUICS2Pygame_simplegui_lib_loader</title><style>.edge>path:hover{stroke-width:8}</style>
<ellipse fill="#b83d3d" stroke="black" cx="442.836" cy="-99.6396" rx="88.2768" ry="21.4286"/>
<text text-anchor="middle" x="442.836" y="-102.64" font-family="Helvetica,sans-Serif" font-size="10.00" fill="#ffffff">SimpleGUICS2Pygame.</text>
<text text-anchor="middle" x="442.836" y="-91.6396" font-family="Helvetica,sans-Serif" font-size="10.00" fill="#ffffff">simplegui_lib_loader</text>
</g>
<!-- SimpleGUICS2Pygame_simplegui_lib -->
<g id="node2" class="node"><title>SimpleGUICS2Pygame_simplegui_lib</title><style>.edge>path:hover{stroke-width:8}</style>
<ellipse fill="#964040" stroke="black" cx="539.836" cy="-21.2132" rx="88.2768" ry="21.4286"/>
<text text-anchor="middle" x="539.836" y="-24.2132" font-family="Helvetica,sans-Serif" font-size="10.00" fill="#ffffff">SimpleGUICS2Pygame.</text>
<text text-anchor="middle" x="539.836" y="-13.2132" font-family="Helvetica,sans-Serif" font-size="10.00" fill="#ffffff">simplegui_lib</text>
</g>
<!-- SimpleGUICS2Pygame_simplegui_lib_loader&#45;&gt;SimpleGUICS2Pygame_simplegui_lib -->
<g id="edge4" class="edge"><title>SimpleGUICS2Pygame_simplegui_lib_loader&#45;&gt;SimpleGUICS2Pygame_simplegui_lib</title><style>.edge>path:hover{stroke-width:8}</style>
<path fill="none" stroke="black" d="M467.565,-79.1563C479.536,-69.7239 494.075,-58.2688 506.965,-48.1129"/>
<polygon fill="#b83d3d" stroke="black" points="509.465,-50.599 515.153,-41.661 505.132,-45.1007 509.465,-50.599"/>
</g>
<!-- SimpleGUICS2Pygame_simpleguics2pygame__joypads -->
<g id="node3" class="node"><title>SimpleGUICS2Pygame_simpleguics2pygame__joypads</title><style>.edge>path:hover{stroke-width:8}</style>
<ellipse fill="#a13535" stroke="black" cx="636.836" cy="-546.219" rx="88.2768" ry="28.9828"/>
<text text-anchor="middle" x="636.836" y="-554.719" font-family="Helvetica,sans-Serif" font-size="10.00" fill="#ffffff">SimpleGUICS2Pygame.</text>
<text text-anchor="middle" x="636.836" y="-543.719" font-family="Helvetica,sans-Serif" font-size="10.00" fill="#ffffff">simpleguics2pygame.</text>
<text text-anchor="middle" x="636.836" y="-532.719" font-family="Helvetica,sans-Serif" font-size="10.00" fill="#ffffff">_joypads</text>
</g>
<!-- SimpleGUICS2Pygame_simpleguics2pygame_frame -->
<g id="node19" class="node"><title>SimpleGUICS2Pygame_simpleguics2pygame_frame</title><style>.edge>path:hover{stroke-width:8}</style>
<ellipse fill="#732626" stroke="black" cx="442.836" cy="-264.271" rx="88.2768" ry="28.9828"/>
<text text-anchor="middle" x="442.836" y="-272.771" font-family="Helvetica,sans-Serif" font-size="10.00" fill="#ffffff">SimpleGUICS2Pygame.</text>
<text text-anchor="middle" x="442.836" y="-261.771" font-family="Helvetica,sans-Serif" font-size="10.00" fill="#ffffff">simpleguics2pygame.</text>
<text text-anchor="middle" x="442.836" y="-250.771" font-family="Helvetica,sans-Serif" font-size="10.00" fill="#ffffff">frame</text>
</g>
<!-- SimpleGUICS2Pygame_simpleguics2pygame__joypads&#45;&gt;SimpleGUICS2Pygame_simpleguics2pygame_frame -->
<g id="edge20" class="edge"><title>SimpleGUICS2Pygame_simpleguics2pygame__joypads&#45;&gt;SimpleGUICS2Pygame_simpleguics2pygame_frame</title><style>.edge>path:hover{stroke-width:8}</style>
<path fill="none" stroke="black" d="M679.995,-520.807C707.579,-502.15 734.748,-475.877 714.836,-453.236"/>
<path fill="none" stroke="black" d="M714.836,-451.236C630.56,-355.408 489.56,-478.007 442.836,-359.253"/>
</g>
<!-- SimpleGUICS2Pygame_simpleguics2pygame_control -->
<g id="node4" class="node"><title>SimpleGUICS2Pygame_simpleguics2pygame_control</title><style>.edge>path:hover{stroke-width:8}</style>
<ellipse fill="#a32828" stroke="black" cx="172.836" cy="-452.236" rx="88.2768" ry="28.9828"/>
<text text-anchor="middle" x="172.836" y="-460.736" font-family="Helvetica,sans-Serif" font-size="10.00" fill="#ffffff">SimpleGUICS2Pygame.</text>
<text text-anchor="middle" x="172.836" y="-449.736" font-family="Helvetica,sans-Serif" font-size="10.00" fill="#ffffff">simpleguics2pygame.</text>
<text text-anchor="middle" x="172.836" y="-438.736" font-family="Helvetica,sans-Serif" font-size="10.00" fill="#ffffff">control</text>
</g>
<!-- SimpleGUICS2Pygame_simpleguics2pygame -->
<g id="node17" class="node"><title>SimpleGUICS2Pygame_simpleguics2pygame</title><style>.edge>path:hover{stroke-width:8}</style>
<ellipse fill="#950303" stroke="black" cx="442.836" cy="-178.066" rx="88.2768" ry="21.4286"/>
<text text-anchor="middle" x="442.836" y="-181.066" font-family="Helvetica,sans-Serif" font-size="10.00" fill="#ffffff">SimpleGUICS2Pygame.</text>
<text text-anchor="middle" x="442.836" y="-170.066" font-family="Helvetica,sans-Serif" font-size="10.00" fill="#ffffff">simpleguics2pygame</text>
</g>
<!-- SimpleGUICS2Pygame_simpleguics2pygame_control&#45;&gt;SimpleGUICS2Pygame_simpleguics2pygame -->
<g id="edge36" class="edge"><title>SimpleGUICS2Pygame_simpleguics2pygame_control&#45;&gt;SimpleGUICS2Pygame_simpleguics2pygame</title><style>.edge>path:hover{stroke-width:8}</style>
<path fill="none" stroke="black" d="M166.334,-423.074C163.431,-403.99 162.634,-378.787 172.836,-359.253"/>
<path fill="none" stroke="black" d="M172.836,-357.253C191.763,-321.017 156.55,-302.767 172.836,-265.271"/>
</g>
<!-- SimpleGUICS2Pygame_simpleguics2pygame_control&#45;&gt;SimpleGUICS2Pygame_simpleguics2pygame_frame -->
<g id="edge37" class="edge"><title>SimpleGUICS2Pygame_simpleguics2pygame_control&#45;&gt;SimpleGUICS2Pygame_simpleguics2pygame_frame</title><style>.edge>path:hover{stroke-width:8}</style>
<path fill="none" stroke="black" d="M172.836,-357.253C179.797,-343.926 179.53,-337.901 191.836,-329.262 237.29,-297.355 297.299,-281.341 347.243,-273.31"/>
<polygon fill="#a32828" stroke="black" points="348.055,-276.727 357.415,-271.762 347.002,-269.807 348.055,-276.727"/>
</g>
<!-- SimpleGUICS2Pygame_simplegui_lib_fps -->
<g id="node5" class="node"><title>SimpleGUICS2Pygame_simplegui_lib_fps</title><style>.edge>path:hover{stroke-width:8}</style>
<ellipse fill="#b83d3d" stroke="black" cx="832.836" cy="-99.6396" rx="88.2768" ry="21.4286"/>
<text text-anchor="middle" x="832.836" y="-102.64" font-family="Helvetica,sans-Serif" font-size="10.00" fill="#ffffff">SimpleGUICS2Pygame.</text>
<text text-anchor="middle" x="832.836" y="-91.6396" font-family="Helvetica,sans-Serif" font-size="10.00" fill="#ffffff">simplegui_lib_fps</text>
</g>
<!-- SimpleGUICS2Pygame_simplegui_lib_fps&#45;&gt;SimpleGUICS2Pygame_simplegui_lib -->
<g id="edge2" class="edge"><title>SimpleGUICS2Pygame_simplegui_lib_fps&#45;&gt;SimpleGUICS2Pygame_simplegui_lib</title><style>.edge>path:hover{stroke-width:8}</style>
<path fill="none" stroke="black" d="M774.949,-83.5402C726.793,-70.979 658.174,-53.0805 607.49,-39.86"/>
<polygon fill="#b83d3d" stroke="black" points="608.163,-36.4186 597.604,-37.2812 606.396,-43.192 608.163,-36.4186"/>
</g>
<!-- SimpleGUICS2Pygame_simpleguics2pygame__pygame_init -->
<g id="node6" class="node"><title>SimpleGUICS2Pygame_simpleguics2pygame__pygame_init</title><style>.edge>path:hover{stroke-width:8}</style>
<ellipse fill="#d10505" stroke="black" cx="636.836" cy="-640.202" rx="88.2768" ry="28.9828"/>
<text text-anchor="middle" x="636.836" y="-648.702" font-family="Helvetica,sans-Serif" font-size="10.00" fill="#ffffff">SimpleGUICS2Pygame.</text>
<text text-anchor="middle" x="636.836" y="-637.702" font-family="Helvetica,sans-Serif" font-size="10.00" fill="#ffffff">simpleguics2pygame.</text>
<text text-anchor="middle" x="636.836" y="-626.702" font-family="Helvetica,sans-Serif" font-size="10.00" fill="#ffffff">_pygame_init</text>
</g>
<!-- SimpleGUICS2Pygame_simpleguics2pygame__pygame_init&#45;&gt;SimpleGUICS2Pygame_simpleguics2pygame__joypads -->
<g id="edge27" class="edge"><title>SimpleGUICS2Pygame_simpleguics2pygame__pygame_init&#45;&gt;SimpleGUICS2Pygame_simpleguics2pygame__joypads</title><style>.edge>path:hover{stroke-width:8}</style>
<path fill="none" stroke="black" d="M636.836,-611.104C636.836,-603.066 636.836,-594.164 636.836,-585.621"/>
<polygon fill="#d10505" stroke="black" points="640.337,-585.461 636.836,-575.461 633.337,-585.461 640.337,-585.461"/>
</g>
<!-- SimpleGUICS2Pygame_simpleguics2pygame__pygame_init&#45;&gt;SimpleGUICS2Pygame_simpleguics2pygame_control -->
<g id="edge30" class="edge"><title>SimpleGUICS2Pygame_simpleguics2pygame__pygame_init&#45;&gt;SimpleGUICS2Pygame_simpleguics2pygame_control</title><style>.edge>path:hover{stroke-width:8}</style>
<path fill="none" stroke="black" d="M553.411,-630.296C469.6,-620.073 347.358,-601.289 307.836,-575.21 295.287,-566.929 300.889,-556.208 288.836,-547.219"/>
<path fill="none" stroke="black" d="M288.836,-545.219C275.7,-535.422 276.994,-528.215 264.836,-517.227 251.684,-505.341 236.239,-493.809 221.8,-483.886"/>
<polygon fill="#d10505" stroke="black" points="223.686,-480.936 213.44,-478.238 219.767,-486.736 223.686,-480.936"/>
</g>
<!-- SimpleGUICS2Pygame_simpleguics2pygame__media -->
<g id="node7" class="node"><title>SimpleGUICS2Pygame_simpleguics2pygame__media</title><style>.edge>path:hover{stroke-width:8}</style>
<ellipse fill="#b62020" stroke="black" cx="831.836" cy="-546.219" rx="88.2768" ry="28.9828"/>
<text text-anchor="middle" x="831.836" y="-554.719" font-family="Helvetica,sans-Serif" font-size="10.00" fill="#ffffff">SimpleGUICS2Pygame.</text>
<text text-anchor="middle" x="831.836" y="-543.719" font-family="Helvetica,sans-Serif" font-size="10.00" fill="#ffffff">simpleguics2pygame.</text>
<text text-anchor="middle" x="831.836" y="-532.719" font-family="Helvetica,sans-Serif" font-size="10.00" fill="#ffffff">_media</text>
</g>
<!-- SimpleGUICS2Pygame_simpleguics2pygame__pygame_init&#45;&gt;SimpleGUICS2Pygame_simpleguics2pygame__media -->
<g id="edge28" class="edge"><title>SimpleGUICS2Pygame_simpleguics2pygame__pygame_init&#45;&gt;SimpleGUICS2Pygame_simpleguics2pygame__media</title><style>.edge>path:hover{stroke-width:8}</style>
<path fill="none" stroke="black" d="M686.043,-615.99C712.601,-603.463 745.556,-587.918 773.411,-574.779"/>
<polygon fill="#d10505" stroke="black" points="775.094,-577.854 782.645,-570.423 772.108,-571.523 775.094,-577.854"/>
</g>
<!-- SimpleGUICS2Pygame_simpleguics2pygame__colors -->
<g id="node9" class="node"><title>SimpleGUICS2Pygame_simpleguics2pygame__colors</title><style>.edge>path:hover{stroke-width:8}</style>
<ellipse fill="#bf2121" stroke="black" cx="134.836" cy="-546.219" rx="88.2768" ry="28.9828"/>
<text text-anchor="middle" x="134.836" y="-554.719" font-family="Helvetica,sans-Serif" font-size="10.00" fill="#ffffff">SimpleGUICS2Pygame.</text>
<text text-anchor="middle" x="134.836" y="-543.719" font-family="Helvetica,sans-Serif" font-size="10.00" fill="#ffffff">simpleguics2pygame.</text>
<text text-anchor="middle" x="134.836" y="-532.719" font-family="Helvetica,sans-Serif" font-size="10.00" fill="#ffffff">_colors</text>
</g>
<!-- SimpleGUICS2Pygame_simpleguics2pygame__pygame_init&#45;&gt;SimpleGUICS2Pygame_simpleguics2pygame__colors -->
<g id="edge25" class="edge"><title>SimpleGUICS2Pygame_simpleguics2pygame__pygame_init&#45;&gt;SimpleGUICS2Pygame_simpleguics2pygame__colors</title><style>.edge>path:hover{stroke-width:8}</style>
<path fill="none" stroke="black" d="M559.421,-626.033C486.062,-613.432 372.835,-593.666 274.836,-575.21 256.563,-571.769 236.978,-567.941 218.418,-564.248"/>
<polygon fill="#d10505" stroke="black" points="219.016,-560.798 208.524,-562.273 217.646,-567.663 219.016,-560.798"/>
</g>
<!-- SimpleGUICS2Pygame_simpleguics2pygame_image -->
<g id="node12" class="node"><title>SimpleGUICS2Pygame_simpleguics2pygame_image</title><style>.edge>path:hover{stroke-width:8}</style>
<ellipse fill="#bf2121" stroke="black" cx="558.836" cy="-452.236" rx="88.2768" ry="28.9828"/>
<text text-anchor="middle" x="558.836" y="-460.736" font-family="Helvetica,sans-Serif" font-size="10.00" fill="#ffffff">SimpleGUICS2Pygame.</text>
<text text-anchor="middle" x="558.836" y="-449.736" font-family="Helvetica,sans-Serif" font-size="10.00" fill="#ffffff">simpleguics2pygame.</text>
<text text-anchor="middle" x="558.836" y="-438.736" font-family="Helvetica,sans-Serif" font-size="10.00" fill="#ffffff">image</text>
</g>
<!-- SimpleGUICS2Pygame_simpleguics2pygame__pygame_init&#45;&gt;SimpleGUICS2Pygame_simpleguics2pygame_image -->
<g id="edge32" class="edge"><title>SimpleGUICS2Pygame_simpleguics2pygame__pygame_init&#45;&gt;SimpleGUICS2Pygame_simpleguics2pygame_image</title><style>.edge>path:hover{stroke-width:8}</style>
<path fill="none" stroke="black" d="M520.836,-545.219C515.95,-526.305 522.792,-506.156 531.956,-489.552"/>
<polygon fill="#d10505" stroke="black" points="535.106,-491.103 537.226,-480.723 529.095,-487.515 535.106,-491.103"/>
</g>
<!-- SimpleGUICS2Pygame_simpleguics2pygame_keys -->
<g id="node13" class="node"><title>SimpleGUICS2Pygame_simpleguics2pygame_keys</title><style>.edge>path:hover{stroke-width:8}</style>
<ellipse fill="#ac2b2b" stroke="black" cx="637.836" cy="-358.253" rx="88.2768" ry="28.9828"/>
<text text-anchor="middle" x="637.836" y="-366.753" font-family="Helvetica,sans-Serif" font-size="10.00" fill="#ffffff">SimpleGUICS2Pygame.</text>
<text text-anchor="middle" x="637.836" y="-355.753" font-family="Helvetica,sans-Serif" font-size="10.00" fill="#ffffff">simpleguics2pygame.</text>
<text text-anchor="middle" x="637.836" y="-344.753" font-family="Helvetica,sans-Serif" font-size="10.00" fill="#ffffff">keys</text>
</g>
<!-- SimpleGUICS2Pygame_simpleguics2pygame__pygame_init&#45;&gt;SimpleGUICS2Pygame_simpleguics2pygame_keys -->
<g id="edge33" class="edge"><title>SimpleGUICS2Pygame_simpleguics2pygame__pygame_init&#45;&gt;SimpleGUICS2Pygame_simpleguics2pygame_keys</title><style>.edge>path:hover{stroke-width:8}</style>
<path fill="none" stroke="black" d="M520.836,-545.219C517.075,-530.661 527.756,-526.179 539.836,-517.227 583.209,-485.09 623.819,-524.688 655.836,-481.227 673.68,-457.006 666.506,-422.617 656.406,-396.524"/>
<polygon fill="#d10505" stroke="black" points="659.505,-394.861 652.437,-386.968 653.04,-397.546 659.505,-394.861"/>
</g>
<!-- SimpleGUICS2Pygame_simpleguics2pygame__fonts -->
<g id="node14" class="node"><title>SimpleGUICS2Pygame_simpleguics2pygame__fonts</title><style>.edge>path:hover{stroke-width:8}</style>
<ellipse fill="#b62020" stroke="black" cx="404.836" cy="-546.219" rx="88.2768" ry="28.9828"/>
<text text-anchor="middle" x="404.836" y="-554.719" font-family="Helvetica,sans-Serif" font-size="10.00" fill="#ffffff">SimpleGUICS2Pygame.</text>
<text text-anchor="middle" x="404.836" y="-543.719" font-family="Helvetica,sans-Serif" font-size="10.00" fill="#ffffff">simpleguics2pygame.</text>
<text text-anchor="middle" x="404.836" y="-532.719" font-family="Helvetica,sans-Serif" font-size="10.00" fill="#ffffff">_fonts</text>
</g>
<!-- SimpleGUICS2Pygame_simpleguics2pygame__pygame_init&#45;&gt;SimpleGUICS2Pygame_simpleguics2pygame__fonts -->
<g id="edge26" class="edge"><title>SimpleGUICS2Pygame_simpleguics2pygame__pygame_init&#45;&gt;SimpleGUICS2Pygame_simpleguics2pygame__fonts</title><style>.edge>path:hover{stroke-width:8}</style>
<path fill="none" stroke="black" d="M581.856,-617.403C548.174,-604.049 504.897,-586.89 469.564,-572.882"/>
<polygon fill="#d10505" stroke="black" points="470.41,-569.452 459.824,-569.02 467.83,-575.96 470.41,-569.452"/>
</g>
<!-- SimpleGUICS2Pygame_simpleguics2pygame__pygame_init&#45;&gt;SimpleGUICS2Pygame_simpleguics2pygame -->
<g id="edge24" class="edge"><title>SimpleGUICS2Pygame_simpleguics2pygame__pygame_init&#45;&gt;SimpleGUICS2Pygame_simpleguics2pygame</title><style>.edge>path:hover{stroke-width:8}</style>
<path fill="none" stroke="black" d="M551.123,-633.055C389.61,-621.061 54.7798,-594.06 37.8365,-575.21 -36.2949,-492.738 10.836,-416.073 79.8365,-329.262 111.055,-289.985 152.848,-311.29 172.836,-265.271"/>
<path fill="none" stroke="black" d="M172.836,-263.271C185.915,-227.295 283.216,-203.906 357.298,-191.117"/>
<polygon fill="#d10505" stroke="black" points="358.307,-194.497 367.586,-189.383 357.143,-187.594 358.307,-194.497"/>
</g>
<!-- SimpleGUICS2Pygame_simpleguics2pygame_canvas -->
<g id="node18" class="node"><title>SimpleGUICS2Pygame_simpleguics2pygame_canvas</title><style>.edge>path:hover{stroke-width:8}</style>
<ellipse fill="#9b2626" stroke="black" cx="288.836" cy="-358.253" rx="88.2768" ry="28.9828"/>
<text text-anchor="middle" x="288.836" y="-366.753" font-family="Helvetica,sans-Serif" font-size="10.00" fill="#ffffff">SimpleGUICS2Pygame.</text>
<text text-anchor="middle" x="288.836" y="-355.753" font-family="Helvetica,sans-Serif" font-size="10.00" fill="#ffffff">simpleguics2pygame.</text>
<text text-anchor="middle" x="288.836" y="-344.753" font-family="Helvetica,sans-Serif" font-size="10.00" fill="#ffffff">canvas</text>
</g>
<!-- SimpleGUICS2Pygame_simpleguics2pygame__pygame_init&#45;&gt;SimpleGUICS2Pygame_simpleguics2pygame_canvas -->
<g id="edge29" class="edge"><title>SimpleGUICS2Pygame_simpleguics2pygame__pygame_init&#45;&gt;SimpleGUICS2Pygame_simpleguics2pygame_canvas</title><style>.edge>path:hover{stroke-width:8}</style>
<path fill="none" stroke="black" d="M288.836,-545.219C266.064,-528.235 274.601,-446.721 282.162,-397.423"/>
<polygon fill="#d10505" stroke="black" points="285.638,-397.853 283.749,-387.428 278.724,-396.755 285.638,-397.853"/>
</g>
<!-- SimpleGUICS2Pygame_simpleguics2pygame__pygame_init&#45;&gt;SimpleGUICS2Pygame_simpleguics2pygame_frame -->
<g id="edge31" class="edge"><title>SimpleGUICS2Pygame_simpleguics2pygame__pygame_init&#45;&gt;SimpleGUICS2Pygame_simpleguics2pygame_frame</title><style>.edge>path:hover{stroke-width:8}</style>
<path fill="none" stroke="black" d="M584.86,-616.616C558.253,-601.535 529.636,-578.652 520.836,-547.219"/>
<path fill="none" stroke="black" d="M520.836,-545.219C510.408,-507.967 480.255,-515.245 461.836,-481.227 435.714,-432.981 462.924,-410.308 442.836,-359.253"/>
</g>
<!-- SimpleGUICS2Pygame_simpleguics2pygame__media&#45;&gt;SimpleGUICS2Pygame_simpleguics2pygame_image -->
<g id="edge22" class="edge"><title>SimpleGUICS2Pygame_simpleguics2pygame__media&#45;&gt;SimpleGUICS2Pygame_simpleguics2pygame_image</title><style>.edge>path:hover{stroke-width:8}</style>
<path fill="none" stroke="black" d="M771.587,-524.919C729.456,-510.724 673.056,-491.72 628.912,-476.847"/>
<polygon fill="#b62020" stroke="black" points="629.997,-473.519 619.403,-473.643 627.762,-480.153 629.997,-473.519"/>
</g>
<!-- SimpleGUICS2Pygame_simpleguics2pygame__media&#45;&gt;SimpleGUICS2Pygame_simpleguics2pygame_frame -->
<g id="edge21" class="edge"><title>SimpleGUICS2Pygame_simpleguics2pygame__media&#45;&gt;SimpleGUICS2Pygame_simpleguics2pygame_frame</title><style>.edge>path:hover{stroke-width:8}</style>
<path fill="none" stroke="black" d="M791.831,-520.363C775.098,-509.226 755.859,-495.416 739.836,-481.227 727.349,-470.169 725.852,-465.761 714.836,-453.236"/>
</g>
<!-- SimpleGUICS2Pygame_simpleguics2pygame_sound -->
<g id="node20" class="node"><title>SimpleGUICS2Pygame_simpleguics2pygame_sound</title><style>.edge>path:hover{stroke-width:8}</style>
<ellipse fill="#a83838" stroke="black" cx="869.836" cy="-452.236" rx="88.2768" ry="28.9828"/>
<text text-anchor="middle" x="869.836" y="-460.736" font-family="Helvetica,sans-Serif" font-size="10.00" fill="#ffffff">SimpleGUICS2Pygame.</text>
<text text-anchor="middle" x="869.836" y="-449.736" font-family="Helvetica,sans-Serif" font-size="10.00" fill="#ffffff">simpleguics2pygame.</text>
<text text-anchor="middle" x="869.836" y="-438.736" font-family="Helvetica,sans-Serif" font-size="10.00" fill="#ffffff">sound</text>
</g>
<!-- SimpleGUICS2Pygame_simpleguics2pygame__media&#45;&gt;SimpleGUICS2Pygame_simpleguics2pygame_sound -->
<g id="edge23" class="edge"><title>SimpleGUICS2Pygame_simpleguics2pygame__media&#45;&gt;SimpleGUICS2Pygame_simpleguics2pygame_sound</title><style>.edge>path:hover{stroke-width:8}</style>
<path fill="none" stroke="black" d="M843.444,-517.121C846.906,-508.741 850.757,-499.421 854.422,-490.548"/>
<polygon fill="#b62020" stroke="black" points="857.716,-491.74 858.3,-481.162 851.247,-489.068 857.716,-491.74"/>
</g>
<!-- SimpleGUICS2Pygame_simplegui_lib_draw -->
<g id="node8" class="node"><title>SimpleGUICS2Pygame_simplegui_lib_draw</title><style>.edge>path:hover{stroke-width:8}</style>
<ellipse fill="#c04040" stroke="black" cx="637.836" cy="-99.6396" rx="88.2768" ry="21.4286"/>
<text text-anchor="middle" x="637.836" y="-102.64" font-family="Helvetica,sans-Serif" font-size="10.00" fill="#ffffff">SimpleGUICS2Pygame.</text>
<text text-anchor="middle" x="637.836" y="-91.6396" font-family="Helvetica,sans-Serif" font-size="10.00" fill="#ffffff">simplegui_lib_draw</text>
</g>
<!-- SimpleGUICS2Pygame_simplegui_lib_draw&#45;&gt;SimpleGUICS2Pygame_simplegui_lib -->
<g id="edge1" class="edge"><title>SimpleGUICS2Pygame_simplegui_lib_draw&#45;&gt;SimpleGUICS2Pygame_simplegui_lib</title><style>.edge>path:hover{stroke-width:8}</style>
<path fill="none" stroke="black" d="M612.853,-79.1563C600.643,-69.634 585.79,-58.0504 572.675,-47.8231"/>
<polygon fill="#c04040" stroke="black" points="574.812,-45.0507 564.774,-41.661 570.507,-50.5706 574.812,-45.0507"/>
</g>
<!-- SimpleGUICS2Pygame_simpleguics2pygame__colors&#45;&gt;SimpleGUICS2Pygame_simpleguics2pygame_control -->
<g id="edge15" class="edge"><title>SimpleGUICS2Pygame_simpleguics2pygame__colors&#45;&gt;SimpleGUICS2Pygame_simpleguics2pygame_control</title><style>.edge>path:hover{stroke-width:8}</style>
<path fill="none" stroke="black" d="M146.444,-517.121C149.906,-508.741 153.757,-499.421 157.422,-490.548"/>
<polygon fill="#bf2121" stroke="black" points="160.716,-491.74 161.3,-481.162 154.247,-489.068 160.716,-491.74"/>
</g>
<!-- SimpleGUICS2Pygame_simpleguics2pygame__colors&#45;&gt;SimpleGUICS2Pygame_simpleguics2pygame_canvas -->
<g id="edge14" class="edge"><title>SimpleGUICS2Pygame_simpleguics2pygame__colors&#45;&gt;SimpleGUICS2Pygame_simpleguics2pygame_canvas</title><style>.edge>path:hover{stroke-width:8}</style>
<path fill="none" stroke="black" d="M56.8365,-451.236C58.3161,-436.273 63.715,-432.141 75.8365,-423.245 81.706,-418.937 154.619,-397.486 213.525,-380.591"/>
<polygon fill="#bf2121" stroke="black" points="214.568,-383.933 223.218,-377.816 212.641,-377.204 214.568,-383.933"/>
</g>
<!-- SimpleGUICS2Pygame_simpleguics2pygame__colors&#45;&gt;SimpleGUICS2Pygame_simpleguics2pygame_frame -->
<g id="edge16" class="edge"><title>SimpleGUICS2Pygame_simpleguics2pygame__colors&#45;&gt;SimpleGUICS2Pygame_simpleguics2pygame_frame</title><style>.edge>path:hover{stroke-width:8}</style>
<path fill="none" stroke="black" d="M94.8038,-519.991C74.3138,-503.62 54.1578,-480.323 56.8365,-453.236"/>
<path fill="none" stroke="black" d="M56.8365,-451.236C69.2945,-325.256 235.781,-284.59 345.996,-271.482"/>
<polygon fill="#bf2121" stroke="black" points="346.605,-274.936 356.148,-270.334 345.817,-267.98 346.605,-274.936"/>
</g>
<!-- SimpleGUICS2Pygame_simplegui_lib_keys -->
<g id="node10" class="node"><title>SimpleGUICS2Pygame_simplegui_lib_keys</title><style>.edge>path:hover{stroke-width:8}</style>
<ellipse fill="#b83d3d" stroke="black" cx="247.836" cy="-99.6396" rx="88.2768" ry="21.4286"/>
<text text-anchor="middle" x="247.836" y="-102.64" font-family="Helvetica,sans-Serif" font-size="10.00" fill="#ffffff">SimpleGUICS2Pygame.</text>
<text text-anchor="middle" x="247.836" y="-91.6396" font-family="Helvetica,sans-Serif" font-size="10.00" fill="#ffffff">simplegui_lib_keys</text>
</g>
<!-- SimpleGUICS2Pygame_simplegui_lib_keys&#45;&gt;SimpleGUICS2Pygame_simplegui_lib -->
<g id="edge3" class="edge"><title>SimpleGUICS2Pygame_simplegui_lib_keys&#45;&gt;SimpleGUICS2Pygame_simplegui_lib</title><style>.edge>path:hover{stroke-width:8}</style>
<path fill="none" stroke="black" d="M305.526,-83.5402C353.44,-70.9994 421.681,-53.1386 472.168,-39.9244"/>
<polygon fill="#b83d3d" stroke="black" points="473.229,-43.2646 482.017,-37.3465 471.457,-36.4927 473.229,-43.2646"/>
</g>
<!-- SimpleGUICS2Pygame_simpleguics2pygame_timer -->
<g id="node11" class="node"><title>SimpleGUICS2Pygame_simpleguics2pygame_timer</title><style>.edge>path:hover{stroke-width:8}</style>
<ellipse fill="#bc2f2f" stroke="black" cx="945.836" cy="-358.253" rx="88.2768" ry="28.9828"/>
<text text-anchor="middle" x="945.836" y="-366.753" font-family="Helvetica,sans-Serif" font-size="10.00" fill="#ffffff">SimpleGUICS2Pygame.</text>
<text text-anchor="middle" x="945.836" y="-355.753" font-family="Helvetica,sans-Serif" font-size="10.00" fill="#ffffff">simpleguics2pygame.</text>
<text text-anchor="middle" x="945.836" y="-344.753" font-family="Helvetica,sans-Serif" font-size="10.00" fill="#ffffff">timer</text>
</g>
<!-- SimpleGUICS2Pygame_simpleguics2pygame_timer&#45;&gt;SimpleGUICS2Pygame_simpleguics2pygame -->
<g id="edge45" class="edge"><title>SimpleGUICS2Pygame_simpleguics2pygame_timer&#45;&gt;SimpleGUICS2Pygame_simpleguics2pygame</title><style>.edge>path:hover{stroke-width:8}</style>
<path fill="none" stroke="black" d="M921.672,-330.199C906.019,-312.244 885.518,-287.902 868.836,-265.271"/>
</g>
<!-- SimpleGUICS2Pygame_simpleguics2pygame_timer&#45;&gt;SimpleGUICS2Pygame_simpleguics2pygame_frame -->
<g id="edge46" class="edge"><title>SimpleGUICS2Pygame_simpleguics2pygame_timer&#45;&gt;SimpleGUICS2Pygame_simpleguics2pygame_frame</title><style>.edge>path:hover{stroke-width:8}</style>
<path fill="none" stroke="black" d="M881.35,-338.409C868.959,-335.115 856.041,-331.902 843.836,-329.262 738.606,-306.498 616.22,-288.121 534.596,-276.998"/>
<polygon fill="#bc2f2f" stroke="black" points="534.73,-273.484 524.351,-275.611 533.791,-280.421 534.73,-273.484"/>
</g>
<!-- SimpleGUICS2Pygame_simpleguics2pygame_image&#45;&gt;SimpleGUICS2Pygame_simpleguics2pygame -->
<g id="edge39" class="edge"><title>SimpleGUICS2Pygame_simpleguics2pygame_image&#45;&gt;SimpleGUICS2Pygame_simpleguics2pygame</title><style>.edge>path:hover{stroke-width:8}</style>
<path fill="none" stroke="black" d="M501.603,-430.115C477.57,-419.533 450.282,-405.127 428.836,-387.245 404.196,-366.698 412.092,-347.701 385.836,-329.262 304.946,-272.452 133.16,-355.805 172.836,-265.271"/>
</g>
<!-- SimpleGUICS2Pygame_simpleguics2pygame_image&#45;&gt;SimpleGUICS2Pygame_simpleguics2pygame_canvas -->
<g id="edge40" class="edge"><title>SimpleGUICS2Pygame_simpleguics2pygame_image&#45;&gt;SimpleGUICS2Pygame_simpleguics2pygame_canvas</title><style>.edge>path:hover{stroke-width:8}</style>
<path fill="none" stroke="black" d="M498.915,-430.822C457.462,-416.7 402.161,-397.86 358.703,-383.055"/>
<polygon fill="#bf2121" stroke="black" points="359.651,-379.681 349.057,-379.769 357.394,-386.307 359.651,-379.681"/>
</g>
<!-- SimpleGUICS2Pygame_simpleguics2pygame_image&#45;&gt;SimpleGUICS2Pygame_simpleguics2pygame_frame -->
<g id="edge41" class="edge"><title>SimpleGUICS2Pygame_simpleguics2pygame_image&#45;&gt;SimpleGUICS2Pygame_simpleguics2pygame_frame</title><style>.edge>path:hover{stroke-width:8}</style>
<path fill="none" stroke="black" d="M509.566,-428.025C483.655,-412.683 454.835,-389.748 442.836,-359.253"/>
</g>
<!-- SimpleGUICS2Pygame_simpleguics2pygame_keys&#45;&gt;SimpleGUICS2Pygame_simpleguics2pygame -->
<g id="edge42" class="edge"><title>SimpleGUICS2Pygame_simpleguics2pygame_keys&#45;&gt;SimpleGUICS2Pygame_simpleguics2pygame</title><style>.edge>path:hover{stroke-width:8}</style>
<path fill="none" stroke="black" d="M710.956,-341.914C786.343,-324.316 890.127,-294.154 868.836,-265.271"/>
<path fill="none" stroke="black" d="M868.836,-263.271C830.518,-211.285 652.683,-191.167 539.239,-183.546"/>
<polygon fill="#ac2b2b" stroke="black" points="539.355,-180.047 529.149,-182.89 538.9,-187.032 539.355,-180.047"/>
</g>
<!-- SimpleGUICS2Pygame_simpleguics2pygame_keys&#45;&gt;SimpleGUICS2Pygame_simpleguics2pygame_frame -->
<g id="edge43" class="edge"><title>SimpleGUICS2Pygame_simpleguics2pygame_keys&#45;&gt;SimpleGUICS2Pygame_simpleguics2pygame_frame</title><style>.edge>path:hover{stroke-width:8}</style>
<path fill="none" stroke="black" d="M588.63,-334.042C562.071,-321.515 529.117,-305.97 501.262,-292.83"/>
<polygon fill="#ac2b2b" stroke="black" points="502.565,-289.575 492.027,-288.474 499.579,-295.906 502.565,-289.575"/>
</g>
<!-- SimpleGUICS2Pygame_simpleguics2pygame__fonts&#45;&gt;SimpleGUICS2Pygame_simpleguics2pygame_control -->
<g id="edge18" class="edge"><title>SimpleGUICS2Pygame_simpleguics2pygame__fonts&#45;&gt;SimpleGUICS2Pygame_simpleguics2pygame_control</title><style>.edge>path:hover{stroke-width:8}</style>
<path fill="none" stroke="black" d="M349.856,-523.42C316.174,-510.066 272.897,-492.908 237.564,-478.899"/>
<polygon fill="#b62020" stroke="black" points="238.41,-475.47 227.824,-475.037 235.83,-481.977 238.41,-475.47"/>
</g>
<!-- SimpleGUICS2Pygame_simpleguics2pygame__fonts&#45;&gt;SimpleGUICS2Pygame_simpleguics2pygame_canvas -->
<g id="edge17" class="edge"><title>SimpleGUICS2Pygame_simpleguics2pygame__fonts&#45;&gt;SimpleGUICS2Pygame_simpleguics2pygame_canvas</title><style>.edge>path:hover{stroke-width:8}</style>
<path fill="none" stroke="black" d="M407.66,-517.167C408.819,-498.802 409.049,-474.379 404.836,-453.236"/>
<path fill="none" stroke="black" d="M404.836,-451.236C399.156,-422.725 375.85,-401.452 351.602,-386.586"/>
<polygon fill="#b62020" stroke="black" points="353.064,-383.388 342.657,-381.398 349.551,-389.443 353.064,-383.388"/>
</g>
<!-- SimpleGUICS2Pygame_simpleguics2pygame__fonts&#45;&gt;SimpleGUICS2Pygame_simpleguics2pygame_frame -->
<g id="edge19" class="edge"><title>SimpleGUICS2Pygame_simpleguics2pygame__fonts&#45;&gt;SimpleGUICS2Pygame_simpleguics2pygame_frame</title><style>.edge>path:hover{stroke-width:8}</style>
<path fill="none" stroke="black" d="M404.836,-451.236C396.193,-407.856 459.031,-400.414 442.836,-359.253"/>
<path fill="none" stroke="black" d="M442.836,-357.253C436.203,-340.394 435.449,-320.412 436.666,-303.386"/>
<polygon fill="#b62020" stroke="black" points="440.17,-303.511 437.644,-293.222 433.203,-302.841 440.17,-303.511"/>
</g>
<!-- SimpleGUICS2Pygame_simpleplot -->
<g id="node15" class="node"><title>SimpleGUICS2Pygame_simpleplot</title><style>.edge>path:hover{stroke-width:8}</style>
<ellipse fill="#ac4949" stroke="black" cx="752.836" cy="-726.406" rx="88.2768" ry="21.4286"/>
<text text-anchor="middle" x="752.836" y="-729.406" font-family="Helvetica,sans-Serif" font-size="10.00" fill="#ffffff">SimpleGUICS2Pygame.</text>
<text text-anchor="middle" x="752.836" y="-718.406" font-family="Helvetica,sans-Serif" font-size="10.00" fill="#ffffff">simpleplot</text>
</g>
<!-- SimpleGUICS2Pygame_simpleguics2pygame__arguments -->
<g id="node16" class="node"><title>SimpleGUICS2Pygame_simpleguics2pygame__arguments</title><style>.edge>path:hover{stroke-width:8}</style>
<ellipse fill="#f90606" stroke="black" cx="947.836" cy="-640.202" rx="88.2768" ry="28.9828"/>
<text text-anchor="middle" x="947.836" y="-648.702" font-family="Helvetica,sans-Serif" font-size="10.00" fill="#ffffff">SimpleGUICS2Pygame.</text>
<text text-anchor="middle" x="947.836" y="-637.702" font-family="Helvetica,sans-Serif" font-size="10.00" fill="#ffffff">simpleguics2pygame.</text>
<text text-anchor="middle" x="947.836" y="-626.702" font-family="Helvetica,sans-Serif" font-size="10.00" fill="#ffffff">_arguments</text>
</g>
<!-- SimpleGUICS2Pygame_simpleguics2pygame__arguments&#45;&gt;SimpleGUICS2Pygame_simpleguics2pygame__media -->
<g id="edge10" class="edge"><title>SimpleGUICS2Pygame_simpleguics2pygame__arguments&#45;&gt;SimpleGUICS2Pygame_simpleguics2pygame__media</title><style>.edge>path:hover{stroke-width:8}</style>
<path fill="none" stroke="black" d="M914.906,-613.089C901.804,-602.7 886.588,-590.634 872.786,-579.69"/>
<polygon fill="#f90606" stroke="black" points="874.86,-576.868 864.849,-573.397 870.51,-582.352 874.86,-576.868"/>
</g>
<!-- SimpleGUICS2Pygame_simpleguics2pygame__arguments&#45;&gt;SimpleGUICS2Pygame_simpleguics2pygame_timer -->
<g id="edge13" class="edge"><title>SimpleGUICS2Pygame_simpleguics2pygame__arguments&#45;&gt;SimpleGUICS2Pygame_simpleguics2pygame_timer</title><style>.edge>path:hover{stroke-width:8}</style>
<path fill="none" stroke="black" d="M985.836,-451.236C981.967,-432.266 973.915,-412.424 966.042,-396.046"/>
<polygon fill="#f90606" stroke="black" points="969.047,-394.23 961.46,-386.835 962.78,-397.347 969.047,-394.23"/>
</g>
<!-- SimpleGUICS2Pygame_simpleguics2pygame__arguments&#45;&gt;SimpleGUICS2Pygame_simpleguics2pygame__fonts -->
<g id="edge9" class="edge"><title>SimpleGUICS2Pygame_simpleguics2pygame__arguments&#45;&gt;SimpleGUICS2Pygame_simpleguics2pygame__fonts</title><style>.edge>path:hover{stroke-width:8}</style>
<path fill="none" stroke="black" d="M884.275,-620.053C871.626,-616.727 858.377,-613.581 845.836,-611.21 696.959,-583.07 655.714,-603.351 506.836,-575.21 497.529,-573.451 487.832,-571.264 478.279,-568.894"/>
<polygon fill="#f90606" stroke="black" points="478.954,-565.454 468.398,-566.367 477.219,-572.236 478.954,-565.454"/>
</g>
<!-- SimpleGUICS2Pygame_simpleguics2pygame__arguments&#45;&gt;SimpleGUICS2Pygame_simpleguics2pygame -->
<g id="edge8" class="edge"><title>SimpleGUICS2Pygame_simpleguics2pygame__arguments&#45;&gt;SimpleGUICS2Pygame_simpleguics2pygame</title><style>.edge>path:hover{stroke-width:8}</style>
<path fill="none" stroke="black" d="M985.836,-451.236C977.084,-414.168 1029.28,-422.839 1042.84,-387.245 1052.01,-363.162 1057.58,-350.396 1042.84,-329.262 995.688,-261.687 922.514,-327.785 868.836,-265.271"/>
</g>
<!-- SimpleGUICS2Pygame_simpleguics2pygame__arguments&#45;&gt;SimpleGUICS2Pygame_simpleguics2pygame_frame -->
<g id="edge11" class="edge"><title>SimpleGUICS2Pygame_simpleguics2pygame__arguments&#45;&gt;SimpleGUICS2Pygame_simpleguics2pygame_frame</title><style>.edge>path:hover{stroke-width:8}</style>
<path fill="none" stroke="black" d="M985.836,-545.219C982.392,-504.483 994.006,-493.293 985.836,-453.236"/>
<path fill="none" stroke="black" d="M985.836,-451.236C972.407,-385.388 909.093,-417.001 848.836,-387.245 809.14,-367.642 808.478,-346.822 767.836,-329.262 694.401,-297.533 604.809,-281.391 538.303,-273.266"/>
<polygon fill="#f90606" stroke="black" points="538.591,-269.776 528.249,-272.077 537.769,-276.727 538.591,-269.776"/>
</g>
<!-- SimpleGUICS2Pygame_simpleguics2pygame__arguments&#45;&gt;SimpleGUICS2Pygame_simpleguics2pygame_sound -->
<g id="edge12" class="edge"><title>SimpleGUICS2Pygame_simpleguics2pygame__arguments&#45;&gt;SimpleGUICS2Pygame_simpleguics2pygame_sound</title><style>.edge>path:hover{stroke-width:8}</style>
<path fill="none" stroke="black" d="M967.064,-611.762C977.44,-594.05 987.772,-570.117 985.836,-547.219"/>
<path fill="none" stroke="black" d="M985.836,-545.219C983.367,-516.009 960.073,-494.569 935.001,-479.773"/>
<polygon fill="#f90606" stroke="black" points="936.53,-476.619 926.09,-474.815 933.126,-482.736 936.53,-476.619"/>
</g>
<!-- SimpleGUICS2Pygame_simpleguics2pygame&#45;&gt;SimpleGUICS2Pygame_simplegui_lib_loader -->
<g id="edge7" class="edge"><title>SimpleGUICS2Pygame_simpleguics2pygame&#45;&gt;SimpleGUICS2Pygame_simplegui_lib_loader</title><style>.edge>path:hover{stroke-width:8}</style>
<path fill="none" stroke="black" d="M442.836,-156.585C442.836,-148.726 442.836,-139.582 442.836,-130.992"/>
<polygon fill="#950303" stroke="black" points="446.337,-130.912 442.836,-120.912 439.337,-130.912 446.337,-130.912"/>
</g>
<!-- SimpleGUICS2Pygame_simpleguics2pygame&#45;&gt;SimpleGUICS2Pygame_simplegui_lib_fps -->
<g id="edge5" class="edge"><title>SimpleGUICS2Pygame_simpleguics2pygame&#45;&gt;SimpleGUICS2Pygame_simplegui_lib_fps</title><style>.edge>path:hover{stroke-width:8}</style>
<path fill="none" stroke="black" d="M510.445,-164.313C569.66,-153.081 658.007,-136.171 734.836,-120.853 742.383,-119.348 750.252,-117.759 758.107,-116.16"/>
<polygon fill="#950303" stroke="black" points="758.925,-119.565 768.022,-114.134 757.524,-112.707 758.925,-119.565"/>
</g>
<!-- SimpleGUICS2Pygame_simpleguics2pygame&#45;&gt;SimpleGUICS2Pygame_simplegui_lib_keys -->
<g id="edge6" class="edge"><title>SimpleGUICS2Pygame_simpleguics2pygame&#45;&gt;SimpleGUICS2Pygame_simplegui_lib_keys</title><style>.edge>path:hover{stroke-width:8}</style>
<path fill="none" stroke="black" d="M398.1,-159.532C369.487,-148.318 332.2,-133.704 301.928,-121.84"/>
<polygon fill="#950303" stroke="black" points="302.953,-118.482 292.365,-118.092 300.398,-125 302.953,-118.482"/>
</g>
<!-- SimpleGUICS2Pygame_simpleguics2pygame_canvas&#45;&gt;SimpleGUICS2Pygame_simpleguics2pygame -->
<g id="edge34" class="edge"><title>SimpleGUICS2Pygame_simpleguics2pygame_canvas&#45;&gt;SimpleGUICS2Pygame_simpleguics2pygame</title><style>.edge>path:hover{stroke-width:8}</style>
<path fill="none" stroke="black" d="M227.782,-337.011C192.918,-321.597 158.703,-297.521 172.836,-265.271"/>
</g>
<!-- SimpleGUICS2Pygame_simpleguics2pygame_canvas&#45;&gt;SimpleGUICS2Pygame_simpleguics2pygame_frame -->
<g id="edge35" class="edge"><title>SimpleGUICS2Pygame_simpleguics2pygame_canvas&#45;&gt;SimpleGUICS2Pygame_simpleguics2pygame_frame</title><style>.edge>path:hover{stroke-width:8}</style>
<path fill="none" stroke="black" d="M330.106,-332.604C349.353,-321.107 372.427,-307.325 392.673,-295.233"/>
<polygon fill="#9b2626" stroke="black" points="394.663,-298.121 401.453,-289.988 391.073,-292.111 394.663,-298.121"/>
</g>
<!-- SimpleGUICS2Pygame_simpleguics2pygame_frame&#45;&gt;SimpleGUICS2Pygame_simpleguics2pygame -->
<g id="edge38" class="edge"><title>SimpleGUICS2Pygame_simpleguics2pygame_frame&#45;&gt;SimpleGUICS2Pygame_simpleguics2pygame</title><style>.edge>path:hover{stroke-width:8}</style>
<path fill="none" stroke="black" d="M442.836,-235.232C442.836,-227.024 442.836,-218.01 442.836,-209.653"/>
<polygon fill="#732626" stroke="black" points="446.337,-209.527 442.836,-199.527 439.337,-209.527 446.337,-209.527"/>
</g>
<!-- SimpleGUICS2Pygame_simpleguics2pygame_sound&#45;&gt;SimpleGUICS2Pygame_simpleguics2pygame -->
<g id="edge44" class="edge"><title>SimpleGUICS2Pygame_simpleguics2pygame_sound&#45;&gt;SimpleGUICS2Pygame_simpleguics2pygame</title><style>.edge>path:hover{stroke-width:8}</style>
<path fill="none" stroke="black" d="M858.56,-423.363C854.656,-412.311 850.775,-399.368 848.836,-387.245 844.768,-361.798 844.948,-354.737 848.836,-329.262 853.332,-299.806 886.516,-289.256 868.836,-265.271"/>
</g>
<!-- matplotlib -->
<g id="node21" class="node"><title>matplotlib</title><style>.edge>path:hover{stroke-width:8}</style>
<polygon fill="#4cb34c" stroke="black" points="782.336,-856.619 779.336,-860.619 758.336,-860.619 755.336,-856.619 723.336,-856.619 723.336,-820.619 782.336,-820.619 782.336,-856.619"/>
<text text-anchor="middle" x="752.836" y="-836.119" font-family="Helvetica,sans-Serif" font-size="10.00" fill="#000000">matplotlib</text>
</g>
<!-- matplotlib&#45;&gt;SimpleGUICS2Pygame_simpleplot -->
<g id="edge47" class="edge"><title>matplotlib&#45;&gt;SimpleGUICS2Pygame_simpleplot</title><style>.edge>path:hover{stroke-width:8}</style>
<path fill="none" stroke="black" d="M752.836,-820.399C752.836,-803.771 752.836,-778.225 752.836,-758.112"/>
<polygon fill="#4cb34c" stroke="black" points="756.337,-757.878 752.836,-747.878 749.337,-757.878 756.337,-757.878"/>
</g>
<!-- pygame -->
<g id="node22" class="node"><title>pygame</title><style>.edge>path:hover{stroke-width:8}</style>
<polygon fill="#4747c2" stroke="black" points="663.836,-856.619 660.836,-860.619 639.836,-860.619 636.836,-856.619 609.836,-856.619 609.836,-820.619 663.836,-820.619 663.836,-856.619"/>
<text text-anchor="middle" x="636.836" y="-836.119" font-family="Helvetica,sans-Serif" font-size="10.00" fill="#ffffff">pygame</text>
</g>
<!-- pygame&#45;&gt;SimpleGUICS2Pygame_simpleguics2pygame__joypads -->
<g id="edge50" class="edge"><title>pygame&#45;&gt;SimpleGUICS2Pygame_simpleguics2pygame__joypads</title><style>.edge>path:hover{stroke-width:8}</style>
<path fill="none" stroke="black" d="M636.836,-725.406C607.314,-635.74 791.569,-726.584 831.836,-641.202"/>
<path fill="none" stroke="black" d="M831.836,-639.202C838.104,-625.913 763.332,-594.324 704.57,-571.882"/>
<polygon fill="#4747c2" stroke="black" points="705.513,-568.496 694.922,-568.224 703.031,-575.042 705.513,-568.496"/>
</g>
<!-- pygame&#45;&gt;SimpleGUICS2Pygame_simpleguics2pygame_control -->
<g id="edge54" class="edge"><title>pygame&#45;&gt;SimpleGUICS2Pygame_simpleguics2pygame_control</title><style>.edge>path:hover{stroke-width:8}</style>
<path fill="none" stroke="black" d="M250.836,-639.202C207.395,-605.691 255.685,-566.638 231.836,-517.227 226.551,-506.277 218.759,-495.888 210.558,-486.789"/>
<polygon fill="#4747c2" stroke="black" points="213.038,-484.318 203.619,-479.466 207.957,-489.132 213.038,-484.318"/>
</g>
<!-- pygame&#45;&gt;SimpleGUICS2Pygame_simpleguics2pygame__pygame_init -->
<g id="edge52" class="edge"><title>pygame&#45;&gt;SimpleGUICS2Pygame_simpleguics2pygame__pygame_init</title><style>.edge>path:hover{stroke-width:8}</style>
<path fill="none" stroke="black" d="M636.836,-725.406C632.054,-710.881 631.18,-694.166 631.819,-679.476"/>
<polygon fill="#4747c2" stroke="black" points="635.331,-679.413 632.517,-669.199 628.347,-678.938 635.331,-679.413"/>
</g>
<!-- pygame&#45;&gt;SimpleGUICS2Pygame_simpleguics2pygame__media -->
<g id="edge51" class="edge"><title>pygame&#45;&gt;SimpleGUICS2Pygame_simpleguics2pygame__media</title><style>.edge>path:hover{stroke-width:8}</style>
<path fill="none" stroke="black" d="M831.836,-639.202C839.565,-622.815 840.443,-602.887 839.025,-585.775"/>
<polygon fill="#4747c2" stroke="black" points="842.471,-585.092 837.886,-575.54 835.514,-585.866 842.471,-585.092"/>
</g>
<!-- pygame&#45;&gt;SimpleGUICS2Pygame_simpleguics2pygame__colors -->
<g id="edge48" class="edge"><title>pygame&#45;&gt;SimpleGUICS2Pygame_simpleguics2pygame__colors</title><style>.edge>path:hover{stroke-width:8}</style>
<path fill="none" stroke="black" d="M250.836,-639.202C225.462,-619.628 197.287,-597.3 175.059,-579.545"/>
<polygon fill="#4747c2" stroke="black" points="177.15,-576.736 167.155,-573.224 172.778,-582.203 177.15,-576.736"/>
</g>
<!-- pygame&#45;&gt;SimpleGUICS2Pygame_simpleguics2pygame_keys -->
<g id="edge56" class="edge"><title>pygame&#45;&gt;SimpleGUICS2Pygame_simpleguics2pygame_keys</title><style>.edge>path:hover{stroke-width:8}</style>
<path fill="none" stroke="black" d="M831.836,-639.202C838.25,-625.602 839.37,-620.936 850.836,-611.21 879.954,-586.513 908.259,-607.371 928.836,-575.21 942.725,-553.503 944.88,-537.395 928.836,-517.227 884.538,-461.543 831.538,-521.442 772.836,-481.227 760.432,-472.73 764.996,-463.313 753.836,-453.236"/>
<path fill="none" stroke="black" d="M753.836,-451.236C741.614,-439.886 741.296,-434.335 728.836,-423.245 715.692,-411.544 700.376,-400.066 686.099,-390.134"/>
<polygon fill="#4747c2" stroke="black" points="688.066,-387.239 677.838,-384.475 684.11,-393.014 688.066,-387.239"/>
</g>
<!-- pygame&#45;&gt;SimpleGUICS2Pygame_simpleguics2pygame__fonts -->
<g id="edge49" class="edge"><title>pygame&#45;&gt;SimpleGUICS2Pygame_simpleguics2pygame__fonts</title><style>.edge>path:hover{stroke-width:8}</style>
<path fill="none" stroke="black" d="M250.836,-639.202C214.374,-611.075 271.417,-584.751 326.108,-567.532"/>
<polygon fill="#4747c2" stroke="black" points="327.376,-570.805 335.914,-564.531 325.327,-564.111 327.376,-570.805"/>
</g>
<!-- pygame&#45;&gt;SimpleGUICS2Pygame_simpleguics2pygame_canvas -->
<g id="edge53" class="edge"><title>pygame&#45;&gt;SimpleGUICS2Pygame_simpleguics2pygame_canvas</title><style>.edge>path:hover{stroke-width:8}</style>
<path fill="none" stroke="black" d="M640.101,-820.291C643.549,-798.126 647.189,-758.848 636.836,-727.406"/>
<path fill="none" stroke="black" d="M636.836,-725.406C605.1,-643.548 321.175,-693.742 250.836,-641.202"/>
<path fill="none" stroke="black" d="M250.836,-639.202C171.644,-580.047 96.8254,-654.526 37.8365,-575.21 25.2894,-558.34 30.5062,-438.2 42.8365,-423.245 84.8024,-372.344 123.023,-403.975 186.836,-387.245 195.29,-385.028 204.125,-382.669 212.908,-380.296"/>
<polygon fill="#4747c2" stroke="black" points="214.045,-383.614 222.779,-377.618 212.212,-376.858 214.045,-383.614"/>
</g>
<!-- pygame&#45;&gt;SimpleGUICS2Pygame_simpleguics2pygame_frame -->
<g id="edge55" class="edge"><title>pygame&#45;&gt;SimpleGUICS2Pygame_simpleguics2pygame_frame</title><style>.edge>path:hover{stroke-width:8}</style>
<path fill="none" stroke="black" d="M753.836,-451.236C713.633,-413.903 772.426,-369.226 734.836,-329.262 708.081,-300.817 611.872,-283.701 537.114,-274.424"/>
<polygon fill="#4747c2" stroke="black" points="537.531,-270.949 527.183,-273.222 536.69,-277.899 537.531,-270.949"/>
</g>
</g>
</svg>
