<?xml version="1.0" encoding="UTF-8" standalone="no"?>
<!DOCTYPE svg PUBLIC "-//W3C//DTD SVG 1.1//EN"
 "http://www.w3.org/Graphics/SVG/1.1/DTD/svg11.dtd">
<!-- Generated by graphviz version 2.38.0 (20140413.2041)
 -->
<!-- Title: G Pages: 1 -->
<svg width="1150pt" height="865pt"
 viewBox="0.00 0.00 1150.01 864.62" xmlns="http://www.w3.org/2000/svg" xmlns:xlink="http://www.w3.org/1999/xlink">
<g id="graph0" class="graph" transform="scale(1 1) rotate(0) translate(4 860.619)">
<title>G</title><style>.edge>path:hover{stroke-width:8}</style>
<polygon fill="white" stroke="none" points="-4,4 -4,-860.619 1146.01,-860.619 1146.01,4 -4,4"/>
<!-- SimpleGUICS2Pygame_simplegui_lib_draw -->
<g id="node1" class="node"><title>SimpleGUICS2Pygame_simplegui_lib_draw</title><style>.edge>path:hover{stroke-width:8}</style>
<ellipse fill="#c04040" stroke="black" cx="126.504" cy="-99.6396" rx="88.2768" ry="21.4286"/>
<text text-anchor="middle" x="126.504" y="-102.64" font-family="Helvetica,sans-Serif" font-size="10.00" fill="#ffffff">SimpleGUICS2Pygame.</text>
<text text-anchor="middle" x="126.504" y="-91.6396" font-family="Helvetica,sans-Serif" font-size="10.00" fill="#ffffff">simplegui_lib_draw</text>
</g>
<!-- SimpleGUICS2Pygame_simplegui_lib -->
<g id="node2" class="node"><title>SimpleGUICS2Pygame_simplegui_lib</title><style>.edge>path:hover{stroke-width:8}</style>
<ellipse fill="#964040" stroke="black" cx="418.504" cy="-21.2132" rx="88.2768" ry="21.4286"/>
<text text-anchor="middle" x="418.504" y="-24.2132" font-family="Helvetica,sans-Serif" font-size="10.00" fill="#ffffff">SimpleGUICS2Pygame.</text>
<text text-anchor="middle" x="418.504" y="-13.2132" font-family="Helvetica,sans-Serif" font-size="10.00" fill="#ffffff">simplegui_lib</text>
</g>
<!-- SimpleGUICS2Pygame_simplegui_lib_draw&#45;&gt;SimpleGUICS2Pygame_simplegui_lib -->
<g id="edge1" class="edge"><title>SimpleGUICS2Pygame_simplegui_lib_draw&#45;&gt;SimpleGUICS2Pygame_simplegui_lib</title><style>.edge>path:hover{stroke-width:8}</style>
<path fill="none" stroke="black" d="M184.194,-83.5402C232.108,-70.9994 300.348,-53.1386 350.835,-39.9244"/>
<polygon fill="#c04040" stroke="black" points="351.897,-43.2646 360.685,-37.3465 350.124,-36.4927 351.897,-43.2646"/>
</g>
<!-- SimpleGUICS2Pygame_simpleguics2pygame_canvas -->
<g id="node3" class="node"><title>SimpleGUICS2Pygame_simpleguics2pygame_canvas</title><style>.edge>path:hover{stroke-width:8}</style>
<ellipse fill="#9b2626" stroke="black" cx="304.504" cy="-358.253" rx="88.2768" ry="28.9828"/>
<text text-anchor="middle" x="304.504" y="-366.753" font-family="Helvetica,sans-Serif" font-size="10.00" fill="#ffffff">SimpleGUICS2Pygame.</text>
<text text-anchor="middle" x="304.504" y="-355.753" font-family="Helvetica,sans-Serif" font-size="10.00" fill="#ffffff">simpleguics2pygame.</text>
<text text-anchor="middle" x="304.504" y="-344.753" font-family="Helvetica,sans-Serif" font-size="10.00" fill="#ffffff">canvas</text>
</g>
<!-- SimpleGUICS2Pygame_simpleguics2pygame -->
<g id="node9" class="node"><title>SimpleGUICS2Pygame_simpleguics2pygame</title><style>.edge>path:hover{stroke-width:8}</style>
<ellipse fill="#950303" stroke="black" cx="516.504" cy="-178.066" rx="88.2768" ry="21.4286"/>
<text text-anchor="middle" x="516.504" y="-181.066" font-family="Helvetica,sans-Serif" font-size="10.00" fill="#ffffff">SimpleGUICS2Pygame.</text>
<text text-anchor="middle" x="516.504" y="-170.066" font-family="Helvetica,sans-Serif" font-size="10.00" fill="#ffffff">simpleguics2pygame</text>
</g>
<!-- SimpleGUICS2Pygame_simpleguics2pygame_canvas&#45;&gt;SimpleGUICS2Pygame_simpleguics2pygame -->
<g id="edge34" class="edge"><title>SimpleGUICS2Pygame_simpleguics2pygame_canvas&#45;&gt;SimpleGUICS2Pygame_simpleguics2pygame</title><style>.edge>path:hover{stroke-width:8}</style>
<path fill="none" stroke="black" d="M243.526,-337.045C208.697,-321.645 174.49,-297.573 188.504,-265.271"/>
</g>
<!-- SimpleGUICS2Pygame_simpleguics2pygame_frame -->
<g id="node17" class="node"><title>SimpleGUICS2Pygame_simpleguics2pygame_frame</title><style>.edge>path:hover{stroke-width:8}</style>
<ellipse fill="#732626" stroke="black" cx="516.504" cy="-264.271" rx="88.2768" ry="28.9828"/>
<text text-anchor="middle" x="516.504" y="-272.771" font-family="Helvetica,sans-Serif" font-size="10.00" fill="#ffffff">SimpleGUICS2Pygame.</text>
<text text-anchor="middle" x="516.504" y="-261.771" font-family="Helvetica,sans-Serif" font-size="10.00" fill="#ffffff">simpleguics2pygame.</text>
<text text-anchor="middle" x="516.504" y="-250.771" font-family="Helvetica,sans-Serif" font-size="10.00" fill="#ffffff">frame</text>
</g>
<!-- SimpleGUICS2Pygame_simpleguics2pygame_canvas&#45;&gt;SimpleGUICS2Pygame_simpleguics2pygame_frame -->
<g id="edge35" class="edge"><title>SimpleGUICS2Pygame_simpleguics2pygame_canvas&#45;&gt;SimpleGUICS2Pygame_simpleguics2pygame_frame</title><style>.edge>path:hover{stroke-width:8}</style>
<path fill="none" stroke="black" d="M356.365,-334.752C386.137,-321.834 423.698,-305.537 454.96,-291.973"/>
<polygon fill="#9b2626" stroke="black" points="456.663,-295.05 464.443,-287.859 453.877,-288.628 456.663,-295.05"/>
</g>
<!-- SimpleGUICS2Pygame_simpleguics2pygame__fonts -->
<g id="node4" class="node"><title>SimpleGUICS2Pygame_simpleguics2pygame__fonts</title><style>.edge>path:hover{stroke-width:8}</style>
<ellipse fill="#b62020" stroke="black" cx="400.504" cy="-546.219" rx="88.2768" ry="28.9828"/>
<text text-anchor="middle" x="400.504" y="-554.719" font-family="Helvetica,sans-Serif" font-size="10.00" fill="#ffffff">SimpleGUICS2Pygame.</text>
<text text-anchor="middle" x="400.504" y="-543.719" font-family="Helvetica,sans-Serif" font-size="10.00" fill="#ffffff">simpleguics2pygame.</text>
<text text-anchor="middle" x="400.504" y="-532.719" font-family="Helvetica,sans-Serif" font-size="10.00" fill="#ffffff">_fonts</text>
</g>
<!-- SimpleGUICS2Pygame_simpleguics2pygame__fonts&#45;&gt;SimpleGUICS2Pygame_simpleguics2pygame_canvas -->
<g id="edge17" class="edge"><title>SimpleGUICS2Pygame_simpleguics2pygame__fonts&#45;&gt;SimpleGUICS2Pygame_simpleguics2pygame_canvas</title><style>.edge>path:hover{stroke-width:8}</style>
<path fill="none" stroke="black" d="M438.385,-519.698C457.809,-503.377 477.607,-480.231 478.504,-453.236"/>
<path fill="none" stroke="black" d="M478.504,-451.236C479.932,-408.216 437.822,-385.261 394.676,-373.042"/>
<polygon fill="#b62020" stroke="black" points="395.45,-369.626 384.887,-370.449 393.658,-376.393 395.45,-369.626"/>
</g>
<!-- SimpleGUICS2Pygame_simpleguics2pygame_control -->
<g id="node7" class="node"><title>SimpleGUICS2Pygame_simpleguics2pygame_control</title><style>.edge>path:hover{stroke-width:8}</style>
<ellipse fill="#a32828" stroke="black" cx="188.504" cy="-452.236" rx="88.2768" ry="28.9828"/>
<text text-anchor="middle" x="188.504" y="-460.736" font-family="Helvetica,sans-Serif" font-size="10.00" fill="#ffffff">SimpleGUICS2Pygame.</text>
<text text-anchor="middle" x="188.504" y="-449.736" font-family="Helvetica,sans-Serif" font-size="10.00" fill="#ffffff">simpleguics2pygame.</text>
<text text-anchor="middle" x="188.504" y="-438.736" font-family="Helvetica,sans-Serif" font-size="10.00" fill="#ffffff">control</text>
</g>
<!-- SimpleGUICS2Pygame_simpleguics2pygame__fonts&#45;&gt;SimpleGUICS2Pygame_simpleguics2pygame_control -->
<g id="edge18" class="edge"><title>SimpleGUICS2Pygame_simpleguics2pygame__fonts&#45;&gt;SimpleGUICS2Pygame_simpleguics2pygame_control</title><style>.edge>path:hover{stroke-width:8}</style>
<path fill="none" stroke="black" d="M348.643,-522.717C318.871,-509.8 281.309,-493.503 250.048,-479.939"/>
<polygon fill="#b62020" stroke="black" points="251.131,-476.594 240.564,-475.824 248.345,-483.015 251.131,-476.594"/>
</g>
<!-- SimpleGUICS2Pygame_simpleguics2pygame__fonts&#45;&gt;SimpleGUICS2Pygame_simpleguics2pygame_frame -->
<g id="edge19" class="edge"><title>SimpleGUICS2Pygame_simpleguics2pygame__fonts&#45;&gt;SimpleGUICS2Pygame_simpleguics2pygame_frame</title><style>.edge>path:hover{stroke-width:8}</style>
<path fill="none" stroke="black" d="M478.504,-451.236C479.972,-407.028 531.454,-400.883 516.504,-359.253"/>
<path fill="none" stroke="black" d="M516.504,-357.253C510.425,-340.326 509.695,-320.49 510.784,-303.581"/>
<polygon fill="#b62020" stroke="black" points="514.282,-303.749 511.665,-293.482 507.309,-303.14 514.282,-303.749"/>
</g>
<!-- SimpleGUICS2Pygame_simpleguics2pygame__arguments -->
<g id="node5" class="node"><title>SimpleGUICS2Pygame_simpleguics2pygame__arguments</title><style>.edge>path:hover{stroke-width:8}</style>
<ellipse fill="#f90606" stroke="black" cx="902.504" cy="-640.202" rx="88.2768" ry="28.9828"/>
<text text-anchor="middle" x="902.504" y="-648.702" font-family="Helvetica,sans-Serif" font-size="10.00" fill="#ffffff">SimpleGUICS2Pygame.</text>
<text text-anchor="middle" x="902.504" y="-637.702" font-family="Helvetica,sans-Serif" font-size="10.00" fill="#ffffff">simpleguics2pygame.</text>
<text text-anchor="middle" x="902.504" y="-626.702" font-family="Helvetica,sans-Serif" font-size="10.00" fill="#ffffff">_arguments</text>
</g>
<!-- SimpleGUICS2Pygame_simpleguics2pygame__arguments&#45;&gt;SimpleGUICS2Pygame_simpleguics2pygame__fonts -->
<g id="edge9" class="edge"><title>SimpleGUICS2Pygame_simpleguics2pygame__arguments&#45;&gt;SimpleGUICS2Pygame_simpleguics2pygame__fonts</title><style>.edge>path:hover{stroke-width:8}</style>
<path fill="none" stroke="black" d="M838.641,-620.125C826.077,-616.813 812.937,-613.653 800.504,-611.21 669.6,-585.488 633.408,-600.933 502.504,-575.21 493.276,-573.397 483.659,-571.189 474.177,-568.817"/>
<polygon fill="#f90606" stroke="black" points="474.923,-565.395 464.366,-566.295 473.18,-572.175 474.923,-565.395"/>
</g>
<!-- SimpleGUICS2Pygame_simpleguics2pygame_timer -->
<g id="node6" class="node"><title>SimpleGUICS2Pygame_simpleguics2pygame_timer</title><style>.edge>path:hover{stroke-width:8}</style>
<ellipse fill="#bc2f2f" stroke="black" cx="1018.5" cy="-358.253" rx="88.2768" ry="28.9828"/>
<text text-anchor="middle" x="1018.5" y="-366.753" font-family="Helvetica,sans-Serif" font-size="10.00" fill="#ffffff">SimpleGUICS2Pygame.</text>
<text text-anchor="middle" x="1018.5" y="-355.753" font-family="Helvetica,sans-Serif" font-size="10.00" fill="#ffffff">simpleguics2pygame.</text>
<text text-anchor="middle" x="1018.5" y="-344.753" font-family="Helvetica,sans-Serif" font-size="10.00" fill="#ffffff">timer</text>
</g>
<!-- SimpleGUICS2Pygame_simpleguics2pygame__arguments&#45;&gt;SimpleGUICS2Pygame_simpleguics2pygame_timer -->
<g id="edge13" class="edge"><title>SimpleGUICS2Pygame_simpleguics2pygame__arguments&#45;&gt;SimpleGUICS2Pygame_simpleguics2pygame_timer</title><style>.edge>path:hover{stroke-width:8}</style>
<path fill="none" stroke="black" d="M1018.5,-545.219C1046.82,-485.828 1123.47,-518.102 1134.5,-453.236"/>
<path fill="none" stroke="black" d="M1134.5,-451.236C1139.62,-421.17 1115.07,-399.215 1087.26,-384.31"/>
<polygon fill="#f90606" stroke="black" points="1088.65,-381.093 1078.15,-379.717 1085.5,-387.344 1088.65,-381.093"/>
</g>
<!-- SimpleGUICS2Pygame_simpleguics2pygame__arguments&#45;&gt;SimpleGUICS2Pygame_simpleguics2pygame -->
<g id="edge8" class="edge"><title>SimpleGUICS2Pygame_simpleguics2pygame__arguments&#45;&gt;SimpleGUICS2Pygame_simpleguics2pygame</title><style>.edge>path:hover{stroke-width:8}</style>
<path fill="none" stroke="black" d="M1134.5,-451.236C1143.7,-397.148 1149.44,-372.371 1115.5,-329.262 1069.4,-270.701 1006.14,-324.195 960.504,-265.271"/>
</g>
<!-- SimpleGUICS2Pygame_simpleguics2pygame_sound -->
<g id="node13" class="node"><title>SimpleGUICS2Pygame_simpleguics2pygame_sound</title><style>.edge>path:hover{stroke-width:8}</style>
<ellipse fill="#a83838" stroke="black" cx="1018.5" cy="-452.236" rx="88.2768" ry="28.9828"/>
<text text-anchor="middle" x="1018.5" y="-460.736" font-family="Helvetica,sans-Serif" font-size="10.00" fill="#ffffff">SimpleGUICS2Pygame.</text>
<text text-anchor="middle" x="1018.5" y="-449.736" font-family="Helvetica,sans-Serif" font-size="10.00" fill="#ffffff">simpleguics2pygame.</text>
<text text-anchor="middle" x="1018.5" y="-438.736" font-family="Helvetica,sans-Serif" font-size="10.00" fill="#ffffff">sound</text>
</g>
<!-- SimpleGUICS2Pygame_simpleguics2pygame__arguments&#45;&gt;SimpleGUICS2Pygame_simpleguics2pygame_sound -->
<g id="edge12" class="edge"><title>SimpleGUICS2Pygame_simpleguics2pygame__arguments&#45;&gt;SimpleGUICS2Pygame_simpleguics2pygame_sound</title><style>.edge>path:hover{stroke-width:8}</style>
<path fill="none" stroke="black" d="M1018.5,-545.219C1026.36,-528.746 1027.2,-508.65 1025.73,-491.448"/>
<polygon fill="#f90606" stroke="black" points="1029.16,-490.707 1024.55,-481.17 1022.21,-491.503 1029.16,-490.707"/>
</g>
<!-- SimpleGUICS2Pygame_simpleguics2pygame__media -->
<g id="node15" class="node"><title>SimpleGUICS2Pygame_simpleguics2pygame__media</title><style>.edge>path:hover{stroke-width:8}</style>
<ellipse fill="#b62020" stroke="black" cx="902.504" cy="-546.219" rx="88.2768" ry="28.9828"/>
<text text-anchor="middle" x="902.504" y="-554.719" font-family="Helvetica,sans-Serif" font-size="10.00" fill="#ffffff">SimpleGUICS2Pygame.</text>
<text text-anchor="middle" x="902.504" y="-543.719" font-family="Helvetica,sans-Serif" font-size="10.00" fill="#ffffff">simpleguics2pygame.</text>
<text text-anchor="middle" x="902.504" y="-532.719" font-family="Helvetica,sans-Serif" font-size="10.00" fill="#ffffff">_media</text>
</g>
<!-- SimpleGUICS2Pygame_simpleguics2pygame__arguments&#45;&gt;SimpleGUICS2Pygame_simpleguics2pygame__media -->
<g id="edge10" class="edge"><title>SimpleGUICS2Pygame_simpleguics2pygame__arguments&#45;&gt;SimpleGUICS2Pygame_simpleguics2pygame__media</title><style>.edge>path:hover{stroke-width:8}</style>
<path fill="none" stroke="black" d="M902.504,-611.104C902.504,-603.066 902.504,-594.164 902.504,-585.621"/>
<polygon fill="#f90606" stroke="black" points="906.004,-585.461 902.504,-575.461 899.004,-585.461 906.004,-585.461"/>
</g>
<!-- SimpleGUICS2Pygame_simpleguics2pygame__arguments&#45;&gt;SimpleGUICS2Pygame_simpleguics2pygame_frame -->
<g id="edge11" class="edge"><title>SimpleGUICS2Pygame_simpleguics2pygame__arguments&#45;&gt;SimpleGUICS2Pygame_simpleguics2pygame_frame</title><style>.edge>path:hover{stroke-width:8}</style>
<path fill="none" stroke="black" d="M949.586,-615.664C975.118,-600.09 1004.29,-577.03 1018.5,-547.219"/>
<path fill="none" stroke="black" d="M1018.5,-545.219C1024.98,-531.647 1010.97,-526.953 999.504,-517.227 970.386,-492.531 950.622,-505.924 921.504,-481.227 910.037,-471.502 909.355,-466.62 902.504,-453.236"/>
</g>
<!-- SimpleGUICS2Pygame_simpleguics2pygame_timer&#45;&gt;SimpleGUICS2Pygame_simpleguics2pygame -->
<g id="edge45" class="edge"><title>SimpleGUICS2Pygame_simpleguics2pygame_timer&#45;&gt;SimpleGUICS2Pygame_simpleguics2pygame</title><style>.edge>path:hover{stroke-width:8}</style>
<path fill="none" stroke="black" d="M1002.56,-329.561C991.458,-310.913 975.932,-286.029 960.504,-265.271"/>
</g>
<!-- SimpleGUICS2Pygame_simpleguics2pygame_timer&#45;&gt;SimpleGUICS2Pygame_simpleguics2pygame_frame -->
<g id="edge46" class="edge"><title>SimpleGUICS2Pygame_simpleguics2pygame_timer&#45;&gt;SimpleGUICS2Pygame_simpleguics2pygame_frame</title><style>.edge>path:hover{stroke-width:8}</style>
<path fill="none" stroke="black" d="M944.816,-342.199C923.445,-337.92 900.061,-333.322 878.504,-329.262 784.908,-311.635 677.42,-292.814 604.042,-280.18"/>
<polygon fill="#bc2f2f" stroke="black" points="604.368,-276.685 593.92,-278.44 603.182,-283.584 604.368,-276.685"/>
</g>
<!-- SimpleGUICS2Pygame_simpleguics2pygame_control&#45;&gt;SimpleGUICS2Pygame_simpleguics2pygame -->
<g id="edge36" class="edge"><title>SimpleGUICS2Pygame_simpleguics2pygame_control&#45;&gt;SimpleGUICS2Pygame_simpleguics2pygame</title><style>.edge>path:hover{stroke-width:8}</style>
<path fill="none" stroke="black" d="M181.718,-423.013C174.118,-385.272 165.63,-317.11 188.504,-265.271"/>
</g>
<!-- SimpleGUICS2Pygame_simpleguics2pygame_control&#45;&gt;SimpleGUICS2Pygame_simpleguics2pygame_frame -->
<g id="edge37" class="edge"><title>SimpleGUICS2Pygame_simpleguics2pygame_control&#45;&gt;SimpleGUICS2Pygame_simpleguics2pygame_frame</title><style>.edge>path:hover{stroke-width:8}</style>
<path fill="none" stroke="black" d="M265.984,-438.156C308.281,-428.587 360.277,-412.711 401.504,-387.245 437.744,-364.859 470.135,-328.202 491.232,-300.908"/>
<polygon fill="#a32828" stroke="black" points="494.154,-302.847 497.409,-292.764 488.577,-298.617 494.154,-302.847"/>
</g>
<!-- SimpleGUICS2Pygame_simpleguics2pygame__colors -->
<g id="node8" class="node"><title>SimpleGUICS2Pygame_simpleguics2pygame__colors</title><style>.edge>path:hover{stroke-width:8}</style>
<ellipse fill="#bf2121" stroke="black" cx="130.504" cy="-546.219" rx="88.2768" ry="28.9828"/>
<text text-anchor="middle" x="130.504" y="-554.719" font-family="Helvetica,sans-Serif" font-size="10.00" fill="#ffffff">SimpleGUICS2Pygame.</text>
<text text-anchor="middle" x="130.504" y="-543.719" font-family="Helvetica,sans-Serif" font-size="10.00" fill="#ffffff">simpleguics2pygame.</text>
<text text-anchor="middle" x="130.504" y="-532.719" font-family="Helvetica,sans-Serif" font-size="10.00" fill="#ffffff">_colors</text>
</g>
<!-- SimpleGUICS2Pygame_simpleguics2pygame__colors&#45;&gt;SimpleGUICS2Pygame_simpleguics2pygame_canvas -->
<g id="edge14" class="edge"><title>SimpleGUICS2Pygame_simpleguics2pygame__colors&#45;&gt;SimpleGUICS2Pygame_simpleguics2pygame_canvas</title><style>.edge>path:hover{stroke-width:8}</style>
<path fill="none" stroke="black" d="M72.5038,-451.236C75.025,-436.413 79.3824,-432.141 91.5038,-423.245 127.162,-397.073 173.558,-381.511 213.942,-372.303"/>
<polygon fill="#bf2121" stroke="black" points="214.775,-375.704 223.8,-370.153 213.283,-368.865 214.775,-375.704"/>
</g>
<!-- SimpleGUICS2Pygame_simpleguics2pygame__colors&#45;&gt;SimpleGUICS2Pygame_simpleguics2pygame_control -->
<g id="edge15" class="edge"><title>SimpleGUICS2Pygame_simpleguics2pygame__colors&#45;&gt;SimpleGUICS2Pygame_simpleguics2pygame_control</title><style>.edge>path:hover{stroke-width:8}</style>
<path fill="none" stroke="black" d="M147.906,-517.621C153.469,-508.799 159.713,-498.895 165.606,-489.55"/>
<polygon fill="#bf2121" stroke="black" points="168.741,-491.14 171.114,-480.814 162.82,-487.406 168.741,-491.14"/>
</g>
<!-- SimpleGUICS2Pygame_simpleguics2pygame__colors&#45;&gt;SimpleGUICS2Pygame_simpleguics2pygame_frame -->
<g id="edge16" class="edge"><title>SimpleGUICS2Pygame_simpleguics2pygame__colors&#45;&gt;SimpleGUICS2Pygame_simpleguics2pygame_frame</title><style>.edge>path:hover{stroke-width:8}</style>
<path fill="none" stroke="black" d="M99.9216,-518.674C83.8763,-501.491 68.3253,-477.803 72.5038,-453.236"/>
<path fill="none" stroke="black" d="M72.5038,-451.236C96.9694,-307.393 294.579,-273.255 417.784,-266.089"/>
<polygon fill="#bf2121" stroke="black" points="418.193,-269.572 427.993,-265.547 417.822,-262.582 418.193,-269.572"/>
</g>
<!-- SimpleGUICS2Pygame_simplegui_lib_loader -->
<g id="node11" class="node"><title>SimpleGUICS2Pygame_simplegui_lib_loader</title><style>.edge>path:hover{stroke-width:8}</style>
<ellipse fill="#b83d3d" stroke="black" cx="516.504" cy="-99.6396" rx="88.2768" ry="21.4286"/>
<text text-anchor="middle" x="516.504" y="-102.64" font-family="Helvetica,sans-Serif" font-size="10.00" fill="#ffffff">SimpleGUICS2Pygame.</text>
<text text-anchor="middle" x="516.504" y="-91.6396" font-family="Helvetica,sans-Serif" font-size="10.00" fill="#ffffff">simplegui_lib_loader</text>
</g>
<!-- SimpleGUICS2Pygame_simpleguics2pygame&#45;&gt;SimpleGUICS2Pygame_simplegui_lib_loader -->
<g id="edge7" class="edge"><title>SimpleGUICS2Pygame_simpleguics2pygame&#45;&gt;SimpleGUICS2Pygame_simplegui_lib_loader</title><style>.edge>path:hover{stroke-width:8}</style>
<path fill="none" stroke="black" d="M516.504,-156.585C516.504,-148.726 516.504,-139.582 516.504,-130.992"/>
<polygon fill="#950303" stroke="black" points="520.004,-130.912 516.504,-120.912 513.004,-130.912 520.004,-130.912"/>
</g>
<!-- SimpleGUICS2Pygame_simplegui_lib_fps -->
<g id="node12" class="node"><title>SimpleGUICS2Pygame_simplegui_lib_fps</title><style>.edge>path:hover{stroke-width:8}</style>
<ellipse fill="#b83d3d" stroke="black" cx="711.504" cy="-99.6396" rx="88.2768" ry="21.4286"/>
<text text-anchor="middle" x="711.504" y="-102.64" font-family="Helvetica,sans-Serif" font-size="10.00" fill="#ffffff">SimpleGUICS2Pygame.</text>
<text text-anchor="middle" x="711.504" y="-91.6396" font-family="Helvetica,sans-Serif" font-size="10.00" fill="#ffffff">simplegui_lib_fps</text>
</g>
<!-- SimpleGUICS2Pygame_simpleguics2pygame&#45;&gt;SimpleGUICS2Pygame_simplegui_lib_fps -->
<g id="edge5" class="edge"><title>SimpleGUICS2Pygame_simpleguics2pygame&#45;&gt;SimpleGUICS2Pygame_simplegui_lib_fps</title><style>.edge>path:hover{stroke-width:8}</style>
<path fill="none" stroke="black" d="M561.241,-159.532C589.853,-148.318 627.14,-133.704 657.413,-121.84"/>
<polygon fill="#950303" stroke="black" points="658.942,-125 666.975,-118.092 656.387,-118.482 658.942,-125"/>
</g>
<!-- SimpleGUICS2Pygame_simplegui_lib_keys -->
<g id="node19" class="node"><title>SimpleGUICS2Pygame_simplegui_lib_keys</title><style>.edge>path:hover{stroke-width:8}</style>
<ellipse fill="#b83d3d" stroke="black" cx="321.504" cy="-99.6396" rx="88.2768" ry="21.4286"/>
<text text-anchor="middle" x="321.504" y="-102.64" font-family="Helvetica,sans-Serif" font-size="10.00" fill="#ffffff">SimpleGUICS2Pygame.</text>
<text text-anchor="middle" x="321.504" y="-91.6396" font-family="Helvetica,sans-Serif" font-size="10.00" fill="#ffffff">simplegui_lib_keys</text>
</g>
<!-- SimpleGUICS2Pygame_simpleguics2pygame&#45;&gt;SimpleGUICS2Pygame_simplegui_lib_keys -->
<g id="edge6" class="edge"><title>SimpleGUICS2Pygame_simpleguics2pygame&#45;&gt;SimpleGUICS2Pygame_simplegui_lib_keys</title><style>.edge>path:hover{stroke-width:8}</style>
<path fill="none" stroke="black" d="M471.767,-159.532C443.155,-148.318 405.867,-133.704 375.595,-121.84"/>
<polygon fill="#950303" stroke="black" points="376.62,-118.482 366.033,-118.092 374.066,-125 376.62,-118.482"/>
</g>
<!-- SimpleGUICS2Pygame_simpleguics2pygame_keys -->
<g id="node10" class="node"><title>SimpleGUICS2Pygame_simpleguics2pygame_keys</title><style>.edge>path:hover{stroke-width:8}</style>
<ellipse fill="#ac2b2b" stroke="black" cx="748.504" cy="-358.253" rx="88.2768" ry="28.9828"/>
<text text-anchor="middle" x="748.504" y="-366.753" font-family="Helvetica,sans-Serif" font-size="10.00" fill="#ffffff">SimpleGUICS2Pygame.</text>
<text text-anchor="middle" x="748.504" y="-355.753" font-family="Helvetica,sans-Serif" font-size="10.00" fill="#ffffff">simpleguics2pygame.</text>
<text text-anchor="middle" x="748.504" y="-344.753" font-family="Helvetica,sans-Serif" font-size="10.00" fill="#ffffff">keys</text>
</g>
<!-- SimpleGUICS2Pygame_simpleguics2pygame_keys&#45;&gt;SimpleGUICS2Pygame_simpleguics2pygame -->
<g id="edge42" class="edge"><title>SimpleGUICS2Pygame_simpleguics2pygame_keys&#45;&gt;SimpleGUICS2Pygame_simpleguics2pygame</title><style>.edge>path:hover{stroke-width:8}</style>
<path fill="none" stroke="black" d="M818.568,-340.384C887.604,-321.999 980.128,-291.675 960.504,-265.271"/>
<path fill="none" stroke="black" d="M960.504,-263.271C920.031,-208.814 731.577,-189.505 613.574,-182.708"/>
<polygon fill="#ac2b2b" stroke="black" points="613.62,-179.206 603.441,-182.145 613.232,-186.195 613.62,-179.206"/>
</g>
<!-- SimpleGUICS2Pygame_simpleguics2pygame_keys&#45;&gt;SimpleGUICS2Pygame_simpleguics2pygame_frame -->
<g id="edge43" class="edge"><title>SimpleGUICS2Pygame_simpleguics2pygame_keys&#45;&gt;SimpleGUICS2Pygame_simpleguics2pygame_frame</title><style>.edge>path:hover{stroke-width:8}</style>
<path fill="none" stroke="black" d="M693.523,-335.455C659.841,-322.101 616.564,-304.942 581.232,-290.934"/>
<polygon fill="#ac2b2b" stroke="black" points="582.077,-287.504 571.491,-287.072 579.497,-294.011 582.077,-287.504"/>
</g>
<!-- SimpleGUICS2Pygame_simplegui_lib_loader&#45;&gt;SimpleGUICS2Pygame_simplegui_lib -->
<g id="edge4" class="edge"><title>SimpleGUICS2Pygame_simplegui_lib_loader&#45;&gt;SimpleGUICS2Pygame_simplegui_lib</title><style>.edge>path:hover{stroke-width:8}</style>
<path fill="none" stroke="black" d="M491.521,-79.1563C479.311,-69.634 464.457,-58.0504 451.343,-47.8231"/>
<polygon fill="#b83d3d" stroke="black" points="453.479,-45.0507 443.441,-41.661 449.174,-50.5706 453.479,-45.0507"/>
</g>
<!-- SimpleGUICS2Pygame_simplegui_lib_fps&#45;&gt;SimpleGUICS2Pygame_simplegui_lib -->
<g id="edge2" class="edge"><title>SimpleGUICS2Pygame_simplegui_lib_fps&#45;&gt;SimpleGUICS2Pygame_simplegui_lib</title><style>.edge>path:hover{stroke-width:8}</style>
<path fill="none" stroke="black" d="M653.616,-83.5402C605.46,-70.979 536.842,-53.0805 486.157,-39.86"/>
<polygon fill="#b83d3d" stroke="black" points="486.831,-36.4186 476.271,-37.2812 485.064,-43.192 486.831,-36.4186"/>
</g>
<!-- SimpleGUICS2Pygame_simpleguics2pygame_sound&#45;&gt;SimpleGUICS2Pygame_simpleguics2pygame -->
<g id="edge44" class="edge"><title>SimpleGUICS2Pygame_simpleguics2pygame_sound&#45;&gt;SimpleGUICS2Pygame_simpleguics2pygame</title><style>.edge>path:hover{stroke-width:8}</style>
<path fill="none" stroke="black" d="M965.508,-428.999C948.298,-418.932 931.162,-405.187 921.504,-387.245 909.289,-364.553 914.539,-354.073 921.504,-329.262 930.505,-297.195 980.371,-292.003 960.504,-265.271"/>
</g>
<!-- SimpleGUICS2Pygame_simpleguics2pygame__pygame_init -->
<g id="node14" class="node"><title>SimpleGUICS2Pygame_simpleguics2pygame__pygame_init</title><style>.edge>path:hover{stroke-width:8}</style>
<ellipse fill="#d10505" stroke="black" cx="651.504" cy="-640.202" rx="88.2768" ry="28.9828"/>
<text text-anchor="middle" x="651.504" y="-648.702" font-family="Helvetica,sans-Serif" font-size="10.00" fill="#ffffff">SimpleGUICS2Pygame.</text>
<text text-anchor="middle" x="651.504" y="-637.702" font-family="Helvetica,sans-Serif" font-size="10.00" fill="#ffffff">simpleguics2pygame.</text>
<text text-anchor="middle" x="651.504" y="-626.702" font-family="Helvetica,sans-Serif" font-size="10.00" fill="#ffffff">_pygame_init</text>
</g>
<!-- SimpleGUICS2Pygame_simpleguics2pygame__pygame_init&#45;&gt;SimpleGUICS2Pygame_simpleguics2pygame_canvas -->
<g id="edge29" class="edge"><title>SimpleGUICS2Pygame_simpleguics2pygame__pygame_init&#45;&gt;SimpleGUICS2Pygame_simpleguics2pygame_canvas</title><style>.edge>path:hover{stroke-width:8}</style>
<path fill="none" stroke="black" d="M284.504,-545.219C279.004,-540.409 291.126,-450.424 298.808,-397.42"/>
<polygon fill="#d10505" stroke="black" points="302.297,-397.749 300.279,-387.348 295.371,-396.738 302.297,-397.749"/>
</g>
<!-- SimpleGUICS2Pygame_simpleguics2pygame__pygame_init&#45;&gt;SimpleGUICS2Pygame_simpleguics2pygame__fonts -->
<g id="edge26" class="edge"><title>SimpleGUICS2Pygame_simpleguics2pygame__pygame_init&#45;&gt;SimpleGUICS2Pygame_simpleguics2pygame__fonts</title><style>.edge>path:hover{stroke-width:8}</style>
<path fill="none" stroke="black" d="M593.919,-618.099C556.426,-604.359 507.361,-586.378 468.031,-571.965"/>
<polygon fill="#d10505" stroke="black" points="468.848,-568.537 458.254,-568.382 466.439,-575.11 468.848,-568.537"/>
</g>
<!-- SimpleGUICS2Pygame_simpleguics2pygame__pygame_init&#45;&gt;SimpleGUICS2Pygame_simpleguics2pygame_control -->
<g id="edge30" class="edge"><title>SimpleGUICS2Pygame_simpleguics2pygame__pygame_init&#45;&gt;SimpleGUICS2Pygame_simpleguics2pygame_control</title><style>.edge>path:hover{stroke-width:8}</style>
<path fill="none" stroke="black" d="M567.34,-631.235C478.645,-621.539 346.011,-602.947 303.504,-575.21 290.912,-566.993 295.821,-557.118 284.504,-547.219"/>
<path fill="none" stroke="black" d="M284.504,-545.219C272.169,-534.43 271.988,-528.918 260.504,-517.227 250.224,-506.764 238.537,-495.958 227.613,-486.273"/>
<polygon fill="#d10505" stroke="black" points="229.65,-483.404 219.824,-479.44 225.033,-488.666 229.65,-483.404"/>
</g>
<!-- SimpleGUICS2Pygame_simpleguics2pygame__pygame_init&#45;&gt;SimpleGUICS2Pygame_simpleguics2pygame__colors -->
<g id="edge25" class="edge"><title>SimpleGUICS2Pygame_simpleguics2pygame__pygame_init&#45;&gt;SimpleGUICS2Pygame_simpleguics2pygame__colors</title><style>.edge>path:hover{stroke-width:8}</style>
<path fill="none" stroke="black" d="M572.938,-626.734C495.815,-614.324 374.895,-594.408 270.504,-575.21 252.216,-571.847 232.625,-568.051 214.063,-564.365"/>
<polygon fill="#d10505" stroke="black" points="214.661,-560.916 204.169,-562.392 213.291,-567.78 214.661,-560.916"/>
</g>
<!-- SimpleGUICS2Pygame_simpleguics2pygame__pygame_init&#45;&gt;SimpleGUICS2Pygame_simpleguics2pygame -->
<g id="edge24" class="edge"><title>SimpleGUICS2Pygame_simpleguics2pygame__pygame_init&#45;&gt;SimpleGUICS2Pygame_simpleguics2pygame</title><style>.edge>path:hover{stroke-width:8}</style>
<path fill="none" stroke="black" d="M565.321,-633.314C399.573,-621.575 51.0892,-594.711 33.5038,-575.21 -42.0652,-491.412 26.1101,-417.452 96.5038,-329.262 127.576,-290.335 167.772,-310.558 188.504,-265.271"/>
<path fill="none" stroke="black" d="M188.504,-263.271C205.354,-218.601 332.84,-196.719 423.801,-186.689"/>
<polygon fill="#d10505" stroke="black" points="424.299,-190.156 433.869,-185.611 423.553,-183.196 424.299,-190.156"/>
</g>
<!-- SimpleGUICS2Pygame_simpleguics2pygame__pygame_init&#45;&gt;SimpleGUICS2Pygame_simpleguics2pygame_keys -->
<g id="edge33" class="edge"><title>SimpleGUICS2Pygame_simpleguics2pygame__pygame_init&#45;&gt;SimpleGUICS2Pygame_simpleguics2pygame_keys</title><style>.edge>path:hover{stroke-width:8}</style>
<path fill="none" stroke="black" d="M689.126,-613.834C703.072,-603.109 718.221,-589.734 729.504,-575.21 747.858,-551.583 789.264,-483.028 786.504,-453.236"/>
<path fill="none" stroke="black" d="M786.504,-451.236C784.842,-432.243 777.553,-412.534 769.796,-396.255"/>
<polygon fill="#d10505" stroke="black" points="772.819,-394.474 765.214,-387.098 766.559,-397.607 772.819,-394.474"/>
</g>
<!-- SimpleGUICS2Pygame_simpleguics2pygame__pygame_init&#45;&gt;SimpleGUICS2Pygame_simpleguics2pygame__media -->
<g id="edge28" class="edge"><title>SimpleGUICS2Pygame_simpleguics2pygame__pygame_init&#45;&gt;SimpleGUICS2Pygame_simpleguics2pygame__media</title><style>.edge>path:hover{stroke-width:8}</style>
<path fill="none" stroke="black" d="M709.088,-618.099C746.581,-604.359 795.647,-586.378 834.977,-571.965"/>
<polygon fill="#d10505" stroke="black" points="836.568,-575.11 844.753,-568.382 834.159,-568.537 836.568,-575.11"/>
</g>
<!-- SimpleGUICS2Pygame_simpleguics2pygame__joypads -->
<g id="node16" class="node"><title>SimpleGUICS2Pygame_simpleguics2pygame__joypads</title><style>.edge>path:hover{stroke-width:8}</style>
<ellipse fill="#a13535" stroke="black" cx="632.504" cy="-546.219" rx="88.2768" ry="28.9828"/>
<text text-anchor="middle" x="632.504" y="-554.719" font-family="Helvetica,sans-Serif" font-size="10.00" fill="#ffffff">SimpleGUICS2Pygame.</text>
<text text-anchor="middle" x="632.504" y="-543.719" font-family="Helvetica,sans-Serif" font-size="10.00" fill="#ffffff">simpleguics2pygame.</text>
<text text-anchor="middle" x="632.504" y="-532.719" font-family="Helvetica,sans-Serif" font-size="10.00" fill="#ffffff">_joypads</text>
</g>
<!-- SimpleGUICS2Pygame_simpleguics2pygame__pygame_init&#45;&gt;SimpleGUICS2Pygame_simpleguics2pygame__joypads -->
<g id="edge27" class="edge"><title>SimpleGUICS2Pygame_simpleguics2pygame__pygame_init&#45;&gt;SimpleGUICS2Pygame_simpleguics2pygame__joypads</title><style>.edge>path:hover{stroke-width:8}</style>
<path fill="none" stroke="black" d="M645.7,-611.104C644.021,-602.978 642.16,-593.968 640.378,-585.34"/>
<polygon fill="#d10505" stroke="black" points="643.788,-584.547 638.338,-575.461 636.933,-585.963 643.788,-584.547"/>
</g>
<!-- SimpleGUICS2Pygame_simpleguics2pygame__pygame_init&#45;&gt;SimpleGUICS2Pygame_simpleguics2pygame_frame -->
<g id="edge31" class="edge"><title>SimpleGUICS2Pygame_simpleguics2pygame__pygame_init&#45;&gt;SimpleGUICS2Pygame_simpleguics2pygame_frame</title><style>.edge>path:hover{stroke-width:8}</style>
<path fill="none" stroke="black" d="M588.794,-619.535C557.113,-605.397 523.831,-582.484 516.504,-547.219"/>
<path fill="none" stroke="black" d="M516.504,-545.219C499.69,-464.296 544.44,-437.04 516.504,-359.253"/>
</g>
<!-- SimpleGUICS2Pygame_simpleguics2pygame_image -->
<g id="node18" class="node"><title>SimpleGUICS2Pygame_simpleguics2pygame_image</title><style>.edge>path:hover{stroke-width:8}</style>
<ellipse fill="#bf2121" stroke="black" cx="632.504" cy="-452.236" rx="88.2768" ry="28.9828"/>
<text text-anchor="middle" x="632.504" y="-460.736" font-family="Helvetica,sans-Serif" font-size="10.00" fill="#ffffff">SimpleGUICS2Pygame.</text>
<text text-anchor="middle" x="632.504" y="-449.736" font-family="Helvetica,sans-Serif" font-size="10.00" fill="#ffffff">simpleguics2pygame.</text>
<text text-anchor="middle" x="632.504" y="-438.736" font-family="Helvetica,sans-Serif" font-size="10.00" fill="#ffffff">image</text>
</g>
<!-- SimpleGUICS2Pygame_simpleguics2pygame__pygame_init&#45;&gt;SimpleGUICS2Pygame_simpleguics2pygame_image -->
<g id="edge32" class="edge"><title>SimpleGUICS2Pygame_simpleguics2pygame__pygame_init&#45;&gt;SimpleGUICS2Pygame_simpleguics2pygame_image</title><style>.edge>path:hover{stroke-width:8}</style>
<path fill="none" stroke="black" d="M516.504,-545.219C510.276,-515.246 534.955,-493.252 563.128,-478.3"/>
<polygon fill="#d10505" stroke="black" points="564.978,-481.289 572.364,-473.692 561.853,-475.025 564.978,-481.289"/>
</g>
<!-- SimpleGUICS2Pygame_simpleguics2pygame__media&#45;&gt;SimpleGUICS2Pygame_simpleguics2pygame_sound -->
<g id="edge23" class="edge"><title>SimpleGUICS2Pygame_simpleguics2pygame__media&#45;&gt;SimpleGUICS2Pygame_simpleguics2pygame_sound</title><style>.edge>path:hover{stroke-width:8}</style>
<path fill="none" stroke="black" d="M935.434,-519.106C948.537,-508.717 963.753,-496.651 977.554,-485.707"/>
<polygon fill="#b62020" stroke="black" points="979.83,-488.37 985.491,-479.414 975.481,-482.885 979.83,-488.37"/>
</g>
<!-- SimpleGUICS2Pygame_simpleguics2pygame__media&#45;&gt;SimpleGUICS2Pygame_simpleguics2pygame_frame -->
<g id="edge21" class="edge"><title>SimpleGUICS2Pygame_simpleguics2pygame__media&#45;&gt;SimpleGUICS2Pygame_simpleguics2pygame_frame</title><style>.edge>path:hover{stroke-width:8}</style>
<path fill="none" stroke="black" d="M908.847,-517.139C911.679,-498.091 912.456,-472.898 902.504,-453.236"/>
<path fill="none" stroke="black" d="M902.504,-451.236C875.48,-397.848 892.67,-366.085 845.504,-329.262 809.694,-301.304 695.161,-283.644 611.266,-274.122"/>
<polygon fill="#b62020" stroke="black" points="611.52,-270.628 601.194,-273.001 610.745,-277.586 611.52,-270.628"/>
</g>
<!-- SimpleGUICS2Pygame_simpleguics2pygame__media&#45;&gt;SimpleGUICS2Pygame_simpleguics2pygame_image -->
<g id="edge22" class="edge"><title>SimpleGUICS2Pygame_simpleguics2pygame__media&#45;&gt;SimpleGUICS2Pygame_simpleguics2pygame_image</title><style>.edge>path:hover{stroke-width:8}</style>
<path fill="none" stroke="black" d="M842.582,-524.805C801.129,-510.683 745.828,-491.843 702.37,-477.038"/>
<polygon fill="#b62020" stroke="black" points="703.319,-473.664 692.724,-473.752 701.061,-480.29 703.319,-473.664"/>
</g>
<!-- SimpleGUICS2Pygame_simpleguics2pygame__joypads&#45;&gt;SimpleGUICS2Pygame_simpleguics2pygame_frame -->
<g id="edge20" class="edge"><title>SimpleGUICS2Pygame_simpleguics2pygame__joypads&#45;&gt;SimpleGUICS2Pygame_simpleguics2pygame_frame</title><style>.edge>path:hover{stroke-width:8}</style>
<path fill="none" stroke="black" d="M693.207,-525.127C727.918,-509.778 762.095,-485.719 748.504,-453.236"/>
<path fill="none" stroke="black" d="M748.504,-451.236C742.7,-437.365 741.625,-432.141 729.504,-423.245 649.817,-364.758 549.914,-452.283 516.504,-359.253"/>
</g>
<!-- SimpleGUICS2Pygame_simpleguics2pygame_frame&#45;&gt;SimpleGUICS2Pygame_simpleguics2pygame -->
<g id="edge38" class="edge"><title>SimpleGUICS2Pygame_simpleguics2pygame_frame&#45;&gt;SimpleGUICS2Pygame_simpleguics2pygame</title><style>.edge>path:hover{stroke-width:8}</style>
<path fill="none" stroke="black" d="M516.504,-235.232C516.504,-227.024 516.504,-218.01 516.504,-209.653"/>
<polygon fill="#732626" stroke="black" points="520.004,-209.527 516.504,-199.527 513.004,-209.527 520.004,-209.527"/>
</g>
<!-- SimpleGUICS2Pygame_simpleguics2pygame_image&#45;&gt;SimpleGUICS2Pygame_simpleguics2pygame_canvas -->
<g id="edge40" class="edge"><title>SimpleGUICS2Pygame_simpleguics2pygame_image&#45;&gt;SimpleGUICS2Pygame_simpleguics2pygame_canvas</title><style>.edge>path:hover{stroke-width:8}</style>
<path fill="none" stroke="black" d="M566.523,-432.733C512.697,-417.638 436.622,-396.304 380.301,-380.51"/>
<polygon fill="#bf2121" stroke="black" points="380.953,-377.057 370.379,-377.727 379.063,-383.797 380.953,-377.057"/>
</g>
<!-- SimpleGUICS2Pygame_simpleguics2pygame_image&#45;&gt;SimpleGUICS2Pygame_simpleguics2pygame -->
<g id="edge39" class="edge"><title>SimpleGUICS2Pygame_simpleguics2pygame_image&#45;&gt;SimpleGUICS2Pygame_simpleguics2pygame</title><style>.edge>path:hover{stroke-width:8}</style>
<path fill="none" stroke="black" d="M583.362,-427.959C558.875,-416.131 528.927,-401.314 502.504,-387.245 456.817,-362.918 449.046,-349.728 401.504,-329.262 310.712,-290.178 149.163,-355.951 188.504,-265.271"/>
</g>
<!-- SimpleGUICS2Pygame_simpleguics2pygame_image&#45;&gt;SimpleGUICS2Pygame_simpleguics2pygame_frame -->
<g id="edge41" class="edge"><title>SimpleGUICS2Pygame_simpleguics2pygame_image&#45;&gt;SimpleGUICS2Pygame_simpleguics2pygame_frame</title><style>.edge>path:hover{stroke-width:8}</style>
<path fill="none" stroke="black" d="M582.536,-428.287C556.397,-413.032 527.58,-390.095 516.504,-359.253"/>
</g>
<!-- SimpleGUICS2Pygame_simplegui_lib_keys&#45;&gt;SimpleGUICS2Pygame_simplegui_lib -->
<g id="edge3" class="edge"><title>SimpleGUICS2Pygame_simplegui_lib_keys&#45;&gt;SimpleGUICS2Pygame_simplegui_lib</title><style>.edge>path:hover{stroke-width:8}</style>
<path fill="none" stroke="black" d="M346.232,-79.1563C358.203,-69.7239 372.742,-58.2688 385.632,-48.1129"/>
<polygon fill="#b83d3d" stroke="black" points="388.132,-50.599 393.821,-41.661 383.8,-45.1007 388.132,-50.599"/>
</g>
<!-- SimpleGUICS2Pygame_simpleplot -->
<g id="node20" class="node"><title>SimpleGUICS2Pygame_simpleplot</title><style>.edge>path:hover{stroke-width:8}</style>
<ellipse fill="#ac4949" stroke="black" cx="767.504" cy="-726.406" rx="88.2768" ry="21.4286"/>
<text text-anchor="middle" x="767.504" y="-729.406" font-family="Helvetica,sans-Serif" font-size="10.00" fill="#ffffff">SimpleGUICS2Pygame.</text>
<text text-anchor="middle" x="767.504" y="-718.406" font-family="Helvetica,sans-Serif" font-size="10.00" fill="#ffffff">simpleplot</text>
</g>
<!-- matplotlib -->
<g id="node21" class="node"><title>matplotlib</title><style>.edge>path:hover{stroke-width:8}</style>
<polygon fill="#4cb34c" stroke="black" points="797.004,-856.619 794.004,-860.619 773.004,-860.619 770.004,-856.619 738.004,-856.619 738.004,-820.619 797.004,-820.619 797.004,-856.619"/>
<text text-anchor="middle" x="767.504" y="-836.119" font-family="Helvetica,sans-Serif" font-size="10.00" fill="#000000">matplotlib</text>
</g>
<!-- matplotlib&#45;&gt;SimpleGUICS2Pygame_simpleplot -->
<g id="edge47" class="edge"><title>matplotlib&#45;&gt;SimpleGUICS2Pygame_simpleplot</title><style>.edge>path:hover{stroke-width:8}</style>
<path fill="none" stroke="black" d="M767.504,-820.399C767.504,-803.771 767.504,-778.225 767.504,-758.112"/>
<polygon fill="#4cb34c" stroke="black" points="771.004,-757.878 767.504,-747.878 764.004,-757.878 771.004,-757.878"/>
</g>
<!-- pygame -->
<g id="node22" class="node"><title>pygame</title><style>.edge>path:hover{stroke-width:8}</style>
<polygon fill="#0505c7" stroke="black" points="678.504,-856.619 675.504,-860.619 654.504,-860.619 651.504,-856.619 624.504,-856.619 624.504,-820.619 678.504,-820.619 678.504,-856.619"/>
<text text-anchor="middle" x="651.504" y="-836.119" font-family="Helvetica,sans-Serif" font-size="10.00" fill="#ffffff">pygame</text>
</g>
<!-- pygame&#45;&gt;SimpleGUICS2Pygame_simpleguics2pygame_canvas -->
<g id="edge53" class="edge"><title>pygame&#45;&gt;SimpleGUICS2Pygame_simpleguics2pygame_canvas</title><style>.edge>path:hover{stroke-width:8}</style>
<path fill="none" stroke="black" d="M655.527,-820.365C659.878,-797.938 664.575,-758.026 651.504,-727.406"/>
<path fill="none" stroke="black" d="M651.504,-725.406C611.085,-642.844 320.48,-695.769 246.504,-641.202"/>
<path fill="none" stroke="black" d="M246.504,-639.202C166.957,-580.525 92.4927,-654.526 33.5038,-575.21 18.1249,-554.532 30.1633,-542.78 33.5038,-517.227 39.1066,-474.369 27.8568,-453.724 58.5038,-423.245 80.7338,-401.137 154.071,-383.857 214.935,-372.856"/>
<polygon fill="#0505c7" stroke="black" points="215.737,-376.268 224.973,-371.077 214.516,-369.376 215.737,-376.268"/>
</g>
<!-- pygame&#45;&gt;SimpleGUICS2Pygame_simpleguics2pygame__fonts -->
<g id="edge49" class="edge"><title>pygame&#45;&gt;SimpleGUICS2Pygame_simpleguics2pygame__fonts</title><style>.edge>path:hover{stroke-width:8}</style>
<path fill="none" stroke="black" d="M246.504,-639.202C209.843,-611.213 267.148,-584.822 321.963,-567.548"/>
<polygon fill="#0505c7" stroke="black" points="323.253,-570.813 331.788,-564.536 321.202,-564.12 323.253,-570.813"/>
</g>
<!-- pygame&#45;&gt;SimpleGUICS2Pygame_simpleguics2pygame_control -->
<g id="edge54" class="edge"><title>pygame&#45;&gt;SimpleGUICS2Pygame_simpleguics2pygame_control</title><style>.edge>path:hover{stroke-width:8}</style>
<path fill="none" stroke="black" d="M246.504,-639.202C202.895,-605.909 246.365,-568.748 227.504,-517.227 224.015,-507.698 219.032,-498.035 213.789,-489.204"/>
<polygon fill="#0505c7" stroke="black" points="216.75,-487.339 208.504,-480.687 210.802,-491.03 216.75,-487.339"/>
</g>
<!-- pygame&#45;&gt;SimpleGUICS2Pygame_simpleguics2pygame__colors -->
<g id="edge48" class="edge"><title>pygame&#45;&gt;SimpleGUICS2Pygame_simpleguics2pygame__colors</title><style>.edge>path:hover{stroke-width:8}</style>
<path fill="none" stroke="black" d="M246.504,-639.202C221.032,-619.755 192.854,-597.431 170.649,-579.645"/>
<polygon fill="#0505c7" stroke="black" points="172.745,-576.84 162.755,-573.312 168.364,-582.3 172.745,-576.84"/>
</g>
<!-- pygame&#45;&gt;SimpleGUICS2Pygame_simpleguics2pygame_keys -->
<g id="edge56" class="edge"><title>pygame&#45;&gt;SimpleGUICS2Pygame_simpleguics2pygame_keys</title><style>.edge>path:hover{stroke-width:8}</style>
<path fill="none" stroke="black" d="M786.504,-545.219C782.433,-504.541 790.067,-493.962 786.504,-453.236"/>
</g>
<!-- pygame&#45;&gt;SimpleGUICS2Pygame_simpleguics2pygame__pygame_init -->
<g id="edge52" class="edge"><title>pygame&#45;&gt;SimpleGUICS2Pygame_simpleguics2pygame__pygame_init</title><style>.edge>path:hover{stroke-width:8}</style>
<path fill="none" stroke="black" d="M651.504,-725.406C645.395,-711.096 644.366,-694.129 645.248,-679.188"/>
<polygon fill="#0505c7" stroke="black" points="648.735,-679.495 646.126,-669.226 641.762,-678.88 648.735,-679.495"/>
</g>
<!-- pygame&#45;&gt;SimpleGUICS2Pygame_simpleguics2pygame__media -->
<g id="edge51" class="edge"><title>pygame&#45;&gt;SimpleGUICS2Pygame_simpleguics2pygame__media</title><style>.edge>path:hover{stroke-width:8}</style>
<path fill="none" stroke="black" d="M786.504,-639.202C798.832,-612.621 823.183,-591.473 846.405,-576.191"/>
<polygon fill="#0505c7" stroke="black" points="848.305,-579.131 854.885,-570.827 844.563,-573.215 848.305,-579.131"/>
</g>
<!-- pygame&#45;&gt;SimpleGUICS2Pygame_simpleguics2pygame__joypads -->
<g id="edge50" class="edge"><title>pygame&#45;&gt;SimpleGUICS2Pygame_simpleguics2pygame__joypads</title><style>.edge>path:hover{stroke-width:8}</style>
<path fill="none" stroke="black" d="M651.504,-725.406C623.741,-660.369 756.751,-705.352 786.504,-641.202"/>
<path fill="none" stroke="black" d="M786.504,-639.202C803.899,-601.695 761.837,-578.352 717.306,-564.57"/>
<polygon fill="#0505c7" stroke="black" points="718.068,-561.145 707.487,-561.688 716.097,-567.862 718.068,-561.145"/>
</g>
<!-- pygame&#45;&gt;SimpleGUICS2Pygame_simpleguics2pygame_frame -->
<g id="edge55" class="edge"><title>pygame&#45;&gt;SimpleGUICS2Pygame_simpleguics2pygame_frame</title><style>.edge>path:hover{stroke-width:8}</style>
<path fill="none" stroke="black" d="M786.504,-639.202C803.705,-602.115 790.574,-587.897 786.504,-547.219"/>
<path fill="none" stroke="black" d="M786.504,-545.219C782.099,-501.206 765.577,-494.041 748.504,-453.236"/>
</g>
</g>
</svg>
