<?xml version="1.0" encoding="UTF-8" standalone="no"?>
<!DOCTYPE svg PUBLIC "-//W3C//DTD SVG 1.1//EN"
 "http://www.w3.org/Graphics/SVG/1.1/DTD/svg11.dtd">
<!-- Generated by graphviz version 2.38.0 (20140413.2041)
 -->
<!-- Title: G Pages: 1 -->
<svg width="997pt" height="865pt"
 viewBox="0.00 0.00 997.38 864.62" xmlns="http://www.w3.org/2000/svg" xmlns:xlink="http://www.w3.org/1999/xlink">
<g id="graph0" class="graph" transform="scale(1 1) rotate(0) translate(4 860.619)">
<title>G</title><style>.edge>path:hover{stroke-width:8}</style>
<polygon fill="white" stroke="none" points="-4,4 -4,-860.619 993.378,-860.619 993.378,4 -4,4"/>
<!-- SimpleGUICS2Pygame_simpleguics2pygame__colors -->
<g id="node1" class="node"><title>SimpleGUICS2Pygame_simpleguics2pygame__colors</title><style>.edge>path:hover{stroke-width:8}</style>
<ellipse fill="#bf2121" stroke="black" cx="765.989" cy="-546.219" rx="88.2768" ry="28.9828"/>
<text text-anchor="middle" x="765.989" y="-554.719" font-family="Helvetica,sans-Serif" font-size="10.00" fill="#ffffff">SimpleGUICS2Pygame.</text>
<text text-anchor="middle" x="765.989" y="-543.719" font-family="Helvetica,sans-Serif" font-size="10.00" fill="#ffffff">simpleguics2pygame.</text>
<text text-anchor="middle" x="765.989" y="-532.719" font-family="Helvetica,sans-Serif" font-size="10.00" fill="#ffffff">_colors</text>
</g>
<!-- SimpleGUICS2Pygame_simpleguics2pygame_canvas -->
<g id="node6" class="node"><title>SimpleGUICS2Pygame_simpleguics2pygame_canvas</title><style>.edge>path:hover{stroke-width:8}</style>
<ellipse fill="#9b2626" stroke="black" cx="533.989" cy="-358.253" rx="88.2768" ry="28.9828"/>
<text text-anchor="middle" x="533.989" y="-366.753" font-family="Helvetica,sans-Serif" font-size="10.00" fill="#ffffff">SimpleGUICS2Pygame.</text>
<text text-anchor="middle" x="533.989" y="-355.753" font-family="Helvetica,sans-Serif" font-size="10.00" fill="#ffffff">simpleguics2pygame.</text>
<text text-anchor="middle" x="533.989" y="-344.753" font-family="Helvetica,sans-Serif" font-size="10.00" fill="#ffffff">canvas</text>
</g>
<!-- SimpleGUICS2Pygame_simpleguics2pygame__colors&#45;&gt;SimpleGUICS2Pygame_simpleguics2pygame_canvas -->
<g id="edge14" class="edge"><title>SimpleGUICS2Pygame_simpleguics2pygame__colors&#45;&gt;SimpleGUICS2Pygame_simpleguics2pygame_canvas</title><style>.edge>path:hover{stroke-width:8}</style>
<path fill="none" stroke="black" d="M721.275,-520.83C703.82,-510.058 684.354,-496.391 668.989,-481.227 658.288,-470.666 659.919,-464.526 649.989,-453.236"/>
</g>
<!-- SimpleGUICS2Pygame_simpleguics2pygame_control -->
<g id="node15" class="node"><title>SimpleGUICS2Pygame_simpleguics2pygame_control</title><style>.edge>path:hover{stroke-width:8}</style>
<ellipse fill="#a32828" stroke="black" cx="765.989" cy="-452.236" rx="88.2768" ry="28.9828"/>
<text text-anchor="middle" x="765.989" y="-460.736" font-family="Helvetica,sans-Serif" font-size="10.00" fill="#ffffff">SimpleGUICS2Pygame.</text>
<text text-anchor="middle" x="765.989" y="-449.736" font-family="Helvetica,sans-Serif" font-size="10.00" fill="#ffffff">simpleguics2pygame.</text>
<text text-anchor="middle" x="765.989" y="-438.736" font-family="Helvetica,sans-Serif" font-size="10.00" fill="#ffffff">control</text>
</g>
<!-- SimpleGUICS2Pygame_simpleguics2pygame__colors&#45;&gt;SimpleGUICS2Pygame_simpleguics2pygame_control -->
<g id="edge15" class="edge"><title>SimpleGUICS2Pygame_simpleguics2pygame__colors&#45;&gt;SimpleGUICS2Pygame_simpleguics2pygame_control</title><style>.edge>path:hover{stroke-width:8}</style>
<path fill="none" stroke="black" d="M765.989,-517.121C765.989,-509.083 765.989,-500.181 765.989,-491.639"/>
<polygon fill="#bf2121" stroke="black" points="769.489,-491.479 765.989,-481.479 762.489,-491.479 769.489,-491.479"/>
</g>
<!-- SimpleGUICS2Pygame_simpleguics2pygame_frame -->
<g id="node18" class="node"><title>SimpleGUICS2Pygame_simpleguics2pygame_frame</title><style>.edge>path:hover{stroke-width:8}</style>
<ellipse fill="#732626" stroke="black" cx="533.989" cy="-264.271" rx="88.2768" ry="28.9828"/>
<text text-anchor="middle" x="533.989" y="-272.771" font-family="Helvetica,sans-Serif" font-size="10.00" fill="#ffffff">SimpleGUICS2Pygame.</text>
<text text-anchor="middle" x="533.989" y="-261.771" font-family="Helvetica,sans-Serif" font-size="10.00" fill="#ffffff">simpleguics2pygame.</text>
<text text-anchor="middle" x="533.989" y="-250.771" font-family="Helvetica,sans-Serif" font-size="10.00" fill="#ffffff">frame</text>
</g>
<!-- SimpleGUICS2Pygame_simpleguics2pygame__colors&#45;&gt;SimpleGUICS2Pygame_simpleguics2pygame_frame -->
<g id="edge16" class="edge"><title>SimpleGUICS2Pygame_simpleguics2pygame__colors&#45;&gt;SimpleGUICS2Pygame_simpleguics2pygame_frame</title><style>.edge>path:hover{stroke-width:8}</style>
<path fill="none" stroke="black" d="M709.997,-523.646C685.917,-512.902 658.252,-498.495 635.989,-481.227 623.041,-471.184 625.393,-462.664 611.989,-453.236"/>
</g>
<!-- SimpleGUICS2Pygame_simpleguics2pygame__fonts -->
<g id="node2" class="node"><title>SimpleGUICS2Pygame_simpleguics2pygame__fonts</title><style>.edge>path:hover{stroke-width:8}</style>
<ellipse fill="#b62020" stroke="black" cx="533.989" cy="-546.219" rx="88.2768" ry="28.9828"/>
<text text-anchor="middle" x="533.989" y="-554.719" font-family="Helvetica,sans-Serif" font-size="10.00" fill="#ffffff">SimpleGUICS2Pygame.</text>
<text text-anchor="middle" x="533.989" y="-543.719" font-family="Helvetica,sans-Serif" font-size="10.00" fill="#ffffff">simpleguics2pygame.</text>
<text text-anchor="middle" x="533.989" y="-532.719" font-family="Helvetica,sans-Serif" font-size="10.00" fill="#ffffff">_fonts</text>
</g>
<!-- SimpleGUICS2Pygame_simpleguics2pygame__fonts&#45;&gt;SimpleGUICS2Pygame_simpleguics2pygame_canvas -->
<g id="edge17" class="edge"><title>SimpleGUICS2Pygame_simpleguics2pygame__fonts&#45;&gt;SimpleGUICS2Pygame_simpleguics2pygame_canvas</title><style>.edge>path:hover{stroke-width:8}</style>
<path fill="none" stroke="black" d="M533.989,-451.236C529.116,-434.061 528.499,-414.345 529.351,-397.582"/>
<polygon fill="#b62020" stroke="black" points="532.844,-397.794 530.045,-387.576 525.861,-397.309 532.844,-397.794"/>
</g>
<!-- SimpleGUICS2Pygame_simpleguics2pygame__fonts&#45;&gt;SimpleGUICS2Pygame_simpleguics2pygame_control -->
<g id="edge18" class="edge"><title>SimpleGUICS2Pygame_simpleguics2pygame__fonts&#45;&gt;SimpleGUICS2Pygame_simpleguics2pygame_control</title><style>.edge>path:hover{stroke-width:8}</style>
<path fill="none" stroke="black" d="M588.97,-523.42C622.652,-510.066 665.929,-492.908 701.261,-478.899"/>
<polygon fill="#b62020" stroke="black" points="702.996,-481.977 711.002,-475.037 700.416,-475.47 702.996,-481.977"/>
</g>
<!-- SimpleGUICS2Pygame_simpleguics2pygame__fonts&#45;&gt;SimpleGUICS2Pygame_simpleguics2pygame_frame -->
<g id="edge19" class="edge"><title>SimpleGUICS2Pygame_simpleguics2pygame__fonts&#45;&gt;SimpleGUICS2Pygame_simpleguics2pygame_frame</title><style>.edge>path:hover{stroke-width:8}</style>
<path fill="none" stroke="black" d="M537.933,-516.897C539.552,-498.421 539.874,-473.976 533.989,-453.236"/>
<path fill="none" stroke="black" d="M533.989,-451.236C519.892,-401.55 476.377,-420.652 436.989,-387.245 425.523,-377.519 414.903,-373.969 417.989,-359.253"/>
</g>
<!-- SimpleGUICS2Pygame_simplegui_lib -->
<g id="node3" class="node"><title>SimpleGUICS2Pygame_simplegui_lib</title><style>.edge>path:hover{stroke-width:8}</style>
<ellipse fill="#964040" stroke="black" cx="435.989" cy="-21.2132" rx="88.2768" ry="21.4286"/>
<text text-anchor="middle" x="435.989" y="-24.2132" font-family="Helvetica,sans-Serif" font-size="10.00" fill="#ffffff">SimpleGUICS2Pygame.</text>
<text text-anchor="middle" x="435.989" y="-13.2132" font-family="Helvetica,sans-Serif" font-size="10.00" fill="#ffffff">simplegui_lib</text>
</g>
<!-- SimpleGUICS2Pygame_simpleguics2pygame_timer -->
<g id="node4" class="node"><title>SimpleGUICS2Pygame_simpleguics2pygame_timer</title><style>.edge>path:hover{stroke-width:8}</style>
<ellipse fill="#bc2f2f" stroke="black" cx="147.989" cy="-358.253" rx="88.2768" ry="28.9828"/>
<text text-anchor="middle" x="147.989" y="-366.753" font-family="Helvetica,sans-Serif" font-size="10.00" fill="#ffffff">SimpleGUICS2Pygame.</text>
<text text-anchor="middle" x="147.989" y="-355.753" font-family="Helvetica,sans-Serif" font-size="10.00" fill="#ffffff">simpleguics2pygame.</text>
<text text-anchor="middle" x="147.989" y="-344.753" font-family="Helvetica,sans-Serif" font-size="10.00" fill="#ffffff">timer</text>
</g>
<!-- SimpleGUICS2Pygame_simpleguics2pygame -->
<g id="node13" class="node"><title>SimpleGUICS2Pygame_simpleguics2pygame</title><style>.edge>path:hover{stroke-width:8}</style>
<ellipse fill="#950303" stroke="black" cx="533.989" cy="-178.066" rx="88.2768" ry="21.4286"/>
<text text-anchor="middle" x="533.989" y="-181.066" font-family="Helvetica,sans-Serif" font-size="10.00" fill="#ffffff">SimpleGUICS2Pygame.</text>
<text text-anchor="middle" x="533.989" y="-170.066" font-family="Helvetica,sans-Serif" font-size="10.00" fill="#ffffff">simpleguics2pygame</text>
</g>
<!-- SimpleGUICS2Pygame_simpleguics2pygame_timer&#45;&gt;SimpleGUICS2Pygame_simpleguics2pygame -->
<g id="edge42" class="edge"><title>SimpleGUICS2Pygame_simpleguics2pygame_timer&#45;&gt;SimpleGUICS2Pygame_simpleguics2pygame</title><style>.edge>path:hover{stroke-width:8}</style>
<path fill="none" stroke="black" d="M165.598,-329.442C179.585,-309.276 200.774,-282.606 224.989,-265.271"/>
</g>
<!-- SimpleGUICS2Pygame_simpleguics2pygame_timer&#45;&gt;SimpleGUICS2Pygame_simpleguics2pygame_frame -->
<g id="edge43" class="edge"><title>SimpleGUICS2Pygame_simpleguics2pygame_timer&#45;&gt;SimpleGUICS2Pygame_simpleguics2pygame_frame</title><style>.edge>path:hover{stroke-width:8}</style>
<path fill="none" stroke="black" d="M213.715,-338.737C225.756,-335.481 238.231,-332.198 249.989,-329.262 317.411,-312.425 394.333,-295.214 451.103,-282.889"/>
<polygon fill="#bc2f2f" stroke="black" points="452.071,-286.26 461.104,-280.723 450.589,-279.419 452.071,-286.26"/>
</g>
<!-- SimpleGUICS2Pygame_simpleguics2pygame_image -->
<g id="node5" class="node"><title>SimpleGUICS2Pygame_simpleguics2pygame_image</title><style>.edge>path:hover{stroke-width:8}</style>
<ellipse fill="#bf2121" stroke="black" cx="417.989" cy="-452.236" rx="88.2768" ry="28.9828"/>
<text text-anchor="middle" x="417.989" y="-460.736" font-family="Helvetica,sans-Serif" font-size="10.00" fill="#ffffff">SimpleGUICS2Pygame.</text>
<text text-anchor="middle" x="417.989" y="-449.736" font-family="Helvetica,sans-Serif" font-size="10.00" fill="#ffffff">simpleguics2pygame.</text>
<text text-anchor="middle" x="417.989" y="-438.736" font-family="Helvetica,sans-Serif" font-size="10.00" fill="#ffffff">image</text>
</g>
<!-- SimpleGUICS2Pygame_simpleguics2pygame_image&#45;&gt;SimpleGUICS2Pygame_simpleguics2pygame_canvas -->
<g id="edge37" class="edge"><title>SimpleGUICS2Pygame_simpleguics2pygame_image&#45;&gt;SimpleGUICS2Pygame_simpleguics2pygame_canvas</title><style>.edge>path:hover{stroke-width:8}</style>
<path fill="none" stroke="black" d="M450.92,-425.124C464.022,-414.734 479.238,-402.669 493.04,-391.724"/>
<polygon fill="#bf2121" stroke="black" points="495.315,-394.387 500.976,-385.431 490.966,-388.902 495.315,-394.387"/>
</g>
<!-- SimpleGUICS2Pygame_simpleguics2pygame_image&#45;&gt;SimpleGUICS2Pygame_simpleguics2pygame -->
<g id="edge36" class="edge"><title>SimpleGUICS2Pygame_simpleguics2pygame_image&#45;&gt;SimpleGUICS2Pygame_simpleguics2pygame</title><style>.edge>path:hover{stroke-width:8}</style>
<path fill="none" stroke="black" d="M379.473,-426.01C313.421,-381.45 188.951,-291.069 224.989,-265.271"/>
</g>
<!-- SimpleGUICS2Pygame_simpleguics2pygame_image&#45;&gt;SimpleGUICS2Pygame_simpleguics2pygame_frame -->
<g id="edge38" class="edge"><title>SimpleGUICS2Pygame_simpleguics2pygame_image&#45;&gt;SimpleGUICS2Pygame_simpleguics2pygame_frame</title><style>.edge>path:hover{stroke-width:8}</style>
<path fill="none" stroke="black" d="M415.024,-423.155C413.806,-404.779 413.564,-380.353 417.989,-359.253"/>
</g>
<!-- SimpleGUICS2Pygame_simpleguics2pygame_canvas&#45;&gt;SimpleGUICS2Pygame_simpleguics2pygame -->
<g id="edge31" class="edge"><title>SimpleGUICS2Pygame_simpleguics2pygame_canvas&#45;&gt;SimpleGUICS2Pygame_simpleguics2pygame</title><style>.edge>path:hover{stroke-width:8}</style>
<path fill="none" stroke="black" d="M607.071,-341.701C709.76,-319.331 884.122,-279.228 881.989,-265.271"/>
<path fill="none" stroke="black" d="M881.989,-263.271C874.207,-212.329 730.524,-192.052 630.245,-184.088"/>
<polygon fill="#9b2626" stroke="black" points="630.312,-180.583 620.074,-183.31 629.778,-187.562 630.312,-180.583"/>
</g>
<!-- SimpleGUICS2Pygame_simpleguics2pygame_canvas&#45;&gt;SimpleGUICS2Pygame_simpleguics2pygame_frame -->
<g id="edge32" class="edge"><title>SimpleGUICS2Pygame_simpleguics2pygame_canvas&#45;&gt;SimpleGUICS2Pygame_simpleguics2pygame_frame</title><style>.edge>path:hover{stroke-width:8}</style>
<path fill="none" stroke="black" d="M533.989,-329.156C533.989,-321.118 533.989,-312.216 533.989,-303.673"/>
<polygon fill="#9b2626" stroke="black" points="537.489,-303.513 533.989,-293.513 530.489,-303.513 537.489,-303.513"/>
</g>
<!-- SimpleGUICS2Pygame_simpleguics2pygame__arguments -->
<g id="node7" class="node"><title>SimpleGUICS2Pygame_simpleguics2pygame__arguments</title><style>.edge>path:hover{stroke-width:8}</style>
<ellipse fill="#f90606" stroke="black" cx="263.989" cy="-640.202" rx="88.2768" ry="28.9828"/>
<text text-anchor="middle" x="263.989" y="-648.702" font-family="Helvetica,sans-Serif" font-size="10.00" fill="#ffffff">SimpleGUICS2Pygame.</text>
<text text-anchor="middle" x="263.989" y="-637.702" font-family="Helvetica,sans-Serif" font-size="10.00" fill="#ffffff">simpleguics2pygame.</text>
<text text-anchor="middle" x="263.989" y="-626.702" font-family="Helvetica,sans-Serif" font-size="10.00" fill="#ffffff">_arguments</text>
</g>
<!-- SimpleGUICS2Pygame_simpleguics2pygame__arguments&#45;&gt;SimpleGUICS2Pygame_simpleguics2pygame__fonts -->
<g id="edge9" class="edge"><title>SimpleGUICS2Pygame_simpleguics2pygame__arguments&#45;&gt;SimpleGUICS2Pygame_simpleguics2pygame__fonts</title><style>.edge>path:hover{stroke-width:8}</style>
<path fill="none" stroke="black" d="M323.911,-618.788C365.364,-604.666 420.665,-585.826 464.123,-571.021"/>
<polygon fill="#f90606" stroke="black" points="465.432,-574.272 473.769,-567.735 463.174,-567.646 465.432,-574.272"/>
</g>
<!-- SimpleGUICS2Pygame_simpleguics2pygame__arguments&#45;&gt;SimpleGUICS2Pygame_simpleguics2pygame_timer -->
<g id="edge13" class="edge"><title>SimpleGUICS2Pygame_simpleguics2pygame__arguments&#45;&gt;SimpleGUICS2Pygame_simpleguics2pygame_timer</title><style>.edge>path:hover{stroke-width:8}</style>
<path fill="none" stroke="black" d="M128.989,-545.219C104.376,-507.738 176.753,-514.339 206.989,-481.227 217.128,-470.124 221.607,-467.619 225.989,-453.236"/>
<path fill="none" stroke="black" d="M225.989,-451.236C233.15,-427.736 217.361,-406.454 198.155,-390.295"/>
<polygon fill="#f90606" stroke="black" points="200.091,-387.364 190.074,-383.915 195.754,-392.858 200.091,-387.364"/>
</g>
<!-- SimpleGUICS2Pygame_simpleguics2pygame_sound -->
<g id="node8" class="node"><title>SimpleGUICS2Pygame_simpleguics2pygame_sound</title><style>.edge>path:hover{stroke-width:8}</style>
<ellipse fill="#a83838" stroke="black" cx="109.989" cy="-452.236" rx="88.2768" ry="28.9828"/>
<text text-anchor="middle" x="109.989" y="-460.736" font-family="Helvetica,sans-Serif" font-size="10.00" fill="#ffffff">SimpleGUICS2Pygame.</text>
<text text-anchor="middle" x="109.989" y="-449.736" font-family="Helvetica,sans-Serif" font-size="10.00" fill="#ffffff">simpleguics2pygame.</text>
<text text-anchor="middle" x="109.989" y="-438.736" font-family="Helvetica,sans-Serif" font-size="10.00" fill="#ffffff">sound</text>
</g>
<!-- SimpleGUICS2Pygame_simpleguics2pygame__arguments&#45;&gt;SimpleGUICS2Pygame_simpleguics2pygame_sound -->
<g id="edge12" class="edge"><title>SimpleGUICS2Pygame_simpleguics2pygame__arguments&#45;&gt;SimpleGUICS2Pygame_simpleguics2pygame_sound</title><style>.edge>path:hover{stroke-width:8}</style>
<path fill="none" stroke="black" d="M128.989,-545.219C118.589,-529.381 113.716,-508.971 111.494,-491.402"/>
<polygon fill="#f90606" stroke="black" points="114.975,-491.031 110.471,-481.441 108.012,-491.747 114.975,-491.031"/>
</g>
<!-- SimpleGUICS2Pygame_simpleguics2pygame__media -->
<g id="node10" class="node"><title>SimpleGUICS2Pygame_simpleguics2pygame__media</title><style>.edge>path:hover{stroke-width:8}</style>
<ellipse fill="#b62020" stroke="black" cx="263.989" cy="-546.219" rx="88.2768" ry="28.9828"/>
<text text-anchor="middle" x="263.989" y="-554.719" font-family="Helvetica,sans-Serif" font-size="10.00" fill="#ffffff">SimpleGUICS2Pygame.</text>
<text text-anchor="middle" x="263.989" y="-543.719" font-family="Helvetica,sans-Serif" font-size="10.00" fill="#ffffff">simpleguics2pygame.</text>
<text text-anchor="middle" x="263.989" y="-532.719" font-family="Helvetica,sans-Serif" font-size="10.00" fill="#ffffff">_media</text>
</g>
<!-- SimpleGUICS2Pygame_simpleguics2pygame__arguments&#45;&gt;SimpleGUICS2Pygame_simpleguics2pygame__media -->
<g id="edge10" class="edge"><title>SimpleGUICS2Pygame_simpleguics2pygame__arguments&#45;&gt;SimpleGUICS2Pygame_simpleguics2pygame__media</title><style>.edge>path:hover{stroke-width:8}</style>
<path fill="none" stroke="black" d="M263.989,-611.104C263.989,-603.066 263.989,-594.164 263.989,-585.621"/>
<polygon fill="#f90606" stroke="black" points="267.489,-585.461 263.989,-575.461 260.489,-585.461 267.489,-585.461"/>
</g>
<!-- SimpleGUICS2Pygame_simpleguics2pygame__arguments&#45;&gt;SimpleGUICS2Pygame_simpleguics2pygame -->
<g id="edge8" class="edge"><title>SimpleGUICS2Pygame_simpleguics2pygame__arguments&#45;&gt;SimpleGUICS2Pygame_simpleguics2pygame</title><style>.edge>path:hover{stroke-width:8}</style>
<path fill="none" stroke="black" d="M212.443,-616.507C183.459,-601.096 149.149,-577.918 128.989,-547.219"/>
<path fill="none" stroke="black" d="M128.989,-545.219C96.6694,-496.002 42.9247,-531.93 12.9893,-481.227 -14.9047,-433.983 7.9287,-408.561 31.9893,-359.253"/>
<path fill="none" stroke="black" d="M31.9893,-357.253C70.857,-270.545 146.947,-319.479 224.989,-265.271"/>
<path fill="none" stroke="black" d="M224.989,-263.271C289.36,-218.558 376.527,-197.556 441.87,-187.709"/>
<polygon fill="#f90606" stroke="black" points="442.765,-191.116 452.162,-186.222 441.765,-184.188 442.765,-191.116"/>
</g>
<!-- SimpleGUICS2Pygame_simpleguics2pygame__arguments&#45;&gt;SimpleGUICS2Pygame_simpleguics2pygame_frame -->
<g id="edge11" class="edge"><title>SimpleGUICS2Pygame_simpleguics2pygame__arguments&#45;&gt;SimpleGUICS2Pygame_simpleguics2pygame_frame</title><style>.edge>path:hover{stroke-width:8}</style>
<path fill="none" stroke="black" d="M225.989,-451.236C232.435,-430.08 249.029,-375.542 263.989,-359.253"/>
<path fill="none" stroke="black" d="M263.989,-357.253C308.955,-308.296 381,-285.39 439.364,-274.676"/>
<polygon fill="#f90606" stroke="black" points="440.097,-278.101 449.348,-272.937 438.895,-271.205 440.097,-278.101"/>
</g>
<!-- SimpleGUICS2Pygame_simpleguics2pygame_sound&#45;&gt;SimpleGUICS2Pygame_simpleguics2pygame -->
<g id="edge41" class="edge"><title>SimpleGUICS2Pygame_simpleguics2pygame_sound&#45;&gt;SimpleGUICS2Pygame_simpleguics2pygame</title><style>.edge>path:hover{stroke-width:8}</style>
<path fill="none" stroke="black" d="M66.9412,-426.799C42.6328,-409.563 19.4097,-385.033 31.9893,-359.253"/>
</g>
<!-- SimpleGUICS2Pygame_simplegui_lib_fps -->
<g id="node9" class="node"><title>SimpleGUICS2Pygame_simplegui_lib_fps</title><style>.edge>path:hover{stroke-width:8}</style>
<ellipse fill="#b83d3d" stroke="black" cx="533.989" cy="-99.6396" rx="88.2768" ry="21.4286"/>
<text text-anchor="middle" x="533.989" y="-102.64" font-family="Helvetica,sans-Serif" font-size="10.00" fill="#ffffff">SimpleGUICS2Pygame.</text>
<text text-anchor="middle" x="533.989" y="-91.6396" font-family="Helvetica,sans-Serif" font-size="10.00" fill="#ffffff">simplegui_lib_fps</text>
</g>
<!-- SimpleGUICS2Pygame_simplegui_lib_fps&#45;&gt;SimpleGUICS2Pygame_simplegui_lib -->
<g id="edge2" class="edge"><title>SimpleGUICS2Pygame_simplegui_lib_fps&#45;&gt;SimpleGUICS2Pygame_simplegui_lib</title><style>.edge>path:hover{stroke-width:8}</style>
<path fill="none" stroke="black" d="M509.006,-79.1563C496.796,-69.634 481.943,-58.0504 468.828,-47.8231"/>
<polygon fill="#b83d3d" stroke="black" points="470.965,-45.0507 460.927,-41.661 466.66,-50.5706 470.965,-45.0507"/>
</g>
<!-- SimpleGUICS2Pygame_simpleguics2pygame__media&#45;&gt;SimpleGUICS2Pygame_simpleguics2pygame_image -->
<g id="edge21" class="edge"><title>SimpleGUICS2Pygame_simpleguics2pygame__media&#45;&gt;SimpleGUICS2Pygame_simpleguics2pygame_image</title><style>.edge>path:hover{stroke-width:8}</style>
<path fill="none" stroke="black" d="M305.258,-520.569C324.506,-509.073 347.58,-495.291 367.826,-483.198"/>
<polygon fill="#b62020" stroke="black" points="369.816,-486.087 376.606,-477.954 366.226,-480.077 369.816,-486.087"/>
</g>
<!-- SimpleGUICS2Pygame_simpleguics2pygame__media&#45;&gt;SimpleGUICS2Pygame_simpleguics2pygame_sound -->
<g id="edge22" class="edge"><title>SimpleGUICS2Pygame_simpleguics2pygame__media&#45;&gt;SimpleGUICS2Pygame_simpleguics2pygame_sound</title><style>.edge>path:hover{stroke-width:8}</style>
<path fill="none" stroke="black" d="M222.72,-520.569C203.473,-509.073 180.398,-495.291 160.153,-483.198"/>
<polygon fill="#b62020" stroke="black" points="161.752,-480.077 151.372,-477.954 158.163,-486.087 161.752,-480.077"/>
</g>
<!-- SimpleGUICS2Pygame_simpleguics2pygame__media&#45;&gt;SimpleGUICS2Pygame_simpleguics2pygame_frame -->
<g id="edge20" class="edge"><title>SimpleGUICS2Pygame_simpleguics2pygame__media&#45;&gt;SimpleGUICS2Pygame_simpleguics2pygame_frame</title><style>.edge>path:hover{stroke-width:8}</style>
<path fill="none" stroke="black" d="M259.663,-516.928C253.288,-470.741 244.138,-381.995 263.989,-359.253"/>
</g>
<!-- SimpleGUICS2Pygame_simplegui_lib_keys -->
<g id="node11" class="node"><title>SimpleGUICS2Pygame_simplegui_lib_keys</title><style>.edge>path:hover{stroke-width:8}</style>
<ellipse fill="#b83d3d" stroke="black" cx="728.989" cy="-99.6396" rx="88.2768" ry="21.4286"/>
<text text-anchor="middle" x="728.989" y="-102.64" font-family="Helvetica,sans-Serif" font-size="10.00" fill="#ffffff">SimpleGUICS2Pygame.</text>
<text text-anchor="middle" x="728.989" y="-91.6396" font-family="Helvetica,sans-Serif" font-size="10.00" fill="#ffffff">simplegui_lib_keys</text>
</g>
<!-- SimpleGUICS2Pygame_simplegui_lib_keys&#45;&gt;SimpleGUICS2Pygame_simplegui_lib -->
<g id="edge3" class="edge"><title>SimpleGUICS2Pygame_simplegui_lib_keys&#45;&gt;SimpleGUICS2Pygame_simplegui_lib</title><style>.edge>path:hover{stroke-width:8}</style>
<path fill="none" stroke="black" d="M671.102,-83.5402C622.945,-70.979 554.327,-53.0805 503.643,-39.86"/>
<polygon fill="#b83d3d" stroke="black" points="504.316,-36.4186 493.756,-37.2812 502.549,-43.192 504.316,-36.4186"/>
</g>
<!-- SimpleGUICS2Pygame_simplegui_lib_loader -->
<g id="node12" class="node"><title>SimpleGUICS2Pygame_simplegui_lib_loader</title><style>.edge>path:hover{stroke-width:8}</style>
<ellipse fill="#b83d3d" stroke="black" cx="338.989" cy="-99.6396" rx="88.2768" ry="21.4286"/>
<text text-anchor="middle" x="338.989" y="-102.64" font-family="Helvetica,sans-Serif" font-size="10.00" fill="#ffffff">SimpleGUICS2Pygame.</text>
<text text-anchor="middle" x="338.989" y="-91.6396" font-family="Helvetica,sans-Serif" font-size="10.00" fill="#ffffff">simplegui_lib_loader</text>
</g>
<!-- SimpleGUICS2Pygame_simplegui_lib_loader&#45;&gt;SimpleGUICS2Pygame_simplegui_lib -->
<g id="edge4" class="edge"><title>SimpleGUICS2Pygame_simplegui_lib_loader&#45;&gt;SimpleGUICS2Pygame_simplegui_lib</title><style>.edge>path:hover{stroke-width:8}</style>
<path fill="none" stroke="black" d="M363.717,-79.1563C375.689,-69.7239 390.228,-58.2688 403.118,-48.1129"/>
<polygon fill="#b83d3d" stroke="black" points="405.618,-50.599 411.306,-41.661 401.285,-45.1007 405.618,-50.599"/>
</g>
<!-- SimpleGUICS2Pygame_simpleguics2pygame&#45;&gt;SimpleGUICS2Pygame_simplegui_lib_fps -->
<g id="edge5" class="edge"><title>SimpleGUICS2Pygame_simpleguics2pygame&#45;&gt;SimpleGUICS2Pygame_simplegui_lib_fps</title><style>.edge>path:hover{stroke-width:8}</style>
<path fill="none" stroke="black" d="M533.989,-156.585C533.989,-148.726 533.989,-139.582 533.989,-130.992"/>
<polygon fill="#950303" stroke="black" points="537.489,-130.912 533.989,-120.912 530.489,-130.912 537.489,-130.912"/>
</g>
<!-- SimpleGUICS2Pygame_simpleguics2pygame&#45;&gt;SimpleGUICS2Pygame_simplegui_lib_keys -->
<g id="edge6" class="edge"><title>SimpleGUICS2Pygame_simpleguics2pygame&#45;&gt;SimpleGUICS2Pygame_simplegui_lib_keys</title><style>.edge>path:hover{stroke-width:8}</style>
<path fill="none" stroke="black" d="M578.726,-159.532C607.339,-148.318 644.626,-133.704 674.898,-121.84"/>
<polygon fill="#950303" stroke="black" points="676.427,-125 684.461,-118.092 673.873,-118.482 676.427,-125"/>
</g>
<!-- SimpleGUICS2Pygame_simpleguics2pygame&#45;&gt;SimpleGUICS2Pygame_simplegui_lib_loader -->
<g id="edge7" class="edge"><title>SimpleGUICS2Pygame_simpleguics2pygame&#45;&gt;SimpleGUICS2Pygame_simplegui_lib_loader</title><style>.edge>path:hover{stroke-width:8}</style>
<path fill="none" stroke="black" d="M489.252,-159.532C460.64,-148.318 423.353,-133.704 393.08,-121.84"/>
<polygon fill="#950303" stroke="black" points="394.106,-118.482 383.518,-118.092 391.551,-125 394.106,-118.482"/>
</g>
<!-- SimpleGUICS2Pygame_simplegui_lib_draw -->
<g id="node14" class="node"><title>SimpleGUICS2Pygame_simplegui_lib_draw</title><style>.edge>path:hover{stroke-width:8}</style>
<ellipse fill="#c04040" stroke="black" cx="143.989" cy="-99.6396" rx="88.2768" ry="21.4286"/>
<text text-anchor="middle" x="143.989" y="-102.64" font-family="Helvetica,sans-Serif" font-size="10.00" fill="#ffffff">SimpleGUICS2Pygame.</text>
<text text-anchor="middle" x="143.989" y="-91.6396" font-family="Helvetica,sans-Serif" font-size="10.00" fill="#ffffff">simplegui_lib_draw</text>
</g>
<!-- SimpleGUICS2Pygame_simplegui_lib_draw&#45;&gt;SimpleGUICS2Pygame_simplegui_lib -->
<g id="edge1" class="edge"><title>SimpleGUICS2Pygame_simplegui_lib_draw&#45;&gt;SimpleGUICS2Pygame_simplegui_lib</title><style>.edge>path:hover{stroke-width:8}</style>
<path fill="none" stroke="black" d="M201.679,-83.5402C249.593,-70.9994 317.833,-53.1386 368.321,-39.9244"/>
<polygon fill="#c04040" stroke="black" points="369.382,-43.2646 378.17,-37.3465 367.61,-36.4927 369.382,-43.2646"/>
</g>
<!-- SimpleGUICS2Pygame_simpleguics2pygame_control&#45;&gt;SimpleGUICS2Pygame_simpleguics2pygame -->
<g id="edge33" class="edge"><title>SimpleGUICS2Pygame_simpleguics2pygame_control&#45;&gt;SimpleGUICS2Pygame_simpleguics2pygame</title><style>.edge>path:hover{stroke-width:8}</style>
<path fill="none" stroke="black" d="M817.882,-428.627C844.461,-413.538 873.08,-390.655 881.989,-359.253"/>
<path fill="none" stroke="black" d="M881.989,-357.253C893.148,-317.925 888.163,-305.683 881.989,-265.271"/>
</g>
<!-- SimpleGUICS2Pygame_simpleguics2pygame_control&#45;&gt;SimpleGUICS2Pygame_simpleguics2pygame_frame -->
<g id="edge34" class="edge"><title>SimpleGUICS2Pygame_simpleguics2pygame_control&#45;&gt;SimpleGUICS2Pygame_simpleguics2pygame_frame</title><style>.edge>path:hover{stroke-width:8}</style>
<path fill="none" stroke="black" d="M721.15,-426.973C703.677,-416.219 684.23,-402.532 668.989,-387.245 647.235,-365.425 652.743,-351.082 630.989,-329.262 618.249,-316.483 602.57,-304.822 587.561,-295.057"/>
<polygon fill="#a32828" stroke="black" points="589.151,-291.922 578.828,-289.533 585.408,-297.837 589.151,-291.922"/>
</g>
<!-- SimpleGUICS2Pygame_simpleguics2pygame__pygame_init -->
<g id="node16" class="node"><title>SimpleGUICS2Pygame_simpleguics2pygame__pygame_init</title><style>.edge>path:hover{stroke-width:8}</style>
<ellipse fill="#d10505" stroke="black" cx="784.989" cy="-640.202" rx="88.2768" ry="28.9828"/>
<text text-anchor="middle" x="784.989" y="-648.702" font-family="Helvetica,sans-Serif" font-size="10.00" fill="#ffffff">SimpleGUICS2Pygame.</text>
<text text-anchor="middle" x="784.989" y="-637.702" font-family="Helvetica,sans-Serif" font-size="10.00" fill="#ffffff">simpleguics2pygame.</text>
<text text-anchor="middle" x="784.989" y="-626.702" font-family="Helvetica,sans-Serif" font-size="10.00" fill="#ffffff">_pygame_init</text>
</g>
<!-- SimpleGUICS2Pygame_simpleguics2pygame__pygame_init&#45;&gt;SimpleGUICS2Pygame_simpleguics2pygame__colors -->
<g id="edge24" class="edge"><title>SimpleGUICS2Pygame_simpleguics2pygame__pygame_init&#45;&gt;SimpleGUICS2Pygame_simpleguics2pygame__colors</title><style>.edge>path:hover{stroke-width:8}</style>
<path fill="none" stroke="black" d="M779.185,-611.104C777.507,-602.978 775.646,-593.968 773.864,-585.34"/>
<polygon fill="#d10505" stroke="black" points="777.274,-584.547 771.823,-575.461 770.418,-585.963 777.274,-584.547"/>
</g>
<!-- SimpleGUICS2Pygame_simpleguics2pygame__pygame_init&#45;&gt;SimpleGUICS2Pygame_simpleguics2pygame__fonts -->
<g id="edge25" class="edge"><title>SimpleGUICS2Pygame_simpleguics2pygame__pygame_init&#45;&gt;SimpleGUICS2Pygame_simpleguics2pygame__fonts</title><style>.edge>path:hover{stroke-width:8}</style>
<path fill="none" stroke="black" d="M727.405,-618.099C689.912,-604.359 640.846,-586.378 601.516,-571.965"/>
<polygon fill="#d10505" stroke="black" points="602.334,-568.537 591.74,-568.382 599.925,-575.11 602.334,-568.537"/>
</g>
<!-- SimpleGUICS2Pygame_simpleguics2pygame__pygame_init&#45;&gt;SimpleGUICS2Pygame_simpleguics2pygame_image -->
<g id="edge30" class="edge"><title>SimpleGUICS2Pygame_simpleguics2pygame__pygame_init&#45;&gt;SimpleGUICS2Pygame_simpleguics2pygame_image</title><style>.edge>path:hover{stroke-width:8}</style>
<path fill="none" stroke="black" d="M698.144,-634.492C607.09,-627.665 472.386,-611.587 436.989,-575.21 415.812,-553.447 412.257,-518.409 413.304,-491.458"/>
<polygon fill="#d10505" stroke="black" points="416.814,-491.398 413.934,-481.203 409.827,-490.969 416.814,-491.398"/>
</g>
<!-- SimpleGUICS2Pygame_simpleguics2pygame__pygame_init&#45;&gt;SimpleGUICS2Pygame_simpleguics2pygame_canvas -->
<g id="edge27" class="edge"><title>SimpleGUICS2Pygame_simpleguics2pygame__pygame_init&#45;&gt;SimpleGUICS2Pygame_simpleguics2pygame_canvas</title><style>.edge>path:hover{stroke-width:8}</style>
<path fill="none" stroke="black" d="M649.989,-545.219C627.549,-511.047 676.989,-483.933 649.989,-453.236"/>
<path fill="none" stroke="black" d="M649.989,-451.236C639.167,-438.931 638.147,-434.232 625.989,-423.245 612.837,-411.358 597.392,-399.827 582.953,-389.903"/>
<polygon fill="#d10505" stroke="black" points="584.838,-386.953 574.593,-384.255 580.92,-392.753 584.838,-386.953"/>
</g>
<!-- SimpleGUICS2Pygame_simpleguics2pygame__pygame_init&#45;&gt;SimpleGUICS2Pygame_simpleguics2pygame__media -->
<g id="edge26" class="edge"><title>SimpleGUICS2Pygame_simpleguics2pygame__pygame_init&#45;&gt;SimpleGUICS2Pygame_simpleguics2pygame__media</title><style>.edge>path:hover{stroke-width:8}</style>
<path fill="none" stroke="black" d="M706.423,-626.734C629.3,-614.324 508.381,-594.408 403.989,-575.21 385.702,-571.847 366.11,-568.051 347.549,-564.365"/>
<polygon fill="#d10505" stroke="black" points="348.146,-560.916 337.655,-562.392 346.777,-567.78 348.146,-560.916"/>
</g>
<!-- SimpleGUICS2Pygame_simpleguics2pygame__pygame_init&#45;&gt;SimpleGUICS2Pygame_simpleguics2pygame -->
<g id="edge23" class="edge"><title>SimpleGUICS2Pygame_simpleguics2pygame__pygame_init&#45;&gt;SimpleGUICS2Pygame_simpleguics2pygame</title><style>.edge>path:hover{stroke-width:8}</style>
<path fill="none" stroke="black" d="M881.989,-545.219C892.223,-463.204 859.429,-438.766 881.989,-359.253"/>
</g>
<!-- SimpleGUICS2Pygame_simpleguics2pygame__pygame_init&#45;&gt;SimpleGUICS2Pygame_simpleguics2pygame_control -->
<g id="edge28" class="edge"><title>SimpleGUICS2Pygame_simpleguics2pygame__pygame_init&#45;&gt;SimpleGUICS2Pygame_simpleguics2pygame_control</title><style>.edge>path:hover{stroke-width:8}</style>
<path fill="none" stroke="black" d="M830.731,-615.318C854.061,-599.692 878.311,-576.697 881.989,-547.219"/>
<path fill="none" stroke="black" d="M881.989,-545.219C885.737,-515.186 861.493,-493.32 834.216,-478.463"/>
<polygon fill="#d10505" stroke="black" points="835.78,-475.332 825.285,-473.884 832.586,-481.561 835.78,-475.332"/>
</g>
<!-- SimpleGUICS2Pygame_simpleguics2pygame__pygame_init&#45;&gt;SimpleGUICS2Pygame_simpleguics2pygame_frame -->
<g id="edge29" class="edge"><title>SimpleGUICS2Pygame_simpleguics2pygame__pygame_init&#45;&gt;SimpleGUICS2Pygame_simpleguics2pygame_frame</title><style>.edge>path:hover{stroke-width:8}</style>
<path fill="none" stroke="black" d="M732.495,-616.843C711.294,-606.21 687.515,-592.101 668.989,-575.21 657.878,-565.08 658.243,-559.787 649.989,-547.219"/>
<path fill="none" stroke="black" d="M649.989,-545.219C625.71,-508.246 648.169,-478.682 611.989,-453.236"/>
<path fill="none" stroke="black" d="M611.989,-451.236C586.595,-433.376 577.013,-434.267 547.989,-423.245 499.505,-404.831 478.463,-418.385 436.989,-387.245 424.965,-378.217 414.903,-373.969 417.989,-359.253"/>
</g>
<!-- SimpleGUICS2Pygame_simpleplot -->
<g id="node17" class="node"><title>SimpleGUICS2Pygame_simpleplot</title><style>.edge>path:hover{stroke-width:8}</style>
<ellipse fill="#ac4949" stroke="black" cx="900.989" cy="-726.406" rx="88.2768" ry="21.4286"/>
<text text-anchor="middle" x="900.989" y="-729.406" font-family="Helvetica,sans-Serif" font-size="10.00" fill="#ffffff">SimpleGUICS2Pygame.</text>
<text text-anchor="middle" x="900.989" y="-718.406" font-family="Helvetica,sans-Serif" font-size="10.00" fill="#ffffff">simpleplot</text>
</g>
<!-- SimpleGUICS2Pygame_simpleguics2pygame_frame&#45;&gt;SimpleGUICS2Pygame_simpleguics2pygame -->
<g id="edge35" class="edge"><title>SimpleGUICS2Pygame_simpleguics2pygame_frame&#45;&gt;SimpleGUICS2Pygame_simpleguics2pygame</title><style>.edge>path:hover{stroke-width:8}</style>
<path fill="none" stroke="black" d="M533.989,-235.232C533.989,-227.024 533.989,-218.01 533.989,-209.653"/>
<polygon fill="#732626" stroke="black" points="537.489,-209.527 533.989,-199.527 530.489,-209.527 537.489,-209.527"/>
</g>
<!-- SimpleGUICS2Pygame_simpleguics2pygame_keys -->
<g id="node19" class="node"><title>SimpleGUICS2Pygame_simpleguics2pygame_keys</title><style>.edge>path:hover{stroke-width:8}</style>
<ellipse fill="#ce3b3b" stroke="black" cx="765.989" cy="-358.253" rx="88.2768" ry="28.9828"/>
<text text-anchor="middle" x="765.989" y="-366.753" font-family="Helvetica,sans-Serif" font-size="10.00" fill="#ffffff">SimpleGUICS2Pygame.</text>
<text text-anchor="middle" x="765.989" y="-355.753" font-family="Helvetica,sans-Serif" font-size="10.00" fill="#ffffff">simpleguics2pygame.</text>
<text text-anchor="middle" x="765.989" y="-344.753" font-family="Helvetica,sans-Serif" font-size="10.00" fill="#ffffff">keys</text>
</g>
<!-- SimpleGUICS2Pygame_simpleguics2pygame_keys&#45;&gt;SimpleGUICS2Pygame_simpleguics2pygame -->
<g id="edge39" class="edge"><title>SimpleGUICS2Pygame_simpleguics2pygame_keys&#45;&gt;SimpleGUICS2Pygame_simpleguics2pygame</title><style>.edge>path:hover{stroke-width:8}</style>
<path fill="none" stroke="black" d="M825.587,-336.685C856.58,-321.86 887.074,-298.554 881.989,-265.271"/>
</g>
<!-- SimpleGUICS2Pygame_simpleguics2pygame_keys&#45;&gt;SimpleGUICS2Pygame_simpleguics2pygame_frame -->
<g id="edge40" class="edge"><title>SimpleGUICS2Pygame_simpleguics2pygame_keys&#45;&gt;SimpleGUICS2Pygame_simpleguics2pygame_frame</title><style>.edge>path:hover{stroke-width:8}</style>
<path fill="none" stroke="black" d="M711.009,-335.455C677.327,-322.101 634.049,-304.942 598.717,-290.934"/>
<polygon fill="#ce3b3b" stroke="black" points="599.563,-287.504 588.977,-287.072 596.983,-294.011 599.563,-287.504"/>
</g>
<!-- matplotlib -->
<g id="node20" class="node"><title>matplotlib</title><style>.edge>path:hover{stroke-width:8}</style>
<polygon fill="#40c040" stroke="black" points="930.489,-856.619 927.489,-860.619 906.489,-860.619 903.489,-856.619 871.489,-856.619 871.489,-820.619 930.489,-820.619 930.489,-856.619"/>
<text text-anchor="middle" x="900.989" y="-836.119" font-family="Helvetica,sans-Serif" font-size="10.00" fill="#000000">matplotlib</text>
</g>
<!-- matplotlib&#45;&gt;SimpleGUICS2Pygame_simpleplot -->
<g id="edge44" class="edge"><title>matplotlib&#45;&gt;SimpleGUICS2Pygame_simpleplot</title><style>.edge>path:hover{stroke-width:8}</style>
<path fill="none" stroke="black" d="M900.989,-820.399C900.989,-803.771 900.989,-778.225 900.989,-758.112"/>
<polygon fill="#40c040" stroke="black" points="904.489,-757.878 900.989,-747.878 897.489,-757.878 904.489,-757.878"/>
</g>
<!-- pygame -->
<g id="node21" class="node"><title>pygame</title><style>.edge>path:hover{stroke-width:8}</style>
<polygon fill="#4747c2" stroke="black" points="811.989,-856.619 808.989,-860.619 787.989,-860.619 784.989,-856.619 757.989,-856.619 757.989,-820.619 811.989,-820.619 811.989,-856.619"/>
<text text-anchor="middle" x="784.989" y="-836.119" font-family="Helvetica,sans-Serif" font-size="10.00" fill="#ffffff">pygame</text>
</g>
<!-- pygame&#45;&gt;SimpleGUICS2Pygame_simpleguics2pygame__colors -->
<g id="edge45" class="edge"><title>pygame&#45;&gt;SimpleGUICS2Pygame_simpleguics2pygame__colors</title><style>.edge>path:hover{stroke-width:8}</style>
<path fill="none" stroke="black" d="M784.989,-725.406C762.707,-658.294 908.859,-711.035 919.989,-641.202"/>
<path fill="none" stroke="black" d="M919.989,-639.202C923.471,-617.355 875.656,-591.426 832.409,-572.675"/>
<polygon fill="#4747c2" stroke="black" points="833.557,-569.36 822.985,-568.668 830.818,-575.802 833.557,-569.36"/>
</g>
<!-- pygame&#45;&gt;SimpleGUICS2Pygame_simpleguics2pygame__fonts -->
<g id="edge46" class="edge"><title>pygame&#45;&gt;SimpleGUICS2Pygame_simpleguics2pygame__fonts</title><style>.edge>path:hover{stroke-width:8}</style>
<path fill="none" stroke="black" d="M456.989,-639.202C433.769,-622.842 457.148,-597.805 484.063,-577.981"/>
<polygon fill="#4747c2" stroke="black" points="486.349,-580.65 492.481,-572.011 482.3,-574.94 486.349,-580.65"/>
</g>
<!-- pygame&#45;&gt;SimpleGUICS2Pygame_simpleguics2pygame_canvas -->
<g id="edge49" class="edge"><title>pygame&#45;&gt;SimpleGUICS2Pygame_simpleguics2pygame_canvas</title><style>.edge>path:hover{stroke-width:8}</style>
<path fill="none" stroke="black" d="M919.989,-545.219C899.854,-488.87 910.314,-459.864 862.989,-423.245 793.634,-369.578 755.039,-404.148 668.989,-387.245 652.202,-383.947 634.266,-380.309 617.131,-376.778"/>
<polygon fill="#4747c2" stroke="black" points="617.65,-373.311 607.149,-374.714 616.233,-380.166 617.65,-373.311"/>
</g>
<!-- pygame&#45;&gt;SimpleGUICS2Pygame_simpleguics2pygame__media -->
<g id="edge47" class="edge"><title>pygame&#45;&gt;SimpleGUICS2Pygame_simpleguics2pygame__media</title><style>.edge>path:hover{stroke-width:8}</style>
<path fill="none" stroke="black" d="M788.279,-820.283C791.753,-798.11 795.42,-758.822 784.989,-727.406"/>
<path fill="none" stroke="black" d="M784.989,-725.406C758.214,-655.078 518.507,-684.544 456.989,-641.202"/>
<path fill="none" stroke="black" d="M456.989,-639.202C417.968,-611.709 369.446,-588.626 330.817,-572.46"/>
<polygon fill="#4747c2" stroke="black" points="331.8,-569.079 321.221,-568.5 329.13,-575.55 331.8,-569.079"/>
</g>
<!-- pygame&#45;&gt;SimpleGUICS2Pygame_simpleguics2pygame_control -->
<g id="edge50" class="edge"><title>pygame&#45;&gt;SimpleGUICS2Pygame_simpleguics2pygame_control</title><style>.edge>path:hover{stroke-width:8}</style>
<path fill="none" stroke="black" d="M919.989,-639.202C926.424,-598.83 933.746,-585.716 919.989,-547.219"/>
<path fill="none" stroke="black" d="M919.989,-545.219C907.828,-511.187 875.049,-489.108 842.842,-475.138"/>
<polygon fill="#4747c2" stroke="black" points="843.921,-471.798 833.341,-471.234 841.26,-478.272 843.921,-471.798"/>
</g>
<!-- pygame&#45;&gt;SimpleGUICS2Pygame_simpleguics2pygame__pygame_init -->
<g id="edge48" class="edge"><title>pygame&#45;&gt;SimpleGUICS2Pygame_simpleguics2pygame__pygame_init</title><style>.edge>path:hover{stroke-width:8}</style>
<path fill="none" stroke="black" d="M784.989,-725.406C780.171,-710.893 779.29,-694.18 779.934,-679.489"/>
<polygon fill="#4747c2" stroke="black" points="783.446,-679.425 780.637,-669.209 776.463,-678.947 783.446,-679.425"/>
</g>
<!-- pygame&#45;&gt;SimpleGUICS2Pygame_simpleguics2pygame_frame -->
<g id="edge51" class="edge"><title>pygame&#45;&gt;SimpleGUICS2Pygame_simpleguics2pygame_frame</title><style>.edge>path:hover{stroke-width:8}</style>
<path fill="none" stroke="black" d="M456.989,-639.202C400.593,-599.468 408.134,-567.592 360.989,-517.227 344.644,-499.766 330.72,-503.076 320.989,-481.227 310.505,-457.686 308.775,-445.936 320.989,-423.245 345.469,-377.768 407.388,-409.801 417.989,-359.253"/>
<path fill="none" stroke="black" d="M417.989,-357.253C423.515,-328.712 446.803,-307.435 471.078,-292.575"/>
<polygon fill="#4747c2" stroke="black" points="473.135,-295.429 480.036,-287.389 469.628,-289.371 473.135,-295.429"/>
</g>
</g>
</svg>
