<?xml version="1.0" encoding="UTF-8" standalone="no"?>
<!DOCTYPE svg PUBLIC "-//W3C//DTD SVG 1.1//EN"
 "http://www.w3.org/Graphics/SVG/1.1/DTD/svg11.dtd">
<!-- Generated by graphviz version 2.38.0 (20140413.2041)
 -->
<!-- Title: G Pages: 1 -->
<svg width="994pt" height="865pt"
 viewBox="0.00 0.00 993.78 864.62" xmlns="http://www.w3.org/2000/svg" xmlns:xlink="http://www.w3.org/1999/xlink">
<g id="graph0" class="graph" transform="scale(1 1) rotate(0) translate(4 860.619)">
<title>G</title><style>.edge>path:hover{stroke-width:8}</style>
<polygon fill="white" stroke="none" points="-4,4 -4,-860.619 989.782,-860.619 989.782,4 -4,4"/>
<!-- SimpleGUICS2Pygame_simpleguics2pygame__colors -->
<g id="node1" class="node"><title>SimpleGUICS2Pygame_simpleguics2pygame__colors</title><style>.edge>path:hover{stroke-width:8}</style>
<ellipse fill="#bf2121" stroke="black" cx="781.393" cy="-546.219" rx="88.2768" ry="28.9828"/>
<text text-anchor="middle" x="781.393" y="-554.719" font-family="Helvetica,sans-Serif" font-size="10.00" fill="#ffffff">SimpleGUICS2Pygame.</text>
<text text-anchor="middle" x="781.393" y="-543.719" font-family="Helvetica,sans-Serif" font-size="10.00" fill="#ffffff">simpleguics2pygame.</text>
<text text-anchor="middle" x="781.393" y="-532.719" font-family="Helvetica,sans-Serif" font-size="10.00" fill="#ffffff">_colors</text>
</g>
<!-- SimpleGUICS2Pygame_simpleguics2pygame_canvas -->
<g id="node3" class="node"><title>SimpleGUICS2Pygame_simpleguics2pygame_canvas</title><style>.edge>path:hover{stroke-width:8}</style>
<ellipse fill="#9b2626" stroke="black" cx="587.393" cy="-358.253" rx="88.2768" ry="28.9828"/>
<text text-anchor="middle" x="587.393" y="-366.753" font-family="Helvetica,sans-Serif" font-size="10.00" fill="#ffffff">SimpleGUICS2Pygame.</text>
<text text-anchor="middle" x="587.393" y="-355.753" font-family="Helvetica,sans-Serif" font-size="10.00" fill="#ffffff">simpleguics2pygame.</text>
<text text-anchor="middle" x="587.393" y="-344.753" font-family="Helvetica,sans-Serif" font-size="10.00" fill="#ffffff">canvas</text>
</g>
<!-- SimpleGUICS2Pygame_simpleguics2pygame__colors&#45;&gt;SimpleGUICS2Pygame_simpleguics2pygame_canvas -->
<g id="edge14" class="edge"><title>SimpleGUICS2Pygame_simpleguics2pygame__colors&#45;&gt;SimpleGUICS2Pygame_simpleguics2pygame_canvas</title><style>.edge>path:hover{stroke-width:8}</style>
<path fill="none" stroke="black" d="M754.91,-518.294C744.397,-507.152 732.441,-493.895 722.393,-481.227 713.049,-469.448 712.164,-465.449 703.393,-453.236"/>
<path fill="none" stroke="black" d="M703.393,-451.236C685.911,-426.894 660.289,-405.644 637.568,-389.719"/>
<polygon fill="#bf2121" stroke="black" points="639.257,-386.633 629.026,-383.88 635.307,-392.412 639.257,-386.633"/>
</g>
<!-- SimpleGUICS2Pygame_simpleguics2pygame_frame -->
<g id="node10" class="node"><title>SimpleGUICS2Pygame_simpleguics2pygame_frame</title><style>.edge>path:hover{stroke-width:8}</style>
<ellipse fill="#732626" stroke="black" cx="529.393" cy="-264.271" rx="88.2768" ry="28.9828"/>
<text text-anchor="middle" x="529.393" y="-272.771" font-family="Helvetica,sans-Serif" font-size="10.00" fill="#ffffff">SimpleGUICS2Pygame.</text>
<text text-anchor="middle" x="529.393" y="-261.771" font-family="Helvetica,sans-Serif" font-size="10.00" fill="#ffffff">simpleguics2pygame.</text>
<text text-anchor="middle" x="529.393" y="-250.771" font-family="Helvetica,sans-Serif" font-size="10.00" fill="#ffffff">frame</text>
</g>
<!-- SimpleGUICS2Pygame_simpleguics2pygame__colors&#45;&gt;SimpleGUICS2Pygame_simpleguics2pygame_frame -->
<g id="edge16" class="edge"><title>SimpleGUICS2Pygame_simpleguics2pygame__colors&#45;&gt;SimpleGUICS2Pygame_simpleguics2pygame_frame</title><style>.edge>path:hover{stroke-width:8}</style>
<path fill="none" stroke="black" d="M703.393,-451.236C679.546,-418.031 733.122,-387.315 703.393,-359.253"/>
<path fill="none" stroke="black" d="M703.393,-357.253C692.459,-346.932 696.056,-338.751 684.393,-329.262 661.566,-310.689 632.598,-296.806 605.899,-286.805"/>
<polygon fill="#bf2121" stroke="black" points="606.775,-283.4 596.181,-283.295 604.397,-289.984 606.775,-283.4"/>
</g>
<!-- SimpleGUICS2Pygame_simpleguics2pygame_control -->
<g id="node19" class="node"><title>SimpleGUICS2Pygame_simpleguics2pygame_control</title><style>.edge>path:hover{stroke-width:8}</style>
<ellipse fill="#a32828" stroke="black" cx="819.393" cy="-452.236" rx="88.2768" ry="28.9828"/>
<text text-anchor="middle" x="819.393" y="-460.736" font-family="Helvetica,sans-Serif" font-size="10.00" fill="#ffffff">SimpleGUICS2Pygame.</text>
<text text-anchor="middle" x="819.393" y="-449.736" font-family="Helvetica,sans-Serif" font-size="10.00" fill="#ffffff">simpleguics2pygame.</text>
<text text-anchor="middle" x="819.393" y="-438.736" font-family="Helvetica,sans-Serif" font-size="10.00" fill="#ffffff">control</text>
</g>
<!-- SimpleGUICS2Pygame_simpleguics2pygame__colors&#45;&gt;SimpleGUICS2Pygame_simpleguics2pygame_control -->
<g id="edge15" class="edge"><title>SimpleGUICS2Pygame_simpleguics2pygame__colors&#45;&gt;SimpleGUICS2Pygame_simpleguics2pygame_control</title><style>.edge>path:hover{stroke-width:8}</style>
<path fill="none" stroke="black" d="M793.001,-517.121C796.463,-508.741 800.313,-499.421 803.979,-490.548"/>
<polygon fill="#bf2121" stroke="black" points="807.273,-491.74 807.857,-481.162 800.803,-489.068 807.273,-491.74"/>
</g>
<!-- SimpleGUICS2Pygame_simplegui_lib -->
<g id="node2" class="node"><title>SimpleGUICS2Pygame_simplegui_lib</title><style>.edge>path:hover{stroke-width:8}</style>
<ellipse fill="#964040" stroke="black" cx="431.393" cy="-21.2132" rx="88.2768" ry="21.4286"/>
<text text-anchor="middle" x="431.393" y="-24.2132" font-family="Helvetica,sans-Serif" font-size="10.00" fill="#ffffff">SimpleGUICS2Pygame.</text>
<text text-anchor="middle" x="431.393" y="-13.2132" font-family="Helvetica,sans-Serif" font-size="10.00" fill="#ffffff">simplegui_lib</text>
</g>
<!-- SimpleGUICS2Pygame_simpleguics2pygame -->
<g id="node8" class="node"><title>SimpleGUICS2Pygame_simpleguics2pygame</title><style>.edge>path:hover{stroke-width:8}</style>
<ellipse fill="#950303" stroke="black" cx="529.393" cy="-178.066" rx="88.2768" ry="21.4286"/>
<text text-anchor="middle" x="529.393" y="-181.066" font-family="Helvetica,sans-Serif" font-size="10.00" fill="#ffffff">SimpleGUICS2Pygame.</text>
<text text-anchor="middle" x="529.393" y="-170.066" font-family="Helvetica,sans-Serif" font-size="10.00" fill="#ffffff">simpleguics2pygame</text>
</g>
<!-- SimpleGUICS2Pygame_simpleguics2pygame_canvas&#45;&gt;SimpleGUICS2Pygame_simpleguics2pygame -->
<g id="edge31" class="edge"><title>SimpleGUICS2Pygame_simpleguics2pygame_canvas&#45;&gt;SimpleGUICS2Pygame_simpleguics2pygame</title><style>.edge>path:hover{stroke-width:8}</style>
<path fill="none" stroke="black" d="M660.535,-341.691C763.302,-319.308 937.76,-279.19 935.393,-265.271"/>
<path fill="none" stroke="black" d="M935.393,-263.271C924.988,-202.07 744.319,-185.113 627.53,-180.563"/>
<polygon fill="#9b2626" stroke="black" points="627.608,-177.064 617.487,-180.196 627.352,-184.059 627.608,-177.064"/>
</g>
<!-- SimpleGUICS2Pygame_simpleguics2pygame_canvas&#45;&gt;SimpleGUICS2Pygame_simpleguics2pygame_frame -->
<g id="edge32" class="edge"><title>SimpleGUICS2Pygame_simpleguics2pygame_canvas&#45;&gt;SimpleGUICS2Pygame_simpleguics2pygame_frame</title><style>.edge>path:hover{stroke-width:8}</style>
<path fill="none" stroke="black" d="M569.991,-329.655C564.428,-320.833 558.184,-310.929 552.291,-301.584"/>
<polygon fill="#9b2626" stroke="black" points="555.077,-299.441 546.783,-292.849 549.156,-303.175 555.077,-299.441"/>
</g>
<!-- SimpleGUICS2Pygame_simplegui_lib_draw -->
<g id="node4" class="node"><title>SimpleGUICS2Pygame_simplegui_lib_draw</title><style>.edge>path:hover{stroke-width:8}</style>
<ellipse fill="#c04040" stroke="black" cx="139.393" cy="-99.6396" rx="88.2768" ry="21.4286"/>
<text text-anchor="middle" x="139.393" y="-102.64" font-family="Helvetica,sans-Serif" font-size="10.00" fill="#ffffff">SimpleGUICS2Pygame.</text>
<text text-anchor="middle" x="139.393" y="-91.6396" font-family="Helvetica,sans-Serif" font-size="10.00" fill="#ffffff">simplegui_lib_draw</text>
</g>
<!-- SimpleGUICS2Pygame_simplegui_lib_draw&#45;&gt;SimpleGUICS2Pygame_simplegui_lib -->
<g id="edge1" class="edge"><title>SimpleGUICS2Pygame_simplegui_lib_draw&#45;&gt;SimpleGUICS2Pygame_simplegui_lib</title><style>.edge>path:hover{stroke-width:8}</style>
<path fill="none" stroke="black" d="M197.083,-83.5402C244.997,-70.9994 313.237,-53.1386 363.725,-39.9244"/>
<polygon fill="#c04040" stroke="black" points="364.786,-43.2646 373.574,-37.3465 363.014,-36.4927 364.786,-43.2646"/>
</g>
<!-- SimpleGUICS2Pygame_simpleplot -->
<g id="node5" class="node"><title>SimpleGUICS2Pygame_simpleplot</title><style>.edge>path:hover{stroke-width:8}</style>
<ellipse fill="#ac4949" stroke="black" cx="897.393" cy="-726.406" rx="88.2768" ry="21.4286"/>
<text text-anchor="middle" x="897.393" y="-729.406" font-family="Helvetica,sans-Serif" font-size="10.00" fill="#ffffff">SimpleGUICS2Pygame.</text>
<text text-anchor="middle" x="897.393" y="-718.406" font-family="Helvetica,sans-Serif" font-size="10.00" fill="#ffffff">simpleplot</text>
</g>
<!-- SimpleGUICS2Pygame_simpleguics2pygame__pygame_init -->
<g id="node6" class="node"><title>SimpleGUICS2Pygame_simpleguics2pygame__pygame_init</title><style>.edge>path:hover{stroke-width:8}</style>
<ellipse fill="#d10505" stroke="black" cx="781.393" cy="-640.202" rx="88.2768" ry="28.9828"/>
<text text-anchor="middle" x="781.393" y="-648.702" font-family="Helvetica,sans-Serif" font-size="10.00" fill="#ffffff">SimpleGUICS2Pygame.</text>
<text text-anchor="middle" x="781.393" y="-637.702" font-family="Helvetica,sans-Serif" font-size="10.00" fill="#ffffff">simpleguics2pygame.</text>
<text text-anchor="middle" x="781.393" y="-626.702" font-family="Helvetica,sans-Serif" font-size="10.00" fill="#ffffff">_pygame_init</text>
</g>
<!-- SimpleGUICS2Pygame_simpleguics2pygame__pygame_init&#45;&gt;SimpleGUICS2Pygame_simpleguics2pygame__colors -->
<g id="edge24" class="edge"><title>SimpleGUICS2Pygame_simpleguics2pygame__pygame_init&#45;&gt;SimpleGUICS2Pygame_simpleguics2pygame__colors</title><style>.edge>path:hover{stroke-width:8}</style>
<path fill="none" stroke="black" d="M781.393,-611.104C781.393,-603.066 781.393,-594.164 781.393,-585.621"/>
<polygon fill="#d10505" stroke="black" points="784.893,-585.461 781.393,-575.461 777.893,-585.461 784.893,-585.461"/>
</g>
<!-- SimpleGUICS2Pygame_simpleguics2pygame__pygame_init&#45;&gt;SimpleGUICS2Pygame_simpleguics2pygame_canvas -->
<g id="edge27" class="edge"><title>SimpleGUICS2Pygame_simpleguics2pygame__pygame_init&#45;&gt;SimpleGUICS2Pygame_simpleguics2pygame_canvas</title><style>.edge>path:hover{stroke-width:8}</style>
<path fill="none" stroke="black" d="M587.393,-451.236C576.362,-435.876 575.536,-415.045 577.835,-397.09"/>
<polygon fill="#d10505" stroke="black" points="581.294,-397.622 579.442,-387.19 574.385,-396.501 581.294,-397.622"/>
</g>
<!-- SimpleGUICS2Pygame_simpleguics2pygame__pygame_init&#45;&gt;SimpleGUICS2Pygame_simpleguics2pygame -->
<g id="edge23" class="edge"><title>SimpleGUICS2Pygame_simpleguics2pygame__pygame_init&#45;&gt;SimpleGUICS2Pygame_simpleguics2pygame</title><style>.edge>path:hover{stroke-width:8}</style>
<path fill="none" stroke="black" d="M848.224,-621.1C871.856,-611.339 896.29,-596.726 911.393,-575.21 966.876,-496.168 909.034,-452.158 935.393,-359.253"/>
</g>
<!-- SimpleGUICS2Pygame_simpleguics2pygame__pygame_init&#45;&gt;SimpleGUICS2Pygame_simpleguics2pygame_frame -->
<g id="edge29" class="edge"><title>SimpleGUICS2Pygame_simpleguics2pygame__pygame_init&#45;&gt;SimpleGUICS2Pygame_simpleguics2pygame_frame</title><style>.edge>path:hover{stroke-width:8}</style>
<path fill="none" stroke="black" d="M736.554,-614.939C719.081,-604.185 699.634,-590.498 684.393,-575.21 662.639,-553.39 665.345,-541.521 646.393,-517.227 622.599,-486.726 609.959,-484.657 587.393,-453.236"/>
<path fill="none" stroke="black" d="M587.393,-451.236C549.012,-397.794 445.155,-419.593 471.393,-359.253"/>
</g>
<!-- SimpleGUICS2Pygame_simpleguics2pygame_image -->
<g id="node11" class="node"><title>SimpleGUICS2Pygame_simpleguics2pygame_image</title><style>.edge>path:hover{stroke-width:8}</style>
<ellipse fill="#bf2121" stroke="black" cx="395.393" cy="-452.236" rx="88.2768" ry="28.9828"/>
<text text-anchor="middle" x="395.393" y="-460.736" font-family="Helvetica,sans-Serif" font-size="10.00" fill="#ffffff">SimpleGUICS2Pygame.</text>
<text text-anchor="middle" x="395.393" y="-449.736" font-family="Helvetica,sans-Serif" font-size="10.00" fill="#ffffff">simpleguics2pygame.</text>
<text text-anchor="middle" x="395.393" y="-438.736" font-family="Helvetica,sans-Serif" font-size="10.00" fill="#ffffff">image</text>
</g>
<!-- SimpleGUICS2Pygame_simpleguics2pygame__pygame_init&#45;&gt;SimpleGUICS2Pygame_simpleguics2pygame_image -->
<g id="edge30" class="edge"><title>SimpleGUICS2Pygame_simpleguics2pygame__pygame_init&#45;&gt;SimpleGUICS2Pygame_simpleguics2pygame_image</title><style>.edge>path:hover{stroke-width:8}</style>
<path fill="none" stroke="black" d="M694.351,-634.907C599.896,-628.389 457.438,-612.527 419.393,-575.21 397.562,-553.797 392.545,-518.721 392.417,-491.667"/>
<polygon fill="#d10505" stroke="black" points="395.922,-491.428 392.597,-481.368 388.923,-491.306 395.922,-491.428"/>
</g>
<!-- SimpleGUICS2Pygame_simpleguics2pygame__fonts -->
<g id="node13" class="node"><title>SimpleGUICS2Pygame_simpleguics2pygame__fonts</title><style>.edge>path:hover{stroke-width:8}</style>
<ellipse fill="#b62020" stroke="black" cx="549.393" cy="-546.219" rx="88.2768" ry="28.9828"/>
<text text-anchor="middle" x="549.393" y="-554.719" font-family="Helvetica,sans-Serif" font-size="10.00" fill="#ffffff">SimpleGUICS2Pygame.</text>
<text text-anchor="middle" x="549.393" y="-543.719" font-family="Helvetica,sans-Serif" font-size="10.00" fill="#ffffff">simpleguics2pygame.</text>
<text text-anchor="middle" x="549.393" y="-532.719" font-family="Helvetica,sans-Serif" font-size="10.00" fill="#ffffff">_fonts</text>
</g>
<!-- SimpleGUICS2Pygame_simpleguics2pygame__pygame_init&#45;&gt;SimpleGUICS2Pygame_simpleguics2pygame__fonts -->
<g id="edge25" class="edge"><title>SimpleGUICS2Pygame_simpleguics2pygame__pygame_init&#45;&gt;SimpleGUICS2Pygame_simpleguics2pygame__fonts</title><style>.edge>path:hover{stroke-width:8}</style>
<path fill="none" stroke="black" d="M726.412,-617.403C692.73,-604.049 649.453,-586.89 614.121,-572.882"/>
<polygon fill="#d10505" stroke="black" points="614.967,-569.452 604.381,-569.02 612.387,-575.96 614.967,-569.452"/>
</g>
<!-- SimpleGUICS2Pygame_simpleguics2pygame__media -->
<g id="node18" class="node"><title>SimpleGUICS2Pygame_simpleguics2pygame__media</title><style>.edge>path:hover{stroke-width:8}</style>
<ellipse fill="#b62020" stroke="black" cx="279.393" cy="-546.219" rx="88.2768" ry="28.9828"/>
<text text-anchor="middle" x="279.393" y="-554.719" font-family="Helvetica,sans-Serif" font-size="10.00" fill="#ffffff">SimpleGUICS2Pygame.</text>
<text text-anchor="middle" x="279.393" y="-543.719" font-family="Helvetica,sans-Serif" font-size="10.00" fill="#ffffff">simpleguics2pygame.</text>
<text text-anchor="middle" x="279.393" y="-532.719" font-family="Helvetica,sans-Serif" font-size="10.00" fill="#ffffff">_media</text>
</g>
<!-- SimpleGUICS2Pygame_simpleguics2pygame__pygame_init&#45;&gt;SimpleGUICS2Pygame_simpleguics2pygame__media -->
<g id="edge26" class="edge"><title>SimpleGUICS2Pygame_simpleguics2pygame__pygame_init&#45;&gt;SimpleGUICS2Pygame_simpleguics2pygame__media</title><style>.edge>path:hover{stroke-width:8}</style>
<path fill="none" stroke="black" d="M699.7,-628.794C618.516,-617.828 490.681,-598.874 381.393,-575.21 372.431,-573.27 363.084,-571.021 353.843,-568.658"/>
<polygon fill="#d10505" stroke="black" points="354.441,-565.197 343.881,-566.059 352.673,-571.971 354.441,-565.197"/>
</g>
<!-- SimpleGUICS2Pygame_simpleguics2pygame__pygame_init&#45;&gt;SimpleGUICS2Pygame_simpleguics2pygame_control -->
<g id="edge28" class="edge"><title>SimpleGUICS2Pygame_simpleguics2pygame__pygame_init&#45;&gt;SimpleGUICS2Pygame_simpleguics2pygame_control</title><style>.edge>path:hover{stroke-width:8}</style>
<path fill="none" stroke="black" d="M840.077,-618.34C870.007,-603.57 899.718,-580.422 897.393,-547.219"/>
<path fill="none" stroke="black" d="M897.393,-545.219C895.757,-521.854 880.657,-501.344 864.172,-485.657"/>
<polygon fill="#d10505" stroke="black" points="866.319,-482.88 856.543,-478.795 861.638,-488.085 866.319,-482.88"/>
</g>
<!-- SimpleGUICS2Pygame_simplegui_lib_loader -->
<g id="node7" class="node"><title>SimpleGUICS2Pygame_simplegui_lib_loader</title><style>.edge>path:hover{stroke-width:8}</style>
<ellipse fill="#b83d3d" stroke="black" cx="724.393" cy="-99.6396" rx="88.2768" ry="21.4286"/>
<text text-anchor="middle" x="724.393" y="-102.64" font-family="Helvetica,sans-Serif" font-size="10.00" fill="#ffffff">SimpleGUICS2Pygame.</text>
<text text-anchor="middle" x="724.393" y="-91.6396" font-family="Helvetica,sans-Serif" font-size="10.00" fill="#ffffff">simplegui_lib_loader</text>
</g>
<!-- SimpleGUICS2Pygame_simplegui_lib_loader&#45;&gt;SimpleGUICS2Pygame_simplegui_lib -->
<g id="edge4" class="edge"><title>SimpleGUICS2Pygame_simplegui_lib_loader&#45;&gt;SimpleGUICS2Pygame_simplegui_lib</title><style>.edge>path:hover{stroke-width:8}</style>
<path fill="none" stroke="black" d="M666.506,-83.5402C618.349,-70.979 549.731,-53.0805 499.047,-39.86"/>
<polygon fill="#b83d3d" stroke="black" points="499.72,-36.4186 489.16,-37.2812 497.953,-43.192 499.72,-36.4186"/>
</g>
<!-- SimpleGUICS2Pygame_simpleguics2pygame&#45;&gt;SimpleGUICS2Pygame_simplegui_lib_loader -->
<g id="edge7" class="edge"><title>SimpleGUICS2Pygame_simpleguics2pygame&#45;&gt;SimpleGUICS2Pygame_simplegui_lib_loader</title><style>.edge>path:hover{stroke-width:8}</style>
<path fill="none" stroke="black" d="M574.13,-159.532C602.742,-148.318 640.03,-133.704 670.302,-121.84"/>
<polygon fill="#950303" stroke="black" points="671.831,-125 679.864,-118.092 669.277,-118.482 671.831,-125"/>
</g>
<!-- SimpleGUICS2Pygame_simplegui_lib_fps -->
<g id="node9" class="node"><title>SimpleGUICS2Pygame_simplegui_lib_fps</title><style>.edge>path:hover{stroke-width:8}</style>
<ellipse fill="#b83d3d" stroke="black" cx="334.393" cy="-99.6396" rx="88.2768" ry="21.4286"/>
<text text-anchor="middle" x="334.393" y="-102.64" font-family="Helvetica,sans-Serif" font-size="10.00" fill="#ffffff">SimpleGUICS2Pygame.</text>
<text text-anchor="middle" x="334.393" y="-91.6396" font-family="Helvetica,sans-Serif" font-size="10.00" fill="#ffffff">simplegui_lib_fps</text>
</g>
<!-- SimpleGUICS2Pygame_simpleguics2pygame&#45;&gt;SimpleGUICS2Pygame_simplegui_lib_fps -->
<g id="edge5" class="edge"><title>SimpleGUICS2Pygame_simpleguics2pygame&#45;&gt;SimpleGUICS2Pygame_simplegui_lib_fps</title><style>.edge>path:hover{stroke-width:8}</style>
<path fill="none" stroke="black" d="M484.656,-159.532C456.044,-148.318 418.757,-133.704 388.484,-121.84"/>
<polygon fill="#950303" stroke="black" points="389.51,-118.482 378.922,-118.092 386.955,-125 389.51,-118.482"/>
</g>
<!-- SimpleGUICS2Pygame_simplegui_lib_keys -->
<g id="node16" class="node"><title>SimpleGUICS2Pygame_simplegui_lib_keys</title><style>.edge>path:hover{stroke-width:8}</style>
<ellipse fill="#b83d3d" stroke="black" cx="529.393" cy="-99.6396" rx="88.2768" ry="21.4286"/>
<text text-anchor="middle" x="529.393" y="-102.64" font-family="Helvetica,sans-Serif" font-size="10.00" fill="#ffffff">SimpleGUICS2Pygame.</text>
<text text-anchor="middle" x="529.393" y="-91.6396" font-family="Helvetica,sans-Serif" font-size="10.00" fill="#ffffff">simplegui_lib_keys</text>
</g>
<!-- SimpleGUICS2Pygame_simpleguics2pygame&#45;&gt;SimpleGUICS2Pygame_simplegui_lib_keys -->
<g id="edge6" class="edge"><title>SimpleGUICS2Pygame_simpleguics2pygame&#45;&gt;SimpleGUICS2Pygame_simplegui_lib_keys</title><style>.edge>path:hover{stroke-width:8}</style>
<path fill="none" stroke="black" d="M529.393,-156.585C529.393,-148.726 529.393,-139.582 529.393,-130.992"/>
<polygon fill="#950303" stroke="black" points="532.893,-130.912 529.393,-120.912 525.893,-130.912 532.893,-130.912"/>
</g>
<!-- SimpleGUICS2Pygame_simplegui_lib_fps&#45;&gt;SimpleGUICS2Pygame_simplegui_lib -->
<g id="edge2" class="edge"><title>SimpleGUICS2Pygame_simplegui_lib_fps&#45;&gt;SimpleGUICS2Pygame_simplegui_lib</title><style>.edge>path:hover{stroke-width:8}</style>
<path fill="none" stroke="black" d="M359.121,-79.1563C371.093,-69.7239 385.632,-58.2688 398.521,-48.1129"/>
<polygon fill="#b83d3d" stroke="black" points="401.021,-50.599 406.71,-41.661 396.689,-45.1007 401.021,-50.599"/>
</g>
<!-- SimpleGUICS2Pygame_simpleguics2pygame_frame&#45;&gt;SimpleGUICS2Pygame_simpleguics2pygame -->
<g id="edge35" class="edge"><title>SimpleGUICS2Pygame_simpleguics2pygame_frame&#45;&gt;SimpleGUICS2Pygame_simpleguics2pygame</title><style>.edge>path:hover{stroke-width:8}</style>
<path fill="none" stroke="black" d="M529.393,-235.232C529.393,-227.024 529.393,-218.01 529.393,-209.653"/>
<polygon fill="#732626" stroke="black" points="532.893,-209.527 529.393,-199.527 525.893,-209.527 532.893,-209.527"/>
</g>
<!-- SimpleGUICS2Pygame_simpleguics2pygame_image&#45;&gt;SimpleGUICS2Pygame_simpleguics2pygame_canvas -->
<g id="edge37" class="edge"><title>SimpleGUICS2Pygame_simpleguics2pygame_image&#45;&gt;SimpleGUICS2Pygame_simpleguics2pygame_canvas</title><style>.edge>path:hover{stroke-width:8}</style>
<path fill="none" stroke="black" d="M444.34,-427.787C470.393,-415.306 502.588,-399.882 529.834,-386.828"/>
<polygon fill="#bf2121" stroke="black" points="531.363,-389.977 538.869,-382.5 528.338,-383.664 531.363,-389.977"/>
</g>
<!-- SimpleGUICS2Pygame_simpleguics2pygame_image&#45;&gt;SimpleGUICS2Pygame_simpleguics2pygame -->
<g id="edge36" class="edge"><title>SimpleGUICS2Pygame_simpleguics2pygame_image&#45;&gt;SimpleGUICS2Pygame_simpleguics2pygame</title><style>.edge>path:hover{stroke-width:8}</style>
<path fill="none" stroke="black" d="M356.841,-425.96C290.731,-381.317 166.172,-290.811 202.393,-265.271"/>
</g>
<!-- SimpleGUICS2Pygame_simpleguics2pygame_image&#45;&gt;SimpleGUICS2Pygame_simpleguics2pygame_frame -->
<g id="edge38" class="edge"><title>SimpleGUICS2Pygame_simpleguics2pygame_image&#45;&gt;SimpleGUICS2Pygame_simpleguics2pygame_frame</title><style>.edge>path:hover{stroke-width:8}</style>
<path fill="none" stroke="black" d="M424.121,-424.574C440.656,-407.524 460.297,-384.018 471.393,-359.253"/>
</g>
<!-- SimpleGUICS2Pygame_simpleguics2pygame_timer -->
<g id="node12" class="node"><title>SimpleGUICS2Pygame_simpleguics2pygame_timer</title><style>.edge>path:hover{stroke-width:8}</style>
<ellipse fill="#bc2f2f" stroke="black" cx="125.393" cy="-358.253" rx="88.2768" ry="28.9828"/>
<text text-anchor="middle" x="125.393" y="-366.753" font-family="Helvetica,sans-Serif" font-size="10.00" fill="#ffffff">SimpleGUICS2Pygame.</text>
<text text-anchor="middle" x="125.393" y="-355.753" font-family="Helvetica,sans-Serif" font-size="10.00" fill="#ffffff">simpleguics2pygame.</text>
<text text-anchor="middle" x="125.393" y="-344.753" font-family="Helvetica,sans-Serif" font-size="10.00" fill="#ffffff">timer</text>
</g>
<!-- SimpleGUICS2Pygame_simpleguics2pygame_timer&#45;&gt;SimpleGUICS2Pygame_simpleguics2pygame -->
<g id="edge42" class="edge"><title>SimpleGUICS2Pygame_simpleguics2pygame_timer&#45;&gt;SimpleGUICS2Pygame_simpleguics2pygame</title><style>.edge>path:hover{stroke-width:8}</style>
<path fill="none" stroke="black" d="M142.638,-329.764C156.584,-309.496 177.884,-282.552 202.393,-265.271"/>
</g>
<!-- SimpleGUICS2Pygame_simpleguics2pygame_timer&#45;&gt;SimpleGUICS2Pygame_simpleguics2pygame_frame -->
<g id="edge43" class="edge"><title>SimpleGUICS2Pygame_simpleguics2pygame_timer&#45;&gt;SimpleGUICS2Pygame_simpleguics2pygame_frame</title><style>.edge>path:hover{stroke-width:8}</style>
<path fill="none" stroke="black" d="M190.814,-338.686C202.943,-335.419 215.527,-332.145 227.393,-329.262 300.407,-311.524 384.022,-294.023 444.731,-281.819"/>
<polygon fill="#bc2f2f" stroke="black" points="445.533,-285.227 454.651,-279.83 444.158,-278.364 445.533,-285.227"/>
</g>
<!-- SimpleGUICS2Pygame_simpleguics2pygame__fonts&#45;&gt;SimpleGUICS2Pygame_simpleguics2pygame_canvas -->
<g id="edge17" class="edge"><title>SimpleGUICS2Pygame_simpleguics2pygame__fonts&#45;&gt;SimpleGUICS2Pygame_simpleguics2pygame_canvas</title><style>.edge>path:hover{stroke-width:8}</style>
<path fill="none" stroke="black" d="M543.05,-517.139C540.218,-498.091 539.441,-472.898 549.393,-453.236"/>
</g>
<!-- SimpleGUICS2Pygame_simpleguics2pygame__fonts&#45;&gt;SimpleGUICS2Pygame_simpleguics2pygame_frame -->
<g id="edge19" class="edge"><title>SimpleGUICS2Pygame_simpleguics2pygame__fonts&#45;&gt;SimpleGUICS2Pygame_simpleguics2pygame_frame</title><style>.edge>path:hover{stroke-width:8}</style>
<path fill="none" stroke="black" d="M532.828,-517.361C523.622,-499.684 513.587,-475.938 511.393,-453.236"/>
</g>
<!-- SimpleGUICS2Pygame_simpleguics2pygame__fonts&#45;&gt;SimpleGUICS2Pygame_simpleguics2pygame_control -->
<g id="edge18" class="edge"><title>SimpleGUICS2Pygame_simpleguics2pygame__fonts&#45;&gt;SimpleGUICS2Pygame_simpleguics2pygame_control</title><style>.edge>path:hover{stroke-width:8}</style>
<path fill="none" stroke="black" d="M609.315,-524.805C650.768,-510.683 706.069,-491.843 749.527,-477.038"/>
<polygon fill="#b62020" stroke="black" points="750.836,-480.29 759.173,-473.752 748.578,-473.664 750.836,-480.29"/>
</g>
<!-- SimpleGUICS2Pygame_simpleguics2pygame_sound -->
<g id="node14" class="node"><title>SimpleGUICS2Pygame_simpleguics2pygame_sound</title><style>.edge>path:hover{stroke-width:8}</style>
<ellipse fill="#a83838" stroke="black" cx="125.393" cy="-452.236" rx="88.2768" ry="28.9828"/>
<text text-anchor="middle" x="125.393" y="-460.736" font-family="Helvetica,sans-Serif" font-size="10.00" fill="#ffffff">SimpleGUICS2Pygame.</text>
<text text-anchor="middle" x="125.393" y="-449.736" font-family="Helvetica,sans-Serif" font-size="10.00" fill="#ffffff">simpleguics2pygame.</text>
<text text-anchor="middle" x="125.393" y="-438.736" font-family="Helvetica,sans-Serif" font-size="10.00" fill="#ffffff">sound</text>
</g>
<!-- SimpleGUICS2Pygame_simpleguics2pygame_sound&#45;&gt;SimpleGUICS2Pygame_simpleguics2pygame -->
<g id="edge41" class="edge"><title>SimpleGUICS2Pygame_simpleguics2pygame_sound&#45;&gt;SimpleGUICS2Pygame_simpleguics2pygame</title><style>.edge>path:hover{stroke-width:8}</style>
<path fill="none" stroke="black" d="M64.9304,-431.013C32.0296,-415.982 -0.202633,-392.33 9.39322,-359.253"/>
</g>
<!-- SimpleGUICS2Pygame_simpleguics2pygame__arguments -->
<g id="node15" class="node"><title>SimpleGUICS2Pygame_simpleguics2pygame__arguments</title><style>.edge>path:hover{stroke-width:8}</style>
<ellipse fill="#f90606" stroke="black" cx="279.393" cy="-640.202" rx="88.2768" ry="28.9828"/>
<text text-anchor="middle" x="279.393" y="-648.702" font-family="Helvetica,sans-Serif" font-size="10.00" fill="#ffffff">SimpleGUICS2Pygame.</text>
<text text-anchor="middle" x="279.393" y="-637.702" font-family="Helvetica,sans-Serif" font-size="10.00" fill="#ffffff">simpleguics2pygame.</text>
<text text-anchor="middle" x="279.393" y="-626.702" font-family="Helvetica,sans-Serif" font-size="10.00" fill="#ffffff">_arguments</text>
</g>
<!-- SimpleGUICS2Pygame_simpleguics2pygame__arguments&#45;&gt;SimpleGUICS2Pygame_simpleguics2pygame -->
<g id="edge8" class="edge"><title>SimpleGUICS2Pygame_simpleguics2pygame__arguments&#45;&gt;SimpleGUICS2Pygame_simpleguics2pygame</title><style>.edge>path:hover{stroke-width:8}</style>
<path fill="none" stroke="black" d="M227.847,-616.507C198.863,-601.096 164.553,-577.918 144.393,-547.219"/>
<path fill="none" stroke="black" d="M144.393,-545.219C112.073,-496.002 62.1529,-529.468 28.3932,-481.227 -3.0642,-436.277 -5.89313,-411.945 9.39322,-359.253"/>
<path fill="none" stroke="black" d="M9.39322,-357.253C33.6469,-269.945 188.994,-274.436 202.393,-265.271"/>
<path fill="none" stroke="black" d="M202.393,-263.271C271.685,-215.872 365.781,-195.153 435.247,-186.097"/>
<polygon fill="#f90606" stroke="black" points="435.821,-189.552 445.311,-184.843 434.955,-182.606 435.821,-189.552"/>
</g>
<!-- SimpleGUICS2Pygame_simpleguics2pygame__arguments&#45;&gt;SimpleGUICS2Pygame_simpleguics2pygame_frame -->
<g id="edge11" class="edge"><title>SimpleGUICS2Pygame_simpleguics2pygame__arguments&#45;&gt;SimpleGUICS2Pygame_simpleguics2pygame_frame</title><style>.edge>path:hover{stroke-width:8}</style>
<path fill="none" stroke="black" d="M241.393,-451.236C253.343,-355.466 365.71,-306.407 446.484,-283.31"/>
<polygon fill="#f90606" stroke="black" points="447.47,-286.668 456.169,-280.62 445.597,-279.924 447.47,-286.668"/>
</g>
<!-- SimpleGUICS2Pygame_simpleguics2pygame__arguments&#45;&gt;SimpleGUICS2Pygame_simpleguics2pygame_timer -->
<g id="edge13" class="edge"><title>SimpleGUICS2Pygame_simpleguics2pygame__arguments&#45;&gt;SimpleGUICS2Pygame_simpleguics2pygame_timer</title><style>.edge>path:hover{stroke-width:8}</style>
<path fill="none" stroke="black" d="M144.393,-545.219C111.781,-495.557 234.037,-512.191 241.393,-453.236"/>
<path fill="none" stroke="black" d="M241.393,-451.236C245.141,-421.203 220.897,-399.338 193.62,-384.48"/>
<polygon fill="#f90606" stroke="black" points="195.184,-381.349 184.688,-379.901 191.99,-387.578 195.184,-381.349"/>
</g>
<!-- SimpleGUICS2Pygame_simpleguics2pygame__arguments&#45;&gt;SimpleGUICS2Pygame_simpleguics2pygame__fonts -->
<g id="edge9" class="edge"><title>SimpleGUICS2Pygame_simpleguics2pygame__arguments&#45;&gt;SimpleGUICS2Pygame_simpleguics2pygame__fonts</title><style>.edge>path:hover{stroke-width:8}</style>
<path fill="none" stroke="black" d="M339.315,-618.788C380.768,-604.666 436.069,-585.826 479.527,-571.021"/>
<polygon fill="#f90606" stroke="black" points="480.836,-574.272 489.173,-567.735 478.578,-567.646 480.836,-574.272"/>
</g>
<!-- SimpleGUICS2Pygame_simpleguics2pygame__arguments&#45;&gt;SimpleGUICS2Pygame_simpleguics2pygame_sound -->
<g id="edge12" class="edge"><title>SimpleGUICS2Pygame_simpleguics2pygame__arguments&#45;&gt;SimpleGUICS2Pygame_simpleguics2pygame_sound</title><style>.edge>path:hover{stroke-width:8}</style>
<path fill="none" stroke="black" d="M144.393,-545.219C133.993,-529.381 129.119,-508.971 126.898,-491.402"/>
<polygon fill="#f90606" stroke="black" points="130.379,-491.031 125.875,-481.441 123.415,-491.747 130.379,-491.031"/>
</g>
<!-- SimpleGUICS2Pygame_simpleguics2pygame__arguments&#45;&gt;SimpleGUICS2Pygame_simpleguics2pygame__media -->
<g id="edge10" class="edge"><title>SimpleGUICS2Pygame_simpleguics2pygame__arguments&#45;&gt;SimpleGUICS2Pygame_simpleguics2pygame__media</title><style>.edge>path:hover{stroke-width:8}</style>
<path fill="none" stroke="black" d="M279.393,-611.104C279.393,-603.066 279.393,-594.164 279.393,-585.621"/>
<polygon fill="#f90606" stroke="black" points="282.893,-585.461 279.393,-575.461 275.893,-585.461 282.893,-585.461"/>
</g>
<!-- SimpleGUICS2Pygame_simplegui_lib_keys&#45;&gt;SimpleGUICS2Pygame_simplegui_lib -->
<g id="edge3" class="edge"><title>SimpleGUICS2Pygame_simplegui_lib_keys&#45;&gt;SimpleGUICS2Pygame_simplegui_lib</title><style>.edge>path:hover{stroke-width:8}</style>
<path fill="none" stroke="black" d="M504.41,-79.1563C492.2,-69.634 477.347,-58.0504 464.232,-47.8231"/>
<polygon fill="#b83d3d" stroke="black" points="466.369,-45.0507 456.331,-41.661 462.064,-50.5706 466.369,-45.0507"/>
</g>
<!-- SimpleGUICS2Pygame_simpleguics2pygame_keys -->
<g id="node17" class="node"><title>SimpleGUICS2Pygame_simpleguics2pygame_keys</title><style>.edge>path:hover{stroke-width:8}</style>
<ellipse fill="#ce3b3b" stroke="black" cx="819.393" cy="-358.253" rx="88.2768" ry="28.9828"/>
<text text-anchor="middle" x="819.393" y="-366.753" font-family="Helvetica,sans-Serif" font-size="10.00" fill="#ffffff">SimpleGUICS2Pygame.</text>
<text text-anchor="middle" x="819.393" y="-355.753" font-family="Helvetica,sans-Serif" font-size="10.00" fill="#ffffff">simpleguics2pygame.</text>
<text text-anchor="middle" x="819.393" y="-344.753" font-family="Helvetica,sans-Serif" font-size="10.00" fill="#ffffff">keys</text>
</g>
<!-- SimpleGUICS2Pygame_simpleguics2pygame_keys&#45;&gt;SimpleGUICS2Pygame_simpleguics2pygame -->
<g id="edge39" class="edge"><title>SimpleGUICS2Pygame_simpleguics2pygame_keys&#45;&gt;SimpleGUICS2Pygame_simpleguics2pygame</title><style>.edge>path:hover{stroke-width:8}</style>
<path fill="none" stroke="black" d="M879.034,-336.79C910.296,-321.95 941.058,-298.591 935.393,-265.271"/>
</g>
<!-- SimpleGUICS2Pygame_simpleguics2pygame_keys&#45;&gt;SimpleGUICS2Pygame_simpleguics2pygame_frame -->
<g id="edge40" class="edge"><title>SimpleGUICS2Pygame_simpleguics2pygame_keys&#45;&gt;SimpleGUICS2Pygame_simpleguics2pygame_frame</title><style>.edge>path:hover{stroke-width:8}</style>
<path fill="none" stroke="black" d="M757.181,-337.521C711.405,-323.001 649.073,-303.231 601.184,-288.041"/>
<polygon fill="#ce3b3b" stroke="black" points="602.093,-284.658 591.503,-284.971 599.976,-291.33 602.093,-284.658"/>
</g>
<!-- SimpleGUICS2Pygame_simpleguics2pygame__media&#45;&gt;SimpleGUICS2Pygame_simpleguics2pygame_frame -->
<g id="edge20" class="edge"><title>SimpleGUICS2Pygame_simpleguics2pygame__media&#45;&gt;SimpleGUICS2Pygame_simpleguics2pygame_frame</title><style>.edge>path:hover{stroke-width:8}</style>
<path fill="none" stroke="black" d="M276.204,-517.06C274.729,-490.031 276.888,-449.54 298.393,-423.245 350.293,-359.785 437.872,-434.067 471.393,-359.253"/>
<path fill="none" stroke="black" d="M471.393,-357.253C479.92,-337.645 492.254,-317.383 503.358,-300.884"/>
<polygon fill="#b62020" stroke="black" points="506.255,-302.848 509.026,-292.622 500.483,-298.888 506.255,-302.848"/>
</g>
<!-- SimpleGUICS2Pygame_simpleguics2pygame__media&#45;&gt;SimpleGUICS2Pygame_simpleguics2pygame_image -->
<g id="edge21" class="edge"><title>SimpleGUICS2Pygame_simpleguics2pygame__media&#45;&gt;SimpleGUICS2Pygame_simpleguics2pygame_image</title><style>.edge>path:hover{stroke-width:8}</style>
<path fill="none" stroke="black" d="M312.324,-519.106C325.426,-508.717 340.642,-496.651 354.444,-485.707"/>
<polygon fill="#b62020" stroke="black" points="356.719,-488.37 362.38,-479.414 352.37,-482.885 356.719,-488.37"/>
</g>
<!-- SimpleGUICS2Pygame_simpleguics2pygame__media&#45;&gt;SimpleGUICS2Pygame_simpleguics2pygame_sound -->
<g id="edge22" class="edge"><title>SimpleGUICS2Pygame_simpleguics2pygame__media&#45;&gt;SimpleGUICS2Pygame_simpleguics2pygame_sound</title><style>.edge>path:hover{stroke-width:8}</style>
<path fill="none" stroke="black" d="M238.124,-520.569C218.877,-509.073 195.802,-495.291 175.557,-483.198"/>
<polygon fill="#b62020" stroke="black" points="177.156,-480.077 166.776,-477.954 173.567,-486.087 177.156,-480.077"/>
</g>
<!-- SimpleGUICS2Pygame_simpleguics2pygame_control&#45;&gt;SimpleGUICS2Pygame_simpleguics2pygame -->
<g id="edge33" class="edge"><title>SimpleGUICS2Pygame_simpleguics2pygame_control&#45;&gt;SimpleGUICS2Pygame_simpleguics2pygame</title><style>.edge>path:hover{stroke-width:8}</style>
<path fill="none" stroke="black" d="M871.286,-428.627C897.865,-413.538 926.484,-390.655 935.393,-359.253"/>
<path fill="none" stroke="black" d="M935.393,-357.253C946.552,-317.925 942.245,-305.574 935.393,-265.271"/>
</g>
<!-- SimpleGUICS2Pygame_simpleguics2pygame_control&#45;&gt;SimpleGUICS2Pygame_simpleguics2pygame_frame -->
<g id="edge34" class="edge"><title>SimpleGUICS2Pygame_simpleguics2pygame_control&#45;&gt;SimpleGUICS2Pygame_simpleguics2pygame_frame</title><style>.edge>path:hover{stroke-width:8}</style>
<path fill="none" stroke="black" d="M774.679,-426.847C757.224,-416.075 737.758,-402.408 722.393,-387.245 711.691,-376.683 714.327,-369.574 703.393,-359.253"/>
</g>
<!-- matplotlib -->
<g id="node20" class="node"><title>matplotlib</title><style>.edge>path:hover{stroke-width:8}</style>
<polygon fill="#31c431" stroke="black" points="926.893,-856.619 923.893,-860.619 902.893,-860.619 899.893,-856.619 867.893,-856.619 867.893,-820.619 926.893,-820.619 926.893,-856.619"/>
<text text-anchor="middle" x="897.393" y="-836.119" font-family="Helvetica,sans-Serif" font-size="10.00" fill="#000000">matplotlib</text>
</g>
<!-- matplotlib&#45;&gt;SimpleGUICS2Pygame_simpleplot -->
<g id="edge44" class="edge"><title>matplotlib&#45;&gt;SimpleGUICS2Pygame_simpleplot</title><style>.edge>path:hover{stroke-width:8}</style>
<path fill="none" stroke="black" d="M897.393,-820.399C897.393,-803.771 897.393,-778.225 897.393,-758.112"/>
<polygon fill="#31c431" stroke="black" points="900.893,-757.878 897.393,-747.878 893.893,-757.878 900.893,-757.878"/>
</g>
<!-- pygame -->
<g id="node21" class="node"><title>pygame</title><style>.edge>path:hover{stroke-width:8}</style>
<polygon fill="#4747c2" stroke="black" points="808.393,-856.619 805.393,-860.619 784.393,-860.619 781.393,-856.619 754.393,-856.619 754.393,-820.619 808.393,-820.619 808.393,-856.619"/>
<text text-anchor="middle" x="781.393" y="-836.119" font-family="Helvetica,sans-Serif" font-size="10.00" fill="#ffffff">pygame</text>
</g>
<!-- pygame&#45;&gt;SimpleGUICS2Pygame_simpleguics2pygame__colors -->
<g id="edge45" class="edge"><title>pygame&#45;&gt;SimpleGUICS2Pygame_simpleguics2pygame__colors</title><style>.edge>path:hover{stroke-width:8}</style>
<path fill="none" stroke="black" d="M781.393,-725.406C777.795,-713.613 790.39,-712.401 800.393,-705.193 842.296,-675.001 887.67,-691.925 897.393,-641.202"/>
<path fill="none" stroke="black" d="M897.393,-639.202C903.156,-609.136 878.445,-587.135 850.37,-572.203"/>
<polygon fill="#4747c2" stroke="black" points="851.68,-568.945 841.171,-567.603 848.549,-575.206 851.68,-568.945"/>
</g>
<!-- pygame&#45;&gt;SimpleGUICS2Pygame_simpleguics2pygame_canvas -->
<g id="edge49" class="edge"><title>pygame&#45;&gt;SimpleGUICS2Pygame_simpleguics2pygame_canvas</title><style>.edge>path:hover{stroke-width:8}</style>
<path fill="none" stroke="black" d="M433.393,-545.219C435.255,-530.299 441.053,-527.1 452.393,-517.227 479.678,-493.475 496.817,-503.41 525.393,-481.227 538.338,-471.179 541.992,-467.857 549.393,-453.236"/>
<path fill="none" stroke="black" d="M549.393,-451.236C558.264,-433.71 566.751,-413.61 573.444,-396.678"/>
<polygon fill="#4747c2" stroke="black" points="576.8,-397.707 577.168,-387.119 570.277,-395.166 576.8,-397.707"/>
</g>
<!-- pygame&#45;&gt;SimpleGUICS2Pygame_simpleguics2pygame__pygame_init -->
<g id="edge48" class="edge"><title>pygame&#45;&gt;SimpleGUICS2Pygame_simpleguics2pygame__pygame_init</title><style>.edge>path:hover{stroke-width:8}</style>
<path fill="none" stroke="black" d="M781.393,-725.406C776.965,-710.892 776.128,-694.303 776.698,-679.709"/>
<polygon fill="#4747c2" stroke="black" points="780.205,-679.69 777.33,-669.493 773.219,-679.258 780.205,-679.69"/>
</g>
<!-- pygame&#45;&gt;SimpleGUICS2Pygame_simpleguics2pygame_frame -->
<g id="edge51" class="edge"><title>pygame&#45;&gt;SimpleGUICS2Pygame_simpleguics2pygame_frame</title><style>.edge>path:hover{stroke-width:8}</style>
<path fill="none" stroke="black" d="M491.393,-639.202C451.711,-611.614 427.409,-595.177 433.393,-547.219"/>
<path fill="none" stroke="black" d="M433.393,-545.219C440.03,-492.03 516.55,-506.588 511.393,-453.236"/>
<path fill="none" stroke="black" d="M511.393,-451.236C507.104,-406.863 453.616,-400.135 471.393,-359.253"/>
</g>
<!-- pygame&#45;&gt;SimpleGUICS2Pygame_simpleguics2pygame__fonts -->
<g id="edge46" class="edge"><title>pygame&#45;&gt;SimpleGUICS2Pygame_simpleguics2pygame__fonts</title><style>.edge>path:hover{stroke-width:8}</style>
<path fill="none" stroke="black" d="M491.393,-639.202C470.594,-624.742 487.532,-600.17 508.362,-580.059"/>
<polygon fill="#4747c2" stroke="black" points="510.866,-582.512 515.837,-573.156 506.116,-577.369 510.866,-582.512"/>
</g>
<!-- pygame&#45;&gt;SimpleGUICS2Pygame_simpleguics2pygame__media -->
<g id="edge47" class="edge"><title>pygame&#45;&gt;SimpleGUICS2Pygame_simpleguics2pygame__media</title><style>.edge>path:hover{stroke-width:8}</style>
<path fill="none" stroke="black" d="M784.439,-820.36C787.657,-798.269 791.053,-759.068 781.393,-727.406"/>
<path fill="none" stroke="black" d="M781.393,-725.406C759.602,-661.937 546.492,-679.507 491.393,-641.202"/>
<path fill="none" stroke="black" d="M491.393,-639.202C448.364,-609.287 394.052,-585.953 351.174,-570.271"/>
<polygon fill="#4747c2" stroke="black" points="352.246,-566.937 341.651,-566.845 349.876,-573.524 352.246,-566.937"/>
</g>
<!-- pygame&#45;&gt;SimpleGUICS2Pygame_simpleguics2pygame_control -->
<g id="edge50" class="edge"><title>pygame&#45;&gt;SimpleGUICS2Pygame_simpleguics2pygame_control</title><style>.edge>path:hover{stroke-width:8}</style>
<path fill="none" stroke="black" d="M897.393,-639.202C905.089,-599.051 900.249,-588 897.393,-547.219"/>
</g>
</g>
</svg>
