<?xml version="1.0" encoding="UTF-8" standalone="no"?>
<!DOCTYPE svg PUBLIC "-//W3C//DTD SVG 1.1//EN"
 "http://www.w3.org/Graphics/SVG/1.1/DTD/svg11.dtd">
<!-- Generated by graphviz version 2.38.0 (20140413.2041)
 -->
<!-- Title: classes_SimpleGUICS2Pygame Pages: 1 -->
<svg width="3170pt" height="531pt"
 viewBox="0.00 0.00 3170.00 531.00" xmlns="http://www.w3.org/2000/svg" xmlns:xlink="http://www.w3.org/1999/xlink">
<g id="graph0" class="graph" transform="scale(1 1) rotate(0) translate(4 527)">
<title>classes_SimpleGUICS2Pygame</title>
<polygon fill="white" stroke="none" points="-4,4 -4,-527 3166,-527 3166,4 -4,4"/>
<!-- 0 -->
<g id="node1" class="node"><title>0</title>
<polygon fill="none" stroke="black" points="0,-8 0,-198 243,-198 243,-8 0,-8"/>
<text text-anchor="middle" x="121.5" y="-182.8" font-family="Times,serif" font-size="14.00">SimpleGUICS2Pygame.numeric.Matrix</text>
<polyline fill="none" stroke="black" points="0,-175 243,-175 "/>
<polyline fill="none" stroke="black" points="0,-151 243,-151 "/>
<text text-anchor="start" x="8" y="-135.8" font-family="Times,serif" font-size="14.00">abs()</text>
<text text-anchor="start" x="8" y="-120.8" font-family="Times,serif" font-size="14.00">copy()</text>
<text text-anchor="start" x="8" y="-105.8" font-family="Times,serif" font-size="14.00">getcol(j)</text>
<text text-anchor="start" x="8" y="-90.8" font-family="Times,serif" font-size="14.00">getrow(i)</text>
<text text-anchor="start" x="8" y="-75.8" font-family="Times,serif" font-size="14.00">inverse(_epsilon)</text>
<text text-anchor="start" x="8" y="-60.8" font-family="Times,serif" font-size="14.00">scale(factor)</text>
<text text-anchor="start" x="8" y="-45.8" font-family="Times,serif" font-size="14.00">shape()</text>
<text text-anchor="start" x="8" y="-30.8" font-family="Times,serif" font-size="14.00">summation()</text>
<text text-anchor="start" x="8" y="-15.8" font-family="Times,serif" font-size="14.00">transpose()</text>
</g>
<!-- 1 -->
<g id="node2" class="node"><title>1</title>
<polygon fill="none" stroke="black" points="133,-332.5 133,-447.5 416,-447.5 416,-332.5 133,-332.5"/>
<text text-anchor="middle" x="274.5" y="-432.3" font-family="Times,serif" font-size="14.00">SimpleGUICS2Pygame.simplegui_lib_fps.FPS</text>
<polyline fill="none" stroke="black" points="133,-424.5 416,-424.5 "/>
<polyline fill="none" stroke="black" points="133,-400.5 416,-400.5 "/>
<text text-anchor="start" x="141" y="-385.3" font-family="Times,serif" font-size="14.00">draw_fct(canvas)</text>
<text text-anchor="start" x="141" y="-370.3" font-family="Times,serif" font-size="14.00">is_started()</text>
<text text-anchor="start" x="141" y="-355.3" font-family="Times,serif" font-size="14.00">start()</text>
<text text-anchor="start" x="141" y="-340.3" font-family="Times,serif" font-size="14.00">stop()</text>
</g>
<!-- 2 -->
<g id="node3" class="node"><title>2</title>
<polygon fill="none" stroke="black" points="626,-0.5 626,-205.5 925,-205.5 925,-0.5 626,-0.5"/>
<text text-anchor="middle" x="775.5" y="-190.3" font-family="Times,serif" font-size="14.00">SimpleGUICS2Pygame.simplegui_lib_keys.Keys</text>
<polyline fill="none" stroke="black" points="626,-182.5 925,-182.5 "/>
<polyline fill="none" stroke="black" points="626,-158.5 925,-158.5 "/>
<text text-anchor="start" x="634" y="-143.3" font-family="Times,serif" font-size="14.00">active_handlers()</text>
<text text-anchor="start" x="634" y="-128.3" font-family="Times,serif" font-size="14.00">active_keydown_handler()</text>
<text text-anchor="start" x="634" y="-113.3" font-family="Times,serif" font-size="14.00">active_keyup_handler()</text>
<text text-anchor="start" x="634" y="-98.3" font-family="Times,serif" font-size="14.00">is_pressed(key_code)</text>
<text text-anchor="start" x="634" y="-83.3" font-family="Times,serif" font-size="14.00">is_pressed_key_map(key_str)</text>
<text text-anchor="start" x="634" y="-68.3" font-family="Times,serif" font-size="14.00">pressed_keys()</text>
<text text-anchor="start" x="634" y="-53.3" font-family="Times,serif" font-size="14.00">set_keydown_fct(key_code, fct)</text>
<text text-anchor="start" x="634" y="-38.3" font-family="Times,serif" font-size="14.00">set_keydown_fct_key_map(key_str, fct)</text>
<text text-anchor="start" x="634" y="-23.3" font-family="Times,serif" font-size="14.00">set_keyup_fct(key_code, fct)</text>
<text text-anchor="start" x="634" y="-8.3" font-family="Times,serif" font-size="14.00">set_keyup_fct_key_map(key_str, fct)</text>
</g>
<!-- 3 -->
<g id="node4" class="node"><title>3</title>
<polygon fill="none" stroke="black" points="434,-265 434,-515 753,-515 753,-265 434,-265"/>
<text text-anchor="middle" x="593.5" y="-499.8" font-family="Times,serif" font-size="14.00">SimpleGUICS2Pygame.simplegui_lib_loader.Loader</text>
<polyline fill="none" stroke="black" points="434,-492 753,-492 "/>
<polyline fill="none" stroke="black" points="434,-468 753,-468 "/>
<text text-anchor="start" x="442" y="-452.8" font-family="Times,serif" font-size="14.00">add_image(url, name)</text>
<text text-anchor="start" x="442" y="-437.8" font-family="Times,serif" font-size="14.00">add_sound(url, name)</text>
<text text-anchor="start" x="442" y="-422.8" font-family="Times,serif" font-size="14.00">cache_clear()</text>
<text text-anchor="start" x="442" y="-407.8" font-family="Times,serif" font-size="14.00">get_image(name)</text>
<text text-anchor="start" x="442" y="-392.8" font-family="Times,serif" font-size="14.00">get_nb_images()</text>
<text text-anchor="start" x="442" y="-377.8" font-family="Times,serif" font-size="14.00">get_nb_images_loaded()</text>
<text text-anchor="start" x="442" y="-362.8" font-family="Times,serif" font-size="14.00">get_nb_sounds()</text>
<text text-anchor="start" x="442" y="-347.8" font-family="Times,serif" font-size="14.00">get_nb_sounds_loaded()</text>
<text text-anchor="start" x="442" y="-332.8" font-family="Times,serif" font-size="14.00">get_sound(name)</text>
<text text-anchor="start" x="442" y="-317.8" font-family="Times,serif" font-size="14.00">load()</text>
<text text-anchor="start" x="442" y="-302.8" font-family="Times,serif" font-size="14.00">pause_sounds()</text>
<text text-anchor="start" x="442" y="-287.8" font-family="Times,serif" font-size="14.00">print_stats_cache()</text>
<text text-anchor="start" x="442" y="-272.8" font-family="Times,serif" font-size="14.00">wait_loaded()</text>
</g>
<!-- 4 -->
<g id="node5" class="node"><title>4</title>
<polygon fill="none" stroke="black" points="942.5,-15.5 942.5,-190.5 1520.5,-190.5 1520.5,-15.5 942.5,-15.5"/>
<text text-anchor="middle" x="1231.5" y="-175.3" font-family="Times,serif" font-size="14.00">SimpleGUICS2Pygame.simpleguics2pygame.canvas.Canvas</text>
<polyline fill="none" stroke="black" points="942.5,-167.5 1520.5,-167.5 "/>
<polyline fill="none" stroke="black" points="942.5,-143.5 1520.5,-143.5 "/>
<text text-anchor="start" x="950.5" y="-128.3" font-family="Times,serif" font-size="14.00">draw_arc(center_point, radius, start_angle, end_angle, line_width, line_color)</text>
<text text-anchor="start" x="950.5" y="-113.3" font-family="Times,serif" font-size="14.00">draw_circle(center_point, radius, line_width, line_color, fill_color)</text>
<text text-anchor="start" x="950.5" y="-98.3" font-family="Times,serif" font-size="14.00">draw_image(image, center_source, width_height_source, center_dest, width_height_dest, rotation)</text>
<text text-anchor="start" x="950.5" y="-83.3" font-family="Times,serif" font-size="14.00">draw_line(point1, point2, line_width, line_color)</text>
<text text-anchor="start" x="950.5" y="-68.3" font-family="Times,serif" font-size="14.00">draw_point(position, color)</text>
<text text-anchor="start" x="950.5" y="-53.3" font-family="Times,serif" font-size="14.00">draw_polygon(point_list, line_width, line_color, fill_color)</text>
<text text-anchor="start" x="950.5" y="-38.3" font-family="Times,serif" font-size="14.00">draw_polyline(point_list, line_width, line_color)</text>
<text text-anchor="start" x="950.5" y="-23.3" font-family="Times,serif" font-size="14.00">draw_text(text, point, font_size, font_color, font_face, _font_size_coef)</text>
</g>
<!-- 7 -->
<g id="node8" class="node"><title>7</title>
<polygon fill="none" stroke="black" points="1055.5,-257.5 1055.5,-522.5 1407.5,-522.5 1407.5,-257.5 1055.5,-257.5"/>
<text text-anchor="middle" x="1231.5" y="-507.3" font-family="Times,serif" font-size="14.00">SimpleGUICS2Pygame.simpleguics2pygame.frame.Frame</text>
<polyline fill="none" stroke="black" points="1055.5,-499.5 1407.5,-499.5 "/>
<polyline fill="none" stroke="black" points="1055.5,-475.5 1407.5,-475.5 "/>
<text text-anchor="start" x="1063.5" y="-460.3" font-family="Times,serif" font-size="14.00">add_button(text, button_handler, width)</text>
<text text-anchor="start" x="1063.5" y="-445.3" font-family="Times,serif" font-size="14.00">add_input(text, input_handler, width)</text>
<text text-anchor="start" x="1063.5" y="-430.3" font-family="Times,serif" font-size="14.00">add_label(text, width)</text>
<text text-anchor="start" x="1063.5" y="-415.3" font-family="Times,serif" font-size="14.00">download_canvas_image(filename)</text>
<text text-anchor="start" x="1063.5" y="-400.3" font-family="Times,serif" font-size="14.00">get_canvas_image()</text>
<text text-anchor="start" x="1063.5" y="-385.3" font-family="Times,serif" font-size="14.00">get_canvas_textwidth(text, font_size, font_face)</text>
<text text-anchor="start" x="1063.5" y="-370.3" font-family="Times,serif" font-size="14.00">set_canvas_background(color)</text>
<text text-anchor="start" x="1063.5" y="-355.3" font-family="Times,serif" font-size="14.00">set_draw_handler(draw_handler)</text>
<text text-anchor="start" x="1063.5" y="-340.3" font-family="Times,serif" font-size="14.00">set_keydown_handler(key_handler)</text>
<text text-anchor="start" x="1063.5" y="-325.3" font-family="Times,serif" font-size="14.00">set_keyup_handler(key_handler)</text>
<text text-anchor="start" x="1063.5" y="-310.3" font-family="Times,serif" font-size="14.00">set_mouseclick_handler(mouse_handler)</text>
<text text-anchor="start" x="1063.5" y="-295.3" font-family="Times,serif" font-size="14.00">set_mousedrag_handler(mouse_handler)</text>
<text text-anchor="start" x="1063.5" y="-280.3" font-family="Times,serif" font-size="14.00">start()</text>
<text text-anchor="start" x="1063.5" y="-265.3" font-family="Times,serif" font-size="14.00">stop()</text>
</g>
<!-- 4&#45;&gt;7 -->
<g id="edge3" class="edge"><title>4&#45;&gt;7</title>
<path fill="none" stroke="black" d="M1231.5,-190.67C1231.5,-207.933 1231.5,-226.494 1231.5,-245.087"/>
<polygon fill="black" stroke="black" points="1231.5,-245.297 1235.5,-251.297 1231.5,-257.297 1227.5,-251.297 1231.5,-245.297"/>
<text text-anchor="middle" x="1254" y="-227.8" font-family="Times,serif" font-size="14.00" fill="green">_canvas</text>
</g>
<!-- 5 -->
<g id="node6" class="node"><title>5</title>
<polygon fill="none" stroke="black" points="1538.5,-60.5 1538.5,-145.5 1904.5,-145.5 1904.5,-60.5 1538.5,-60.5"/>
<text text-anchor="middle" x="1721.5" y="-130.3" font-family="Times,serif" font-size="14.00">SimpleGUICS2Pygame.simpleguics2pygame.control.Control</text>
<polyline fill="none" stroke="black" points="1538.5,-122.5 1904.5,-122.5 "/>
<polyline fill="none" stroke="black" points="1538.5,-98.5 1904.5,-98.5 "/>
<text text-anchor="start" x="1546.5" y="-83.3" font-family="Times,serif" font-size="14.00">get_text()</text>
<text text-anchor="start" x="1546.5" y="-68.3" font-family="Times,serif" font-size="14.00">set_text(text)</text>
</g>
<!-- 6 -->
<g id="node7" class="node"><title>6</title>
<polygon fill="none" stroke="black" points="1922.5,-60.5 1922.5,-145.5 2342.5,-145.5 2342.5,-60.5 1922.5,-60.5"/>
<text text-anchor="middle" x="2132.5" y="-130.3" font-family="Times,serif" font-size="14.00">SimpleGUICS2Pygame.simpleguics2pygame.control.TextAreaControl</text>
<polyline fill="none" stroke="black" points="1922.5,-122.5 2342.5,-122.5 "/>
<polyline fill="none" stroke="black" points="1922.5,-98.5 2342.5,-98.5 "/>
<text text-anchor="start" x="1930.5" y="-83.3" font-family="Times,serif" font-size="14.00">get_text()</text>
<text text-anchor="start" x="1930.5" y="-68.3" font-family="Times,serif" font-size="14.00">set_text(input_text)</text>
</g>
<!-- 8 -->
<g id="node9" class="node"><title>8</title>
<polygon fill="none" stroke="black" points="2380,-347.5 2380,-432.5 2733,-432.5 2733,-347.5 2380,-347.5"/>
<text text-anchor="middle" x="2556.5" y="-417.3" font-family="Times,serif" font-size="14.00">SimpleGUICS2Pygame.simpleguics2pygame.image.Image</text>
<polyline fill="none" stroke="black" points="2380,-409.5 2733,-409.5 "/>
<polyline fill="none" stroke="black" points="2380,-385.5 2733,-385.5 "/>
<text text-anchor="start" x="2388" y="-370.3" font-family="Times,serif" font-size="14.00">get_height()</text>
<text text-anchor="start" x="2388" y="-355.3" font-family="Times,serif" font-size="14.00">get_width()</text>
</g>
<!-- 9 -->
<g id="node10" class="node"><title>9</title>
<polygon fill="none" stroke="black" points="2360.5,-68 2360.5,-138 2752.5,-138 2752.5,-68 2360.5,-68"/>
<text text-anchor="middle" x="2556.5" y="-122.8" font-family="Times,serif" font-size="14.00">SimpleGUICS2Pygame.simpleguics2pygame.image._LocalImage</text>
<polyline fill="none" stroke="black" points="2360.5,-115 2752.5,-115 "/>
<polyline fill="none" stroke="black" points="2360.5,-91 2752.5,-91 "/>
<text text-anchor="middle" x="2556.5" y="-75.8" font-family="Times,serif" font-size="14.00"> </text>
</g>
<!-- 9&#45;&gt;8 -->
<g id="edge1" class="edge"><title>9&#45;&gt;8</title>
<path fill="none" stroke="black" d="M2556.5,-138.095C2556.5,-187.575 2556.5,-279.671 2556.5,-337.465"/>
<polygon fill="none" stroke="black" points="2553,-337.488 2556.5,-347.488 2560,-337.488 2553,-337.488"/>
</g>
<!-- 10 -->
<g id="node11" class="node"><title>10</title>
<polygon fill="none" stroke="black" points="2790.5,-332.5 2790.5,-447.5 3142.5,-447.5 3142.5,-332.5 2790.5,-332.5"/>
<text text-anchor="middle" x="2966.5" y="-432.3" font-family="Times,serif" font-size="14.00">SimpleGUICS2Pygame.simpleguics2pygame.sound.Sound</text>
<polyline fill="none" stroke="black" points="2790.5,-424.5 3142.5,-424.5 "/>
<polyline fill="none" stroke="black" points="2790.5,-400.5 3142.5,-400.5 "/>
<text text-anchor="start" x="2798.5" y="-385.3" font-family="Times,serif" font-size="14.00">pause()</text>
<text text-anchor="start" x="2798.5" y="-370.3" font-family="Times,serif" font-size="14.00">play()</text>
<text text-anchor="start" x="2798.5" y="-355.3" font-family="Times,serif" font-size="14.00">rewind()</text>
<text text-anchor="start" x="2798.5" y="-340.3" font-family="Times,serif" font-size="14.00">set_volume(volume)</text>
</g>
<!-- 11 -->
<g id="node12" class="node"><title>11</title>
<polygon fill="none" stroke="black" points="2771,-68 2771,-138 3162,-138 3162,-68 2771,-68"/>
<text text-anchor="middle" x="2966.5" y="-122.8" font-family="Times,serif" font-size="14.00">SimpleGUICS2Pygame.simpleguics2pygame.sound._LocalSound</text>
<polyline fill="none" stroke="black" points="2771,-115 3162,-115 "/>
<polyline fill="none" stroke="black" points="2771,-91 3162,-91 "/>
<text text-anchor="middle" x="2966.5" y="-75.8" font-family="Times,serif" font-size="14.00"> </text>
</g>
<!-- 11&#45;&gt;10 -->
<g id="edge2" class="edge"><title>11&#45;&gt;10</title>
<path fill="none" stroke="black" d="M2966.5,-138.095C2966.5,-183.394 2966.5,-264.41 2966.5,-322.125"/>
<polygon fill="none" stroke="black" points="2963,-322.256 2966.5,-332.256 2970,-322.256 2963,-322.256"/>
</g>
<!-- 12 -->
<g id="node13" class="node"><title>12</title>
<polygon fill="none" stroke="black" points="261,-45.5 261,-160.5 608,-160.5 608,-45.5 261,-45.5"/>
<text text-anchor="middle" x="434.5" y="-145.3" font-family="Times,serif" font-size="14.00">SimpleGUICS2Pygame.simpleguics2pygame.timer.Timer</text>
<polyline fill="none" stroke="black" points="261,-137.5 608,-137.5 "/>
<polyline fill="none" stroke="black" points="261,-113.5 608,-113.5 "/>
<text text-anchor="start" x="269" y="-98.3" font-family="Times,serif" font-size="14.00">get_interval()</text>
<text text-anchor="start" x="269" y="-83.3" font-family="Times,serif" font-size="14.00">is_running()</text>
<text text-anchor="start" x="269" y="-68.3" font-family="Times,serif" font-size="14.00">start()</text>
<text text-anchor="start" x="269" y="-53.3" font-family="Times,serif" font-size="14.00">stop()</text>
</g>
<!-- 12&#45;&gt;1 -->
<g id="edge4" class="edge"><title>12&#45;&gt;1</title>
<path fill="none" stroke="black" d="M402.698,-160.648C376.632,-207.077 339.683,-272.893 312.144,-321.947"/>
<polygon fill="black" stroke="black" points="312.116,-321.996 312.667,-329.186 306.242,-332.46 305.691,-325.27 312.116,-321.996"/>
<text text-anchor="middle" x="383" y="-227.8" font-family="Times,serif" font-size="14.00" fill="green">_timer</text>
</g>
<!-- 12&#45;&gt;3 -->
<g id="edge5" class="edge"><title>12&#45;&gt;3</title>
<path fill="none" stroke="black" d="M466.103,-160.648C481.181,-187.673 499.923,-221.267 518.352,-254.3"/>
<polygon fill="black" stroke="black" points="518.473,-254.517 524.889,-257.808 524.319,-264.997 517.903,-261.706 518.473,-254.517"/>
<text text-anchor="middle" x="531.5" y="-227.8" font-family="Times,serif" font-size="14.00" fill="green">__timer</text>
</g>
</g>
</svg>
