<?xml version="1.0" encoding="UTF-8" standalone="no"?>
<!DOCTYPE svg PUBLIC "-//W3C//DTD SVG 1.1//EN"
 "http://www.w3.org/Graphics/SVG/1.1/DTD/svg11.dtd">
<!-- Generated by graphviz version 2.38.0 (20140413.2041)
 -->
<!-- Title: packages_SimpleGUICS2Pygame_all Pages: 1 -->
<svg width="2506pt" height="548pt"
 viewBox="0.00 0.00 2505.50 548.00" xmlns="http://www.w3.org/2000/svg" xmlns:xlink="http://www.w3.org/1999/xlink">
<g id="graph0" class="graph" transform="scale(1 1) rotate(0) translate(4 544)">
<title>packages_SimpleGUICS2Pygame_all</title>
<polygon fill="white" stroke="none" points="-4,4 -4,-544 2501.5,-544 2501.5,4 -4,4"/>
<!-- 0 -->
<g id="node1" class="node"><title>0</title>
<polygon fill="none" stroke="black" points="1054.5,-540 901.5,-540 901.5,-504 1054.5,-504 1054.5,-540"/>
<text text-anchor="middle" x="978" y="-518.3" font-family="Times,serif" font-size="14.00">SimpleGUICS2Pygame</text>
</g>
<!-- 1 -->
<g id="node2" class="node"><title>1</title>
<polygon fill="none" stroke="black" points="1223,-108 993,-108 993,-72 1223,-72 1223,-108"/>
<text text-anchor="middle" x="1108" y="-86.3" font-family="Times,serif" font-size="14.00">SimpleGUICS2Pygame.codeskulptor</text>
</g>
<!-- 2 -->
<g id="node3" class="node"><title>2</title>
<polygon fill="none" stroke="black" points="1233.5,-36 982.5,-36 982.5,-0 1233.5,-0 1233.5,-36"/>
<text text-anchor="middle" x="1108" y="-14.3" font-family="Times,serif" font-size="14.00">SimpleGUICS2Pygame.codeskulptor_lib</text>
</g>
<!-- 2&#45;&gt;1 -->
<g id="edge1" class="edge"><title>2&#45;&gt;1</title>
<path fill="none" stroke="black" d="M1108,-36.3034C1108,-44.0173 1108,-53.2875 1108,-61.8876"/>
<polygon fill="black" stroke="black" points="1108,-71.8957 1103.5,-61.8956 1108,-66.8957 1108,-61.8957 1108,-61.8957 1108,-61.8957 1108,-66.8957 1112.5,-61.8957 1108,-71.8957 1108,-71.8957"/>
</g>
<!-- 3 -->
<g id="node4" class="node"><title>3</title>
<polygon fill="none" stroke="black" points="1454.5,-36 1251.5,-36 1251.5,-0 1454.5,-0 1454.5,-36"/>
<text text-anchor="middle" x="1353" y="-14.3" font-family="Times,serif" font-size="14.00">SimpleGUICS2Pygame.numeric</text>
</g>
<!-- 4 -->
<g id="node5" class="node"><title>4</title>
<polygon fill="none" stroke="black" points="1705.5,-36 1472.5,-36 1472.5,-0 1705.5,-0 1705.5,-36"/>
<text text-anchor="middle" x="1589" y="-14.3" font-family="Times,serif" font-size="14.00">SimpleGUICS2Pygame.simplegui_lib</text>
</g>
<!-- 5 -->
<g id="node6" class="node"><title>5</title>
<polygon fill="none" stroke="black" points="1697.5,-468 1430.5,-468 1430.5,-432 1697.5,-432 1697.5,-468"/>
<text text-anchor="middle" x="1564" y="-446.3" font-family="Times,serif" font-size="14.00">SimpleGUICS2Pygame.simplegui_lib_draw</text>
</g>
<!-- 5&#45;&gt;0 -->
<g id="edge2" class="edge"><title>5&#45;&gt;0</title>
<path fill="none" stroke="black" d="M1430.29,-466.972C1318.06,-480.378 1161.03,-499.136 1064.61,-510.655"/>
<polygon fill="black" stroke="black" points="1054.6,-511.85 1064,-506.195 1059.56,-511.257 1064.53,-510.664 1064.53,-510.664 1064.53,-510.664 1059.56,-511.257 1065.06,-515.132 1054.6,-511.85 1054.6,-511.85"/>
</g>
<!-- 6 -->
<g id="node7" class="node"><title>6</title>
<polygon fill="none" stroke="black" points="1980,-36 1724,-36 1724,-0 1980,-0 1980,-36"/>
<text text-anchor="middle" x="1852" y="-14.3" font-family="Times,serif" font-size="14.00">SimpleGUICS2Pygame.simplegui_lib_fps</text>
</g>
<!-- 7 -->
<g id="node8" class="node"><title>7</title>
<polygon fill="none" stroke="black" points="2264,-36 1998,-36 1998,-0 2264,-0 2264,-36"/>
<text text-anchor="middle" x="2131" y="-14.3" font-family="Times,serif" font-size="14.00">SimpleGUICS2Pygame.simplegui_lib_keys</text>
</g>
<!-- 8 -->
<g id="node9" class="node"><title>8</title>
<polygon fill="none" stroke="black" points="964.5,-36 689.5,-36 689.5,-0 964.5,-0 964.5,-36"/>
<text text-anchor="middle" x="827" y="-14.3" font-family="Times,serif" font-size="14.00">SimpleGUICS2Pygame.simplegui_lib_loader</text>
</g>
<!-- 9 -->
<g id="node10" class="node"><title>9</title>
<polygon fill="none" stroke="black" points="965,-108 689,-108 689,-72 965,-72 965,-108"/>
<text text-anchor="middle" x="827" y="-86.3" font-family="Times,serif" font-size="14.00">SimpleGUICS2Pygame.simpleguics2pygame</text>
</g>
<!-- 8&#45;&gt;9 -->
<g id="edge3" class="edge"><title>8&#45;&gt;9</title>
<path fill="none" stroke="black" d="M827,-36.3034C827,-44.0173 827,-53.2875 827,-61.8876"/>
<polygon fill="black" stroke="black" points="827,-71.8957 822.5,-61.8956 827,-66.8957 827,-61.8957 827,-61.8957 827,-61.8957 827,-66.8957 831.5,-61.8957 827,-71.8957 827,-71.8957"/>
</g>
<!-- 10 -->
<g id="node11" class="node"><title>10</title>
<polygon fill="none" stroke="black" points="564,-468 220,-468 220,-432 564,-432 564,-468"/>
<text text-anchor="middle" x="392" y="-446.3" font-family="Times,serif" font-size="14.00">SimpleGUICS2Pygame.simpleguics2pygame._arguments</text>
</g>
<!-- 9&#45;&gt;10 -->
<g id="edge4" class="edge"><title>9&#45;&gt;10</title>
<path fill="none" stroke="black" d="M688.851,-96.995C575.941,-103.614 412.586,-117.126 272,-144 147.066,-167.882 0,-105.804 0,-233 0,-233 0,-233 0,-307 0,-363.255 40.0183,-370.184 90,-396 126.593,-414.901 168.652,-427.218 209.531,-435.204"/>
<polygon fill="black" stroke="black" points="219.615,-437.093 208.958,-439.675 214.701,-436.173 209.786,-435.252 209.786,-435.252 209.786,-435.252 214.701,-436.173 210.615,-430.829 219.615,-437.093 219.615,-437.093"/>
</g>
<!-- 15 -->
<g id="node16" class="node"><title>15</title>
<polygon fill="none" stroke="black" points="1412,-468 1056,-468 1056,-432 1412,-432 1412,-468"/>
<text text-anchor="middle" x="1234" y="-446.3" font-family="Times,serif" font-size="14.00">SimpleGUICS2Pygame.simpleguics2pygame._pygame_init</text>
</g>
<!-- 9&#45;&gt;15 -->
<g id="edge5" class="edge"><title>9&#45;&gt;15</title>
<path fill="none" stroke="black" d="M965.282,-106.499C1268.29,-140.691 1964,-220.551 1964,-233 1964,-233 1964,-233 1964,-307 1964,-322.031 2079.86,-313.145 1743,-396 1726.94,-399.95 1557.31,-417.241 1418.22,-431.014"/>
<polygon fill="black" stroke="black" points="1408.26,-431.999 1417.77,-426.536 1413.23,-431.507 1418.21,-431.014 1418.21,-431.014 1418.21,-431.014 1413.23,-431.507 1418.65,-435.493 1408.26,-431.999 1408.26,-431.999"/>
</g>
<!-- 16 -->
<g id="node17" class="node"><title>16</title>
<polygon fill="none" stroke="black" points="1394.5,-252 1077.5,-252 1077.5,-216 1394.5,-216 1394.5,-252"/>
<text text-anchor="middle" x="1236" y="-230.3" font-family="Times,serif" font-size="14.00">SimpleGUICS2Pygame.simpleguics2pygame.canvas</text>
</g>
<!-- 9&#45;&gt;16 -->
<g id="edge6" class="edge"><title>9&#45;&gt;16</title>
<path fill="none" stroke="black" d="M900.133,-108.019C937.809,-117.429 984.27,-130.033 1025,-144 1083.21,-163.963 1148.17,-192.324 1190.44,-211.628"/>
<polygon fill="black" stroke="black" points="1199.62,-215.845 1188.66,-215.763 1195.08,-213.759 1190.54,-211.673 1190.54,-211.673 1190.54,-211.673 1195.08,-213.759 1192.41,-207.584 1199.62,-215.845 1199.62,-215.845"/>
</g>
<!-- 17 -->
<g id="node18" class="node"><title>17</title>
<polygon fill="none" stroke="black" points="1771,-252 1451,-252 1451,-216 1771,-216 1771,-252"/>
<text text-anchor="middle" x="1611" y="-230.3" font-family="Times,serif" font-size="14.00">SimpleGUICS2Pygame.simpleguics2pygame.control</text>
</g>
<!-- 9&#45;&gt;17 -->
<g id="edge7" class="edge"><title>9&#45;&gt;17</title>
<path fill="none" stroke="black" d="M921.179,-108.058C1068.78,-134.792 1353.54,-186.369 1506.99,-214.161"/>
<polygon fill="black" stroke="black" points="1516.9,-215.957 1506.26,-218.603 1511.98,-215.066 1507.06,-214.175 1507.06,-214.175 1507.06,-214.175 1511.98,-215.066 1507.87,-209.747 1516.9,-215.957 1516.9,-215.957"/>
</g>
<!-- 18 -->
<g id="node19" class="node"><title>18</title>
<polygon fill="none" stroke="black" points="983,-180 671,-180 671,-144 983,-144 983,-180"/>
<text text-anchor="middle" x="827" y="-158.3" font-family="Times,serif" font-size="14.00">SimpleGUICS2Pygame.simpleguics2pygame.frame</text>
</g>
<!-- 9&#45;&gt;18 -->
<g id="edge8" class="edge"><title>9&#45;&gt;18</title>
<path fill="none" stroke="black" d="M821.084,-108.303C820.289,-116.017 820.062,-125.288 820.405,-133.888"/>
<polygon fill="black" stroke="black" points="821.105,-143.896 815.918,-134.234 820.756,-138.908 820.407,-133.92 820.407,-133.92 820.407,-133.92 820.756,-138.908 824.896,-133.606 821.105,-143.896 821.105,-143.896"/>
</g>
<!-- 19 -->
<g id="node20" class="node"><title>19</title>
<polygon fill="none" stroke="black" points="1188,-324 874,-324 874,-288 1188,-288 1188,-324"/>
<text text-anchor="middle" x="1031" y="-302.3" font-family="Times,serif" font-size="14.00">SimpleGUICS2Pygame.simpleguics2pygame.image</text>
</g>
<!-- 9&#45;&gt;19 -->
<g id="edge9" class="edge"><title>9&#45;&gt;19</title>
<path fill="none" stroke="black" d="M934.347,-108.074C955.841,-115.926 976.535,-127.361 992,-144 1026.24,-180.846 1031.9,-242.498 1032.05,-277.861"/>
<polygon fill="black" stroke="black" points="1031.94,-287.935 1027.55,-277.888 1031.99,-282.935 1032.05,-277.935 1032.05,-277.935 1032.05,-277.935 1031.99,-282.935 1036.55,-277.982 1031.94,-287.935 1031.94,-287.935"/>
</g>
<!-- 20 -->
<g id="node21" class="node"><title>20</title>
<polygon fill="none" stroke="black" points="742,-252 436,-252 436,-216 742,-216 742,-252"/>
<text text-anchor="middle" x="589" y="-230.3" font-family="Times,serif" font-size="14.00">SimpleGUICS2Pygame.simpleguics2pygame.keys</text>
</g>
<!-- 9&#45;&gt;20 -->
<g id="edge10" class="edge"><title>9&#45;&gt;20</title>
<path fill="none" stroke="black" d="M742.618,-108.068C715.36,-116.121 686.007,-127.67 662,-144 637.784,-160.472 617.37,-187.253 604.341,-207.14"/>
<polygon fill="black" stroke="black" points="598.887,-215.731 600.448,-204.877 601.567,-211.51 604.247,-207.289 604.247,-207.289 604.247,-207.289 601.567,-211.51 608.046,-209.7 598.887,-215.731 598.887,-215.731"/>
</g>
<!-- 21 -->
<g id="node22" class="node"><title>21</title>
<polygon fill="none" stroke="black" points="379.5,-324 66.5,-324 66.5,-288 379.5,-288 379.5,-324"/>
<text text-anchor="middle" x="223" y="-302.3" font-family="Times,serif" font-size="14.00">SimpleGUICS2Pygame.simpleguics2pygame.sound</text>
</g>
<!-- 9&#45;&gt;21 -->
<g id="edge11" class="edge"><title>9&#45;&gt;21</title>
<path fill="none" stroke="black" d="M757.483,-108.002C717.678,-117.979 666.875,-131.123 622,-144 519.856,-173.31 487.183,-164.918 394,-216 372.144,-227.981 372.316,-239.083 351,-252 330.036,-264.704 305.476,-275.693 283.507,-284.319"/>
<polygon fill="black" stroke="black" points="273.944,-287.991 281.666,-280.205 278.612,-286.198 283.279,-284.406 283.279,-284.406 283.279,-284.406 278.612,-286.198 284.892,-288.607 273.944,-287.991 273.944,-287.991"/>
</g>
<!-- 22 -->
<g id="node23" class="node"><title>22</title>
<polygon fill="none" stroke="black" points="342.5,-252 33.5,-252 33.5,-216 342.5,-216 342.5,-252"/>
<text text-anchor="middle" x="188" y="-230.3" font-family="Times,serif" font-size="14.00">SimpleGUICS2Pygame.simpleguics2pygame.timer</text>
</g>
<!-- 9&#45;&gt;22 -->
<g id="edge12" class="edge"><title>9&#45;&gt;22</title>
<path fill="none" stroke="black" d="M688.973,-93.0001C593.586,-97.6318 464.792,-110.393 356,-144 306.419,-159.316 254.374,-189.387 221.591,-210.314"/>
<polygon fill="black" stroke="black" points="212.873,-215.954 218.825,-206.744 217.071,-213.238 221.269,-210.522 221.269,-210.522 221.269,-210.522 217.071,-213.238 223.714,-214.3 212.873,-215.954 212.873,-215.954"/>
</g>
<!-- 10&#45;&gt;0 -->
<g id="edge13" class="edge"><title>10&#45;&gt;0</title>
<path fill="none" stroke="black" d="M534.602,-468.034C646.066,-481.349 797.372,-499.423 891.286,-510.642"/>
<polygon fill="black" stroke="black" points="901.319,-511.84 890.856,-515.122 896.354,-511.247 891.39,-510.654 891.39,-510.654 891.39,-510.654 896.354,-511.247 891.923,-506.186 901.319,-511.84 901.319,-511.84"/>
</g>
<!-- 11 -->
<g id="node12" class="node"><title>11</title>
<polygon fill="none" stroke="black" points="1897.5,-324 1576.5,-324 1576.5,-288 1897.5,-288 1897.5,-324"/>
<text text-anchor="middle" x="1737" y="-302.3" font-family="Times,serif" font-size="14.00">SimpleGUICS2Pygame.simpleguics2pygame._colors</text>
</g>
<!-- 11&#45;&gt;15 -->
<g id="edge14" class="edge"><title>11&#45;&gt;15</title>
<path fill="none" stroke="black" d="M1709.97,-324.12C1676.53,-344.482 1617.25,-377.976 1562,-396 1514.67,-411.44 1461.98,-422.493 1412.91,-430.362"/>
<polygon fill="black" stroke="black" points="1402.83,-431.944 1412.01,-425.949 1407.76,-431.169 1412.7,-430.395 1412.7,-430.395 1412.7,-430.395 1407.76,-431.169 1413.4,-434.84 1402.83,-431.944 1402.83,-431.944"/>
</g>
<!-- 12 -->
<g id="node13" class="node"><title>12</title>
<polygon fill="none" stroke="black" points="1520,-324 1206,-324 1206,-288 1520,-288 1520,-324"/>
<text text-anchor="middle" x="1363" y="-302.3" font-family="Times,serif" font-size="14.00">SimpleGUICS2Pygame.simpleguics2pygame._fonts</text>
</g>
<!-- 12&#45;&gt;10 -->
<g id="edge15" class="edge"><title>12&#45;&gt;10</title>
<path fill="none" stroke="black" d="M1205.73,-323.127C1202.79,-323.421 1199.88,-323.712 1197,-324 1032.6,-340.416 986.359,-316.382 827,-360 790.562,-369.973 786.177,-385.119 750,-396 693.95,-412.858 631.286,-424.465 574.245,-432.411"/>
<polygon fill="black" stroke="black" points="564.034,-433.802 573.334,-427.993 568.988,-433.127 573.942,-432.452 573.942,-432.452 573.942,-432.452 568.988,-433.127 574.55,-436.91 564.034,-433.802 564.034,-433.802"/>
</g>
<!-- 12&#45;&gt;15 -->
<g id="edge16" class="edge"><title>12&#45;&gt;15</title>
<path fill="none" stroke="black" d="M1347.44,-324.129C1324.78,-349.076 1282.56,-395.55 1256.5,-424.227"/>
<polygon fill="black" stroke="black" points="1249.62,-431.811 1253.01,-421.383 1252.98,-428.11 1256.34,-424.409 1256.34,-424.409 1256.34,-424.409 1252.98,-428.11 1259.67,-427.435 1249.62,-431.811 1249.62,-431.811"/>
</g>
<!-- 13 -->
<g id="node14" class="node"><title>13</title>
<polygon fill="none" stroke="black" points="1167.5,-396 836.5,-396 836.5,-360 1167.5,-360 1167.5,-396"/>
<text text-anchor="middle" x="1002" y="-374.3" font-family="Times,serif" font-size="14.00">SimpleGUICS2Pygame.simpleguics2pygame._joypads</text>
</g>
<!-- 13&#45;&gt;15 -->
<g id="edge17" class="edge"><title>13&#45;&gt;15</title>
<path fill="none" stroke="black" d="M1058.46,-396.034C1091.3,-405.943 1132.87,-418.486 1167.31,-428.879"/>
<polygon fill="black" stroke="black" points="1177.29,-431.889 1166.42,-433.309 1172.5,-430.445 1167.72,-429.001 1167.72,-429.001 1167.72,-429.001 1172.5,-430.445 1169.02,-424.692 1177.29,-431.889 1177.29,-431.889"/>
</g>
<!-- 14 -->
<g id="node15" class="node"><title>14</title>
<polygon fill="none" stroke="black" points="741.5,-396 420.5,-396 420.5,-360 741.5,-360 741.5,-396"/>
<text text-anchor="middle" x="581" y="-374.3" font-family="Times,serif" font-size="14.00">SimpleGUICS2Pygame.simpleguics2pygame._media</text>
</g>
<!-- 14&#45;&gt;10 -->
<g id="edge18" class="edge"><title>14&#45;&gt;10</title>
<path fill="none" stroke="black" d="M534.765,-396.124C508.469,-405.863 475.356,-418.128 447.642,-428.392"/>
<polygon fill="black" stroke="black" points="438.084,-431.932 445.899,-424.239 442.773,-430.195 447.462,-428.458 447.462,-428.458 447.462,-428.458 442.773,-430.195 449.025,-432.678 438.084,-431.932 438.084,-431.932"/>
</g>
<!-- 14&#45;&gt;15 -->
<g id="edge19" class="edge"><title>14&#45;&gt;15</title>
<path fill="none" stroke="black" d="M739.907,-396.034C838.361,-406.588 964.71,-420.133 1064.99,-430.883"/>
<polygon fill="black" stroke="black" points="1075.23,-431.98 1064.81,-435.389 1070.26,-431.447 1065.29,-430.914 1065.29,-430.914 1065.29,-430.914 1070.26,-431.447 1065.77,-426.44 1075.23,-431.98 1075.23,-431.98"/>
</g>
<!-- 16&#45;&gt;11 -->
<g id="edge20" class="edge"><title>16&#45;&gt;11</title>
<path fill="none" stroke="black" d="M1357.92,-252.034C1432.62,-262.472 1528.26,-275.835 1604.78,-286.526"/>
<polygon fill="black" stroke="black" points="1614.97,-287.95 1604.44,-291.023 1610.02,-287.258 1605.07,-286.566 1605.07,-286.566 1605.07,-286.566 1610.02,-287.258 1605.69,-282.109 1614.97,-287.95 1614.97,-287.95"/>
</g>
<!-- 16&#45;&gt;12 -->
<g id="edge21" class="edge"><title>16&#45;&gt;12</title>
<path fill="none" stroke="black" d="M1267.07,-252.124C1283.83,-261.361 1304.71,-272.869 1322.7,-282.788"/>
<polygon fill="black" stroke="black" points="1331.81,-287.81 1320.88,-286.924 1327.43,-285.397 1323.06,-282.983 1323.06,-282.983 1323.06,-282.983 1327.43,-285.397 1325.23,-279.042 1331.81,-287.81 1331.81,-287.81"/>
</g>
<!-- 16&#45;&gt;15 -->
<g id="edge22" class="edge"><title>16&#45;&gt;15</title>
<path fill="none" stroke="black" d="M1374.96,-252.038C1445.43,-262.106 1518.42,-275.329 1529,-288 1590.21,-361.276 1452.63,-406.658 1345.39,-429.866"/>
<polygon fill="black" stroke="black" points="1335.44,-431.975 1344.29,-425.499 1340.33,-430.938 1345.22,-429.901 1345.22,-429.901 1345.22,-429.901 1340.33,-430.938 1346.15,-434.304 1335.44,-431.975 1335.44,-431.975"/>
</g>
<!-- 16&#45;&gt;19 -->
<g id="edge23" class="edge"><title>16&#45;&gt;19</title>
<path fill="none" stroke="black" d="M1186.11,-252.034C1157.35,-261.858 1120.99,-274.271 1090.71,-284.611"/>
<polygon fill="black" stroke="black" points="1081.11,-287.889 1089.12,-280.399 1085.84,-286.273 1090.57,-284.658 1090.57,-284.658 1090.57,-284.658 1085.84,-286.273 1092.03,-288.916 1081.11,-287.889 1081.11,-287.889"/>
</g>
<!-- 17&#45;&gt;11 -->
<g id="edge24" class="edge"><title>17&#45;&gt;11</title>
<path fill="none" stroke="black" d="M1641.82,-252.124C1658.45,-261.361 1679.16,-272.869 1697.02,-282.788"/>
<polygon fill="black" stroke="black" points="1706.06,-287.81 1695.13,-286.887 1701.69,-285.382 1697.32,-282.954 1697.32,-282.954 1697.32,-282.954 1701.69,-285.382 1699.5,-279.02 1706.06,-287.81 1706.06,-287.81"/>
</g>
<!-- 17&#45;&gt;12 -->
<g id="edge25" class="edge"><title>17&#45;&gt;12</title>
<path fill="none" stroke="black" d="M1550.65,-252.034C1515.25,-262.028 1470.34,-274.702 1433.34,-285.146"/>
<polygon fill="black" stroke="black" points="1423.62,-287.889 1432.02,-280.842 1428.43,-286.531 1433.25,-285.173 1433.25,-285.173 1433.25,-285.173 1428.43,-286.531 1434.47,-289.503 1423.62,-287.889 1423.62,-287.889"/>
</g>
<!-- 17&#45;&gt;15 -->
<g id="edge26" class="edge"><title>17&#45;&gt;15</title>
<path fill="none" stroke="black" d="M1771.09,-245.58C1830.33,-253.115 1887.6,-265.997 1906,-288 1916.26,-300.273 1915.85,-311.389 1906,-324 1874.48,-364.374 1579.79,-407.149 1391.26,-430.72"/>
<polygon fill="black" stroke="black" points="1381.25,-431.966 1390.61,-426.265 1386.21,-431.349 1391.17,-430.731 1391.17,-430.731 1391.17,-430.731 1386.21,-431.349 1391.73,-435.197 1381.25,-431.966 1381.25,-431.966"/>
</g>
<!-- 18&#45;&gt;9 -->
<g id="edge27" class="edge"><title>18&#45;&gt;9</title>
<path fill="none" stroke="black" d="M832.895,-143.896C833.701,-136.209 833.937,-126.946 833.604,-118.335"/>
<polygon fill="black" stroke="black" points="832.916,-108.303 838.09,-117.972 833.258,-113.292 833.6,-118.28 833.6,-118.28 833.6,-118.28 833.258,-113.292 829.111,-118.588 832.916,-108.303 832.916,-108.303"/>
</g>
<!-- 18&#45;&gt;10 -->
<g id="edge28" class="edge"><title>18&#45;&gt;10</title>
<path fill="none" stroke="black" d="M670.784,-174.75C566.295,-184.118 444.768,-198.538 427,-216 398.35,-244.157 393.06,-366.256 392.149,-421.577"/>
<polygon fill="black" stroke="black" points="392.02,-431.703 387.648,-421.646 392.084,-426.704 392.148,-421.704 392.148,-421.704 392.148,-421.704 392.084,-426.704 396.647,-421.761 392.02,-431.703 392.02,-431.703"/>
</g>
<!-- 18&#45;&gt;11 -->
<g id="edge29" class="edge"><title>18&#45;&gt;11</title>
<path fill="none" stroke="black" d="M983.209,-172.2C1140.6,-182.298 1365.47,-199.303 1403,-216 1424.55,-225.588 1420.88,-241.494 1442,-252 1468.65,-265.254 1530.37,-277.245 1590.51,-286.455"/>
<polygon fill="black" stroke="black" points="1600.54,-287.967 1589.98,-290.925 1595.59,-287.221 1590.65,-286.476 1590.65,-286.476 1590.65,-286.476 1595.59,-287.221 1591.32,-282.026 1600.54,-287.967 1600.54,-287.967"/>
</g>
<!-- 18&#45;&gt;12 -->
<g id="edge30" class="edge"><title>18&#45;&gt;12</title>
<path fill="none" stroke="black" d="M866.803,-180.167C914.02,-199.949 995.484,-232.261 1068,-252 1120.48,-266.286 1179.29,-277.742 1230.51,-286.297"/>
<polygon fill="black" stroke="black" points="1240.65,-287.97 1230.05,-290.782 1235.71,-287.156 1230.78,-286.342 1230.78,-286.342 1230.78,-286.342 1235.71,-287.156 1231.51,-281.902 1240.65,-287.97 1240.65,-287.97"/>
</g>
<!-- 18&#45;&gt;13 -->
<g id="edge31" class="edge"><title>18&#45;&gt;13</title>
<path fill="none" stroke="black" d="M821.69,-180.141C812.944,-212.063 799.514,-281.25 832,-324 842.476,-337.786 856.505,-348.077 872.031,-355.741"/>
<polygon fill="black" stroke="black" points="881.331,-359.957 870.365,-359.927 876.777,-357.893 872.223,-355.828 872.223,-355.828 872.223,-355.828 876.777,-357.893 874.081,-351.73 881.331,-359.957 881.331,-359.957"/>
</g>
<!-- 18&#45;&gt;14 -->
<g id="edge32" class="edge"><title>18&#45;&gt;14</title>
<path fill="none" stroke="black" d="M814.325,-180.089C800.027,-198.798 775.552,-229.172 751,-252 708.089,-291.898 652.437,-330.735 616.716,-354.263"/>
<polygon fill="black" stroke="black" points="608.084,-359.906 613.992,-350.667 612.269,-357.17 616.454,-354.434 616.454,-354.434 616.454,-354.434 612.269,-357.17 618.916,-358.201 608.084,-359.906 608.084,-359.906"/>
</g>
<!-- 18&#45;&gt;15 -->
<g id="edge33" class="edge"><title>18&#45;&gt;15</title>
<path fill="none" stroke="black" d="M828.579,-180.001C832.42,-217.381 843.544,-304.909 865,-324 968.953,-416.494 1057.68,-286.768 1176,-360 1188.32,-367.626 1207.37,-399.424 1220.24,-422.846"/>
<polygon fill="black" stroke="black" points="1225.01,-431.654 1216.3,-425.004 1222.63,-427.257 1220.25,-422.861 1220.25,-422.861 1220.25,-422.861 1222.63,-427.257 1224.21,-420.718 1225.01,-431.654 1225.01,-431.654"/>
</g>
<!-- 18&#45;&gt;16 -->
<g id="edge34" class="edge"><title>18&#45;&gt;16</title>
<path fill="none" stroke="black" d="M926.53,-180.034C986.894,-190.366 1064,-203.562 1126.14,-214.198"/>
<polygon fill="black" stroke="black" points="1136.38,-215.95 1125.76,-218.698 1131.45,-215.106 1126.52,-214.263 1126.52,-214.263 1126.52,-214.263 1131.45,-215.106 1127.28,-209.827 1136.38,-215.95 1136.38,-215.95"/>
</g>
<!-- 18&#45;&gt;17 -->
<g id="edge35" class="edge"><title>18&#45;&gt;17</title>
<path fill="none" stroke="black" d="M983.121,-176.101C1106.39,-186.556 1282.72,-201.761 1437,-216 1438.13,-216.105 1439.27,-216.21 1440.41,-216.316"/>
<polygon fill="black" stroke="black" points="1450.78,-217.281 1440.4,-220.834 1445.8,-216.817 1440.82,-216.353 1440.82,-216.353 1440.82,-216.353 1445.8,-216.817 1441.24,-211.873 1450.78,-217.281 1450.78,-217.281"/>
</g>
<!-- 18&#45;&gt;19 -->
<g id="edge36" class="edge"><title>18&#45;&gt;19</title>
<path fill="none" stroke="black" d="M851.607,-180.129C888.213,-205.609 957.081,-253.546 998.016,-282.041"/>
<polygon fill="black" stroke="black" points="1006.31,-287.811 995.527,-285.791 1002.2,-284.954 998.098,-282.098 998.098,-282.098 998.098,-282.098 1002.2,-284.954 1000.67,-278.404 1006.31,-287.811 1006.31,-287.811"/>
</g>
<!-- 18&#45;&gt;20 -->
<g id="edge37" class="edge"><title>18&#45;&gt;20</title>
<path fill="none" stroke="black" d="M769.083,-180.034C735.251,-189.985 692.381,-202.594 656.957,-213.013"/>
<polygon fill="black" stroke="black" points="647.177,-215.889 655.501,-208.75 651.974,-214.478 656.77,-213.067 656.77,-213.067 656.77,-213.067 651.974,-214.478 658.04,-217.385 647.177,-215.889 647.177,-215.889"/>
</g>
<!-- 18&#45;&gt;22 -->
<g id="edge38" class="edge"><title>18&#45;&gt;22</title>
<path fill="none" stroke="black" d="M671.5,-180.034C574.889,-190.618 450.829,-204.208 352.566,-214.972"/>
<polygon fill="black" stroke="black" points="342.535,-216.071 351.986,-210.509 347.506,-215.527 352.476,-214.982 352.476,-214.982 352.476,-214.982 347.506,-215.527 352.966,-219.455 342.535,-216.071 342.535,-216.071"/>
</g>
<!-- 19&#45;&gt;14 -->
<g id="edge39" class="edge"><title>19&#45;&gt;14</title>
<path fill="none" stroke="black" d="M921.493,-324.034C854.667,-334.43 769.192,-347.726 700.601,-358.395"/>
<polygon fill="black" stroke="black" points="690.607,-359.95 699.797,-353.966 695.548,-359.181 700.489,-358.413 700.489,-358.413 700.489,-358.413 695.548,-359.181 701.18,-362.859 690.607,-359.95 690.607,-359.95"/>
</g>
<!-- 19&#45;&gt;15 -->
<g id="edge40" class="edge"><title>19&#45;&gt;15</title>
<path fill="none" stroke="black" d="M1150.69,-324.063C1172.71,-331.96 1193.82,-343.415 1210,-360 1225.94,-376.332 1231.57,-402.083 1233.43,-421.693"/>
<polygon fill="black" stroke="black" points="1234.11,-431.856 1228.95,-422.183 1233.78,-426.868 1233.44,-421.879 1233.44,-421.879 1233.44,-421.879 1233.78,-426.868 1237.93,-421.576 1234.11,-431.856 1234.11,-431.856"/>
</g>
<!-- 20&#45;&gt;15 -->
<g id="edge41" class="edge"><title>20&#45;&gt;15</title>
<path fill="none" stroke="black" d="M607.605,-252.197C645.557,-286.162 736.032,-361.538 827,-396 895.751,-422.045 975.195,-435.705 1045.55,-442.733"/>
<polygon fill="black" stroke="black" points="1055.86,-443.722 1045.47,-447.247 1050.88,-443.245 1045.9,-442.767 1045.9,-442.767 1045.9,-442.767 1050.88,-443.245 1046.33,-438.288 1055.86,-443.722 1055.86,-443.722"/>
</g>
<!-- 21&#45;&gt;10 -->
<g id="edge42" class="edge"><title>21&#45;&gt;10</title>
<path fill="none" stroke="black" d="M243.385,-324.129C273.457,-349.396 329.81,-396.746 363.819,-425.321"/>
<polygon fill="black" stroke="black" points="371.542,-431.811 360.991,-428.823 367.714,-428.594 363.886,-425.378 363.886,-425.378 363.886,-425.378 367.714,-428.594 366.781,-421.932 371.542,-431.811 371.542,-431.811"/>
</g>
<!-- 21&#45;&gt;14 -->
<g id="edge43" class="edge"><title>21&#45;&gt;14</title>
<path fill="none" stroke="black" d="M310.119,-324.034C362.629,-334.302 429.613,-347.399 483.832,-358.001"/>
<polygon fill="black" stroke="black" points="493.801,-359.95 483.123,-362.447 488.894,-358.99 483.987,-358.031 483.987,-358.031 483.987,-358.031 488.894,-358.99 484.851,-353.615 493.801,-359.95 493.801,-359.95"/>
</g>
<!-- 22&#45;&gt;10 -->
<g id="edge44" class="edge"><title>22&#45;&gt;10</title>
<path fill="none" stroke="black" d="M104.297,-252.051C85.7278,-259.886 68.2458,-271.319 57,-288 48.0561,-301.267 47.8757,-310.857 57,-324 96.9852,-381.598 166.901,-412.703 232.553,-429.482"/>
<polygon fill="black" stroke="black" points="242.625,-431.954 231.84,-433.94 237.769,-430.762 232.913,-429.57 232.913,-429.57 232.913,-429.57 237.769,-430.762 233.986,-425.2 242.625,-431.954 242.625,-431.954"/>
</g>
<!-- 23 -->
<g id="node24" class="node"><title>23</title>
<polygon fill="none" stroke="black" points="2497.5,-36 2282.5,-36 2282.5,-0 2497.5,-0 2497.5,-36"/>
<text text-anchor="middle" x="2390" y="-14.3" font-family="Times,serif" font-size="14.00">SimpleGUICS2Pygame.simpleplot</text>
</g>
</g>
</svg>
