<?xml version="1.0" encoding="UTF-8" standalone="no"?>
<!DOCTYPE svg PUBLIC "-//W3C//DTD SVG 1.1//EN"
 "http://www.w3.org/Graphics/SVG/1.1/DTD/svg11.dtd">
<!-- Generated by graphviz version 2.38.0 (20140413.2041)
 -->
<!-- Title: packages_SimpleGUICS2Pygame_all Pages: 1 -->
<svg width="3168pt" height="548pt"
 viewBox="0.00 0.00 3167.50 548.00" xmlns="http://www.w3.org/2000/svg" xmlns:xlink="http://www.w3.org/1999/xlink">
<g id="graph0" class="graph" transform="scale(1 1) rotate(0) translate(4 544)">
<title>packages_SimpleGUICS2Pygame_all</title>
<polygon fill="white" stroke="none" points="-4,4 -4,-544 3163.5,-544 3163.5,4 -4,4"/>
<!-- 0 -->
<g id="node1" class="node"><title>0</title>
<polygon fill="none" stroke="black" points="1656.5,-540 1503.5,-540 1503.5,-504 1656.5,-504 1656.5,-540"/>
<text text-anchor="middle" x="1580" y="-518.3" font-family="Times,serif" font-size="14.00">SimpleGUICS2Pygame</text>
</g>
<!-- 1 -->
<g id="node2" class="node"><title>1</title>
<polygon fill="none" stroke="black" points="1600,-108 1370,-108 1370,-72 1600,-72 1600,-108"/>
<text text-anchor="middle" x="1485" y="-86.3" font-family="Times,serif" font-size="14.00">SimpleGUICS2Pygame.codeskulptor</text>
</g>
<!-- 2 -->
<g id="node3" class="node"><title>2</title>
<polygon fill="none" stroke="black" points="1610.5,-36 1359.5,-36 1359.5,-0 1610.5,-0 1610.5,-36"/>
<text text-anchor="middle" x="1485" y="-14.3" font-family="Times,serif" font-size="14.00">SimpleGUICS2Pygame.codeskulptor_lib</text>
</g>
<!-- 2&#45;&gt;1 -->
<g id="edge1" class="edge"><title>2&#45;&gt;1</title>
<path fill="none" stroke="black" d="M1485,-36.3034C1485,-44.0173 1485,-53.2875 1485,-61.8876"/>
<polygon fill="black" stroke="black" points="1485,-71.8957 1480.5,-61.8956 1485,-66.8957 1485,-61.8957 1485,-61.8957 1485,-61.8957 1485,-66.8957 1489.5,-61.8957 1485,-71.8957 1485,-71.8957"/>
</g>
<!-- 3 -->
<g id="node4" class="node"><title>3</title>
<polygon fill="none" stroke="black" points="1831.5,-36 1628.5,-36 1628.5,-0 1831.5,-0 1831.5,-36"/>
<text text-anchor="middle" x="1730" y="-14.3" font-family="Times,serif" font-size="14.00">SimpleGUICS2Pygame.numeric</text>
</g>
<!-- 4 -->
<g id="node5" class="node"><title>4</title>
<polygon fill="none" stroke="black" points="2082.5,-36 1849.5,-36 1849.5,-0 2082.5,-0 2082.5,-36"/>
<text text-anchor="middle" x="1966" y="-14.3" font-family="Times,serif" font-size="14.00">SimpleGUICS2Pygame.simplegui_lib</text>
</g>
<!-- 5 -->
<g id="node6" class="node"><title>5</title>
<polygon fill="none" stroke="black" points="2367.5,-36 2100.5,-36 2100.5,-0 2367.5,-0 2367.5,-36"/>
<text text-anchor="middle" x="2234" y="-14.3" font-family="Times,serif" font-size="14.00">SimpleGUICS2Pygame.simplegui_lib_draw</text>
</g>
<!-- 6 -->
<g id="node7" class="node"><title>6</title>
<polygon fill="none" stroke="black" points="2642,-36 2386,-36 2386,-0 2642,-0 2642,-36"/>
<text text-anchor="middle" x="2514" y="-14.3" font-family="Times,serif" font-size="14.00">SimpleGUICS2Pygame.simplegui_lib_fps</text>
</g>
<!-- 7 -->
<g id="node8" class="node"><title>7</title>
<polygon fill="none" stroke="black" points="2926,-36 2660,-36 2660,-0 2926,-0 2926,-36"/>
<text text-anchor="middle" x="2793" y="-14.3" font-family="Times,serif" font-size="14.00">SimpleGUICS2Pygame.simplegui_lib_keys</text>
</g>
<!-- 8 -->
<g id="node9" class="node"><title>8</title>
<polygon fill="none" stroke="black" points="1341.5,-36 1066.5,-36 1066.5,-0 1341.5,-0 1341.5,-36"/>
<text text-anchor="middle" x="1204" y="-14.3" font-family="Times,serif" font-size="14.00">SimpleGUICS2Pygame.simplegui_lib_loader</text>
</g>
<!-- 9 -->
<g id="node10" class="node"><title>9</title>
<polygon fill="none" stroke="black" points="1342,-108 1066,-108 1066,-72 1342,-72 1342,-108"/>
<text text-anchor="middle" x="1204" y="-86.3" font-family="Times,serif" font-size="14.00">SimpleGUICS2Pygame.simpleguics2pygame</text>
</g>
<!-- 8&#45;&gt;9 -->
<g id="edge2" class="edge"><title>8&#45;&gt;9</title>
<path fill="none" stroke="black" d="M1204,-36.3034C1204,-44.0173 1204,-53.2875 1204,-61.8876"/>
<polygon fill="black" stroke="black" points="1204,-71.8957 1199.5,-61.8956 1204,-66.8957 1204,-61.8957 1204,-61.8957 1204,-61.8957 1204,-66.8957 1208.5,-61.8957 1204,-71.8957 1204,-71.8957"/>
</g>
<!-- 10 -->
<g id="node11" class="node"><title>10</title>
<polygon fill="none" stroke="black" points="1752,-468 1408,-468 1408,-432 1752,-432 1752,-468"/>
<text text-anchor="middle" x="1580" y="-446.3" font-family="Times,serif" font-size="14.00">SimpleGUICS2Pygame.simpleguics2pygame._arguments</text>
</g>
<!-- 9&#45;&gt;10 -->
<g id="edge3" class="edge"><title>9&#45;&gt;10</title>
<path fill="none" stroke="black" d="M1342.15,-106.464C1392.17,-114.51 1448.5,-126.465 1498,-144 1623.25,-188.368 1692.36,-173.634 1760,-288 1796.57,-349.826 1703.57,-401.007 1638.05,-428.102"/>
<polygon fill="black" stroke="black" points="1628.6,-431.923 1636.19,-424.002 1633.24,-430.048 1637.88,-428.174 1637.88,-428.174 1637.88,-428.174 1633.24,-430.048 1639.56,-432.345 1628.6,-431.923 1628.6,-431.923"/>
</g>
<!-- 15 -->
<g id="node16" class="node"><title>15</title>
<polygon fill="none" stroke="black" points="813,-468 457,-468 457,-432 813,-432 813,-468"/>
<text text-anchor="middle" x="635" y="-446.3" font-family="Times,serif" font-size="14.00">SimpleGUICS2Pygame.simpleguics2pygame._pygame_init</text>
</g>
<!-- 9&#45;&gt;15 -->
<g id="edge4" class="edge"><title>9&#45;&gt;15</title>
<path fill="none" stroke="black" d="M1065.89,-93.1011C749.634,-99.7466 0,-126.709 0,-233 0,-233 0,-233 0,-307 0,-399.414 259.381,-431.704 446.592,-442.974"/>
<polygon fill="black" stroke="black" points="456.85,-443.575 446.604,-447.483 451.859,-443.283 446.867,-442.99 446.867,-442.99 446.867,-442.99 451.859,-443.283 447.13,-438.498 456.85,-443.575 456.85,-443.575"/>
</g>
<!-- 16 -->
<g id="node17" class="node"><title>16</title>
<polygon fill="none" stroke="black" points="1045.5,-252 728.5,-252 728.5,-216 1045.5,-216 1045.5,-252"/>
<text text-anchor="middle" x="887" y="-230.3" font-family="Times,serif" font-size="14.00">SimpleGUICS2Pygame.simpleguics2pygame.canvas</text>
</g>
<!-- 9&#45;&gt;16 -->
<g id="edge5" class="edge"><title>9&#45;&gt;16</title>
<path fill="none" stroke="black" d="M1165.76,-108.129C1107.81,-134.089 997.817,-183.36 934.708,-211.629"/>
<polygon fill="black" stroke="black" points="925.373,-215.811 932.66,-207.616 929.936,-213.767 934.499,-211.723 934.499,-211.723 934.499,-211.723 929.936,-213.767 936.339,-215.829 925.373,-215.811 925.373,-215.811"/>
</g>
<!-- 17 -->
<g id="node18" class="node"><title>17</title>
<polygon fill="none" stroke="black" points="672,-252 352,-252 352,-216 672,-216 672,-252"/>
<text text-anchor="middle" x="512" y="-230.3" font-family="Times,serif" font-size="14.00">SimpleGUICS2Pygame.simpleguics2pygame.control</text>
</g>
<!-- 9&#45;&gt;17 -->
<g id="edge6" class="edge"><title>9&#45;&gt;17</title>
<path fill="none" stroke="black" d="M1120.87,-108.058C990.982,-134.712 740.748,-186.06 605.024,-213.911"/>
<polygon fill="black" stroke="black" points="595.054,-215.957 603.945,-209.539 599.952,-214.952 604.85,-213.947 604.85,-213.947 604.85,-213.947 599.952,-214.952 605.754,-218.355 595.054,-215.957 595.054,-215.957"/>
</g>
<!-- 18 -->
<g id="node19" class="node"><title>18</title>
<polygon fill="none" stroke="black" points="1452,-180 1140,-180 1140,-144 1452,-144 1452,-180"/>
<text text-anchor="middle" x="1296" y="-158.3" font-family="Times,serif" font-size="14.00">SimpleGUICS2Pygame.simpleguics2pygame.frame</text>
</g>
<!-- 9&#45;&gt;18 -->
<g id="edge7" class="edge"><title>9&#45;&gt;18</title>
<path fill="none" stroke="black" d="M1220.83,-108.303C1231.71,-117.289 1246.14,-128.386 1259.49,-138.076"/>
<polygon fill="black" stroke="black" points="1267.62,-143.896 1256.87,-141.736 1263.56,-140.986 1259.49,-138.076 1259.49,-138.076 1259.49,-138.076 1263.56,-140.986 1262.11,-134.417 1267.62,-143.896 1267.62,-143.896"/>
</g>
<!-- 19 -->
<g id="node20" class="node"><title>19</title>
<polygon fill="none" stroke="black" points="1268,-324 954,-324 954,-288 1268,-288 1268,-324"/>
<text text-anchor="middle" x="1111" y="-302.3" font-family="Times,serif" font-size="14.00">SimpleGUICS2Pygame.simpleguics2pygame.image</text>
</g>
<!-- 9&#45;&gt;19 -->
<g id="edge8" class="edge"><title>9&#45;&gt;19</title>
<path fill="none" stroke="black" d="M1169.16,-108.104C1155,-116.861 1139.92,-128.894 1131,-144 1106.45,-185.586 1105.82,-243.681 1108.07,-277.521"/>
<polygon fill="black" stroke="black" points="1108.88,-287.604 1103.59,-277.995 1108.48,-282.62 1108.08,-277.636 1108.08,-277.636 1108.08,-277.636 1108.48,-282.62 1112.57,-277.277 1108.88,-287.604 1108.88,-287.604"/>
</g>
<!-- 20 -->
<g id="node21" class="node"><title>20</title>
<polygon fill="none" stroke="black" points="334,-252 28,-252 28,-216 334,-216 334,-252"/>
<text text-anchor="middle" x="181" y="-230.3" font-family="Times,serif" font-size="14.00">SimpleGUICS2Pygame.simpleguics2pygame.keys</text>
</g>
<!-- 9&#45;&gt;20 -->
<g id="edge9" class="edge"><title>9&#45;&gt;20</title>
<path fill="none" stroke="black" d="M1065.74,-106.985C980.899,-117.037 870.076,-130.602 772,-144 607.299,-166.5 417.285,-195.694 298.143,-214.392"/>
<polygon fill="black" stroke="black" points="287.908,-216 297.089,-210.002 292.848,-215.224 297.787,-214.448 297.787,-214.448 297.787,-214.448 292.848,-215.224 298.485,-218.893 287.908,-216 287.908,-216"/>
</g>
<!-- 21 -->
<g id="node22" class="node"><title>21</title>
<polygon fill="none" stroke="black" points="1751.5,-324 1438.5,-324 1438.5,-288 1751.5,-288 1751.5,-324"/>
<text text-anchor="middle" x="1595" y="-302.3" font-family="Times,serif" font-size="14.00">SimpleGUICS2Pygame.simpleguics2pygame.sound</text>
</g>
<!-- 9&#45;&gt;21 -->
<g id="edge10" class="edge"><title>9&#45;&gt;21</title>
<path fill="none" stroke="black" d="M1324.34,-108.024C1379.38,-117.37 1437.51,-129.917 1461,-144 1516.69,-177.384 1559.88,-242.515 1580.92,-278.872"/>
<polygon fill="black" stroke="black" points="1586.02,-287.886 1577.18,-281.4 1583.56,-283.534 1581.09,-279.183 1581.09,-279.183 1581.09,-279.183 1583.56,-283.534 1585.01,-276.966 1586.02,-287.886 1586.02,-287.886"/>
</g>
<!-- 22 -->
<g id="node23" class="node"><title>22</title>
<polygon fill="none" stroke="black" points="2080.5,-252 1771.5,-252 1771.5,-216 2080.5,-216 2080.5,-252"/>
<text text-anchor="middle" x="1926" y="-230.3" font-family="Times,serif" font-size="14.00">SimpleGUICS2Pygame.simpleguics2pygame.timer</text>
</g>
<!-- 9&#45;&gt;22 -->
<g id="edge11" class="edge"><title>9&#45;&gt;22</title>
<path fill="none" stroke="black" d="M1342.25,-106.105C1348.59,-106.755 1354.86,-107.389 1361,-108 1537.3,-125.537 1588.17,-93.5416 1758,-144 1807.89,-158.822 1860.05,-189.149 1892.77,-210.258"/>
<polygon fill="black" stroke="black" points="1901.46,-215.947 1890.63,-214.236 1897.28,-213.209 1893.09,-210.471 1893.09,-210.471 1893.09,-210.471 1897.28,-213.209 1895.56,-206.705 1901.46,-215.947 1901.46,-215.947"/>
</g>
<!-- 10&#45;&gt;0 -->
<g id="edge12" class="edge"><title>10&#45;&gt;0</title>
<path fill="none" stroke="black" d="M1580,-468.303C1580,-476.017 1580,-485.288 1580,-493.888"/>
<polygon fill="black" stroke="black" points="1580,-503.896 1575.5,-493.896 1580,-498.896 1580,-493.896 1580,-493.896 1580,-493.896 1580,-498.896 1584.5,-493.896 1580,-503.896 1580,-503.896"/>
</g>
<!-- 11 -->
<g id="node12" class="node"><title>11</title>
<polygon fill="none" stroke="black" points="565.5,-324 244.5,-324 244.5,-288 565.5,-288 565.5,-324"/>
<text text-anchor="middle" x="405" y="-302.3" font-family="Times,serif" font-size="14.00">SimpleGUICS2Pygame.simpleguics2pygame._colors</text>
</g>
<!-- 11&#45;&gt;15 -->
<g id="edge13" class="edge"><title>11&#45;&gt;15</title>
<path fill="none" stroke="black" d="M432.743,-324.129C474.187,-349.716 552.31,-397.948 598.39,-426.397"/>
<polygon fill="black" stroke="black" points="607.158,-431.811 596.285,-430.386 602.904,-429.184 598.649,-426.557 598.649,-426.557 598.649,-426.557 602.904,-429.184 601.013,-422.728 607.158,-431.811 607.158,-431.811"/>
</g>
<!-- 12 -->
<g id="node13" class="node"><title>12</title>
<polygon fill="none" stroke="black" points="936,-324 622,-324 622,-288 936,-288 936,-324"/>
<text text-anchor="middle" x="779" y="-302.3" font-family="Times,serif" font-size="14.00">SimpleGUICS2Pygame.simpleguics2pygame._fonts</text>
</g>
<!-- 12&#45;&gt;10 -->
<g id="edge14" class="edge"><title>12&#45;&gt;10</title>
<path fill="none" stroke="black" d="M780.393,-324.005C783.086,-344.744 790.968,-379.116 814,-396 859.914,-429.659 1185.64,-441.997 1397.3,-446.481"/>
<polygon fill="black" stroke="black" points="1407.6,-446.695 1397.51,-450.986 1402.6,-446.591 1397.6,-446.487 1397.6,-446.487 1397.6,-446.487 1402.6,-446.591 1397.7,-441.988 1407.6,-446.695 1407.6,-446.695"/>
</g>
<!-- 12&#45;&gt;15 -->
<g id="edge15" class="edge"><title>12&#45;&gt;15</title>
<path fill="none" stroke="black" d="M761.63,-324.129C736.223,-349.183 688.799,-395.948 659.75,-424.594"/>
<polygon fill="black" stroke="black" points="652.431,-431.811 656.392,-421.585 655.992,-428.3 659.552,-424.789 659.552,-424.789 659.552,-424.789 655.992,-428.3 662.711,-427.993 652.431,-431.811 652.431,-431.811"/>
</g>
<!-- 13 -->
<g id="node14" class="node"><title>13</title>
<polygon fill="none" stroke="black" points="1154.5,-396 823.5,-396 823.5,-360 1154.5,-360 1154.5,-396"/>
<text text-anchor="middle" x="989" y="-374.3" font-family="Times,serif" font-size="14.00">SimpleGUICS2Pygame.simpleguics2pygame._joypads</text>
</g>
<!-- 13&#45;&gt;15 -->
<g id="edge16" class="edge"><title>13&#45;&gt;15</title>
<path fill="none" stroke="black" d="M902.855,-396.034C850.931,-406.302 784.696,-419.399 731.082,-430.001"/>
<polygon fill="black" stroke="black" points="721.225,-431.95 730.162,-425.596 726.13,-430.98 731.035,-430.01 731.035,-430.01 731.035,-430.01 726.13,-430.98 731.908,-434.425 721.225,-431.95 721.225,-431.95"/>
</g>
<!-- 14 -->
<g id="node15" class="node"><title>14</title>
<polygon fill="none" stroke="black" points="1532.5,-396 1211.5,-396 1211.5,-360 1532.5,-360 1532.5,-396"/>
<text text-anchor="middle" x="1372" y="-374.3" font-family="Times,serif" font-size="14.00">SimpleGUICS2Pygame.simpleguics2pygame._media</text>
</g>
<!-- 14&#45;&gt;10 -->
<g id="edge17" class="edge"><title>14&#45;&gt;10</title>
<path fill="none" stroke="black" d="M1422.62,-396.034C1451.81,-405.858 1488.69,-418.271 1519.42,-428.611"/>
<polygon fill="black" stroke="black" points="1529.16,-431.889 1518.24,-432.964 1524.42,-430.294 1519.68,-428.7 1519.68,-428.7 1519.68,-428.7 1524.42,-430.294 1521.11,-424.435 1529.16,-431.889 1529.16,-431.889"/>
</g>
<!-- 14&#45;&gt;15 -->
<g id="edge18" class="edge"><title>14&#45;&gt;15</title>
<path fill="none" stroke="black" d="M1211.32,-394.627C1206.49,-395.091 1201.71,-395.549 1197,-396 1072.48,-407.92 932.417,-421.129 823.268,-431.378"/>
<polygon fill="black" stroke="black" points="813.137,-432.33 822.673,-426.914 818.115,-431.862 823.094,-431.395 823.094,-431.395 823.094,-431.395 818.115,-431.862 823.514,-435.875 813.137,-432.33 813.137,-432.33"/>
</g>
<!-- 16&#45;&gt;11 -->
<g id="edge19" class="edge"><title>16&#45;&gt;11</title>
<path fill="none" stroke="black" d="M769.706,-252.034C697.981,-262.451 606.2,-275.78 532.654,-286.461"/>
<polygon fill="black" stroke="black" points="522.402,-287.95 531.651,-282.059 527.35,-287.231 532.298,-286.513 532.298,-286.513 532.298,-286.513 527.35,-287.231 532.945,-290.966 522.402,-287.95 522.402,-287.95"/>
</g>
<!-- 16&#45;&gt;12 -->
<g id="edge20" class="edge"><title>16&#45;&gt;12</title>
<path fill="none" stroke="black" d="M860.58,-252.124C846.59,-261.192 829.224,-272.448 814.114,-282.241"/>
<polygon fill="black" stroke="black" points="805.521,-287.81 811.465,-278.595 809.717,-285.091 813.913,-282.371 813.913,-282.371 813.913,-282.371 809.717,-285.091 816.36,-286.147 805.521,-287.81 805.521,-287.81"/>
</g>
<!-- 16&#45;&gt;15 -->
<g id="edge21" class="edge"><title>16&#45;&gt;15</title>
<path fill="none" stroke="black" d="M760.494,-252.052C693.522,-262.377 623.022,-275.854 613,-288 581.49,-326.189 603.523,-387.683 620.495,-422.581"/>
<polygon fill="black" stroke="black" points="625.099,-431.677 616.568,-424.787 622.841,-427.216 620.583,-422.755 620.583,-422.755 620.583,-422.755 622.841,-427.216 624.598,-420.723 625.099,-431.677 625.099,-431.677"/>
</g>
<!-- 16&#45;&gt;19 -->
<g id="edge22" class="edge"><title>16&#45;&gt;19</title>
<path fill="none" stroke="black" d="M941.51,-252.034C973.216,-261.943 1013.36,-274.486 1046.61,-284.879"/>
<polygon fill="black" stroke="black" points="1056.25,-287.889 1045.36,-289.202 1051.47,-286.398 1046.7,-284.906 1046.7,-284.906 1046.7,-284.906 1051.47,-286.398 1048.04,-280.611 1056.25,-287.889 1056.25,-287.889"/>
</g>
<!-- 17&#45;&gt;11 -->
<g id="edge23" class="edge"><title>17&#45;&gt;11</title>
<path fill="none" stroke="black" d="M485.825,-252.124C471.964,-261.192 454.759,-272.448 439.789,-282.241"/>
<polygon fill="black" stroke="black" points="431.276,-287.81 437.181,-278.57 435.46,-285.073 439.644,-282.336 439.644,-282.336 439.644,-282.336 435.46,-285.073 442.108,-286.101 431.276,-287.81 431.276,-287.81"/>
</g>
<!-- 17&#45;&gt;12 -->
<g id="edge24" class="edge"><title>17&#45;&gt;12</title>
<path fill="none" stroke="black" d="M576.974,-252.034C615.334,-262.091 664.051,-274.864 704.033,-285.346"/>
<polygon fill="black" stroke="black" points="713.734,-287.889 702.92,-289.706 708.898,-286.621 704.061,-285.353 704.061,-285.353 704.061,-285.353 708.898,-286.621 705.203,-281 713.734,-287.889 713.734,-287.889"/>
</g>
<!-- 17&#45;&gt;15 -->
<g id="edge25" class="edge"><title>17&#45;&gt;15</title>
<path fill="none" stroke="black" d="M383.724,-252.026C316.138,-262.312 245.12,-275.76 235,-288 224.805,-300.331 225.523,-311.109 235,-324 269.861,-371.417 420.409,-408.825 526.503,-429.936"/>
<polygon fill="black" stroke="black" points="536.626,-431.928 525.945,-434.413 531.72,-430.963 526.814,-429.998 526.814,-429.998 526.814,-429.998 531.72,-430.963 527.683,-425.582 536.626,-431.928 536.626,-431.928"/>
</g>
<!-- 18&#45;&gt;9 -->
<g id="edge26" class="edge"><title>18&#45;&gt;9</title>
<path fill="none" stroke="black" d="M1279.31,-143.81C1268.43,-134.817 1253.96,-123.684 1240.56,-113.963"/>
<polygon fill="black" stroke="black" points="1232.4,-108.124 1243.15,-110.284 1236.47,-111.034 1240.53,-113.944 1240.53,-113.944 1240.53,-113.944 1236.47,-111.034 1237.92,-117.603 1232.4,-108.124 1232.4,-108.124"/>
</g>
<!-- 18&#45;&gt;10 -->
<g id="edge27" class="edge"><title>18&#45;&gt;10</title>
<path fill="none" stroke="black" d="M1325.37,-180.07C1339.72,-189.407 1356.54,-201.932 1369,-216 1405.41,-257.102 1386.56,-289.16 1429,-324 1469.41,-357.175 1502.19,-324.961 1541,-360 1558.94,-376.195 1569.01,-402.134 1574.41,-421.841"/>
<polygon fill="black" stroke="black" points="1576.88,-431.769 1570.1,-423.154 1575.67,-426.918 1574.46,-422.066 1574.46,-422.066 1574.46,-422.066 1575.67,-426.918 1578.83,-420.978 1576.88,-431.769 1576.88,-431.769"/>
</g>
<!-- 18&#45;&gt;11 -->
<g id="edge28" class="edge"><title>18&#45;&gt;11</title>
<path fill="none" stroke="black" d="M1139.93,-165.915C995.187,-170.665 791.573,-183.156 719,-216 697.805,-225.592 701.699,-241.38 681,-252 648.66,-268.593 611.77,-280.017 575.716,-287.875"/>
<polygon fill="black" stroke="black" points="565.574,-289.998 574.44,-283.544 570.468,-288.973 575.362,-287.949 575.362,-287.949 575.362,-287.949 570.468,-288.973 576.284,-292.353 565.574,-289.998 565.574,-289.998"/>
</g>
<!-- 18&#45;&gt;12 -->
<g id="edge29" class="edge"><title>18&#45;&gt;12</title>
<path fill="none" stroke="black" d="M1255.56,-180.173C1208.03,-199.81 1126.45,-231.839 1054,-252 1003.93,-265.932 947.734,-277.47 899.252,-286.183"/>
<polygon fill="black" stroke="black" points="889.346,-287.944 898.405,-281.763 894.269,-287.069 899.192,-286.194 899.192,-286.194 899.192,-286.194 894.269,-287.069 899.98,-290.625 889.346,-287.944 889.346,-287.944"/>
</g>
<!-- 18&#45;&gt;13 -->
<g id="edge30" class="edge"><title>18&#45;&gt;13</title>
<path fill="none" stroke="black" d="M1299.86,-180.252C1306.08,-212.987 1314.15,-284.371 1277,-324 1266.21,-335.511 1198.16,-348.322 1130.92,-358.464"/>
<polygon fill="black" stroke="black" points="1121.01,-359.941 1130.24,-354.016 1125.95,-359.204 1130.9,-358.467 1130.9,-358.467 1130.9,-358.467 1125.95,-359.204 1131.56,-362.918 1121.01,-359.941 1121.01,-359.941"/>
</g>
<!-- 18&#45;&gt;14 -->
<g id="edge31" class="edge"><title>18&#45;&gt;14</title>
<path fill="none" stroke="black" d="M1318.33,-180.023C1329.05,-189.433 1341.05,-202.037 1348,-216 1369.5,-259.185 1373,-316.364 1372.94,-349.673"/>
<polygon fill="black" stroke="black" points="1372.81,-359.999 1368.44,-349.941 1372.87,-354.999 1372.94,-350 1372.94,-350 1372.94,-350 1372.87,-354.999 1377.44,-350.058 1372.81,-359.999 1372.81,-359.999"/>
</g>
<!-- 18&#45;&gt;15 -->
<g id="edge32" class="edge"><title>18&#45;&gt;15</title>
<path fill="none" stroke="black" d="M1305.54,-180.072C1310.64,-190.179 1316.39,-203.429 1319,-216 1328.89,-263.646 1333.58,-287.852 1301,-324 1269.66,-358.779 1241.99,-335.644 1202,-360 1181.85,-372.271 1184.51,-386.323 1163,-396 1103.8,-422.633 949.755,-436.005 823.24,-442.645"/>
<polygon fill="black" stroke="black" points="813.025,-443.17 822.781,-438.163 818.018,-442.913 823.011,-442.657 823.011,-442.657 823.011,-442.657 818.018,-442.913 823.242,-447.151 813.025,-443.17 813.025,-443.17"/>
</g>
<!-- 18&#45;&gt;16 -->
<g id="edge33" class="edge"><title>18&#45;&gt;16</title>
<path fill="none" stroke="black" d="M1196.47,-180.034C1136.11,-190.366 1059,-203.562 996.855,-214.198"/>
<polygon fill="black" stroke="black" points="986.621,-215.95 995.719,-209.827 991.549,-215.106 996.478,-214.263 996.478,-214.263 996.478,-214.263 991.549,-215.106 997.237,-218.698 986.621,-215.95 986.621,-215.95"/>
</g>
<!-- 18&#45;&gt;17 -->
<g id="edge34" class="edge"><title>18&#45;&gt;17</title>
<path fill="none" stroke="black" d="M1139.88,-176.101C1016.61,-186.556 840.279,-201.761 686,-216 684.867,-216.105 683.729,-216.21 682.588,-216.316"/>
<polygon fill="black" stroke="black" points="672.224,-217.281 681.764,-211.873 677.203,-216.817 682.181,-216.353 682.181,-216.353 682.181,-216.353 677.203,-216.817 682.599,-220.834 672.224,-217.281 672.224,-217.281"/>
</g>
<!-- 18&#45;&gt;19 -->
<g id="edge35" class="edge"><title>18&#45;&gt;19</title>
<path fill="none" stroke="black" d="M1273.68,-180.129C1240.63,-205.503 1178.56,-253.146 1141.38,-281.682"/>
<polygon fill="black" stroke="black" points="1133.39,-287.811 1138.59,-278.152 1137.36,-284.766 1141.33,-281.722 1141.33,-281.722 1141.33,-281.722 1137.36,-284.766 1144.07,-285.292 1133.39,-287.811 1133.39,-287.811"/>
</g>
<!-- 18&#45;&gt;20 -->
<g id="edge36" class="edge"><title>18&#45;&gt;20</title>
<path fill="none" stroke="black" d="M1139.84,-169.334C953.164,-177.443 631.045,-193.132 344.227,-215.925"/>
<polygon fill="black" stroke="black" points="334.039,-216.739 343.649,-211.457 339.023,-216.34 344.007,-215.942 344.007,-215.942 344.007,-215.942 339.023,-216.34 344.365,-220.428 334.039,-216.739 334.039,-216.739"/>
</g>
<!-- 18&#45;&gt;22 -->
<g id="edge37" class="edge"><title>18&#45;&gt;22</title>
<path fill="none" stroke="black" d="M1449.31,-180.034C1544.2,-190.578 1665.95,-204.105 1762.65,-214.85"/>
<polygon fill="black" stroke="black" points="1772.82,-215.98 1762.39,-219.348 1767.85,-215.428 1762.88,-214.876 1762.88,-214.876 1762.88,-214.876 1767.85,-215.428 1763.38,-210.403 1772.82,-215.98 1772.82,-215.98"/>
</g>
<!-- 19&#45;&gt;14 -->
<g id="edge38" class="edge"><title>19&#45;&gt;14</title>
<path fill="none" stroke="black" d="M1174.51,-324.034C1211.93,-334.07 1259.43,-346.81 1298.47,-357.279"/>
<polygon fill="black" stroke="black" points="1308.2,-359.889 1297.38,-361.645 1303.37,-358.594 1298.54,-357.299 1298.54,-357.299 1298.54,-357.299 1303.37,-358.594 1299.71,-352.952 1308.2,-359.889 1308.2,-359.889"/>
</g>
<!-- 19&#45;&gt;15 -->
<g id="edge39" class="edge"><title>19&#45;&gt;15</title>
<path fill="none" stroke="black" d="M968.453,-324.003C918.809,-332.127 863.237,-343.738 814,-360 762.573,-376.986 707.328,-406.335 672.031,-426.663"/>
<polygon fill="black" stroke="black" points="663.063,-431.881 669.443,-422.962 667.384,-429.366 671.706,-426.852 671.706,-426.852 671.706,-426.852 667.384,-429.366 673.969,-430.741 663.063,-431.881 663.063,-431.881"/>
</g>
<!-- 20&#45;&gt;15 -->
<g id="edge40" class="edge"><title>20&#45;&gt;15</title>
<path fill="none" stroke="black" d="M185.799,-252.083C196.5,-286.539 225.903,-363.818 282,-396 311.075,-412.68 378.613,-424.728 446.915,-433.079"/>
<polygon fill="black" stroke="black" points="456.993,-434.284 446.53,-437.565 452.029,-433.69 447.064,-433.096 447.064,-433.096 447.064,-433.096 452.029,-433.69 447.598,-428.628 456.993,-434.284 456.993,-434.284"/>
</g>
<!-- 21&#45;&gt;10 -->
<g id="edge41" class="edge"><title>21&#45;&gt;10</title>
<path fill="none" stroke="black" d="M1593.19,-324.129C1590.63,-348.33 1585.94,-392.789 1582.89,-421.607"/>
<polygon fill="black" stroke="black" points="1581.82,-431.811 1578.39,-421.393 1582.34,-426.838 1582.87,-421.866 1582.87,-421.866 1582.87,-421.866 1582.34,-426.838 1587.34,-422.339 1581.82,-431.811 1581.82,-431.811"/>
</g>
<!-- 21&#45;&gt;14 -->
<g id="edge42" class="edge"><title>21&#45;&gt;14</title>
<path fill="none" stroke="black" d="M1540.73,-324.034C1509.17,-333.943 1469.21,-346.486 1436.1,-356.879"/>
<polygon fill="black" stroke="black" points="1426.51,-359.889 1434.7,-352.601 1431.28,-358.392 1436.05,-356.894 1436.05,-356.894 1436.05,-356.894 1431.28,-358.392 1437.4,-361.188 1426.51,-359.889 1426.51,-359.889"/>
</g>
<!-- 22&#45;&gt;10 -->
<g id="edge43" class="edge"><title>22&#45;&gt;10</title>
<path fill="none" stroke="black" d="M1916.95,-252.166C1898.52,-285.401 1853.28,-358.55 1794,-396 1770.34,-410.949 1742.73,-421.682 1715.36,-429.388"/>
<polygon fill="black" stroke="black" points="1705.7,-431.989 1714.19,-425.044 1710.53,-430.69 1715.36,-429.39 1715.36,-429.39 1715.36,-429.39 1710.53,-430.69 1716.53,-433.735 1705.7,-431.989 1705.7,-431.989"/>
</g>
<!-- 23 -->
<g id="node24" class="node"><title>23</title>
<polygon fill="none" stroke="black" points="3159.5,-36 2944.5,-36 2944.5,-0 3159.5,-0 3159.5,-36"/>
<text text-anchor="middle" x="3052" y="-14.3" font-family="Times,serif" font-size="14.00">SimpleGUICS2Pygame.simpleplot</text>
</g>
</g>
</svg>
